<svg width="16" height="16" viewBox="0 0 16 16" fill="none" xmlns="http://www.w3.org/2000/svg">
<path d="M8.00002 0.666668C3.95614 0.666668 0.666687 3.95612 0.666687 8C0.666687 12.0439 3.95614 15.3333 8.00002 15.3333C12.0439 15.3333 15.3334 12.0439 15.3334 8C15.3334 3.95612 12.0439 0.666668 8.00002 0.666668ZM8.00002 14.0871C6.07274 14.0871 4.35492 13.1841 3.23911 11.7817C4.01635 10.7647 5.10057 10.0252 6.33109 9.67277C5.88802 9.39132 5.52316 9.0026 5.2703 8.54263C5.01744 8.08265 4.88476 7.56629 4.88455 7.0414C4.88455 5.32357 6.2822 3.92593 8.00002 3.92593C9.71784 3.92593 11.1155 5.32357 11.1155 7.0414C11.115 7.56637 10.9822 8.08275 10.7293 8.54278C10.4764 9.0028 10.1115 9.39162 9.66847 9.67325C10.8992 10.0254 11.9837 10.765 12.7609 11.7822C11.6451 13.1841 9.9273 14.0871 8.00002 14.0871Z" fill="#2D3E50"/>
</svg>
