<svg width="12" height="12" viewBox="0 0 12 12" fill="none" xmlns="http://www.w3.org/2000/svg">
<path d="M6 0.84375C8.84772 0.84375 11.1562 3.15228 11.1562 6C11.1562 8.84772 8.84772 11.1562 6 11.1562C3.15228 11.1562 0.84375 8.84772 0.84375 6C0.84375 3.15228 3.15228 0.84375 6 0.84375ZM6 3.59375C5.05076 3.59375 4.28125 4.36326 4.28125 5.3125C4.28125 6.00495 4.69451 6.61871 5.31237 6.88808L5.31249 7.60944L5.26092 7.61901C4.2872 7.81196 3.43253 8.38318 2.87676 9.19589C3.68231 9.98345 4.78448 10.4688 6 10.4688C7.21535 10.4688 8.31737 9.98359 9.12298 9.19637C8.5681 8.38414 7.71435 7.81286 6.74107 7.61966L6.68749 7.60978L6.68791 6.8882C7.2822 6.62876 7.68708 6.05091 7.71697 5.39101L7.71875 5.3125C7.71875 4.36326 6.94924 3.59375 6 3.59375ZM6 1.53125C3.53198 1.53125 1.53125 3.53198 1.53125 6C1.53125 6.99845 1.8587 7.92042 2.41206 8.66438C2.90044 8.00661 3.56002 7.49554 4.31596 7.18777L4.43559 7.14091L4.4277 7.13439C3.93372 6.70775 3.62174 6.08747 3.59554 5.40582L3.59375 5.3125C3.59375 3.98356 4.67106 2.90625 6 2.90625C7.32894 2.90625 8.40625 3.98356 8.40625 5.3125C8.40625 5.99798 8.11698 6.62837 7.64156 7.07228L7.56406 7.14125L7.57945 7.14686C8.3793 7.44909 9.07719 7.97662 9.58801 8.66375C10.1414 7.92013 10.4688 6.99829 10.4688 6C10.4688 3.53198 8.46802 1.53125 6 1.53125Z" fill="#2D3E50"/>
</svg>
