<svg width="16" height="16" viewBox="0 0 16 16" fill="none" xmlns="http://www.w3.org/2000/svg">
<path d="M8 1.125C11.797 1.125 14.875 4.20304 14.875 8C14.875 11.797 11.797 14.875 8 14.875C4.20304 14.875 1.125 11.797 1.125 8C1.125 4.20304 4.20304 1.125 8 1.125ZM8 4.79167C6.73435 4.79167 5.70833 5.81768 5.70833 7.08333C5.70833 8.0066 6.25935 8.82495 7.08317 9.1841L7.08331 10.1459L7.01457 10.1587C5.71627 10.4159 4.5767 11.1776 3.83568 12.2612C4.90975 13.3113 6.37931 13.9583 8 13.9583C9.62046 13.9583 11.0898 13.3114 12.164 12.2618C11.4241 11.1788 10.2858 10.4171 8.98809 10.1595L8.91665 10.1464L8.91721 9.18427C9.7096 8.83834 10.2494 8.06788 10.2893 7.18801L10.2917 7.08333C10.2917 5.81768 9.26565 4.79167 8 4.79167ZM8 2.04167C4.7093 2.04167 2.04167 4.7093 2.04167 8C2.04167 9.33126 2.47826 10.5606 3.21608 11.5525C3.86726 10.6755 4.74669 9.99406 5.75461 9.58369L5.91413 9.52121L5.9036 9.51251C5.24496 8.94367 4.82898 8.11662 4.79405 7.20776L4.79167 7.08333C4.79167 5.31142 6.22809 3.875 8 3.875C9.77191 3.875 11.2083 5.31142 11.2083 7.08333C11.2083 7.99731 10.8226 8.83783 10.1887 9.42971L10.0854 9.52167L10.1059 9.52914C11.1724 9.93212 12.1029 10.6355 12.784 11.5517C13.5219 10.5602 13.9583 9.33106 13.9583 8C13.9583 4.7093 11.2907 2.04167 8 2.04167Z" fill="#2D3E50"/>
</svg>
