<svg width="12" height="12" viewBox="0 0 12 12" fill="none" xmlns="http://www.w3.org/2000/svg">
<path d="M3.10978 2.05398H2.34704V2.1827C2.34704 4.14811 2.34704 6.11351 2.34704 8.07892C2.34849 8.13296 2.34225 8.18693 2.32851 8.23921C2.29164 8.36446 2.16985 8.4384 2.03665 8.42434C1.97721 8.41745 1.92188 8.39052 1.87979 8.34798C1.83769 8.30545 1.81134 8.24984 1.80508 8.19033C1.7998 8.13619 1.79769 8.08178 1.79876 8.02739C1.79876 6.09254 1.79876 4.15768 1.79876 2.22282V2.0552H1.0511V9.69279C1.08694 9.69463 1.12279 9.69788 1.15863 9.69788C3.06647 9.69788 4.97417 9.69863 6.88173 9.70013C6.97094 9.70013 7.00027 9.6765 6.99721 9.58668C6.9911 9.41377 6.99335 9.24044 6.99721 9.06733C7.00108 8.89421 7.11636 8.7775 7.27319 8.78056C7.43001 8.78361 7.54081 8.90704 7.54162 9.07731C7.54162 9.27996 7.54162 9.48261 7.54162 9.69157H8.2952C8.2952 9.593 8.2952 9.4987 8.2952 9.4044C8.29622 9.27894 8.29214 9.15307 8.30131 9.02802C8.30541 8.95946 8.33614 8.89522 8.38693 8.84899C8.43772 8.80276 8.50457 8.77821 8.57321 8.78056C8.7174 8.78321 8.82555 8.88973 8.82942 9.04187C8.8337 9.21478 8.83085 9.3881 8.83105 9.56122V9.68892C8.87179 9.69259 8.9005 9.69768 8.92942 9.69768C9.25529 9.69768 9.58116 9.69544 9.90703 9.69992C9.9885 9.70114 10.0127 9.67507 10.0115 9.59625C10.0076 9.37568 10.0087 9.1549 10.0115 8.93433C10.0134 8.74166 10.1186 8.63168 10.2924 8.63514C10.4553 8.6384 10.5571 8.75612 10.5571 8.94268C10.5571 9.27181 10.5571 9.60108 10.5571 9.93048C10.5571 10.1447 10.4553 10.2468 10.2382 10.2472C9.78687 10.248 9.33547 10.248 8.88401 10.2472C6.20915 10.2472 3.5343 10.2472 0.859443 10.2472C0.792436 10.2472 0.720337 10.2462 0.659847 10.2221C0.6146 10.2059 0.575345 10.1763 0.547271 10.1373C0.519196 10.0983 0.503625 10.0517 0.502614 10.0036C0.500781 9.96632 0.50017 9.92905 0.50017 9.89178C0.50017 7.21353 0.50017 4.53528 0.50017 1.85703C0.50017 1.79593 0.497115 1.73157 0.516871 1.67638C0.5317 1.62893 0.560521 1.58707 0.599555 1.55628C0.638588 1.5255 0.686014 1.50723 0.735612 1.50387C0.77268 1.50041 0.810155 1.5 0.847426 1.5C3.97035 1.5 7.09328 1.5 10.2162 1.5C10.3209 1.5 10.427 1.50204 10.4897 1.59878C10.5273 1.65394 10.5495 1.71814 10.5539 1.78473C10.56 2.13097 10.5578 2.4772 10.5565 2.82344C10.5565 2.99676 10.4453 3.11204 10.2838 3.11286C10.1223 3.11367 10.0146 3.00328 10.0121 2.82487C10.0093 2.59757 10.0121 2.37007 10.0105 2.14258C10.0105 2.10042 10.0203 2.0497 9.9494 2.04991C9.58279 2.04991 9.21619 2.04991 8.84001 2.04991C8.83675 2.09308 8.83207 2.12893 8.83187 2.16498C8.83187 2.33464 8.83187 2.50429 8.83187 2.67415C8.83024 2.85012 8.73003 2.96336 8.57545 2.96683C8.42086 2.97029 8.30436 2.85481 8.29886 2.68026C8.29357 2.51407 8.29723 2.34767 8.29601 2.18127C8.29601 2.14054 8.29214 2.10103 8.2895 2.0495H7.54101C7.54101 2.27354 7.54284 2.48698 7.54101 2.69981C7.53912 2.75962 7.51807 2.81723 7.48096 2.86416C7.44385 2.9111 7.39265 2.94487 7.3349 2.96051C7.22838 2.98882 7.10027 2.94483 7.04386 2.84401C7.01481 2.78721 6.9992 2.7245 6.99823 2.66071C6.99233 2.4878 6.99375 2.31447 6.99701 2.14135C6.99823 2.07251 6.97664 2.04583 6.90414 2.04746C6.69069 2.05154 6.47643 2.04889 6.2524 2.04889C6.24955 2.10999 6.24486 2.16254 6.24466 2.21549C6.24357 4.47241 6.24303 6.72968 6.24303 8.98728C6.24606 9.04796 6.23981 9.10874 6.22449 9.16753C6.18783 9.28057 6.05402 9.35531 5.94119 9.338C5.8785 9.32879 5.82069 9.29886 5.77699 9.25298C5.73328 9.2071 5.7062 9.14791 5.70005 9.08484C5.6979 9.05094 5.69749 9.01695 5.69882 8.98301V2.0552H4.95543V2.19777C4.95543 4.15992 4.95543 6.12193 4.95543 8.08381C4.95741 8.1344 4.95255 8.18503 4.94097 8.23432C4.92283 8.29574 4.88342 8.3487 4.8298 8.38371C4.77618 8.41873 4.71185 8.43352 4.64832 8.42543C4.58479 8.41735 4.52621 8.38692 4.48307 8.33958C4.43992 8.29225 4.41504 8.23111 4.41286 8.16711C4.41123 8.12984 4.41286 8.09236 4.41286 8.05509V2.1996C4.41286 2.0495 4.41286 2.0495 4.26703 2.0495C4.09045 2.0495 3.91407 2.05133 3.73749 2.0495C3.67741 2.04848 3.64828 2.06661 3.65399 2.13097C3.65704 2.16457 3.65399 2.19879 3.65399 2.2328C3.65399 4.49013 3.65399 6.74747 3.65399 9.0048C3.65399 9.19523 3.59105 9.29319 3.44502 9.33189C3.40726 9.34154 3.36785 9.34282 3.32954 9.33566C3.29123 9.3285 3.25495 9.31306 3.22322 9.29043C3.1915 9.2678 3.16509 9.23852 3.14585 9.20463C3.12661 9.17074 3.11499 9.13305 3.11182 9.09421C3.10938 9.05694 3.11182 9.01946 3.11182 8.98219C3.11182 6.725 3.11182 4.46766 3.11182 2.21019L3.10978 2.05398Z" fill="#2D3E50"/>
<path d="M7.60369 5.56421C7.81734 5.63977 8.01877 5.70576 8.21572 5.78234C8.46236 5.87807 8.70737 5.88743 8.94465 5.76869C9.29089 5.59578 9.64792 5.55464 10.0204 5.6526C10.1095 5.67496 10.1957 5.70742 10.2775 5.74935C10.5435 5.89192 10.8101 5.87908 11.0891 5.76971L11.1502 5.83815C11.1873 5.72226 11.2156 5.70922 11.3255 5.74996C11.3752 5.76814 11.418 5.80119 11.4482 5.84459C11.4784 5.888 11.4944 5.93966 11.4942 5.99253C11.4942 6.10231 11.418 6.22715 11.3298 6.26463C10.8799 6.45587 10.4377 6.45282 9.9964 6.23021C9.75525 6.10801 9.50087 6.11127 9.25993 6.23021C8.80473 6.45547 8.35401 6.44182 7.89799 6.23815C7.80777 6.19742 7.71021 6.1742 7.60736 6.13998C7.60736 6.23367 7.61999 6.30557 7.60491 6.37094C7.59564 6.41599 7.57453 6.45776 7.54375 6.49194C7.51298 6.52612 7.47366 6.55149 7.42982 6.56542C7.38599 6.57936 7.33924 6.58137 7.29438 6.57125C7.24951 6.56112 7.20815 6.53922 7.17456 6.50781C7.01488 6.36076 6.86274 6.20516 6.71223 6.04854C6.61834 5.95078 6.62914 5.78499 6.73138 5.6801C6.86865 5.53916 7.00837 5.40026 7.1487 5.26237C7.25379 5.15911 7.37273 5.14384 7.49127 5.2137C7.6098 5.28355 7.6485 5.397 7.60878 5.53957C7.60654 5.54766 7.60484 5.55589 7.60369 5.56421Z" fill="#2D3E50"/>
<path d="M7.59171 3.87133C7.72409 3.89169 7.85362 3.90901 7.98234 3.93141C8.01487 3.93873 8.04557 3.95259 8.07257 3.97214C8.38215 4.18009 8.69498 4.17194 9.02472 4.01186C9.4341 3.81328 9.85366 3.82122 10.26 4.02164C10.5396 4.15952 10.8129 4.17215 11.0889 4.03386C11.2655 3.94526 11.4201 4.04933 11.4779 4.17642C11.539 4.31166 11.4692 4.46156 11.3174 4.53549C10.8909 4.74486 10.4651 4.72531 10.0443 4.52572C9.77952 4.39965 9.51577 4.39028 9.24998 4.51146C9.0347 4.60983 8.8127 4.67643 8.57441 4.67602C8.34019 4.67602 8.12023 4.61655 7.9078 4.51798C7.81269 4.47378 7.708 4.45056 7.59354 4.41309C7.59965 4.4858 7.60474 4.52857 7.60637 4.57154C7.61031 4.62288 7.59794 4.67415 7.57102 4.71803C7.5441 4.76192 7.50401 4.79619 7.45647 4.81594C7.35769 4.86157 7.25137 4.85831 7.17031 4.78173C7.01267 4.63264 6.85911 4.47867 6.71287 4.31859C6.62122 4.21858 6.62733 4.06746 6.72265 3.96563C6.86522 3.81186 7.01471 3.66236 7.16706 3.51755C7.24669 3.44159 7.34628 3.42488 7.44975 3.47519C7.54975 3.52387 7.60739 3.60208 7.60556 3.71613C7.60515 3.76338 7.59761 3.81023 7.59171 3.87133Z" fill="#2D3E50"/>
<path d="M7.60006 7.85834C7.64507 8.09969 7.59761 8.22067 7.45525 8.2779C7.34588 8.3221 7.2471 8.29969 7.16461 8.21965C7.01858 8.07708 6.87316 7.93451 6.73263 7.78767C6.61837 7.66811 6.62346 7.51516 6.73854 7.39724C6.86196 7.27096 6.9862 7.14557 7.11125 7.02106C7.24791 6.88399 7.36686 6.85548 7.49008 6.9288C7.6133 7.00212 7.64772 7.11923 7.59619 7.31679C7.64914 7.32432 7.70291 7.32493 7.7522 7.34C7.89721 7.3844 8.0463 7.42249 8.18357 7.48522C8.46341 7.61312 8.72981 7.60131 9.00456 7.46791C9.4119 7.26994 9.83064 7.26057 10.24 7.45752C10.5319 7.59785 10.8133 7.62046 11.1076 7.47524C11.1398 7.45931 11.1748 7.44997 11.2106 7.44778C11.2464 7.44558 11.2823 7.45057 11.3162 7.46245C11.35 7.47433 11.3812 7.49286 11.4078 7.51695C11.4343 7.54104 11.4558 7.57021 11.471 7.60274C11.4867 7.63587 11.4957 7.67177 11.4975 7.70839C11.4993 7.74501 11.4939 7.78162 11.4815 7.81613C11.4691 7.85064 11.4501 7.88237 11.4254 7.9095C11.4007 7.93663 11.371 7.95863 11.3378 7.97423C10.9219 8.17097 10.4999 8.18381 10.0822 7.98441C9.86527 7.88095 9.64571 7.84184 9.41149 7.89622C9.36196 7.90712 9.31404 7.92437 9.26892 7.94755C8.81107 8.19195 8.35241 8.17159 7.89192 7.95631C7.80536 7.91618 7.71045 7.8948 7.60006 7.85834Z" fill="#2D3E50"/>
<path d="M4.67482 9.34128C4.62085 9.34024 4.56838 9.3233 4.52397 9.2926C4.47957 9.26189 4.4452 9.21878 4.42517 9.16865C4.40515 9.11851 4.40034 9.06359 4.41136 9.01074C4.42238 8.95789 4.44874 8.90947 4.48713 8.87152C4.52553 8.83357 4.57426 8.80778 4.62723 8.79738C4.68021 8.78698 4.73507 8.79243 4.78497 8.81304C4.83486 8.83366 4.87757 8.86853 4.90775 8.91329C4.93794 8.95805 4.95425 9.01071 4.95466 9.06469C4.95248 9.13792 4.92219 9.20749 4.87009 9.25899C4.81799 9.31048 4.74807 9.33995 4.67482 9.34128Z" fill="#2D3E50"/>
<path d="M2.07395 9.32393C1.90898 9.32393 1.80551 9.2221 1.80531 9.06161C1.80448 9.02612 1.81083 8.99083 1.82399 8.95785C1.83715 8.92488 1.85684 8.89491 1.88188 8.86974C1.90691 8.84457 1.93678 8.82472 1.96968 8.81139C2.00258 8.79806 2.03784 8.79151 2.07334 8.79216C2.10972 8.79101 2.14596 8.7973 2.17984 8.81063C2.21372 8.82396 2.24452 8.84406 2.27037 8.8697C2.29622 8.89533 2.31656 8.92597 2.33017 8.95974C2.34378 8.99351 2.35036 9.02969 2.34951 9.06609C2.34849 9.22006 2.23749 9.32393 2.07395 9.32393Z" fill="#2D3E50"/>
</svg>
