<svg width="16" height="16" viewBox="0 0 16 16" fill="none" xmlns="http://www.w3.org/2000/svg">
<path d="M12.128 7.95039C12.128 9.53167 12.1184 11.1129 12.1314 12.6941C12.14 13.7568 11.229 14.6041 10.2519 14.6081C10.1186 14.6081 9.98514 14.6059 9.85186 14.6112C9.83482 14.6125 9.81823 14.6172 9.80307 14.6251C9.78792 14.633 9.77452 14.6439 9.7637 14.6571C9.40722 15.1851 8.90865 15.4515 8.27425 15.4597C7.82625 15.4654 7.37825 15.4654 6.93025 15.4597C6.29297 15.4521 5.79153 15.1877 5.43441 14.6544C5.41841 14.6302 5.37617 14.6126 5.34497 14.6107C5.10593 14.5963 4.86384 14.6057 4.62784 14.5718C3.85456 14.4605 3.16112 13.7213 3.088 12.9465C3.07856 12.8485 3.07344 12.7497 3.07344 12.6513C3.07344 9.51278 3.0832 6.37439 3.06704 3.236C3.0608 2.14576 3.97984 1.2688 5.00592 1.29072C5.13665 1.2936 5.26737 1.28912 5.39793 1.29232C5.41857 1.29423 5.43935 1.29048 5.45803 1.28149C5.47672 1.2725 5.49261 1.2586 5.50401 1.24128C5.79441 0.854883 6.17521 0.617284 6.65761 0.553284C6.72371 0.544731 6.79031 0.540561 6.85697 0.540804C7.36353 0.540804 7.87025 0.534724 8.37697 0.543844C8.92209 0.553764 9.35154 0.799843 9.68226 1.22544C9.69748 1.24789 9.7183 1.26598 9.74266 1.2779C9.76702 1.28983 9.79407 1.29519 9.82114 1.29344C10.0978 1.29456 10.3743 1.28096 10.6491 1.34048C11.3371 1.48976 12.1338 2.176 12.1296 3.19152C12.1232 4.77728 12.128 6.36383 12.128 7.95039ZM11.3682 2.53968C11.3499 2.50768 11.3381 2.48144 11.3224 2.45824C11.0525 2.06352 10.6832 1.8488 10.2002 1.84848C8.47025 1.84752 6.74028 1.8472 5.01024 1.84752C4.60176 1.84752 4.26416 2.00048 3.9944 2.30368C3.93248 2.37328 3.88352 2.45424 3.82144 2.53968H11.3682ZM11.328 13.4286H3.8776C3.89008 13.4488 3.8968 13.4625 3.90608 13.4744C4.18752 13.8317 4.54608 14.0344 5.01008 14.0344C6.73222 14.0344 8.45425 14.0344 10.1762 14.0344C10.2215 14.0344 10.2669 14.0344 10.312 14.0309C10.7403 13.9926 11.0655 13.78 11.328 13.4286ZM10.8184 12.879V3.12368H10.4664V12.879H10.8184ZM4.7496 12.8781V3.12176H4.416V12.8781H4.7496ZM8.78241 3.12176V12.8782H9.08417V3.12176H8.78241ZM6.15041 3.12176V12.8776H6.43553V3.12176H6.15041ZM7.02897 3.12064V12.8774H7.30961V3.12176L7.02897 3.12064ZM8.18801 12.8785V3.11728H7.90801V12.8789L8.18801 12.8785ZM9.67426 3.12176V12.8833H9.90626V3.12176H9.67426ZM5.56017 12.8789V3.12352H5.34401V12.8789H5.56017ZM3.82144 12.8789V3.12272H3.664V12.8792L3.82144 12.8789ZM11.4112 3.12032V12.8782H11.5392V3.12032H11.4112ZM6.14721 14.6121C6.33793 14.7721 6.53361 14.8763 6.76161 14.8798C7.30753 14.8886 7.85361 14.8877 8.39937 14.8819C8.50593 14.8808 8.61473 14.8489 8.71729 14.8152C8.84133 14.7733 8.95428 14.7039 9.04769 14.6121H6.14721ZM6.27889 1.28416H8.92033C8.77313 1.18576 8.63057 1.12272 8.47473 1.12176C7.89436 1.116 7.31404 1.116 6.73377 1.12176C6.57601 1.12176 6.42929 1.18304 6.27921 1.28464L6.27889 1.28416Z" fill="#2D3E50"/>
</svg>
