<svg width="16" height="16" viewBox="0 0 16 16" fill="none" xmlns="http://www.w3.org/2000/svg">
<path d="M1.62423 2.80002H13.4424C13.4909 2.80002 13.5273 2.81214 13.5636 2.8485C13.6 2.88487 13.6121 2.92123 13.6121 2.96972V4.30305C13.6121 4.35153 13.6 4.3879 13.5636 4.42426C13.5273 4.46062 13.4909 4.47275 13.4424 4.47275C13.3939 4.47275 13.3576 4.46062 13.3212 4.42426C13.2848 4.3879 13.2727 4.35153 13.2727 4.30305V3.15153H11.4788V4.12123C11.4788 4.16972 11.4667 4.20608 11.4303 4.24244C11.3939 4.27881 11.3576 4.29093 11.3091 4.29093C11.2606 4.29093 11.2242 4.27881 11.1879 4.24244C11.1515 4.20608 11.1394 4.16972 11.1394 4.12123V3.15153H9.87877V4.12123C9.87877 4.16972 9.86665 4.20608 9.83029 4.24244C9.79392 4.27881 9.75756 4.29093 9.70907 4.29093C9.66059 4.29093 9.62423 4.27881 9.58786 4.24244C9.5515 4.20608 9.53938 4.16972 9.53938 4.12123V3.15153H8.26665V12.0364C8.26665 12.0849 8.25453 12.1212 8.21817 12.1576C8.1818 12.194 8.14544 12.2061 8.09695 12.2061C8.04847 12.2061 8.0121 12.194 7.97574 12.1576C7.93938 12.1212 7.92726 12.0849 7.92726 12.0364V3.13941H6.66665V10.8849C6.66665 10.9334 6.65453 10.9697 6.61817 11.0061C6.5818 11.0424 6.54544 11.0546 6.49695 11.0546C6.44847 11.0546 6.4121 11.0424 6.37574 11.0061C6.33938 10.9697 6.32726 10.9334 6.32726 10.8849V3.13941H5.04241V12.0243C5.04241 12.0727 5.03029 12.1091 4.99392 12.1455C4.95756 12.1818 4.9212 12.194 4.87271 12.194C4.82423 12.194 4.78786 12.1818 4.7515 12.1455C4.71514 12.1091 4.70301 12.0727 4.70301 12.0243V3.13941H3.41817V10.8849C3.41817 10.9334 3.40604 10.9697 3.36968 11.0061C3.33332 11.0424 3.29695 11.0546 3.24847 11.0546C3.19998 11.0546 3.16362 11.0424 3.12726 11.0061C3.09089 10.9697 3.07877 10.9334 3.07877 10.8849V3.13941H1.80604V12.9818H9.52726V12.0121C9.52726 11.9637 9.53938 11.9273 9.57574 11.8909C9.6121 11.8546 9.64847 11.8424 9.69695 11.8424C9.74544 11.8424 9.7818 11.8546 9.81817 11.8909C9.85453 11.9273 9.86665 11.9637 9.86665 12.0121V12.9818H11.1394V12.0121C11.1394 11.9637 11.1515 11.9273 11.1879 11.8909C11.2242 11.8546 11.2606 11.8424 11.3091 11.8424C11.3576 11.8424 11.3939 11.8546 11.4303 11.8909C11.4667 11.9273 11.4788 11.9637 11.4788 12.0121V12.9818H13.2727V11.8303C13.2727 11.7818 13.2848 11.7455 13.3212 11.7091C13.3576 11.6727 13.3939 11.6606 13.4424 11.6606C13.4909 11.6606 13.5273 11.6727 13.5636 11.7091C13.6 11.7455 13.6121 11.7818 13.6121 11.8303V13.1637C13.6121 13.2121 13.6 13.2485 13.5636 13.2849C13.5273 13.3212 13.4909 13.3334 13.4424 13.3334H1.62423C1.57574 13.3334 1.53938 13.3212 1.50301 13.2849C1.46665 13.2485 1.45453 13.2121 1.45453 13.1637V2.96972C1.45453 2.92123 1.46665 2.88487 1.50301 2.8485C1.53938 2.81214 1.57574 2.80002 1.62423 2.80002ZM14.6909 8.37578C14.5939 8.43638 14.4727 8.47275 14.3515 8.50911C14.2303 8.54547 14.097 8.55759 13.9636 8.55759C13.8303 8.55759 13.7091 8.54547 13.5757 8.50911C13.4424 8.47275 13.3333 8.43638 13.2121 8.37578L13.2242 8.3879C13.1394 8.33941 13.0545 8.30305 12.9576 8.27881C12.8606 8.25456 12.7636 8.24244 12.6545 8.24244C12.5454 8.24244 12.4363 8.25456 12.3394 8.27881C12.2424 8.30305 12.1454 8.33941 12.0606 8.3879H12.0727C11.9636 8.4485 11.8424 8.48487 11.7212 8.50911C11.6 8.53335 11.4667 8.54547 11.3333 8.54547C11.2 8.54547 11.0667 8.53335 10.9454 8.49699C10.8242 8.46062 10.703 8.42426 10.5818 8.36366L10.5939 8.37578C10.5091 8.32729 10.4242 8.29093 10.3273 8.26669C10.2303 8.24244 10.1212 8.23032 10.0121 8.23032H9.69695L9.92726 8.46063C9.93938 8.47275 9.9515 8.49699 9.96362 8.50911C9.97574 8.53335 9.97574 8.55759 9.97574 8.58184C9.97574 8.60608 9.97574 8.6182 9.96362 8.64244C9.9515 8.66669 9.9515 8.67881 9.92726 8.70305C9.90301 8.71517 9.89089 8.72729 9.86665 8.73941C9.84241 8.75153 9.83029 8.75153 9.80604 8.75153C9.7818 8.75153 9.75756 8.75153 9.73332 8.73941C9.70907 8.72729 9.69695 8.71517 9.68483 8.70305L9.1515 8.16972C9.12726 8.15759 9.11513 8.13335 9.11513 8.12123C9.10301 8.09699 9.10301 8.07275 9.10301 8.0485C9.10301 8.02426 9.10301 8.00002 9.11513 7.9879C9.12726 7.96365 9.13938 7.93941 9.1515 7.92729L9.68483 7.39396C9.69695 7.38184 9.7212 7.36972 9.73332 7.35759C9.75756 7.34547 9.7818 7.34547 9.80604 7.34547C9.83029 7.34547 9.84241 7.34547 9.86665 7.35759C9.89089 7.36972 9.90301 7.38184 9.92726 7.39396C9.93938 7.40608 9.9515 7.43032 9.96362 7.45456C9.97574 7.47881 9.97574 7.50305 9.97574 7.51517C9.97574 7.53941 9.97574 7.56365 9.96362 7.5879C9.9515 7.61214 9.93938 7.62426 9.92726 7.63638L9.69695 7.89093H9.99998C10.1333 7.89093 10.2667 7.90305 10.3879 7.93941C10.5091 7.97578 10.6303 8.01214 10.7394 8.07275L10.7273 8.06062C10.8121 8.10911 10.9091 8.14547 11.006 8.16972C11.103 8.19396 11.2 8.20608 11.3091 8.20608C11.406 8.20608 11.5151 8.19396 11.6121 8.16972C11.7091 8.14547 11.806 8.10911 11.8909 8.06062C11.9879 8.00002 12.1091 7.96365 12.2303 7.92729C12.3515 7.89093 12.4848 7.87881 12.6182 7.87881C12.7515 7.87881 12.8727 7.89093 13.006 7.92729C13.1273 7.96365 13.2485 8.00002 13.3576 8.06062V8.0485C13.4424 8.09699 13.5273 8.13335 13.6242 8.15759C13.7212 8.18184 13.8182 8.19396 13.9273 8.19396C14.0363 8.19396 14.1454 8.18184 14.2424 8.15759C14.3394 8.13335 14.4363 8.09699 14.5212 8.0485H14.5091C14.5212 8.0485 14.5333 8.0485 14.5454 8.0485C14.5576 8.0485 14.5697 8.0485 14.5939 8.0485C14.6424 8.0485 14.6788 8.06063 14.7151 8.09699C14.7515 8.13335 14.7636 8.16972 14.7636 8.2182C14.7636 8.23032 14.7636 8.24244 14.7636 8.25456C14.7636 8.26669 14.7636 8.27881 14.7636 8.27881C14.7515 8.30305 14.7394 8.31517 14.7273 8.33941L14.6909 8.37578ZM12.0606 10.5212C11.9636 10.5818 11.8424 10.6182 11.7212 10.6546C11.6 10.6909 11.4667 10.703 11.3333 10.703C11.2 10.703 11.0788 10.6909 10.9454 10.6546C10.8121 10.6182 10.703 10.5818 10.5818 10.5212L10.5939 10.5334C10.5091 10.4849 10.4242 10.4485 10.3273 10.4243C10.2303 10.4 10.1212 10.3879 10.0121 10.3879H9.69695L9.92726 10.6182C9.93938 10.6303 9.9515 10.6546 9.96362 10.6667C9.97574 10.6909 9.97574 10.7152 9.97574 10.7394C9.97574 10.7637 9.97574 10.7879 9.96362 10.8121C9.9515 10.8364 9.93938 10.8485 9.92726 10.8606C9.91514 10.8727 9.89089 10.8849 9.87877 10.897C9.85453 10.9091 9.83029 10.9091 9.80604 10.9091C9.7818 10.9091 9.75756 10.9091 9.73332 10.897C9.70907 10.8849 9.69695 10.8727 9.68483 10.8606L9.1515 10.3273C9.13938 10.3152 9.12726 10.2909 9.11513 10.2667C9.10301 10.2424 9.10301 10.2182 9.10301 10.2061C9.10301 10.1818 9.10301 10.1576 9.11513 10.1334C9.12726 10.1091 9.13938 10.097 9.1515 10.0849L9.68483 9.55153C9.69695 9.53941 9.7212 9.52729 9.73332 9.51517C9.75756 9.50305 9.7818 9.50305 9.80604 9.50305C9.85453 9.50305 9.89089 9.51517 9.92726 9.55153C9.96362 9.5879 9.97574 9.62426 9.97574 9.67275C9.97574 9.69699 9.97574 9.72123 9.96362 9.73335C9.9515 9.7576 9.93938 9.78184 9.92726 9.79396L9.69695 10.0243H9.99998C10.1333 10.0243 10.2667 10.0364 10.3879 10.0727C10.5091 10.1091 10.6303 10.1455 10.7515 10.2061L10.7394 10.194C10.8242 10.2424 10.9091 10.2788 11.006 10.303C11.103 10.3273 11.2 10.3394 11.3091 10.3394C11.4182 10.3394 11.5273 10.3273 11.6242 10.303C11.7212 10.2788 11.8182 10.2424 11.903 10.194H11.8909C12 10.1334 12.1212 10.097 12.2424 10.0606C12.3636 10.0243 12.497 10.0121 12.6303 10.0121C12.7636 10.0121 12.897 10.0243 13.0182 10.0606C13.1394 10.097 13.2606 10.1334 13.3697 10.194L13.3576 10.1818C13.4424 10.2303 13.5273 10.2667 13.6242 10.2909C13.7212 10.3152 13.8303 10.3273 13.9394 10.3273C14.0363 10.3273 14.1454 10.3152 14.2424 10.2909C14.3394 10.2667 14.4363 10.2303 14.5212 10.1818H14.5091C14.5212 10.1697 14.5333 10.1697 14.5454 10.1697H14.5818H14.6182H14.6424C14.6788 10.1818 14.7151 10.2061 14.7394 10.2303C14.7636 10.2667 14.7757 10.2909 14.7757 10.3273C14.7757 10.3637 14.7636 10.3879 14.7515 10.4243C14.7394 10.4485 14.7151 10.4727 14.6909 10.497C14.5818 10.5576 14.4606 10.594 14.3394 10.6303C14.2182 10.6667 14.0848 10.6788 13.9515 10.6788C13.8182 10.6788 13.6848 10.6667 13.5636 10.6303C13.4424 10.594 13.3212 10.5576 13.2121 10.497L13.2242 10.5091C13.1394 10.4606 13.0424 10.4243 12.9454 10.4C12.8485 10.3758 12.7515 10.3637 12.6424 10.3637C12.5333 10.3637 12.4242 10.3758 12.3273 10.4C12.2303 10.4364 12.1333 10.4727 12.0606 10.5212ZM14.6909 6.23032C14.5818 6.29093 14.4606 6.33941 14.3394 6.37578C14.2182 6.41214 14.0848 6.42426 13.9515 6.42426C13.8182 6.42426 13.697 6.41214 13.5636 6.37578C13.4424 6.33941 13.3212 6.29093 13.2 6.24244H13.2121C13.1273 6.20608 13.0424 6.16972 12.9454 6.14547C12.8485 6.12123 12.7515 6.10911 12.6424 6.10911C12.5333 6.10911 12.4242 6.12123 12.3273 6.14547C12.2303 6.16972 12.1333 6.20608 12.0485 6.25456L12.0606 6.24244C11.9515 6.30305 11.8303 6.33941 11.7091 6.37578C11.5879 6.41214 11.4545 6.42426 11.3212 6.42426C11.1879 6.42426 11.0545 6.41214 10.9333 6.37578C10.8121 6.33941 10.6909 6.30305 10.5697 6.24244H10.5818C10.497 6.20608 10.4121 6.16972 10.3151 6.14547C10.2182 6.12123 10.1091 6.10911 9.99998 6.10911H9.69695L9.91514 6.32729C9.93938 6.35153 9.9515 6.36365 9.9515 6.3879C9.96362 6.41214 9.96362 6.42426 9.96362 6.4485C9.96362 6.47275 9.96362 6.49699 9.9515 6.52123C9.93938 6.54547 9.92726 6.55759 9.91514 6.56972C9.90301 6.59396 9.87877 6.60608 9.86665 6.60608C9.85453 6.60608 9.81817 6.6182 9.79392 6.6182C9.76968 6.6182 9.75756 6.6182 9.73332 6.60608C9.70907 6.59396 9.69695 6.58184 9.67271 6.56972L9.16362 6.0485C9.1515 6.03638 9.13938 6.01214 9.12726 5.9879C9.11514 5.96365 9.11513 5.93941 9.11513 5.91517C9.11513 5.89093 9.11514 5.86669 9.12726 5.84244C9.13938 5.8182 9.1515 5.80608 9.16362 5.79396L9.68483 5.26062C9.69695 5.2485 9.7212 5.23638 9.73332 5.22426C9.74544 5.21214 9.76968 5.21214 9.79392 5.21214C9.81817 5.21214 9.84241 5.21214 9.86665 5.22426C9.89089 5.23638 9.90301 5.2485 9.91514 5.26062C9.93938 5.28487 9.9515 5.29699 9.9515 5.32123C9.96362 5.34547 9.96362 5.35759 9.96362 5.38184C9.96362 5.40608 9.96362 5.43032 9.9515 5.45456C9.93938 5.47881 9.92726 5.49093 9.91514 5.50305L9.69695 5.74547H9.99998C10.1333 5.74547 10.2667 5.75759 10.3879 5.79396C10.5091 5.83032 10.6303 5.86668 10.7394 5.93941V5.92729C10.8242 5.97578 10.9091 6.01214 11.006 6.03638C11.103 6.06062 11.2 6.07275 11.3091 6.07275C11.4182 6.07275 11.5273 6.06062 11.6242 6.03638C11.7212 6.01214 11.8182 5.97578 11.8909 5.92729C12 5.86669 12.1212 5.8182 12.2424 5.79396C12.3636 5.75759 12.497 5.74547 12.6303 5.74547C12.7636 5.74547 12.8848 5.75759 13.0182 5.79396C13.1394 5.83032 13.2606 5.86668 13.3818 5.93941L13.3697 5.92729C13.4545 5.97578 13.5394 6.01214 13.6363 6.03638C13.7333 6.06062 13.8303 6.07275 13.9394 6.07275C14.0485 6.07275 14.1576 6.06062 14.2545 6.03638C14.3515 6.01214 14.4485 5.97578 14.5333 5.92729H14.5212C14.5333 5.91517 14.5454 5.91517 14.5576 5.91517C14.5697 5.91517 14.5818 5.91517 14.5939 5.91517C14.606 5.91517 14.606 5.91517 14.6182 5.91517C14.6303 5.91517 14.6424 5.91517 14.6424 5.91517C14.6667 5.92729 14.6788 5.93941 14.703 5.95153C14.7151 5.96365 14.7394 5.9879 14.7515 6.01214C14.7636 6.02426 14.7636 6.02426 14.7636 6.0485C14.7636 6.06062 14.7636 6.07275 14.7636 6.08487C14.7636 6.09699 14.7636 6.10911 14.7636 6.12123C14.7636 6.13335 14.7636 6.13335 14.7636 6.15759C14.7515 6.18184 14.7515 6.19396 14.7273 6.20608C14.7394 6.20608 14.7151 6.2182 14.6909 6.23032ZM3.12726 12.1455C3.10301 12.1334 3.09089 12.1091 3.09089 12.0849C3.07877 12.0606 3.07877 12.0364 3.07877 12.0243C3.07877 12 3.07877 11.9758 3.09089 11.9515C3.10301 11.9273 3.11513 11.9152 3.12726 11.903C3.13938 11.8909 3.16362 11.8788 3.17574 11.8667C3.19998 11.8546 3.22423 11.8546 3.24847 11.8546C3.27271 11.8546 3.28483 11.8546 3.30907 11.8667C3.33332 11.8788 3.34544 11.8909 3.36968 11.903C3.3818 11.9152 3.39392 11.9394 3.40604 11.9515C3.41817 11.9758 3.41817 12 3.41817 12.0243C3.41817 12.0727 3.40604 12.1091 3.36968 12.1455C3.33332 12.1818 3.29695 12.194 3.24847 12.194C3.22423 12.194 3.2121 12.194 3.18786 12.1818C3.16362 12.1697 3.13938 12.1576 3.12726 12.1455ZM6.36362 12.1576C6.33938 12.1455 6.32726 12.1212 6.32726 12.097C6.31514 12.0727 6.31514 12.0485 6.31514 12.0243C6.31514 11.9758 6.32726 11.9394 6.36362 11.903C6.39998 11.8667 6.43635 11.8546 6.48483 11.8546C6.53332 11.8546 6.56968 11.8667 6.60604 11.903C6.64241 11.9394 6.65453 11.9758 6.65453 12.0243C6.65453 12.0485 6.65453 12.0727 6.64241 12.097C6.63029 12.1212 6.61817 12.1455 6.60604 12.1576C6.5818 12.1697 6.56968 12.1818 6.54544 12.194C6.53332 12.2061 6.50907 12.2061 6.47271 12.2061C6.43635 12.2061 6.42423 12.2061 6.39998 12.194C6.38786 12.1818 6.37574 12.1697 6.36362 12.1576Z" fill="#2D3E50"/>
<mask id="mask0" mask-type="alpha" maskUnits="userSpaceOnUse" x="1" y="2" width="14" height="12">
<path d="M14.9091 2.66667H1.33331V13.4545H14.9091V2.66667Z" fill="white"/>
<path d="M1.62423 2.80002H13.4424C13.4909 2.80002 13.5273 2.81214 13.5636 2.8485C13.6 2.88487 13.6121 2.92123 13.6121 2.96972V4.30305C13.6121 4.35153 13.6 4.3879 13.5636 4.42426C13.5273 4.46062 13.4909 4.47275 13.4424 4.47275C13.3939 4.47275 13.3576 4.46062 13.3212 4.42426C13.2848 4.3879 13.2727 4.35153 13.2727 4.30305V3.15153H11.4788V4.12123C11.4788 4.16972 11.4667 4.20608 11.4303 4.24244C11.3939 4.27881 11.3576 4.29093 11.3091 4.29093C11.2606 4.29093 11.2242 4.27881 11.1879 4.24244C11.1515 4.20608 11.1394 4.16972 11.1394 4.12123V3.15153H9.87877V4.12123C9.87877 4.16972 9.86665 4.20608 9.83029 4.24244C9.79392 4.27881 9.75756 4.29093 9.70907 4.29093C9.66059 4.29093 9.62423 4.27881 9.58786 4.24244C9.5515 4.20608 9.53938 4.16972 9.53938 4.12123V3.15153H8.26665V12.0364C8.26665 12.0849 8.25453 12.1212 8.21817 12.1576C8.1818 12.194 8.14544 12.2061 8.09695 12.2061C8.04847 12.2061 8.0121 12.194 7.97574 12.1576C7.93938 12.1212 7.92726 12.0849 7.92726 12.0364V3.13941H6.66665V10.8849C6.66665 10.9334 6.65453 10.9697 6.61817 11.0061C6.5818 11.0424 6.54544 11.0546 6.49695 11.0546C6.44847 11.0546 6.4121 11.0424 6.37574 11.0061C6.33938 10.9697 6.32726 10.9334 6.32726 10.8849V3.13941H5.04241V12.0243C5.04241 12.0727 5.03029 12.1091 4.99392 12.1455C4.95756 12.1818 4.9212 12.194 4.87271 12.194C4.82423 12.194 4.78786 12.1818 4.7515 12.1455C4.71514 12.1091 4.70301 12.0727 4.70301 12.0243V3.13941H3.41817V10.8849C3.41817 10.9334 3.40604 10.9697 3.36968 11.0061C3.33332 11.0424 3.29695 11.0546 3.24847 11.0546C3.19998 11.0546 3.16362 11.0424 3.12726 11.0061C3.09089 10.9697 3.07877 10.9334 3.07877 10.8849V3.13941H1.80604V12.9818H9.52726V12.0121C9.52726 11.9637 9.53938 11.9273 9.57574 11.8909C9.6121 11.8546 9.64847 11.8424 9.69695 11.8424C9.74544 11.8424 9.7818 11.8546 9.81817 11.8909C9.85453 11.9273 9.86665 11.9637 9.86665 12.0121V12.9818H11.1394V12.0121C11.1394 11.9637 11.1515 11.9273 11.1879 11.8909C11.2242 11.8546 11.2606 11.8424 11.3091 11.8424C11.3576 11.8424 11.3939 11.8546 11.4303 11.8909C11.4667 11.9273 11.4788 11.9637 11.4788 12.0121V12.9818H13.2727V11.8303C13.2727 11.7818 13.2848 11.7455 13.3212 11.7091C13.3576 11.6727 13.3939 11.6606 13.4424 11.6606C13.4909 11.6606 13.5273 11.6727 13.5636 11.7091C13.6 11.7455 13.6121 11.7818 13.6121 11.8303V13.1637C13.6121 13.2121 13.6 13.2485 13.5636 13.2849C13.5273 13.3212 13.4909 13.3334 13.4424 13.3334H1.62423C1.57574 13.3334 1.53938 13.3212 1.50301 13.2849C1.46665 13.2485 1.45453 13.2121 1.45453 13.1637V2.96972C1.45453 2.92123 1.46665 2.88487 1.50301 2.8485C1.53938 2.81214 1.57574 2.80002 1.62423 2.80002ZM14.6909 8.37578C14.5939 8.43638 14.4727 8.47275 14.3515 8.50911C14.2303 8.54547 14.097 8.55759 13.9636 8.55759C13.8303 8.55759 13.7091 8.54547 13.5757 8.50911C13.4424 8.47275 13.3333 8.43638 13.2121 8.37578L13.2242 8.3879C13.1394 8.33941 13.0545 8.30305 12.9576 8.27881C12.8606 8.25456 12.7636 8.24244 12.6545 8.24244C12.5454 8.24244 12.4363 8.25456 12.3394 8.27881C12.2424 8.30305 12.1454 8.33941 12.0606 8.3879H12.0727C11.9636 8.4485 11.8424 8.48487 11.7212 8.50911C11.6 8.53335 11.4667 8.54547 11.3333 8.54547C11.2 8.54547 11.0667 8.53335 10.9454 8.49699C10.8242 8.46062 10.703 8.42426 10.5818 8.36366L10.5939 8.37578C10.5091 8.32729 10.4242 8.29093 10.3273 8.26669C10.2303 8.24244 10.1212 8.23032 10.0121 8.23032H9.69695L9.92726 8.46063C9.93938 8.47275 9.9515 8.49699 9.96362 8.50911C9.97574 8.53335 9.97574 8.5576 9.97574 8.58184C9.97574 8.60608 9.97574 8.6182 9.96362 8.64244C9.9515 8.66669 9.9515 8.67881 9.92726 8.70305C9.90301 8.71517 9.89089 8.72729 9.86665 8.73941C9.84241 8.75153 9.83029 8.75153 9.80604 8.75153C9.7818 8.75153 9.75756 8.75153 9.73332 8.73941C9.70907 8.72729 9.69695 8.71517 9.68483 8.70305L9.1515 8.16972C9.12726 8.1576 9.11513 8.13335 9.11513 8.12123C9.10301 8.09699 9.10301 8.07275 9.10301 8.0485C9.10301 8.02426 9.10301 8.00002 9.11513 7.9879C9.12726 7.96366 9.13938 7.93941 9.1515 7.92729L9.68483 7.39396C9.69695 7.38184 9.7212 7.36972 9.73332 7.35759C9.75756 7.34547 9.7818 7.34547 9.80604 7.34547C9.83029 7.34547 9.84241 7.34547 9.86665 7.35759C9.89089 7.36972 9.90301 7.38184 9.92726 7.39396C9.93938 7.40608 9.9515 7.43032 9.96362 7.45456C9.97574 7.47881 9.97574 7.50305 9.97574 7.51517C9.97574 7.53941 9.97574 7.56365 9.96362 7.5879C9.9515 7.61214 9.93938 7.62426 9.92726 7.63638L9.69695 7.89093H9.99998C10.1333 7.89093 10.2667 7.90305 10.3879 7.93941C10.5091 7.97578 10.6303 8.01214 10.7394 8.07275L10.7273 8.06063C10.8121 8.10911 10.9091 8.14547 11.006 8.16972C11.103 8.19396 11.2 8.20608 11.3091 8.20608C11.406 8.20608 11.5151 8.19396 11.6121 8.16972C11.7091 8.14547 11.806 8.10911 11.8909 8.06063C11.9879 8.00002 12.1091 7.96366 12.2303 7.92729C12.3515 7.89093 12.4848 7.87881 12.6182 7.87881C12.7515 7.87881 12.8727 7.89093 13.006 7.92729C13.1273 7.96366 13.2485 8.00002 13.3576 8.06063V8.0485C13.4424 8.09699 13.5273 8.13335 13.6242 8.1576C13.7212 8.18184 13.8182 8.19396 13.9273 8.19396C14.0363 8.19396 14.1454 8.18184 14.2424 8.1576C14.3394 8.13335 14.4363 8.09699 14.5212 8.0485H14.5091C14.5212 8.0485 14.5333 8.0485 14.5454 8.0485C14.5576 8.0485 14.5697 8.0485 14.5939 8.0485C14.6424 8.0485 14.6788 8.06063 14.7151 8.09699C14.7515 8.13335 14.7636 8.16972 14.7636 8.2182C14.7636 8.23032 14.7636 8.24244 14.7636 8.25456C14.7636 8.26669 14.7636 8.27881 14.7636 8.27881C14.7515 8.30305 14.7394 8.31517 14.7273 8.33941L14.6909 8.37578ZM12.0606 10.5212C11.9636 10.5818 11.8424 10.6182 11.7212 10.6546C11.6 10.6909 11.4667 10.703 11.3333 10.703C11.2 10.703 11.0788 10.6909 10.9454 10.6546C10.8121 10.6182 10.703 10.5818 10.5818 10.5212L10.5939 10.5334C10.5091 10.4849 10.4242 10.4485 10.3273 10.4243C10.2303 10.4 10.1212 10.3879 10.0121 10.3879H9.69695L9.92726 10.6182C9.93938 10.6303 9.9515 10.6546 9.96362 10.6667C9.97574 10.6909 9.97574 10.7152 9.97574 10.7394C9.97574 10.7637 9.97574 10.7879 9.96362 10.8121C9.9515 10.8364 9.93938 10.8485 9.92726 10.8606C9.91514 10.8727 9.89089 10.8849 9.87877 10.897C9.85453 10.9091 9.83029 10.9091 9.80604 10.9091C9.7818 10.9091 9.75756 10.9091 9.73332 10.897C9.70907 10.8849 9.69695 10.8727 9.68483 10.8606L9.1515 10.3273C9.13938 10.3152 9.12726 10.2909 9.11513 10.2667C9.10301 10.2424 9.10301 10.2182 9.10301 10.2061C9.10301 10.1818 9.10301 10.1576 9.11513 10.1334C9.12726 10.1091 9.13938 10.097 9.1515 10.0849L9.68483 9.55153C9.69695 9.53941 9.7212 9.52729 9.73332 9.51517C9.75756 9.50305 9.7818 9.50305 9.80604 9.50305C9.85453 9.50305 9.89089 9.51517 9.92726 9.55153C9.96362 9.5879 9.97574 9.62426 9.97574 9.67275C9.97574 9.69699 9.97574 9.72123 9.96362 9.73335C9.9515 9.7576 9.93938 9.78184 9.92726 9.79396L9.69695 10.0243H9.99998C10.1333 10.0243 10.2667 10.0364 10.3879 10.0727C10.5091 10.1091 10.6303 10.1455 10.7515 10.2061L10.7394 10.194C10.8242 10.2424 10.9091 10.2788 11.006 10.303C11.103 10.3273 11.2 10.3394 11.3091 10.3394C11.4182 10.3394 11.5273 10.3273 11.6242 10.303C11.7212 10.2788 11.8182 10.2424 11.903 10.194H11.8909C12 10.1334 12.1212 10.097 12.2424 10.0606C12.3636 10.0243 12.497 10.0121 12.6303 10.0121C12.7636 10.0121 12.897 10.0243 13.0182 10.0606C13.1394 10.097 13.2606 10.1334 13.3697 10.194L13.3576 10.1818C13.4424 10.2303 13.5273 10.2667 13.6242 10.2909C13.7212 10.3152 13.8303 10.3273 13.9394 10.3273C14.0363 10.3273 14.1454 10.3152 14.2424 10.2909C14.3394 10.2667 14.4363 10.2303 14.5212 10.1818H14.5091C14.5212 10.1697 14.5333 10.1697 14.5454 10.1697H14.5818H14.6182H14.6424C14.6788 10.1818 14.7151 10.2061 14.7394 10.2303C14.7636 10.2667 14.7757 10.2909 14.7757 10.3273C14.7757 10.3637 14.7636 10.3879 14.7515 10.4243C14.7394 10.4485 14.7151 10.4727 14.6909 10.497C14.5818 10.5576 14.4606 10.594 14.3394 10.6303C14.2182 10.6667 14.0848 10.6788 13.9515 10.6788C13.8182 10.6788 13.6848 10.6667 13.5636 10.6303C13.4424 10.594 13.3212 10.5576 13.2121 10.497L13.2242 10.5091C13.1394 10.4606 13.0424 10.4243 12.9454 10.4C12.8485 10.3758 12.7515 10.3637 12.6424 10.3637C12.5333 10.3637 12.4242 10.3758 12.3273 10.4C12.2303 10.4364 12.1333 10.4727 12.0606 10.5212ZM14.6909 6.23032C14.5818 6.29093 14.4606 6.33941 14.3394 6.37578C14.2182 6.41214 14.0848 6.42426 13.9515 6.42426C13.8182 6.42426 13.697 6.41214 13.5636 6.37578C13.4424 6.33941 13.3212 6.29093 13.2 6.24244H13.2121C13.1273 6.20608 13.0424 6.16972 12.9454 6.14547C12.8485 6.12123 12.7515 6.10911 12.6424 6.10911C12.5333 6.10911 12.4242 6.12123 12.3273 6.14547C12.2303 6.16972 12.1333 6.20608 12.0485 6.25456L12.0606 6.24244C11.9515 6.30305 11.8303 6.33941 11.7091 6.37578C11.5879 6.41214 11.4545 6.42426 11.3212 6.42426C11.1879 6.42426 11.0545 6.41214 10.9333 6.37578C10.8121 6.33941 10.6909 6.30305 10.5697 6.24244H10.5818C10.497 6.20608 10.4121 6.16972 10.3151 6.14547C10.2182 6.12123 10.1091 6.10911 9.99998 6.10911H9.69695L9.91514 6.32729C9.93938 6.35153 9.9515 6.36366 9.9515 6.3879C9.96362 6.41214 9.96362 6.42426 9.96362 6.4485C9.96362 6.47275 9.96362 6.49699 9.9515 6.52123C9.93938 6.54547 9.92726 6.55759 9.91514 6.56972C9.90301 6.59396 9.87877 6.60608 9.86665 6.60608C9.85453 6.60608 9.81817 6.6182 9.79392 6.6182C9.76968 6.6182 9.75756 6.6182 9.73332 6.60608C9.70907 6.59396 9.69695 6.58184 9.67271 6.56972L9.16362 6.0485C9.1515 6.03638 9.13938 6.01214 9.12726 5.9879C9.11514 5.96365 9.11513 5.93941 9.11513 5.91517C9.11513 5.89093 9.11514 5.86669 9.12726 5.84244C9.13938 5.8182 9.1515 5.80608 9.16362 5.79396L9.68483 5.26062C9.69695 5.2485 9.7212 5.23638 9.73332 5.22426C9.74544 5.21214 9.76968 5.21214 9.79392 5.21214C9.81817 5.21214 9.84241 5.21214 9.86665 5.22426C9.89089 5.23638 9.90301 5.2485 9.91514 5.26062C9.93938 5.28487 9.9515 5.29699 9.9515 5.32123C9.96362 5.34547 9.96362 5.35759 9.96362 5.38184C9.96362 5.40608 9.96362 5.43032 9.9515 5.45456C9.93938 5.47881 9.92726 5.49093 9.91514 5.50305L9.69695 5.74547H9.99998C10.1333 5.74547 10.2667 5.75759 10.3879 5.79396C10.5091 5.83032 10.6303 5.86669 10.7394 5.93941V5.92729C10.8242 5.97578 10.9091 6.01214 11.006 6.03638C11.103 6.06062 11.2 6.07275 11.3091 6.07275C11.4182 6.07275 11.5273 6.06062 11.6242 6.03638C11.7212 6.01214 11.8182 5.97578 11.8909 5.92729C12 5.86669 12.1212 5.8182 12.2424 5.79396C12.3636 5.75759 12.497 5.74547 12.6303 5.74547C12.7636 5.74547 12.8848 5.75759 13.0182 5.79396C13.1394 5.83032 13.2606 5.86669 13.3818 5.93941L13.3697 5.92729C13.4545 5.97578 13.5394 6.01214 13.6363 6.03638C13.7333 6.06062 13.8303 6.07275 13.9394 6.07275C14.0485 6.07275 14.1576 6.06062 14.2545 6.03638C14.3515 6.01214 14.4485 5.97578 14.5333 5.92729H14.5212C14.5333 5.91517 14.5454 5.91517 14.5576 5.91517C14.5697 5.91517 14.5818 5.91517 14.5939 5.91517C14.606 5.91517 14.606 5.91517 14.6182 5.91517C14.6303 5.91517 14.6424 5.91517 14.6424 5.91517C14.6667 5.92729 14.6788 5.93941 14.703 5.95153C14.7151 5.96365 14.7394 5.9879 14.7515 6.01214C14.7636 6.02426 14.7636 6.02426 14.7636 6.0485C14.7636 6.06062 14.7636 6.07275 14.7636 6.08487C14.7636 6.09699 14.7636 6.10911 14.7636 6.12123C14.7636 6.13335 14.7636 6.13335 14.7636 6.15759C14.7515 6.18184 14.7515 6.19396 14.7273 6.20608C14.7394 6.20608 14.7151 6.2182 14.6909 6.23032ZM3.12726 12.1455C3.10301 12.1334 3.09089 12.1091 3.09089 12.0849C3.07877 12.0606 3.07877 12.0364 3.07877 12.0243C3.07877 12 3.07877 11.9758 3.09089 11.9515C3.10301 11.9273 3.11513 11.9152 3.12726 11.903C3.13938 11.8909 3.16362 11.8788 3.17574 11.8667C3.19998 11.8546 3.22423 11.8546 3.24847 11.8546C3.27271 11.8546 3.28483 11.8546 3.30907 11.8667C3.33332 11.8788 3.34544 11.8909 3.36968 11.903C3.3818 11.9152 3.39392 11.9394 3.40604 11.9515C3.41817 11.9758 3.41817 12 3.41817 12.0243C3.41817 12.0727 3.40604 12.1091 3.36968 12.1455C3.33332 12.1818 3.29695 12.194 3.24847 12.194C3.22423 12.194 3.2121 12.194 3.18786 12.1818C3.16362 12.1697 3.13938 12.1576 3.12726 12.1455ZM6.36362 12.1576C6.33938 12.1455 6.32726 12.1212 6.32726 12.097C6.31514 12.0727 6.31514 12.0485 6.31514 12.0243C6.31514 11.9758 6.32726 11.9394 6.36362 11.903C6.39998 11.8667 6.43635 11.8546 6.48483 11.8546C6.53332 11.8546 6.56968 11.8667 6.60604 11.903C6.64241 11.9394 6.65453 11.9758 6.65453 12.0243C6.65453 12.0485 6.65453 12.0727 6.64241 12.097C6.63029 12.1212 6.61817 12.1455 6.60604 12.1576C6.5818 12.1697 6.56968 12.1818 6.54544 12.194C6.53332 12.2061 6.50907 12.2061 6.47271 12.2061C6.43635 12.2061 6.42423 12.2061 6.39998 12.194C6.38786 12.1818 6.37574 12.1697 6.36362 12.1576Z" fill="black"/>
</mask>
<g mask="url(#mask0)">
<path d="M13.4424 13.4546H1.62422C1.53937 13.4546 1.46665 13.4303 1.41816 13.3697C1.35756 13.3091 1.33331 13.2364 1.33331 13.1637V2.96971C1.33331 2.88486 1.35756 2.81214 1.41816 2.76365C1.47877 2.70304 1.55149 2.6788 1.62422 2.6788H13.4424C13.5273 2.6788 13.6 2.70304 13.6485 2.76365C13.7091 2.82426 13.7333 2.89698 13.7333 2.96971V4.30304C13.7333 4.38789 13.7091 4.46062 13.6485 4.50911C13.5394 4.6182 13.3454 4.6182 13.2363 4.50911C13.1757 4.4485 13.1515 4.37577 13.1515 4.30304V3.27274H11.6V4.12123C11.6 4.19395 11.5757 4.26668 11.5273 4.32729C11.4182 4.4485 11.2242 4.4485 11.1151 4.32729C11.0545 4.26668 11.0303 4.19395 11.0303 4.12123V3.27274H9.99998V4.12123C9.99998 4.20608 9.97574 4.2788 9.91513 4.32729C9.80604 4.43638 9.6121 4.43638 9.50301 4.32729C9.4424 4.26668 9.41816 4.19395 9.41816 4.12123V3.27274H8.39998V12.0364C8.39998 12.1212 8.37574 12.194 8.31513 12.2424C8.20604 12.3515 8.0121 12.3515 7.90301 12.2424C7.8424 12.1818 7.81816 12.1091 7.81816 12.0364V3.26062H6.78786V10.8849C6.78786 10.9697 6.76362 11.0424 6.70301 11.0909C6.59392 11.2 6.39998 11.2 6.29089 11.0909C6.23028 11.0303 6.20604 10.9576 6.20604 10.8849V3.26062H5.17574V12.0243C5.17574 12.1091 5.15149 12.1818 5.09089 12.2303C4.9818 12.3394 4.78786 12.3394 4.67877 12.2303C4.61816 12.1697 4.59392 12.097 4.59392 12.0243V3.26062H3.56362V10.8849C3.56362 10.9697 3.53937 11.0424 3.47877 11.0909C3.36968 11.2 3.17574 11.2 3.06665 11.0909C3.00604 11.0303 2.9818 10.9576 2.9818 10.8849V3.26062H1.95149V12.8606H9.43028V12.0121C9.43028 11.9273 9.45452 11.8546 9.51513 11.8061C9.62422 11.697 9.81816 11.697 9.92725 11.8061C9.98786 11.8667 10.0121 11.9394 10.0121 12.0121V12.8606H11.0424V12.0121C11.0424 11.9273 11.0666 11.8546 11.1273 11.8061C11.2363 11.6849 11.4424 11.697 11.5394 11.8061C11.5879 11.8667 11.6121 11.9273 11.6121 12.0121V12.8606H13.1636V11.8303C13.1636 11.7455 13.1879 11.6727 13.2485 11.6243C13.3576 11.5152 13.5515 11.5152 13.6606 11.6243C13.7212 11.6849 13.7454 11.7576 13.7454 11.8303V13.1637C13.7454 13.2485 13.7212 13.3212 13.6606 13.3697C13.6 13.4303 13.5273 13.4546 13.4424 13.4546ZM1.62422 2.92123C1.6121 2.92123 1.59998 2.92123 1.58786 2.93335C1.57574 2.94547 1.57574 2.95759 1.57574 2.96971V13.1637C1.57574 13.1758 1.57574 13.1879 1.58786 13.2C1.59998 13.2121 1.6121 13.2121 1.62422 13.2121H13.4424C13.4545 13.2121 13.4666 13.2121 13.4788 13.2C13.4909 13.1879 13.4909 13.1758 13.4909 13.1637V11.8303C13.4909 11.8182 13.4909 11.8061 13.4788 11.794C13.4545 11.7697 13.4303 11.7697 13.406 11.794C13.3939 11.8061 13.3939 11.8182 13.3939 11.8303V13.103H11.3576V12.0121C11.3576 11.9879 11.3454 11.9758 11.3454 11.9758C11.3333 11.9637 11.3091 11.9637 11.2848 11.9758C11.2727 11.9879 11.2727 12 11.2727 12.0121V13.103H9.75756V12.0121C9.75756 12 9.75756 11.9879 9.74543 11.9758C9.72119 11.9515 9.69695 11.9515 9.67271 11.9758C9.66059 11.9879 9.66059 12 9.66059 12.0121V13.103H1.68483V3.0182H3.19998V10.8849C3.19998 10.897 3.19998 10.9091 3.2121 10.9212C3.23634 10.9455 3.26059 10.9455 3.28483 10.9212C3.29695 10.9091 3.29695 10.897 3.29695 10.8849V3.0182H4.8121V12.0243C4.8121 12.0364 4.8121 12.0485 4.82422 12.0606C4.84846 12.0849 4.87271 12.0849 4.89695 12.0606C4.90907 12.0485 4.90907 12.0364 4.90907 12.0243V3.0182H6.42422V10.8849C6.42422 10.897 6.42422 10.9091 6.43634 10.9212C6.46059 10.9455 6.48483 10.9455 6.50907 10.9212C6.52119 10.9091 6.52119 10.897 6.52119 10.8849V3.0182H8.02422V12.0243C8.02422 12.0364 8.02422 12.0485 8.03634 12.0606C8.06059 12.0849 8.08483 12.0849 8.10907 12.0606C8.12119 12.0485 8.12119 12.0364 8.12119 12.0243V3.0182H9.62422V4.10911C9.62422 4.12123 9.62422 4.13335 9.63634 4.14547C9.66059 4.16971 9.68483 4.16971 9.70907 4.14547C9.72119 4.13335 9.72119 4.12123 9.72119 4.10911V3.0182H11.2363V4.10911C11.2363 4.12123 11.2363 4.13335 11.2485 4.14547C11.2727 4.16971 11.297 4.16971 11.3091 4.14547C11.3212 4.13335 11.3212 4.12123 11.3212 4.09698V3.00608H13.3576V4.2788C13.3576 4.29092 13.3576 4.30304 13.3697 4.31517C13.3939 4.33941 13.4182 4.33941 13.4424 4.31517C13.4545 4.30304 13.4545 4.29092 13.4545 4.2788V2.94547C13.4545 2.93335 13.4545 2.92123 13.4424 2.90911C13.4303 2.89698 13.4182 2.89698 13.406 2.89698H1.62422V2.92123ZM6.48483 12.3273C6.43634 12.3273 6.39998 12.3152 6.36362 12.303C6.33937 12.2909 6.31513 12.2667 6.29089 12.2546C6.25453 12.2303 6.21816 12.1818 6.20604 12.1333C6.19392 12.097 6.19392 12.0606 6.19392 12.0364C6.19392 11.9515 6.21816 11.8788 6.27877 11.8303C6.38786 11.7212 6.5818 11.7212 6.70301 11.8303C6.76362 11.8909 6.78786 11.9637 6.78786 12.0364C6.78786 12.0727 6.77574 12.1091 6.76362 12.1576C6.75149 12.194 6.72725 12.2303 6.70301 12.2546L6.69089 12.2667C6.66665 12.2788 6.6424 12.2909 6.63028 12.303C6.56968 12.3152 6.53331 12.3273 6.48483 12.3273ZM6.43634 12.0606L6.44846 12.0727C6.44846 12.0727 6.46059 12.0849 6.47271 12.0849C6.47271 12.0849 6.47271 12.0849 6.48483 12.0849C6.49695 12.0849 6.50907 12.0727 6.52119 12.0606C6.52119 12.0606 6.52119 12.0485 6.53331 12.0485C6.53331 12.0364 6.53331 12.0243 6.53331 12.0243C6.53331 12.0121 6.53331 12 6.52119 11.9879C6.49695 11.9637 6.47271 11.9637 6.44846 11.9879C6.43634 12 6.42422 12.0121 6.42422 12.0243C6.42422 12.0364 6.42422 12.0485 6.43634 12.0606ZM3.24846 12.3152C3.19998 12.3152 3.17574 12.3152 3.13937 12.303C3.10301 12.2909 3.07877 12.2788 3.05453 12.2546C3.01816 12.2303 2.9818 12.1818 2.96968 12.1333C2.95756 12.097 2.95756 12.0606 2.95756 12.0364C2.95756 12 2.95756 11.9637 2.96968 11.9273C2.9818 11.8909 3.00604 11.8424 3.05453 11.8182C3.07877 11.794 3.10301 11.7818 3.12725 11.7697C3.19998 11.7333 3.28483 11.7333 3.36968 11.7697C3.39392 11.7818 3.41816 11.794 3.4424 11.8182L3.46665 11.8303C3.49089 11.8546 3.51513 11.8788 3.52725 11.9152C3.55149 11.9515 3.55149 12 3.55149 12.0364C3.55149 12.1212 3.51513 12.194 3.45453 12.2424C3.40604 12.2788 3.33331 12.3152 3.24846 12.3152ZM3.2121 12.0606C3.22422 12.0606 3.23634 12.0727 3.23634 12.0727C3.26059 12.0727 3.27271 12.0727 3.28483 12.0606C3.29695 12.0485 3.29695 12.0485 3.29695 12.0364C3.29695 12.0243 3.29695 12.0243 3.29695 12.0243C3.29695 12.0243 3.29695 12.0121 3.28483 12.0121C3.27271 12 3.26059 12 3.24846 11.9879C3.22422 11.9879 3.22422 11.9879 3.22422 11.9879C3.2121 11.9879 3.2121 12 3.19998 12C3.19998 12 3.19998 12.0121 3.19998 12.0243C3.19998 12.0364 3.19998 12.0364 3.2121 12.0606ZM9.80604 11.0303C9.75756 11.0303 9.72119 11.0182 9.68483 11.0061C9.64847 10.994 9.62422 10.9697 9.59998 10.9455L9.06665 10.4121C9.0424 10.3879 9.01816 10.3515 9.00604 10.3152C8.99392 10.2788 8.9818 10.2424 8.9818 10.2061C8.9818 10.1576 8.99392 10.1212 9.00604 10.0849C9.01816 10.0485 9.0424 10.0243 9.06665 10L9.59998 9.46668C9.62422 9.44244 9.64847 9.4182 9.68483 9.40608C9.72119 9.38183 9.76968 9.38183 9.80604 9.38183C9.89089 9.38183 9.96362 9.40608 10.0121 9.46668C10.0727 9.52729 10.0969 9.60002 10.0969 9.67274C10.0969 9.70911 10.0848 9.74547 10.0727 9.78183C10.0606 9.8182 10.0363 9.85456 10.0121 9.8788L9.98786 9.90305H9.99998C10.1454 9.90305 10.2909 9.91517 10.4242 9.95153C10.5576 9.98789 10.6909 10.0364 10.8121 10.097C10.8848 10.1333 10.9697 10.1697 11.0545 10.194C11.2363 10.2424 11.4424 10.2303 11.6121 10.194C11.6969 10.1697 11.7818 10.1455 11.8545 10.097C11.9757 10.0364 12.0969 9.98789 12.2303 9.96365C12.497 9.90305 12.8 9.90305 13.0666 9.96365C13.2 10 13.3212 10.0485 13.4424 10.1091C13.5151 10.1455 13.6 10.1818 13.6848 10.2061C13.8545 10.2424 14.0606 10.2546 14.2424 10.2061C14.3273 10.1818 14.4121 10.1576 14.4848 10.1091C14.5212 10.097 14.5454 10.0849 14.5818 10.0849H14.6909L14.7151 10.097C14.7879 10.1212 14.8363 10.1576 14.8727 10.2061C14.9091 10.2546 14.9212 10.3152 14.9212 10.3758C14.9212 10.4364 14.9091 10.4849 14.8727 10.5333C14.8485 10.5697 14.8121 10.6061 14.7757 10.6424L14.7515 10.6546C14.6303 10.7152 14.5091 10.7637 14.3757 10.7879C14.0969 10.8606 13.806 10.8485 13.5394 10.7879C13.406 10.7515 13.2848 10.703 13.1757 10.6424C13.0909 10.594 13.006 10.5697 12.9212 10.5455C12.7394 10.497 12.5333 10.5091 12.3636 10.5455C12.2788 10.5697 12.1939 10.594 12.1212 10.6424C12.0121 10.703 11.8909 10.7515 11.7454 10.7758C11.4788 10.8364 11.1879 10.8485 10.9091 10.7758C10.7757 10.7394 10.6545 10.6909 10.5333 10.6424C10.4606 10.6061 10.3879 10.5697 10.2909 10.5455C10.206 10.5212 10.1091 10.5091 10.0121 10.5091H9.99998L10.0242 10.5333C10.0485 10.5576 10.0606 10.5818 10.0848 10.6182C10.1091 10.6546 10.1091 10.703 10.1091 10.7394C10.1091 10.7758 10.0969 10.8243 10.0848 10.8606C10.0727 10.897 10.0485 10.9212 10.0242 10.9455C9.99998 10.9697 9.97574 10.994 9.93937 11.0061C9.89089 11.0182 9.85453 11.0303 9.80604 11.0303ZM9.80604 9.61214C9.79392 9.61214 9.79392 9.61214 9.79392 9.61214C9.7818 9.61214 9.7818 9.62426 9.76968 9.62426L9.23634 10.1576C9.23634 10.1576 9.22422 10.1697 9.22422 10.1818C9.22422 10.1818 9.22422 10.1818 9.22422 10.194C9.22422 10.194 9.22422 10.194 9.22422 10.2182C9.22422 10.2303 9.23634 10.2424 9.23634 10.2424L9.76968 10.7758C9.76968 10.7758 9.7818 10.7879 9.79392 10.7879H9.83028C9.8424 10.7879 9.8424 10.7758 9.85453 10.7758C9.85453 10.7758 9.86665 10.7637 9.86665 10.7515V10.7394V10.7273C9.86665 10.7152 9.85453 10.7152 9.85453 10.703L9.41816 10.2546H10.0121C10.1333 10.2546 10.2424 10.2667 10.3515 10.2909C10.4485 10.3152 10.5454 10.3515 10.6303 10.4C10.7394 10.4485 10.8606 10.497 10.9697 10.5212C11.2121 10.5818 11.4666 10.5818 11.6848 10.5212C11.806 10.497 11.903 10.4485 12 10.4C12.0969 10.3515 12.1939 10.303 12.303 10.2788C12.5091 10.2303 12.7515 10.2303 12.9697 10.2788C13.0788 10.303 13.1757 10.3394 13.2727 10.3879C13.3697 10.4485 13.4788 10.4849 13.6 10.5091C13.8303 10.5697 14.0848 10.5697 14.3151 10.5091C14.4242 10.4849 14.5333 10.4485 14.6303 10.4C14.6424 10.3879 14.6545 10.3758 14.6545 10.3637C14.6545 10.3637 14.6666 10.3515 14.6666 10.3394C14.6666 10.3273 14.6666 10.3273 14.6545 10.3152C14.6545 10.3152 14.6545 10.303 14.6424 10.303H14.5939C14.497 10.3515 14.4 10.3879 14.2909 10.4121C14.0727 10.4606 13.8303 10.4606 13.6242 10.4121C13.5151 10.3879 13.4182 10.3515 13.3333 10.303C13.2363 10.2424 13.1273 10.2061 13.006 10.1818C12.7757 10.1212 12.5091 10.1212 12.2788 10.1818C12.1697 10.2061 12.0606 10.2424 11.9636 10.2909C11.8666 10.3394 11.7576 10.3879 11.6485 10.4121C11.4424 10.4606 11.2 10.4606 10.9818 10.4121C10.8727 10.3879 10.7879 10.3515 10.6909 10.303C10.5818 10.2424 10.4727 10.2061 10.3515 10.1697C10.2303 10.1455 10.1091 10.1212 9.98786 10.1212H9.39392L9.83028 9.67274C9.83028 9.67274 9.83028 9.67274 9.8424 9.6485C9.8424 9.63638 9.8424 9.63638 9.8424 9.62426C9.8424 9.61214 9.8424 9.60001 9.83028 9.58789C9.83028 9.62426 9.81816 9.61214 9.80604 9.61214ZM9.80604 8.89699C9.75756 8.89699 9.72119 8.88486 9.68483 8.87274C9.64847 8.86062 9.62422 8.83638 9.59998 8.81214L9.07877 8.29092C9.0424 8.26668 9.01816 8.23032 9.00604 8.18183C8.99392 8.14547 8.99392 8.10911 8.99392 8.07274C8.99392 8.03638 8.99392 8.01214 9.00604 7.97577C9.01816 7.92729 9.0424 7.89092 9.09089 7.85456L9.6121 7.33335C9.63634 7.30911 9.66059 7.28486 9.69695 7.27274C9.76968 7.23638 9.85453 7.23638 9.93937 7.27274C9.96362 7.28486 9.98786 7.29698 10.0121 7.32123L10.0363 7.33335C10.0606 7.35759 10.0848 7.39395 10.0969 7.43032C10.1091 7.46668 10.1212 7.50305 10.1212 7.53941C10.1212 7.58789 10.1091 7.62426 10.0969 7.66062C10.0848 7.69698 10.0606 7.72123 10.0363 7.74547L10.0121 7.76971H10.0242C10.1697 7.76971 10.3151 7.78183 10.4485 7.8182C10.5818 7.85456 10.703 7.90304 10.8121 7.96365C10.8969 8.01214 10.9697 8.03638 11.0545 8.06062C11.2242 8.09698 11.4182 8.10911 11.6 8.06062C11.6848 8.03638 11.7697 8.01214 11.8545 7.96365C11.9636 7.90304 12.0848 7.85456 12.2303 7.83032C12.497 7.76971 12.7879 7.75759 13.0666 7.83032C13.1394 7.84244 13.2 7.86668 13.2727 7.89092V7.86668L13.4545 7.96365C13.5273 8.00001 13.6121 8.03638 13.6969 8.06062C13.8788 8.10911 14.0848 8.09698 14.2545 8.06062C14.3394 8.03638 14.4242 8.01214 14.5091 7.96365L14.5576 8.0485V7.95153C14.5818 7.93941 14.606 7.93941 14.6424 7.93941C14.7151 7.93941 14.7879 7.96365 14.8485 8.01214C14.9091 8.06062 14.9454 8.13335 14.9454 8.2182C14.9454 8.24244 14.9454 8.26668 14.9333 8.29092V8.30305L14.9212 8.32729C14.9091 8.36365 14.8848 8.40001 14.8606 8.43638L14.7757 8.52123H14.7394C14.6303 8.56971 14.5212 8.6182 14.4 8.64244C14.1333 8.70305 13.8424 8.71517 13.5636 8.64244C13.4303 8.60608 13.2969 8.55759 13.1757 8.49698C13.103 8.46062 13.0303 8.42426 12.9333 8.40002C12.7515 8.35153 12.5454 8.36365 12.3757 8.40002C12.2909 8.42426 12.206 8.4485 12.1333 8.49698C12.0121 8.55759 11.8909 8.60608 11.7576 8.63032C11.4909 8.69092 11.1879 8.69092 10.9212 8.63032C10.7879 8.59395 10.6666 8.55759 10.5454 8.49698C10.4727 8.46062 10.4 8.42426 10.303 8.40002C10.2182 8.37577 10.1212 8.36365 10.0242 8.36365H10.0121L10.0363 8.38789C10.0606 8.41214 10.0848 8.4485 10.0969 8.48486C10.1091 8.52123 10.1091 8.55759 10.1091 8.59395C10.1091 8.63032 10.1091 8.66668 10.0969 8.69092C10.0848 8.71517 10.0727 8.75153 10.0485 8.77577L10.0363 8.80001L10.0121 8.81214C9.98786 8.82426 9.96362 8.8485 9.93937 8.86062C9.87877 8.88486 9.8424 8.89699 9.80604 8.89699ZM9.22422 8.08486L9.23634 8.09698L9.76968 8.63032C9.76968 8.63032 9.7818 8.64244 9.79392 8.64244C9.79392 8.64244 9.79392 8.64244 9.80604 8.64244C9.81816 8.64244 9.83028 8.63032 9.8424 8.63032V8.6182C9.8424 8.60608 9.8424 8.60608 9.8424 8.59395C9.8424 8.56971 9.8424 8.56971 9.8424 8.55759L9.40604 8.12123H9.99998C10.1212 8.12123 10.2303 8.13335 10.3394 8.15759C10.4363 8.18183 10.5333 8.2182 10.6182 8.26668C10.7273 8.31517 10.8363 8.36365 10.9576 8.38789C11.1879 8.4485 11.4545 8.4485 11.6848 8.38789C11.7939 8.36365 11.8909 8.32729 11.9879 8.2788C12.0848 8.23032 12.1939 8.18183 12.303 8.15759C12.5091 8.10911 12.7515 8.10911 12.9697 8.15759C13.0788 8.18183 13.1636 8.2182 13.2606 8.26668C13.3697 8.32729 13.4788 8.36365 13.6 8.40002C13.8424 8.46062 14.0969 8.46062 14.3151 8.40002C14.4363 8.37577 14.5333 8.32729 14.6303 8.2788L14.6545 8.25456C14.6545 8.24244 14.6545 8.23032 14.6666 8.2182C14.6666 8.20608 14.6666 8.19395 14.6545 8.19395C14.6424 8.18183 14.6182 8.18183 14.5939 8.18183C14.5939 8.18183 14.5818 8.18183 14.5697 8.18183C14.4727 8.23032 14.3757 8.26668 14.2788 8.29092C14.0727 8.33941 13.8303 8.33941 13.6121 8.29092C13.5757 8.2788 13.5273 8.26668 13.4909 8.25456V8.2788L13.3091 8.18183C13.2121 8.12123 13.103 8.08486 12.9818 8.06062C12.7394 8.00001 12.4848 8.00001 12.2666 8.06062C12.1454 8.08486 12.0485 8.13335 11.9515 8.18183C11.8545 8.23032 11.7454 8.2788 11.6363 8.30305C11.4182 8.35153 11.1757 8.35153 10.9697 8.30305C10.8727 8.2788 10.7757 8.24244 10.6788 8.19395C10.5818 8.13335 10.4727 8.09698 10.3515 8.07274C10.2303 8.0485 10.1091 8.02426 9.98786 8.02426H9.39392L9.83028 7.57577C9.83028 7.57577 9.8424 7.56365 9.8424 7.55153C9.8424 7.55153 9.8424 7.55153 9.8424 7.53941C9.8424 7.53941 9.8424 7.52729 9.8424 7.51517C9.8424 7.51517 9.8424 7.50305 9.83028 7.50305C9.81816 7.49092 9.80604 7.49092 9.79392 7.4788C9.76968 7.4788 9.76968 7.4788 9.76968 7.4788C9.75756 7.4788 9.75756 7.49092 9.74543 7.49092L9.19998 8.03638C9.19998 8.0485 9.19998 8.06062 9.19998 8.06062C9.22422 8.07274 9.22422 8.08486 9.22422 8.08486ZM9.7818 6.73941C9.74543 6.73941 9.70907 6.73941 9.68483 6.72729C9.64847 6.71517 9.6121 6.69092 9.57574 6.65456L9.06665 6.13335C9.0424 6.10911 9.01816 6.07274 9.00604 6.03638C8.99392 6.00001 8.9818 5.96365 8.9818 5.92729C8.9818 5.8788 8.99392 5.84244 9.00604 5.80608C9.01816 5.76971 9.0424 5.74547 9.06665 5.72123L9.58786 5.18789C9.6121 5.16365 9.63634 5.13941 9.67271 5.12729C9.75756 5.09092 9.8424 5.09092 9.91513 5.12729C9.9515 5.13941 9.97574 5.16365 9.99998 5.18789C10.0363 5.22426 10.0606 5.26062 10.0727 5.29698C10.0848 5.33335 10.0848 5.35759 10.0848 5.39395C10.0848 5.43032 10.0848 5.46668 10.0727 5.50305C10.0606 5.53941 10.0363 5.57577 9.99998 5.61214L9.98786 5.62426H10.0121C10.1576 5.62426 10.303 5.63638 10.4363 5.67274C10.5091 5.68486 10.5697 5.70911 10.6424 5.73335V5.70911L10.8242 5.80608C10.8969 5.84244 10.9818 5.8788 11.0666 5.90304C11.2485 5.95153 11.4424 5.95153 11.6242 5.90304C11.7212 5.8788 11.7939 5.84244 11.8788 5.80608C11.9879 5.74547 12.1091 5.69698 12.2424 5.67274C12.5091 5.61214 12.8 5.60001 13.0788 5.67274C13.2121 5.70911 13.3454 5.75759 13.4666 5.8182C13.5394 5.85456 13.6121 5.89092 13.7091 5.91517C13.8909 5.96365 14.0848 5.96365 14.2666 5.91517C14.3515 5.89092 14.4363 5.85456 14.5212 5.8182C14.5454 5.80608 14.5697 5.79395 14.5818 5.79395C14.6182 5.78183 14.6666 5.78183 14.7151 5.79395H14.7273L14.7515 5.80608C14.7879 5.8182 14.8242 5.84244 14.8606 5.86668C14.8848 5.89092 14.8969 5.91517 14.9212 5.93941C14.9333 5.96365 14.9454 5.98789 14.9576 6.01214C14.9576 6.03638 14.9697 6.06062 14.9697 6.08486C14.9697 6.10911 14.9697 6.13335 14.9576 6.15759V6.19395C14.9454 6.23032 14.9212 6.26668 14.8969 6.29092C14.8727 6.31517 14.8606 6.32729 14.8242 6.35153L14.7879 6.37577H14.7757C14.6666 6.43638 14.5576 6.48486 14.4242 6.50911C14.1576 6.56971 13.8666 6.58183 13.5879 6.50911C13.4545 6.47274 13.3212 6.42426 13.2 6.36365C13.1273 6.32729 13.0424 6.30304 12.9576 6.2788C12.7757 6.23032 12.5697 6.24244 12.4 6.2788C12.3151 6.30304 12.2303 6.32729 12.1454 6.37577C12.0363 6.43638 11.9151 6.47274 11.7818 6.50911C11.5151 6.58183 11.2121 6.58183 10.9454 6.50911C10.8121 6.47274 10.6909 6.42426 10.5697 6.37577C10.4969 6.33941 10.4121 6.31517 10.3273 6.29092C10.2424 6.26668 10.1454 6.25456 10.0485 6.25456H10.0363L10.0485 6.26668C10.0848 6.30305 10.1091 6.33941 10.1212 6.37577C10.1333 6.41214 10.1333 6.43638 10.1333 6.47274C10.1333 6.50911 10.1333 6.54547 10.1212 6.58183C10.1091 6.6182 10.0848 6.65456 10.0485 6.6788C10.0242 6.71517 9.98786 6.73941 9.9515 6.75153C9.86665 6.72729 9.83028 6.73941 9.7818 6.73941ZM9.7818 5.34547C9.76968 5.35759 9.75756 5.35759 9.75756 5.35759L9.23634 5.89092C9.23634 5.89092 9.22422 5.90304 9.22422 5.91517C9.22422 5.91517 9.22422 5.92729 9.22422 5.93941C9.22422 5.93941 9.22422 5.95153 9.22422 5.96365C9.23634 5.97577 9.23634 5.98789 9.23634 5.98789L9.74543 6.50911C9.75756 6.52123 9.75756 6.52123 9.75756 6.52123C9.7818 6.53335 9.79392 6.52123 9.80604 6.52123L9.83028 6.49698C9.83028 6.49698 9.83028 6.48486 9.83028 6.47274C9.83028 6.46062 9.83028 6.46062 9.83028 6.4485C9.83028 6.4485 9.83028 6.4485 9.81816 6.43638L9.39392 6.01214H9.98786C10.1091 6.01214 10.2182 6.02426 10.3273 6.0485C10.4363 6.07274 10.5333 6.10911 10.6303 6.15759C10.7394 6.20608 10.8485 6.24244 10.9576 6.2788C11.1879 6.33941 11.4545 6.33941 11.6727 6.2788C11.7818 6.25456 11.8909 6.20608 12 6.15759C12.0969 6.10911 12.1939 6.07274 12.2909 6.0485C12.497 6.00001 12.7394 6.00001 12.9576 6.0485C13.0666 6.07274 13.1636 6.10911 13.2606 6.15759C13.3697 6.20608 13.4788 6.24244 13.5879 6.2788C13.8303 6.33941 14.0848 6.33941 14.303 6.2788C14.4121 6.25456 14.5212 6.20608 14.606 6.15759L14.6424 6.14547C14.6424 6.13335 14.6424 6.12123 14.6545 6.10911C14.6424 6.09698 14.6303 6.08486 14.6182 6.07274C14.606 6.07274 14.5939 6.07274 14.5939 6.06062C14.5818 6.06062 14.5818 6.06062 14.5818 6.06062C14.4848 6.10911 14.3879 6.14547 14.2788 6.16971C14.0727 6.23032 13.8303 6.23032 13.6 6.18183C13.4909 6.15759 13.406 6.12123 13.3091 6.07274C13.2 6.01214 13.0909 5.97577 12.9697 5.93941C12.7273 5.8788 12.4727 5.8788 12.2545 5.93941C12.1333 5.96365 12.0363 6.01214 11.9394 6.06062C11.8424 6.10911 11.7454 6.14547 11.6485 6.16971C11.4424 6.23032 11.2 6.23032 10.9697 6.18183C10.9333 6.16971 10.8848 6.15759 10.8485 6.14547V6.16971L10.6666 6.07274C10.5697 6.01214 10.4606 5.97577 10.3394 5.93941C10.2182 5.91517 10.0969 5.89092 9.97574 5.89092H9.3818L9.80604 5.44244C9.80604 5.44244 9.80604 5.43032 9.80604 5.4182C9.80604 5.40608 9.80604 5.40608 9.80604 5.39395C9.80604 5.39395 9.80604 5.39395 9.79392 5.38183C9.79392 5.38183 9.7818 5.36971 9.76968 5.36971C9.80604 5.34547 9.79392 5.34547 9.7818 5.34547Z" fill="#2D3E50"/>
</g>
</svg>
