<svg width="12" height="12" viewBox="0 0 12 12" fill="none" xmlns="http://www.w3.org/2000/svg">
<path d="M9.09601 5.96279C9.09601 7.14875 9.08881 8.33471 9.09853 9.52055C9.10501 10.3176 8.42173 10.9531 7.68889 10.9561C7.58893 10.9561 7.48885 10.9544 7.38889 10.9584C7.37611 10.9594 7.36367 10.9629 7.3523 10.9688C7.34094 10.9747 7.33089 10.9829 7.32277 10.9928C7.05541 11.3888 6.68149 11.5886 6.20569 11.5947C5.86969 11.5991 5.53369 11.5991 5.19769 11.5947C4.71972 11.5891 4.34364 11.3907 4.0758 10.9908C4.0638 10.9727 4.03212 10.9595 4.00872 10.958C3.82944 10.9472 3.64788 10.9543 3.47088 10.9289C2.89092 10.8453 2.37084 10.2909 2.316 9.7099C2.30892 9.63634 2.30508 9.5623 2.30508 9.4885C2.30508 7.13459 2.3124 4.78079 2.30028 2.427C2.2956 1.60932 2.98488 0.951602 3.75444 0.968042C3.85248 0.970202 3.95052 0.966842 4.04844 0.969242C4.06393 0.97067 4.07951 0.967863 4.09352 0.96112C4.10754 0.954378 4.11946 0.943953 4.128 0.930962C4.3458 0.641162 4.6314 0.462963 4.9932 0.414963C5.04278 0.408548 5.09273 0.405421 5.14272 0.405603C5.52265 0.405603 5.90269 0.401043 6.28273 0.407883C6.69157 0.415323 7.01365 0.599882 7.26169 0.919082C7.2731 0.935919 7.28872 0.949483 7.30699 0.958428C7.32526 0.967374 7.34555 0.971391 7.36585 0.970082C7.57333 0.970922 7.78069 0.960722 7.98685 1.00536C8.50285 1.11732 9.10033 1.632 9.09721 2.39364C9.09241 3.58296 9.09601 4.77287 9.09601 5.96279ZM8.52613 1.90476C8.51245 1.88076 8.50357 1.86108 8.49181 1.84368C8.28937 1.54764 8.01241 1.3866 7.65013 1.38636C6.35269 1.38564 5.0552 1.3854 3.75768 1.38564C3.45132 1.38564 3.19812 1.50036 2.9958 1.72776C2.94936 1.77996 2.91264 1.84068 2.86608 1.90476H8.52613ZM8.49601 10.0715H2.9082C2.91756 10.0866 2.9226 10.0969 2.92956 10.1058C3.14064 10.3737 3.40956 10.5258 3.75756 10.5258C5.04916 10.5258 6.34069 10.5258 7.63213 10.5258C7.66609 10.5258 7.70017 10.5258 7.73401 10.5231C8.05525 10.4945 8.29909 10.335 8.49601 10.0715ZM8.11381 9.65926V2.34276H7.84981V9.65926H8.11381ZM3.5622 9.65854V2.34132H3.312V9.65854H3.5622ZM6.58681 2.34132V9.65866H6.81313V2.34132H6.58681ZM4.6128 2.34132V9.65818H4.82664V2.34132H4.6128ZM5.27173 2.34048V9.65806H5.48221V2.34132L5.27173 2.34048ZM6.14101 9.6589V2.33796H5.93101V9.65914L6.14101 9.6589ZM7.25569 2.34132V9.6625H7.42969V2.34132H7.25569ZM4.17012 9.65914V2.34264H4.008V9.65914H4.17012ZM2.86608 9.65914V2.34204H2.748V9.65938L2.86608 9.65914ZM8.55841 2.34024V9.65866H8.65441V2.34024H8.55841ZM4.6104 10.9591C4.75344 11.0791 4.9002 11.1572 5.0712 11.1599C5.48065 11.1665 5.89021 11.1657 6.29953 11.1614C6.37945 11.1606 6.46105 11.1367 6.53797 11.1114C6.631 11.08 6.71571 11.0279 6.78577 10.9591H4.6104ZM4.70916 0.963122H6.69025C6.57985 0.889322 6.47293 0.842042 6.35605 0.841322C5.92077 0.837002 5.48553 0.837002 5.05032 0.841322C4.932 0.841322 4.82196 0.887282 4.7094 0.963482L4.70916 0.963122Z" fill="#2D3E50"/>
</svg>
