<svg width="24" height="24" viewBox="0 0 24 24" fill="none" xmlns="http://www.w3.org/2000/svg">
<path d="M18.192 11.9256C18.192 14.2975 18.1776 16.6694 18.1971 19.0411C18.21 20.6352 16.8435 21.9062 15.3778 21.9122C15.1779 21.9122 14.9777 21.9088 14.7778 21.9168C14.7522 21.9187 14.7273 21.9258 14.7046 21.9377C14.6819 21.9495 14.6618 21.9658 14.6455 21.9856C14.1108 22.7776 13.363 23.1772 12.4114 23.1895C11.7394 23.1981 11.0674 23.1981 10.3954 23.1895C9.43945 23.1782 8.68729 22.7815 8.15161 21.9816C8.12761 21.9453 8.06425 21.9189 8.01745 21.916C7.65889 21.8944 7.29577 21.9086 6.94177 21.8577C5.78184 21.6907 4.74168 20.5819 4.632 19.4198C4.61784 19.2727 4.61016 19.1246 4.61016 18.977C4.61016 14.2692 4.6248 9.56159 4.60056 4.854C4.5912 3.21864 5.96976 1.9032 7.50889 1.93608C7.70497 1.9404 7.90105 1.93368 8.09689 1.93848C8.12786 1.94134 8.15903 1.93573 8.18705 1.92224C8.21508 1.90876 8.23891 1.88791 8.25601 1.86192C8.69161 1.28232 9.26281 0.925925 9.98641 0.829925C10.0856 0.817096 10.1855 0.810842 10.2855 0.811205C11.0453 0.811205 11.8054 0.802086 12.5655 0.815766C13.3831 0.830645 14.0273 1.19976 14.5234 1.83816C14.5462 1.87184 14.5774 1.89897 14.614 1.91686C14.6505 1.93475 14.6911 1.94278 14.7317 1.94016C15.1467 1.94184 15.5614 1.92144 15.9737 2.01072C17.0057 2.23464 18.2007 3.264 18.1944 4.78728C18.1848 7.16591 18.192 9.54575 18.192 11.9256ZM17.0523 3.80952C17.0249 3.76152 17.0071 3.72216 16.9836 3.68736C16.5787 3.09528 16.0248 2.7732 15.3003 2.77272C12.7054 2.77128 10.1104 2.7708 7.51537 2.77128C6.90265 2.77128 6.39624 3.00072 5.9916 3.45552C5.89872 3.55992 5.82528 3.68136 5.73216 3.80952H17.0523ZM16.992 20.1429H5.8164C5.83512 20.1732 5.8452 20.1938 5.85912 20.2116C6.28128 20.7475 6.81913 21.0516 7.51513 21.0516C10.0983 21.0516 12.6814 21.0516 15.2643 21.0516C15.3322 21.0516 15.4003 21.0516 15.468 21.0463C16.1105 20.9889 16.5982 20.67 16.992 20.1429ZM16.2276 19.3185V4.68552H15.6996V19.3185H16.2276ZM7.12441 19.3171V4.68264H6.62401V19.3171H7.12441ZM13.1736 4.68264V19.3173H13.6263V4.68264H13.1736ZM9.22561 4.68264V19.3164H9.65329V4.68264H9.22561ZM10.5435 4.68096V19.3161H10.9644V4.68264L10.5435 4.68096ZM12.282 19.3178V4.67592H11.862V19.3183L12.282 19.3178ZM14.5114 4.68264V19.325H14.8594V4.68264H14.5114ZM8.34025 19.3183V4.68528H8.01601V19.3183H8.34025ZM5.73216 19.3183V4.68408H5.496V19.3188L5.73216 19.3183ZM17.1168 4.68048V19.3173H17.3088V4.68048H17.1168ZM9.22081 21.9182C9.50689 22.1582 9.80041 22.3144 10.1424 22.3197C10.9613 22.3329 11.7804 22.3315 12.5991 22.3228C12.7589 22.3212 12.9221 22.2734 13.0759 22.2228C13.262 22.1599 13.4314 22.0558 13.5715 21.9182H9.22081ZM9.41833 1.92624H13.3805C13.1597 1.77864 12.9459 1.68408 12.7121 1.68264C11.8415 1.674 10.9711 1.674 10.1007 1.68264C9.86401 1.68264 9.64393 1.77456 9.41881 1.92696L9.41833 1.92624Z" fill="#2D3E50"/>
</svg>
