<svg width="24" height="24" viewBox="0 0 24 24" fill="none" xmlns="http://www.w3.org/2000/svg">
<path d="M6.21957 4.10796H4.69408V4.3654C4.69408 8.29621 4.69408 12.227 4.69408 16.1578C4.69698 16.2659 4.6845 16.3739 4.65702 16.4784C4.58329 16.7289 4.3397 16.8768 4.0733 16.8487C3.95441 16.8349 3.84376 16.781 3.75957 16.696C3.67539 16.6109 3.62269 16.4997 3.61016 16.3807C3.59959 16.2724 3.59538 16.1636 3.59753 16.0548C3.59753 12.1851 3.59753 8.31536 3.59753 4.44564V4.1104H2.10219V19.3856C2.17388 19.3893 2.24557 19.3958 2.31727 19.3958C6.13294 19.3958 9.94834 19.3973 13.7635 19.4003C13.9419 19.4003 14.0005 19.353 13.9944 19.1734C13.9822 18.8275 13.9867 18.4809 13.9944 18.1347C14.0022 17.7884 14.2327 17.555 14.5464 17.5611C14.86 17.5672 15.0816 17.8141 15.0832 18.1546C15.0832 18.5599 15.0832 18.9652 15.0832 19.3831H16.5904C16.5904 19.186 16.5904 18.9974 16.5904 18.8088C16.5924 18.5579 16.5843 18.3061 16.6026 18.056C16.6108 17.9189 16.6723 17.7904 16.7739 17.698C16.8754 17.6055 17.0091 17.5564 17.1464 17.5611C17.4348 17.5664 17.6511 17.7795 17.6588 18.0837C17.6674 18.4296 17.6617 18.7762 17.6621 19.1224V19.3778C17.7436 19.3852 17.801 19.3954 17.8588 19.3954C18.5106 19.3954 19.1623 19.3909 19.8141 19.3998C19.977 19.4023 20.0255 19.3501 20.023 19.1925C20.0153 18.7514 20.0173 18.3098 20.023 17.8687C20.0267 17.4833 20.2373 17.2634 20.5848 17.2703C20.9106 17.2768 21.1143 17.5122 21.1143 17.8854C21.1143 18.5436 21.1143 19.2022 21.1143 19.861C21.1143 20.2895 20.9106 20.4935 20.4764 20.4944C19.5737 20.496 18.6709 20.496 17.768 20.4944C12.4183 20.4944 7.06859 20.4944 1.71889 20.4944C1.58487 20.4944 1.44067 20.4923 1.31969 20.4443C1.2292 20.4118 1.15069 20.3526 1.09454 20.2746C1.03839 20.1965 1.00725 20.1033 1.00523 20.0072C1.00156 19.9326 1.00034 19.8581 1.00034 19.7836C1.00034 14.4271 1.00034 9.07056 1.00034 3.71406C1.00034 3.59186 0.994231 3.46314 1.03374 3.35276C1.0634 3.25786 1.12104 3.17414 1.19911 3.11257C1.27718 3.051 1.37203 3.01446 1.47122 3.00774C1.54536 3.00081 1.62031 3 1.69485 3C7.94071 3 14.1866 3 20.4324 3C20.6418 3 20.854 3.00407 20.9795 3.19756C21.0546 3.30787 21.0989 3.43627 21.1078 3.56946C21.12 4.26193 21.1155 4.95441 21.1131 5.64688C21.1131 5.99353 20.8907 6.22408 20.5676 6.22571C20.2446 6.22734 20.0291 6.00656 20.0243 5.64974C20.0186 5.19515 20.0243 4.74015 20.021 4.28515C20.021 4.20083 20.0406 4.09941 19.8988 4.09981C19.1656 4.09981 18.4324 4.09981 17.68 4.09981C17.6735 4.18617 17.6641 4.25786 17.6637 4.32996C17.6637 4.66927 17.6637 5.00858 17.6637 5.3483C17.6605 5.70024 17.4601 5.92673 17.1509 5.93365C16.8417 5.94058 16.6087 5.70961 16.5977 5.36053C16.5871 5.02814 16.5945 4.69534 16.592 4.36255C16.592 4.28108 16.5843 4.20206 16.579 4.099H15.082C15.082 4.54707 15.0857 4.97396 15.082 5.39963C15.0782 5.51923 15.0361 5.63446 14.9619 5.72833C14.8877 5.8222 14.7853 5.88975 14.6698 5.92102C14.4568 5.97764 14.2005 5.88966 14.0877 5.68803C14.0296 5.57442 13.9984 5.449 13.9965 5.32142C13.9847 4.97559 13.9875 4.62895 13.994 4.28271C13.9965 4.14503 13.9533 4.09167 13.8083 4.09493C13.3814 4.10307 12.9529 4.09778 12.5048 4.09778C12.4991 4.21998 12.4897 4.32507 12.4893 4.43098C12.4871 8.94483 12.4861 13.4594 12.4861 17.9746C12.4921 18.0959 12.4796 18.2175 12.449 18.3351C12.3757 18.5611 12.108 18.7106 11.8824 18.676C11.757 18.6576 11.6414 18.5977 11.554 18.506C11.4666 18.4142 11.4124 18.2958 11.4001 18.1697C11.3958 18.1019 11.395 18.0339 11.3976 17.966V4.1104H9.91086V4.39554C9.91086 8.31984 9.91086 12.2439 9.91086 16.1676C9.91482 16.2688 9.90509 16.3701 9.88194 16.4686C9.84566 16.5915 9.76684 16.6974 9.6596 16.7674C9.55236 16.8375 9.42369 16.867 9.29663 16.8509C9.16957 16.8347 9.05242 16.7738 8.96613 16.6792C8.87985 16.5845 8.83007 16.4622 8.82572 16.3342C8.82246 16.2597 8.82572 16.1847 8.82572 16.1102V4.39921C8.82572 4.099 8.82571 4.099 8.53406 4.099C8.1809 4.099 7.82814 4.10267 7.47498 4.099C7.35482 4.09696 7.29657 4.13322 7.30797 4.26193C7.31408 4.32915 7.30797 4.39758 7.30797 4.4656C7.30797 8.98027 7.30797 13.4949 7.30797 18.0096C7.30797 18.3905 7.18211 18.5864 6.89004 18.6638C6.81452 18.6831 6.7357 18.6856 6.65909 18.6713C6.58247 18.657 6.5099 18.6261 6.44645 18.5809C6.38299 18.5356 6.33018 18.477 6.2917 18.4093C6.25321 18.3415 6.22999 18.2661 6.22364 18.1884C6.21875 18.1139 6.22364 18.0389 6.22364 17.9644C6.22364 13.45 6.22364 8.93533 6.22364 4.42039L6.21957 4.10796Z" fill="#2D3E50"/>
<path d="M15.2074 11.1284C15.6347 11.2795 16.0376 11.4115 16.4315 11.5647C16.9248 11.7561 17.4148 11.7749 17.8894 11.5374C18.5818 11.1915 19.2959 11.1093 20.0409 11.3052C20.2191 11.3499 20.3916 11.4148 20.555 11.4987C21.087 11.7838 21.6202 11.7582 22.1782 11.5394L22.3004 11.6763C22.3746 11.4445 22.4312 11.4184 22.6511 11.4999C22.7504 11.5363 22.8361 11.6024 22.8964 11.6892C22.9568 11.776 22.9889 11.8793 22.9884 11.985C22.9884 12.2046 22.8361 12.4543 22.6597 12.5292C21.7599 12.9117 20.8756 12.9056 19.9929 12.4604C19.5106 12.216 19.0018 12.2225 18.5199 12.4604C17.6095 12.9109 16.7081 12.8836 15.796 12.4763C15.6156 12.3948 15.4205 12.3484 15.2148 12.28C15.2148 12.4673 15.24 12.6111 15.2099 12.7419C15.1913 12.832 15.1491 12.9155 15.0876 12.9839C15.026 13.0522 14.9474 13.103 14.8597 13.1308C14.7721 13.1587 14.6785 13.1627 14.5888 13.1425C14.4991 13.1222 14.4164 13.0784 14.3492 13.0156C14.0298 12.7215 13.7255 12.4103 13.4245 12.0971C13.2367 11.9015 13.2583 11.57 13.4628 11.3602C13.7374 11.0783 14.0168 10.8005 14.2975 10.5247C14.5076 10.3182 14.7455 10.2877 14.9826 10.4274C15.2197 10.5671 15.2971 10.794 15.2176 11.0791C15.2131 11.0953 15.2097 11.1118 15.2074 11.1284V11.1284Z" fill="#2D3E50"/>
<path d="M15.1835 7.74264C15.4482 7.78337 15.7073 7.818 15.9647 7.8628C16.0298 7.87744 16.0912 7.90516 16.1452 7.94427C16.7644 8.36016 17.39 8.34387 18.0495 8.0237C18.8683 7.62655 19.7074 7.64243 20.52 8.04325C21.0793 8.31902 21.6259 8.34428 22.1779 8.0677C22.531 7.8905 22.8402 8.09865 22.9559 8.35283C23.0781 8.6233 22.9384 8.92311 22.6349 9.07097C21.7819 9.48971 20.9302 9.45061 20.0886 9.05142C19.5591 8.79927 19.0316 8.78054 18.5 9.0229C18.0695 9.21965 17.6255 9.35285 17.1489 9.35203C16.6804 9.35203 16.2405 9.23309 15.8157 9.03594C15.6254 8.94755 15.4161 8.90111 15.1871 8.82616C15.1994 8.97158 15.2095 9.05712 15.2128 9.14307C15.2207 9.24574 15.1959 9.34827 15.1421 9.43605C15.0883 9.52383 15.0081 9.59236 14.913 9.63187C14.7154 9.72312 14.5028 9.7166 14.3407 9.56344C14.0254 9.26527 13.7183 8.95732 13.4258 8.63715C13.2425 8.43715 13.2547 8.13491 13.4454 7.93124C13.7305 7.6237 14.0295 7.32471 14.3342 7.03509C14.4934 6.88316 14.6926 6.84975 14.8996 6.95037C15.0996 7.04772 15.2148 7.20414 15.2112 7.43225C15.2104 7.52675 15.1953 7.62044 15.1835 7.74264Z" fill="#2D3E50"/>
<path d="M15.2002 15.7167C15.2902 16.1994 15.1953 16.4413 14.9106 16.5558C14.6918 16.6442 14.4943 16.5994 14.3293 16.4393C14.0372 16.1542 13.7464 15.869 13.4653 15.5753C13.2368 15.3362 13.247 15.0303 13.4771 14.7945C13.724 14.5419 13.9725 14.2911 14.2226 14.0421C14.4959 13.768 14.7338 13.711 14.9802 13.8576C15.2267 14.0042 15.2955 14.2385 15.1924 14.6336C15.2983 14.6486 15.4059 14.6499 15.5045 14.68C15.7945 14.7688 16.0927 14.845 16.3672 14.9704C16.9269 15.2262 17.4597 15.2026 18.0092 14.9358C18.8239 14.5399 19.6613 14.5211 20.4801 14.915C21.0638 15.1957 21.6268 15.2409 22.2154 14.9505C22.2797 14.9186 22.3497 14.8999 22.4213 14.8956C22.4929 14.8912 22.5647 14.9011 22.6324 14.9249C22.7001 14.9487 22.7624 14.9857 22.8156 15.0339C22.8688 15.0821 22.9118 15.1404 22.942 15.2055C22.9735 15.2717 22.9915 15.3435 22.9951 15.4168C22.9987 15.49 22.9878 15.5632 22.9631 15.6323C22.9383 15.7013 22.9002 15.7647 22.8509 15.819C22.8015 15.8733 22.742 15.9173 22.6756 15.9485C21.8439 16.3419 20.9999 16.3676 20.1644 15.9688C19.7306 15.7619 19.2915 15.6837 18.823 15.7924C18.724 15.8142 18.6281 15.8487 18.5379 15.8951C17.6222 16.3839 16.7049 16.3432 15.7839 15.9126C15.6108 15.8324 15.421 15.7896 15.2002 15.7167Z" fill="#2D3E50"/>
<path d="M9.34958 18.6826C9.24163 18.6805 9.13669 18.6466 9.04788 18.5852C8.95908 18.5238 8.89035 18.4376 8.85029 18.3373C8.81023 18.237 8.80062 18.1272 8.82266 18.0215C8.8447 17.9158 8.89741 17.8189 8.9742 17.743C9.05099 17.6671 9.14846 17.6156 9.25441 17.5948C9.36036 17.574 9.47008 17.5849 9.56987 17.6261C9.66966 17.6673 9.75508 17.7371 9.81544 17.8266C9.87581 17.9161 9.90844 18.0214 9.90926 18.1294C9.90489 18.2758 9.84433 18.415 9.74012 18.518C9.63592 18.621 9.49607 18.6799 9.34958 18.6826V18.6826Z" fill="#2D3E50"/>
<path d="M4.1479 18.6479C3.81795 18.6479 3.61102 18.4442 3.61062 18.1232C3.60896 18.0523 3.62167 17.9817 3.64798 17.9157C3.6743 17.8498 3.71368 17.7898 3.76375 17.7395C3.81382 17.6892 3.87356 17.6495 3.93936 17.6228C4.00517 17.5961 4.07568 17.583 4.14667 17.5843C4.21945 17.582 4.29193 17.5946 4.35968 17.6213C4.42744 17.6479 4.48904 17.6881 4.54074 17.7394C4.59243 17.7907 4.63313 17.852 4.66035 17.9195C4.68756 17.987 4.70072 18.0594 4.69903 18.1322C4.69699 18.4401 4.47499 18.6479 4.1479 18.6479Z" fill="#2D3E50"/>
</svg>
