<svg width="16" height="16" viewBox="0 0 16 16" fill="none" xmlns="http://www.w3.org/2000/svg">
<path d="M4.1464 2.73864H3.12941V2.91027C3.12941 5.53081 3.12941 8.15135 3.12941 10.7719C3.13134 10.8439 3.12302 10.9159 3.1047 10.9856C3.05555 11.1526 2.89315 11.2512 2.71555 11.2325C2.63629 11.2233 2.56253 11.1874 2.5064 11.1306C2.45028 11.0739 2.41515 10.9998 2.40679 10.9204C2.39975 10.8482 2.39694 10.7757 2.39837 10.7032C2.39837 8.12338 2.39837 5.54357 2.39837 2.96376V2.74027H1.40148V12.9237C1.44928 12.9262 1.49707 12.9305 1.54486 12.9305C4.08865 12.9305 6.63225 12.9315 9.17567 12.9335C9.29461 12.9335 9.33371 12.902 9.32964 12.7822C9.32149 12.5517 9.32448 12.3206 9.32964 12.0898C9.3348 11.8589 9.4885 11.7033 9.6976 11.7074C9.9067 11.7115 10.0544 11.8761 10.0555 12.1031C10.0555 12.3733 10.0555 12.6435 10.0555 12.9221H11.0603C11.0603 12.7907 11.0603 12.6649 11.0603 12.5392C11.0616 12.3719 11.0562 12.2041 11.0684 12.0374C11.0739 11.9459 11.1149 11.8603 11.1826 11.7987C11.2503 11.737 11.3394 11.7043 11.431 11.7074C11.6232 11.7109 11.7674 11.853 11.7726 12.0558C11.7783 12.2864 11.7745 12.5175 11.7748 12.7483V12.9186C11.8291 12.9235 11.8674 12.9302 11.9059 12.9302C12.3404 12.9302 12.7749 12.9273 13.2094 12.9332C13.318 12.9349 13.3503 12.9001 13.3487 12.795C13.3436 12.5009 13.3449 12.2065 13.3487 11.9124C13.3512 11.6555 13.4916 11.5089 13.7232 11.5135C13.9404 11.5179 14.0762 11.6748 14.0762 11.9236C14.0762 12.3624 14.0762 12.8014 14.0762 13.2406C14.0762 13.5263 13.9404 13.6624 13.651 13.6629C13.0492 13.664 12.4473 13.664 11.8454 13.6629C8.27889 13.6629 4.71242 13.6629 1.14594 13.6629C1.0566 13.6629 0.960469 13.6616 0.879816 13.6295C0.819487 13.6079 0.767147 13.5684 0.729715 13.5164C0.692282 13.4644 0.67152 13.4022 0.670173 13.3381C0.667729 13.2884 0.666914 13.2387 0.666914 13.189C0.666914 9.61804 0.666914 6.04704 0.666914 2.47604C0.666914 2.39457 0.662841 2.30876 0.689182 2.23517C0.708954 2.1719 0.747381 2.11609 0.799426 2.07505C0.851472 2.034 0.914705 2.00964 0.980836 2.00516C1.03026 2.00054 1.08023 2 1.12992 2C5.29382 2 9.45773 2 13.6216 2C13.7612 2 13.9027 2.00272 13.9863 2.13171C14.0364 2.20525 14.066 2.29085 14.0719 2.37964C14.08 2.84129 14.077 3.30294 14.0754 3.76459C14.0754 3.99569 13.9271 4.14939 13.7118 4.15047C13.4964 4.15156 13.3528 4.00438 13.3495 3.76649C13.3457 3.46343 13.3495 3.1601 13.3474 2.85677C13.3474 2.80056 13.3604 2.73294 13.2659 2.73321C12.7771 2.73321 12.2883 2.73321 11.7867 2.73321C11.7824 2.79078 11.7761 2.83857 11.7758 2.88664C11.7758 3.11285 11.7758 3.33906 11.7758 3.56554C11.7737 3.80016 11.6401 3.95115 11.4339 3.95577C11.2278 3.96038 11.0725 3.80641 11.0652 3.57368C11.0581 3.35209 11.063 3.13023 11.0614 2.90836C11.0614 2.85405 11.0562 2.80137 11.0527 2.73267H10.0547C10.0547 3.03138 10.0571 3.31597 10.0547 3.59975C10.0522 3.67949 10.0241 3.75631 9.97464 3.81889C9.92516 3.88147 9.85689 3.9265 9.77988 3.94735C9.63786 3.98509 9.46705 3.92644 9.39183 3.79202C9.3531 3.71628 9.33229 3.63267 9.331 3.54761C9.32312 3.31706 9.32502 3.08596 9.32937 2.85514C9.331 2.76335 9.30221 2.72778 9.20554 2.72995C8.92094 2.73538 8.63526 2.73185 8.33655 2.73185C8.33275 2.81332 8.3265 2.88338 8.32623 2.95399C8.32478 5.96322 8.32406 8.97291 8.32406 11.983C8.3281 12.0639 8.31977 12.145 8.29935 12.2234C8.25047 12.3741 8.07205 12.4738 7.92161 12.4507C7.83802 12.4384 7.76094 12.3985 7.70267 12.3373C7.6444 12.2761 7.60828 12.1972 7.60008 12.1131C7.59722 12.0679 7.59668 12.0226 7.59845 11.9773V2.74027H6.60726V2.93036C6.60726 5.54656 6.60726 8.16257 6.60726 10.7784C6.6099 10.8459 6.60341 10.9134 6.58798 10.9791C6.56379 11.061 6.51125 11.1316 6.43975 11.1783C6.36826 11.225 6.28248 11.2447 6.19777 11.2339C6.11307 11.2231 6.03496 11.1826 5.97744 11.1194C5.91992 11.0563 5.88674 10.9748 5.88383 10.8895C5.88166 10.8398 5.88383 10.7898 5.88383 10.7401V2.9328C5.88383 2.73267 5.88383 2.73267 5.68939 2.73267C5.45395 2.73267 5.21878 2.73511 4.98334 2.73267C4.90323 2.73131 4.8644 2.75548 4.872 2.84129C4.87608 2.8861 4.872 2.93172 4.872 2.97707C4.872 5.98685 4.872 8.99662 4.872 12.0064C4.872 12.2603 4.78809 12.3909 4.59338 12.4425C4.54304 12.4554 4.49049 12.4571 4.43941 12.4475C4.38833 12.438 4.33995 12.4174 4.29765 12.3872C4.25535 12.3571 4.22014 12.318 4.19448 12.2728C4.16883 12.2276 4.15335 12.1774 4.14911 12.1256C4.14585 12.0759 4.14911 12.026 4.14911 11.9763C4.14911 8.96666 4.14911 5.95688 4.14911 2.94693L4.1464 2.73864Z" fill="#2D3E50"/>
<path d="M10.1383 7.41895C10.4232 7.5197 10.6918 7.60768 10.9544 7.70979C11.2832 7.83742 11.6099 7.84991 11.9263 7.69159C12.3879 7.46104 12.864 7.40619 13.3606 7.5368C13.4794 7.56662 13.5944 7.6099 13.7033 7.6658C14.058 7.85589 14.4135 7.83878 14.7855 7.69295L14.867 7.78419C14.9164 7.62968 14.9541 7.6123 15.1008 7.66661C15.167 7.69085 15.2241 7.73491 15.2643 7.79279C15.3046 7.85067 15.326 7.91955 15.3256 7.99004C15.3256 8.13641 15.2241 8.30287 15.1065 8.35284C14.5066 8.60783 13.9171 8.60376 13.3286 8.30695C13.0071 8.14401 12.6679 8.14836 12.3466 8.30695C11.7397 8.60729 11.1387 8.5891 10.5307 8.31754C10.4104 8.26322 10.2803 8.23227 10.1432 8.18665C10.1432 8.31156 10.16 8.40742 10.1399 8.49459C10.1276 8.55466 10.0994 8.61034 10.0584 8.65592C10.0174 8.70149 9.96493 8.73531 9.90649 8.7539C9.84805 8.77249 9.78572 8.77517 9.7259 8.76166C9.66608 8.74816 9.61093 8.71897 9.56614 8.67708C9.35324 8.48101 9.15039 8.27354 8.9497 8.06472C8.82452 7.93437 8.83891 7.71332 8.97523 7.57347C9.15826 7.38555 9.34455 7.20034 9.53165 7.0165C9.67178 6.87882 9.83037 6.85845 9.98842 6.9516C10.1465 7.04474 10.1981 7.196 10.1451 7.38609C10.1421 7.39688 10.1398 7.40786 10.1383 7.41895V7.41895Z" fill="#2D3E50"/>
<path d="M10.1223 5.16176C10.2988 5.18892 10.4715 5.212 10.6432 5.24187C10.6865 5.25163 10.7275 5.27011 10.7635 5.29618C11.1762 5.57344 11.5933 5.56258 12.033 5.34914C12.5788 5.08437 13.1382 5.09496 13.68 5.36217C14.0529 5.54602 14.4173 5.56285 14.7853 5.37846C15.0207 5.26034 15.2268 5.3991 15.3039 5.56855C15.3854 5.74887 15.2923 5.94874 15.0899 6.04731C14.5213 6.32648 13.9535 6.30041 13.3924 6.03428C13.0394 5.86618 12.6877 5.85369 12.3333 6.01527C12.0463 6.14643 11.7503 6.23523 11.4326 6.23469C11.1203 6.23469 10.827 6.15539 10.5438 6.02396C10.417 5.96503 10.2774 5.93407 10.1248 5.88411C10.1329 5.98105 10.1397 6.03808 10.1419 6.09538C10.1471 6.16382 10.1306 6.23218 10.0947 6.2907C10.0588 6.34922 10.0054 6.39491 9.942 6.42125C9.81029 6.48208 9.66854 6.47773 9.56046 6.37563C9.35027 6.17685 9.14552 5.97155 8.95054 5.7581C8.82834 5.62477 8.83648 5.42327 8.96357 5.28749C9.15366 5.08246 9.35299 4.88314 9.55611 4.69006C9.66229 4.58877 9.79509 4.5665 9.93304 4.63358C10.0664 4.69848 10.1432 4.80276 10.1408 4.95483C10.1402 5.01783 10.1302 5.08029 10.1223 5.16176Z" fill="#2D3E50"/>
<path d="M10.1335 10.4778C10.1935 10.7996 10.1302 10.9609 9.94037 11.0372C9.79455 11.0961 9.66284 11.0662 9.55286 10.9595C9.35815 10.7694 9.16426 10.5793 8.97688 10.3835C8.82454 10.2241 8.83133 10.0202 8.98476 9.86297C9.14932 9.6946 9.31497 9.52741 9.48171 9.3614C9.66393 9.17864 9.82252 9.14062 9.98681 9.23838C10.1511 9.33615 10.197 9.49229 10.1283 9.7557C10.1989 9.76575 10.2706 9.76657 10.3363 9.78666C10.5297 9.84586 10.7284 9.89664 10.9115 9.98028C11.2846 10.1508 11.6398 10.1351 12.0061 9.9572C12.5492 9.69325 13.1076 9.68075 13.6534 9.94335C14.0425 10.1305 14.4178 10.1606 14.8102 9.96698C14.8531 9.94574 14.8998 9.93329 14.9475 9.93036C14.9953 9.92743 15.0431 9.93408 15.0883 9.94992C15.1334 9.96576 15.1749 9.99047 15.2104 10.0226C15.2458 10.0547 15.2745 10.0936 15.2947 10.137C15.3156 10.1811 15.3277 10.229 15.3301 10.2778C15.3325 10.3267 15.3252 10.3755 15.3087 10.4215C15.2922 10.4675 15.2668 10.5098 15.2339 10.546C15.201 10.5822 15.1613 10.6115 15.1171 10.6323C14.5626 10.8946 13.9999 10.9117 13.4429 10.6459C13.1537 10.5079 12.861 10.4558 12.5487 10.5283C12.4826 10.5428 12.4188 10.5658 12.3586 10.5967C11.7481 10.9226 11.1366 10.8954 10.5226 10.6084C10.4072 10.5549 10.2806 10.5264 10.1335 10.4778Z" fill="#2D3E50"/>
<path d="M6.23307 12.455C6.16111 12.4536 6.09115 12.4311 6.03194 12.3901C5.97274 12.3492 5.92692 12.2917 5.90021 12.2249C5.87351 12.158 5.8671 12.0848 5.88179 12.0143C5.89649 11.9439 5.93163 11.8793 5.98282 11.8287C6.03402 11.7781 6.09899 11.7437 6.16963 11.7298C6.24026 11.716 6.31341 11.7232 6.37994 11.7507C6.44646 11.7782 6.50341 11.8247 6.54365 11.8844C6.58389 11.9441 6.60565 12.0143 6.6062 12.0863C6.60328 12.1839 6.5629 12.2767 6.49343 12.3453C6.42396 12.414 6.33073 12.4533 6.23307 12.455V12.455Z" fill="#2D3E50"/>
<path d="M2.76526 12.4319C2.5453 12.4319 2.40735 12.2961 2.40708 12.0822C2.40597 12.0348 2.41445 11.9878 2.43199 11.9438C2.44953 11.8998 2.47579 11.8599 2.50917 11.8263C2.54255 11.7928 2.58237 11.7663 2.62624 11.7485C2.67011 11.7307 2.71712 11.722 2.76445 11.7229C2.81297 11.7214 2.86129 11.7297 2.90645 11.7475C2.95162 11.7653 2.99269 11.7921 3.02716 11.8263C3.06162 11.8605 3.08875 11.9013 3.1069 11.9463C3.12504 11.9913 3.13381 12.0396 3.13268 12.0881C3.13133 12.2934 2.98333 12.4319 2.76526 12.4319Z" fill="#2D3E50"/>
</svg>
