<svg width="24" height="24" viewBox="0 0 24 24" fill="none" xmlns="http://www.w3.org/2000/svg">
<path d="M2.43637 4.20003H20.1636C20.2364 4.20003 20.2909 4.21821 20.3455 4.27275C20.4 4.3273 20.4182 4.38185 20.4182 4.45457V6.45457C20.4182 6.5273 20.4 6.58185 20.3455 6.63639C20.2909 6.69094 20.2364 6.70912 20.1636 6.70912C20.0909 6.70912 20.0364 6.69094 19.9818 6.63639C19.9273 6.58185 19.9091 6.5273 19.9091 6.45457V4.7273H17.2182V6.18185C17.2182 6.25457 17.2 6.30912 17.1455 6.36366C17.0909 6.41821 17.0364 6.43639 16.9636 6.43639C16.8909 6.43639 16.8364 6.41821 16.7818 6.36366C16.7273 6.30912 16.7091 6.25457 16.7091 6.18185V4.7273H14.8182V6.18185C14.8182 6.25457 14.8 6.30912 14.7455 6.36366C14.6909 6.41821 14.6364 6.43639 14.5636 6.43639C14.4909 6.43639 14.4364 6.41821 14.3818 6.36366C14.3273 6.30912 14.3091 6.25457 14.3091 6.18185V4.7273H12.4V18.0546C12.4 18.1273 12.3818 18.1818 12.3273 18.2364C12.2727 18.2909 12.2182 18.3091 12.1455 18.3091C12.0727 18.3091 12.0182 18.2909 11.9636 18.2364C11.9091 18.1818 11.8909 18.1273 11.8909 18.0546V4.70912H10V16.3273C10 16.4 9.98182 16.4546 9.92728 16.5091C9.87273 16.5637 9.81819 16.5818 9.74546 16.5818C9.67273 16.5818 9.61819 16.5637 9.56364 16.5091C9.5091 16.4546 9.49091 16.4 9.49091 16.3273V4.70912H7.56364V18.0364C7.56364 18.1091 7.54546 18.1637 7.49091 18.2182C7.43637 18.2728 7.38182 18.2909 7.3091 18.2909C7.23637 18.2909 7.18182 18.2728 7.12728 18.2182C7.07273 18.1637 7.05455 18.1091 7.05455 18.0364V4.70912H5.12728V16.3273C5.12728 16.4 5.1091 16.4546 5.05455 16.5091C5.00001 16.5637 4.94546 16.5818 4.87273 16.5818C4.80001 16.5818 4.74546 16.5637 4.69091 16.5091C4.63637 16.4546 4.61819 16.4 4.61819 16.3273V4.70912H2.7091V19.4728H14.2909V18.0182C14.2909 17.9455 14.3091 17.8909 14.3636 17.8364C14.4182 17.7818 14.4727 17.7637 14.5455 17.7637C14.6182 17.7637 14.6727 17.7818 14.7273 17.8364C14.7818 17.8909 14.8 17.9455 14.8 18.0182V19.4728H16.7091V18.0182C16.7091 17.9455 16.7273 17.8909 16.7818 17.8364C16.8364 17.7818 16.8909 17.7637 16.9636 17.7637C17.0364 17.7637 17.0909 17.7818 17.1455 17.8364C17.2 17.8909 17.2182 17.9455 17.2182 18.0182V19.4728H19.9091V17.7455C19.9091 17.6728 19.9273 17.6182 19.9818 17.5637C20.0364 17.5091 20.0909 17.4909 20.1636 17.4909C20.2364 17.4909 20.2909 17.5091 20.3455 17.5637C20.4 17.6182 20.4182 17.6728 20.4182 17.7455V19.7455C20.4182 19.8182 20.4 19.8728 20.3455 19.9273C20.2909 19.9818 20.2364 20 20.1636 20H2.43637C2.36364 20 2.3091 19.9818 2.25455 19.9273C2.20001 19.8728 2.18182 19.8182 2.18182 19.7455V4.45457C2.18182 4.38185 2.20001 4.3273 2.25455 4.27275C2.3091 4.21821 2.36364 4.20003 2.43637 4.20003ZM22.0364 12.5637C21.8909 12.6546 21.7091 12.7091 21.5273 12.7637C21.3455 12.8182 21.1455 12.8364 20.9455 12.8364C20.7455 12.8364 20.5636 12.8182 20.3636 12.7637C20.1636 12.7091 20 12.6546 19.8182 12.5637L19.8364 12.5818C19.7091 12.5091 19.5818 12.4546 19.4364 12.4182C19.2909 12.3818 19.1455 12.3637 18.9818 12.3637C18.8182 12.3637 18.6546 12.3818 18.5091 12.4182C18.3636 12.4546 18.2182 12.5091 18.0909 12.5818H18.1091C17.9455 12.6728 17.7636 12.7273 17.5818 12.7637C17.4 12.8 17.2 12.8182 17 12.8182C16.8 12.8182 16.6 12.8 16.4182 12.7455C16.2364 12.6909 16.0546 12.6364 15.8727 12.5455L15.8909 12.5637C15.7636 12.4909 15.6364 12.4364 15.4909 12.4C15.3455 12.3637 15.1818 12.3455 15.0182 12.3455H14.5455L14.8909 12.6909C14.9091 12.7091 14.9273 12.7455 14.9455 12.7637C14.9636 12.8 14.9636 12.8364 14.9636 12.8728C14.9636 12.9091 14.9636 12.9273 14.9455 12.9637C14.9273 13 14.9273 13.0182 14.8909 13.0546C14.8546 13.0728 14.8364 13.0909 14.8 13.1091C14.7636 13.1273 14.7455 13.1273 14.7091 13.1273C14.6727 13.1273 14.6364 13.1273 14.6 13.1091C14.5636 13.0909 14.5455 13.0728 14.5273 13.0546L13.7273 12.2546C13.6909 12.2364 13.6727 12.2 13.6727 12.1818C13.6546 12.1455 13.6546 12.1091 13.6546 12.0728C13.6546 12.0364 13.6546 12 13.6727 11.9818C13.6909 11.9455 13.7091 11.9091 13.7273 11.8909L14.5273 11.0909C14.5455 11.0728 14.5818 11.0546 14.6 11.0364C14.6364 11.0182 14.6727 11.0182 14.7091 11.0182C14.7455 11.0182 14.7636 11.0182 14.8 11.0364C14.8364 11.0546 14.8546 11.0728 14.8909 11.0909C14.9091 11.1091 14.9273 11.1455 14.9455 11.1818C14.9636 11.2182 14.9636 11.2546 14.9636 11.2728C14.9636 11.3091 14.9636 11.3455 14.9455 11.3818C14.9273 11.4182 14.9091 11.4364 14.8909 11.4546L14.5455 11.8364H15C15.2 11.8364 15.4 11.8546 15.5818 11.9091C15.7636 11.9637 15.9455 12.0182 16.1091 12.1091L16.0909 12.0909C16.2182 12.1637 16.3636 12.2182 16.5091 12.2546C16.6546 12.2909 16.8 12.3091 16.9636 12.3091C17.1091 12.3091 17.2727 12.2909 17.4182 12.2546C17.5636 12.2182 17.7091 12.1637 17.8364 12.0909C17.9818 12 18.1636 11.9455 18.3455 11.8909C18.5273 11.8364 18.7273 11.8182 18.9273 11.8182C19.1273 11.8182 19.3091 11.8364 19.5091 11.8909C19.6909 11.9455 19.8727 12 20.0364 12.0909V12.0728C20.1636 12.1455 20.2909 12.2 20.4364 12.2364C20.5818 12.2728 20.7273 12.2909 20.8909 12.2909C21.0546 12.2909 21.2182 12.2728 21.3636 12.2364C21.5091 12.2 21.6546 12.1455 21.7818 12.0728H21.7636C21.7818 12.0728 21.8 12.0728 21.8182 12.0728C21.8364 12.0728 21.8546 12.0728 21.8909 12.0728C21.9636 12.0728 22.0182 12.0909 22.0727 12.1455C22.1273 12.2 22.1455 12.2546 22.1455 12.3273C22.1455 12.3455 22.1455 12.3637 22.1455 12.3818C22.1455 12.4 22.1455 12.4182 22.1455 12.4182C22.1273 12.4546 22.1091 12.4728 22.0909 12.5091L22.0364 12.5637ZM18.0909 15.7818C17.9455 15.8728 17.7636 15.9273 17.5818 15.9818C17.4 16.0364 17.2 16.0546 17 16.0546C16.8 16.0546 16.6182 16.0364 16.4182 15.9818C16.2182 15.9273 16.0546 15.8728 15.8727 15.7818L15.8909 15.8C15.7636 15.7273 15.6364 15.6728 15.4909 15.6364C15.3455 15.6 15.1818 15.5818 15.0182 15.5818H14.5455L14.8909 15.9273C14.9091 15.9455 14.9273 15.9818 14.9455 16C14.9636 16.0364 14.9636 16.0728 14.9636 16.1091C14.9636 16.1455 14.9636 16.1818 14.9455 16.2182C14.9273 16.2546 14.9091 16.2728 14.8909 16.2909C14.8727 16.3091 14.8364 16.3273 14.8182 16.3455C14.7818 16.3637 14.7455 16.3637 14.7091 16.3637C14.6727 16.3637 14.6364 16.3637 14.6 16.3455C14.5636 16.3273 14.5455 16.3091 14.5273 16.2909L13.7273 15.4909C13.7091 15.4728 13.6909 15.4364 13.6727 15.4C13.6546 15.3637 13.6546 15.3273 13.6546 15.3091C13.6546 15.2728 13.6546 15.2364 13.6727 15.2C13.6909 15.1637 13.7091 15.1455 13.7273 15.1273L14.5273 14.3273C14.5455 14.3091 14.5818 14.2909 14.6 14.2728C14.6364 14.2546 14.6727 14.2546 14.7091 14.2546C14.7818 14.2546 14.8364 14.2728 14.8909 14.3273C14.9455 14.3818 14.9636 14.4364 14.9636 14.5091C14.9636 14.5455 14.9636 14.5818 14.9455 14.6C14.9273 14.6364 14.9091 14.6728 14.8909 14.6909L14.5455 15.0364H15C15.2 15.0364 15.4 15.0546 15.5818 15.1091C15.7636 15.1637 15.9455 15.2182 16.1273 15.3091L16.1091 15.2909C16.2364 15.3637 16.3636 15.4182 16.5091 15.4546C16.6546 15.4909 16.8 15.5091 16.9636 15.5091C17.1273 15.5091 17.2909 15.4909 17.4364 15.4546C17.5818 15.4182 17.7273 15.3637 17.8546 15.2909H17.8364C18 15.2 18.1818 15.1455 18.3636 15.0909C18.5455 15.0364 18.7455 15.0182 18.9455 15.0182C19.1455 15.0182 19.3455 15.0364 19.5273 15.0909C19.7091 15.1455 19.8909 15.2 20.0546 15.2909L20.0364 15.2728C20.1636 15.3455 20.2909 15.4 20.4364 15.4364C20.5818 15.4728 20.7455 15.4909 20.9091 15.4909C21.0546 15.4909 21.2182 15.4728 21.3636 15.4364C21.5091 15.4 21.6546 15.3455 21.7818 15.2728H21.7636C21.7818 15.2546 21.8 15.2546 21.8182 15.2546H21.8727H21.9273H21.9636C22.0182 15.2728 22.0727 15.3091 22.1091 15.3455C22.1455 15.4 22.1636 15.4364 22.1636 15.4909C22.1636 15.5455 22.1455 15.5818 22.1273 15.6364C22.1091 15.6728 22.0727 15.7091 22.0364 15.7455C21.8727 15.8364 21.6909 15.8909 21.5091 15.9455C21.3273 16 21.1273 16.0182 20.9273 16.0182C20.7273 16.0182 20.5273 16 20.3455 15.9455C20.1636 15.8909 19.9818 15.8364 19.8182 15.7455L19.8364 15.7637C19.7091 15.6909 19.5636 15.6364 19.4182 15.6C19.2727 15.5637 19.1273 15.5455 18.9636 15.5455C18.8 15.5455 18.6364 15.5637 18.4909 15.6C18.3455 15.6546 18.2 15.7091 18.0909 15.7818ZM22.0364 9.34548C21.8727 9.43639 21.6909 9.50912 21.5091 9.56366C21.3273 9.61821 21.1273 9.63639 20.9273 9.63639C20.7273 9.63639 20.5455 9.61821 20.3455 9.56366C20.1636 9.50912 19.9818 9.43639 19.8 9.36366H19.8182C19.6909 9.30912 19.5636 9.25457 19.4182 9.21821C19.2727 9.18185 19.1273 9.16366 18.9636 9.16366C18.8 9.16366 18.6364 9.18185 18.4909 9.21821C18.3455 9.25457 18.2 9.30912 18.0727 9.38185L18.0909 9.36366C17.9273 9.45457 17.7455 9.50912 17.5636 9.56366C17.3818 9.61821 17.1818 9.63639 16.9818 9.63639C16.7818 9.63639 16.5818 9.61821 16.4 9.56366C16.2182 9.50912 16.0364 9.45457 15.8546 9.36366H15.8727C15.7455 9.30912 15.6182 9.25457 15.4727 9.21821C15.3273 9.18185 15.1636 9.16366 15 9.16366H14.5455L14.8727 9.49094C14.9091 9.5273 14.9273 9.54548 14.9273 9.58185C14.9455 9.61821 14.9455 9.63639 14.9455 9.67275C14.9455 9.70912 14.9455 9.74548 14.9273 9.78185C14.9091 9.81821 14.8909 9.83639 14.8727 9.85457C14.8546 9.89094 14.8182 9.90912 14.8 9.90912C14.7818 9.90912 14.7273 9.9273 14.6909 9.9273C14.6546 9.9273 14.6364 9.9273 14.6 9.90912C14.5636 9.89094 14.5455 9.87276 14.5091 9.85457L13.7455 9.07275C13.7273 9.05457 13.7091 9.01821 13.6909 8.98185C13.6727 8.94548 13.6727 8.90912 13.6727 8.87275C13.6727 8.83639 13.6727 8.80003 13.6909 8.76366C13.7091 8.7273 13.7273 8.70912 13.7455 8.69094L14.5273 7.89094C14.5455 7.87276 14.5818 7.85457 14.6 7.83639C14.6182 7.81821 14.6546 7.81821 14.6909 7.81821C14.7273 7.81821 14.7636 7.81821 14.8 7.83639C14.8364 7.85457 14.8546 7.87276 14.8727 7.89094C14.9091 7.9273 14.9273 7.94548 14.9273 7.98185C14.9455 8.01821 14.9455 8.03639 14.9455 8.07276C14.9455 8.10912 14.9455 8.14548 14.9273 8.18185C14.9091 8.21821 14.8909 8.23639 14.8727 8.25457L14.5455 8.61821H15C15.2 8.61821 15.4 8.63639 15.5818 8.69094C15.7636 8.74548 15.9455 8.80003 16.1091 8.90912V8.89094C16.2364 8.96366 16.3636 9.01821 16.5091 9.05457C16.6546 9.09094 16.8 9.10912 16.9636 9.10912C17.1273 9.10912 17.2909 9.09094 17.4364 9.05457C17.5818 9.01821 17.7273 8.96366 17.8364 8.89094C18 8.80003 18.1818 8.7273 18.3636 8.69094C18.5455 8.63639 18.7455 8.61821 18.9455 8.61821C19.1455 8.61821 19.3273 8.63639 19.5273 8.69094C19.7091 8.74548 19.8909 8.80003 20.0727 8.90912L20.0546 8.89094C20.1818 8.96366 20.3091 9.01821 20.4546 9.05457C20.6 9.09094 20.7455 9.10912 20.9091 9.10912C21.0727 9.10912 21.2364 9.09094 21.3818 9.05457C21.5273 9.01821 21.6727 8.96366 21.8 8.89094H21.7818C21.8 8.87276 21.8182 8.87275 21.8364 8.87275C21.8546 8.87275 21.8727 8.87275 21.8909 8.87275C21.9091 8.87275 21.9091 8.87275 21.9273 8.87275C21.9455 8.87275 21.9636 8.87275 21.9636 8.87275C22 8.89094 22.0182 8.90912 22.0546 8.9273C22.0727 8.94548 22.1091 8.98185 22.1273 9.01821C22.1455 9.03639 22.1455 9.03639 22.1455 9.07275C22.1455 9.09094 22.1455 9.10912 22.1455 9.1273C22.1455 9.14548 22.1455 9.16366 22.1455 9.18185C22.1455 9.20003 22.1455 9.20003 22.1455 9.23639C22.1273 9.27275 22.1273 9.29094 22.0909 9.30912C22.1091 9.30912 22.0727 9.3273 22.0364 9.34548ZM4.69091 18.2182C4.65455 18.2 4.63637 18.1637 4.63637 18.1273C4.61819 18.0909 4.61819 18.0546 4.61819 18.0364C4.61819 18 4.61819 17.9637 4.63637 17.9273C4.65455 17.8909 4.67273 17.8728 4.69091 17.8546C4.7091 17.8364 4.74546 17.8182 4.76364 17.8C4.80001 17.7818 4.83637 17.7818 4.87273 17.7818C4.9091 17.7818 4.92728 17.7818 4.96364 17.8C5.00001 17.8182 5.01819 17.8364 5.05455 17.8546C5.07273 17.8728 5.09091 17.9091 5.1091 17.9273C5.12728 17.9637 5.12728 18 5.12728 18.0364C5.12728 18.1091 5.1091 18.1637 5.05455 18.2182C5.00001 18.2728 4.94546 18.2909 4.87273 18.2909C4.83637 18.2909 4.81819 18.2909 4.78182 18.2728C4.74546 18.2546 4.7091 18.2364 4.69091 18.2182ZM9.54546 18.2364C9.5091 18.2182 9.49091 18.1818 9.49091 18.1455C9.47273 18.1091 9.47273 18.0728 9.47273 18.0364C9.47273 17.9637 9.49091 17.9091 9.54546 17.8546C9.60001 17.8 9.65455 17.7818 9.72728 17.7818C9.80001 17.7818 9.85455 17.8 9.9091 17.8546C9.96364 17.9091 9.98182 17.9637 9.98182 18.0364C9.98182 18.0728 9.98182 18.1091 9.96364 18.1455C9.94546 18.1818 9.92728 18.2182 9.9091 18.2364C9.87273 18.2546 9.85455 18.2728 9.81819 18.2909C9.80001 18.3091 9.76364 18.3091 9.7091 18.3091C9.65455 18.3091 9.63637 18.3091 9.60001 18.2909C9.58182 18.2728 9.56364 18.2546 9.54546 18.2364Z" fill="#2D3E50"/>
<mask id="mask0" mask-type="alpha" maskUnits="userSpaceOnUse" x="2" y="4" width="21" height="17">
<path d="M22.3636 4H2V20.1818H22.3636V4Z" fill="white"/>
<path d="M2.43637 4.20003H20.1636C20.2364 4.20003 20.2909 4.21821 20.3455 4.27275C20.4 4.3273 20.4182 4.38185 20.4182 4.45457V6.45457C20.4182 6.5273 20.4 6.58185 20.3455 6.63639C20.2909 6.69094 20.2364 6.70912 20.1636 6.70912C20.0909 6.70912 20.0364 6.69094 19.9818 6.63639C19.9273 6.58185 19.9091 6.5273 19.9091 6.45457V4.7273H17.2182V6.18185C17.2182 6.25457 17.2 6.30912 17.1455 6.36366C17.0909 6.41821 17.0364 6.43639 16.9636 6.43639C16.8909 6.43639 16.8364 6.41821 16.7818 6.36366C16.7273 6.30912 16.7091 6.25457 16.7091 6.18185V4.7273H14.8182V6.18185C14.8182 6.25457 14.8 6.30912 14.7455 6.36366C14.6909 6.41821 14.6364 6.43639 14.5636 6.43639C14.4909 6.43639 14.4364 6.41821 14.3818 6.36366C14.3273 6.30912 14.3091 6.25457 14.3091 6.18185V4.7273H12.4V18.0546C12.4 18.1273 12.3818 18.1818 12.3273 18.2364C12.2727 18.2909 12.2182 18.3091 12.1455 18.3091C12.0727 18.3091 12.0182 18.2909 11.9636 18.2364C11.9091 18.1818 11.8909 18.1273 11.8909 18.0546V4.70912H10V16.3273C10 16.4 9.98182 16.4546 9.92728 16.5091C9.87273 16.5637 9.81819 16.5818 9.74546 16.5818C9.67273 16.5818 9.61819 16.5637 9.56364 16.5091C9.5091 16.4546 9.49091 16.4 9.49091 16.3273V4.70912H7.56364V18.0364C7.56364 18.1091 7.54546 18.1637 7.49091 18.2182C7.43637 18.2728 7.38182 18.2909 7.3091 18.2909C7.23637 18.2909 7.18182 18.2728 7.12728 18.2182C7.07273 18.1637 7.05455 18.1091 7.05455 18.0364V4.70912H5.12728V16.3273C5.12728 16.4 5.1091 16.4546 5.05455 16.5091C5.00001 16.5637 4.94546 16.5818 4.87273 16.5818C4.80001 16.5818 4.74546 16.5637 4.69091 16.5091C4.63637 16.4546 4.61819 16.4 4.61819 16.3273V4.70912H2.7091V19.4728H14.2909V18.0182C14.2909 17.9455 14.3091 17.8909 14.3636 17.8364C14.4182 17.7818 14.4727 17.7637 14.5455 17.7637C14.6182 17.7637 14.6727 17.7818 14.7273 17.8364C14.7818 17.8909 14.8 17.9455 14.8 18.0182V19.4728H16.7091V18.0182C16.7091 17.9455 16.7273 17.8909 16.7818 17.8364C16.8364 17.7818 16.8909 17.7637 16.9636 17.7637C17.0364 17.7637 17.0909 17.7818 17.1455 17.8364C17.2 17.8909 17.2182 17.9455 17.2182 18.0182V19.4728H19.9091V17.7455C19.9091 17.6728 19.9273 17.6182 19.9818 17.5637C20.0364 17.5091 20.0909 17.4909 20.1636 17.4909C20.2364 17.4909 20.2909 17.5091 20.3455 17.5637C20.4 17.6182 20.4182 17.6728 20.4182 17.7455V19.7455C20.4182 19.8182 20.4 19.8728 20.3455 19.9273C20.2909 19.9818 20.2364 20 20.1636 20H2.43637C2.36364 20 2.3091 19.9818 2.25455 19.9273C2.20001 19.8728 2.18182 19.8182 2.18182 19.7455V4.45457C2.18182 4.38185 2.20001 4.3273 2.25455 4.27275C2.3091 4.21821 2.36364 4.20003 2.43637 4.20003ZM22.0364 12.5637C21.8909 12.6546 21.7091 12.7091 21.5273 12.7637C21.3455 12.8182 21.1455 12.8364 20.9455 12.8364C20.7455 12.8364 20.5636 12.8182 20.3636 12.7637C20.1636 12.7091 20 12.6546 19.8182 12.5637L19.8364 12.5818C19.7091 12.5091 19.5818 12.4546 19.4364 12.4182C19.2909 12.3818 19.1455 12.3637 18.9818 12.3637C18.8182 12.3637 18.6546 12.3818 18.5091 12.4182C18.3636 12.4546 18.2182 12.5091 18.0909 12.5818H18.1091C17.9455 12.6728 17.7636 12.7273 17.5818 12.7637C17.4 12.8 17.2 12.8182 17 12.8182C16.8 12.8182 16.6 12.8 16.4182 12.7455C16.2364 12.6909 16.0546 12.6364 15.8727 12.5455L15.8909 12.5637C15.7636 12.4909 15.6364 12.4364 15.4909 12.4C15.3455 12.3637 15.1818 12.3455 15.0182 12.3455H14.5455L14.8909 12.6909C14.9091 12.7091 14.9273 12.7455 14.9455 12.7637C14.9636 12.8 14.9636 12.8364 14.9636 12.8728C14.9636 12.9091 14.9636 12.9273 14.9455 12.9637C14.9273 13 14.9273 13.0182 14.8909 13.0546C14.8546 13.0728 14.8364 13.0909 14.8 13.1091C14.7636 13.1273 14.7455 13.1273 14.7091 13.1273C14.6727 13.1273 14.6364 13.1273 14.6 13.1091C14.5636 13.0909 14.5455 13.0728 14.5273 13.0546L13.7273 12.2546C13.6909 12.2364 13.6727 12.2 13.6727 12.1818C13.6546 12.1455 13.6546 12.1091 13.6546 12.0728C13.6546 12.0364 13.6546 12 13.6727 11.9818C13.6909 11.9455 13.7091 11.9091 13.7273 11.8909L14.5273 11.0909C14.5455 11.0728 14.5818 11.0546 14.6 11.0364C14.6364 11.0182 14.6727 11.0182 14.7091 11.0182C14.7455 11.0182 14.7636 11.0182 14.8 11.0364C14.8364 11.0546 14.8546 11.0728 14.8909 11.0909C14.9091 11.1091 14.9273 11.1455 14.9455 11.1818C14.9636 11.2182 14.9636 11.2546 14.9636 11.2728C14.9636 11.3091 14.9636 11.3455 14.9455 11.3818C14.9273 11.4182 14.9091 11.4364 14.8909 11.4546L14.5455 11.8364H15C15.2 11.8364 15.4 11.8546 15.5818 11.9091C15.7636 11.9637 15.9455 12.0182 16.1091 12.1091L16.0909 12.0909C16.2182 12.1637 16.3636 12.2182 16.5091 12.2546C16.6546 12.2909 16.8 12.3091 16.9636 12.3091C17.1091 12.3091 17.2727 12.2909 17.4182 12.2546C17.5636 12.2182 17.7091 12.1637 17.8364 12.0909C17.9818 12 18.1636 11.9455 18.3455 11.8909C18.5273 11.8364 18.7273 11.8182 18.9273 11.8182C19.1273 11.8182 19.3091 11.8364 19.5091 11.8909C19.6909 11.9455 19.8727 12 20.0364 12.0909V12.0728C20.1636 12.1455 20.2909 12.2 20.4364 12.2364C20.5818 12.2728 20.7273 12.2909 20.8909 12.2909C21.0546 12.2909 21.2182 12.2728 21.3636 12.2364C21.5091 12.2 21.6546 12.1455 21.7818 12.0728H21.7636C21.7818 12.0728 21.8 12.0728 21.8182 12.0728C21.8364 12.0728 21.8546 12.0728 21.8909 12.0728C21.9636 12.0728 22.0182 12.0909 22.0727 12.1455C22.1273 12.2 22.1455 12.2546 22.1455 12.3273C22.1455 12.3455 22.1455 12.3637 22.1455 12.3818C22.1455 12.4 22.1455 12.4182 22.1455 12.4182C22.1273 12.4546 22.1091 12.4728 22.0909 12.5091L22.0364 12.5637ZM18.0909 15.7818C17.9455 15.8728 17.7636 15.9273 17.5818 15.9818C17.4 16.0364 17.2 16.0546 17 16.0546C16.8 16.0546 16.6182 16.0364 16.4182 15.9818C16.2182 15.9273 16.0546 15.8728 15.8727 15.7818L15.8909 15.8C15.7636 15.7273 15.6364 15.6728 15.4909 15.6364C15.3455 15.6 15.1818 15.5818 15.0182 15.5818H14.5455L14.8909 15.9273C14.9091 15.9455 14.9273 15.9818 14.9455 16C14.9636 16.0364 14.9636 16.0728 14.9636 16.1091C14.9636 16.1455 14.9636 16.1818 14.9455 16.2182C14.9273 16.2546 14.9091 16.2728 14.8909 16.2909C14.8727 16.3091 14.8364 16.3273 14.8182 16.3455C14.7818 16.3637 14.7455 16.3637 14.7091 16.3637C14.6727 16.3637 14.6364 16.3637 14.6 16.3455C14.5636 16.3273 14.5455 16.3091 14.5273 16.2909L13.7273 15.4909C13.7091 15.4728 13.6909 15.4364 13.6727 15.4C13.6546 15.3637 13.6546 15.3273 13.6546 15.3091C13.6546 15.2728 13.6546 15.2364 13.6727 15.2C13.6909 15.1637 13.7091 15.1455 13.7273 15.1273L14.5273 14.3273C14.5455 14.3091 14.5818 14.2909 14.6 14.2728C14.6364 14.2546 14.6727 14.2546 14.7091 14.2546C14.7818 14.2546 14.8364 14.2728 14.8909 14.3273C14.9455 14.3818 14.9636 14.4364 14.9636 14.5091C14.9636 14.5455 14.9636 14.5818 14.9455 14.6C14.9273 14.6364 14.9091 14.6728 14.8909 14.6909L14.5455 15.0364H15C15.2 15.0364 15.4 15.0546 15.5818 15.1091C15.7636 15.1637 15.9455 15.2182 16.1273 15.3091L16.1091 15.2909C16.2364 15.3637 16.3636 15.4182 16.5091 15.4546C16.6546 15.4909 16.8 15.5091 16.9636 15.5091C17.1273 15.5091 17.2909 15.4909 17.4364 15.4546C17.5818 15.4182 17.7273 15.3637 17.8546 15.2909H17.8364C18 15.2 18.1818 15.1455 18.3636 15.0909C18.5455 15.0364 18.7455 15.0182 18.9455 15.0182C19.1455 15.0182 19.3455 15.0364 19.5273 15.0909C19.7091 15.1455 19.8909 15.2 20.0546 15.2909L20.0364 15.2728C20.1636 15.3455 20.2909 15.4 20.4364 15.4364C20.5818 15.4728 20.7455 15.4909 20.9091 15.4909C21.0546 15.4909 21.2182 15.4728 21.3636 15.4364C21.5091 15.4 21.6546 15.3455 21.7818 15.2728H21.7636C21.7818 15.2546 21.8 15.2546 21.8182 15.2546H21.8727H21.9273H21.9636C22.0182 15.2728 22.0727 15.3091 22.1091 15.3455C22.1455 15.4 22.1636 15.4364 22.1636 15.4909C22.1636 15.5455 22.1455 15.5818 22.1273 15.6364C22.1091 15.6728 22.0727 15.7091 22.0364 15.7455C21.8727 15.8364 21.6909 15.8909 21.5091 15.9455C21.3273 16 21.1273 16.0182 20.9273 16.0182C20.7273 16.0182 20.5273 16 20.3455 15.9455C20.1636 15.8909 19.9818 15.8364 19.8182 15.7455L19.8364 15.7637C19.7091 15.6909 19.5636 15.6364 19.4182 15.6C19.2727 15.5637 19.1273 15.5455 18.9636 15.5455C18.8 15.5455 18.6364 15.5637 18.4909 15.6C18.3455 15.6546 18.2 15.7091 18.0909 15.7818ZM22.0364 9.34548C21.8727 9.43639 21.6909 9.50912 21.5091 9.56366C21.3273 9.61821 21.1273 9.63639 20.9273 9.63639C20.7273 9.63639 20.5455 9.61821 20.3455 9.56366C20.1636 9.50912 19.9818 9.43639 19.8 9.36366H19.8182C19.6909 9.30912 19.5636 9.25457 19.4182 9.21821C19.2727 9.18185 19.1273 9.16366 18.9636 9.16366C18.8 9.16366 18.6364 9.18185 18.4909 9.21821C18.3455 9.25457 18.2 9.30912 18.0727 9.38185L18.0909 9.36366C17.9273 9.45457 17.7455 9.50912 17.5636 9.56366C17.3818 9.61821 17.1818 9.63639 16.9818 9.63639C16.7818 9.63639 16.5818 9.61821 16.4 9.56366C16.2182 9.50912 16.0364 9.45457 15.8546 9.36366H15.8727C15.7455 9.30912 15.6182 9.25457 15.4727 9.21821C15.3273 9.18185 15.1636 9.16366 15 9.16366H14.5455L14.8727 9.49094C14.9091 9.5273 14.9273 9.54548 14.9273 9.58185C14.9455 9.61821 14.9455 9.63639 14.9455 9.67275C14.9455 9.70912 14.9455 9.74548 14.9273 9.78185C14.9091 9.81821 14.8909 9.83639 14.8727 9.85457C14.8546 9.89094 14.8182 9.90912 14.8 9.90912C14.7818 9.90912 14.7273 9.9273 14.6909 9.9273C14.6546 9.9273 14.6364 9.9273 14.6 9.90912C14.5636 9.89094 14.5455 9.87276 14.5091 9.85457L13.7455 9.07275C13.7273 9.05457 13.7091 9.01821 13.6909 8.98185C13.6727 8.94548 13.6727 8.90912 13.6727 8.87275C13.6727 8.83639 13.6727 8.80003 13.6909 8.76366C13.7091 8.7273 13.7273 8.70912 13.7455 8.69094L14.5273 7.89094C14.5455 7.87276 14.5818 7.85457 14.6 7.83639C14.6182 7.81821 14.6546 7.81821 14.6909 7.81821C14.7273 7.81821 14.7636 7.81821 14.8 7.83639C14.8364 7.85457 14.8546 7.87276 14.8727 7.89094C14.9091 7.9273 14.9273 7.94548 14.9273 7.98185C14.9455 8.01821 14.9455 8.03639 14.9455 8.07276C14.9455 8.10912 14.9455 8.14548 14.9273 8.18185C14.9091 8.21821 14.8909 8.23639 14.8727 8.25457L14.5455 8.61821H15C15.2 8.61821 15.4 8.63639 15.5818 8.69094C15.7636 8.74548 15.9455 8.80003 16.1091 8.90912V8.89094C16.2364 8.96366 16.3636 9.01821 16.5091 9.05457C16.6546 9.09094 16.8 9.10912 16.9636 9.10912C17.1273 9.10912 17.2909 9.09094 17.4364 9.05457C17.5818 9.01821 17.7273 8.96366 17.8364 8.89094C18 8.80003 18.1818 8.7273 18.3636 8.69094C18.5455 8.63639 18.7455 8.61821 18.9455 8.61821C19.1455 8.61821 19.3273 8.63639 19.5273 8.69094C19.7091 8.74548 19.8909 8.80003 20.0727 8.90912L20.0546 8.89094C20.1818 8.96366 20.3091 9.01821 20.4546 9.05457C20.6 9.09094 20.7455 9.10912 20.9091 9.10912C21.0727 9.10912 21.2364 9.09094 21.3818 9.05457C21.5273 9.01821 21.6727 8.96366 21.8 8.89094H21.7818C21.8 8.87276 21.8182 8.87275 21.8364 8.87275C21.8546 8.87275 21.8727 8.87275 21.8909 8.87275C21.9091 8.87275 21.9091 8.87275 21.9273 8.87275C21.9455 8.87275 21.9636 8.87275 21.9636 8.87275C22 8.89094 22.0182 8.90912 22.0546 8.9273C22.0727 8.94548 22.1091 8.98185 22.1273 9.01821C22.1455 9.03639 22.1455 9.03639 22.1455 9.07275C22.1455 9.09094 22.1455 9.10912 22.1455 9.1273C22.1455 9.14548 22.1455 9.16366 22.1455 9.18185C22.1455 9.20003 22.1455 9.20003 22.1455 9.23639C22.1273 9.27275 22.1273 9.29094 22.0909 9.30912C22.1091 9.30912 22.0727 9.3273 22.0364 9.34548ZM4.69091 18.2182C4.65455 18.2 4.63637 18.1637 4.63637 18.1273C4.61819 18.0909 4.61819 18.0546 4.61819 18.0364C4.61819 18 4.61819 17.9637 4.63637 17.9273C4.65455 17.8909 4.67273 17.8728 4.69091 17.8546C4.7091 17.8364 4.74546 17.8182 4.76364 17.8C4.80001 17.7818 4.83637 17.7818 4.87273 17.7818C4.9091 17.7818 4.92728 17.7818 4.96364 17.8C5.00001 17.8182 5.01819 17.8364 5.05455 17.8546C5.07273 17.8728 5.09091 17.9091 5.1091 17.9273C5.12728 17.9637 5.12728 18 5.12728 18.0364C5.12728 18.1091 5.1091 18.1637 5.05455 18.2182C5.00001 18.2728 4.94546 18.2909 4.87273 18.2909C4.83637 18.2909 4.81819 18.2909 4.78182 18.2728C4.74546 18.2546 4.7091 18.2364 4.69091 18.2182ZM9.54546 18.2364C9.5091 18.2182 9.49091 18.1818 9.49091 18.1455C9.47273 18.1091 9.47273 18.0728 9.47273 18.0364C9.47273 17.9637 9.49091 17.9091 9.54546 17.8546C9.60001 17.8 9.65455 17.7818 9.72728 17.7818C9.80001 17.7818 9.85455 17.8 9.9091 17.8546C9.96364 17.9091 9.98182 17.9637 9.98182 18.0364C9.98182 18.0728 9.98182 18.1091 9.96364 18.1455C9.94546 18.1818 9.92728 18.2182 9.9091 18.2364C9.87273 18.2546 9.85455 18.2728 9.81819 18.2909C9.80001 18.3091 9.76364 18.3091 9.7091 18.3091C9.65455 18.3091 9.63637 18.3091 9.60001 18.2909C9.58182 18.2728 9.56364 18.2546 9.54546 18.2364Z" fill="black"/>
</mask>
<g mask="url(#mask0)">
<path d="M20.1636 20.1818H2.43636C2.30909 20.1818 2.2 20.1455 2.12727 20.0546C2.03636 19.9637 2 19.8546 2 19.7455V4.45457C2 4.32729 2.03636 4.2182 2.12727 4.14548C2.21818 4.05457 2.32727 4.0182 2.43636 4.0182H20.1636C20.2909 4.0182 20.4 4.05457 20.4727 4.14548C20.5636 4.23639 20.6 4.34548 20.6 4.45457V6.45457C20.6 6.58184 20.5636 6.69093 20.4727 6.76366C20.3091 6.92729 20.0182 6.92729 19.8545 6.76366C19.7636 6.67275 19.7273 6.56366 19.7273 6.45457V4.90911H17.4V6.18184C17.4 6.29093 17.3636 6.40002 17.2909 6.49093C17.1273 6.67275 16.8364 6.67275 16.6727 6.49093C16.5818 6.40002 16.5455 6.29093 16.5455 6.18184V4.90911H15V6.18184C15 6.30911 14.9636 6.4182 14.8727 6.49093C14.7091 6.65457 14.4182 6.65457 14.2545 6.49093C14.1636 6.40002 14.1273 6.29093 14.1273 6.18184V4.90911H12.6V18.0546C12.6 18.1818 12.5636 18.2909 12.4727 18.3637C12.3091 18.5273 12.0182 18.5273 11.8545 18.3637C11.7636 18.2727 11.7273 18.1637 11.7273 18.0546V4.89093H10.1818V16.3273C10.1818 16.4546 10.1455 16.5637 10.0545 16.6364C9.89091 16.8 9.6 16.8 9.43636 16.6364C9.34546 16.5455 9.30909 16.4364 9.30909 16.3273V4.89093H7.76364V18.0364C7.76364 18.1637 7.72727 18.2727 7.63636 18.3455C7.47273 18.5091 7.18182 18.5091 7.01818 18.3455C6.92727 18.2546 6.89091 18.1455 6.89091 18.0364V4.89093H5.34545V16.3273C5.34545 16.4546 5.30909 16.5637 5.21818 16.6364C5.05455 16.8 4.76364 16.8 4.6 16.6364C4.50909 16.5455 4.47273 16.4364 4.47273 16.3273V4.89093H2.92727V19.2909H14.1455V18.0182C14.1455 17.8909 14.1818 17.7818 14.2727 17.7091C14.4364 17.5455 14.7273 17.5455 14.8909 17.7091C14.9818 17.8 15.0182 17.9091 15.0182 18.0182V19.2909H16.5636V18.0182C16.5636 17.8909 16.6 17.7818 16.6909 17.7091C16.8545 17.5273 17.1636 17.5455 17.3091 17.7091C17.3818 17.8 17.4182 17.8909 17.4182 18.0182V19.2909H19.7455V17.7455C19.7455 17.6182 19.7818 17.5091 19.8727 17.4364C20.0364 17.2727 20.3273 17.2727 20.4909 17.4364C20.5818 17.5273 20.6182 17.6364 20.6182 17.7455V19.7455C20.6182 19.8727 20.5818 19.9818 20.4909 20.0546C20.4 20.1455 20.2909 20.1818 20.1636 20.1818ZM2.43636 4.38184C2.41818 4.38184 2.4 4.38184 2.38182 4.40002C2.36364 4.4182 2.36364 4.43639 2.36364 4.45457V19.7455C2.36364 19.7637 2.36364 19.7818 2.38182 19.8C2.4 19.8182 2.41818 19.8182 2.43636 19.8182H20.1636C20.1818 19.8182 20.2 19.8182 20.2182 19.8C20.2364 19.7818 20.2364 19.7637 20.2364 19.7455V17.7455C20.2364 17.7273 20.2364 17.7091 20.2182 17.6909C20.1818 17.6546 20.1455 17.6546 20.1091 17.6909C20.0909 17.7091 20.0909 17.7273 20.0909 17.7455V19.6546H17.0364V18.0182C17.0364 17.9818 17.0182 17.9637 17.0182 17.9637C17 17.9455 16.9636 17.9455 16.9273 17.9637C16.9091 17.9818 16.9091 18 16.9091 18.0182V19.6546H14.6364V18.0182C14.6364 18 14.6364 17.9818 14.6182 17.9637C14.5818 17.9273 14.5455 17.9273 14.5091 17.9637C14.4909 17.9818 14.4909 18 14.4909 18.0182V19.6546H2.52727V4.52729H4.8V16.3273C4.8 16.3455 4.8 16.3637 4.81818 16.3818C4.85455 16.4182 4.89091 16.4182 4.92727 16.3818C4.94545 16.3637 4.94545 16.3455 4.94545 16.3273V4.52729H7.21818V18.0364C7.21818 18.0546 7.21818 18.0728 7.23636 18.0909C7.27273 18.1273 7.30909 18.1273 7.34546 18.0909C7.36364 18.0728 7.36364 18.0546 7.36364 18.0364V4.52729H9.63636V16.3273C9.63636 16.3455 9.63636 16.3637 9.65455 16.3818C9.69091 16.4182 9.72727 16.4182 9.76364 16.3818C9.78182 16.3637 9.78182 16.3455 9.78182 16.3273V4.52729H12.0364V18.0364C12.0364 18.0546 12.0364 18.0728 12.0545 18.0909C12.0909 18.1273 12.1273 18.1273 12.1636 18.0909C12.1818 18.0728 12.1818 18.0546 12.1818 18.0364V4.52729H14.4364V6.16366C14.4364 6.18184 14.4364 6.20002 14.4545 6.2182C14.4909 6.25457 14.5273 6.25457 14.5636 6.2182C14.5818 6.20002 14.5818 6.18184 14.5818 6.16366V4.52729H16.8545V6.16366C16.8545 6.18184 16.8545 6.20002 16.8727 6.2182C16.9091 6.25457 16.9455 6.25457 16.9636 6.2182C16.9818 6.20002 16.9818 6.18184 16.9818 6.14548V4.50911H20.0364V6.4182C20.0364 6.43639 20.0364 6.45457 20.0545 6.47275C20.0909 6.50911 20.1273 6.50911 20.1636 6.47275C20.1818 6.45457 20.1818 6.43639 20.1818 6.4182V4.4182C20.1818 4.40002 20.1818 4.38184 20.1636 4.36366C20.1455 4.34548 20.1273 4.34548 20.1091 4.34548H2.43636V4.38184ZM9.72727 18.4909C9.65455 18.4909 9.6 18.4727 9.54545 18.4546C9.50909 18.4364 9.47273 18.4 9.43636 18.3818C9.38182 18.3455 9.32727 18.2727 9.30909 18.2C9.29091 18.1455 9.29091 18.0909 9.29091 18.0546C9.29091 17.9273 9.32727 17.8182 9.41818 17.7455C9.58182 17.5818 9.87273 17.5818 10.0545 17.7455C10.1455 17.8364 10.1818 17.9455 10.1818 18.0546C10.1818 18.1091 10.1636 18.1637 10.1455 18.2364C10.1273 18.2909 10.0909 18.3455 10.0545 18.3818L10.0364 18.4C10 18.4182 9.96364 18.4364 9.94546 18.4546C9.85455 18.4727 9.8 18.4909 9.72727 18.4909ZM9.65455 18.0909L9.67273 18.1091C9.67273 18.1091 9.69091 18.1273 9.70909 18.1273C9.70909 18.1273 9.70909 18.1273 9.72727 18.1273C9.74545 18.1273 9.76364 18.1091 9.78182 18.0909C9.78182 18.0909 9.78182 18.0728 9.8 18.0728C9.8 18.0546 9.8 18.0364 9.8 18.0364C9.8 18.0182 9.8 18 9.78182 17.9818C9.74545 17.9455 9.70909 17.9455 9.67273 17.9818C9.65455 18 9.63636 18.0182 9.63636 18.0364C9.63636 18.0546 9.63636 18.0728 9.65455 18.0909ZM4.87273 18.4727C4.8 18.4727 4.76364 18.4727 4.70909 18.4546C4.65455 18.4364 4.61818 18.4182 4.58182 18.3818C4.52727 18.3455 4.47273 18.2727 4.45455 18.2C4.43636 18.1455 4.43636 18.0909 4.43636 18.0546C4.43636 18 4.43636 17.9455 4.45455 17.8909C4.47273 17.8364 4.50909 17.7637 4.58182 17.7273C4.61818 17.6909 4.65455 17.6727 4.69091 17.6546C4.8 17.6 4.92727 17.6 5.05455 17.6546C5.09091 17.6727 5.12727 17.6909 5.16364 17.7273L5.2 17.7455C5.23636 17.7818 5.27273 17.8182 5.29091 17.8728C5.32727 17.9273 5.32727 18 5.32727 18.0546C5.32727 18.1818 5.27273 18.2909 5.18182 18.3637C5.10909 18.4182 5 18.4727 4.87273 18.4727ZM4.81818 18.0909C4.83636 18.0909 4.85455 18.1091 4.85455 18.1091C4.89091 18.1091 4.90909 18.1091 4.92727 18.0909C4.94545 18.0728 4.94545 18.0728 4.94545 18.0546C4.94545 18.0364 4.94545 18.0364 4.94545 18.0364C4.94545 18.0364 4.94545 18.0182 4.92727 18.0182C4.90909 18 4.89091 18 4.87273 17.9818C4.83636 17.9818 4.83636 17.9818 4.83636 17.9818C4.81818 17.9818 4.81818 18 4.8 18C4.8 18 4.8 18.0182 4.8 18.0364C4.8 18.0546 4.8 18.0546 4.81818 18.0909ZM14.7091 16.5455C14.6364 16.5455 14.5818 16.5273 14.5273 16.5091C14.4727 16.4909 14.4364 16.4546 14.4 16.4182L13.6 15.6182C13.5636 15.5818 13.5273 15.5273 13.5091 15.4727C13.4909 15.4182 13.4727 15.3637 13.4727 15.3091C13.4727 15.2364 13.4909 15.1818 13.5091 15.1273C13.5273 15.0727 13.5636 15.0364 13.6 15L14.4 14.2C14.4364 14.1637 14.4727 14.1273 14.5273 14.1091C14.5818 14.0727 14.6545 14.0728 14.7091 14.0728C14.8364 14.0728 14.9455 14.1091 15.0182 14.2C15.1091 14.2909 15.1455 14.4 15.1455 14.5091C15.1455 14.5637 15.1273 14.6182 15.1091 14.6727C15.0909 14.7273 15.0545 14.7818 15.0182 14.8182L14.9818 14.8546H15C15.2182 14.8546 15.4364 14.8727 15.6364 14.9273C15.8364 14.9818 16.0364 15.0546 16.2182 15.1455C16.3273 15.2 16.4545 15.2546 16.5818 15.2909C16.8545 15.3637 17.1636 15.3455 17.4182 15.2909C17.5455 15.2546 17.6727 15.2182 17.7818 15.1455C17.9636 15.0546 18.1455 14.9818 18.3455 14.9455C18.7455 14.8546 19.2 14.8546 19.6 14.9455C19.8 15 19.9818 15.0728 20.1636 15.1637C20.2727 15.2182 20.4 15.2727 20.5273 15.3091C20.7818 15.3637 21.0909 15.3818 21.3636 15.3091C21.4909 15.2727 21.6182 15.2364 21.7273 15.1637C21.7818 15.1455 21.8182 15.1273 21.8727 15.1273H22.0364L22.0727 15.1455C22.1818 15.1818 22.2545 15.2364 22.3091 15.3091C22.3636 15.3818 22.3818 15.4727 22.3818 15.5637C22.3818 15.6546 22.3636 15.7273 22.3091 15.8C22.2727 15.8546 22.2182 15.9091 22.1636 15.9637L22.1273 15.9818C21.9455 16.0728 21.7636 16.1455 21.5636 16.1818C21.1455 16.2909 20.7091 16.2727 20.3091 16.1818C20.1091 16.1273 19.9273 16.0546 19.7636 15.9637C19.6364 15.8909 19.5091 15.8546 19.3818 15.8182C19.1091 15.7455 18.8 15.7637 18.5455 15.8182C18.4182 15.8546 18.2909 15.8909 18.1818 15.9637C18.0182 16.0546 17.8364 16.1273 17.6182 16.1637C17.2182 16.2546 16.7818 16.2727 16.3636 16.1637C16.1636 16.1091 15.9818 16.0364 15.8 15.9637C15.6909 15.9091 15.5818 15.8546 15.4364 15.8182C15.3091 15.7818 15.1636 15.7637 15.0182 15.7637H15L15.0364 15.8C15.0727 15.8364 15.0909 15.8727 15.1273 15.9273C15.1636 15.9818 15.1636 16.0546 15.1636 16.1091C15.1636 16.1637 15.1455 16.2364 15.1273 16.2909C15.1091 16.3455 15.0727 16.3818 15.0364 16.4182C15 16.4546 14.9636 16.4909 14.9091 16.5091C14.8364 16.5273 14.7818 16.5455 14.7091 16.5455ZM14.7091 14.4182C14.6909 14.4182 14.6909 14.4182 14.6909 14.4182C14.6727 14.4182 14.6727 14.4364 14.6545 14.4364L13.8545 15.2364C13.8545 15.2364 13.8364 15.2546 13.8364 15.2727C13.8364 15.2727 13.8364 15.2727 13.8364 15.2909C13.8364 15.2909 13.8364 15.2909 13.8364 15.3273C13.8364 15.3455 13.8545 15.3637 13.8545 15.3637L14.6545 16.1637C14.6545 16.1637 14.6727 16.1818 14.6909 16.1818H14.7455C14.7636 16.1818 14.7636 16.1637 14.7818 16.1637C14.7818 16.1637 14.8 16.1455 14.8 16.1273V16.1091V16.0909C14.8 16.0728 14.7818 16.0728 14.7818 16.0546L14.1273 15.3818H15.0182C15.2 15.3818 15.3636 15.4 15.5273 15.4364C15.6727 15.4727 15.8182 15.5273 15.9455 15.6C16.1091 15.6728 16.2909 15.7455 16.4545 15.7818C16.8182 15.8728 17.2 15.8728 17.5273 15.7818C17.7091 15.7455 17.8545 15.6728 18 15.6C18.1455 15.5273 18.2909 15.4546 18.4545 15.4182C18.7636 15.3455 19.1273 15.3455 19.4545 15.4182C19.6182 15.4546 19.7636 15.5091 19.9091 15.5818C20.0545 15.6727 20.2182 15.7273 20.4 15.7637C20.7455 15.8546 21.1273 15.8546 21.4727 15.7637C21.6364 15.7273 21.8 15.6728 21.9455 15.6C21.9636 15.5818 21.9818 15.5637 21.9818 15.5455C21.9818 15.5455 22 15.5273 22 15.5091C22 15.4909 22 15.4909 21.9818 15.4727C21.9818 15.4727 21.9818 15.4546 21.9636 15.4546H21.8909C21.7455 15.5273 21.6 15.5818 21.4364 15.6182C21.1091 15.6909 20.7455 15.6909 20.4364 15.6182C20.2727 15.5818 20.1273 15.5273 20 15.4546C19.8545 15.3637 19.6909 15.3091 19.5091 15.2727C19.1636 15.1818 18.7636 15.1818 18.4182 15.2727C18.2545 15.3091 18.0909 15.3637 17.9455 15.4364C17.8 15.5091 17.6364 15.5818 17.4727 15.6182C17.1636 15.6909 16.8 15.6909 16.4727 15.6182C16.3091 15.5818 16.1818 15.5273 16.0364 15.4546C15.8727 15.3637 15.7091 15.3091 15.5273 15.2546C15.3455 15.2182 15.1636 15.1818 14.9818 15.1818H14.0909L14.7455 14.5091C14.7455 14.5091 14.7455 14.5091 14.7636 14.4727C14.7636 14.4546 14.7636 14.4546 14.7636 14.4364C14.7636 14.4182 14.7636 14.4 14.7455 14.3818C14.7455 14.4364 14.7273 14.4182 14.7091 14.4182ZM14.7091 13.3455C14.6364 13.3455 14.5818 13.3273 14.5273 13.3091C14.4727 13.2909 14.4364 13.2546 14.4 13.2182L13.6182 12.4364C13.5636 12.4 13.5273 12.3455 13.5091 12.2727C13.4909 12.2182 13.4909 12.1637 13.4909 12.1091C13.4909 12.0546 13.4909 12.0182 13.5091 11.9637C13.5273 11.8909 13.5636 11.8364 13.6364 11.7818L14.4182 11C14.4545 10.9637 14.4909 10.9273 14.5455 10.9091C14.6545 10.8546 14.7818 10.8546 14.9091 10.9091C14.9455 10.9273 14.9818 10.9455 15.0182 10.9818L15.0545 11C15.0909 11.0364 15.1273 11.0909 15.1455 11.1455C15.1636 11.2 15.1818 11.2546 15.1818 11.3091C15.1818 11.3818 15.1636 11.4364 15.1455 11.4909C15.1273 11.5455 15.0909 11.5818 15.0545 11.6182L15.0182 11.6546H15.0364C15.2545 11.6546 15.4727 11.6727 15.6727 11.7273C15.8727 11.7818 16.0545 11.8546 16.2182 11.9455C16.3455 12.0182 16.4545 12.0546 16.5818 12.0909C16.8364 12.1455 17.1273 12.1637 17.4 12.0909C17.5273 12.0546 17.6545 12.0182 17.7818 11.9455C17.9455 11.8546 18.1273 11.7818 18.3455 11.7455C18.7455 11.6546 19.1818 11.6364 19.6 11.7455C19.7091 11.7637 19.8 11.8 19.9091 11.8364V11.8L20.1818 11.9455C20.2909 12 20.4182 12.0546 20.5455 12.0909C20.8182 12.1637 21.1273 12.1455 21.3818 12.0909C21.5091 12.0546 21.6364 12.0182 21.7636 11.9455L21.8364 12.0728V11.9273C21.8727 11.9091 21.9091 11.9091 21.9636 11.9091C22.0727 11.9091 22.1818 11.9455 22.2727 12.0182C22.3636 12.0909 22.4182 12.2 22.4182 12.3273C22.4182 12.3637 22.4182 12.4 22.4 12.4364V12.4546L22.3818 12.4909C22.3636 12.5455 22.3273 12.6 22.2909 12.6546L22.1636 12.7818H22.1091C21.9455 12.8546 21.7818 12.9273 21.6 12.9637C21.2 13.0546 20.7636 13.0728 20.3455 12.9637C20.1455 12.9091 19.9455 12.8364 19.7636 12.7455C19.6545 12.6909 19.5455 12.6364 19.4 12.6C19.1273 12.5273 18.8182 12.5455 18.5636 12.6C18.4364 12.6364 18.3091 12.6727 18.2 12.7455C18.0182 12.8364 17.8364 12.9091 17.6364 12.9455C17.2364 13.0364 16.7818 13.0364 16.3818 12.9455C16.1818 12.8909 16 12.8364 15.8182 12.7455C15.7091 12.6909 15.6 12.6364 15.4545 12.6C15.3273 12.5637 15.1818 12.5455 15.0364 12.5455H15.0182L15.0545 12.5818C15.0909 12.6182 15.1273 12.6727 15.1455 12.7273C15.1636 12.7818 15.1636 12.8364 15.1636 12.8909C15.1636 12.9455 15.1636 13 15.1455 13.0364C15.1273 13.0727 15.1091 13.1273 15.0727 13.1637L15.0545 13.2L15.0182 13.2182C14.9818 13.2364 14.9455 13.2727 14.9091 13.2909C14.8182 13.3273 14.7636 13.3455 14.7091 13.3455ZM13.8364 12.1273L13.8545 12.1455L14.6545 12.9455C14.6545 12.9455 14.6727 12.9637 14.6909 12.9637C14.6909 12.9637 14.6909 12.9637 14.7091 12.9637C14.7273 12.9637 14.7455 12.9455 14.7636 12.9455V12.9273C14.7636 12.9091 14.7636 12.9091 14.7636 12.8909C14.7636 12.8546 14.7636 12.8546 14.7636 12.8364L14.1091 12.1818H15C15.1818 12.1818 15.3455 12.2 15.5091 12.2364C15.6545 12.2727 15.8 12.3273 15.9273 12.4C16.0909 12.4727 16.2545 12.5455 16.4364 12.5818C16.7818 12.6727 17.1818 12.6727 17.5273 12.5818C17.6909 12.5455 17.8364 12.4909 17.9818 12.4182C18.1273 12.3455 18.2909 12.2727 18.4545 12.2364C18.7636 12.1637 19.1273 12.1637 19.4545 12.2364C19.6182 12.2727 19.7455 12.3273 19.8909 12.4C20.0545 12.4909 20.2182 12.5455 20.4 12.6C20.7636 12.6909 21.1455 12.6909 21.4727 12.6C21.6545 12.5637 21.8 12.4909 21.9455 12.4182L21.9818 12.3818C21.9818 12.3637 21.9818 12.3455 22 12.3273C22 12.3091 22 12.2909 21.9818 12.2909C21.9636 12.2727 21.9273 12.2727 21.8909 12.2727C21.8909 12.2727 21.8727 12.2727 21.8545 12.2727C21.7091 12.3455 21.5636 12.4 21.4182 12.4364C21.1091 12.5091 20.7455 12.5091 20.4182 12.4364C20.3636 12.4182 20.2909 12.4 20.2364 12.3818V12.4182L19.9636 12.2727C19.8182 12.1818 19.6545 12.1273 19.4727 12.0909C19.1091 12 18.7273 12 18.4 12.0909C18.2182 12.1273 18.0727 12.2 17.9273 12.2727C17.7818 12.3455 17.6182 12.4182 17.4545 12.4546C17.1273 12.5273 16.7636 12.5273 16.4545 12.4546C16.3091 12.4182 16.1636 12.3637 16.0182 12.2909C15.8727 12.2 15.7091 12.1455 15.5273 12.1091C15.3455 12.0727 15.1636 12.0364 14.9818 12.0364H14.0909L14.7455 11.3637C14.7455 11.3637 14.7636 11.3455 14.7636 11.3273C14.7636 11.3273 14.7636 11.3273 14.7636 11.3091C14.7636 11.3091 14.7636 11.2909 14.7636 11.2727C14.7636 11.2727 14.7636 11.2546 14.7455 11.2546C14.7273 11.2364 14.7091 11.2364 14.6909 11.2182C14.6545 11.2182 14.6545 11.2182 14.6545 11.2182C14.6364 11.2182 14.6364 11.2364 14.6182 11.2364L13.8 12.0546C13.8 12.0728 13.8 12.0909 13.8 12.0909C13.8364 12.1091 13.8364 12.1273 13.8364 12.1273ZM14.6727 10.1091C14.6182 10.1091 14.5636 10.1091 14.5273 10.0909C14.4727 10.0727 14.4182 10.0364 14.3636 9.98184L13.6 9.20002C13.5636 9.16366 13.5273 9.10911 13.5091 9.05457C13.4909 9.00002 13.4727 8.94548 13.4727 8.89093C13.4727 8.8182 13.4909 8.76366 13.5091 8.70911C13.5273 8.65457 13.5636 8.6182 13.6 8.58184L14.3818 7.78184C14.4182 7.74548 14.4545 7.70911 14.5091 7.69093C14.6364 7.63639 14.7636 7.63639 14.8727 7.69093C14.9273 7.70911 14.9636 7.74548 15 7.78184C15.0545 7.83639 15.0909 7.89093 15.1091 7.94548C15.1273 8.00002 15.1273 8.03639 15.1273 8.09093C15.1273 8.14548 15.1273 8.20002 15.1091 8.25457C15.0909 8.30911 15.0545 8.36366 15 8.4182L14.9818 8.43639H15.0182C15.2364 8.43639 15.4545 8.45457 15.6545 8.50911C15.7636 8.52729 15.8545 8.56366 15.9636 8.60002V8.56366L16.2364 8.70911C16.3455 8.76366 16.4727 8.8182 16.6 8.85457C16.8727 8.92729 17.1636 8.92729 17.4364 8.85457C17.5818 8.8182 17.6909 8.76366 17.8182 8.70911C17.9818 8.6182 18.1636 8.54548 18.3636 8.50911C18.7636 8.4182 19.2 8.40002 19.6182 8.50911C19.8182 8.56366 20.0182 8.63639 20.2 8.72729C20.3091 8.78184 20.4182 8.83639 20.5636 8.87275C20.8364 8.94548 21.1273 8.94548 21.4 8.87275C21.5273 8.83639 21.6545 8.78184 21.7818 8.72729C21.8182 8.70911 21.8545 8.69093 21.8727 8.69093C21.9273 8.67275 22 8.67275 22.0727 8.69093H22.0909L22.1273 8.70911C22.1818 8.72729 22.2364 8.76366 22.2909 8.80002C22.3273 8.83639 22.3455 8.87275 22.3818 8.90911C22.4 8.94548 22.4182 8.98184 22.4364 9.0182C22.4364 9.05457 22.4545 9.09093 22.4545 9.1273C22.4545 9.16366 22.4545 9.20002 22.4364 9.23639V9.29093C22.4182 9.34548 22.3818 9.40002 22.3455 9.43639C22.3091 9.47275 22.2909 9.49093 22.2364 9.5273L22.1818 9.56366H22.1636C22 9.65457 21.8364 9.72729 21.6364 9.76366C21.2364 9.85457 20.8 9.87275 20.3818 9.76366C20.1818 9.70911 19.9818 9.63639 19.8 9.54548C19.6909 9.49093 19.5636 9.45457 19.4364 9.4182C19.1636 9.34548 18.8545 9.36366 18.6 9.4182C18.4727 9.45457 18.3455 9.49093 18.2182 9.56366C18.0545 9.65457 17.8727 9.70911 17.6727 9.76366C17.2727 9.87275 16.8182 9.87275 16.4182 9.76366C16.2182 9.70911 16.0364 9.63639 15.8545 9.56366C15.7455 9.50911 15.6182 9.47275 15.4909 9.43639C15.3636 9.40002 15.2182 9.38184 15.0727 9.38184H15.0545L15.0727 9.40002C15.1273 9.45457 15.1636 9.50911 15.1818 9.56366C15.2 9.6182 15.2 9.65457 15.2 9.70911C15.2 9.76366 15.2 9.8182 15.1818 9.87275C15.1636 9.92729 15.1273 9.98184 15.0727 10.0182C15.0364 10.0727 14.9818 10.1091 14.9273 10.1273C14.8 10.0909 14.7455 10.1091 14.6727 10.1091ZM14.6727 8.0182C14.6545 8.03639 14.6364 8.03639 14.6364 8.03639L13.8545 8.83639C13.8545 8.83639 13.8364 8.85457 13.8364 8.87275C13.8364 8.87275 13.8364 8.89093 13.8364 8.90911C13.8364 8.90911 13.8364 8.92729 13.8364 8.94548C13.8545 8.96366 13.8545 8.98184 13.8545 8.98184L14.6182 9.76366C14.6364 9.78184 14.6364 9.78184 14.6364 9.78184C14.6727 9.80002 14.6909 9.78184 14.7091 9.78184L14.7455 9.74548C14.7455 9.74548 14.7455 9.72729 14.7455 9.70911C14.7455 9.69093 14.7455 9.69093 14.7455 9.67275C14.7455 9.67275 14.7455 9.67275 14.7273 9.65457L14.0909 9.0182H14.9818C15.1636 9.0182 15.3273 9.03639 15.4909 9.07275C15.6545 9.10911 15.8 9.16366 15.9455 9.23639C16.1091 9.30911 16.2727 9.36366 16.4364 9.4182C16.7818 9.50911 17.1818 9.50911 17.5091 9.4182C17.6727 9.38184 17.8364 9.30911 18 9.23639C18.1455 9.16366 18.2909 9.10911 18.4364 9.07275C18.7455 9.00002 19.1091 9.00002 19.4364 9.07275C19.6 9.10911 19.7455 9.16366 19.8909 9.23639C20.0545 9.30911 20.2182 9.36366 20.3818 9.4182C20.7455 9.50911 21.1273 9.50911 21.4545 9.4182C21.6182 9.38184 21.7818 9.30911 21.9091 9.23639L21.9636 9.2182C21.9636 9.20002 21.9636 9.18184 21.9818 9.16366C21.9636 9.14548 21.9455 9.12729 21.9273 9.10911C21.9091 9.10911 21.8909 9.10911 21.8909 9.09093C21.8727 9.09093 21.8727 9.09093 21.8727 9.09093C21.7273 9.16366 21.5818 9.2182 21.4182 9.25457C21.1091 9.34548 20.7455 9.34548 20.4 9.27275C20.2364 9.23639 20.1091 9.18184 19.9636 9.10911C19.8 9.0182 19.6364 8.96366 19.4545 8.90911C19.0909 8.8182 18.7091 8.8182 18.3818 8.90911C18.2 8.94548 18.0545 9.0182 17.9091 9.09093C17.7636 9.16366 17.6182 9.2182 17.4727 9.25457C17.1636 9.34548 16.8 9.34548 16.4545 9.27275C16.4 9.25457 16.3273 9.23639 16.2727 9.2182V9.25457L16 9.10911C15.8545 9.0182 15.6909 8.96366 15.5091 8.90911C15.3273 8.87275 15.1455 8.83639 14.9636 8.83639H14.0727L14.7091 8.16366C14.7091 8.16366 14.7091 8.14548 14.7091 8.1273C14.7091 8.10911 14.7091 8.10911 14.7091 8.09093C14.7091 8.09093 14.7091 8.09093 14.6909 8.07275C14.6909 8.07275 14.6727 8.05457 14.6545 8.05457C14.7091 8.0182 14.6909 8.0182 14.6727 8.0182Z" fill="#2D3E50"/>
</g>
</svg>
