<svg width="12" height="12" viewBox="0 0 12 12" fill="none" xmlns="http://www.w3.org/2000/svg">
<path d="M1.21822 2.10002H10.0819C10.1182 2.10002 10.1455 2.10911 10.1728 2.13638C10.2 2.16366 10.2091 2.19093 10.2091 2.22729V3.22729C10.2091 3.26366 10.2 3.29093 10.1728 3.3182C10.1455 3.34548 10.1182 3.35457 10.0819 3.35457C10.0455 3.35457 10.0182 3.34548 9.99094 3.3182C9.96367 3.29093 9.95458 3.26366 9.95458 3.22729V2.36366H8.60912V3.09093C8.60912 3.12729 8.60003 3.15457 8.57276 3.18184C8.54549 3.20911 8.51822 3.2182 8.48185 3.2182C8.44549 3.2182 8.41822 3.20911 8.39094 3.18184C8.36367 3.15457 8.35458 3.12729 8.35458 3.09093V2.36366H7.40912V3.09093C7.40912 3.12729 7.40003 3.15457 7.37276 3.18184C7.34549 3.20911 7.31822 3.2182 7.28185 3.2182C7.24549 3.2182 7.21821 3.20911 7.19094 3.18184C7.16367 3.15457 7.15458 3.12729 7.15458 3.09093V2.36366H6.20003V9.02729C6.20003 9.06366 6.19094 9.09093 6.16367 9.1182C6.1364 9.14548 6.10912 9.15457 6.07276 9.15457C6.0364 9.15457 6.00912 9.14548 5.98185 9.1182C5.95458 9.09093 5.94549 9.06366 5.94549 9.02729V2.35457H5.00003V8.16366C5.00003 8.20002 4.99094 8.22729 4.96367 8.25457C4.9364 8.28184 4.90912 8.29093 4.87276 8.29093C4.8364 8.29093 4.80912 8.28184 4.78185 8.25457C4.75458 8.22729 4.74549 8.20002 4.74549 8.16366V2.35457H3.78185V9.0182C3.78185 9.05457 3.77276 9.08184 3.74549 9.10911C3.71822 9.13638 3.69094 9.14548 3.65458 9.14548C3.61822 9.14548 3.59094 9.13638 3.56367 9.10911C3.5364 9.08184 3.52731 9.05457 3.52731 9.0182V2.35457H2.56367V8.16366C2.56367 8.20002 2.55458 8.22729 2.52731 8.25457C2.50003 8.28184 2.47276 8.29093 2.4364 8.29093C2.40003 8.29093 2.37276 8.28184 2.34549 8.25457C2.31822 8.22729 2.30912 8.20002 2.30912 8.16366V2.35457H1.35458V9.73639H7.14549V9.00911C7.14549 8.97275 7.15458 8.94548 7.18185 8.9182C7.20912 8.89093 7.2364 8.88184 7.27276 8.88184C7.30912 8.88184 7.3364 8.89093 7.36367 8.9182C7.39094 8.94548 7.40003 8.97275 7.40003 9.00911V9.73639H8.35458V9.00911C8.35458 8.97275 8.36367 8.94548 8.39094 8.9182C8.41822 8.89093 8.44549 8.88184 8.48185 8.88184C8.51822 8.88184 8.54549 8.89093 8.57276 8.9182C8.60003 8.94548 8.60912 8.97275 8.60912 9.00911V9.73639H9.95458V8.87275C9.95458 8.83639 9.96367 8.80911 9.99094 8.78184C10.0182 8.75457 10.0455 8.74548 10.0819 8.74548C10.1182 8.74548 10.1455 8.75457 10.1728 8.78184C10.2 8.80911 10.2091 8.83639 10.2091 8.87275V9.87275C10.2091 9.90911 10.2 9.93639 10.1728 9.96366C10.1455 9.99093 10.1182 10 10.0819 10H1.21822C1.18185 10 1.15458 9.99093 1.12731 9.96366C1.10003 9.93639 1.09094 9.90911 1.09094 9.87275V2.22729C1.09094 2.19093 1.10003 2.16366 1.12731 2.13638C1.15458 2.10911 1.18185 2.10002 1.21822 2.10002ZM11.0182 6.28184C10.9455 6.32729 10.8546 6.35457 10.7637 6.38184C10.6728 6.40911 10.5728 6.4182 10.4728 6.4182C10.3728 6.4182 10.2819 6.40911 10.1819 6.38184C10.0819 6.35457 10 6.32729 9.90912 6.28184L9.91821 6.29093C9.85458 6.25457 9.79094 6.22729 9.71822 6.20911C9.64549 6.19093 9.57276 6.18184 9.49094 6.18184C9.40912 6.18184 9.32731 6.19093 9.25458 6.20911C9.18185 6.22729 9.10912 6.25457 9.04549 6.29093H9.05458C8.97276 6.33638 8.88185 6.36366 8.79094 6.38184C8.70003 6.40002 8.60003 6.40911 8.50003 6.40911C8.40003 6.40911 8.30003 6.40002 8.20912 6.37275C8.11822 6.34548 8.02731 6.3182 7.9364 6.27275L7.94549 6.28184C7.88185 6.24548 7.81821 6.2182 7.74549 6.20002C7.67276 6.18184 7.59094 6.17275 7.50912 6.17275H7.27276L7.44549 6.34548C7.45458 6.35457 7.46367 6.37275 7.47276 6.38184C7.48185 6.40002 7.48185 6.4182 7.48185 6.43639C7.48185 6.45457 7.48185 6.46366 7.47276 6.48184C7.46367 6.50002 7.46367 6.50911 7.44549 6.52729C7.42731 6.53639 7.41822 6.54548 7.40003 6.55457C7.38185 6.56366 7.37276 6.56366 7.35458 6.56366C7.3364 6.56366 7.31822 6.56366 7.30003 6.55457C7.28185 6.54548 7.27276 6.53639 7.26367 6.52729L6.86367 6.12729C6.84549 6.1182 6.8364 6.10002 6.8364 6.09093C6.82731 6.07275 6.82731 6.05457 6.82731 6.03639C6.82731 6.0182 6.82731 6.00002 6.8364 5.99093C6.84549 5.97275 6.85458 5.95457 6.86367 5.94548L7.26367 5.54548C7.27276 5.53639 7.29094 5.52729 7.30003 5.5182C7.31822 5.50911 7.3364 5.50911 7.35458 5.50911C7.37276 5.50911 7.38185 5.50911 7.40003 5.5182C7.41822 5.52729 7.42731 5.53639 7.44549 5.54548C7.45458 5.55457 7.46367 5.57275 7.47276 5.59093C7.48185 5.60911 7.48185 5.62729 7.48185 5.63639C7.48185 5.65457 7.48185 5.67275 7.47276 5.69093C7.46367 5.70911 7.45458 5.7182 7.44549 5.72729L7.27276 5.9182H7.50003C7.60003 5.9182 7.70003 5.92729 7.79094 5.95457C7.88185 5.98184 7.97276 6.00911 8.05458 6.05457L8.04549 6.04548C8.10912 6.08184 8.18185 6.10911 8.25458 6.12729C8.32731 6.14548 8.40003 6.15457 8.48185 6.15457C8.55458 6.15457 8.6364 6.14548 8.70912 6.12729C8.78185 6.10911 8.85458 6.08184 8.91822 6.04548C8.99094 6.00002 9.08185 5.97275 9.17276 5.94548C9.26367 5.9182 9.36367 5.90911 9.46367 5.90911C9.56367 5.90911 9.65458 5.9182 9.75458 5.94548C9.84549 5.97275 9.9364 6.00002 10.0182 6.04548V6.03639C10.0819 6.07275 10.1455 6.10002 10.2182 6.1182C10.2909 6.13639 10.3637 6.14548 10.4455 6.14548C10.5273 6.14548 10.6091 6.13639 10.6819 6.1182C10.7546 6.10002 10.8273 6.07275 10.8909 6.03639H10.8819C10.8909 6.03639 10.9 6.03639 10.9091 6.03639C10.9182 6.03639 10.9273 6.03639 10.9455 6.03639C10.9819 6.03639 11.0091 6.04548 11.0364 6.07275C11.0637 6.10002 11.0728 6.12729 11.0728 6.16366C11.0728 6.17275 11.0728 6.18184 11.0728 6.19093C11.0728 6.20002 11.0728 6.20911 11.0728 6.20911C11.0637 6.22729 11.0546 6.23639 11.0455 6.25457L11.0182 6.28184ZM9.04549 7.89093C8.97276 7.93639 8.88185 7.96366 8.79094 7.99093C8.70003 8.0182 8.60003 8.02729 8.50003 8.02729C8.40003 8.02729 8.30912 8.0182 8.20912 7.99093C8.10912 7.96366 8.02731 7.93639 7.9364 7.89093L7.94549 7.90002C7.88185 7.86366 7.81821 7.83639 7.74549 7.8182C7.67276 7.80002 7.59094 7.79093 7.50912 7.79093H7.27276L7.44549 7.96366C7.45458 7.97275 7.46367 7.99093 7.47276 8.00002C7.48185 8.0182 7.48185 8.03639 7.48185 8.05457C7.48185 8.07275 7.48185 8.09093 7.47276 8.10911C7.46367 8.12729 7.45458 8.13638 7.44549 8.14548C7.4364 8.15457 7.41822 8.16366 7.40912 8.17275C7.39094 8.18184 7.37276 8.18184 7.35458 8.18184C7.3364 8.18184 7.31822 8.18184 7.30003 8.17275C7.28185 8.16366 7.27276 8.15457 7.26367 8.14548L6.86367 7.74548C6.85458 7.73638 6.84549 7.7182 6.8364 7.70002C6.82731 7.68184 6.82731 7.66366 6.82731 7.65457C6.82731 7.63638 6.82731 7.6182 6.8364 7.60002C6.84549 7.58184 6.85458 7.57275 6.86367 7.56366L7.26367 7.16366C7.27276 7.15457 7.29094 7.14548 7.30003 7.13639C7.31822 7.12729 7.3364 7.12729 7.35458 7.12729C7.39094 7.12729 7.41822 7.13639 7.44549 7.16366C7.47276 7.19093 7.48185 7.2182 7.48185 7.25457C7.48185 7.27275 7.48185 7.29093 7.47276 7.30002C7.46367 7.3182 7.45458 7.33639 7.44549 7.34548L7.27276 7.5182H7.50003C7.60003 7.5182 7.70003 7.52729 7.79094 7.55457C7.88185 7.58184 7.97276 7.60911 8.06367 7.65457L8.05458 7.64548C8.11822 7.68184 8.18185 7.70911 8.25458 7.72729C8.32731 7.74548 8.40003 7.75457 8.48185 7.75457C8.56367 7.75457 8.64549 7.74548 8.71822 7.72729C8.79094 7.70911 8.86367 7.68184 8.92731 7.64548H8.91822C9.00003 7.60002 9.09094 7.57275 9.18185 7.54548C9.27276 7.5182 9.37276 7.50911 9.47276 7.50911C9.57276 7.50911 9.67276 7.5182 9.76367 7.54548C9.85458 7.57275 9.94549 7.60002 10.0273 7.64548L10.0182 7.63639C10.0819 7.67275 10.1455 7.70002 10.2182 7.7182C10.2909 7.73639 10.3728 7.74548 10.4546 7.74548C10.5273 7.74548 10.6091 7.73639 10.6819 7.7182C10.7546 7.70002 10.8273 7.67275 10.8909 7.63639H10.8819C10.8909 7.62729 10.9 7.62729 10.9091 7.62729H10.9364H10.9637H10.9819C11.0091 7.63639 11.0364 7.65457 11.0546 7.67275C11.0728 7.70002 11.0819 7.7182 11.0819 7.74548C11.0819 7.77275 11.0728 7.79093 11.0637 7.8182C11.0546 7.83639 11.0364 7.85457 11.0182 7.87275C10.9364 7.9182 10.8455 7.94548 10.7546 7.97275C10.6637 8.00002 10.5637 8.00911 10.4637 8.00911C10.3637 8.00911 10.2637 8.00002 10.1728 7.97275C10.0819 7.94548 9.99094 7.9182 9.90912 7.87275L9.91821 7.88184C9.85458 7.84548 9.78185 7.8182 9.70912 7.80002C9.6364 7.78184 9.56367 7.77275 9.48185 7.77275C9.40003 7.77275 9.31822 7.78184 9.24549 7.80002C9.17276 7.82729 9.10003 7.85457 9.04549 7.89093ZM11.0182 4.67275C10.9364 4.7182 10.8455 4.75457 10.7546 4.78184C10.6637 4.80911 10.5637 4.8182 10.4637 4.8182C10.3637 4.8182 10.2728 4.80911 10.1728 4.78184C10.0819 4.75457 9.99094 4.7182 9.90003 4.68184H9.90912C9.84549 4.65457 9.78185 4.62729 9.70912 4.60911C9.6364 4.59093 9.56367 4.58184 9.48185 4.58184C9.40003 4.58184 9.31822 4.59093 9.24549 4.60911C9.17276 4.62729 9.10003 4.65457 9.0364 4.69093L9.04549 4.68184C8.96367 4.72729 8.87276 4.75457 8.78185 4.78184C8.69094 4.80911 8.59094 4.8182 8.49094 4.8182C8.39094 4.8182 8.29094 4.80911 8.20003 4.78184C8.10912 4.75457 8.01822 4.72729 7.92731 4.68184H7.9364C7.87276 4.65457 7.80912 4.62729 7.7364 4.60911C7.66367 4.59093 7.58185 4.58184 7.50003 4.58184H7.27276L7.4364 4.74548C7.45458 4.76366 7.46367 4.77275 7.46367 4.79093C7.47276 4.80911 7.47276 4.8182 7.47276 4.83639C7.47276 4.85457 7.47276 4.87275 7.46367 4.89093C7.45458 4.90911 7.44549 4.9182 7.4364 4.92729C7.42731 4.94548 7.40912 4.95457 7.40003 4.95457C7.39094 4.95457 7.36367 4.96366 7.34549 4.96366C7.32731 4.96366 7.31822 4.96366 7.30003 4.95457C7.28185 4.94548 7.27276 4.93639 7.25458 4.92729L6.87276 4.53639C6.86367 4.52729 6.85458 4.50911 6.84549 4.49093C6.8364 4.47275 6.8364 4.45457 6.8364 4.43638C6.8364 4.4182 6.8364 4.40002 6.84549 4.38184C6.85458 4.36366 6.86367 4.35457 6.87276 4.34548L7.26367 3.94548C7.27276 3.93639 7.29094 3.92729 7.30003 3.9182C7.30912 3.90911 7.32731 3.90911 7.34549 3.90911C7.36367 3.90911 7.38185 3.90911 7.40003 3.9182C7.41822 3.92729 7.42731 3.93639 7.4364 3.94548C7.45458 3.96366 7.46367 3.97275 7.46367 3.99093C7.47276 4.00911 7.47276 4.0182 7.47276 4.03639C7.47276 4.05457 7.47276 4.07275 7.46367 4.09093C7.45458 4.10911 7.44549 4.1182 7.4364 4.12729L7.27276 4.30911H7.50003C7.60003 4.30911 7.70003 4.3182 7.79094 4.34548C7.88185 4.37275 7.97276 4.40002 8.05458 4.45457V4.44548C8.11822 4.48184 8.18185 4.50911 8.25458 4.52729C8.32731 4.54548 8.40003 4.55457 8.48185 4.55457C8.56367 4.55457 8.64549 4.54548 8.71822 4.52729C8.79094 4.50911 8.86367 4.48184 8.91822 4.44548C9.00003 4.40002 9.09094 4.36366 9.18185 4.34548C9.27276 4.3182 9.37276 4.30911 9.47276 4.30911C9.57276 4.30911 9.66367 4.3182 9.76367 4.34548C9.85458 4.37275 9.94549 4.40002 10.0364 4.45457L10.0273 4.44548C10.0909 4.48184 10.1546 4.50911 10.2273 4.52729C10.3 4.54548 10.3728 4.55457 10.4546 4.55457C10.5364 4.55457 10.6182 4.54548 10.6909 4.52729C10.7637 4.50911 10.8364 4.48184 10.9 4.44548H10.8909C10.9 4.43639 10.9091 4.43638 10.9182 4.43638C10.9273 4.43638 10.9364 4.43638 10.9455 4.43638C10.9546 4.43638 10.9546 4.43638 10.9637 4.43638C10.9728 4.43638 10.9819 4.43638 10.9819 4.43638C11 4.44548 11.0091 4.45457 11.0273 4.46366C11.0364 4.47275 11.0546 4.49093 11.0637 4.50911C11.0728 4.5182 11.0728 4.5182 11.0728 4.53639C11.0728 4.54548 11.0728 4.55457 11.0728 4.56366C11.0728 4.57275 11.0728 4.58184 11.0728 4.59093C11.0728 4.60002 11.0728 4.60002 11.0728 4.6182C11.0637 4.63638 11.0637 4.64548 11.0455 4.65457C11.0546 4.65457 11.0364 4.66366 11.0182 4.67275ZM2.34549 9.10911C2.32731 9.10002 2.31822 9.08184 2.31822 9.06366C2.30912 9.04548 2.30912 9.02729 2.30912 9.0182C2.30912 9.00002 2.30912 8.98184 2.31822 8.96366C2.32731 8.94548 2.3364 8.93639 2.34549 8.92729C2.35458 8.9182 2.37276 8.90911 2.38185 8.90002C2.40003 8.89093 2.41822 8.89093 2.4364 8.89093C2.45458 8.89093 2.46367 8.89093 2.48185 8.90002C2.50003 8.90911 2.50912 8.9182 2.52731 8.92729C2.5364 8.93639 2.54549 8.95457 2.55458 8.96366C2.56367 8.98184 2.56367 9.00002 2.56367 9.0182C2.56367 9.05457 2.55458 9.08184 2.52731 9.10911C2.50003 9.13638 2.47276 9.14548 2.4364 9.14548C2.41822 9.14548 2.40912 9.14548 2.39094 9.13639C2.37276 9.12729 2.35458 9.1182 2.34549 9.10911ZM4.77276 9.1182C4.75458 9.10911 4.74549 9.09093 4.74549 9.07275C4.7364 9.05457 4.7364 9.03639 4.7364 9.0182C4.7364 8.98184 4.74549 8.95457 4.77276 8.92729C4.80003 8.90002 4.82731 8.89093 4.86367 8.89093C4.90003 8.89093 4.92731 8.90002 4.95458 8.92729C4.98185 8.95457 4.99094 8.98184 4.99094 9.0182C4.99094 9.03639 4.99094 9.05457 4.98185 9.07275C4.97276 9.09093 4.96367 9.10911 4.95458 9.1182C4.9364 9.12729 4.92731 9.13639 4.90912 9.14548C4.90003 9.15457 4.88185 9.15457 4.85458 9.15457C4.82731 9.15457 4.81822 9.15457 4.80003 9.14548C4.79094 9.13639 4.78185 9.12729 4.77276 9.1182Z" fill="#2D3E50"/>
<mask id="mask0" mask-type="alpha" maskUnits="userSpaceOnUse" x="1" y="2" width="11" height="9">
<path d="M11.1818 2H1V10.0909H11.1818V2Z" fill="white"/>
<path d="M1.21815 2.10001H10.0818C10.1182 2.10001 10.1454 2.1091 10.1727 2.13637C10.2 2.16364 10.2091 2.19092 10.2091 2.22728V3.22728C10.2091 3.26364 10.2 3.29092 10.1727 3.31819C10.1454 3.34546 10.1182 3.35455 10.0818 3.35455C10.0454 3.35455 10.0182 3.34546 9.99088 3.31819C9.96361 3.29092 9.95452 3.26364 9.95452 3.22728V2.36364H8.60906V3.09092C8.60906 3.12728 8.59997 3.15455 8.5727 3.18182C8.54543 3.2091 8.51815 3.21819 8.48179 3.21819C8.44543 3.21819 8.41815 3.2091 8.39088 3.18182C8.36361 3.15455 8.35452 3.12728 8.35452 3.09092V2.36364H7.40906V3.09092C7.40906 3.12728 7.39997 3.15455 7.3727 3.18182C7.34543 3.2091 7.31815 3.21819 7.28179 3.21819C7.24543 3.21819 7.21815 3.2091 7.19088 3.18182C7.16361 3.15455 7.15452 3.12728 7.15452 3.09092V2.36364H6.19997V9.02728C6.19997 9.06364 6.19088 9.09092 6.16361 9.11819C6.13634 9.14546 6.10906 9.15455 6.0727 9.15455C6.03634 9.15455 6.00906 9.14546 5.98179 9.11819C5.95452 9.09092 5.94543 9.06364 5.94543 9.02728V2.35455H4.99997V8.16364C4.99997 8.20001 4.99088 8.22728 4.96361 8.25455C4.93634 8.28183 4.90906 8.29092 4.8727 8.29092C4.83634 8.29092 4.80906 8.28183 4.78179 8.25455C4.75452 8.22728 4.74543 8.20001 4.74543 8.16364V2.35455H3.78179V9.01819C3.78179 9.05455 3.7727 9.08182 3.74543 9.1091C3.71815 9.13637 3.69088 9.14546 3.65452 9.14546C3.61815 9.14546 3.59088 9.13637 3.56361 9.1091C3.53634 9.08182 3.52725 9.05455 3.52725 9.01819V2.35455H2.56361V8.16364C2.56361 8.20001 2.55452 8.22728 2.52724 8.25455C2.49997 8.28183 2.4727 8.29092 2.43634 8.29092C2.39997 8.29092 2.3727 8.28183 2.34543 8.25455C2.31815 8.22728 2.30906 8.20001 2.30906 8.16364V2.35455H1.35452V9.73637H7.14543V9.0091C7.14543 8.97273 7.15452 8.94546 7.18179 8.91819C7.20906 8.89092 7.23634 8.88182 7.2727 8.88182C7.30906 8.88182 7.33634 8.89092 7.36361 8.91819C7.39088 8.94546 7.39997 8.97273 7.39997 9.0091V9.73637H8.35452V9.0091C8.35452 8.97273 8.36361 8.94546 8.39088 8.91819C8.41815 8.89092 8.44543 8.88182 8.48179 8.88182C8.51815 8.88182 8.54543 8.89092 8.5727 8.91819C8.59997 8.94546 8.60906 8.97273 8.60906 9.0091V9.73637H9.95452V8.87273C9.95452 8.83637 9.96361 8.8091 9.99088 8.78183C10.0182 8.75455 10.0454 8.74546 10.0818 8.74546C10.1182 8.74546 10.1454 8.75455 10.1727 8.78183C10.2 8.8091 10.2091 8.83637 10.2091 8.87273V9.87273C10.2091 9.9091 10.2 9.93637 10.1727 9.96364C10.1454 9.99092 10.1182 10 10.0818 10H1.21815C1.18179 10 1.15452 9.99092 1.12724 9.96364C1.09997 9.93637 1.09088 9.9091 1.09088 9.87273V2.22728C1.09088 2.19092 1.09997 2.16364 1.12724 2.13637C1.15452 2.1091 1.18179 2.10001 1.21815 2.10001ZM11.0182 6.28182C10.9454 6.32728 10.8545 6.35455 10.7636 6.38182C10.6727 6.4091 10.5727 6.41819 10.4727 6.41819C10.3727 6.41819 10.2818 6.4091 10.1818 6.38182C10.0818 6.35455 9.99997 6.32728 9.90906 6.28182L9.91815 6.29092C9.85452 6.25455 9.79088 6.22728 9.71815 6.2091C9.64543 6.19092 9.5727 6.18182 9.49088 6.18182C9.40906 6.18182 9.32725 6.19092 9.25452 6.2091C9.18179 6.22728 9.10906 6.25455 9.04543 6.29092H9.05452C8.9727 6.33637 8.88179 6.36364 8.79088 6.38182C8.69997 6.40001 8.59997 6.4091 8.49997 6.4091C8.39997 6.4091 8.29997 6.40001 8.20906 6.37273C8.11815 6.34546 8.02725 6.31819 7.93634 6.27273L7.94543 6.28182C7.88179 6.24546 7.81815 6.21819 7.74543 6.20001C7.6727 6.18182 7.59088 6.17273 7.50906 6.17273H7.2727L7.44543 6.34546C7.45452 6.35455 7.46361 6.37273 7.4727 6.38182C7.48179 6.40001 7.48179 6.41819 7.48179 6.43637C7.48179 6.45455 7.48179 6.46364 7.4727 6.48183C7.46361 6.50001 7.46361 6.5091 7.44543 6.52728C7.42725 6.53637 7.41815 6.54546 7.39997 6.55455C7.38179 6.56364 7.3727 6.56364 7.35452 6.56364C7.33634 6.56364 7.31815 6.56364 7.29997 6.55455C7.28179 6.54546 7.2727 6.53637 7.26361 6.52728L6.86361 6.12728C6.84543 6.11819 6.83634 6.10001 6.83634 6.09092C6.82724 6.07273 6.82725 6.05455 6.82725 6.03637C6.82725 6.01819 6.82724 6.00001 6.83634 5.99092C6.84543 5.97273 6.85452 5.95455 6.86361 5.94546L7.26361 5.54546C7.2727 5.53637 7.29088 5.52728 7.29997 5.51819C7.31815 5.5091 7.33634 5.5091 7.35452 5.5091C7.3727 5.5091 7.38179 5.5091 7.39997 5.51819C7.41815 5.52728 7.42725 5.53637 7.44543 5.54546C7.45452 5.55455 7.46361 5.57273 7.4727 5.59092C7.48179 5.6091 7.48179 5.62728 7.48179 5.63637C7.48179 5.65455 7.48179 5.67273 7.4727 5.69092C7.46361 5.7091 7.45452 5.71819 7.44543 5.72728L7.2727 5.91819H7.49997C7.59997 5.91819 7.69997 5.92728 7.79088 5.95455C7.88179 5.98182 7.9727 6.0091 8.05452 6.05455L8.04543 6.04546C8.10906 6.08182 8.18179 6.1091 8.25452 6.12728C8.32725 6.14546 8.39997 6.15455 8.48179 6.15455C8.55452 6.15455 8.63634 6.14546 8.70906 6.12728C8.78179 6.1091 8.85452 6.08182 8.91815 6.04546C8.99088 6.00001 9.08179 5.97273 9.1727 5.94546C9.26361 5.91819 9.36361 5.9091 9.46361 5.9091C9.56361 5.9091 9.65452 5.91819 9.75452 5.94546C9.84543 5.97273 9.93634 6.00001 10.0182 6.04546V6.03637C10.0818 6.07273 10.1454 6.10001 10.2182 6.11819C10.2909 6.13637 10.3636 6.14546 10.4454 6.14546C10.5272 6.14546 10.6091 6.13637 10.6818 6.11819C10.7545 6.10001 10.8272 6.07273 10.8909 6.03637H10.8818C10.8909 6.03637 10.9 6.03637 10.9091 6.03637C10.9182 6.03637 10.9272 6.03637 10.9454 6.03637C10.9818 6.03637 11.0091 6.04546 11.0363 6.07273C11.0636 6.10001 11.0727 6.12728 11.0727 6.16364C11.0727 6.17273 11.0727 6.18182 11.0727 6.19092C11.0727 6.20001 11.0727 6.2091 11.0727 6.2091C11.0636 6.22728 11.0545 6.23637 11.0454 6.25455L11.0182 6.28182ZM9.04543 7.89092C8.9727 7.93637 8.88179 7.96364 8.79088 7.99092C8.69997 8.01819 8.59997 8.02728 8.49997 8.02728C8.39997 8.02728 8.30906 8.01819 8.20906 7.99092C8.10906 7.96364 8.02725 7.93637 7.93634 7.89092L7.94543 7.90001C7.88179 7.86364 7.81815 7.83637 7.74543 7.81819C7.6727 7.80001 7.59088 7.79092 7.50906 7.79092H7.2727L7.44543 7.96364C7.45452 7.97273 7.46361 7.99092 7.4727 8.00001C7.48179 8.01819 7.48179 8.03637 7.48179 8.05455C7.48179 8.07273 7.48179 8.09092 7.4727 8.1091C7.46361 8.12728 7.45452 8.13637 7.44543 8.14546C7.43634 8.15455 7.41815 8.16364 7.40906 8.17273C7.39088 8.18183 7.3727 8.18183 7.35452 8.18183C7.33634 8.18183 7.31815 8.18183 7.29997 8.17273C7.28179 8.16364 7.2727 8.15455 7.26361 8.14546L6.86361 7.74546C6.85452 7.73637 6.84543 7.71819 6.83634 7.70001C6.82724 7.68182 6.82725 7.66364 6.82725 7.65455C6.82725 7.63637 6.82724 7.61819 6.83634 7.60001C6.84543 7.58182 6.85452 7.57273 6.86361 7.56364L7.26361 7.16364C7.2727 7.15455 7.29088 7.14546 7.29997 7.13637C7.31815 7.12728 7.33634 7.12728 7.35452 7.12728C7.39088 7.12728 7.41815 7.13637 7.44543 7.16364C7.4727 7.19092 7.48179 7.21819 7.48179 7.25455C7.48179 7.27273 7.48179 7.29092 7.4727 7.30001C7.46361 7.31819 7.45452 7.33637 7.44543 7.34546L7.2727 7.51819H7.49997C7.59997 7.51819 7.69997 7.52728 7.79088 7.55455C7.88179 7.58182 7.9727 7.6091 8.06361 7.65455L8.05452 7.64546C8.11815 7.68182 8.18179 7.7091 8.25452 7.72728C8.32725 7.74546 8.39997 7.75455 8.48179 7.75455C8.56361 7.75455 8.64543 7.74546 8.71815 7.72728C8.79088 7.7091 8.86361 7.68182 8.92725 7.64546H8.91815C8.99997 7.60001 9.09088 7.57273 9.18179 7.54546C9.2727 7.51819 9.3727 7.5091 9.4727 7.5091C9.5727 7.5091 9.6727 7.51819 9.76361 7.54546C9.85452 7.57273 9.94543 7.60001 10.0272 7.64546L10.0182 7.63637C10.0818 7.67273 10.1454 7.70001 10.2182 7.71819C10.2909 7.73637 10.3727 7.74546 10.4545 7.74546C10.5272 7.74546 10.6091 7.73637 10.6818 7.71819C10.7545 7.70001 10.8272 7.67273 10.8909 7.63637H10.8818C10.8909 7.62728 10.9 7.62728 10.9091 7.62728H10.9363H10.9636H10.9818C11.0091 7.63637 11.0363 7.65455 11.0545 7.67273C11.0727 7.70001 11.0818 7.71819 11.0818 7.74546C11.0818 7.77273 11.0727 7.79092 11.0636 7.81819C11.0545 7.83637 11.0363 7.85455 11.0182 7.87273C10.9363 7.91819 10.8454 7.94546 10.7545 7.97273C10.6636 8.00001 10.5636 8.0091 10.4636 8.0091C10.3636 8.0091 10.2636 8.00001 10.1727 7.97273C10.0818 7.94546 9.99088 7.91819 9.90906 7.87273L9.91815 7.88182C9.85452 7.84546 9.78179 7.81819 9.70906 7.80001C9.63634 7.78183 9.56361 7.77273 9.48179 7.77273C9.39997 7.77273 9.31815 7.78183 9.24543 7.80001C9.1727 7.82728 9.09997 7.85455 9.04543 7.89092ZM11.0182 4.67273C10.9363 4.71819 10.8454 4.75455 10.7545 4.78182C10.6636 4.8091 10.5636 4.81819 10.4636 4.81819C10.3636 4.81819 10.2727 4.8091 10.1727 4.78182C10.0818 4.75455 9.99088 4.71819 9.89997 4.68182H9.90906C9.84543 4.65455 9.78179 4.62728 9.70906 4.6091C9.63634 4.59092 9.56361 4.58182 9.48179 4.58182C9.39997 4.58182 9.31815 4.59092 9.24543 4.6091C9.1727 4.62728 9.09997 4.65455 9.03634 4.69092L9.04543 4.68182C8.96361 4.72728 8.8727 4.75455 8.78179 4.78182C8.69088 4.8091 8.59088 4.81819 8.49088 4.81819C8.39088 4.81819 8.29088 4.8091 8.19997 4.78182C8.10906 4.75455 8.01815 4.72728 7.92725 4.68182H7.93634C7.8727 4.65455 7.80906 4.62728 7.73634 4.6091C7.66361 4.59092 7.58179 4.58182 7.49997 4.58182H7.2727L7.43634 4.74546C7.45452 4.76364 7.46361 4.77273 7.46361 4.79092C7.4727 4.8091 7.4727 4.81819 7.4727 4.83637C7.4727 4.85455 7.4727 4.87273 7.46361 4.89092C7.45452 4.9091 7.44543 4.91819 7.43634 4.92728C7.42725 4.94546 7.40906 4.95455 7.39997 4.95455C7.39088 4.95455 7.36361 4.96364 7.34543 4.96364C7.32725 4.96364 7.31815 4.96364 7.29997 4.95455C7.28179 4.94546 7.2727 4.93637 7.25452 4.92728L6.8727 4.53637C6.86361 4.52728 6.85452 4.5091 6.84543 4.49092C6.83634 4.47273 6.83634 4.45455 6.83634 4.43637C6.83634 4.41819 6.83634 4.40001 6.84543 4.38182C6.85452 4.36364 6.86361 4.35455 6.8727 4.34546L7.26361 3.94546C7.2727 3.93637 7.29088 3.92728 7.29997 3.91819C7.30906 3.9091 7.32725 3.9091 7.34543 3.9091C7.36361 3.9091 7.38179 3.9091 7.39997 3.91819C7.41815 3.92728 7.42725 3.93637 7.43634 3.94546C7.45452 3.96364 7.46361 3.97273 7.46361 3.99092C7.4727 4.0091 7.4727 4.01819 7.4727 4.03637C7.4727 4.05455 7.4727 4.07273 7.46361 4.09092C7.45452 4.1091 7.44543 4.11819 7.43634 4.12728L7.2727 4.3091H7.49997C7.59997 4.3091 7.69997 4.31819 7.79088 4.34546C7.88179 4.37273 7.9727 4.40001 8.05452 4.45455V4.44546C8.11815 4.48182 8.18179 4.5091 8.25452 4.52728C8.32725 4.54546 8.39997 4.55455 8.48179 4.55455C8.56361 4.55455 8.64543 4.54546 8.71815 4.52728C8.79088 4.5091 8.86361 4.48182 8.91815 4.44546C8.99997 4.40001 9.09088 4.36364 9.18179 4.34546C9.2727 4.31819 9.3727 4.3091 9.4727 4.3091C9.5727 4.3091 9.66361 4.31819 9.76361 4.34546C9.85452 4.37273 9.94543 4.40001 10.0363 4.45455L10.0272 4.44546C10.0909 4.48182 10.1545 4.5091 10.2272 4.52728C10.3 4.54546 10.3727 4.55455 10.4545 4.55455C10.5363 4.55455 10.6182 4.54546 10.6909 4.52728C10.7636 4.5091 10.8363 4.48182 10.9 4.44546H10.8909C10.9 4.43637 10.9091 4.43637 10.9182 4.43637C10.9272 4.43637 10.9363 4.43637 10.9454 4.43637C10.9545 4.43637 10.9545 4.43637 10.9636 4.43637C10.9727 4.43637 10.9818 4.43637 10.9818 4.43637C11 4.44546 11.0091 4.45455 11.0272 4.46364C11.0363 4.47273 11.0545 4.49092 11.0636 4.5091C11.0727 4.51819 11.0727 4.51819 11.0727 4.53637C11.0727 4.54546 11.0727 4.55455 11.0727 4.56364C11.0727 4.57273 11.0727 4.58182 11.0727 4.59092C11.0727 4.60001 11.0727 4.60001 11.0727 4.61819C11.0636 4.63637 11.0636 4.64546 11.0454 4.65455C11.0545 4.65455 11.0363 4.66364 11.0182 4.67273ZM2.34543 9.1091C2.32724 9.10001 2.31815 9.08182 2.31815 9.06364C2.30906 9.04546 2.30906 9.02728 2.30906 9.01819C2.30906 9.00001 2.30906 8.98182 2.31815 8.96364C2.32724 8.94546 2.33634 8.93637 2.34543 8.92728C2.35452 8.91819 2.3727 8.9091 2.38179 8.90001C2.39997 8.89092 2.41815 8.89092 2.43634 8.89092C2.45452 8.89092 2.46361 8.89092 2.48179 8.90001C2.49997 8.9091 2.50906 8.91819 2.52724 8.92728C2.53634 8.93637 2.54543 8.95455 2.55452 8.96364C2.56361 8.98182 2.56361 9.00001 2.56361 9.01819C2.56361 9.05455 2.55452 9.08182 2.52724 9.1091C2.49997 9.13637 2.4727 9.14546 2.43634 9.14546C2.41815 9.14546 2.40906 9.14546 2.39088 9.13637C2.3727 9.12728 2.35452 9.11819 2.34543 9.1091ZM4.7727 9.11819C4.75452 9.1091 4.74543 9.09092 4.74543 9.07273C4.73634 9.05455 4.73634 9.03637 4.73634 9.01819C4.73634 8.98182 4.74543 8.95455 4.7727 8.92728C4.79997 8.90001 4.82724 8.89092 4.86361 8.89092C4.89997 8.89092 4.92725 8.90001 4.95452 8.92728C4.98179 8.95455 4.99088 8.98182 4.99088 9.01819C4.99088 9.03637 4.99088 9.05455 4.98179 9.07273C4.9727 9.09092 4.96361 9.1091 4.95452 9.11819C4.93634 9.12728 4.92725 9.13637 4.90906 9.14546C4.89997 9.15455 4.88179 9.15455 4.85452 9.15455C4.82725 9.15455 4.81815 9.15455 4.79997 9.14546C4.79088 9.13637 4.78179 9.12728 4.7727 9.11819Z" fill="black"/>
</mask>
<g mask="url(#mask0)">
<path d="M10.0818 10.0909H1.21818C1.15455 10.0909 1.1 10.0727 1.06364 10.0273C1.01818 9.98184 1 9.92729 1 9.87275V2.22729C1 2.16365 1.01818 2.10911 1.06364 2.07275C1.10909 2.02729 1.16364 2.00911 1.21818 2.00911H10.0818C10.1455 2.00911 10.2 2.02729 10.2364 2.07275C10.2818 2.1182 10.3 2.17275 10.3 2.22729V3.22729C10.3 3.29093 10.2818 3.34547 10.2364 3.38184C10.1545 3.46365 10.0091 3.46365 9.92727 3.38184C9.88182 3.33638 9.86364 3.28184 9.86364 3.22729V2.45456H8.7V3.09093C8.7 3.14547 8.68182 3.20002 8.64545 3.24547C8.56364 3.33638 8.41818 3.33638 8.33636 3.24547C8.29091 3.20002 8.27273 3.14547 8.27273 3.09093V2.45456H7.5V3.09093C7.5 3.15456 7.48182 3.20911 7.43636 3.24547C7.35455 3.32729 7.20909 3.32729 7.12727 3.24547C7.08182 3.20002 7.06364 3.14547 7.06364 3.09093V2.45456H6.3V9.02729C6.3 9.09093 6.28182 9.14547 6.23636 9.18184C6.15455 9.26366 6.00909 9.26366 5.92727 9.18184C5.88182 9.13638 5.86364 9.08184 5.86364 9.02729V2.44547H5.09091V8.16366C5.09091 8.22729 5.07273 8.28184 5.02727 8.3182C4.94545 8.40002 4.8 8.40002 4.71818 8.3182C4.67273 8.27275 4.65455 8.2182 4.65455 8.16366V2.44547H3.88182V9.0182C3.88182 9.08184 3.86364 9.13638 3.81818 9.17275C3.73636 9.25456 3.59091 9.25456 3.50909 9.17275C3.46364 9.12729 3.44545 9.07275 3.44545 9.0182V2.44547H2.67273V8.16366C2.67273 8.22729 2.65455 8.28184 2.60909 8.3182C2.52727 8.40002 2.38182 8.40002 2.3 8.3182C2.25455 8.27275 2.23636 8.2182 2.23636 8.16366V2.44547H1.46364V9.64547H7.07273V9.00911C7.07273 8.94547 7.09091 8.89093 7.13636 8.85456C7.21818 8.77275 7.36364 8.77275 7.44546 8.85456C7.49091 8.90002 7.50909 8.95456 7.50909 9.00911V9.64547H8.28182V9.00911C8.28182 8.94547 8.3 8.89093 8.34546 8.85456C8.42727 8.76366 8.58182 8.77275 8.65455 8.85456C8.69091 8.90002 8.70909 8.94547 8.70909 9.00911V9.64547H9.87273V8.87275C9.87273 8.80911 9.89091 8.75456 9.93636 8.7182C10.0182 8.63638 10.1636 8.63638 10.2455 8.7182C10.2909 8.76366 10.3091 8.8182 10.3091 8.87275V9.87275C10.3091 9.93638 10.2909 9.99093 10.2455 10.0273C10.2 10.0727 10.1455 10.0909 10.0818 10.0909ZM1.21818 2.19093C1.20909 2.19093 1.2 2.19093 1.19091 2.20002C1.18182 2.20911 1.18182 2.2182 1.18182 2.22729V9.87275C1.18182 9.88184 1.18182 9.89093 1.19091 9.90002C1.2 9.90911 1.20909 9.90911 1.21818 9.90911H10.0818C10.0909 9.90911 10.1 9.90911 10.1091 9.90002C10.1182 9.89093 10.1182 9.88184 10.1182 9.87275V8.87275C10.1182 8.86366 10.1182 8.85456 10.1091 8.84547C10.0909 8.82729 10.0727 8.82729 10.0545 8.84547C10.0455 8.85456 10.0455 8.86366 10.0455 8.87275V9.82729H8.51818V9.00911C8.51818 8.99093 8.50909 8.98184 8.50909 8.98184C8.5 8.97275 8.48182 8.97275 8.46364 8.98184C8.45455 8.99093 8.45455 9.00002 8.45455 9.00911V9.82729H7.31818V9.00911C7.31818 9.00002 7.31818 8.99093 7.30909 8.98184C7.29091 8.96366 7.27273 8.96366 7.25455 8.98184C7.24545 8.99093 7.24545 9.00002 7.24545 9.00911V9.82729H1.26364V2.26365H2.4V8.16366C2.4 8.17275 2.4 8.18184 2.40909 8.19093C2.42727 8.20911 2.44545 8.20911 2.46364 8.19093C2.47273 8.18184 2.47273 8.17275 2.47273 8.16366V2.26365H3.60909V9.0182C3.60909 9.02729 3.60909 9.03638 3.61818 9.04547C3.63636 9.06366 3.65455 9.06366 3.67273 9.04547C3.68182 9.03638 3.68182 9.02729 3.68182 9.0182V2.26365H4.81818V8.16366C4.81818 8.17275 4.81818 8.18184 4.82727 8.19093C4.84545 8.20911 4.86364 8.20911 4.88182 8.19093C4.89091 8.18184 4.89091 8.17275 4.89091 8.16366V2.26365H6.01818V9.0182C6.01818 9.02729 6.01818 9.03638 6.02727 9.04547C6.04545 9.06366 6.06364 9.06366 6.08182 9.04547C6.09091 9.03638 6.09091 9.02729 6.09091 9.0182V2.26365H7.21818V3.08184C7.21818 3.09093 7.21818 3.10002 7.22727 3.10911C7.24545 3.12729 7.26364 3.12729 7.28182 3.10911C7.29091 3.10002 7.29091 3.09093 7.29091 3.08184V2.26365H8.42727V3.08184C8.42727 3.09093 8.42727 3.10002 8.43636 3.10911C8.45455 3.12729 8.47273 3.12729 8.48182 3.10911C8.49091 3.10002 8.49091 3.09093 8.49091 3.07275V2.25456H10.0182V3.20911C10.0182 3.2182 10.0182 3.22729 10.0273 3.23638C10.0455 3.25456 10.0636 3.25456 10.0818 3.23638C10.0909 3.22729 10.0909 3.2182 10.0909 3.20911V2.20911C10.0909 2.20002 10.0909 2.19093 10.0818 2.18184C10.0727 2.17275 10.0636 2.17275 10.0545 2.17275H1.21818V2.19093ZM4.86364 9.24547C4.82727 9.24547 4.8 9.23638 4.77273 9.22729C4.75455 9.2182 4.73636 9.20002 4.71818 9.19093C4.69091 9.17275 4.66364 9.13638 4.65455 9.10002C4.64545 9.07275 4.64545 9.04547 4.64545 9.02729C4.64545 8.96366 4.66364 8.90911 4.70909 8.87275C4.79091 8.79093 4.93636 8.79093 5.02727 8.87275C5.07273 8.9182 5.09091 8.97275 5.09091 9.02729C5.09091 9.05456 5.08182 9.08184 5.07273 9.1182C5.06364 9.14547 5.04545 9.17275 5.02727 9.19093L5.01818 9.20002C5 9.20911 4.98182 9.2182 4.97273 9.22729C4.92727 9.23638 4.9 9.24547 4.86364 9.24547ZM4.82727 9.04547L4.83636 9.05456C4.83636 9.05456 4.84545 9.06365 4.85455 9.06365C4.85455 9.06365 4.85455 9.06365 4.86364 9.06365C4.87273 9.06365 4.88182 9.05456 4.89091 9.04547C4.89091 9.04547 4.89091 9.03638 4.9 9.03638C4.9 9.02729 4.9 9.0182 4.9 9.0182C4.9 9.00911 4.9 9.00002 4.89091 8.99093C4.87273 8.97275 4.85455 8.97275 4.83636 8.99093C4.82727 9.00002 4.81818 9.00911 4.81818 9.0182C4.81818 9.02729 4.81818 9.03638 4.82727 9.04547ZM2.43636 9.23638C2.4 9.23638 2.38182 9.23638 2.35455 9.22729C2.32727 9.2182 2.30909 9.20911 2.29091 9.19093C2.26364 9.17275 2.23636 9.13638 2.22727 9.10002C2.21818 9.07275 2.21818 9.04547 2.21818 9.02729C2.21818 9.00002 2.21818 8.97275 2.22727 8.94547C2.23636 8.9182 2.25455 8.88184 2.29091 8.86366C2.30909 8.84547 2.32727 8.83638 2.34545 8.82729C2.4 8.80002 2.46364 8.80002 2.52727 8.82729C2.54545 8.83638 2.56364 8.84547 2.58182 8.86366L2.6 8.87275C2.61818 8.89093 2.63636 8.90911 2.64545 8.93638C2.66364 8.96366 2.66364 9.00002 2.66364 9.02729C2.66364 9.09093 2.63636 9.14547 2.59091 9.18184C2.55455 9.20911 2.5 9.23638 2.43636 9.23638ZM2.40909 9.04547C2.41818 9.04547 2.42727 9.05456 2.42727 9.05456C2.44545 9.05456 2.45455 9.05456 2.46364 9.04547C2.47273 9.03638 2.47273 9.03638 2.47273 9.02729C2.47273 9.0182 2.47273 9.0182 2.47273 9.0182C2.47273 9.0182 2.47273 9.00911 2.46364 9.00911C2.45455 9.00002 2.44545 9.00002 2.43636 8.99093C2.41818 8.99093 2.41818 8.99093 2.41818 8.99093C2.40909 8.99093 2.40909 9.00002 2.4 9.00002C2.4 9.00002 2.4 9.00911 2.4 9.0182C2.4 9.02729 2.4 9.02729 2.40909 9.04547ZM7.35455 8.27275C7.31818 8.27275 7.29091 8.26366 7.26364 8.25456C7.23636 8.24547 7.21818 8.22729 7.2 8.20911L6.8 7.80911C6.78182 7.79093 6.76364 7.76366 6.75455 7.73638C6.74545 7.70911 6.73636 7.68184 6.73636 7.65456C6.73636 7.6182 6.74545 7.59093 6.75455 7.56365C6.76364 7.53638 6.78182 7.5182 6.8 7.50002L7.2 7.10002C7.21818 7.08184 7.23636 7.06365 7.26364 7.05456C7.29091 7.03638 7.32727 7.03638 7.35455 7.03638C7.41818 7.03638 7.47273 7.05456 7.50909 7.10002C7.55455 7.14547 7.57273 7.20002 7.57273 7.25456C7.57273 7.28184 7.56364 7.30911 7.55455 7.33638C7.54545 7.36366 7.52727 7.39093 7.50909 7.40911L7.49091 7.42729H7.5C7.60909 7.42729 7.71818 7.43638 7.81818 7.46365C7.91818 7.49093 8.01818 7.52729 8.10909 7.57275C8.16364 7.60002 8.22727 7.62729 8.29091 7.64547C8.42727 7.68184 8.58182 7.67275 8.70909 7.64547C8.77273 7.62729 8.83636 7.60911 8.89091 7.57275C8.98182 7.52729 9.07273 7.49093 9.17273 7.47275C9.37273 7.42729 9.6 7.42729 9.8 7.47275C9.9 7.50002 9.99091 7.53638 10.0818 7.58184C10.1364 7.60911 10.2 7.63638 10.2636 7.65456C10.3909 7.68184 10.5455 7.69093 10.6818 7.65456C10.7455 7.63638 10.8091 7.6182 10.8636 7.58184C10.8909 7.57275 10.9091 7.56365 10.9364 7.56365H11.0182L11.0364 7.57275C11.0909 7.59093 11.1273 7.6182 11.1545 7.65456C11.1818 7.69093 11.1909 7.73638 11.1909 7.78184C11.1909 7.82729 11.1818 7.86366 11.1545 7.90002C11.1364 7.92729 11.1091 7.95456 11.0818 7.98184L11.0636 7.99093C10.9727 8.03638 10.8818 8.07275 10.7818 8.09093C10.5727 8.14547 10.3545 8.13638 10.1545 8.09093C10.0545 8.06366 9.96364 8.02729 9.88182 7.98184C9.81818 7.94547 9.75455 7.92729 9.69091 7.90911C9.55455 7.87275 9.4 7.88184 9.27273 7.90911C9.20909 7.92729 9.14545 7.94547 9.09091 7.98184C9.00909 8.02729 8.91818 8.06366 8.80909 8.08184C8.60909 8.12729 8.39091 8.13638 8.18182 8.08184C8.08182 8.05456 7.99091 8.0182 7.9 7.98184C7.84545 7.95456 7.79091 7.92729 7.71818 7.90911C7.65455 7.89093 7.58182 7.88184 7.50909 7.88184H7.5L7.51818 7.90002C7.53636 7.9182 7.54545 7.93638 7.56364 7.96365C7.58182 7.99093 7.58182 8.02729 7.58182 8.05456C7.58182 8.08184 7.57273 8.1182 7.56364 8.14547C7.55455 8.17275 7.53636 8.19093 7.51818 8.20911C7.5 8.22729 7.48182 8.24547 7.45455 8.25456C7.41818 8.26366 7.39091 8.27275 7.35455 8.27275ZM7.35455 7.20911C7.34545 7.20911 7.34546 7.20911 7.34546 7.20911C7.33636 7.20911 7.33636 7.2182 7.32727 7.2182L6.92727 7.6182C6.92727 7.6182 6.91818 7.62729 6.91818 7.63638C6.91818 7.63638 6.91818 7.63638 6.91818 7.64547C6.91818 7.64547 6.91818 7.64547 6.91818 7.66366C6.91818 7.67275 6.92727 7.68184 6.92727 7.68184L7.32727 8.08184C7.32727 8.08184 7.33636 8.09093 7.34546 8.09093H7.37273C7.38182 8.09093 7.38182 8.08184 7.39091 8.08184C7.39091 8.08184 7.4 8.07275 7.4 8.06365V8.05456V8.04547C7.4 8.03638 7.39091 8.03638 7.39091 8.02729L7.06364 7.69093H7.50909C7.6 7.69093 7.68182 7.70002 7.76364 7.7182C7.83636 7.73638 7.90909 7.76366 7.97273 7.80002C8.05455 7.83638 8.14545 7.87275 8.22727 7.89093C8.40909 7.93638 8.6 7.93638 8.76364 7.89093C8.85455 7.87275 8.92727 7.83638 9 7.80002C9.07273 7.76366 9.14545 7.72729 9.22727 7.70911C9.38182 7.67275 9.56364 7.67275 9.72727 7.70911C9.80909 7.72729 9.88182 7.75456 9.95455 7.79093C10.0273 7.83638 10.1091 7.86366 10.2 7.88184C10.3727 7.92729 10.5636 7.92729 10.7364 7.88184C10.8182 7.86366 10.9 7.83638 10.9727 7.80002C10.9818 7.79093 10.9909 7.78184 10.9909 7.77275C10.9909 7.77275 11 7.76366 11 7.75456C11 7.74547 11 7.74547 10.9909 7.73638C10.9909 7.73638 10.9909 7.72729 10.9818 7.72729H10.9455C10.8727 7.76366 10.8 7.79093 10.7182 7.80911C10.5545 7.84547 10.3727 7.84547 10.2182 7.80911C10.1364 7.79093 10.0636 7.76366 10 7.72729C9.92727 7.68184 9.84546 7.65456 9.75455 7.63638C9.58182 7.59093 9.38182 7.59093 9.20909 7.63638C9.12727 7.65456 9.04545 7.68184 8.97273 7.7182C8.9 7.75456 8.81818 7.79093 8.73636 7.80911C8.58182 7.84547 8.4 7.84547 8.23636 7.80911C8.15455 7.79093 8.09091 7.76366 8.01818 7.72729C7.93636 7.68184 7.85455 7.65456 7.76364 7.62729C7.67273 7.60911 7.58182 7.59093 7.49091 7.59093H7.04545L7.37273 7.25456C7.37273 7.25456 7.37273 7.25456 7.38182 7.23638C7.38182 7.22729 7.38182 7.22729 7.38182 7.2182C7.38182 7.20911 7.38182 7.20002 7.37273 7.19093C7.37273 7.2182 7.36364 7.20911 7.35455 7.20911ZM7.35455 6.67275C7.31818 6.67275 7.29091 6.66365 7.26364 6.65456C7.23636 6.64547 7.21818 6.62729 7.2 6.60911L6.80909 6.2182C6.78182 6.20002 6.76364 6.17275 6.75455 6.13638C6.74545 6.10911 6.74545 6.08184 6.74545 6.05456C6.74545 6.02729 6.74545 6.00911 6.75455 5.98184C6.76364 5.94547 6.78182 5.9182 6.81818 5.89093L7.20909 5.50002C7.22727 5.48184 7.24545 5.46366 7.27273 5.45456C7.32727 5.42729 7.39091 5.42729 7.45455 5.45456C7.47273 5.46366 7.49091 5.47275 7.50909 5.49093L7.52727 5.50002C7.54545 5.5182 7.56364 5.54547 7.57273 5.57275C7.58182 5.60002 7.59091 5.62729 7.59091 5.65456C7.59091 5.69093 7.58182 5.7182 7.57273 5.74547C7.56364 5.77275 7.54545 5.79093 7.52727 5.80911L7.50909 5.82729H7.51818C7.62727 5.82729 7.73636 5.83638 7.83636 5.86366C7.93636 5.89093 8.02727 5.92729 8.10909 5.97275C8.17273 6.00911 8.22727 6.02729 8.29091 6.04547C8.41818 6.07275 8.56364 6.08184 8.7 6.04547C8.76364 6.02729 8.82727 6.00911 8.89091 5.97275C8.97273 5.92729 9.06364 5.89093 9.17273 5.87275C9.37273 5.82729 9.59091 5.8182 9.8 5.87275C9.85455 5.88184 9.9 5.90002 9.95455 5.9182V5.90002L10.0909 5.97275C10.1455 6.00002 10.2091 6.02729 10.2727 6.04547C10.4091 6.08184 10.5636 6.07275 10.6909 6.04547C10.7545 6.02729 10.8182 6.00911 10.8818 5.97275L10.9182 6.03638V5.96365C10.9364 5.95456 10.9545 5.95456 10.9818 5.95456C11.0364 5.95456 11.0909 5.97275 11.1364 6.00911C11.1818 6.04547 11.2091 6.10002 11.2091 6.16366C11.2091 6.18184 11.2091 6.20002 11.2 6.2182V6.22729L11.1909 6.24547C11.1818 6.27275 11.1636 6.30002 11.1455 6.32729L11.0818 6.39093H11.0545C10.9727 6.42729 10.8909 6.46366 10.8 6.48184C10.6 6.52729 10.3818 6.53638 10.1727 6.48184C10.0727 6.45456 9.97273 6.4182 9.88182 6.37275C9.82727 6.34547 9.77273 6.3182 9.7 6.30002C9.56364 6.26366 9.40909 6.27275 9.28182 6.30002C9.21818 6.3182 9.15455 6.33638 9.1 6.37275C9.00909 6.4182 8.91818 6.45456 8.81818 6.47275C8.61818 6.5182 8.39091 6.5182 8.19091 6.47275C8.09091 6.44547 8 6.4182 7.90909 6.37275C7.85455 6.34547 7.8 6.3182 7.72727 6.30002C7.66364 6.28184 7.59091 6.27275 7.51818 6.27275H7.50909L7.52727 6.29093C7.54545 6.30911 7.56364 6.33638 7.57273 6.36366C7.58182 6.39093 7.58182 6.4182 7.58182 6.44547C7.58182 6.47275 7.58182 6.50002 7.57273 6.5182C7.56364 6.53638 7.55455 6.56366 7.53636 6.58184L7.52727 6.60002L7.50909 6.60911C7.49091 6.6182 7.47273 6.63638 7.45455 6.64547C7.40909 6.66366 7.38182 6.67275 7.35455 6.67275ZM6.91818 6.06365L6.92727 6.07275L7.32727 6.47275C7.32727 6.47275 7.33636 6.48184 7.34546 6.48184C7.34546 6.48184 7.34545 6.48184 7.35455 6.48184C7.36364 6.48184 7.37273 6.47275 7.38182 6.47275V6.46365C7.38182 6.45456 7.38182 6.45456 7.38182 6.44547C7.38182 6.42729 7.38182 6.42729 7.38182 6.4182L7.05455 6.09093H7.5C7.59091 6.09093 7.67273 6.10002 7.75455 6.1182C7.82727 6.13638 7.9 6.16365 7.96364 6.20002C8.04545 6.23638 8.12727 6.27275 8.21818 6.29093C8.39091 6.33638 8.59091 6.33638 8.76364 6.29093C8.84545 6.27275 8.91818 6.24547 8.99091 6.20911C9.06364 6.17275 9.14545 6.13638 9.22727 6.1182C9.38182 6.08184 9.56364 6.08184 9.72727 6.1182C9.80909 6.13638 9.87273 6.16365 9.94545 6.20002C10.0273 6.24547 10.1091 6.27275 10.2 6.30002C10.3818 6.34547 10.5727 6.34547 10.7364 6.30002C10.8273 6.28184 10.9 6.24547 10.9727 6.20911L10.9909 6.19093C10.9909 6.18184 10.9909 6.17275 11 6.16366C11 6.15456 11 6.14547 10.9909 6.14547C10.9818 6.13638 10.9636 6.13638 10.9455 6.13638C10.9455 6.13638 10.9364 6.13638 10.9273 6.13638C10.8545 6.17275 10.7818 6.20002 10.7091 6.2182C10.5545 6.25456 10.3727 6.25456 10.2091 6.2182C10.1818 6.20911 10.1455 6.20002 10.1182 6.19093V6.20911L9.98182 6.13638C9.90909 6.09093 9.82727 6.06366 9.73636 6.04547C9.55455 6.00002 9.36364 6.00002 9.2 6.04547C9.10909 6.06366 9.03636 6.10002 8.96364 6.13638C8.89091 6.17275 8.80909 6.20911 8.72727 6.22729C8.56364 6.26366 8.38182 6.26366 8.22727 6.22729C8.15455 6.20911 8.08182 6.18184 8.00909 6.14547C7.93636 6.10002 7.85455 6.07275 7.76364 6.05456C7.67273 6.03638 7.58182 6.0182 7.49091 6.0182H7.04545L7.37273 5.68184C7.37273 5.68184 7.38182 5.67275 7.38182 5.66365C7.38182 5.66365 7.38182 5.66365 7.38182 5.65456C7.38182 5.65456 7.38182 5.64547 7.38182 5.63638C7.38182 5.63638 7.38182 5.62729 7.37273 5.62729C7.36364 5.6182 7.35455 5.6182 7.34546 5.60911C7.32727 5.60911 7.32727 5.60911 7.32727 5.60911C7.31818 5.60911 7.31818 5.6182 7.30909 5.6182L6.9 6.02729C6.9 6.03638 6.9 6.04547 6.9 6.04547C6.91818 6.05456 6.91818 6.06365 6.91818 6.06365ZM7.33636 5.05456C7.30909 5.05456 7.28182 5.05456 7.26364 5.04547C7.23636 5.03638 7.20909 5.0182 7.18182 4.99093L6.8 4.60002C6.78182 4.58184 6.76364 4.55456 6.75455 4.52729C6.74545 4.50002 6.73636 4.47275 6.73636 4.44547C6.73636 4.40911 6.74545 4.38184 6.75455 4.35456C6.76364 4.32729 6.78182 4.30911 6.8 4.29093L7.19091 3.89093C7.20909 3.87275 7.22727 3.85456 7.25455 3.84547C7.31818 3.8182 7.38182 3.8182 7.43636 3.84547C7.46364 3.85456 7.48182 3.87275 7.5 3.89093C7.52727 3.9182 7.54545 3.94547 7.55455 3.97275C7.56364 4.00002 7.56364 4.0182 7.56364 4.04547C7.56364 4.07275 7.56364 4.10002 7.55455 4.12729C7.54545 4.15456 7.52727 4.18184 7.5 4.20911L7.49091 4.2182H7.50909C7.61818 4.2182 7.72727 4.22729 7.82727 4.25456C7.88182 4.26365 7.92727 4.28184 7.98182 4.30002V4.28184L8.11818 4.35456C8.17273 4.38184 8.23636 4.40911 8.3 4.42729C8.43636 4.46365 8.58182 4.46365 8.71818 4.42729C8.79091 4.40911 8.84545 4.38184 8.90909 4.35456C8.99091 4.30911 9.08182 4.27275 9.18182 4.25456C9.38182 4.20911 9.6 4.20002 9.80909 4.25456C9.90909 4.28184 10.0091 4.3182 10.1 4.36366C10.1545 4.39093 10.2091 4.4182 10.2818 4.43638C10.4182 4.47275 10.5636 4.47275 10.7 4.43638C10.7636 4.4182 10.8273 4.39093 10.8909 4.36366C10.9091 4.35456 10.9273 4.34547 10.9364 4.34547C10.9636 4.33638 11 4.33638 11.0364 4.34547H11.0455L11.0636 4.35456C11.0909 4.36366 11.1182 4.38184 11.1455 4.40002C11.1636 4.4182 11.1727 4.43638 11.1909 4.45456C11.2 4.47275 11.2091 4.49093 11.2182 4.50911C11.2182 4.52729 11.2273 4.54547 11.2273 4.56366C11.2273 4.58184 11.2273 4.60002 11.2182 4.6182V4.64547C11.2091 4.67275 11.1909 4.70002 11.1727 4.7182C11.1545 4.73638 11.1455 4.74547 11.1182 4.76366L11.0909 4.78184H11.0818C11 4.82729 10.9182 4.86366 10.8182 4.88184C10.6182 4.92729 10.4 4.93638 10.1909 4.88184C10.0909 4.85456 9.99091 4.8182 9.9 4.77275C9.84546 4.74547 9.78182 4.72729 9.71818 4.70911C9.58182 4.67275 9.42727 4.68184 9.3 4.70911C9.23636 4.72729 9.17273 4.74547 9.10909 4.78184C9.02727 4.82729 8.93636 4.85456 8.83636 4.88184C8.63636 4.93638 8.40909 4.93638 8.20909 4.88184C8.10909 4.85456 8.01818 4.8182 7.92727 4.78184C7.87273 4.75456 7.80909 4.73638 7.74545 4.7182C7.68182 4.70002 7.60909 4.69093 7.53636 4.69093H7.52727L7.53636 4.70002C7.56364 4.72729 7.58182 4.75456 7.59091 4.78184C7.6 4.80911 7.6 4.82729 7.6 4.85456C7.6 4.88184 7.6 4.90911 7.59091 4.93638C7.58182 4.96365 7.56364 4.99093 7.53636 5.00911C7.51818 5.03638 7.49091 5.05456 7.46364 5.06365C7.4 5.04547 7.37273 5.05456 7.33636 5.05456ZM7.33636 4.00911C7.32727 4.0182 7.31818 4.0182 7.31818 4.0182L6.92727 4.4182C6.92727 4.4182 6.91818 4.42729 6.91818 4.43638C6.91818 4.43638 6.91818 4.44547 6.91818 4.45456C6.91818 4.45456 6.91818 4.46365 6.91818 4.47275C6.92727 4.48184 6.92727 4.49093 6.92727 4.49093L7.30909 4.88184C7.31818 4.89093 7.31818 4.89093 7.31818 4.89093C7.33636 4.90002 7.34545 4.89093 7.35455 4.89093L7.37273 4.87275C7.37273 4.87275 7.37273 4.86366 7.37273 4.85456C7.37273 4.84547 7.37273 4.84547 7.37273 4.83638C7.37273 4.83638 7.37273 4.83638 7.36364 4.82729L7.04545 4.50911H7.49091C7.58182 4.50911 7.66364 4.5182 7.74545 4.53638C7.82727 4.55456 7.9 4.58184 7.97273 4.6182C8.05455 4.65456 8.13636 4.68184 8.21818 4.70911C8.39091 4.75456 8.59091 4.75456 8.75455 4.70911C8.83636 4.69093 8.91818 4.65456 9 4.6182C9.07273 4.58184 9.14546 4.55456 9.21818 4.53638C9.37273 4.50002 9.55455 4.50002 9.71818 4.53638C9.8 4.55456 9.87273 4.58184 9.94545 4.6182C10.0273 4.65456 10.1091 4.68184 10.1909 4.70911C10.3727 4.75456 10.5636 4.75456 10.7273 4.70911C10.8091 4.69093 10.8909 4.65456 10.9545 4.6182L10.9818 4.60911C10.9818 4.60002 10.9818 4.59093 10.9909 4.58184C10.9818 4.57275 10.9727 4.56365 10.9636 4.55456C10.9545 4.55456 10.9455 4.55456 10.9455 4.54547C10.9364 4.54547 10.9364 4.54547 10.9364 4.54547C10.8636 4.58184 10.7909 4.60911 10.7091 4.62729C10.5545 4.67275 10.3727 4.67275 10.2 4.63638C10.1182 4.6182 10.0545 4.59093 9.98182 4.55456C9.9 4.50911 9.81818 4.48184 9.72727 4.45456C9.54545 4.40911 9.35455 4.40911 9.19091 4.45456C9.1 4.47275 9.02727 4.50911 8.95455 4.54547C8.88182 4.58184 8.80909 4.60911 8.73636 4.62729C8.58182 4.67275 8.4 4.67275 8.22727 4.63638C8.2 4.62729 8.16364 4.6182 8.13636 4.60911V4.62729L8 4.55456C7.92727 4.50911 7.84546 4.48184 7.75455 4.45456C7.66364 4.43638 7.57273 4.4182 7.48182 4.4182H7.03636L7.35455 4.08184C7.35455 4.08184 7.35455 4.07275 7.35455 4.06366C7.35455 4.05456 7.35455 4.05456 7.35455 4.04547C7.35455 4.04547 7.35455 4.04547 7.34546 4.03638C7.34546 4.03638 7.33636 4.02729 7.32727 4.02729C7.35455 4.00911 7.34545 4.00911 7.33636 4.00911Z" fill="#2D3E50"/>
</g>
</svg>
