<svg width="12" height="12" viewBox="0 0 12 12" fill="none" xmlns="http://www.w3.org/2000/svg">
<g clip-path="url(#clip0)">
<path d="M9.80001 11.5C9.40001 11.5 9.00001 11.2 9.00001 10.7V7.7C9.00001 7.3 9.30001 7 9.80001 7C10.3 7 10.6 7.3 10.6 7.8V10.8C10.5 11.2 10.2 11.5 9.80001 11.5ZM6.80001 11.5C6.40001 11.5 6.00001 11.2 6.00001 10.7V9.7C6.00001 9.3 6.30001 9 6.80001 9C7.30001 9 7.60001 9.3 7.60001 9.8V10.8C7.50001 11.2 7.20001 11.5 6.80001 11.5ZM3.80001 11.5C3.40001 11.5 3.00001 11.2 3.00001 10.7V7.7C3.00001 7.3 3.30001 7 3.80001 7C4.30001 7 4.60001 7.3 4.60001 7.8V10.8C4.50001 11.2 4.20001 11.5 3.80001 11.5ZM0.800006 11.5C0.400006 11.5 6.10948e-06 11.2 6.10948e-06 10.7V9.7C6.10948e-06 9.3 0.300006 9 0.800006 9C1.30001 9 1.60001 9.3 1.60001 9.8V10.8C1.50001 11.2 1.20001 11.5 0.800006 11.5ZM6.80001 6.8C6.60001 6.8 6.40001 6.7 6.30001 6.6L3.80001 4.1L1.30001 6.5C1.00001 6.8 0.500006 6.8 0.200006 6.5C-0.0999939 6.2 -0.0999939 5.7 0.200006 5.4L3.20001 2.4C3.50001 2.1 4.00001 2.1 4.30001 2.4L6.80001 4.9L9.50001 2.2H7.20001C6.80001 2.2 6.40001 1.9 6.40001 1.4C6.40001 0.899998 6.70001 0.599998 7.20001 0.599998H11.2C11.3 0.599998 11.4 0.599998 11.5 0.699998C11.6 0.699998 11.7 0.799998 11.7 0.899998C11.7 0.999998 11.8 1.1 11.9 1.1C12 1.3 12 1.4 12 1.5V5.5C12 5.9 11.7 6.3 11.2 6.3C10.7 6.3 10.4 6 10.4 5.5V3.3L7.30001 6.5C7.10001 6.7 6.90001 6.8 6.80001 6.8Z" fill="#2D3E50"/>
</g>
<defs>
<clipPath id="clip0">
<rect width="12" height="12" fill="white"/>
</clipPath>
</defs>
</svg>
