<svg width="16" height="16" viewBox="0 0 16 16" fill="none" xmlns="http://www.w3.org/2000/svg">
<path d="M12.5 14.8C12.1 14.8 11.7 14.5 11.7 14V9C11.7 8.6 12 8.2 12.5 8.2C13 8.2 13.3 8.5 13.3 9V14C13.2 14.4 12.9 14.8 12.5 14.8ZM8.99999 14.8C8.59999 14.8 8.19999 14.5 8.19999 14V11C8.19999 10.6 8.49999 10.2 8.99999 10.2C9.49999 10.2 9.79999 10.5 9.79999 11V14C9.79999 14.4 9.39999 14.8 8.99999 14.8ZM5.49999 14.8C5.09999 14.8 4.69999 14.5 4.69999 14V9C4.69999 8.6 4.99999 8.2 5.49999 8.2C5.99999 8.2 6.19999 8.6 6.19999 9V14C6.19999 14.4 5.89999 14.8 5.49999 14.8ZM1.99999 14.8C1.59999 14.8 1.19999 14.5 1.19999 14V11C1.19999 10.6 1.49999 10.2 1.99999 10.2C2.49999 10.2 2.79999 10.5 2.79999 11V14C2.79999 14.4 2.39999 14.8 1.99999 14.8ZM8.99999 7.8C8.79999 7.8 8.59999 7.7 8.49999 7.6L5.49999 4.6L2.49999 7.6C2.19999 7.9 1.69999 7.9 1.39999 7.6C1.09999 7.3 1.09999 6.8 1.39999 6.5L4.99999 3C5.29999 2.7 5.69999 2.7 5.99999 3L8.99999 6L12.2 2.8H9.99999C9.59999 2.8 9.19999 2.4 9.19999 2C9.19999 1.6 9.59999 1.2 9.99999 1.2H14C14.1 1.2 14.2 1.2 14.3 1.3C14.4 1.3 14.5 1.4 14.5 1.5C14.5 1.6 14.6 1.7 14.7 1.7C14.7 1.8 14.8 1.9 14.8 2V6C14.8 6.4 14.5 6.8 14 6.8C13.5 6.8 13.2 6.4 13.2 6V3.8L9.49999 7.5C9.39999 7.7 9.19999 7.8 8.99999 7.8Z" fill="#2D3E50"/>
</svg>
