<svg width="24" height="24" viewBox="0 0 24 24" fill="none" xmlns="http://www.w3.org/2000/svg">
<path d="M19.5 21.9C19 21.9 18.6 21.5 18.6 21V15C18.6 14.5 19 14.1 19.5 14.1C20 14.1 20.4 14.5 20.4 15V21C20.4 21.5 20 21.9 19.5 21.9ZM14 21.9C13.5 21.9 13.1 21.5 13.1 21V18C13.1 17.5 13.5 17.1 14 17.1C14.5 17.1 14.9 17.5 14.9 18V21C14.9 21.5 14.5 21.9 14 21.9ZM8.5 21.9C8 21.9 7.6 21.5 7.6 21V15C7.6 14.5 8 14.1 8.5 14.1C9 14.1 9.4 14.5 9.4 15V21C9.4 21.5 9 21.9 8.5 21.9ZM3 21.9C2.5 21.9 2.1 21.5 2.1 21V18C2.1 17.5 2.5 17.1 3 17.1C3.5 17.1 3.9 17.5 3.9 18V21C3.9 21.5 3.5 21.9 3 21.9ZM14 11.9C13.8 11.9 13.5 11.8 13.4 11.6L8.5 6.8L3.6 11.7C3.2 12.1 2.7 12.1 2.3 11.7C1.9 11.3 1.9 10.8 2.3 10.4L7.8 4.9C8.2 4.5 8.7 4.5 9.1 4.9L14 9.7L20.8 2.9H18C17.5 2.9 17.1 2.5 17.1 2C17.1 1.5 17.5 1.1 18 1.1H23C23.1 1.1 23.2 1.1 23.3 1.2C23.4 1.2 23.5 1.3 23.6 1.4C23.7 1.5 23.8 1.6 23.8 1.7C23.8 1.8 23.9 1.9 23.9 2V7C23.9 7.5 23.5 7.9 23 7.9C22.5 7.9 22.1 7.5 22.1 7V4.2L14.6 11.7C14.5 11.8 14.2 11.9 14 11.9Z" fill="#2D3E50"/>
<path d="M14 13.5C15.3807 13.5 16.5 12.3807 16.5 11C16.5 9.61929 15.3807 8.5 14 8.5C12.6193 8.5 11.5 9.61929 11.5 11C11.5 12.3807 12.6193 13.5 14 13.5Z" fill="#2D3E50"/>
<path d="M8.5 8C9.88071 8 11 6.88071 11 5.5C11 4.11929 9.88071 3 8.5 3C7.11929 3 6 4.11929 6 5.5C6 6.88071 7.11929 8 8.5 8Z" fill="#2D3E50"/>
<path d="M3 13.5C4.38071 13.5 5.5 12.3807 5.5 11C5.5 9.61929 4.38071 8.5 3 8.5C1.61929 8.5 0.5 9.61929 0.5 11C0.5 12.3807 1.61929 13.5 3 13.5Z" fill="#2D3E50"/>
</svg>
