<svg width="12" height="12" viewBox="0 0 12 12" fill="none" xmlns="http://www.w3.org/2000/svg">
<path d="M7.40001 9.72501C7.20001 9.72501 7.00001 9.62501 6.90001 9.42501C6.60001 9.12501 6.60001 8.72501 6.90001 8.42501L8.60001 6.72501H1.40001C1.00001 6.72501 0.700012 6.32501 0.700012 5.92501C0.700012 5.52501 1.00001 5.12501 1.50001 5.12501H8.70001L6.90001 3.42501C6.60001 3.12501 6.60001 2.72501 6.90001 2.42501C7.20001 2.12501 7.70001 2.12501 8.00001 2.42501L11 5.42501C11.1 5.52501 11.1 5.62501 11.2 5.62501C11.2 5.72501 11.3 5.82501 11.3 5.92501C11.3 6.02501 11.3 6.12501 11.2 6.22501C11.2 6.32501 11.1 6.42501 11 6.42501L8.00001 9.42501C7.80001 9.62501 7.60001 9.72501 7.40001 9.72501Z" fill="#2D3E50"/>
</svg>
