<svg width="16" height="16" viewBox="0 0 16 16" fill="none" xmlns="http://www.w3.org/2000/svg">
<path d="M7.92501 14.6C7.82501 14.6 7.72501 14.6 7.62501 14.5C7.52501 14.5 7.42501 14.4 7.42501 14.3L3.42501 10.3C3.12501 10 3.12501 9.5 3.42501 9.2C3.72501 8.9 4.22501 8.9 4.52501 9.2L7.22501 11.9V1.8C7.22501 1.4 7.52501 1 8.02501 1C8.52501 1 8.72501 1.4 8.72501 1.8V12L11.425 9.3C11.725 9 12.225 9 12.525 9.3C12.825 9.6 12.825 10.1 12.525 10.4L8.52501 14.4C8.42501 14.5 8.32501 14.5 8.32501 14.6C8.12501 14.5 8.02501 14.6 7.92501 14.6Z" fill="#2D3E50"/>
</svg>
