<svg width="12" height="12" viewBox="0 0 12 12" fill="none" xmlns="http://www.w3.org/2000/svg">
<path d="M6.02499 11.275C5.62499 11.275 5.22499 10.975 5.22499 10.475V3.37499L3.52499 5.07499C3.22499 5.37499 2.82499 5.37499 2.52499 5.07499C2.22499 4.77499 2.22499 4.37499 2.52499 4.07499L5.52499 1.07499C5.62499 0.974988 5.72499 0.974988 5.72499 0.874988C5.92499 0.774988 6.12499 0.774988 6.32499 0.874988C6.42499 0.874988 6.52499 0.974988 6.52499 1.07499L9.52499 4.07499C9.82499 4.37499 9.82499 4.87499 9.52499 5.17499C9.22499 5.47499 8.82499 5.37499 8.52499 5.07499L6.82499 3.37499V10.575C6.82499 10.975 6.42499 11.275 6.02499 11.275Z" fill="#2D3E50"/>
</svg>
