<svg width="24" height="24" viewBox="0 0 24 24" fill="none" xmlns="http://www.w3.org/2000/svg">
<path d="M8.49998 17.4C8.29998 17.4 7.99998 17.3 7.89998 17.1L3.39998 12.6C3.29998 12.5 3.19998 12.4 3.19998 12.3C3.19998 12.2 3.09998 12.1 3.09998 12C3.09998 11.9 3.09998 11.8 3.19998 11.7C3.19998 11.6 3.29998 11.5 3.39998 11.4L7.89998 6.90001C8.29998 6.50001 8.79998 6.50001 9.19998 6.90001C9.59998 7.30001 9.59998 7.80001 9.19998 8.20001L6.19998 11.2H20C20.5 11.2 20.9 11.6 20.9 12.1C20.9 12.6 20.5 13 20 13H6.19998L9.19998 16C9.59998 16.4 9.59998 16.9 9.19998 17.3C8.99998 17.3 8.69998 17.4 8.49998 17.4Z" fill="#2D3E50"/>
</svg>
