<svg width="12" height="12" viewBox="0 0 12 12" fill="none" xmlns="http://www.w3.org/2000/svg">
<path d="M6.6265 0C3.29721 0 1 2.26392 1 5.55325C1 8.90251 3.27058 11.0998 6.7397 11.0998C7.4455 11.0998 8.13134 11.0133 8.65073 10.8535V9.78813C8.27785 9.92791 7.55204 10.0212 6.83958 10.0212C4.00968 10.0212 2.21852 8.30326 2.21852 5.58655C2.21852 2.91645 4.00968 1.05872 6.58655 1.05872C9.11685 1.05872 10.7815 2.6368 10.7815 5.0472C10.7815 6.41887 10.3487 7.29781 9.67613 7.29781C9.26992 7.29781 9.0369 7.01813 9.0369 6.54538V2.98304H7.69187V3.78207H7.57202C7.30567 3.18946 6.72637 2.83655 6.01391 2.83655C4.68219 2.83655 3.77662 3.94188 3.77662 5.5599C3.77662 7.25119 4.69551 8.37647 6.08049 8.37647C6.85289 8.37647 7.39889 8.02362 7.67855 7.35107H7.79841C7.9449 7.9903 8.55084 8.39642 9.38311 8.39642C10.9945 8.39642 12 7.06475 12 4.94732C12 2.01089 9.81599 0 6.6265 0ZM6.41343 4.04841C7.11923 4.04841 7.56536 4.64102 7.56536 5.59986C7.56536 6.55869 7.11923 7.1513 6.40676 7.1513C5.70761 7.1513 5.28812 6.56535 5.28812 5.59986C5.28812 4.62771 5.70761 4.04841 6.41343 4.04841Z" fill="#2D3E50"/>
</svg>
