<svg width="12" height="12" viewBox="0 0 12 12" fill="none" xmlns="http://www.w3.org/2000/svg">
<path d="M6.12891 1.25977C3.19922 1.25977 1.17773 3.25195 1.17773 6.14648C1.17773 9.09375 3.17579 11.0273 6.22852 11.0273C6.84961 11.0273 7.45313 10.9512 7.91018 10.8106V9.87307C7.58205 9.99607 6.94336 10.0781 6.31641 10.0781C3.82617 10.0781 2.25 8.56642 2.25 6.17578C2.25 3.82617 3.82617 2.19141 6.09375 2.19141C8.32035 2.19141 9.78518 3.58008 9.78518 5.70117C9.78518 6.9082 9.40433 7.68165 8.8125 7.68165C8.45505 7.68165 8.25 7.43554 8.25 7.01953V3.88477H7.06641V4.58789H6.96094C6.72656 4.06641 6.2168 3.75586 5.58984 3.75586C4.41797 3.75586 3.62109 4.72852 3.62109 6.15234C3.62109 7.64062 4.42969 8.63085 5.64844 8.63085C6.32813 8.63085 6.80859 8.32035 7.05469 7.72852H7.16016C7.28906 8.29102 7.82228 8.6484 8.55465 8.6484C9.97268 8.6484 10.8575 7.47656 10.8575 5.61328C10.8575 3.02929 8.93558 1.25977 6.12891 1.25977ZM5.94141 4.82227C6.5625 4.82227 6.95508 5.34375 6.95508 6.1875C6.95508 7.03125 6.5625 7.55272 5.93555 7.55272C5.32031 7.55272 4.95117 7.03711 4.95117 6.1875C4.95117 5.33203 5.32031 4.82227 5.94141 4.82227Z" fill="#2D3E50"/>
</svg>
