<svg width="16" height="16" viewBox="0 0 16 16" fill="none" xmlns="http://www.w3.org/2000/svg">
<path d="M8.17188 1.67969C4.26562 1.67969 1.57031 4.33594 1.57031 8.19531C1.57031 12.125 4.23438 14.7031 8.30469 14.7031C9.13281 14.7031 9.9375 14.6016 10.5469 14.4141V13.1641C10.1094 13.3281 9.25781 13.4375 8.42188 13.4375C5.10156 13.4375 3 11.4219 3 8.23438C3 5.10156 5.10156 2.92188 8.125 2.92188C11.0938 2.92188 13.0469 4.77344 13.0469 7.60156C13.0469 9.21094 12.5391 10.2422 11.75 10.2422C11.2734 10.2422 11 9.91406 11 9.35938V5.17969H9.42188V6.11719H9.28125C8.96875 5.42188 8.28906 5.00781 7.45312 5.00781C5.89062 5.00781 4.82812 6.30469 4.82812 8.20312C4.82812 10.1875 5.90625 11.5078 7.53125 11.5078C8.4375 11.5078 9.07812 11.0938 9.40625 10.3047H9.54688C9.71875 11.0547 10.4297 11.5312 11.4062 11.5312C13.2969 11.5312 14.4766 9.96875 14.4766 7.48438C14.4766 4.03906 11.9141 1.67969 8.17188 1.67969ZM7.92188 6.42969C8.75 6.42969 9.27344 7.125 9.27344 8.25C9.27344 9.375 8.75 10.0703 7.91406 10.0703C7.09375 10.0703 6.60156 9.38281 6.60156 8.25C6.60156 7.10938 7.09375 6.42969 7.92188 6.42969Z" fill="#2D3E50"/>
</svg>
