<svg width="24" height="24" viewBox="0 0 24 24" fill="none" xmlns="http://www.w3.org/2000/svg">
<path d="M12.2363 3.43457C6.86523 3.43457 3.15918 7.08691 3.15918 12.3936C3.15918 17.7969 6.82227 21.3418 12.4189 21.3418C13.5576 21.3418 14.6641 21.2021 15.502 20.9443V19.2256C14.9004 19.4512 13.7295 19.6016 12.5801 19.6016C8.01465 19.6016 5.125 16.8301 5.125 12.4473C5.125 8.13965 8.01465 5.14258 12.1719 5.14258C16.2539 5.14258 18.9395 7.68848 18.9395 11.5771C18.9395 13.79 18.2412 15.208 17.1562 15.208C16.501 15.208 16.125 14.7568 16.125 13.9941V8.24707H13.9551V9.53613H13.7617C13.332 8.58008 12.3975 8.01074 11.248 8.01074C9.09961 8.01074 7.63867 9.79395 7.63867 12.4043C7.63867 15.1328 9.12109 16.9482 11.3555 16.9482C12.6016 16.9482 13.4824 16.3789 13.9336 15.2939H14.127C14.3633 16.3252 15.3408 16.9805 16.6836 16.9805C19.2832 16.9805 20.9053 14.832 20.9053 11.416C20.9053 6.67871 17.3818 3.43457 12.2363 3.43457ZM11.8926 9.96582C13.0312 9.96582 13.751 10.9219 13.751 12.4688C13.751 14.0156 13.0312 14.9717 11.8818 14.9717C10.7539 14.9717 10.0771 14.0264 10.0771 12.4688C10.0771 10.9004 10.7539 9.96582 11.8926 9.96582Z" fill="#2D3E50"/>
</svg>
