<svg width="12" height="12" viewBox="0 0 12 12" fill="none" xmlns="http://www.w3.org/2000/svg">
<path fill-rule="evenodd" clip-rule="evenodd" d="M1.50562 2C1.63972 2 1.76832 2.05327 1.86314 2.14809C1.95797 2.24291 2.01124 2.37152 2.01124 2.50562V9.24719C2.01124 9.38129 1.95797 9.5099 1.86314 9.60472C1.76832 9.69954 1.63972 9.75281 1.50562 9.75281C1.37152 9.75281 1.24291 9.69954 1.14809 9.60472C1.05327 9.5099 1 9.38129 1 9.24719V2.50562C1 2.37152 1.05327 2.24291 1.14809 2.14809C1.24291 2.05327 1.37152 2 1.50562 2V2ZM6 2C6.1341 2 6.2627 2.05327 6.35753 2.14809C6.45235 2.24291 6.50562 2.37152 6.50562 2.50562V9.24719C6.50562 9.38129 6.45235 9.5099 6.35753 9.60472C6.2627 9.69954 6.1341 9.75281 6 9.75281C5.8659 9.75281 5.7373 9.69954 5.64247 9.60472C5.54765 9.5099 5.49438 9.38129 5.49438 9.24719V2.50562C5.49438 2.37152 5.54765 2.24291 5.64247 2.14809C5.7373 2.05327 5.8659 2 6 2V2ZM3.75281 2C3.54421 2 3.34416 2.08286 3.19666 2.23037C3.04916 2.37787 2.96629 2.57792 2.96629 2.78652V8.96629C2.96629 9.17489 3.04916 9.37494 3.19666 9.52244C3.34416 9.66994 3.54421 9.75281 3.75281 9.75281C3.96141 9.75281 4.16146 9.66994 4.30896 9.52244C4.45646 9.37494 4.53933 9.17489 4.53933 8.96629V2.78652C4.53933 2.57792 4.45646 2.37787 4.30896 2.23037C4.16146 2.08286 3.96141 2 3.75281 2V2ZM10.4944 2C10.6285 2 10.7571 2.05327 10.8519 2.14809C10.9467 2.24291 11 2.37152 11 2.50562V9.24719C11 9.38129 10.9467 9.5099 10.8519 9.60472C10.7571 9.69954 10.6285 9.75281 10.4944 9.75281C10.3603 9.75281 10.2317 9.69954 10.1369 9.60472C10.042 9.5099 9.98876 9.38129 9.98876 9.24719V2.50562C9.98876 2.37152 10.042 2.24291 10.1369 2.14809C10.2317 2.05327 10.3603 2 10.4944 2V2ZM8.24719 2C8.03859 2 7.83854 2.08286 7.69104 2.23037C7.54354 2.37787 7.46067 2.57792 7.46067 2.78652V8.96629C7.46067 9.17489 7.54354 9.37494 7.69104 9.52244C7.83854 9.66994 8.03859 9.75281 8.24719 9.75281C8.45579 9.75281 8.65584 9.66994 8.80334 9.52244C8.95084 9.37494 9.03371 9.17489 9.03371 8.96629V2.78652C9.03371 2.57792 8.95084 2.37787 8.80334 2.23037C8.65584 2.08286 8.45579 2 8.24719 2Z" fill="#2D3E50"/>
</svg>
