<svg width="24" height="24" viewBox="0 0 24 24" fill="none" xmlns="http://www.w3.org/2000/svg">
<path fill-rule="evenodd" clip-rule="evenodd" d="M2.11236 3C2.40738 3 2.69031 3.11719 2.89892 3.3258C3.10752 3.53441 3.22472 3.81734 3.22472 4.11236V18.9438C3.22472 19.2388 3.10752 19.5218 2.89892 19.7304C2.69031 19.939 2.40738 20.0562 2.11236 20.0562C1.81734 20.0562 1.53441 19.939 1.3258 19.7304C1.11719 19.5218 1 19.2388 1 18.9438V4.11236C1 3.81734 1.11719 3.53441 1.3258 3.3258C1.53441 3.11719 1.81734 3 2.11236 3V3ZM12 3C12.295 3 12.5779 3.11719 12.7866 3.3258C12.9952 3.53441 13.1124 3.81734 13.1124 4.11236V18.9438C13.1124 19.2388 12.9952 19.5218 12.7866 19.7304C12.5779 19.939 12.295 20.0562 12 20.0562C11.705 20.0562 11.4221 19.939 11.2134 19.7304C11.0048 19.5218 10.8876 19.2388 10.8876 18.9438V4.11236C10.8876 3.81734 11.0048 3.53441 11.2134 3.3258C11.4221 3.11719 11.705 3 12 3V3ZM7.05618 3C6.59727 3 6.15715 3.1823 5.83265 3.5068C5.50815 3.83131 5.32584 4.27142 5.32584 4.73034V18.3258C5.32584 18.7848 5.50815 19.2249 5.83265 19.5494C6.15715 19.8739 6.59727 20.0562 7.05618 20.0562C7.51509 20.0562 7.95521 19.8739 8.27971 19.5494C8.60421 19.2249 8.78652 18.7848 8.78652 18.3258V4.73034C8.78652 4.27142 8.60421 3.83131 8.27971 3.5068C7.95521 3.1823 7.51509 3 7.05618 3V3ZM21.8876 3C22.1827 3 22.4656 3.11719 22.6742 3.3258C22.8828 3.53441 23 3.81734 23 4.11236V18.9438C23 19.2388 22.8828 19.5218 22.6742 19.7304C22.4656 19.939 22.1827 20.0562 21.8876 20.0562C21.5926 20.0562 21.3097 19.939 21.1011 19.7304C20.8925 19.5218 20.7753 19.2388 20.7753 18.9438V4.11236C20.7753 3.81734 20.8925 3.53441 21.1011 3.3258C21.3097 3.11719 21.5926 3 21.8876 3V3ZM16.9438 3C16.4849 3 16.0448 3.1823 15.7203 3.5068C15.3958 3.83131 15.2135 4.27142 15.2135 4.73034V18.3258C15.2135 18.7848 15.3958 19.2249 15.7203 19.5494C16.0448 19.8739 16.4849 20.0562 16.9438 20.0562C17.4027 20.0562 17.8429 19.8739 18.1674 19.5494C18.4919 19.2249 18.6742 18.7848 18.6742 18.3258V4.73034C18.6742 4.27142 18.4919 3.83131 18.1674 3.5068C17.8429 3.1823 17.4027 3 16.9438 3Z" fill="#2D3E50"/>
</svg>
