<svg width="16" height="16" viewBox="0 0 16 16" fill="none" xmlns="http://www.w3.org/2000/svg">
<path fill-rule="evenodd" clip-rule="evenodd" d="M1.70787 3C1.8956 3 2.07565 3.07458 2.2084 3.20733C2.34115 3.34008 2.41573 3.52013 2.41573 3.70787V13.1461C2.41573 13.3338 2.34115 13.5139 2.2084 13.6466C2.07565 13.7794 1.8956 13.8539 1.70787 13.8539C1.52013 13.8539 1.34008 13.7794 1.20733 13.6466C1.07458 13.5139 1 13.3338 1 13.1461V3.70787C1 3.52013 1.07458 3.34008 1.20733 3.20733C1.34008 3.07458 1.52013 3 1.70787 3V3ZM8 3C8.18774 3 8.36779 3.07458 8.50054 3.20733C8.63329 3.34008 8.70787 3.52013 8.70787 3.70787V13.1461C8.70787 13.3338 8.63329 13.5139 8.50054 13.6466C8.36779 13.7794 8.18774 13.8539 8 13.8539C7.81226 13.8539 7.63221 13.7794 7.49946 13.6466C7.36671 13.5139 7.29214 13.3338 7.29214 13.1461V3.70787C7.29214 3.52013 7.36671 3.34008 7.49946 3.20733C7.63221 3.07458 7.81226 3 8 3V3ZM4.85393 3C4.5619 3 4.28182 3.11601 4.07532 3.32251C3.86882 3.52901 3.75281 3.80909 3.75281 4.10112V12.7528C3.75281 13.0448 3.86882 13.3249 4.07532 13.5314C4.28182 13.7379 4.5619 13.8539 4.85393 13.8539C5.14597 13.8539 5.42604 13.7379 5.63254 13.5314C5.83905 13.3249 5.95506 13.0448 5.95506 12.7528V4.10112C5.95506 3.80909 5.83905 3.52901 5.63254 3.32251C5.42604 3.11601 5.14597 3 4.85393 3V3ZM14.2921 3C14.4799 3 14.6599 3.07458 14.7927 3.20733C14.9254 3.34008 15 3.52013 15 3.70787V13.1461C15 13.3338 14.9254 13.5139 14.7927 13.6466C14.6599 13.7794 14.4799 13.8539 14.2921 13.8539C14.1044 13.8539 13.9243 13.7794 13.7916 13.6466C13.6588 13.5139 13.5843 13.3338 13.5843 13.1461V3.70787C13.5843 3.52013 13.6588 3.34008 13.7916 3.20733C13.9243 3.07458 14.1044 3 14.2921 3V3ZM11.1461 3C10.854 3 10.574 3.11601 10.3675 3.32251C10.161 3.52901 10.0449 3.80909 10.0449 4.10112V12.7528C10.0449 13.0448 10.161 13.3249 10.3675 13.5314C10.574 13.7379 10.854 13.8539 11.1461 13.8539C11.4381 13.8539 11.7182 13.7379 11.9247 13.5314C12.1312 13.3249 12.2472 13.0448 12.2472 12.7528V4.10112C12.2472 3.80909 12.1312 3.52901 11.9247 3.32251C11.7182 3.11601 11.4381 3 11.1461 3Z" fill="#2D3E50"/>
</svg>
