<svg width="16" height="16" viewBox="0 0 16 16" fill="none" xmlns="http://www.w3.org/2000/svg">
<path d="M12.9258 15.1044H3.45805C3.31603 15.0844 3.17347 15.067 3.032 15.0435C1.96592 14.8652 1.10111 13.8998 1.03024 12.8207C0.98966 12.2189 0.93637 11.6178 0.88822 11.0165C0.816806 10.1324 0.738899 9.24895 0.673977 8.36547C0.623122 7.67081 0.838987 7.06325 1.30102 6.54035C2.54806 5.12803 3.79862 3.71895 5.03592 2.2996C5.55827 1.70015 6.18206 1.33578 6.99007 1.33497C8.95576 1.3328 10.9215 1.3328 12.8871 1.33497C13.4001 1.33613 13.8995 1.49973 14.3138 1.80229C14.728 2.10486 15.0358 2.53084 15.193 3.01915C15.2571 3.21879 15.2874 3.42924 15.3334 3.63456V12.7777C15.3208 12.8159 15.3109 12.855 15.3039 12.8946C15.2499 13.4016 15.0389 13.8792 14.7003 14.2604C14.3618 14.6417 13.9125 14.9077 13.4155 15.0213C13.2545 15.0592 13.0881 15.0773 12.9258 15.1044ZM8.17057 14.4208C9.67604 14.4208 11.1819 14.4208 12.6881 14.4208C12.832 14.4208 12.9783 14.4208 13.1192 14.3973C14.0146 14.2398 14.6143 13.5235 14.6146 12.6165C14.6146 9.68204 14.6146 6.74756 14.6146 3.81309C14.6183 3.71847 14.6137 3.62371 14.6011 3.52987C14.4409 2.6169 13.7198 2.01502 12.7911 2.01502C10.8842 2.01502 8.97749 2.01502 7.07095 2.01502C6.50289 2.01502 6.02517 2.22602 5.64943 2.65018C4.36199 4.10208 3.07699 5.55706 1.79442 7.0151C1.55367 7.28966 1.39109 7.60724 1.37054 7.97351C1.35512 8.24564 1.37649 8.52074 1.39759 8.79369C1.44033 9.37717 1.49172 9.96012 1.54123 10.5431C1.60101 11.2464 1.67378 11.9497 1.71976 12.6555C1.75844 13.2506 1.98784 13.7321 2.46934 14.0864C2.8091 14.3369 3.19809 14.4227 3.6144 14.4219C5.13321 14.4195 6.65194 14.4192 8.17057 14.4208Z" fill="#2D3E50"/>
<path d="M8.02962 8.87838H2.24074C1.94129 8.87838 1.832 8.77207 1.82822 8.47506C1.82335 8.10987 1.82443 7.74739 1.97267 7.39979C2.10197 7.09655 2.32703 6.8704 2.54344 6.63587C3.6161 5.47341 4.69001 4.31176 5.76519 3.15092C6.1201 2.76869 6.56481 2.57311 7.08771 2.57284C9.02653 2.57104 10.9652 2.57104 12.9036 2.57284C13.6811 2.57473 14.2448 3.15254 14.2451 3.93079C14.2451 5.44564 14.2451 6.96048 14.2451 8.47533C14.2451 8.76477 14.1334 8.87676 13.8453 8.87676L8.02962 8.87838ZM2.53587 8.18886H13.5558V3.98949C13.5558 3.52368 13.2853 3.25533 12.8146 3.25506C10.9348 3.25506 9.05502 3.25506 7.17535 3.25506C6.82234 3.25506 6.52613 3.37219 6.28457 3.63377C5.64923 4.32176 5.013 5.00913 4.37586 5.69586C3.85919 6.25527 3.34036 6.81278 2.82829 7.37652C2.62486 7.60023 2.51531 7.86587 2.53587 8.18886Z" fill="#2D3E50"/>
<path d="M8.29093 11.8372C10.1484 11.8372 12.0051 11.8372 13.861 11.8372C14.0947 11.8372 14.2372 11.9592 14.2448 12.1618C14.2521 12.356 14.1328 12.4972 13.937 12.5229C13.8966 12.5266 13.856 12.5276 13.8155 12.5259H2.74253C2.4658 12.5259 2.32162 12.3998 2.32676 12.1637C2.32689 12.0819 2.3577 12.0032 2.41311 11.9431C2.46852 11.883 2.54447 11.8458 2.62594 11.8391C2.67518 11.8345 2.72522 11.8369 2.77472 11.8369L8.29093 11.8372Z" fill="#2D3E50"/>
<path d="M12.8217 10.7013C12.4701 10.7013 12.1184 10.707 11.7667 10.6994C11.4841 10.6932 11.3323 10.4473 11.4497 10.2017C11.4725 10.1469 11.5114 10.1004 11.5612 10.0682C11.6111 10.0361 11.6696 10.0199 11.7289 10.0218C12.4592 10.0205 13.1896 10.0191 13.92 10.0218C14.112 10.0218 14.2405 10.1571 14.2446 10.3464C14.25 10.5439 14.1304 10.6894 13.9303 10.6943C13.5608 10.7032 13.1912 10.6967 12.8212 10.6967L12.8217 10.7013Z" fill="#2D3E50"/>
<path d="M8.64804 4.25187C8.60368 4.33113 8.57392 4.42526 8.51279 4.48748C7.91478 5.09324 7.31353 5.69548 6.70904 6.2942C6.67797 6.32691 6.64065 6.35302 6.59928 6.371C6.55792 6.38898 6.51336 6.39846 6.46826 6.39886C6.42315 6.39927 6.37843 6.39059 6.33675 6.37335C6.29507 6.35612 6.25728 6.33067 6.22564 6.29853C6.08525 6.15408 6.08552 5.95931 6.23781 5.80593C6.73879 5.30099 7.24149 4.79775 7.7459 4.29623C7.8541 4.18803 7.95797 4.07468 8.0724 3.97378C8.1806 3.87938 8.30828 3.86558 8.43677 3.93267C8.55769 3.99569 8.62478 4.09768 8.64804 4.25187Z" fill="#2D3E50"/>
<path d="M7.4886 4.09444C7.4464 4.17072 7.41827 4.26026 7.36011 4.32085C7.09529 4.5965 6.82424 4.8662 6.55075 5.13238C6.39656 5.28305 6.2018 5.27981 6.05951 5.13644C5.91722 4.99307 5.92101 4.80074 6.07385 4.64573C6.34219 4.3736 6.61216 4.1031 6.88375 3.83421C6.99195 3.72601 7.12585 3.69138 7.26679 3.7582C7.39852 3.82096 7.47319 3.92943 7.4886 4.09444Z" fill="#2D3E50"/>
</svg>
