<svg width="16" height="16" viewBox="0 0 16 16" fill="none" xmlns="http://www.w3.org/2000/svg">
<path d="M1.7377 12.0124C1.77491 12.3101 1.84933 12.6078 2.01057 12.8806C2.39507 13.5752 3.13926 14.0093 3.93305 14.0093H12.6648C13.8679 14.0093 14.8478 13.0295 14.8478 11.8264V3.60313C14.8478 2.40003 13.8679 1.42018 12.6648 1.42018H7.20747C6.57491 1.42018 5.96716 1.69305 5.55786 2.16437L1.93615 6.25739C1.53926 6.7039 1.35321 7.28685 1.40282 7.8946L1.7377 12.0124ZM1.83693 7.85739C1.78732 7.36127 1.96096 6.88995 2.27104 6.53026L5.89274 2.43724C6.24003 2.06514 6.71135 1.84189 7.21988 1.84189H12.6524C13.6199 1.84189 14.4137 2.63569 14.4137 3.60313V11.8512C14.4137 12.8186 13.6199 13.6124 12.6524 13.6124H3.93305C3.3129 13.6124 2.71755 13.2651 2.39507 12.707C2.27104 12.4962 2.19662 12.2605 2.18422 12.0124L1.83693 7.85739Z" fill="#2D3E50"/>
<path d="M12.6649 14.0713H3.93307C3.10206 14.0713 2.34547 13.6248 1.96098 12.9178C1.81214 12.6698 1.72532 12.3597 1.68811 12.0248L1.34082 7.89457C1.29121 7.26201 1.48966 6.66666 1.89896 6.20775L5.52067 2.10232C5.94237 1.6186 6.56253 1.33333 7.20749 1.33333H12.6649C13.9052 1.33333 14.9098 2.33798 14.9098 3.57829V11.8015C14.9098 13.0667 13.9052 14.0713 12.6649 14.0713ZM1.79974 12.0124C1.83695 12.3349 1.92377 12.6202 2.0602 12.8558C2.4323 13.5256 3.13927 13.9473 3.92067 13.9473H12.6525C13.8307 13.9473 14.7734 12.9922 14.7734 11.8264V3.6031C14.7734 2.4248 13.8183 1.48217 12.6525 1.48217H7.19509C6.57493 1.48217 5.99199 1.74263 5.59509 2.20155V2.21395L1.98578 6.29457C1.60129 6.72868 1.41524 7.28682 1.46485 7.88217L1.79974 12.0124ZM12.6525 13.662H3.93307C3.27571 13.662 2.66795 13.3023 2.34547 12.7194C2.22144 12.4961 2.14702 12.2481 2.13462 12L1.77493 7.86976C1.72532 7.37364 1.89896 6.87751 2.22144 6.49302L5.84315 2.4C6.20284 2.0031 6.69896 1.77984 7.21989 1.77984H12.6525C13.6571 1.77984 14.4757 2.59844 14.4757 3.6031V11.8512C14.4633 12.8434 13.6571 13.662 12.6525 13.662ZM7.20749 1.90387C6.73617 1.90387 6.26485 2.11472 5.92997 2.47441L2.30826 6.56744C1.99819 6.91472 1.84935 7.38604 1.88656 7.84496L2.24625 11.9752C2.25865 12.2108 2.33307 12.4465 2.4447 12.645C2.74237 13.1907 3.31292 13.5256 3.92067 13.5256H12.6525C13.5827 13.5256 14.3517 12.769 14.3517 11.8264V3.6031C14.3517 2.67286 13.5951 1.90387 12.6525 1.90387H7.20749Z" fill="#2D3E50"/>
<path d="M11.6354 9.92863H13.6323C13.6943 9.92863 13.744 9.90382 13.7936 9.86661C13.8308 9.8294 13.8556 9.76739 13.8556 9.70537C13.8556 9.64336 13.8308 9.59374 13.7936 9.54413C13.7564 9.50692 13.6943 9.48212 13.6323 9.48212H11.6354C11.5734 9.48212 11.5238 9.50692 11.4742 9.54413C11.437 9.58134 11.4122 9.64336 11.4122 9.70537C11.4122 9.76739 11.437 9.817 11.4742 9.86661C11.5238 9.91622 11.5734 9.92863 11.6354 9.92863Z" fill="#2D3E50"/>
<path d="M13.6323 9.99068H11.6354C11.561 9.99068 11.4866 9.96587 11.437 9.91626C11.3874 9.86665 11.3625 9.79223 11.3625 9.71781C11.3625 9.6434 11.3874 9.56898 11.437 9.51936C11.4866 9.46975 11.561 9.44495 11.6354 9.44495H13.6323C13.7067 9.44495 13.7812 9.46975 13.8308 9.51936C13.8804 9.56898 13.9052 9.6434 13.9052 9.71781C13.9052 9.79223 13.8804 9.86665 13.8308 9.91626C13.7812 9.96587 13.7191 9.99068 13.6323 9.99068ZM11.6354 9.55657C11.5858 9.55657 11.5486 9.56898 11.5238 9.59378C11.499 9.61859 11.4866 9.6558 11.4866 9.70541C11.4866 9.75502 11.499 9.79223 11.5238 9.81704C11.5486 9.84184 11.5858 9.85425 11.6354 9.85425H13.6323C13.6819 9.85425 13.7191 9.84184 13.7439 9.81704C13.7688 9.79223 13.7812 9.75502 13.7812 9.70541C13.7812 9.6558 13.7688 9.61859 13.7439 9.59378C13.7191 9.56898 13.6819 9.55657 13.6323 9.55657H11.6354Z" fill="#2D3E50"/>
<path d="M3.16405 11.6279H13.6447C13.7067 11.6279 13.7563 11.6031 13.8059 11.5659C13.8431 11.5287 13.8679 11.4667 13.8679 11.4046C13.8679 11.3426 13.8431 11.293 13.8059 11.2434C13.7687 11.2062 13.7067 11.1814 13.6447 11.1814H3.16405C3.10204 11.1814 3.05242 11.2062 3.00281 11.2434C2.9656 11.2806 2.9408 11.3426 2.9408 11.4046C2.9408 11.4667 2.9656 11.5163 3.00281 11.5659C3.04002 11.6031 3.10204 11.6279 3.16405 11.6279Z" fill="#2D3E50"/>
<path d="M13.6323 11.6899H3.16407C3.08965 11.6899 3.01524 11.6651 2.96562 11.6155C2.91601 11.5659 2.8912 11.4915 2.8912 11.4171C2.8912 11.3426 2.91601 11.2682 2.96562 11.2186C3.01524 11.169 3.08965 11.1442 3.16407 11.1442H13.6447C13.7191 11.1442 13.7935 11.169 13.8431 11.2186C13.8928 11.2682 13.9176 11.3426 13.9176 11.4171C13.9176 11.4915 13.8928 11.5659 13.8431 11.6155C13.7811 11.6651 13.7191 11.6899 13.6323 11.6899ZM3.16407 11.2558C3.11446 11.2558 3.07725 11.2682 3.05245 11.293C3.02764 11.3178 3.01524 11.355 3.01524 11.4047C3.01524 11.4543 3.02764 11.4915 3.05245 11.5163C3.07725 11.5411 3.11446 11.5535 3.16407 11.5535H13.6447C13.6943 11.5535 13.7315 11.5411 13.7563 11.5163C13.7811 11.4915 13.7935 11.4543 13.7935 11.4047C13.7935 11.355 13.7811 11.3178 13.7563 11.293C13.7315 11.2682 13.6943 11.2558 13.6447 11.2558H3.16407Z" fill="#2D3E50"/>
<path d="M6.55013 5.86048C6.57494 5.88528 6.58734 5.89769 6.61215 5.91009C6.64936 5.92249 6.67416 5.92249 6.69897 5.92249C6.72378 5.92249 6.76099 5.92249 6.78579 5.91009C6.8106 5.89769 6.8354 5.88528 6.84781 5.86048L8.54703 4.16125C8.63385 4.07443 8.63385 3.938 8.54703 3.86358C8.46021 3.78916 8.32378 3.77676 8.24936 3.86358L6.55013 5.5628C6.46331 5.64963 6.46331 5.77366 6.55013 5.86048Z" fill="#2D3E50"/>
<path d="M6.69897 5.98452C6.66176 5.98452 6.62455 5.97212 6.58734 5.95971C6.56253 5.94731 6.52532 5.9225 6.50052 5.8977C6.45091 5.84808 6.4137 5.77367 6.4137 5.69925C6.4137 5.62483 6.4385 5.56281 6.50052 5.5008L8.19974 3.81398C8.31137 3.70235 8.48502 3.70235 8.59665 3.81398C8.64626 3.86359 8.68347 3.93801 8.68347 4.01243C8.68347 4.08684 8.65866 4.14886 8.59665 4.21088L6.89742 5.9101C6.87261 5.93491 6.84781 5.95971 6.8106 5.97212C6.78579 5.98452 6.74858 5.98452 6.69897 5.98452ZM8.39819 3.86359C8.36099 3.86359 8.32378 3.87599 8.28657 3.9132L6.59974 5.60002C6.57494 5.62483 6.55013 5.66204 6.55013 5.71165C6.55013 5.74886 6.56253 5.78607 6.59974 5.82328C6.61215 5.83568 6.63695 5.84809 6.64936 5.86049C6.68656 5.87289 6.73618 5.87289 6.77339 5.86049C6.78579 5.84809 6.8106 5.84809 6.823 5.82328L8.52223 4.12405C8.54703 4.09925 8.57184 4.06204 8.57184 4.01243C8.57184 3.97522 8.55943 3.93801 8.52223 3.9008C8.48502 3.86359 8.4354 3.86359 8.39819 3.86359Z" fill="#2D3E50"/>
<path d="M6.40127 4.78136C6.42607 4.80617 6.43848 4.81857 6.46328 4.83098C6.48809 4.84338 6.5129 4.84338 6.5501 4.84338C6.57491 4.84338 6.61212 4.84338 6.63693 4.83098C6.66173 4.81857 6.68654 4.80617 6.69894 4.78136L7.46793 4.01237C7.55475 3.92555 7.55475 3.78912 7.46793 3.7147C7.38111 3.62788 7.24468 3.62788 7.17026 3.7147L6.40127 4.48369C6.31445 4.57051 6.31445 4.69454 6.40127 4.78136Z" fill="#2D3E50"/>
<path d="M6.55011 4.9054C6.51291 4.9054 6.4757 4.893 6.43849 4.8806C6.41368 4.86819 6.37647 4.84339 6.35167 4.81858C6.24004 4.70695 6.24004 4.53331 6.35167 4.42168L7.12066 3.65269C7.23229 3.54106 7.40593 3.54106 7.51756 3.65269C7.56717 3.7023 7.60438 3.77672 7.60438 3.85114C7.60438 3.92556 7.57957 3.98757 7.51756 4.04959L6.74856 4.81858C6.72376 4.84339 6.69895 4.86819 6.66174 4.8806C6.62453 4.9054 6.58732 4.9054 6.55011 4.9054ZM7.31911 3.7023C7.2819 3.7023 7.24469 3.71471 7.20748 3.75192L6.43849 4.52091C6.37647 4.58292 6.37647 4.66975 6.43849 4.73176C6.45089 4.74416 6.4757 4.75657 6.4881 4.76897C6.52531 4.78137 6.57492 4.78137 6.61213 4.76897C6.62453 4.75657 6.64934 4.75657 6.66174 4.73176L7.43074 3.96277C7.45554 3.93796 7.48035 3.90075 7.48035 3.85114C7.48035 3.81393 7.46795 3.77672 7.43074 3.73951C7.39353 3.7023 7.35632 3.7023 7.31911 3.7023Z" fill="#2D3E50"/>
<path d="M6.14082 3.05739L2.90361 6.55507C2.63074 6.84034 2.4819 7.22484 2.4819 7.63414V8.01863C2.4819 8.08065 2.50671 8.13026 2.54392 8.17987C2.58113 8.21708 2.64314 8.24189 2.70516 8.24189H13.6447C13.7067 8.24189 13.7563 8.21708 13.8059 8.17987C13.8431 8.14267 13.8679 8.08065 13.8679 8.01863V3.72716V3.71476C13.8679 3.40468 13.7563 3.10701 13.5207 2.89615C13.3098 2.6853 13.0121 2.57367 12.7021 2.57367H7.30671C6.8602 2.56127 6.43849 2.74732 6.14082 3.05739ZM13.4214 7.80778H2.92841V7.63414C2.92841 7.34887 3.04004 7.076 3.23849 6.86515L6.4757 3.36747C6.69896 3.13181 6.98423 3.00778 7.30671 3.00778H12.7021C12.8881 3.00778 13.0742 3.0822 13.2106 3.21863C13.347 3.36747 13.4214 3.52871 13.4214 3.72716V7.80778Z" fill="#2D3E50"/>
<path d="M13.6323 8.30387H2.69276C2.61834 8.30387 2.54392 8.27907 2.49431 8.22946C2.4447 8.17984 2.41989 8.10543 2.41989 8.03101V7.64651C2.41989 7.22481 2.56873 6.82791 2.854 6.53023L2.8664 6.51783L6.09121 3.03256C6.40129 2.71008 6.8354 2.51163 7.29431 2.51163H12.7021C13.0369 2.51163 13.3346 2.63566 13.5579 2.85891C13.7935 3.06977 13.9176 3.37984 13.9176 3.71473V8.03101C13.9176 8.10543 13.8928 8.17984 13.8431 8.22946C13.7811 8.26667 13.7191 8.30387 13.6323 8.30387ZM2.94082 6.61705C2.69276 6.88992 2.54392 7.24961 2.54392 7.64651V8.03101C2.54392 8.08062 2.55633 8.11783 2.58113 8.14264C2.60594 8.16744 2.64315 8.17984 2.69276 8.17984H13.6323C13.6819 8.17984 13.7191 8.16744 13.7439 8.14264C13.7687 8.11783 13.7811 8.08062 13.7811 8.03101V3.70232C13.7811 3.40465 13.6695 3.13178 13.4587 2.93333C13.2602 2.73488 12.9873 2.62326 12.6897 2.62326H7.29431C6.8726 2.62326 6.47571 2.7969 6.17803 3.09457L2.94082 6.61705ZM13.4835 7.86977H2.8664V7.63411C2.8664 7.34884 2.97803 7.06357 3.18888 6.8155L6.42609 3.31783C6.66175 3.06977 6.97183 2.93333 7.30671 2.93333H12.7021C12.9129 2.93333 13.1114 3.02015 13.2602 3.16899C13.409 3.34263 13.4959 3.52868 13.4959 3.72713V7.86977H13.4835ZM2.99043 7.74574H13.3594V3.72713C13.3594 3.56589 13.2974 3.40465 13.161 3.25581C13.0369 3.13178 12.8757 3.06977 12.7021 3.06977H7.30671C7.00904 3.06977 6.72377 3.1938 6.52532 3.41705L3.28811 6.90233C3.10206 7.12558 3.00284 7.37364 3.00284 7.63411V7.74574H2.99043Z" fill="#2D3E50"/>
</svg>
