<svg width="12" height="12" viewBox="0 0 12 12" fill="none" xmlns="http://www.w3.org/2000/svg">
<path d="M9.69436 11.3283H2.59352C2.48701 11.3133 2.38009 11.3003 2.27398 11.2826C1.47443 11.1489 0.825817 10.4248 0.772662 9.61555C0.74223 9.16414 0.702262 8.71334 0.66615 8.26233C0.612589 7.59932 0.554159 6.93671 0.505468 6.2741C0.467326 5.7531 0.629225 5.29743 0.975746 4.90526C1.91103 3.84602 2.84895 2.78921 3.77693 1.72469C4.16869 1.27511 4.63653 1.00183 5.24254 1.00122C6.71681 0.999594 8.19108 0.999594 9.66535 1.00122C10.0501 1.00209 10.4246 1.12479 10.7353 1.35171C11.046 1.57864 11.2768 1.89813 11.3947 2.26436C11.4428 2.41408 11.4655 2.57192 11.5 2.72591V9.58329C11.4906 9.61195 11.4832 9.64123 11.4779 9.67094C11.4374 10.0512 11.2791 10.4094 11.0252 10.6953C10.7713 10.9813 10.4344 11.1808 10.0616 11.266C9.94086 11.2944 9.81609 11.308 9.69436 11.3283ZM6.12791 10.8156C7.25701 10.8156 8.38638 10.8156 9.51603 10.8156C9.62396 10.8156 9.73372 10.8156 9.83942 10.7979C10.511 10.6799 10.9607 10.1426 10.9609 9.46237C10.9609 7.26152 10.9609 5.06067 10.9609 2.85981C10.9637 2.78885 10.9603 2.71778 10.9508 2.64739C10.8307 1.96267 10.2898 1.51126 9.59332 1.51126C8.16315 1.51126 6.73311 1.51126 5.3032 1.51126C4.87715 1.51126 4.51886 1.66951 4.23706 1.98763C3.27148 3.07656 2.30773 4.16779 1.3458 5.26131C1.16524 5.46724 1.04331 5.70542 1.02789 5.98012C1.01632 6.18422 1.03235 6.39055 1.04817 6.59526C1.08023 7.03287 1.11878 7.47008 1.1559 7.90729C1.20074 8.43478 1.25532 8.96227 1.28981 9.49159C1.31882 9.93793 1.49086 10.2991 1.85199 10.5648C2.10681 10.7527 2.39855 10.817 2.71079 10.8164C3.8499 10.8146 4.98894 10.8144 6.12791 10.8156Z" fill="#2D3E50"/>
<path d="M6.02221 6.65878H1.68056C1.45597 6.65878 1.374 6.57904 1.37116 6.35628C1.36751 6.08239 1.36832 5.81053 1.4795 5.54983C1.57648 5.3224 1.74528 5.15279 1.90758 4.97689C2.71207 4.10504 3.51751 3.23381 4.32389 2.36318C4.59007 2.0765 4.92361 1.92982 5.31578 1.92962C6.7699 1.92827 8.22388 1.92827 9.67772 1.92962C10.2608 1.93104 10.6836 2.36439 10.6838 2.94808C10.6838 4.08421 10.6838 5.22035 10.6838 6.35648C10.6838 6.57357 10.6 6.65756 10.384 6.65756L6.02221 6.65878ZM1.9019 6.14163H10.1669V2.99211C10.1669 2.64275 9.96399 2.44149 9.61098 2.44128C8.20109 2.44128 6.79127 2.44128 5.38151 2.44128C5.11675 2.44128 4.8946 2.52913 4.71343 2.72532C4.23693 3.24131 3.75975 3.75683 3.2819 4.27188C2.89439 4.69144 2.50527 5.10958 2.12121 5.53238C1.96865 5.70016 1.88648 5.89939 1.9019 6.14163Z" fill="#2D3E50"/>
<path d="M6.21822 8.87785C7.61133 8.87785 9.00384 8.87785 10.3957 8.87785C10.571 8.87785 10.6779 8.96935 10.6836 9.12131C10.6891 9.26698 10.5996 9.37288 10.4528 9.39216C10.4225 9.39493 10.392 9.39568 10.3617 9.39439H2.05692C1.84938 9.39439 1.74124 9.29984 1.74509 9.12273C1.74519 9.06141 1.7683 9.00237 1.80985 8.95728C1.85141 8.9122 1.90838 8.88436 1.96948 8.87927C2.00641 8.87582 2.04394 8.87765 2.08107 8.87765L6.21822 8.87785Z" fill="#2D3E50"/>
<path d="M9.61625 8.02599C9.3525 8.02599 9.08875 8.03025 8.82501 8.02457C8.613 8.0199 8.49918 7.83549 8.58723 7.65127C8.60431 7.61018 8.63348 7.57527 8.67088 7.55117C8.70829 7.52707 8.75214 7.51492 8.79661 7.51635C9.34439 7.51534 9.89216 7.51433 10.4399 7.51635C10.584 7.51635 10.6804 7.61779 10.6834 7.75981C10.6875 7.90791 10.5978 8.01706 10.4477 8.02072C10.1705 8.02741 9.89338 8.02254 9.61584 8.02254L9.61625 8.02599Z" fill="#2D3E50"/>
<path d="M6.48602 3.1889C6.45275 3.24834 6.43043 3.31894 6.38458 3.36561C5.93608 3.81992 5.48514 4.2716 5.03177 4.72065C5.00847 4.74518 4.98048 4.76476 4.94946 4.77825C4.91843 4.79173 4.88501 4.79884 4.85118 4.79914C4.81736 4.79945 4.78382 4.79294 4.75256 4.78001C4.72129 4.76709 4.69295 4.748 4.66922 4.72389C4.56393 4.61556 4.56413 4.46948 4.67835 4.35445C5.05409 3.97574 5.43111 3.59831 5.80941 3.22217C5.89057 3.14102 5.96847 3.05601 6.05429 2.98033C6.13544 2.90953 6.2312 2.89918 6.32757 2.9495C6.41826 2.99677 6.46857 3.07325 6.48602 3.1889Z" fill="#2D3E50"/>
<path d="M5.61645 3.07083C5.5848 3.12804 5.5637 3.1952 5.52008 3.24064C5.32146 3.44738 5.11817 3.64965 4.91306 3.84928C4.79741 3.96229 4.65134 3.95985 4.54462 3.85233C4.43791 3.7448 4.44075 3.60055 4.55538 3.4843C4.75664 3.2802 4.95911 3.07732 5.1628 2.87566C5.24396 2.79451 5.34438 2.76854 5.45008 2.81865C5.54889 2.86572 5.60488 2.94707 5.61645 3.07083Z" fill="#2D3E50"/>
</svg>
