<svg width="12" height="12" viewBox="0 0 12 12" fill="none" xmlns="http://www.w3.org/2000/svg">
<path d="M1.30326 9.00933C1.33117 9.23258 1.38698 9.45584 1.50791 9.66049C1.79629 10.1814 2.35443 10.507 2.94977 10.507H9.49861C10.4009 10.507 11.1358 9.77212 11.1358 8.86979V2.70235C11.1358 1.80002 10.4009 1.06514 9.49861 1.06514H5.40559C4.93117 1.06514 4.47536 1.26979 4.16838 1.62328L1.4521 4.69305C1.15443 5.02793 1.01489 5.46514 1.0521 5.92095L1.30326 9.00933ZM1.37768 5.89305C1.34047 5.52095 1.47071 5.16747 1.70326 4.8977L4.41954 1.82793C4.68001 1.54886 5.0335 1.38142 5.41489 1.38142H9.48931C10.2149 1.38142 10.8102 1.97677 10.8102 2.70235V8.8884C10.8102 9.61398 10.2149 10.2093 9.48931 10.2093H2.94977C2.48466 10.2093 2.03815 9.94886 1.79629 9.53026C1.70326 9.37212 1.64745 9.19537 1.63815 9.00933L1.37768 5.89305Z" fill="#2D3E50"/>
<path d="M9.49863 10.5535H2.9498C2.32654 10.5535 1.7591 10.2186 1.47073 9.68837C1.3591 9.50233 1.29398 9.26977 1.26607 9.01861L1.00561 5.92093C0.9684 5.44651 1.11724 5 1.42421 4.65581L4.14049 1.57674C4.45677 1.21395 4.92189 1 5.40561 1H9.49863C10.4289 1 11.1824 1.75349 11.1824 2.68372V8.85116C11.1824 9.8 10.4289 10.5535 9.49863 10.5535ZM1.3498 9.0093C1.3777 9.25116 1.44282 9.46512 1.54514 9.64186C1.82421 10.1442 2.35445 10.4605 2.94049 10.4605H9.48933C10.3731 10.4605 11.08 9.74419 11.08 8.86977V2.70233C11.08 1.8186 10.3637 1.11163 9.48933 1.11163H5.39631C4.93119 1.11163 4.49398 1.30698 4.19631 1.65116V1.66047L1.48933 4.72093C1.20096 5.04651 1.06142 5.46512 1.09863 5.91163L1.3498 9.0093ZM9.48933 10.2465H2.9498C2.45677 10.2465 2.00096 9.97675 1.7591 9.53954C1.66607 9.37209 1.61026 9.18605 1.60096 9L1.33119 5.90233C1.29398 5.53023 1.42421 5.15814 1.66607 4.86977L4.38235 1.8C4.65212 1.50233 5.02421 1.33488 5.41491 1.33488H9.48933C10.2428 1.33488 10.8568 1.94884 10.8568 2.70233V8.88837C10.8475 9.63256 10.2428 10.2465 9.48933 10.2465ZM5.40561 1.42791C5.05212 1.42791 4.69863 1.58605 4.44747 1.85581L1.73119 4.92558C1.49863 5.18605 1.387 5.53954 1.41491 5.88372L1.68468 8.9814C1.69398 9.15814 1.7498 9.33488 1.83352 9.48372C2.05677 9.89302 2.48468 10.1442 2.94049 10.1442H9.48933C10.187 10.1442 10.7637 9.57675 10.7637 8.86977V2.70233C10.7637 2.00465 10.1963 1.42791 9.48933 1.42791H5.40561Z" fill="#2D3E50"/>
<path d="M8.72652 7.44649H10.2242C10.2707 7.44649 10.3079 7.42788 10.3451 7.39997C10.373 7.37207 10.3916 7.32556 10.3916 7.27904C10.3916 7.23253 10.373 7.19532 10.3451 7.15811C10.3172 7.13021 10.2707 7.1116 10.2242 7.1116H8.72652C8.68001 7.1116 8.6428 7.13021 8.60559 7.15811C8.57769 7.18602 8.55908 7.23253 8.55908 7.27904C8.55908 7.32556 8.57769 7.36277 8.60559 7.39997C8.6428 7.43718 8.68001 7.44649 8.72652 7.44649Z" fill="#2D3E50"/>
<path d="M10.2242 7.49303H8.7265C8.67069 7.49303 8.61487 7.47442 8.57766 7.43721C8.54046 7.4 8.52185 7.34419 8.52185 7.28838C8.52185 7.23256 8.54046 7.17675 8.57766 7.13954C8.61487 7.10233 8.67069 7.08372 8.7265 7.08372H10.2242C10.28 7.08372 10.3358 7.10233 10.373 7.13954C10.4102 7.17675 10.4288 7.23256 10.4288 7.28838C10.4288 7.34419 10.4102 7.4 10.373 7.43721C10.3358 7.47442 10.2893 7.49303 10.2242 7.49303ZM8.7265 7.16745C8.68929 7.16745 8.66139 7.17675 8.64278 7.19535C8.62418 7.21396 8.61487 7.24186 8.61487 7.27907C8.61487 7.31628 8.62418 7.34419 8.64278 7.36279C8.66139 7.3814 8.68929 7.3907 8.7265 7.3907H10.2242C10.2614 7.3907 10.2893 7.3814 10.3079 7.36279C10.3265 7.34419 10.3358 7.31628 10.3358 7.27907C10.3358 7.24186 10.3265 7.21396 10.3079 7.19535C10.2893 7.17675 10.2614 7.16745 10.2242 7.16745H8.7265Z" fill="#2D3E50"/>
<path d="M2.37301 8.72092H10.2335C10.28 8.72092 10.3172 8.70231 10.3544 8.6744C10.3823 8.6465 10.4009 8.59999 10.4009 8.55347C10.4009 8.50696 10.3823 8.46975 10.3544 8.43254C10.3265 8.40464 10.28 8.38603 10.2335 8.38603H2.37301C2.3265 8.38603 2.28929 8.40464 2.25208 8.43254C2.22417 8.46045 2.20557 8.50696 2.20557 8.55347C2.20557 8.59999 2.22417 8.6372 2.25208 8.6744C2.27999 8.70231 2.3265 8.72092 2.37301 8.72092Z" fill="#2D3E50"/>
<path d="M10.2242 8.76744H2.37305C2.31723 8.76744 2.26142 8.74884 2.22421 8.71163C2.187 8.67442 2.1684 8.6186 2.1684 8.56279C2.1684 8.50698 2.187 8.45116 2.22421 8.41395C2.26142 8.37674 2.31723 8.35814 2.37305 8.35814H10.2335C10.2893 8.35814 10.3451 8.37674 10.3823 8.41395C10.4196 8.45116 10.4382 8.50698 10.4382 8.56279C10.4382 8.6186 10.4196 8.67442 10.3823 8.71163C10.3358 8.74884 10.2893 8.76744 10.2242 8.76744ZM2.37305 8.44186C2.33584 8.44186 2.30793 8.45116 2.28933 8.46977C2.27072 8.48837 2.26142 8.51628 2.26142 8.55349C2.26142 8.5907 2.27072 8.6186 2.28933 8.63721C2.30793 8.65581 2.33584 8.66512 2.37305 8.66512H10.2335C10.2707 8.66512 10.2986 8.65581 10.3172 8.63721C10.3358 8.6186 10.3451 8.5907 10.3451 8.55349C10.3451 8.51628 10.3358 8.48837 10.3172 8.46977C10.2986 8.45116 10.2707 8.44186 10.2335 8.44186H2.37305Z" fill="#2D3E50"/>
<path d="M4.91261 4.39537C4.93121 4.41397 4.94051 4.42328 4.95912 4.43258C4.98703 4.44188 5.00563 4.44188 5.02423 4.44188C5.04284 4.44188 5.07075 4.44188 5.08935 4.43258C5.10796 4.42328 5.12656 4.41397 5.13586 4.39537L6.41028 3.12095C6.4754 3.05583 6.4754 2.95351 6.41028 2.8977C6.34517 2.84188 6.24284 2.83258 6.18703 2.8977L4.91261 4.17211C4.84749 4.23723 4.84749 4.33025 4.91261 4.39537Z" fill="#2D3E50"/>
<path d="M5.0242 4.4884C4.99629 4.4884 4.96838 4.47909 4.94047 4.46979C4.92187 4.46049 4.89396 4.44188 4.87536 4.42328C4.83815 4.38607 4.81024 4.33026 4.81024 4.27444C4.81024 4.21863 4.82885 4.17212 4.87536 4.12561L6.14978 2.86049C6.2335 2.77677 6.36373 2.77677 6.44745 2.86049C6.48466 2.8977 6.51257 2.95351 6.51257 3.00933C6.51257 3.06514 6.49397 3.11165 6.44745 3.15816L5.17303 4.43258C5.15443 4.45119 5.13582 4.46979 5.10792 4.47909C5.08931 4.4884 5.0614 4.4884 5.0242 4.4884ZM6.29862 2.8977C6.27071 2.8977 6.2428 2.907 6.21489 2.93491L4.94978 4.20002C4.93117 4.21863 4.91257 4.24654 4.91257 4.28375C4.91257 4.31165 4.92187 4.33956 4.94978 4.36747C4.95908 4.37677 4.97768 4.38607 4.98699 4.39537C5.01489 4.40468 5.0521 4.40468 5.08001 4.39537C5.08931 4.38607 5.10792 4.38607 5.11722 4.36747L6.39164 3.09305C6.41024 3.07444 6.42885 3.04654 6.42885 3.00933C6.42885 2.98142 6.41955 2.95351 6.39164 2.92561C6.36373 2.8977 6.32652 2.8977 6.29862 2.8977Z" fill="#2D3E50"/>
<path d="M4.80097 3.58603C4.81958 3.60464 4.82888 3.61394 4.84748 3.62324C4.86609 3.63255 4.88469 3.63255 4.9126 3.63255C4.93121 3.63255 4.95911 3.63255 4.97772 3.62324C4.99632 3.61394 5.01493 3.60464 5.02423 3.58603L5.60097 3.00929C5.66609 2.94417 5.66609 2.84185 5.60097 2.78604C5.53586 2.72092 5.43353 2.72092 5.37772 2.78604L4.80097 3.36278C4.73586 3.4279 4.73586 3.52092 4.80097 3.58603Z" fill="#2D3E50"/>
<path d="M4.91256 3.67907C4.88465 3.67907 4.85674 3.66977 4.82883 3.66046C4.81023 3.65116 4.78232 3.63256 4.76372 3.61395C4.68 3.53023 4.68 3.4 4.76372 3.31628L5.34046 2.73953C5.42418 2.65581 5.55442 2.65581 5.63814 2.73953C5.67535 2.77674 5.70325 2.83256 5.70325 2.88837C5.70325 2.94418 5.68465 2.9907 5.63814 3.03721L5.06139 3.61395C5.04279 3.63256 5.02418 3.65116 4.99628 3.66046C4.96837 3.67907 4.94046 3.67907 4.91256 3.67907ZM5.4893 2.77674C5.46139 2.77674 5.43349 2.78604 5.40558 2.81395L4.82883 3.3907C4.78232 3.43721 4.78232 3.50232 4.82883 3.54884C4.83814 3.55814 4.85674 3.56744 4.86604 3.57674C4.89395 3.58604 4.93116 3.58604 4.95907 3.57674C4.96837 3.56744 4.98697 3.56744 4.99628 3.54884L5.57302 2.97209C5.59163 2.95349 5.61023 2.92558 5.61023 2.88837C5.61023 2.86046 5.60093 2.83256 5.57302 2.80465C5.54511 2.77674 5.51721 2.77674 5.4893 2.77674Z" fill="#2D3E50"/>
<path d="M4.60558 2.29304L2.17767 4.91629C1.97302 5.13025 1.86139 5.41862 1.86139 5.7256V6.01397C1.86139 6.06048 1.87999 6.09769 1.9079 6.1349C1.93581 6.16281 1.98232 6.18141 2.02883 6.18141H10.2335C10.28 6.18141 10.3172 6.16281 10.3544 6.1349C10.3823 6.10699 10.4009 6.06048 10.4009 6.01397V2.79536V2.78606C10.4009 2.5535 10.3172 2.33025 10.1405 2.17211C9.98232 2.01397 9.75906 1.93025 9.5265 1.93025H5.47999C5.14511 1.92095 4.82883 2.06048 4.60558 2.29304ZM10.066 5.85583H2.19627V5.7256C2.19627 5.51164 2.27999 5.30699 2.42883 5.14885L4.85674 2.5256C5.02418 2.34885 5.23813 2.25583 5.47999 2.25583H9.5265C9.66604 2.25583 9.80557 2.31164 9.9079 2.41397C10.0102 2.5256 10.066 2.64653 10.066 2.79536V5.85583Z" fill="#2D3E50"/>
<path d="M10.2242 6.2279H2.01953C1.96372 6.2279 1.9079 6.20929 1.87069 6.17208C1.83349 6.13488 1.81488 6.07906 1.81488 6.02325V5.73488C1.81488 5.4186 1.92651 5.12092 2.14046 4.89767L2.14976 4.88836L4.56837 2.27441C4.80093 2.03255 5.12651 1.88371 5.47069 1.88371H9.52651C9.77767 1.88371 10.0009 1.97674 10.1684 2.14418C10.3451 2.30232 10.4381 2.53488 10.4381 2.78604V6.02325C10.4381 6.07906 10.4195 6.13488 10.3823 6.17208C10.3358 6.19999 10.2893 6.2279 10.2242 6.2279ZM2.20558 4.96278C2.01953 5.16743 1.9079 5.4372 1.9079 5.73488V6.02325C1.9079 6.06046 1.91721 6.08836 1.93581 6.10697C1.95442 6.12557 1.98232 6.13488 2.01953 6.13488H10.2242C10.2614 6.13488 10.2893 6.12557 10.3079 6.10697C10.3265 6.08836 10.3358 6.06046 10.3358 6.02325V2.77674C10.3358 2.55348 10.2521 2.34883 10.094 2.19999C9.94511 2.05115 9.74046 1.96743 9.51721 1.96743H5.47069C5.15442 1.96743 4.85674 2.09767 4.63349 2.32092L2.20558 4.96278ZM10.1126 5.90232H2.14976V5.72557C2.14976 5.51162 2.23349 5.29767 2.39162 5.11162L4.81953 2.48836C4.99628 2.30232 5.22883 2.19999 5.48 2.19999H9.52651C9.68465 2.19999 9.83349 2.26511 9.94511 2.37674C10.0567 2.50697 10.1219 2.6465 10.1219 2.79534V5.90232H10.1126ZM2.24279 5.80929H10.0195V2.79534C10.0195 2.67441 9.97302 2.55348 9.8707 2.44185C9.77767 2.34883 9.65674 2.30232 9.52651 2.30232H5.48C5.25674 2.30232 5.04279 2.39534 4.89395 2.56278L2.46604 5.17674C2.32651 5.34418 2.25209 5.53022 2.25209 5.72557V5.80929H2.24279Z" fill="#2D3E50"/>
</svg>
