<svg width="24" height="24" viewBox="0 0 24 24" fill="none" xmlns="http://www.w3.org/2000/svg">
<path d="M19.3887 22.6565H5.18704C4.97401 22.6265 4.76018 22.6005 4.54796 22.5652C2.94886 22.2978 1.65163 20.8497 1.54532 19.2311C1.48446 18.3283 1.40452 17.4267 1.3323 16.5247C1.22518 15.1986 1.10832 13.8734 1.01094 12.5482C0.934652 11.5062 1.25845 10.5949 1.95149 9.81052C3.82206 7.69203 5.69789 5.57842 7.55385 3.44938C8.33738 2.55021 9.27307 2.00365 10.4851 2.00243C13.4336 1.99919 16.3822 1.99919 19.3307 2.00243C20.1002 2.00418 20.8493 2.24958 21.4706 2.70342C22.092 3.15727 22.5537 3.79625 22.7894 4.52871C22.8856 4.82816 22.931 5.14385 23 5.45182V19.1666C22.9811 19.2239 22.9663 19.2825 22.9558 19.3419C22.8748 20.1024 22.5583 20.8187 22.0504 21.3906C21.5426 21.9626 20.8688 22.3616 20.1231 22.532C19.8817 22.5888 19.6322 22.616 19.3887 22.6565ZM12.2558 21.6312C14.514 21.6312 16.7728 21.6312 19.0321 21.6312C19.2479 21.6312 19.4674 21.6312 19.6788 21.5959C21.0219 21.3597 21.9215 20.2853 21.9219 18.9247C21.9219 14.523 21.9219 10.1213 21.9219 5.71962C21.9274 5.57769 21.9206 5.43555 21.9016 5.29479C21.6614 3.92534 20.5796 3.02252 19.1866 3.02252C16.3263 3.02252 13.4662 3.02252 10.6064 3.02252C9.7543 3.02252 9.03772 3.33902 8.47412 3.97525C6.54296 6.15311 4.61546 8.33557 2.6916 10.5226C2.33047 10.9345 2.08661 11.4108 2.05577 11.9602C2.03264 12.3684 2.0647 12.7811 2.09635 13.1905C2.16046 14.0657 2.23755 14.9402 2.31181 15.8146C2.40148 16.8696 2.51063 17.9245 2.57961 18.9832C2.63764 19.8759 2.98172 20.5981 3.70398 21.1297C4.21362 21.5054 4.7971 21.634 5.42157 21.6328C7.69979 21.6293 9.97787 21.6287 12.2558 21.6312Z" fill="#2D3E50"/>
<path d="M12.0444 13.3176H3.36108C2.9119 13.3176 2.74798 13.1581 2.7423 12.7126C2.73499 12.1648 2.73661 11.6211 2.95897 11.0997C3.15293 10.6448 3.49052 10.3056 3.81513 9.95378C5.42411 8.21009 7.03499 6.46761 8.64776 4.72635C9.18012 4.15301 9.84719 3.85964 10.6315 3.85924C13.5398 3.85653 16.4477 3.85653 19.3554 3.85924C20.5216 3.86208 21.3672 4.72878 21.3676 5.89616C21.3676 8.16843 21.3676 10.4407 21.3676 12.713C21.3676 13.1471 21.2 13.3151 20.7679 13.3151L12.0444 13.3176ZM3.80377 12.2833H20.3337V5.98421C20.3337 5.28549 19.9279 4.88298 19.2219 4.88257C16.4021 4.88257 13.5825 4.88257 10.763 4.88257C10.2335 4.88257 9.78917 5.05826 9.42682 5.45064C8.47382 6.48262 7.51947 7.51367 6.56376 8.54376C5.78876 9.38288 5.01051 10.2192 4.2424 11.0648C3.93727 11.4003 3.77293 11.7988 3.80377 12.2833Z" fill="#2D3E50"/>
<path d="M12.4364 17.7557C15.2226 17.7557 18.0076 17.7557 20.7914 17.7557C21.142 17.7557 21.3558 17.9387 21.3672 18.2426C21.3782 18.534 21.1992 18.7458 20.9054 18.7843C20.8449 18.7899 20.784 18.7914 20.7233 18.7888H4.11378C3.69869 18.7888 3.48242 18.5997 3.49013 18.2455C3.49032 18.1228 3.53654 18.0047 3.61965 17.9146C3.70276 17.8244 3.81669 17.7687 3.9389 17.7585C4.01275 17.7516 4.08782 17.7553 4.16207 17.7553L12.4364 17.7557Z" fill="#2D3E50"/>
<path d="M19.2325 16.052C18.705 16.052 18.1775 16.0605 17.65 16.0491C17.226 16.0398 16.9984 15.671 17.1745 15.3025C17.2086 15.2204 17.267 15.1505 17.3418 15.1023C17.4166 15.0541 17.5043 15.0298 17.5932 15.0327C18.6888 15.0307 19.7844 15.0287 20.8799 15.0327C21.168 15.0327 21.3607 15.2356 21.3668 15.5196C21.3749 15.8158 21.1956 16.0341 20.8953 16.0414C20.3411 16.0548 19.7868 16.0451 19.2317 16.0451L19.2325 16.052Z" fill="#2D3E50"/>
<path d="M12.972 6.37779C12.9055 6.49668 12.8608 6.63789 12.7691 6.73121C11.8721 7.63985 10.9703 8.54321 10.0635 9.4413C10.0169 9.49035 9.96093 9.52953 9.89888 9.5565C9.83683 9.58347 9.76999 9.59768 9.70234 9.59829C9.63469 9.59889 9.5676 9.58588 9.50508 9.56002C9.44256 9.53417 9.38588 9.496 9.33841 9.44779C9.12782 9.23111 9.12823 8.93896 9.35667 8.7089C10.1081 7.95147 10.8622 7.19662 11.6188 6.44434C11.7811 6.28203 11.9369 6.11202 12.1086 5.96067C12.2709 5.81906 12.4624 5.79836 12.6551 5.89899C12.8365 5.99353 12.9371 6.14651 12.972 6.37779Z" fill="#2D3E50"/>
<path d="M11.2329 6.14164C11.1696 6.25607 11.1274 6.39038 11.0402 6.48127C10.6429 6.89474 10.2363 7.29928 9.82611 7.69855C9.59483 7.92456 9.30268 7.91969 9.08925 7.70464C8.87582 7.48958 8.8815 7.20109 9.11075 6.96859C9.51327 6.56039 9.91822 6.15463 10.3256 5.7513C10.4879 5.589 10.6888 5.53706 10.9002 5.63728C11.0978 5.73142 11.2098 5.89413 11.2329 6.14164Z" fill="#2D3E50"/>
</svg>
