<svg width="24" height="24" viewBox="0 0 24 24" fill="none" xmlns="http://www.w3.org/2000/svg">
<path d="M2.60656 18.0187C2.66237 18.4652 2.774 18.9117 3.01586 19.321C3.5926 20.3628 4.70888 21.014 5.89958 21.014H18.9973C20.8019 21.014 22.2717 19.5442 22.2717 17.7396V5.4047C22.2717 3.60005 20.8019 2.13028 18.9973 2.13028H10.8112C9.86237 2.13028 8.95074 2.53958 8.33679 3.24656L2.90423 9.38609C2.30888 10.0559 2.02981 10.9303 2.10423 11.8419L2.60656 18.0187ZM2.75539 11.7861C2.68098 11.0419 2.94144 10.3349 3.40656 9.7954L8.83912 3.65586C9.36005 3.09772 10.067 2.76284 10.8298 2.76284H18.9786C20.4298 2.76284 21.6205 3.95354 21.6205 5.4047V17.7768C21.6205 19.228 20.4298 20.4187 18.9786 20.4187H5.89958C4.96935 20.4187 4.07632 19.8977 3.5926 19.0605C3.40656 18.7442 3.29493 18.3907 3.27632 18.0187L2.75539 11.7861Z" fill="#2D3E50"/>
<path d="M18.9973 21.107H5.89959C4.65308 21.107 3.5182 20.4372 2.94145 19.3767C2.7182 19.0047 2.58796 18.5395 2.53215 18.0372L2.01122 11.8419C1.9368 10.893 2.23448 10 2.84843 9.31163L8.28099 3.15349C8.91354 2.42791 9.84378 2 10.8112 2H18.9973C20.8577 2 22.3647 3.50698 22.3647 5.36744V17.7023C22.3647 19.6 20.8577 21.107 18.9973 21.107ZM2.69959 18.0186C2.75541 18.5023 2.88564 18.9302 3.09029 19.2837C3.64843 20.2884 4.70889 20.9209 5.88099 20.9209H18.9787C20.7461 20.9209 22.1601 19.4884 22.1601 17.7395V5.40465C22.1601 3.63721 20.7275 2.22326 18.9787 2.22326H10.7926C9.86238 2.22326 8.98796 2.61395 8.39261 3.30233V3.32093L2.97866 9.44186C2.40192 10.093 2.12285 10.9302 2.19727 11.8233L2.69959 18.0186ZM18.9787 20.493H5.89959C4.91354 20.493 4.00192 19.9535 3.5182 19.0791C3.33215 18.7442 3.22052 18.3721 3.20192 18L2.66238 11.8047C2.58796 11.0605 2.84843 10.3163 3.33215 9.73954L8.76471 3.6C9.30424 3.00465 10.0484 2.66977 10.8298 2.66977H18.9787C20.4856 2.66977 21.7135 3.89767 21.7135 5.40465V17.7767C21.6949 19.2651 20.4856 20.493 18.9787 20.493ZM10.8112 2.85581C10.1042 2.85581 9.39727 3.17209 8.89494 3.71163L3.46238 9.85116C2.99727 10.3721 2.77401 11.0791 2.82982 11.7674L3.36936 17.9628C3.38796 18.3163 3.49959 18.6698 3.66703 18.9674C4.11354 19.786 4.96936 20.2884 5.88099 20.2884H18.9787C20.374 20.2884 21.5275 19.1535 21.5275 17.7395V5.40465C21.5275 4.0093 20.3926 2.85581 18.9787 2.85581H10.8112Z" fill="#2D3E50"/>
<path d="M17.4531 14.893H20.4484C20.5415 14.893 20.6159 14.8557 20.6903 14.7999C20.7461 14.7441 20.7833 14.6511 20.7833 14.5581C20.7833 14.4651 20.7461 14.3906 20.6903 14.3162C20.6345 14.2604 20.5415 14.2232 20.4484 14.2232H17.4531C17.3601 14.2232 17.2856 14.2604 17.2112 14.3162C17.1554 14.372 17.1182 14.4651 17.1182 14.5581C17.1182 14.6511 17.1554 14.7255 17.2112 14.7999C17.2856 14.8744 17.3601 14.893 17.4531 14.893Z" fill="#2D3E50"/>
<path d="M20.4484 14.986H17.4531C17.3414 14.986 17.2298 14.9488 17.1554 14.8744C17.081 14.8 17.0438 14.6884 17.0438 14.5767C17.0438 14.4651 17.081 14.3535 17.1554 14.2791C17.2298 14.2046 17.3414 14.1674 17.4531 14.1674H20.4484C20.56 14.1674 20.6717 14.2046 20.7461 14.2791C20.8205 14.3535 20.8577 14.4651 20.8577 14.5767C20.8577 14.6884 20.8205 14.8 20.7461 14.8744C20.6717 14.9488 20.5786 14.986 20.4484 14.986ZM17.4531 14.3349C17.3786 14.3349 17.3228 14.3535 17.2856 14.3907C17.2484 14.4279 17.2298 14.4837 17.2298 14.5581C17.2298 14.6325 17.2484 14.6884 17.2856 14.7256C17.3228 14.7628 17.3786 14.7814 17.4531 14.7814H20.4484C20.5228 14.7814 20.5786 14.7628 20.6159 14.7256C20.6531 14.6884 20.6717 14.6325 20.6717 14.5581C20.6717 14.4837 20.6531 14.4279 20.6159 14.3907C20.5786 14.3535 20.5228 14.3349 20.4484 14.3349H17.4531Z" fill="#2D3E50"/>
<path d="M4.74608 17.4418H20.467C20.56 17.4418 20.6344 17.4046 20.7089 17.3488C20.7647 17.293 20.8019 17.2 20.8019 17.107C20.8019 17.0139 20.7647 16.9395 20.7089 16.8651C20.6531 16.8093 20.56 16.7721 20.467 16.7721H4.74608C4.65305 16.7721 4.57864 16.8093 4.50422 16.8651C4.4484 16.9209 4.41119 17.0139 4.41119 17.107C4.41119 17.2 4.4484 17.2744 4.50422 17.3488C4.56003 17.4046 4.65305 17.4418 4.74608 17.4418Z" fill="#2D3E50"/>
<path d="M20.4484 17.5349H4.74609C4.63447 17.5349 4.52284 17.4977 4.44842 17.4233C4.374 17.3489 4.33679 17.2372 4.33679 17.1256C4.33679 17.014 4.374 16.9023 4.44842 16.8279C4.52284 16.7535 4.63447 16.7163 4.74609 16.7163H20.467C20.5787 16.7163 20.6903 16.7535 20.7647 16.8279C20.8391 16.9023 20.8763 17.014 20.8763 17.1256C20.8763 17.2372 20.8391 17.3489 20.7647 17.4233C20.6717 17.4977 20.5787 17.5349 20.4484 17.5349ZM4.74609 16.8837C4.67168 16.8837 4.61586 16.9023 4.57865 16.9395C4.54144 16.9768 4.52284 17.0326 4.52284 17.107C4.52284 17.1814 4.54144 17.2372 4.57865 17.2744C4.61586 17.3116 4.67168 17.3302 4.74609 17.3302H20.467C20.5414 17.3302 20.5973 17.3116 20.6345 17.2744C20.6717 17.2372 20.6903 17.1814 20.6903 17.107C20.6903 17.0326 20.6717 16.9768 20.6345 16.9395C20.5973 16.9023 20.5414 16.8837 20.467 16.8837H4.74609Z" fill="#2D3E50"/>
<path d="M9.82518 8.79072C9.86239 8.82793 9.881 8.84654 9.91821 8.86514C9.97402 8.88375 10.0112 8.88375 10.0484 8.88375C10.0856 8.88375 10.1415 8.88375 10.1787 8.86514C10.2159 8.84654 10.2531 8.82793 10.2717 8.79072L12.8205 6.24189C12.9508 6.11165 12.9508 5.907 12.8205 5.79538C12.6903 5.68375 12.4856 5.66514 12.374 5.79538L9.82518 8.34421C9.69495 8.47445 9.69495 8.66049 9.82518 8.79072Z" fill="#2D3E50"/>
<path d="M10.0484 8.97679C9.99261 8.97679 9.93679 8.95819 9.88098 8.93958C9.84377 8.92098 9.78796 8.88377 9.75075 8.84656C9.67633 8.77214 9.62051 8.66052 9.62051 8.54889C9.62051 8.43726 9.65772 8.34424 9.75075 8.25121L12.2996 5.72098C12.467 5.55354 12.7275 5.55354 12.8949 5.72098C12.9694 5.7954 13.0252 5.90703 13.0252 6.01865C13.0252 6.13028 12.988 6.22331 12.8949 6.31633L10.3461 8.86517C10.3089 8.90238 10.2717 8.93959 10.2159 8.95819C10.1787 8.97679 10.1228 8.97679 10.0484 8.97679ZM12.5973 5.7954C12.5414 5.7954 12.4856 5.814 12.4298 5.86982L9.89958 8.40005C9.86237 8.43726 9.82517 8.49307 9.82517 8.56749C9.82517 8.62331 9.84377 8.67912 9.89958 8.73493C9.91819 8.75354 9.9554 8.77214 9.974 8.79075C10.0298 8.80935 10.1042 8.80935 10.16 8.79075C10.1787 8.77214 10.2159 8.77214 10.2345 8.73493L12.7833 6.1861C12.8205 6.14889 12.8577 6.09307 12.8577 6.01865C12.8577 5.96284 12.8391 5.90703 12.7833 5.85121C12.7275 5.7954 12.6531 5.7954 12.5973 5.7954Z" fill="#2D3E50"/>
<path d="M9.60192 7.17205C9.63913 7.20926 9.65773 7.22787 9.69494 7.24647C9.73215 7.26508 9.76936 7.26508 9.82517 7.26508C9.86238 7.26508 9.9182 7.26508 9.9554 7.24647C9.99261 7.22787 10.0298 7.20926 10.0484 7.17205L11.2019 6.01857C11.3321 5.88833 11.3321 5.68368 11.2019 5.57205C11.0717 5.44182 10.867 5.44182 10.7554 5.57205L9.60192 6.72554C9.47168 6.85578 9.47168 7.04182 9.60192 7.17205Z" fill="#2D3E50"/>
<path d="M9.82517 7.35812C9.76936 7.35812 9.71354 7.33952 9.65773 7.32091C9.62052 7.30231 9.56471 7.2651 9.5275 7.22789C9.36006 7.06045 9.36006 6.79998 9.5275 6.63254L10.681 5.47905C10.8484 5.31161 11.1089 5.31161 11.2763 5.47905C11.3508 5.55347 11.4066 5.6651 11.4066 5.77673C11.4066 5.88835 11.3694 5.98138 11.2763 6.0744L10.1228 7.22789C10.0856 7.2651 10.0484 7.30231 9.99261 7.32091C9.9368 7.35812 9.88099 7.35812 9.82517 7.35812ZM10.9787 5.55347C10.9228 5.55347 10.867 5.57207 10.8112 5.62789L9.65773 6.78138C9.56471 6.8744 9.56471 7.00463 9.65773 7.09766C9.67634 7.11626 9.71354 7.13487 9.73215 7.15347C9.78796 7.17207 9.86238 7.17207 9.9182 7.15347C9.9368 7.13487 9.97401 7.13487 9.99261 7.09766L11.1461 5.94417C11.1833 5.90696 11.2205 5.85114 11.2205 5.77673C11.2205 5.72091 11.2019 5.6651 11.1461 5.60928C11.0903 5.55347 11.0345 5.55347 10.9787 5.55347Z" fill="#2D3E50"/>
<path d="M9.21121 4.58609L4.3554 9.8326C3.9461 10.2605 3.72284 10.8373 3.72284 11.4512V12.028C3.72284 12.121 3.76005 12.1954 3.81586 12.2698C3.87168 12.3256 3.9647 12.3628 4.05772 12.3628H20.467C20.56 12.3628 20.6345 12.3256 20.7089 12.2698C20.7647 12.214 20.8019 12.121 20.8019 12.028V5.59074V5.57214C20.8019 5.10702 20.6345 4.66051 20.281 4.34423C19.9647 4.02795 19.5182 3.86051 19.0531 3.86051H10.96C10.2903 3.84191 9.65772 4.12097 9.21121 4.58609ZM20.1321 11.7117H4.39261V11.4512C4.39261 11.0233 4.56005 10.614 4.85772 10.2977L9.71354 5.05121C10.0484 4.69772 10.4763 4.51167 10.96 4.51167H19.0531C19.3321 4.51167 19.6112 4.6233 19.8159 4.82795C20.0205 5.05121 20.1321 5.29307 20.1321 5.59074V11.7117Z" fill="#2D3E50"/>
<path d="M20.4484 12.4558H4.03912C3.9275 12.4558 3.81587 12.4186 3.74145 12.3442C3.66703 12.2698 3.62982 12.1581 3.62982 12.0465V11.4698C3.62982 10.8372 3.85308 10.2419 4.28098 9.79535L4.29959 9.77674L9.1368 4.54884C9.60191 4.06512 10.2531 3.76744 10.9414 3.76744H19.0531C19.5554 3.76744 20.0019 3.95349 20.3368 4.28837C20.6903 4.60465 20.8763 5.06977 20.8763 5.57209V12.0465C20.8763 12.1581 20.8391 12.2698 20.7647 12.3442C20.6717 12.4 20.5787 12.4558 20.4484 12.4558ZM4.41122 9.92558C4.03912 10.3349 3.81587 10.8744 3.81587 11.4698V12.0465C3.81587 12.1209 3.83447 12.1767 3.87168 12.214C3.90889 12.2512 3.96471 12.2698 4.03912 12.2698H20.4484C20.5228 12.2698 20.5787 12.2512 20.6159 12.214C20.6531 12.1767 20.6717 12.1209 20.6717 12.0465V5.55349C20.6717 5.10698 20.5042 4.69767 20.188 4.4C19.8903 4.10232 19.481 3.93488 19.0345 3.93488H10.9414C10.3089 3.93488 9.71354 4.19535 9.26703 4.64186L4.41122 9.92558ZM20.2252 11.8046H4.29959V11.4512C4.29959 11.0233 4.46703 10.5953 4.78331 10.2233L9.63912 4.97674C9.99261 4.60465 10.4577 4.4 10.9601 4.4H19.0531C19.3694 4.4 19.667 4.53023 19.8903 4.75349C20.1135 5.01395 20.2438 5.29302 20.2438 5.5907V11.8046H20.2252ZM4.48564 11.6186H20.0391V5.5907C20.0391 5.34884 19.9461 5.10698 19.7414 4.88372C19.5554 4.69767 19.3135 4.60465 19.0531 4.60465H10.9601C10.5135 4.60465 10.0856 4.7907 9.78796 5.12558L4.93215 10.3535C4.65308 10.6884 4.50424 11.0605 4.50424 11.4512V11.6186H4.48564Z" fill="#2D3E50"/>
</svg>
