<svg width="16" height="16" viewBox="0 0 16 16" fill="none" xmlns="http://www.w3.org/2000/svg">
<path d="M6.19215 2.06127L6.52844 2.64374L6.19215 2.06127ZM7.51958 1.42158L7.65941 2.07946H7.65942L7.51958 1.42158ZM3.56619 3.57736L3.2299 2.99489L3.56619 3.57736ZM2.34849 4.4071L1.84866 3.95706L2.34849 4.4071ZM1.88236 5.21447L2.52203 5.4223L1.88236 5.21447ZM1.88236 11.1855L2.52203 10.9777L1.88236 11.1855ZM2.34849 11.9929L2.84831 11.5429L2.34849 11.9929ZM3.56619 12.8227L3.90249 12.2402L3.56619 12.8227ZM6.19215 14.3388L5.85585 14.9212L6.19215 14.3388ZM7.51958 14.9784L7.65942 14.3205L7.51958 14.9784ZM8.45184 14.9784L8.312 14.3205L8.45184 14.9784ZM9.77926 14.3388L10.1156 14.9212L10.1343 14.9104L10.1523 14.8983L9.77926 14.3388ZM9.77927 14.3388L9.44298 13.7563L9.42422 13.7671L9.40619 13.7791L9.77927 14.3388ZM12.4052 12.8227L12.0689 12.2402L12.4052 12.8227ZM13.6229 11.9929L13.1231 11.5429L13.6229 11.9929ZM14.089 11.1855L13.4494 10.9777L14.089 11.1855ZM14.089 5.21447L13.4494 5.4223L14.089 5.21447ZM13.6229 4.4071L13.1231 4.85715L13.6229 4.4071ZM12.4052 3.57736L12.0689 4.15983L12.4052 3.57736ZM9.77927 2.06127L9.44037 2.64224L9.44298 2.64374L9.77927 2.06127ZM9.77926 2.06126L10.1182 1.48029L10.1156 1.47878L9.77926 2.06126ZM8.45184 1.42158L8.312 2.07946L8.45184 1.42158ZM6.52844 2.64374C7.22113 2.24382 7.44102 2.12588 7.65941 2.07946L7.37974 0.763687C6.90347 0.86492 6.46996 1.12423 5.85585 1.47879L6.52844 2.64374ZM3.90249 4.15983L6.52844 2.64374L5.85585 1.47879L3.2299 2.99489L3.90249 4.15983ZM2.84831 4.85715C2.99772 4.69123 3.2098 4.55976 3.90249 4.15983L3.2299 2.99489C2.61579 3.34944 2.17446 3.59522 1.84866 3.95706L2.84831 4.85715ZM2.52203 5.4223C2.58999 5.21314 2.70115 5.02059 2.84831 4.85715L1.84866 3.95706C1.57536 4.26059 1.36891 4.61818 1.24269 5.00663L2.52203 5.4223ZM2.44522 6.6839C2.44522 5.88405 2.45303 5.63465 2.52203 5.4223L1.24269 5.00663C1.09223 5.4697 1.10004 5.97478 1.10004 6.6839H2.44522ZM2.44522 9.71612V6.6839H1.10004V9.71612H2.44522ZM2.52203 10.9777C2.45303 10.7653 2.44522 10.516 2.44522 9.71612H1.10004C1.10004 10.4252 1.09223 10.9303 1.24269 11.3934L2.52203 10.9777ZM2.84831 11.5429C2.70115 11.3794 2.58999 11.1868 2.52203 10.9777L1.24269 11.3934C1.36891 11.7818 1.57536 12.1394 1.84866 12.443L2.84831 11.5429ZM3.90249 12.2402C3.20979 11.8402 2.99772 11.7088 2.84831 11.5429L1.84866 12.443C2.17446 12.8048 2.61579 13.0505 3.2299 13.4051L3.90249 12.2402ZM6.52844 13.7563L3.90249 12.2402L3.2299 13.4051L5.85585 14.9212L6.52844 13.7563ZM7.65942 14.3205C7.44102 14.2741 7.22113 14.1562 6.52844 13.7563L5.85585 14.9212C6.46996 15.2758 6.90347 15.5351 7.37974 15.6363L7.65942 14.3205ZM8.312 14.3205C8.09687 14.3663 7.87454 14.3663 7.65942 14.3205L7.37974 15.6363C7.77926 15.7212 8.19216 15.7212 8.59167 15.6363L8.312 14.3205ZM9.44297 13.7563C8.75029 14.1562 8.53039 14.2741 8.312 14.3205L8.59167 15.6363C9.06794 15.5351 9.50145 15.2758 10.1156 14.9212L9.44297 13.7563ZM9.40619 13.7791H9.40618L10.1523 14.8983L9.40619 13.7791ZM12.0689 12.2402L9.44298 13.7563L10.1156 14.9212L12.7415 13.4051L12.0689 12.2402ZM13.1231 11.5429C12.9737 11.7088 12.7616 11.8402 12.0689 12.2402L12.7415 13.4051C13.3556 13.0505 13.797 12.8048 14.1228 12.443L13.1231 11.5429ZM13.4494 10.9777C13.3814 11.1868 13.2703 11.3794 13.1231 11.5429L14.1228 12.443C14.3961 12.1394 14.6025 11.7818 14.7287 11.3934L13.4494 10.9777ZM13.5262 9.71612C13.5262 10.516 13.5184 10.7653 13.4494 10.9777L14.7287 11.3934C14.8792 10.9303 14.8714 10.4252 14.8714 9.71612H13.5262ZM13.5262 6.6839V9.71612H14.8714V6.6839H13.5262ZM13.4494 5.4223C13.5184 5.63465 13.5262 5.88405 13.5262 6.6839H14.8714C14.8714 5.97478 14.8792 5.4697 14.7287 5.00662L13.4494 5.4223ZM13.1231 4.85715C13.2703 5.02059 13.3814 5.21314 13.4494 5.4223L14.7287 5.00663C14.6025 4.61818 14.3961 4.26059 14.1228 3.95706L13.1231 4.85715ZM12.0689 4.15983C12.7616 4.55976 12.9737 4.69123 13.1231 4.85715L14.1228 3.95706C13.797 3.59522 13.3556 3.34944 12.7415 2.99489L12.0689 4.15983ZM9.44298 2.64374L12.0689 4.15983L12.7415 2.99489L10.1156 1.47879L9.44298 2.64374ZM9.44037 2.64222L9.44038 2.64223L10.1182 1.4803L9.44037 2.64222ZM8.312 2.07946C8.53039 2.12588 8.75029 2.24382 9.44297 2.64374L10.1156 1.47878C9.50145 1.12423 9.06794 0.86492 8.59167 0.763687L8.312 2.07946ZM7.65942 2.07946C7.87454 2.03374 8.09687 2.03374 8.312 2.07946L8.59167 0.763687C8.19216 0.678767 7.77926 0.678767 7.37974 0.763687L7.65942 2.07946ZM9.55507 8.20005C9.55507 9.06678 8.85245 9.76938 7.98571 9.76938V11.1146C9.59537 11.1146 10.9003 9.80974 10.9003 8.20005H9.55507ZM7.98571 6.63068C8.85245 6.63068 9.55507 7.33331 9.55507 8.20005H10.9003C10.9003 6.59039 9.59537 5.28551 7.98571 5.28551V6.63068ZM6.41634 8.20005C6.41634 7.33331 7.11897 6.63068 7.98571 6.63068V5.28551C6.37605 5.28551 5.07117 6.59039 5.07117 8.20005H6.41634ZM7.98571 9.76938C7.11897 9.76938 6.41634 9.06678 6.41634 8.20005H5.07117C5.07117 9.80974 6.37605 11.1146 7.98571 11.1146V9.76938Z" fill="#2D3E50"/>
</svg>
