<svg width="12" height="12" viewBox="0 0 12 12" fill="none" xmlns="http://www.w3.org/2000/svg">
<path d="M4.26044 1.91092L4.526 2.37088L4.26044 1.91092ZM5.57074 1.27948L5.68116 1.799L5.57074 1.27948ZM3.2016 2.52223L2.93603 2.06227L2.92799 2.06692L2.9201 2.07185L3.2016 2.52223ZM3.2016 2.52224L3.46716 2.9822L3.4752 2.97755L3.48309 2.97263L3.2016 2.52224ZM1.99961 3.34127L1.60491 2.98588L1.99961 3.34127ZM1.5395 4.13821L2.04463 4.30233L1.5395 4.13821ZM1.5395 8.26178L2.04463 8.09766L1.5395 8.26178ZM1.99961 9.0587L2.39431 8.70333L1.99961 9.0587ZM3.2016 9.87778L2.93603 10.3377L3.2016 9.87778ZM4.26044 10.4891L4.526 10.0291L4.26044 10.4891ZM5.57074 11.1205L5.46031 11.64L5.57074 11.1205ZM6.49096 11.1205L6.60138 11.64L6.49096 11.1205ZM7.80126 10.4891L7.5357 10.0291H7.53569L7.80126 10.4891ZM8.8601 9.87778L9.12566 10.3377L8.8601 9.87778ZM10.0621 9.0587L9.66737 8.70333L10.0621 9.0587ZM10.5222 8.26178L11.0273 8.42591L10.5222 8.26178ZM10.5222 4.13821L11.0273 3.97408L10.5222 4.13821ZM10.0621 3.34127L10.4568 2.98588L10.0621 3.34127ZM8.8601 2.52223L9.12566 2.06227L8.8601 2.52223ZM7.80126 1.91092L7.5357 2.37088L7.80126 1.91092ZM6.49096 1.27948L6.38054 1.799L6.49096 1.27948ZM4.526 2.37088C5.20199 1.98059 5.44014 1.85023 5.68116 1.799L5.46031 0.759963C5.01565 0.854479 4.60881 1.09648 3.99488 1.45095L4.526 2.37088ZM3.46716 2.9822L4.526 2.37088L3.99488 1.45095L2.93603 2.06227L3.46716 2.9822ZM3.48309 2.97263V2.97262L2.9201 2.07185L3.48309 2.97263ZM2.39431 3.69666C2.55919 3.51354 2.79116 3.37249 3.46716 2.9822L2.93603 2.06227C2.32209 2.41673 1.9091 2.64804 1.60491 2.98588L2.39431 3.69666ZM2.04463 4.30233C2.11747 4.07817 2.2366 3.87182 2.39431 3.69666L1.60491 2.98588C1.34759 3.27166 1.15321 3.60834 1.03437 3.97408L2.04463 4.30233ZM1.96231 5.58868C1.96231 4.8081 1.96848 4.53668 2.04463 4.30233L1.03437 3.97408C0.893893 4.40643 0.900065 4.87976 0.900065 5.58868H1.96231ZM1.96231 6.81131V5.58868H0.900065V6.81131H1.96231ZM2.04463 8.09766C1.96848 7.86331 1.96231 7.59189 1.96231 6.81131H0.900065C0.900065 7.52023 0.893893 7.99356 1.03437 8.42591L2.04463 8.09766ZM2.39431 8.70333C2.2366 8.52817 2.11747 8.32182 2.04463 8.09766L1.03437 8.42591C1.15321 8.79165 1.34759 9.12837 1.60491 9.41411L2.39431 8.70333ZM3.46716 9.41783C2.79116 9.02754 2.55919 8.88644 2.39431 8.70333L1.60491 9.41411C1.9091 9.7519 2.3221 9.9833 2.93603 10.3377L3.46716 9.41783ZM4.526 10.0291L3.46716 9.41783L2.93603 10.3377L3.99488 10.9491L4.526 10.0291ZM5.68116 10.601C5.44014 10.5497 5.20199 10.4194 4.526 10.0291L3.99487 10.9491C4.60881 11.3035 5.01565 11.5455 5.46031 11.64L5.68116 10.601ZM6.38054 10.601C6.14998 10.65 5.91171 10.65 5.68116 10.601L5.46031 11.64C5.83647 11.72 6.22523 11.72 6.60138 11.64L6.38054 10.601ZM7.53569 10.0291C6.85971 10.4194 6.62156 10.5497 6.38054 10.601L6.60138 11.64C7.04605 11.5455 7.45288 11.3035 8.06682 10.9491L7.53569 10.0291ZM8.59454 9.41783L7.5357 10.0291L8.06682 10.9491L9.12566 10.3377L8.59454 9.41783ZM9.66737 8.70333C9.5025 8.88644 9.27053 9.02754 8.59454 9.41783L9.12566 10.3377C9.7396 9.9833 10.1526 9.7519 10.4568 9.41411L9.66737 8.70333ZM10.017 8.09766C9.94426 8.32182 9.82512 8.52817 9.66737 8.70333L10.4568 9.41411C10.7141 9.12837 10.9085 8.79165 11.0273 8.42591L10.017 8.09766ZM10.0994 6.81131C10.0994 7.59189 10.0932 7.86331 10.017 8.09766L11.0273 8.42591C11.1678 7.99356 11.1616 7.52024 11.1616 6.81131H10.0994ZM10.0994 5.58868V6.81131H11.1616V5.58868H10.0994ZM10.017 4.30233C10.0932 4.53668 10.0994 4.8081 10.0994 5.58868H11.1616C11.1616 4.87975 11.1678 4.40643 11.0273 3.97408L10.017 4.30233ZM9.66737 3.69666C9.82512 3.87182 9.94426 4.07817 10.017 4.30233L11.0273 3.97408C10.9085 3.60834 10.7141 3.27166 10.4568 2.98588L9.66737 3.69666ZM8.59454 2.9822C9.27053 3.37249 9.5025 3.51354 9.66737 3.69666L10.4568 2.98588C10.1526 2.64804 9.7396 2.41672 9.12566 2.06227L8.59454 2.9822ZM7.5357 2.37088L8.59454 2.9822L9.12566 2.06227L8.06682 1.45095L7.5357 2.37088ZM6.38054 1.799C6.62156 1.85023 6.85971 1.98059 7.5357 2.37088L8.06682 1.45095C7.45288 1.09649 7.04605 0.854479 6.60138 0.759963L6.38054 1.799ZM5.68116 1.799C5.91171 1.74999 6.14998 1.74999 6.38054 1.799L6.60138 0.759963C6.22523 0.680008 5.83647 0.680008 5.46031 0.759963L5.68116 1.799ZM7.15949 6.20004C7.15949 6.82336 6.65418 7.32867 6.03085 7.32867V8.39092C7.24084 8.39092 8.22173 7.41003 8.22173 6.20004H7.15949ZM6.03085 5.0714C6.65418 5.0714 7.15949 5.57671 7.15949 6.20004H8.22173C8.22173 4.99005 7.24084 4.00915 6.03085 4.00915V5.0714ZM4.90222 6.20004C4.90222 5.57671 5.40752 5.0714 6.03085 5.0714V4.00915C4.82086 4.00915 3.83997 4.99005 3.83997 6.20004H4.90222ZM6.03085 7.32867C5.40752 7.32867 4.90222 6.82336 4.90222 6.20004H3.83997C3.83997 7.41003 4.82086 8.39092 6.03085 8.39092V7.32867Z" fill="#2D3E50"/>
</svg>
