<svg width="24" height="24" viewBox="0 0 24 24" fill="none" xmlns="http://www.w3.org/2000/svg">
<path d="M8.79998 3.34751L8.34998 2.56809L8.79998 3.34751ZM11.1684 2.2062L10.9812 1.32587L11.1684 2.2062ZM6.10672 4.90247L6.55672 5.68189L6.10672 4.90247ZM3.93413 6.38287L3.26531 5.78065L3.93413 6.38287ZM3.10248 7.82332L2.24654 7.54521L3.10248 7.82332ZM3.10248 16.1767L2.24654 16.4548L3.10248 16.1767ZM3.93413 17.6171L4.60297 17.0149L3.93413 17.6171ZM6.10672 19.0975L6.55672 18.3181L6.10672 19.0975ZM8.79998 20.6525L9.36221 19.9497L9.309 19.9071L9.24998 19.873L8.79998 20.6525ZM8.8 20.6525L8.23777 21.3553L8.29099 21.3978L8.35 21.4319L8.8 20.6525ZM11.1684 21.7938L11.3555 20.9134L11.1684 21.7938ZM12.8317 21.7938L12.6445 20.9134L12.8317 21.7938ZM15.2 20.6525L14.75 19.873L15.2 20.6525ZM17.8933 19.0975L17.4433 18.3181L17.8933 19.0975ZM20.0658 17.6171L19.397 17.0149L20.0658 17.6171ZM20.8975 16.1767L21.7534 16.4548L20.8975 16.1767ZM20.8975 7.82332L21.7534 7.54521V7.5452L20.8975 7.82332ZM20.0658 6.38287L19.397 6.98508L20.0658 6.38287ZM17.8933 4.90247L18.3433 4.12304L17.8933 4.90247ZM15.2 3.34751L14.75 4.12693L15.2 3.34751ZM12.8317 2.2062L12.6445 3.08653L12.8317 2.2062ZM9.24998 4.12693C10.4684 3.42352 10.9083 3.18158 11.3555 3.08653L10.9812 1.32587C10.189 1.49426 9.46318 1.92538 8.34998 2.56809L9.24998 4.12693ZM6.55672 5.68189L9.24998 4.12693L8.34998 2.56809L5.65672 4.12304L6.55672 5.68189ZM4.60297 6.98508C4.90886 6.64535 5.33837 6.3853 6.55672 5.68189L5.65672 4.12304C4.54352 4.76575 3.80725 5.17876 3.26531 5.78065L4.60297 6.98508ZM3.95844 8.10144C4.09268 7.68827 4.31228 7.30793 4.60297 6.98508L3.26531 5.78065C2.80583 6.29095 2.45874 6.89213 2.24654 7.54521L3.95844 8.10144ZM3.80672 10.445C3.80672 9.0382 3.81718 8.53621 3.95844 8.10144L2.24654 7.54521C1.99626 8.31549 2.00672 9.15962 2.00672 10.445H3.80672ZM3.80672 13.5549V10.445H2.00672V13.5549H3.80672ZM3.95844 15.8985C3.81718 15.4638 3.80672 14.9618 3.80672 13.5549H2.00672C2.00672 14.8404 1.99626 15.6845 2.24654 16.4548L3.95844 15.8985ZM4.60297 17.0149C4.31228 16.692 4.09268 16.3117 3.95844 15.8985L2.24654 16.4548C2.45874 17.1078 2.80583 17.709 3.26531 18.2193L4.60297 17.0149ZM6.55672 18.3181C5.33837 17.6147 4.90886 17.3546 4.60297 17.0149L3.26531 18.2193C3.80725 18.8212 4.54352 19.2342 5.65672 19.8769L6.55672 18.3181ZM9.24998 19.873L6.55672 18.3181L5.65672 19.8769L8.34998 21.4319L9.24998 19.873ZM9.36222 19.9497H9.36221L8.23775 21.3552L8.23777 21.3553L9.36222 19.9497ZM11.3555 20.9134C10.9083 20.8184 10.4684 20.5765 9.25 19.8731L8.35 21.4319C9.46319 22.0746 10.189 22.5057 10.9812 22.6741L11.3555 20.9134ZM12.6445 20.9134C12.2196 21.0038 11.7804 21.0038 11.3555 20.9134L10.9812 22.6741C11.6529 22.8169 12.3471 22.8169 13.0188 22.6741L12.6445 20.9134ZM14.75 19.873C13.5317 20.5765 13.0917 20.8184 12.6445 20.9134L13.0188 22.6741C13.811 22.5057 14.5368 22.0746 15.65 21.4319L14.75 19.873ZM17.4433 18.3181L14.75 19.873L15.65 21.4319L18.3433 19.8769L17.4433 18.3181ZM19.397 17.0149C19.0911 17.3546 18.6616 17.6147 17.4433 18.3181L18.3433 19.8769C19.4565 19.2342 20.1927 18.8212 20.7347 18.2193L19.397 17.0149ZM20.0415 15.8985C19.9073 16.3117 19.6877 16.692 19.397 17.0149L20.7347 18.2193C21.1942 17.709 21.5413 17.1078 21.7534 16.4548L20.0415 15.8985ZM20.1933 13.5549C20.1933 14.9618 20.1828 15.4638 20.0415 15.8985L21.7534 16.4548C22.0037 15.6845 21.9933 14.8404 21.9933 13.5549H20.1933ZM20.1933 10.445V13.5549H21.9933V10.445H20.1933ZM20.0415 8.10143C20.1828 8.53621 20.1933 9.0382 20.1933 10.445H21.9933C21.9933 9.15962 22.0037 8.31549 21.7534 7.54521L20.0415 8.10143ZM19.397 6.98508C19.6877 7.30793 19.9073 7.68827 20.0415 8.10144L21.7534 7.5452C21.5413 6.89213 21.1942 6.29095 20.7347 5.78065L19.397 6.98508ZM17.4433 5.68189C18.6616 6.3853 19.0911 6.64535 19.397 6.98508L20.7347 5.78065C20.1927 5.17876 19.4565 4.76575 18.3433 4.12304L17.4433 5.68189ZM14.75 4.12693L17.4433 5.68189L18.3433 4.12304L15.65 2.56809L14.75 4.12693ZM12.6445 3.08653C13.0917 3.18158 13.5317 3.42352 14.75 4.12693L15.65 2.56809C14.5368 1.92538 13.811 1.49426 13.0188 1.32587L12.6445 3.08653ZM11.3555 3.08653C11.7804 2.99621 12.2196 2.99621 12.6445 3.08653L13.0188 1.32587C12.3471 1.1831 11.6529 1.1831 10.9812 1.32587L11.3555 3.08653ZM14.6 12C14.6 13.4359 13.436 14.6 12 14.6V16.4C14.4301 16.4 16.4 14.43 16.4 12H14.6ZM12 9.39998C13.436 9.39998 14.6 10.564 14.6 12H16.4C16.4 9.56992 14.4301 7.59998 12 7.59998V9.39998ZM9.40001 12C9.40001 10.564 10.5641 9.39998 12 9.39998V7.59998C9.56995 7.59998 7.60001 9.56992 7.60001 12H9.40001ZM12 14.6C10.5641 14.6 9.40001 13.4359 9.40001 12H7.60001C7.60001 14.43 9.56995 16.4 12 16.4V14.6Z" fill="#2D3E50"/>
</svg>
