<svg width="16" height="16" viewBox="0 0 16 16" fill="none" xmlns="http://www.w3.org/2000/svg">
<path d="M8.46062 4.57369H8.56971C9.04243 4.57369 9.49092 4.66051 9.90304 4.83415C10.303 5.0202 10.6667 5.25586 10.9818 5.56594C11.297 5.86361 11.5394 6.2233 11.7212 6.6326C11.9152 7.0419 12.0121 7.48842 12.0243 7.95973C12.0364 7.98454 12.0364 7.99694 12.0364 8.02175V8.08377C12.0364 8.55508 11.9394 9.014 11.7576 9.4357C11.5758 9.85741 11.3333 10.2295 11.0182 10.5396C10.703 10.8497 10.3394 11.0977 9.91516 11.2714C9.50304 11.4574 9.05455 11.5442 8.55758 11.5442C8.09698 11.5442 7.64849 11.4574 7.24849 11.2838C6.83637 11.1101 6.47274 10.8745 6.15758 10.5892C5.83031 10.2915 5.57577 9.93183 5.38183 9.51012C5.18789 9.10082 5.09092 8.65431 5.0788 8.17059V8.15818V8.07136V8.05896V8.04656C5.0788 7.57524 5.16364 7.12873 5.33334 6.70702C5.50304 6.29772 5.74546 5.92563 6.06061 5.61555C6.36364 5.30547 6.72728 5.05741 7.12728 4.85896C7.5394 4.68532 7.97577 4.58609 8.46062 4.57369ZM5.41819 8.05896V8.08377V8.09617C5.41819 8.51787 5.49092 8.92718 5.64849 9.29927C5.80607 9.67136 6.02425 10.0062 6.30304 10.2791C6.58183 10.552 6.89698 10.7752 7.27274 10.9365C7.63637 11.0977 8.03637 11.1845 8.46062 11.1969H8.55758C8.96971 11.1969 9.36971 11.1225 9.73334 10.9613C10.097 10.8 10.4243 10.5892 10.7152 10.3287C11.0061 10.0559 11.2364 9.73338 11.4182 9.36128C11.5879 8.98919 11.6849 8.57989 11.697 8.14578V8.08377V8.00935C11.697 7.60004 11.6243 7.20314 11.4667 6.81865C11.3091 6.44656 11.0909 6.11167 10.8121 5.8264C10.5333 5.54113 10.2182 5.31787 9.84243 5.15663C9.4788 4.99539 9.0788 4.90857 8.65455 4.89617H8.55758C8.13334 4.89617 7.73334 4.97059 7.3697 5.11942C7.00607 5.26826 6.6788 5.47911 6.40001 5.75198C6.1091 6.02485 5.86667 6.34733 5.69698 6.73183C5.51516 7.11632 5.43031 7.51322 5.43031 7.93493V7.98454V8.05896H5.41819ZM2.36364 4.53648V4.46206L2.18183 4.28842L2.14546 4.2264C2.14546 4.2264 2.14546 4.20159 2.13334 4.16439C2.13334 4.15198 2.13334 4.13958 2.14546 4.12718C2.14546 4.11477 2.15758 4.10237 2.16971 4.08997L2.21819 4.00314C2.52122 3.48221 2.89698 3.0109 3.34546 2.60159C3.79395 2.19229 4.29092 1.86981 4.83637 1.62175L4.87274 1.60935C4.88486 1.59694 4.89698 1.59694 4.9091 1.59694H4.95758C4.95758 1.59694 4.96971 1.59694 5.00607 1.60935C5.04243 1.60935 5.05455 1.62175 5.05455 1.63415L5.15152 1.74578H5.21213C5.68486 1.48532 6.20607 1.27446 6.76364 1.12563C7.32122 0.976788 7.90304 0.889967 8.49698 0.877563H8.48486C8.52122 0.877563 8.54546 0.889967 8.58183 0.914773C8.60607 0.914773 8.63031 0.951982 8.64243 0.989191V1.59694H8.71516C9.56365 1.62175 10.3636 1.8078 11.103 2.15508C11.8424 2.50237 12.4849 2.97369 13.0303 3.55663C13.5758 4.13958 14.0121 4.80935 14.3152 5.59074C14.6303 6.35973 14.7879 7.17834 14.7879 8.04656C14.7879 8.92718 14.6182 9.75818 14.2909 10.5396C13.9636 11.3334 13.5152 12.0155 12.9455 12.6109C12.3758 13.2062 11.697 13.6776 10.9333 14.0124C10.1697 14.3721 9.35758 14.5458 8.47274 14.5458C7.60001 14.5458 6.78789 14.3845 6.04849 14.0621C5.28486 13.7396 4.63031 13.2931 4.07274 12.7349C3.51516 12.1768 3.06667 11.507 2.72728 10.7504C2.38789 9.99384 2.20607 9.17524 2.18183 8.29462V8.2202H1.62425C1.58789 8.2202 1.55152 8.2078 1.51516 8.17059C1.4788 8.14578 1.46667 8.09617 1.46667 8.04656C1.46667 7.40159 1.55152 6.78144 1.7091 6.17369C1.86667 5.57834 2.09698 5.0078 2.38789 4.47446L2.36364 4.53648ZM4.89698 1.93183H4.82425C4.3394 2.16749 3.90304 2.46516 3.51516 2.82485C3.12728 3.18454 2.81213 3.58144 2.55758 4.02795L2.54546 4.06516L2.49698 4.12718L3.27274 4.92097L5.66061 2.68842L4.89698 1.93183ZM2.47274 8.29462C2.5091 9.13803 2.6788 9.91942 3.00607 10.6388C3.33334 11.3582 3.75758 11.9907 4.30304 12.5241C4.84849 13.0574 5.4788 13.4791 6.19395 13.7892C6.89698 14.0993 7.66061 14.2481 8.47274 14.2481H8.54546C9.36971 14.2481 10.1333 14.0869 10.8606 13.752C11.5879 13.4171 12.2061 12.983 12.7394 12.4249C13.2849 11.8667 13.7212 11.2217 14.0243 10.4776C14.3273 9.73338 14.497 8.93958 14.497 8.09617V8.08377V8.05896C14.497 7.24035 14.3394 6.45896 14.0364 5.71477C13.7455 4.98299 13.3333 4.35043 12.8121 3.79229C12.2909 3.23415 11.6727 2.80004 10.9697 2.46516C10.2667 2.11787 9.51516 1.93183 8.70304 1.90702H8.63031V2.48997C8.63031 2.51477 8.63031 2.52718 8.61819 2.55198L8.58183 2.614L3.11516 8.19539C3.10304 8.2078 3.09092 8.2202 3.0788 8.2202C3.06667 8.2326 3.05455 8.2326 3.04243 8.2326H3.03031H2.47274V8.29462ZM1.76971 7.89772H2.96971L8.31516 2.37834V1.16283H8.21819C7.7091 1.18764 7.22425 1.26206 6.75152 1.38609C6.2788 1.51012 5.83031 1.68377 5.40607 1.90702L5.44243 1.89462L5.33334 1.94423L5.95152 2.60159C5.96364 2.614 5.97577 2.6264 5.98789 2.6388C6.00001 2.65121 6.00001 2.67601 6.00001 2.68842V2.70082V2.71322C6.00001 2.73803 6.00001 2.75043 5.98789 2.77524C5.98789 2.80004 5.97577 2.81245 5.95152 2.82485L3.36971 5.25586C3.35758 5.26826 3.34546 5.26826 3.32122 5.28066C3.29698 5.28066 3.28486 5.29307 3.26061 5.29307C3.23637 5.29307 3.22425 5.29307 3.21213 5.28066C3.20001 5.28066 3.18789 5.26826 3.17577 5.25586L2.61819 4.67291L2.54546 4.78454C2.32728 5.20625 2.14546 5.66516 2.01213 6.16128C1.8788 6.65741 1.79395 7.16594 1.78183 7.69927V7.71167V7.89772H1.76971ZM8.47274 9.08842H8.5091C8.60607 9.08842 8.69092 9.10082 8.76365 9.13803C8.84849 9.17524 8.92122 9.22485 8.98183 9.28687C9.04243 9.33648 9.09092 9.39849 9.12728 9.48532C9.16365 9.57214 9.17577 9.64656 9.17577 9.73338V9.74578V9.75818V9.77059V9.78299C9.17577 9.96904 9.11516 10.1179 8.98183 10.2419C8.86061 10.3659 8.70304 10.4404 8.52122 10.4528H8.5091H8.49698C8.30304 10.4528 8.14546 10.3907 8.01213 10.2543C7.8788 10.1179 7.81819 9.96904 7.81819 9.78299L7.80607 9.77059L7.79395 9.75818C7.79395 9.55973 7.85455 9.4109 7.98789 9.27446C8.13334 9.15043 8.29092 9.08842 8.47274 9.08842ZM8.23031 10.0062C8.26668 10.0311 8.30304 10.0559 8.3394 10.0807C8.38789 10.1055 8.42425 10.1055 8.47274 10.1055C8.55758 10.0807 8.61819 10.0435 8.6788 9.98144C8.7394 9.91942 8.76365 9.84501 8.76365 9.75818C8.76365 9.67136 8.7394 9.60935 8.69092 9.54733C8.64243 9.48532 8.58183 9.44811 8.5091 9.4233H8.47274C8.43637 9.4233 8.40001 9.4357 8.36365 9.44811C8.32728 9.46051 8.29092 9.48532 8.26667 9.52252V9.51012C8.23031 9.54733 8.20607 9.59694 8.19395 9.63415C8.16971 9.67136 8.15758 9.72097 8.14546 9.77059V9.78299V9.79539C8.14546 9.8326 8.15758 9.88221 8.18183 9.91942C8.18183 9.93183 8.20607 9.96904 8.23031 10.0062ZM6.69092 7.94733C6.72728 7.93493 6.75152 7.93493 6.78789 7.92252C6.82425 7.92252 6.86061 7.91012 6.89698 7.91012C7.04243 7.91012 7.16364 7.94733 7.27274 8.03415C7.38183 8.12097 7.45455 8.2326 7.50304 8.35663H7.51516C7.52728 8.38144 7.52728 8.41865 7.5394 8.45586C7.5394 8.49307 7.55152 8.53028 7.55152 8.56749C7.55152 8.71632 7.50304 8.85276 7.41819 8.96439C7.33334 9.07601 7.22425 9.16284 7.09092 9.21245C7.05455 9.22485 7.03031 9.22485 6.99395 9.23725C6.95758 9.23725 6.92122 9.24966 6.89698 9.24966C6.84849 9.24966 6.80001 9.23725 6.7394 9.22485C6.69092 9.21245 6.64243 9.18764 6.58183 9.17524H6.59395C6.5091 9.13803 6.44849 9.07601 6.40001 9.014C6.35152 8.95198 6.30304 8.87756 6.2788 8.79074C6.26667 8.76594 6.25455 8.72873 6.24243 8.67911C6.23031 8.6419 6.23031 8.59229 6.23031 8.54268C6.23031 8.40625 6.26668 8.26981 6.35152 8.15818C6.46061 8.08377 6.55758 7.99694 6.69092 7.94733ZM6.58183 8.70392C6.59395 8.74113 6.60607 8.77834 6.63031 8.81555C6.65455 8.84035 6.69092 8.86516 6.72728 8.87756V8.88997C6.75152 8.90237 6.77577 8.91477 6.80001 8.91477C6.82425 8.92718 6.84849 8.92718 6.87274 8.92718C6.88486 8.92718 6.88486 8.92718 6.88486 8.91477C6.88486 8.90237 6.88486 8.90237 6.89698 8.90237H7.00607C7.0788 8.87756 7.12728 8.84035 7.17577 8.77834C7.21213 8.71632 7.23637 8.6419 7.23637 8.55508V8.51787C7.23637 8.51787 7.23637 8.50547 7.22425 8.46826C7.20001 8.39384 7.16364 8.34423 7.10304 8.30702C7.04243 8.26981 6.98183 8.24501 6.9091 8.24501H6.86061C6.86061 8.24501 6.84849 8.245 6.82425 8.25741C6.75152 8.28221 6.69092 8.31942 6.65455 8.38144C6.60607 8.44345 6.58183 8.51787 6.58183 8.59229C6.58183 8.6171 6.58183 8.6295 6.59395 8.6419C6.58183 8.66671 6.58183 8.69152 6.58183 8.70392ZM7.89092 7.24035C7.84243 7.27756 7.78183 7.31477 7.72122 7.33958C7.66061 7.36439 7.58789 7.37679 7.51516 7.37679C7.40607 7.37679 7.29698 7.35198 7.21213 7.30237C7.11516 7.25276 7.04243 7.19074 6.98183 7.11632H6.96971C6.93334 7.05431 6.89698 6.99229 6.87274 6.93028C6.84849 6.86826 6.83637 6.79384 6.83637 6.71942C6.83637 6.6078 6.86061 6.50857 6.9091 6.40935C6.95758 6.31012 7.03031 6.2357 7.10304 6.17369C7.15152 6.13648 7.21213 6.09927 7.27274 6.08687C7.33334 6.07446 7.40607 6.06206 7.4788 6.06206C7.58789 6.06206 7.68486 6.08687 7.76971 6.13648C7.85455 6.18609 7.92728 6.24811 7.98789 6.32252H8.00001C8.03637 6.37214 8.07274 6.43415 8.09698 6.50857C8.12122 6.58299 8.13334 6.64501 8.13334 6.71942C8.13334 6.83105 8.1091 6.93028 8.06061 7.0171C8.03637 7.10392 7.97577 7.17834 7.89092 7.24035ZM7.78183 6.50857C7.74546 6.47136 7.72122 6.43415 7.68486 6.40935C7.64849 6.38454 7.61213 6.37214 7.57577 6.35973H7.56364C7.51516 6.35973 7.46667 6.35973 7.43031 6.37214C7.39395 6.38454 7.35758 6.39694 7.32122 6.42175H7.3091C7.27274 6.45896 7.23637 6.50857 7.21213 6.54578C7.18789 6.59539 7.17577 6.64501 7.17577 6.70702C7.17577 6.74423 7.18789 6.78144 7.20001 6.81865C7.21213 6.84345 7.23637 6.88066 7.24849 6.90547H7.23637C7.27274 6.94268 7.3091 6.97989 7.34546 7.00469C7.39395 7.0295 7.44243 7.0419 7.49092 7.0419H7.50304H7.51516L7.7091 6.97989C7.74546 6.94268 7.78183 6.89307 7.80607 6.85586C7.83031 6.80625 7.84243 6.75663 7.84243 6.69462C7.84243 6.66981 7.84243 6.6326 7.83031 6.6078C7.81819 6.57059 7.80607 6.53338 7.78183 6.50857ZM9.0788 7.26516H9.04243C8.95758 7.20315 8.89698 7.12873 8.84849 7.0295C8.80001 6.93028 8.77577 6.83105 8.77577 6.73183C8.77577 6.64501 8.78789 6.58299 8.81213 6.50857C8.83637 6.44656 8.87274 6.38454 8.9091 6.32252C8.94546 6.24811 9.00607 6.19849 9.0788 6.14888C9.15152 6.09927 9.22425 6.07446 9.3091 6.06206H9.45455C9.51516 6.06206 9.57577 6.07446 9.63637 6.08687C9.69698 6.11167 9.75758 6.13648 9.80607 6.16128H9.84243C9.92728 6.2233 9.98789 6.29772 10.0364 6.38454C10.0849 6.47136 10.1091 6.58299 10.1091 6.68221C10.1091 6.76904 10.097 6.83105 10.0727 6.90547C10.0485 6.96749 10.0121 7.0295 9.96364 7.09152C9.91516 7.17834 9.84243 7.24035 9.74546 7.28997C9.64849 7.33958 9.55152 7.36439 9.44243 7.36439C9.36971 7.36439 9.3091 7.35198 9.24849 7.32718C9.18789 7.32718 9.12728 7.28997 9.0788 7.26516ZM9.66061 6.40935C9.62425 6.38454 9.57577 6.37214 9.52728 6.35973C9.4788 6.34733 9.43031 6.34733 9.38183 6.34733C9.34546 6.35973 9.3091 6.37214 9.27274 6.39694C9.23637 6.42175 9.21213 6.44656 9.17577 6.47136V6.49617C9.15152 6.52097 9.1394 6.54578 9.12728 6.58299C9.11516 6.6202 9.10304 6.66981 9.10304 6.70702C9.10304 6.75663 9.11516 6.80625 9.1394 6.85586C9.16365 6.90547 9.20001 6.94268 9.24849 6.97989C9.27274 7.0047 9.29698 7.0171 9.32122 7.0295C9.35758 7.0419 9.38183 7.0419 9.41819 7.0419H9.43031H9.45455C9.50304 7.0419 9.55152 7.0295 9.58789 7.00469C9.62425 6.97989 9.66061 6.94268 9.69698 6.90547C9.72122 6.88066 9.73334 6.84345 9.74546 6.80625C9.75758 6.76904 9.76971 6.73183 9.76971 6.69462C9.76971 6.64501 9.75758 6.59539 9.73334 6.54578C9.72122 6.48377 9.69698 6.44656 9.66061 6.40935ZM9.43031 8.36904C9.46668 8.28221 9.50304 8.2202 9.55152 8.14578C9.60001 8.08377 9.67274 8.02175 9.74546 7.98454C9.78183 7.95973 9.83031 7.94733 9.8788 7.93493C9.92728 7.92252 9.98789 7.92252 10.0485 7.92252H10.2303C10.3758 7.95973 10.4849 8.04656 10.5697 8.17059C10.6546 8.29462 10.703 8.43105 10.703 8.57989C10.703 8.6047 10.703 8.6419 10.6909 8.66671C10.6909 8.69152 10.6788 8.72873 10.6667 8.77834V8.76594C10.6303 8.85276 10.5939 8.93958 10.5333 9.014C10.4727 9.08842 10.4121 9.15043 10.3394 9.20004H10.3273C10.2909 9.22485 10.2424 9.23725 10.1939 9.24966C10.1455 9.26206 10.0849 9.26206 10.0243 9.26206H9.9394C9.9394 9.26206 9.90304 9.26206 9.84243 9.24966C9.7091 9.21245 9.60001 9.12563 9.51516 9.014C9.43031 8.90237 9.38183 8.76594 9.38183 8.6171C9.38183 8.57989 9.38183 8.53028 9.39395 8.49307C9.40607 8.44345 9.41819 8.40625 9.43031 8.36904ZM9.9394 8.90237H10.0485C10.1212 8.90237 10.1818 8.87756 10.2424 8.84035C10.303 8.80315 10.3394 8.75353 10.3758 8.69152V8.67911C10.3758 8.66671 10.3758 8.65431 10.3879 8.6419C10.3879 8.6295 10.4 8.6047 10.4 8.59229C10.4 8.50547 10.3758 8.44345 10.3273 8.38144C10.2788 8.31942 10.2182 8.26981 10.1576 8.24501C10.1455 8.24501 10.1333 8.24501 10.1212 8.2326C10.1091 8.2326 10.0849 8.2202 10.0727 8.2202C10 8.2202 9.9394 8.24501 9.8788 8.29462C9.81819 8.34423 9.76971 8.39384 9.74546 8.46826C9.74546 8.49307 9.74546 8.50547 9.73334 8.53028C9.73334 8.55508 9.72122 8.56749 9.72122 8.59229C9.72122 8.66671 9.74546 8.72873 9.79395 8.79074C9.81819 8.84035 9.86668 8.88997 9.9394 8.90237Z" fill="#2D3E50"/>
<mask id="mask0" mask-type="alpha" maskUnits="userSpaceOnUse" x="1" y="0" width="14" height="15">
<path d="M14.9091 0.666672H1.33331V14.6822H14.9091V0.666672Z" fill="white"/>
<path d="M8.46055 4.57367H8.56964C9.04237 4.57367 9.49086 4.66049 9.90298 4.83414C10.303 5.02018 10.6666 5.25584 10.9818 5.56592C11.2969 5.86359 11.5393 6.22328 11.7212 6.63259C11.9151 7.04189 12.0121 7.4884 12.0242 7.95972C12.0363 7.98453 12.0363 7.99693 12.0363 8.02173V8.08375C12.0363 8.55507 11.9393 9.01398 11.7575 9.43569C11.5757 9.85739 11.3333 10.2295 11.0181 10.5396C10.703 10.8496 10.3393 11.0977 9.9151 11.2713C9.50298 11.4574 9.05449 11.5442 8.55752 11.5442C8.09692 11.5442 7.64843 11.4574 7.24843 11.2837C6.83631 11.1101 6.47267 10.8744 6.15752 10.5892C5.83025 10.2915 5.57571 9.93181 5.38177 9.51011C5.18783 9.1008 5.09086 8.65429 5.07874 8.17057V8.15817V8.07135V8.05894V8.04654C5.07874 7.57522 5.16358 7.12871 5.33328 6.70701C5.50298 6.2977 5.7454 5.92561 6.06055 5.61553C6.36358 5.30546 6.72722 5.05739 7.12722 4.85894C7.53934 4.6853 7.97571 4.58608 8.46055 4.57367ZM5.41813 8.05894V8.08375V8.09615C5.41813 8.51786 5.49086 8.92716 5.64843 9.29925C5.80601 9.67135 6.02419 10.0062 6.30298 10.2791C6.58177 10.552 6.89692 10.7752 7.27267 10.9365C7.63631 11.0977 8.03631 11.1845 8.46055 11.1969H8.55752C8.96964 11.1969 9.36964 11.1225 9.73328 10.9613C10.0969 10.8 10.4242 10.5892 10.7151 10.3287C11.006 10.0558 11.2363 9.73336 11.4181 9.36127C11.5878 8.98918 11.6848 8.57987 11.6969 8.14577V8.08375V8.00933C11.6969 7.60003 11.6242 7.20313 11.4666 6.81863C11.309 6.44654 11.0909 6.11166 10.8121 5.82639C10.5333 5.54111 10.2181 5.31786 9.84237 5.15662C9.47873 4.99538 9.07874 4.90856 8.65449 4.89615H8.55752C8.13328 4.89615 7.73328 4.97057 7.36964 5.11941C7.00601 5.26825 6.67873 5.4791 6.39995 5.75197C6.10904 6.02484 5.86661 6.34732 5.69692 6.73181C5.5151 7.11631 5.43025 7.51321 5.43025 7.93491V7.98452V8.05894H5.41813ZM2.36358 4.53646V4.46204L2.18177 4.2884L2.1454 4.22639C2.1454 4.22639 2.1454 4.20158 2.13328 4.16437C2.13328 4.15197 2.13328 4.13956 2.1454 4.12716C2.1454 4.11476 2.15752 4.10235 2.16964 4.08995L2.21813 4.00313C2.52116 3.4822 2.89692 3.01088 3.3454 2.60158C3.79389 2.19228 4.29086 1.8698 4.83631 1.62173L4.87267 1.60933C4.8848 1.59693 4.89692 1.59693 4.90904 1.59693H4.95752C4.95752 1.59693 4.96964 1.59693 5.00601 1.60933C5.04237 1.60933 5.05449 1.62173 5.05449 1.63414L5.15146 1.74577H5.21207C5.6848 1.4853 6.20601 1.27445 6.76358 1.12561C7.32116 0.976773 7.90298 0.889951 8.49692 0.877548H8.4848C8.52116 0.877548 8.5454 0.889951 8.58177 0.914758C8.60601 0.914758 8.63025 0.951967 8.64237 0.989176V1.59693H8.7151C9.56358 1.62173 10.3636 1.80778 11.103 2.15507C11.8424 2.50235 12.4848 2.97367 13.0303 3.55662C13.5757 4.13956 14.0121 4.80933 14.3151 5.59073C14.6303 6.35972 14.7878 7.17832 14.7878 8.04654C14.7878 8.92716 14.6181 9.75817 14.2909 10.5396C13.9636 11.3334 13.5151 12.0155 12.9454 12.6109C12.3757 13.2062 11.6969 13.6775 10.9333 14.0124C10.1696 14.3721 9.35752 14.5458 8.47267 14.5458C7.59995 14.5458 6.78783 14.3845 6.04843 14.062C5.2848 13.7396 4.63025 13.2931 4.07267 12.7349C3.5151 12.1768 3.06661 11.507 2.72722 10.7504C2.38783 9.99383 2.20601 9.17522 2.18177 8.2946V8.22018H1.62419C1.58783 8.22018 1.55146 8.20778 1.5151 8.17057C1.47873 8.14577 1.46661 8.09615 1.46661 8.04654C1.46661 7.40158 1.55146 6.78142 1.70904 6.17367C1.86661 5.57832 2.09692 5.00778 2.38783 4.47445L2.36358 4.53646ZM4.89692 1.93181H4.82419C4.33934 2.16747 3.90298 2.46515 3.5151 2.82484C3.12722 3.18453 2.81207 3.58142 2.55752 4.02794L2.5454 4.06515L2.49692 4.12716L3.27267 4.92096L5.66055 2.6884L4.89692 1.93181ZM2.47267 8.2946C2.50904 9.13801 2.67873 9.91941 3.00601 10.6388C3.33328 11.3582 3.75752 11.9907 4.30298 12.5241C4.84843 13.0574 5.47873 13.4791 6.19389 13.7892C6.89692 14.0993 7.66055 14.2481 8.47267 14.2481H8.5454C9.36964 14.2481 10.1333 14.0869 10.8606 13.752C11.5878 13.4171 12.206 12.983 12.7393 12.4248C13.2848 11.8667 13.7212 11.2217 14.0242 10.4775C14.3272 9.73336 14.4969 8.93956 14.4969 8.09615V8.08375V8.05894C14.4969 7.24034 14.3393 6.45894 14.0363 5.71476C13.7454 4.98297 13.3333 4.35042 12.8121 3.79228C12.2909 3.23414 11.6727 2.80003 10.9696 2.46515C10.2666 2.11786 9.5151 1.93181 8.70298 1.90701H8.63025V2.48995C8.63025 2.51476 8.63025 2.52716 8.61813 2.55197L8.58177 2.61398L3.1151 8.19538C3.10298 8.20778 3.09086 8.22018 3.07873 8.22018C3.06661 8.23259 3.05449 8.23259 3.04237 8.23259H3.03025H2.47267V8.2946ZM1.76964 7.8977H2.96964L8.3151 2.37832V1.16282H8.21813C7.70904 1.18763 7.22419 1.26204 6.75146 1.38608C6.27874 1.51011 5.83025 1.68375 5.40601 1.90701L5.44237 1.8946L5.33328 1.94421L5.95146 2.60158C5.96358 2.61398 5.97571 2.62639 5.98783 2.63879C5.99995 2.65119 5.99995 2.676 5.99995 2.6884V2.7008V2.71321C5.99995 2.73801 5.99995 2.75042 5.98783 2.77522C5.98783 2.80003 5.9757 2.81243 5.95146 2.82484L3.36964 5.25584C3.35752 5.26825 3.3454 5.26825 3.32116 5.28065C3.29692 5.28065 3.2848 5.29305 3.26055 5.29305C3.23631 5.29305 3.22419 5.29305 3.21207 5.28065C3.19995 5.28065 3.18783 5.26825 3.1757 5.25584L2.61813 4.6729L2.5454 4.78452C2.32722 5.20623 2.1454 5.66514 2.01207 6.16127C1.87874 6.65739 1.79389 7.16592 1.78177 7.69925V7.71166V7.8977H1.76964ZM8.47267 9.0884H8.50904C8.60601 9.0884 8.69086 9.1008 8.76358 9.13801C8.84843 9.17522 8.92116 9.22484 8.98177 9.28685C9.04237 9.33646 9.09086 9.39848 9.12722 9.4853C9.16358 9.57212 9.1757 9.64654 9.1757 9.73336V9.74577V9.75817V9.77057V9.78298C9.1757 9.96902 9.1151 10.1179 8.98177 10.2419C8.86055 10.3659 8.70298 10.4403 8.52116 10.4527H8.50904H8.49692C8.30298 10.4527 8.1454 10.3907 8.01207 10.2543C7.87874 10.1179 7.81813 9.96902 7.81813 9.78298L7.80601 9.77057L7.79389 9.75817C7.79389 9.55972 7.85449 9.41088 7.98783 9.27445C8.13328 9.15042 8.29086 9.0884 8.47267 9.0884ZM8.23025 10.0062C8.26661 10.031 8.30298 10.0558 8.33934 10.0806C8.38783 10.1055 8.42419 10.1055 8.47267 10.1055C8.55752 10.0806 8.61813 10.0434 8.67874 9.98142C8.73934 9.91941 8.76358 9.84499 8.76358 9.75817C8.76358 9.67135 8.73934 9.60933 8.69086 9.54732C8.64237 9.4853 8.58177 9.44809 8.50904 9.42328H8.47267C8.43631 9.42328 8.39995 9.43569 8.36358 9.44809C8.32722 9.46049 8.29086 9.4853 8.26661 9.52251V9.51011C8.23025 9.54732 8.20601 9.59693 8.19389 9.63414C8.16964 9.67135 8.15752 9.72096 8.1454 9.77057V9.78298V9.79538C8.1454 9.83259 8.15752 9.8822 8.18177 9.91941C8.18177 9.93181 8.20601 9.96902 8.23025 10.0062ZM6.69086 7.94732C6.72722 7.93491 6.75146 7.93491 6.78783 7.92251C6.82419 7.92251 6.86055 7.91011 6.89692 7.91011C7.04237 7.91011 7.16358 7.94732 7.27267 8.03414C7.38177 8.12096 7.45449 8.23259 7.50298 8.35662H7.5151C7.52722 8.38142 7.52722 8.41863 7.53934 8.45584C7.53934 8.49305 7.55146 8.53026 7.55146 8.56747C7.55146 8.71631 7.50298 8.85274 7.41813 8.96437C7.33328 9.076 7.22419 9.16282 7.09086 9.21243C7.05449 9.22484 7.03025 9.22484 6.99389 9.23724C6.95752 9.23724 6.92116 9.24964 6.89692 9.24964C6.84843 9.24964 6.79995 9.23724 6.73934 9.22484C6.69086 9.21243 6.64237 9.18763 6.58177 9.17522H6.59389C6.50904 9.13801 6.44843 9.076 6.39995 9.01398C6.35146 8.95197 6.30298 8.87755 6.27873 8.79073C6.26661 8.76592 6.25449 8.72871 6.24237 8.6791C6.23025 8.64189 6.23025 8.59228 6.23025 8.54266C6.23025 8.40623 6.26661 8.2698 6.35146 8.15817C6.46055 8.08375 6.55752 7.99693 6.69086 7.94732ZM6.58177 8.70391C6.59389 8.74111 6.60601 8.77832 6.63025 8.81553C6.65449 8.84034 6.69086 8.86515 6.72722 8.87755V8.88995C6.75146 8.90236 6.7757 8.91476 6.79995 8.91476C6.82419 8.92716 6.84843 8.92716 6.87267 8.92716C6.8848 8.92716 6.8848 8.92716 6.8848 8.91476C6.8848 8.90236 6.8848 8.90236 6.89692 8.90236H7.00601C7.07873 8.87755 7.12722 8.84034 7.1757 8.77832C7.21207 8.71631 7.23631 8.64189 7.23631 8.55507V8.51786C7.23631 8.51786 7.23631 8.50546 7.22419 8.46825C7.19995 8.39383 7.16358 8.34421 7.10298 8.30701C7.04237 8.2698 6.98177 8.24499 6.90904 8.24499H6.86055C6.86055 8.24499 6.84843 8.24499 6.82419 8.25739C6.75146 8.2822 6.69086 8.31941 6.65449 8.38142C6.60601 8.44344 6.58177 8.51786 6.58177 8.59228C6.58177 8.61708 6.58177 8.62949 6.59389 8.64189C6.58177 8.6667 6.58177 8.6915 6.58177 8.70391ZM7.89086 7.24034C7.84237 7.27755 7.78177 7.31476 7.72116 7.33956C7.66055 7.36437 7.58783 7.37677 7.5151 7.37677C7.40601 7.37677 7.29692 7.35197 7.21207 7.30235C7.1151 7.25274 7.04237 7.19073 6.98177 7.11631H6.96964C6.93328 7.05429 6.89692 6.99228 6.87267 6.93026C6.84843 6.86825 6.83631 6.79383 6.83631 6.71941C6.83631 6.60778 6.86055 6.50856 6.90904 6.40933C6.95752 6.31011 7.03025 6.23569 7.10298 6.17367C7.15146 6.13646 7.21207 6.09925 7.27267 6.08685C7.33328 6.07445 7.40601 6.06204 7.47873 6.06204C7.58783 6.06204 7.6848 6.08685 7.76964 6.13646C7.85449 6.18608 7.92722 6.24809 7.98783 6.32251H7.99995C8.03631 6.37212 8.07268 6.43414 8.09692 6.50856C8.12116 6.58297 8.13328 6.64499 8.13328 6.71941C8.13328 6.83104 8.10904 6.93026 8.06055 7.01708C8.03631 7.1039 7.9757 7.17832 7.89086 7.24034ZM7.78177 6.50856C7.7454 6.47135 7.72116 6.43414 7.6848 6.40933C7.64843 6.38452 7.61207 6.37212 7.57571 6.35972H7.56358C7.5151 6.35972 7.46661 6.35972 7.43025 6.37212C7.39389 6.38452 7.35752 6.39693 7.32116 6.42173H7.30904C7.27267 6.45894 7.23631 6.50856 7.21207 6.54577C7.18783 6.59538 7.1757 6.64499 7.1757 6.70701C7.1757 6.74422 7.18783 6.78142 7.19995 6.81863C7.21207 6.84344 7.23631 6.88065 7.24843 6.90546H7.23631C7.27267 6.94266 7.30904 6.97987 7.3454 7.00468C7.39389 7.02949 7.44237 7.04189 7.49086 7.04189H7.50298H7.5151L7.70904 6.97987C7.7454 6.94266 7.78177 6.89305 7.80601 6.85584C7.83025 6.80623 7.84237 6.75662 7.84237 6.6946C7.84237 6.6698 7.84237 6.63259 7.83025 6.60778C7.81813 6.57057 7.80601 6.53336 7.78177 6.50856ZM9.07874 7.26515H9.04237C8.95752 7.20313 8.89692 7.12871 8.84843 7.02949C8.79995 6.93026 8.77571 6.83104 8.77571 6.73181C8.77571 6.64499 8.78783 6.58297 8.81207 6.50856C8.83631 6.44654 8.87267 6.38452 8.90904 6.32251C8.9454 6.24809 9.00601 6.19848 9.07874 6.14887C9.15146 6.09925 9.22419 6.07445 9.30904 6.06204H9.45449C9.5151 6.06204 9.57571 6.07445 9.63631 6.08685C9.69692 6.11166 9.75752 6.13646 9.80601 6.16127H9.84237C9.92722 6.22328 9.98783 6.2977 10.0363 6.38452C10.0848 6.47135 10.109 6.58297 10.109 6.6822C10.109 6.76902 10.0969 6.83104 10.0727 6.90546C10.0484 6.96747 10.0121 7.02949 9.96358 7.0915C9.9151 7.17832 9.84237 7.24034 9.7454 7.28995C9.64843 7.33956 9.55146 7.36437 9.44237 7.36437C9.36964 7.36437 9.30904 7.35197 9.24843 7.32716C9.18783 7.32716 9.12722 7.28995 9.07874 7.26515ZM9.66055 6.40933C9.62419 6.38452 9.5757 6.37212 9.52722 6.35972C9.47873 6.34732 9.43025 6.34732 9.38177 6.34732C9.3454 6.35972 9.30904 6.37212 9.27267 6.39693C9.23631 6.42173 9.21207 6.44654 9.1757 6.47135V6.49615C9.15146 6.52096 9.13934 6.54577 9.12722 6.58297C9.1151 6.62018 9.10298 6.6698 9.10298 6.70701C9.10298 6.75662 9.1151 6.80623 9.13934 6.85584C9.16358 6.90546 9.19995 6.94266 9.24843 6.97987C9.27268 7.00468 9.29692 7.01708 9.32116 7.02949C9.35752 7.04189 9.38177 7.04189 9.41813 7.04189H9.43025H9.45449C9.50298 7.04189 9.55146 7.02949 9.58783 7.00468C9.62419 6.97987 9.66055 6.94266 9.69692 6.90546C9.72116 6.88065 9.73328 6.84344 9.7454 6.80623C9.75752 6.76902 9.76964 6.73181 9.76964 6.6946C9.76964 6.64499 9.75752 6.59538 9.73328 6.54577C9.72116 6.48375 9.69692 6.44654 9.66055 6.40933ZM9.43025 8.36902C9.46661 8.2822 9.50298 8.22018 9.55146 8.14577C9.59995 8.08375 9.67268 8.02173 9.7454 7.98452C9.78177 7.95972 9.83025 7.94732 9.87874 7.93491C9.92722 7.92251 9.98783 7.92251 10.0484 7.92251H10.2303C10.3757 7.95972 10.4848 8.04654 10.5696 8.17057C10.6545 8.2946 10.703 8.43104 10.703 8.57987C10.703 8.60468 10.703 8.64189 10.6909 8.6667C10.6909 8.6915 10.6787 8.72871 10.6666 8.77832V8.76592C10.6303 8.85274 10.5939 8.93956 10.5333 9.01398C10.4727 9.0884 10.4121 9.15042 10.3393 9.20003H10.3272C10.2909 9.22484 10.2424 9.23724 10.1939 9.24964C10.1454 9.26204 10.0848 9.26204 10.0242 9.26204H9.93934C9.93934 9.26204 9.90298 9.26204 9.84237 9.24964C9.70904 9.21243 9.59995 9.12561 9.5151 9.01398C9.43025 8.90236 9.38177 8.76592 9.38177 8.61708C9.38177 8.57987 9.38177 8.53026 9.39389 8.49305C9.40601 8.44344 9.41813 8.40623 9.43025 8.36902ZM9.93934 8.90236H10.0484C10.1212 8.90236 10.1818 8.87755 10.2424 8.84034C10.303 8.80313 10.3393 8.75352 10.3757 8.6915V8.6791C10.3757 8.6667 10.3757 8.65429 10.3878 8.64189C10.3878 8.62949 10.3999 8.60468 10.3999 8.59228C10.3999 8.50546 10.3757 8.44344 10.3272 8.38142C10.2787 8.31941 10.2181 8.2698 10.1575 8.24499C10.1454 8.24499 10.1333 8.24499 10.1212 8.23259C10.109 8.23259 10.0848 8.22018 10.0727 8.22018C9.99995 8.22018 9.93934 8.24499 9.87874 8.2946C9.81813 8.34421 9.76964 8.39383 9.7454 8.46825C9.7454 8.49305 9.7454 8.50546 9.73328 8.53026C9.73328 8.55507 9.72116 8.56747 9.72116 8.59228C9.72116 8.6667 9.7454 8.72871 9.79389 8.79073C9.81813 8.84034 9.86661 8.88995 9.93934 8.90236Z" fill="black"/>
</mask>
<g mask="url(#mask0)">
<path d="M8.47271 14.6822C7.58786 14.6822 6.75149 14.5209 5.99998 14.1861C5.23634 13.8636 4.54543 13.4047 3.97574 12.8341C3.40604 12.2636 2.94543 11.5814 2.60604 10.8124C2.26665 10.0558 2.08483 9.22483 2.04846 8.34421H1.6121C1.53937 8.34421 1.47877 8.3194 1.41816 8.25738C1.36968 8.20777 1.33331 8.13335 1.33331 8.04653C1.33331 7.38917 1.41816 6.7442 1.57574 6.14886C1.73331 5.57831 1.95149 5.02017 2.23028 4.49924L2.08483 4.36281L2.03634 4.26358L2.0121 4.17676C2.0121 4.15196 2.0121 4.12715 2.02422 4.10234C2.03634 4.07754 2.04846 4.05273 2.06059 4.02793L2.09695 3.95351C2.4121 3.40777 2.79998 2.92405 3.24846 2.51475C3.69695 2.09304 4.21816 1.75816 4.76362 1.5101H4.77574C4.8121 1.48529 4.84846 1.47289 4.87271 1.47289H4.93331L4.9818 1.48529C5.06665 1.49769 5.10301 1.5349 5.12725 1.55971L5.16362 1.59692C5.63634 1.33645 6.14543 1.138 6.69089 0.989166C7.26059 0.840329 7.8424 0.753507 8.44846 0.741104H8.48483C8.54543 0.741104 8.60604 0.76591 8.65453 0.80312C8.70301 0.840329 8.73937 0.902344 8.75149 0.96436V0.989166V1.47289C9.59998 1.49769 10.4 1.69614 11.1394 2.04343C11.8909 2.40312 12.5454 2.88684 13.103 3.46979C13.6606 4.06514 14.0969 4.75971 14.4242 5.5411C14.7394 6.3225 14.9091 7.16591 14.9091 8.04653C14.9091 8.93955 14.7394 9.79537 14.4 10.5892C14.0727 11.383 13.6121 12.1023 13.0303 12.6977C12.4485 13.293 11.7576 13.7768 10.9818 14.1241C10.206 14.4961 9.36968 14.6822 8.47271 14.6822ZM2.47271 4.57366C2.19392 5.09459 1.96362 5.65273 1.81816 6.22327C1.66059 6.80622 1.57574 7.42638 1.57574 8.05893C1.57574 8.08374 1.58786 8.08374 1.58786 8.09614C1.59998 8.10855 1.59998 8.10855 1.6121 8.10855H2.29089V8.307C2.31513 9.16281 2.49695 9.98141 2.82422 10.7132C3.15149 11.4574 3.59998 12.1147 4.14543 12.6605C4.69089 13.2062 5.34543 13.6527 6.08483 13.9628C6.8121 14.2853 7.6121 14.4341 8.47271 14.4341C9.33331 14.4341 10.1454 14.2605 10.8848 13.9132C11.6363 13.5783 12.303 13.107 12.8606 12.5365C13.4182 11.9535 13.8666 11.2713 14.1818 10.5023C14.5091 9.74576 14.6788 8.91475 14.6788 8.05893C14.6788 7.20312 14.5212 6.39692 14.2182 5.64033C13.9151 4.88374 13.4909 4.21397 12.9576 3.65583C12.4242 3.08529 11.7818 2.62638 11.0666 2.27909C10.3515 1.9318 9.56362 1.74576 8.72725 1.73335H8.53331V1.01397C8.53331 1.00157 8.52119 1.00157 8.52119 0.989166C8.48483 0.976763 8.48483 0.976763 8.48483 0.976763H8.47271C7.89089 0.989166 7.32119 1.06358 6.77574 1.21242C6.23028 1.36126 5.72119 1.57211 5.24846 1.82017L5.22422 1.83258H5.07877L4.96968 1.69614H4.92119L4.88483 1.70855C4.35149 1.9442 3.85453 2.26669 3.43028 2.66358C2.99392 3.06048 2.63028 3.5318 2.32725 4.04033L2.26665 4.15196V4.16436L2.27877 4.18917L2.48483 4.37521V4.49924H2.49695L2.47271 4.57366ZM8.54543 14.3597H8.47271C7.64846 14.3597 6.87271 14.1985 6.14543 13.8884C5.41816 13.5783 4.76362 13.1442 4.21816 12.5985C3.67271 12.0527 3.22422 11.4078 2.89695 10.676C2.56968 9.9442 2.38786 9.138 2.35149 8.29459V8.09614H3.03028L3.0424 8.08374L8.49695 2.52715L8.52119 2.48994V1.78296H8.71513C9.53937 1.80777 10.3151 2.00622 11.0303 2.35351C11.7454 2.68839 12.3757 3.14731 12.9091 3.70545C13.4424 4.26358 13.8545 4.92095 14.1576 5.66514C14.4606 6.40932 14.6182 7.21552 14.6182 8.04653V8.07134C14.6182 8.92715 14.4606 9.74576 14.1333 10.5023C13.8182 11.2589 13.3697 11.9287 12.8121 12.4992C12.2788 13.0574 11.6363 13.5163 10.8969 13.8512C10.1697 14.1985 9.3818 14.3597 8.54543 14.3597ZM2.59392 8.34421C2.63028 9.15041 2.79998 9.89459 3.11513 10.5892C3.43028 11.2961 3.85453 11.9163 4.38786 12.4372C4.92119 12.9582 5.53937 13.3799 6.2424 13.6775C6.93331 13.9752 7.68483 14.1241 8.47271 14.1241H8.54543C9.34543 14.1241 10.1091 13.9628 10.8121 13.6403C11.5151 13.3178 12.1333 12.8837 12.6545 12.338C13.1879 11.7923 13.6121 11.1473 13.9273 10.4279C14.2303 9.70855 14.3879 8.91475 14.3879 8.09614V8.07134C14.3879 7.27754 14.2424 6.49614 13.9394 5.77676C13.6485 5.06979 13.2485 4.43723 12.7394 3.89149C12.2303 3.35816 11.6242 2.91165 10.9333 2.58917C10.2666 2.25428 9.53937 2.08064 8.76362 2.04343V2.48994C8.76362 2.52715 8.75149 2.56436 8.73937 2.60157L8.69089 2.68839L3.22422 8.26979C3.2121 8.28219 3.18786 8.307 3.16362 8.3194C3.12725 8.3442 3.09089 8.35661 3.05453 8.35661H2.59392V8.34421ZM8.55756 11.6558C8.07271 11.6558 7.62422 11.569 7.19998 11.383C6.77574 11.2093 6.39998 10.9613 6.07271 10.6636C5.73331 10.3535 5.46665 9.96901 5.27271 9.54731C5.07877 9.1132 4.96968 8.65428 4.95756 8.15816V8.03413C4.95756 7.538 5.0424 7.07909 5.22422 6.64498C5.40604 6.21087 5.64846 5.83878 5.97574 5.5163C6.29089 5.19382 6.66665 4.93335 7.07877 4.7349C7.50301 4.54886 7.96362 4.44963 8.44846 4.43723H8.55756C9.0424 4.43723 9.51513 4.52405 9.93937 4.7101C10.3636 4.89614 10.7273 5.15661 11.0545 5.46669C11.3818 5.77676 11.6363 6.14886 11.8303 6.57056C12.0242 6.99227 12.1333 7.43878 12.1454 7.9225C12.1576 7.94731 12.1576 7.98451 12.1576 8.00932V8.07134C12.1576 8.56746 12.0606 9.03878 11.8788 9.47289C11.6969 9.907 11.4303 10.2915 11.103 10.6264C10.7757 10.9489 10.3879 11.2093 9.9515 11.383C9.52725 11.569 9.06665 11.6558 8.55756 11.6558ZM8.46059 4.69769C7.99998 4.7101 7.57574 4.79692 7.18786 4.97056C6.79998 5.15661 6.44846 5.40467 6.15756 5.70234C5.86665 6.00002 5.62422 6.34731 5.46665 6.7442C5.29695 7.1411 5.2121 7.57521 5.2121 8.03413V8.15816C5.22422 8.61707 5.32119 9.03878 5.50301 9.44808C5.68483 9.84498 5.93937 10.1923 6.25453 10.4899C6.55756 10.7752 6.90907 10.9985 7.30907 11.1597C7.69695 11.3209 8.13331 11.4078 8.5818 11.4078C9.05453 11.4078 9.49089 11.3209 9.89089 11.1473C10.303 10.9861 10.6666 10.7504 10.9576 10.4403C11.2606 10.1427 11.503 9.78296 11.6727 9.37366C11.8424 8.96436 11.9394 8.53025 11.9394 8.07134V8.00932L11.903 7.98452V7.94731C11.8909 7.50079 11.7939 7.07909 11.6121 6.66979C11.4424 6.28529 11.2 5.938 10.8969 5.64033C10.5939 5.34265 10.2424 5.107 9.85453 4.93335C9.45453 4.77211 9.03028 4.68529 8.56968 4.68529H8.46059V4.69769ZM8.54543 11.3209H8.44846C8.0121 11.3085 7.58786 11.2217 7.2121 11.0481C6.82422 10.8868 6.48483 10.6512 6.20604 10.3659C5.92725 10.0806 5.69695 9.73335 5.52725 9.34886C5.36968 8.95196 5.28483 8.54265 5.28483 8.09614V7.95971C5.28483 7.5132 5.3818 7.09149 5.56362 6.69459C5.74543 6.29769 5.98786 5.96281 6.30301 5.67754C6.5818 5.39227 6.92119 5.16901 7.30907 5.02017C7.69695 4.85893 8.10907 4.78452 8.54543 4.78452H8.6424C9.07877 4.79692 9.50301 4.88374 9.87877 5.05738C10.2666 5.21862 10.606 5.45428 10.8848 5.75196C11.1636 6.04963 11.3939 6.38451 11.5636 6.78141C11.7212 7.17831 11.806 7.58762 11.806 8.02172V8.15816C11.7939 8.61707 11.6969 9.03878 11.5273 9.42327C11.3454 9.80777 11.103 10.1551 10.8 10.4403C10.5091 10.7132 10.1697 10.9365 9.7818 11.0977C9.3818 11.2465 8.96968 11.3209 8.54543 11.3209ZM8.63028 5.03258H8.54543C8.13331 5.03258 7.75756 5.107 7.39392 5.25583C7.0424 5.40467 6.72725 5.60312 6.47271 5.86358C6.19392 6.12405 5.96362 6.44653 5.79392 6.80622C5.62422 7.16591 5.53937 7.55041 5.53937 7.95971V8.09614C5.53937 8.50545 5.6121 8.88994 5.75756 9.24963C5.91513 9.60932 6.12119 9.9194 6.38786 10.1923C6.65453 10.4527 6.95756 10.676 7.32119 10.8248C7.67271 10.9861 8.04847 11.0605 8.46059 11.0729H8.54543C8.94543 11.0729 9.32119 10.9985 9.67271 10.8496C10.0242 10.7008 10.3515 10.4899 10.6182 10.2419C10.8969 9.98141 11.1273 9.67134 11.2848 9.31165C11.4545 8.95196 11.5394 8.56746 11.5515 8.14576V8.00932C11.5515 7.61242 11.4788 7.22793 11.3333 6.86824C11.1757 6.50855 10.9697 6.18607 10.703 5.9256C10.4363 5.65273 10.1333 5.44188 9.76968 5.28064C9.43028 5.1318 9.0424 5.04498 8.63028 5.03258ZM8.52119 10.5644C8.27877 10.5644 8.08483 10.4899 7.92725 10.3287C7.7818 10.1923 7.70907 10.0186 7.69695 9.82017L7.68483 9.75816C7.68483 9.5349 7.76968 9.33645 7.91513 9.18762C8.07271 9.03878 8.25453 8.96436 8.47271 8.96436H8.49695C8.60604 8.96436 8.70301 8.98917 8.79998 9.02638C8.89695 9.06359 8.9818 9.1256 9.05452 9.20002C9.12725 9.24963 9.17574 9.33645 9.22422 9.43568C9.26059 9.5349 9.28483 9.63413 9.28483 9.73335V9.78296C9.28483 9.99382 9.2121 10.1799 9.05452 10.3411C8.92119 10.4775 8.73937 10.552 8.52119 10.5644ZM7.92725 9.70855L7.93937 9.77056C7.93937 9.9194 7.98786 10.0434 8.09695 10.1551C8.20604 10.2667 8.33937 10.3163 8.49695 10.3163C8.65453 10.3039 8.78786 10.2543 8.88483 10.1427C8.99392 10.0434 9.0424 9.9194 9.0424 9.77056V9.72095C9.0424 9.65893 9.03028 9.59692 8.99392 9.5225C8.96968 9.46048 8.93331 9.41087 8.88483 9.37366C8.82422 9.31165 8.76362 9.27444 8.70301 9.24963C8.6424 9.22482 8.56968 9.21242 8.49695 9.21242H8.47271C8.43634 9.21242 8.4121 9.21242 8.37574 9.22482V9.31165C8.39998 9.29924 8.43634 9.29924 8.47271 9.29924H8.53331C8.63028 9.32405 8.70301 9.38607 8.77574 9.46048C8.84846 9.54731 8.88483 9.64653 8.88483 9.75816C8.88483 9.86979 8.84846 9.96901 8.77574 10.0558C8.70301 10.1427 8.61816 10.1923 8.50907 10.2295H8.48483C8.42422 10.2295 8.36362 10.2171 8.30301 10.1923C8.2424 10.1675 8.19392 10.1303 8.15756 10.093L8.14543 10.0682C8.12119 10.031 8.09695 9.99382 8.07271 9.94421C8.04846 9.88219 8.02422 9.83258 8.02422 9.77056V9.73335C8.03634 9.67134 8.06059 9.60932 8.08483 9.55971C8.10907 9.5101 8.13331 9.46048 8.16968 9.42327L8.31513 9.23723C8.23028 9.26203 8.15756 9.31165 8.09695 9.37366C7.98786 9.46048 7.93937 9.57211 7.92725 9.70855ZM8.31513 9.9194C8.33937 9.9318 8.35149 9.94421 8.38786 9.95661C8.4121 9.96901 8.43634 9.96901 8.46059 9.98141C8.50907 9.96901 8.55756 9.9318 8.5818 9.89459C8.61816 9.85738 8.63028 9.80777 8.63028 9.75816C8.63028 9.70855 8.61816 9.65893 8.5818 9.62172C8.54543 9.58451 8.50907 9.55971 8.47271 9.54731H8.46059C8.43634 9.54731 8.4121 9.54731 8.38786 9.55971C8.36362 9.57211 8.35149 9.58452 8.32725 9.59692L8.30301 9.62172C8.29089 9.63413 8.27877 9.65893 8.27877 9.67134C8.26665 9.69614 8.25453 9.73335 8.2424 9.77056C8.2424 9.79537 8.2424 9.80777 8.25453 9.83258C8.29089 9.86979 8.30301 9.89459 8.31513 9.9194ZM6.90907 9.39847C6.84846 9.39847 6.78786 9.38607 6.72725 9.37366C6.67877 9.36126 6.61816 9.33645 6.56968 9.31165V9.29924C6.47271 9.24963 6.39998 9.18762 6.33937 9.1132C6.27877 9.03878 6.23028 8.95196 6.20604 8.86514C6.19392 8.82793 6.1818 8.79072 6.16968 8.7411C6.15756 8.69149 6.14543 8.62948 6.14543 8.57986C6.14543 8.40622 6.19392 8.25738 6.29089 8.12095C6.38786 7.98451 6.50907 7.89769 6.66665 7.83568C6.70301 7.82328 6.73937 7.81087 6.78786 7.81087C6.82422 7.81087 6.87271 7.79847 6.92119 7.79847C7.09089 7.79847 7.23634 7.84808 7.36968 7.94731C7.47877 8.03413 7.5515 8.13335 7.6121 8.24498H7.63634L7.66059 8.3318C7.67271 8.36901 7.68483 8.40622 7.68483 8.45583C7.68483 8.49304 7.69695 8.54265 7.69695 8.59227C7.69695 8.76591 7.64846 8.92715 7.53937 9.06358C7.4424 9.20002 7.30907 9.29924 7.16362 9.36126C7.12725 9.37366 7.07877 9.38607 7.0424 9.38607C6.9818 9.38607 6.94543 9.39847 6.90907 9.39847ZM6.66665 9.08839C6.70301 9.10079 6.75149 9.1132 6.78786 9.1256C6.84846 9.15041 6.90907 9.15041 6.99392 9.138C7.01816 9.138 7.0424 9.1256 7.06665 9.1256C7.17574 9.08839 7.26059 9.01397 7.33331 8.91475C7.40604 8.81552 7.4424 8.7163 7.4424 8.59227C7.4424 8.55506 7.4424 8.53025 7.4424 8.50545H7.43028L7.39392 8.40622C7.35756 8.29459 7.29695 8.20777 7.2121 8.14576C7.12725 8.07134 7.01816 8.04653 6.90907 8.04653C6.87271 8.04653 6.83634 8.04653 6.8121 8.05893C6.78786 8.05893 6.76362 8.07134 6.73937 8.07134C6.63028 8.10855 6.54543 8.18297 6.47271 8.26979C6.4121 8.35661 6.37574 8.45583 6.37574 8.57986C6.37574 8.61707 6.37574 8.65428 6.38786 8.69149C6.39998 8.7287 6.4121 8.76591 6.4121 8.79072C6.43634 8.85273 6.47271 8.91475 6.50907 8.97676C6.55756 9.01397 6.60604 9.05118 6.66665 9.08839ZM10.0363 9.38607H9.92725L9.81816 9.36126C9.66059 9.31165 9.52725 9.22483 9.43028 9.07599C9.33331 8.93955 9.27271 8.77831 9.27271 8.60467C9.27271 8.55506 9.27271 8.51785 9.28483 8.46824C9.28483 8.41862 9.29695 8.38141 9.30907 8.3318C9.34544 8.24498 9.39392 8.15816 9.4424 8.08374C9.50301 8.00932 9.58786 7.9349 9.68483 7.88529C9.73331 7.86048 9.79392 7.83568 9.85453 7.82327C9.91513 7.81087 9.97574 7.81087 10.0485 7.81087H10.2666C10.4363 7.86048 10.5697 7.95971 10.6788 8.09614C10.7757 8.24498 10.8363 8.40622 10.8363 8.57986C10.8363 8.61707 10.8363 8.65428 10.8242 8.69149C10.8242 8.7287 10.8121 8.76591 10.8 8.80312C10.7636 8.90234 10.7151 9.00157 10.6545 9.07599C10.5939 9.15041 10.5212 9.22482 10.4363 9.28684L10.4 9.31165H10.3757C10.3273 9.33645 10.2909 9.34886 10.2303 9.34886C10.1697 9.37366 10.0969 9.38607 10.0363 9.38607ZM9.9515 9.138H10.0363C10.0848 9.138 10.1333 9.138 10.1818 9.1256C10.2182 9.1132 10.2545 9.10079 10.2909 9.08839L10.3151 9.07599C10.3636 9.03878 10.4121 8.98917 10.4485 8.93955C10.4969 8.87754 10.5333 8.81552 10.5576 8.7287C10.5697 8.7039 10.5697 8.67909 10.5697 8.65428C10.5697 8.62948 10.5697 8.60467 10.5697 8.57986C10.5697 8.45583 10.5333 8.3442 10.4606 8.24498C10.3879 8.14576 10.303 8.08374 10.1939 8.05893H10.0242C9.97574 8.05893 9.92725 8.05893 9.87877 8.07134C9.8424 8.08374 9.80604 8.09614 9.76968 8.10855C9.70907 8.14576 9.64847 8.18296 9.6121 8.23258C9.57574 8.28219 9.53937 8.3442 9.51513 8.41862C9.50301 8.44343 9.50301 8.46824 9.50301 8.49304C9.50301 8.53025 9.49089 8.56746 9.49089 8.60467C9.49089 8.7287 9.52725 8.84033 9.59998 8.92715C9.67271 9.02638 9.75756 9.08839 9.85453 9.1132L9.9515 9.138ZM6.87271 9.06358C6.83634 9.06358 6.79998 9.05118 6.76362 9.03878C6.73937 9.02638 6.70301 9.01397 6.69089 9.00157L6.61816 8.96436V8.95196C6.59392 8.93955 6.56968 8.91475 6.54543 8.88994C6.50907 8.84033 6.48483 8.79072 6.47271 8.7287V8.7039C6.47271 8.69149 6.47271 8.69149 6.47271 8.69149C6.46059 8.66669 6.46059 8.62948 6.46059 8.60467C6.46059 8.49304 6.49695 8.39382 6.55756 8.3194C6.61816 8.24498 6.69089 8.18296 6.78786 8.15816L6.83634 8.13335H6.90907C7.00604 8.13335 7.09089 8.15816 7.17574 8.22017C7.26059 8.28219 7.32119 8.35661 7.34543 8.45583L7.36968 8.54265V8.57986C7.36968 8.67909 7.34543 8.77831 7.28483 8.86514C7.22422 8.95196 7.15149 9.01397 7.0424 9.05118H7.00604H6.93331C6.92119 9.05118 6.89695 9.06358 6.87271 9.06358ZM6.70301 8.69149C6.70301 8.70389 6.71513 8.7287 6.72725 8.7411C6.72725 8.75351 6.73937 8.75351 6.76362 8.76591L6.86059 8.79072V8.81552C6.87271 8.81552 6.88483 8.80312 6.90907 8.80312H6.99392C7.03028 8.79072 7.05453 8.76591 7.07877 8.7287C7.10301 8.67909 7.11513 8.62948 7.11513 8.57986V8.55506L7.10301 8.51785C7.09089 8.48064 7.06665 8.44343 7.03028 8.41862C6.99392 8.39382 6.94543 8.38141 6.89695 8.38141H6.86059L6.83634 8.39382C6.78786 8.40622 6.75149 8.43103 6.72725 8.46824C6.70301 8.50545 6.67877 8.55506 6.67877 8.60467C6.67877 8.61707 6.67877 8.61707 6.67877 8.61707C6.70301 8.64188 6.70301 8.66669 6.70301 8.69149ZM10.0485 9.02638H9.91513C9.81816 9.00157 9.73331 8.93955 9.67271 8.86514C9.6121 8.77831 9.57574 8.69149 9.57574 8.59227C9.57574 8.56746 9.57574 8.53025 9.58786 8.50545C9.58786 8.49304 9.58786 8.48064 9.58786 8.48064V8.45583L9.59998 8.43103C9.63634 8.3442 9.69695 8.26979 9.7818 8.20777C9.86665 8.14576 9.9515 8.12095 10.0485 8.12095C10.0848 8.12095 10.1091 8.12095 10.1333 8.13335H10.1576L10.1818 8.14576C10.2666 8.18297 10.3515 8.24498 10.4 8.3194C10.4606 8.40622 10.4969 8.49304 10.4969 8.60467C10.4969 8.64188 10.4969 8.66669 10.4848 8.7039V8.7411L10.4727 8.76591C10.4363 8.84033 10.3757 8.91475 10.303 8.96436C10.2303 9.00157 10.1454 9.02638 10.0485 9.02638ZM9.96362 8.77831H10.0485C10.0969 8.77831 10.1333 8.76591 10.1697 8.7411C10.206 8.7163 10.2303 8.69149 10.2545 8.65428C10.2545 8.64188 10.2545 8.61707 10.2666 8.59227C10.2666 8.59227 10.2666 8.59227 10.2666 8.57986C10.2666 8.53025 10.2545 8.48064 10.2182 8.44343C10.1939 8.40622 10.1576 8.36901 10.1091 8.35661C10.0969 8.35661 10.0848 8.35661 10.0606 8.34421C10.0606 8.34421 10.0606 8.34421 10.0485 8.34421C9.99998 8.34421 9.96362 8.35661 9.92725 8.39382C9.89089 8.41862 9.85452 8.45583 9.8424 8.49304C9.8424 8.51785 9.8424 8.53025 9.83028 8.55506C9.83028 8.56746 9.83028 8.57986 9.83028 8.57986C9.83028 8.61707 9.8424 8.66669 9.87877 8.7039C9.89089 8.74111 9.92725 8.76591 9.96362 8.77831ZM3.01816 8.02172H1.64846V7.69924C1.67271 7.16591 1.74543 6.63258 1.89089 6.13645C2.02422 5.62793 2.21816 5.15661 2.43634 4.7349L2.5818 4.48684L3.24846 5.16901C3.26059 5.16901 3.27271 5.16901 3.29695 5.16901L5.89089 2.7256V2.7132V2.70079L5.87877 2.68839L5.12725 1.907L5.3818 1.79537C5.80604 1.57211 6.25453 1.39847 6.72725 1.27444C7.19998 1.15041 7.70907 1.07599 8.21816 1.05118H8.43634V2.44033L3.01816 8.02172ZM1.89089 7.77366H2.92119L8.19392 2.3287V1.28684C7.70907 1.31165 7.23634 1.38607 6.78786 1.49769C6.35149 1.60932 5.93937 1.77056 5.53937 1.96901L6.03634 2.48994C6.04846 2.50234 6.06059 2.52715 6.08483 2.53955C6.10907 2.57676 6.12119 2.61397 6.12119 2.66358V2.67599C6.12119 2.70079 6.12119 2.738 6.10907 2.76281C6.09695 2.81242 6.07271 2.84963 6.02422 2.87444L3.45453 5.35506C3.43028 5.37986 3.39392 5.39227 3.35756 5.40467C3.29695 5.41707 3.22422 5.41707 3.17574 5.40467C3.13937 5.39227 3.11513 5.37986 3.09089 5.35506L2.63028 4.88374C2.42422 5.28064 2.25453 5.72715 2.12119 6.19847C1.98786 6.68219 1.91513 7.19072 1.89089 7.69924V7.77366ZM9.4424 7.5132C9.35756 7.5132 9.27271 7.50079 9.19998 7.46358C9.1515 7.43878 9.09089 7.41397 9.0424 7.38917H9.00604L8.9818 7.36436C8.88483 7.28994 8.8121 7.20312 8.75149 7.07909C8.70301 6.96746 8.66665 6.84343 8.66665 6.7318C8.66665 6.63258 8.67877 6.54576 8.71513 6.47134C8.73937 6.39692 8.77574 6.3225 8.82422 6.26048C8.87271 6.17366 8.94543 6.11165 9.03028 6.04963C9.11513 6.00002 9.2121 5.96281 9.30907 5.95041H9.32119H9.45452C9.52725 5.95041 9.59998 5.96281 9.67271 5.98762C9.73331 6.01242 9.7818 6.02483 9.83028 6.06203H9.86665L9.90301 6.08684C9.99998 6.16126 10.0727 6.24808 10.1333 6.35971C10.1818 6.47134 10.2182 6.59537 10.2182 6.7194C10.2182 6.81862 10.206 6.89304 10.1818 6.97986C10.1576 7.05428 10.1212 7.1411 10.0606 7.20312C9.99998 7.30234 9.91513 7.37676 9.80604 7.43878C9.69695 7.47599 9.57574 7.5132 9.4424 7.5132ZM9.09089 7.1411H9.11513L9.13937 7.15351C9.18786 7.17831 9.23634 7.20312 9.28483 7.22793C9.33331 7.25273 9.3818 7.25273 9.4424 7.25273C9.53937 7.25273 9.6121 7.22793 9.68483 7.19072C9.75756 7.15351 9.81816 7.10389 9.85453 7.02948L9.86665 7.01707C9.90301 6.96746 9.93937 6.91785 9.9515 6.86824C9.96362 6.81862 9.97574 6.75661 9.97574 6.68219C9.97574 6.59537 9.9515 6.50855 9.91513 6.43413C9.87877 6.37211 9.8424 6.3225 9.79392 6.27289H9.76968L9.74543 6.26048C9.69695 6.23568 9.64846 6.21087 9.59998 6.19847C9.55149 6.18607 9.50301 6.17366 9.45452 6.17366H9.33331C9.27271 6.18607 9.2121 6.19847 9.16362 6.23568C9.10301 6.27289 9.06665 6.3101 9.0424 6.37211C9.00604 6.43413 8.96968 6.48374 8.95756 6.54576C8.93331 6.59537 8.93331 6.65738 8.93331 6.7194C8.93331 6.80622 8.95756 6.88064 8.99392 6.96746C8.99392 7.04188 9.0424 7.09149 9.09089 7.1411ZM7.51513 7.50079C7.3818 7.50079 7.26059 7.47599 7.15149 7.41397C7.06665 7.36436 6.99392 7.31475 6.93331 7.25273H6.90907L6.87271 7.20312C6.82422 7.1287 6.78786 7.05428 6.76362 6.97986C6.73937 6.90545 6.72725 6.81862 6.72725 6.7318C6.72725 6.59537 6.76362 6.47134 6.8121 6.35971C6.87271 6.24808 6.94543 6.14886 7.0424 6.08684C7.10301 6.03723 7.17574 6.00002 7.24846 5.97521C7.4424 5.9132 7.67271 5.938 7.8424 6.02483C7.92725 6.07444 7.99998 6.12405 8.06059 6.19847H8.07271L8.10907 6.24808C8.15756 6.3101 8.19392 6.38452 8.23028 6.47134C8.25453 6.55816 8.27877 6.64498 8.27877 6.7318C8.27877 6.86824 8.2424 6.99227 8.1818 7.09149C8.12119 7.20312 8.04846 7.28994 7.95149 7.35196C7.89089 7.40157 7.81816 7.43878 7.74543 7.46358C7.68483 7.47599 7.59998 7.50079 7.51513 7.50079ZM7.03028 6.99227L7.06665 7.02948C7.11513 7.09149 7.18786 7.1411 7.26059 7.19072C7.33331 7.22793 7.41816 7.25273 7.50301 7.25273C7.56362 7.25273 7.6121 7.24033 7.66059 7.22793C7.70907 7.20312 7.75756 7.17831 7.80604 7.15351C7.87877 7.10389 7.92725 7.04188 7.97574 6.96746C8.0121 6.89304 8.03634 6.81862 8.03634 6.7194C8.03634 6.65738 8.02422 6.60777 7.99998 6.54576C7.98786 6.50855 7.97574 6.47134 7.95149 6.44653H7.93937L7.90301 6.39692C7.85453 6.3349 7.79392 6.28529 7.72119 6.23568C7.6121 6.17366 7.45452 6.16126 7.30907 6.21087C7.26059 6.22327 7.2121 6.24808 7.17574 6.28529C7.10301 6.3349 7.05453 6.39692 7.00604 6.48374C6.96968 6.55816 6.94543 6.64498 6.94543 6.7318C6.94543 6.79382 6.95756 6.84343 6.96968 6.90545C7.00604 6.91785 7.01816 6.95506 7.03028 6.99227ZM9.45452 7.16591H9.41816C9.36968 7.16591 9.33331 7.15351 9.28483 7.1411C9.23634 7.1287 9.19998 7.1039 9.17574 7.07909C9.11513 7.04188 9.06665 6.97986 9.03028 6.91785C8.99392 6.85583 8.9818 6.78141 8.9818 6.707C8.9818 6.65738 8.99392 6.59537 9.01816 6.54576C9.03028 6.50855 9.0424 6.48374 9.06665 6.45893V6.43413L9.10301 6.39692C9.13937 6.35971 9.17574 6.3349 9.2121 6.3101C9.24846 6.28529 9.29695 6.26048 9.35756 6.24808H9.3818C9.4424 6.24808 9.50301 6.24808 9.5515 6.26048C9.6121 6.27289 9.66059 6.28529 9.70907 6.3101L9.73331 6.3225C9.79392 6.37211 9.83028 6.42172 9.86665 6.49614C9.89089 6.55816 9.90301 6.63258 9.90301 6.69459C9.90301 6.75661 9.89089 6.80622 9.86665 6.85583C9.85453 6.89304 9.83028 6.94266 9.80604 6.97986C9.75756 7.04188 9.72119 7.07909 9.66059 7.1163C9.59998 7.1411 9.52725 7.16591 9.45452 7.16591ZM9.30907 6.53335L9.27271 6.58296C9.27271 6.58296 9.26059 6.59537 9.24847 6.63258C9.23634 6.65738 9.23634 6.68219 9.23634 6.707C9.23634 6.7318 9.24847 6.76901 9.26059 6.80622C9.27271 6.83103 9.29695 6.85583 9.33331 6.88064L9.35756 6.89304C9.36968 6.90545 9.36968 6.90545 9.3818 6.90545C9.39392 6.90545 9.41816 6.91785 9.43028 6.91785H9.45452C9.47877 6.91785 9.50301 6.90545 9.52725 6.89304C9.55149 6.88064 9.57574 6.85583 9.59998 6.81862C9.6121 6.80622 9.62422 6.76901 9.63634 6.7442C9.64847 6.7194 9.64846 6.707 9.64846 6.68219C9.64846 6.64498 9.63634 6.60777 9.62422 6.58296C9.6121 6.55816 9.59998 6.53335 9.57574 6.52095C9.55149 6.50855 9.51513 6.49614 9.47877 6.49614C9.4424 6.48374 9.40604 6.48374 9.36968 6.48374C9.34544 6.49614 9.33331 6.49614 9.30907 6.50855C9.33331 6.50855 9.32119 6.52095 9.30907 6.53335ZM7.51513 7.16591H7.47877C7.40604 7.16591 7.34543 7.15351 7.27271 7.1163C7.2121 7.07909 7.16362 7.04188 7.11513 6.97986L6.96968 6.78141H7.0424C7.0424 6.75661 7.03028 6.7318 7.03028 6.707C7.03028 6.62017 7.0424 6.54576 7.07877 6.48374C7.11513 6.43413 7.15149 6.37211 7.19998 6.3225L7.23634 6.28529H7.27271C7.30907 6.27289 7.34543 6.24808 7.3818 6.24808C7.43028 6.23568 7.47877 6.22327 7.53937 6.22327H7.58786C7.64846 6.23568 7.69695 6.26048 7.74543 6.29769C7.79392 6.3349 7.83028 6.37211 7.86665 6.42172C7.89089 6.47134 7.91513 6.50855 7.92725 6.55816C7.93937 6.59537 7.93937 6.63258 7.93937 6.66979C7.93937 6.75661 7.92725 6.83103 7.89089 6.89304C7.85453 6.94265 7.81816 7.00467 7.76968 7.05428L7.75756 7.09149L7.51513 7.16591ZM7.36968 6.86824C7.3818 6.88064 7.39392 6.88064 7.39392 6.89304C7.41816 6.90545 7.4424 6.91785 7.47877 6.91785L7.63634 6.86824C7.66059 6.84343 7.68483 6.81862 7.69695 6.78141C7.70907 6.75661 7.72119 6.7194 7.72119 6.68219C7.72119 6.65738 7.72119 6.63258 7.72119 6.60777C7.72119 6.59537 7.70907 6.58296 7.70907 6.57056C7.68483 6.54576 7.66059 6.52095 7.63634 6.49614C7.6121 6.48374 7.59998 6.47134 7.57574 6.47134C7.53937 6.47134 7.50301 6.47134 7.47877 6.48374C7.45453 6.49614 7.41816 6.50855 7.3818 6.52095H7.36968C7.34543 6.54576 7.33331 6.57056 7.32119 6.59537C7.30907 6.62017 7.29695 6.65738 7.29695 6.69459C7.29695 6.7194 7.29695 6.7318 7.30907 6.7442C7.32119 6.76901 7.33331 6.79382 7.35756 6.81862L7.36968 6.86824ZM3.27271 5.08219L2.33937 4.12715L2.44846 3.96591C2.71513 3.507 3.0424 3.08529 3.43028 2.7256C3.81816 2.35351 4.26665 2.05583 4.76362 1.82017L4.78786 1.80777H4.94543L5.83028 2.67599L3.27271 5.08219ZM2.65453 4.10234L3.27271 4.7349L5.47877 2.67599L4.84846 2.05583C4.38786 2.27909 3.96362 2.56436 3.59998 2.91165C3.22422 3.25893 2.90907 3.65583 2.66665 4.08994L2.65453 4.10234Z" fill="#2D3E50"/>
</g>
</svg>
