<svg width="24" height="24" viewBox="0 0 24 24" fill="none" xmlns="http://www.w3.org/2000/svg">
<path d="M12.6909 6.8605H12.8546C13.5636 6.8605 14.2364 6.99073 14.8546 7.2512C15.4546 7.53027 16 7.88376 16.4727 8.34887C16.9455 8.79538 17.3091 9.33492 17.5818 9.94887C17.8727 10.5628 18.0182 11.2326 18.0364 11.9396C18.0546 11.9768 18.0546 11.9954 18.0546 12.0326V12.1256C18.0546 12.8326 17.9091 13.521 17.6364 14.1535C17.3636 14.7861 17 15.3442 16.5273 15.8093C16.0546 16.2745 15.5091 16.6465 14.8727 16.907C14.2546 17.1861 13.5818 17.3163 12.8364 17.3163C12.1455 17.3163 11.4727 17.1861 10.8727 16.9256C10.2546 16.6652 9.7091 16.3117 9.23638 15.8838C8.74547 15.4372 8.36365 14.8977 8.07274 14.2652C7.78183 13.6512 7.63638 12.9814 7.61819 12.2558V12.2372V12.107V12.0884V12.0698C7.61819 11.3628 7.74547 10.6931 8.00001 10.0605C8.25456 9.44655 8.61819 8.88841 9.09092 8.42329C9.54547 7.95818 10.0909 7.58608 10.6909 7.28841C11.3091 7.02794 11.9636 6.87911 12.6909 6.8605ZM8.12729 12.0884V12.1256V12.1442C8.12729 12.7768 8.23638 13.3907 8.47274 13.9489C8.7091 14.507 9.03638 15.0093 9.45456 15.4186C9.87274 15.8279 10.3455 16.1628 10.9091 16.4047C11.4546 16.6465 12.0546 16.7768 12.6909 16.7954H12.8364C13.4546 16.7954 14.0546 16.6838 14.6 16.4419C15.1455 16.2 15.6364 15.8838 16.0727 15.4931C16.5091 15.0838 16.8546 14.6 17.1273 14.0419C17.3818 13.4838 17.5273 12.8698 17.5455 12.2186V12.1256V12.014C17.5455 11.4 17.4364 10.8047 17.2 10.2279C16.9636 9.6698 16.6364 9.16748 16.2182 8.73957C15.8 8.31166 15.3273 7.97678 14.7636 7.73492C14.2182 7.49306 13.6182 7.36283 12.9818 7.34422H12.8364C12.2 7.34422 11.6 7.45585 11.0546 7.67911C10.5091 7.90236 10.0182 8.21864 9.60001 8.62794C9.16365 9.03724 8.80001 9.52097 8.54547 10.0977C8.27274 10.6745 8.14547 11.2698 8.14547 11.9024V11.9768V12.0884H8.12729ZM3.54547 6.80469V6.69306L3.27274 6.43259L3.21819 6.33957C3.21819 6.33957 3.21819 6.30236 3.20001 6.24655C3.20001 6.22794 3.20001 6.20934 3.21819 6.19073C3.21819 6.17213 3.23638 6.15352 3.25456 6.13492L3.32728 6.00469C3.78183 5.22329 4.34547 4.51631 5.01819 3.90236C5.69092 3.28841 6.43638 2.80469 7.25456 2.43259L7.3091 2.41399C7.32729 2.39538 7.34547 2.39538 7.36365 2.39538H7.43638C7.43638 2.39538 7.45456 2.39538 7.5091 2.41399C7.56365 2.41399 7.58183 2.43259 7.58183 2.4512L7.72728 2.61864H7.81819C8.52729 2.22794 9.3091 1.91166 10.1455 1.68841C10.9818 1.46515 11.8546 1.33492 12.7455 1.31631H12.7273C12.7818 1.31631 12.8182 1.33492 12.8727 1.37213C12.9091 1.37213 12.9455 1.42794 12.9636 1.48376V2.39538H13.0727C14.3455 2.43259 15.5455 2.71166 16.6546 3.23259C17.7636 3.75352 18.7273 4.4605 19.5455 5.33492C20.3636 6.20934 21.0182 7.21399 21.4727 8.38608C21.9455 9.53957 22.1818 10.7675 22.1818 12.0698C22.1818 13.3907 21.9273 14.6372 21.4364 15.8093C20.9455 17 20.2727 18.0233 19.4182 18.9163C18.5637 19.8093 17.5455 20.5163 16.4 21.0186C15.2546 21.5582 14.0364 21.8186 12.7091 21.8186C11.4 21.8186 10.1818 21.5768 9.07274 21.0931C7.92729 20.6093 6.94547 19.9396 6.1091 19.1024C5.27274 18.2652 4.60001 17.2605 4.09092 16.1256C3.58183 14.9907 3.3091 13.7628 3.27274 12.4419V12.3303H2.43638C2.38183 12.3303 2.32728 12.3117 2.27274 12.2558C2.21819 12.2186 2.20001 12.1442 2.20001 12.0698C2.20001 11.1024 2.32728 10.1721 2.56365 9.2605C2.80001 8.36748 3.14547 7.51166 3.58183 6.71166L3.54547 6.80469ZM7.34547 2.89771H7.23638C6.5091 3.2512 5.85456 3.69771 5.27274 4.23724C4.69092 4.77678 4.21819 5.37213 3.83638 6.0419L3.81819 6.09771L3.74547 6.19073L4.9091 7.38143L8.49092 4.03259L7.34547 2.89771ZM3.7091 12.4419C3.76365 13.707 4.01819 14.8791 4.5091 15.9582C5.00001 17.0372 5.63638 17.9861 6.45456 18.7861C7.27274 19.5861 8.21819 20.2186 9.29092 20.6838C10.3455 21.1489 11.4909 21.3721 12.7091 21.3721H12.8182C14.0546 21.3721 15.2 21.1303 16.2909 20.6279C17.3818 20.1256 18.3091 19.4745 19.1091 18.6372C19.9273 17.8 20.5818 16.8326 21.0364 15.7163C21.4909 14.6 21.7455 13.4093 21.7455 12.1442V12.1256V12.0884C21.7455 10.8605 21.5091 9.68841 21.0546 8.57213C20.6182 7.47445 20 6.52562 19.2182 5.68841C18.4364 4.8512 17.5091 4.20004 16.4546 3.69771C15.4 3.17678 14.2727 2.89771 13.0546 2.8605H12.9455V3.73492C12.9455 3.77213 12.9455 3.79073 12.9273 3.82794L12.8727 3.92097L4.67274 12.2931C4.65456 12.3117 4.63638 12.3303 4.61819 12.3303C4.60001 12.3489 4.58183 12.3489 4.56365 12.3489H4.54547H3.7091V12.4419ZM2.65456 11.8465H4.45456L12.4727 3.56748V1.74422H12.3273C11.5637 1.78143 10.8364 1.89306 10.1273 2.07911C9.41819 2.26515 8.74547 2.52562 8.1091 2.8605L8.16365 2.8419L8.00001 2.91631L8.92729 3.90236C8.94547 3.92097 8.96365 3.93957 8.98183 3.95818C9.00001 3.97678 9.00001 4.01399 9.00001 4.03259V4.0512V4.0698C9.00001 4.10701 9.00001 4.12562 8.98183 4.16283C8.98183 4.20004 8.96365 4.21864 8.92729 4.23724L5.05456 7.88376C5.03638 7.90236 5.01819 7.90236 4.98183 7.92097C4.94547 7.92097 4.92728 7.93957 4.89092 7.93957C4.85456 7.93957 4.83638 7.93957 4.81819 7.92097C4.80001 7.92097 4.78183 7.90236 4.76365 7.88376L3.92728 7.00934L3.81819 7.17678C3.49092 7.80934 3.21819 8.49771 3.01819 9.2419C2.81819 9.98608 2.69092 10.7489 2.67274 11.5489V11.5675V11.8465H2.65456ZM12.7091 13.6326H12.7636C12.9091 13.6326 13.0364 13.6512 13.1455 13.707C13.2727 13.7628 13.3818 13.8372 13.4727 13.9303C13.5636 14.0047 13.6364 14.0977 13.6909 14.2279C13.7455 14.3582 13.7636 14.4698 13.7636 14.6V14.6186V14.6372V14.6559V14.6745C13.7636 14.9535 13.6727 15.1768 13.4727 15.3628C13.2909 15.5489 13.0546 15.6605 12.7818 15.6791H12.7636H12.7455C12.4546 15.6791 12.2182 15.5861 12.0182 15.3814C11.8182 15.1768 11.7273 14.9535 11.7273 14.6745L11.7091 14.6559L11.6909 14.6372C11.6909 14.3396 11.7818 14.1163 11.9818 13.9117C12.2 13.7256 12.4364 13.6326 12.7091 13.6326ZM12.3455 15.0093C12.4 15.0465 12.4546 15.0838 12.5091 15.121C12.5818 15.1582 12.6364 15.1582 12.7091 15.1582C12.8364 15.121 12.9273 15.0652 13.0182 14.9721C13.1091 14.8791 13.1455 14.7675 13.1455 14.6372C13.1455 14.507 13.1091 14.414 13.0364 14.321C12.9636 14.2279 12.8727 14.1721 12.7636 14.1349H12.7091C12.6546 14.1349 12.6 14.1535 12.5455 14.1721C12.4909 14.1907 12.4364 14.2279 12.4 14.2838V14.2652C12.3455 14.321 12.3091 14.3954 12.2909 14.4512C12.2546 14.507 12.2364 14.5814 12.2182 14.6559V14.6745V14.6931C12.2182 14.7489 12.2364 14.8233 12.2727 14.8791C12.2727 14.8977 12.3091 14.9535 12.3455 15.0093ZM10.0364 11.921C10.0909 11.9024 10.1273 11.9024 10.1818 11.8838C10.2364 11.8838 10.2909 11.8652 10.3455 11.8652C10.5636 11.8652 10.7455 11.921 10.9091 12.0512C11.0727 12.1814 11.1818 12.3489 11.2546 12.5349H11.2727C11.2909 12.5721 11.2909 12.6279 11.3091 12.6838C11.3091 12.7396 11.3273 12.7954 11.3273 12.8512C11.3273 13.0745 11.2546 13.2791 11.1273 13.4465C11 13.614 10.8364 13.7442 10.6364 13.8186C10.5818 13.8372 10.5455 13.8372 10.4909 13.8559C10.4364 13.8559 10.3818 13.8745 10.3455 13.8745C10.2727 13.8745 10.2 13.8559 10.1091 13.8372C10.0364 13.8186 9.96365 13.7814 9.87274 13.7628H9.89092C9.76365 13.707 9.67274 13.614 9.60001 13.521C9.52728 13.4279 9.45456 13.3163 9.41819 13.1861C9.40001 13.1489 9.38183 13.0931 9.36365 13.0186C9.34547 12.9628 9.34547 12.8884 9.34547 12.814C9.34547 12.6093 9.40001 12.4047 9.52729 12.2372C9.69092 12.1256 9.83638 11.9954 10.0364 11.921ZM9.87274 13.0559C9.89092 13.1117 9.9091 13.1675 9.94547 13.2233C9.98183 13.2605 10.0364 13.2977 10.0909 13.3163V13.3349C10.1273 13.3535 10.1636 13.3721 10.2 13.3721C10.2364 13.3907 10.2727 13.3907 10.3091 13.3907C10.3273 13.3907 10.3273 13.3907 10.3273 13.3721C10.3273 13.3535 10.3273 13.3535 10.3455 13.3535H10.5091C10.6182 13.3163 10.6909 13.2605 10.7636 13.1675C10.8182 13.0745 10.8546 12.9628 10.8546 12.8326V12.7768C10.8546 12.7768 10.8546 12.7582 10.8364 12.7024C10.8 12.5907 10.7455 12.5163 10.6546 12.4605C10.5636 12.4047 10.4727 12.3675 10.3636 12.3675H10.2909C10.2909 12.3675 10.2727 12.3675 10.2364 12.3861C10.1273 12.4233 10.0364 12.4791 9.98183 12.5721C9.9091 12.6652 9.87274 12.7768 9.87274 12.8884C9.87274 12.9256 9.87274 12.9442 9.89092 12.9628C9.87274 13 9.87274 13.0372 9.87274 13.0559ZM11.8364 10.8605C11.7636 10.9163 11.6727 10.9721 11.5818 11.0093C11.4909 11.0465 11.3818 11.0652 11.2727 11.0652C11.1091 11.0652 10.9455 11.0279 10.8182 10.9535C10.6727 10.8791 10.5636 10.7861 10.4727 10.6745H10.4546C10.4 10.5814 10.3455 10.4884 10.3091 10.3954C10.2727 10.3024 10.2546 10.1907 10.2546 10.0791C10.2546 9.91166 10.2909 9.76283 10.3636 9.61399C10.4364 9.46515 10.5455 9.35352 10.6546 9.2605C10.7273 9.20469 10.8182 9.14887 10.9091 9.13027C11 9.11166 11.1091 9.09306 11.2182 9.09306C11.3818 9.09306 11.5273 9.13027 11.6546 9.20469C11.7818 9.2791 11.8909 9.37213 11.9818 9.48376H12C12.0546 9.55818 12.1091 9.6512 12.1455 9.76283C12.1818 9.87445 12.2 9.96748 12.2 10.0791C12.2 10.2465 12.1636 10.3954 12.0909 10.5256C12.0546 10.6558 11.9636 10.7675 11.8364 10.8605ZM11.6727 9.76283C11.6182 9.70701 11.5818 9.6512 11.5273 9.61399C11.4727 9.57678 11.4182 9.55818 11.3636 9.53957H11.3455C11.2727 9.53957 11.2 9.53957 11.1455 9.55818C11.0909 9.57678 11.0364 9.59538 10.9818 9.63259H10.9636C10.9091 9.68841 10.8546 9.76283 10.8182 9.81864C10.7818 9.89306 10.7636 9.96748 10.7636 10.0605C10.7636 10.1163 10.7818 10.1721 10.8 10.2279C10.8182 10.2652 10.8546 10.321 10.8727 10.3582H10.8546C10.9091 10.414 10.9636 10.4698 11.0182 10.507C11.0909 10.5442 11.1636 10.5628 11.2364 10.5628H11.2546H11.2727L11.5636 10.4698C11.6182 10.414 11.6727 10.3396 11.7091 10.2838C11.7455 10.2093 11.7636 10.1349 11.7636 10.0419C11.7636 10.0047 11.7636 9.94887 11.7455 9.91166C11.7273 9.85585 11.7091 9.80004 11.6727 9.76283ZM13.6182 10.8977H13.5636C13.4364 10.8047 13.3455 10.6931 13.2727 10.5442C13.2 10.3954 13.1636 10.2465 13.1636 10.0977C13.1636 9.96748 13.1818 9.87445 13.2182 9.76283C13.2546 9.6698 13.3091 9.57678 13.3636 9.48376C13.4182 9.37213 13.5091 9.29771 13.6182 9.22329C13.7273 9.14887 13.8364 9.11166 13.9636 9.09306H14.1818C14.2727 9.09306 14.3636 9.11166 14.4546 9.13027C14.5455 9.16748 14.6364 9.20469 14.7091 9.2419H14.7636C14.8909 9.33492 14.9818 9.44655 15.0546 9.57678C15.1273 9.70701 15.1636 9.87445 15.1636 10.0233C15.1636 10.1535 15.1455 10.2465 15.1091 10.3582C15.0727 10.4512 15.0182 10.5442 14.9455 10.6372C14.8727 10.7675 14.7636 10.8605 14.6182 10.9349C14.4727 11.0093 14.3273 11.0465 14.1636 11.0465C14.0546 11.0465 13.9636 11.0279 13.8727 10.9907C13.7818 10.9907 13.6909 10.9349 13.6182 10.8977ZM14.4909 9.61399C14.4364 9.57678 14.3636 9.55818 14.2909 9.53957C14.2182 9.52097 14.1455 9.52097 14.0727 9.52097C14.0182 9.53957 13.9636 9.55818 13.9091 9.59538C13.8546 9.63259 13.8182 9.6698 13.7636 9.70701V9.74422C13.7273 9.78143 13.7091 9.81864 13.6909 9.87445C13.6727 9.93027 13.6546 10.0047 13.6546 10.0605C13.6546 10.1349 13.6727 10.2093 13.7091 10.2838C13.7455 10.3582 13.8 10.414 13.8727 10.4698C13.9091 10.507 13.9455 10.5256 13.9818 10.5442C14.0364 10.5628 14.0727 10.5628 14.1273 10.5628H14.1455H14.1818C14.2546 10.5628 14.3273 10.5442 14.3818 10.507C14.4364 10.4698 14.4909 10.414 14.5455 10.3582C14.5818 10.321 14.6 10.2652 14.6182 10.2093C14.6364 10.1535 14.6546 10.0977 14.6546 10.0419C14.6546 9.96748 14.6364 9.89306 14.6 9.81864C14.5818 9.72562 14.5455 9.6698 14.4909 9.61399ZM14.1455 12.5535C14.2 12.4233 14.2546 12.3303 14.3273 12.2186C14.4 12.1256 14.5091 12.0326 14.6182 11.9768C14.6727 11.9396 14.7455 11.921 14.8182 11.9024C14.8909 11.8838 14.9818 11.8838 15.0727 11.8838H15.3455C15.5636 11.9396 15.7273 12.0698 15.8546 12.2558C15.9818 12.4419 16.0546 12.6465 16.0546 12.8698C16.0546 12.907 16.0546 12.9628 16.0364 13C16.0364 13.0372 16.0182 13.0931 16 13.1675V13.1489C15.9455 13.2791 15.8909 13.4093 15.8 13.521C15.7091 13.6326 15.6182 13.7256 15.5091 13.8H15.4909C15.4364 13.8372 15.3636 13.8558 15.2909 13.8745C15.2182 13.8931 15.1273 13.8931 15.0364 13.8931H14.9091C14.9091 13.8931 14.8546 13.8931 14.7636 13.8745C14.5636 13.8186 14.4 13.6884 14.2727 13.521C14.1455 13.3535 14.0727 13.1489 14.0727 12.9256C14.0727 12.8698 14.0727 12.7954 14.0909 12.7396C14.1091 12.6652 14.1273 12.6093 14.1455 12.5535ZM14.9091 13.3535H15.0727C15.1818 13.3535 15.2727 13.3163 15.3636 13.2605C15.4546 13.2047 15.5091 13.1303 15.5636 13.0372V13.0186C15.5636 13 15.5636 12.9814 15.5818 12.9628C15.5818 12.9442 15.6 12.907 15.6 12.8884C15.6 12.7582 15.5636 12.6652 15.4909 12.5721C15.4182 12.4791 15.3273 12.4047 15.2364 12.3675C15.2182 12.3675 15.2 12.3675 15.1818 12.3489C15.1636 12.3489 15.1273 12.3303 15.1091 12.3303C15 12.3303 14.9091 12.3675 14.8182 12.4419C14.7273 12.5163 14.6546 12.5907 14.6182 12.7024C14.6182 12.7396 14.6182 12.7582 14.6 12.7954C14.6 12.8326 14.5818 12.8512 14.5818 12.8884C14.5818 13 14.6182 13.0931 14.6909 13.1861C14.7273 13.2605 14.8 13.3349 14.9091 13.3535Z" fill="#2D3E50"/>
<mask id="mask0" mask-type="alpha" maskUnits="userSpaceOnUse" x="2" y="1" width="21" height="22">
<path d="M22.3636 1H2V22.0233H22.3636V1Z" fill="white"/>
<path d="M12.6909 6.8605H12.8546C13.5636 6.8605 14.2364 6.99073 14.8546 7.2512C15.4546 7.53027 16 7.88376 16.4727 8.34887C16.9455 8.79538 17.3091 9.33492 17.5818 9.94887C17.8727 10.5628 18.0182 11.2326 18.0364 11.9396C18.0546 11.9768 18.0546 11.9954 18.0546 12.0326V12.1256C18.0546 12.8326 17.9091 13.521 17.6364 14.1535C17.3636 14.7861 17 15.3442 16.5273 15.8093C16.0546 16.2745 15.5091 16.6465 14.8727 16.907C14.2546 17.1861 13.5818 17.3163 12.8364 17.3163C12.1455 17.3163 11.4727 17.1861 10.8727 16.9256C10.2546 16.6652 9.7091 16.3117 9.23638 15.8838C8.74547 15.4372 8.36365 14.8977 8.07274 14.2652C7.78183 13.6512 7.63638 12.9814 7.61819 12.2558V12.2372V12.107V12.0884V12.0698C7.61819 11.3628 7.74547 10.6931 8.00001 10.0605C8.25456 9.44655 8.61819 8.88841 9.09092 8.42329C9.54547 7.95818 10.0909 7.58608 10.6909 7.28841C11.3091 7.02794 11.9636 6.87911 12.6909 6.8605ZM8.12729 12.0884V12.1256V12.1442C8.12729 12.7768 8.23638 13.3907 8.47274 13.9489C8.7091 14.507 9.03638 15.0093 9.45456 15.4186C9.87274 15.8279 10.3455 16.1628 10.9091 16.4047C11.4546 16.6465 12.0546 16.7768 12.6909 16.7954H12.8364C13.4546 16.7954 14.0546 16.6838 14.6 16.4419C15.1455 16.2 15.6364 15.8838 16.0727 15.4931C16.5091 15.0838 16.8546 14.6 17.1273 14.0419C17.3818 13.4838 17.5273 12.8698 17.5455 12.2186V12.1256V12.014C17.5455 11.4 17.4364 10.8047 17.2 10.2279C16.9636 9.6698 16.6364 9.16748 16.2182 8.73957C15.8 8.31166 15.3273 7.97678 14.7636 7.73492C14.2182 7.49306 13.6182 7.36283 12.9818 7.34422H12.8364C12.2 7.34422 11.6 7.45585 11.0546 7.67911C10.5091 7.90236 10.0182 8.21864 9.60001 8.62794C9.16365 9.03724 8.80001 9.52097 8.54547 10.0977C8.27274 10.6745 8.14547 11.2698 8.14547 11.9024V11.9768V12.0884H8.12729ZM3.54547 6.80469V6.69306L3.27274 6.43259L3.21819 6.33957C3.21819 6.33957 3.21819 6.30236 3.20001 6.24655C3.20001 6.22794 3.20001 6.20934 3.21819 6.19073C3.21819 6.17213 3.23638 6.15352 3.25456 6.13492L3.32728 6.00469C3.78183 5.22329 4.34547 4.51631 5.01819 3.90236C5.69092 3.28841 6.43638 2.80469 7.25456 2.43259L7.3091 2.41399C7.32729 2.39538 7.34547 2.39538 7.36365 2.39538H7.43638C7.43638 2.39538 7.45456 2.39538 7.5091 2.41399C7.56365 2.41399 7.58183 2.43259 7.58183 2.4512L7.72728 2.61864H7.81819C8.52729 2.22794 9.3091 1.91166 10.1455 1.68841C10.9818 1.46515 11.8546 1.33492 12.7455 1.31631H12.7273C12.7818 1.31631 12.8182 1.33492 12.8727 1.37213C12.9091 1.37213 12.9455 1.42794 12.9636 1.48376V2.39538H13.0727C14.3455 2.43259 15.5455 2.71166 16.6546 3.23259C17.7636 3.75352 18.7273 4.4605 19.5455 5.33492C20.3636 6.20934 21.0182 7.21399 21.4727 8.38608C21.9455 9.53957 22.1818 10.7675 22.1818 12.0698C22.1818 13.3907 21.9273 14.6372 21.4364 15.8093C20.9455 17 20.2727 18.0233 19.4182 18.9163C18.5637 19.8093 17.5455 20.5163 16.4 21.0186C15.2546 21.5582 14.0364 21.8186 12.7091 21.8186C11.4 21.8186 10.1818 21.5768 9.07274 21.0931C7.92729 20.6093 6.94547 19.9396 6.1091 19.1024C5.27274 18.2652 4.60001 17.2605 4.09092 16.1256C3.58183 14.9907 3.3091 13.7628 3.27274 12.4419V12.3303H2.43638C2.38183 12.3303 2.32728 12.3117 2.27274 12.2558C2.21819 12.2186 2.20001 12.1442 2.20001 12.0698C2.20001 11.1024 2.32728 10.1721 2.56365 9.2605C2.80001 8.36748 3.14547 7.51166 3.58183 6.71166L3.54547 6.80469ZM7.34547 2.89771H7.23638C6.5091 3.2512 5.85456 3.69771 5.27274 4.23724C4.69092 4.77678 4.21819 5.37213 3.83638 6.0419L3.81819 6.09771L3.74547 6.19073L4.9091 7.38143L8.49092 4.03259L7.34547 2.89771ZM3.7091 12.4419C3.76365 13.707 4.01819 14.8791 4.5091 15.9582C5.00001 17.0372 5.63638 17.9861 6.45456 18.7861C7.27274 19.5861 8.21819 20.2186 9.29092 20.6838C10.3455 21.1489 11.4909 21.3721 12.7091 21.3721H12.8182C14.0546 21.3721 15.2 21.1303 16.2909 20.6279C17.3818 20.1256 18.3091 19.4745 19.1091 18.6372C19.9273 17.8 20.5818 16.8326 21.0364 15.7163C21.4909 14.6 21.7455 13.4093 21.7455 12.1442V12.1256V12.0884C21.7455 10.8605 21.5091 9.68841 21.0546 8.57213C20.6182 7.47445 20 6.52562 19.2182 5.68841C18.4364 4.8512 17.5091 4.20004 16.4546 3.69771C15.4 3.17678 14.2727 2.89771 13.0546 2.8605H12.9455V3.73492C12.9455 3.77213 12.9455 3.79073 12.9273 3.82794L12.8727 3.92097L4.67274 12.2931C4.65456 12.3117 4.63638 12.3303 4.61819 12.3303C4.60001 12.3489 4.58183 12.3489 4.56365 12.3489H4.54547H3.7091V12.4419ZM2.65456 11.8465H4.45456L12.4727 3.56748V1.74422H12.3273C11.5637 1.78143 10.8364 1.89306 10.1273 2.07911C9.41819 2.26515 8.74547 2.52562 8.1091 2.8605L8.16365 2.8419L8.00001 2.91631L8.92729 3.90236C8.94547 3.92097 8.96365 3.93957 8.98183 3.95818C9.00001 3.97678 9.00001 4.01399 9.00001 4.03259V4.0512V4.0698C9.00001 4.10701 9.00001 4.12562 8.98183 4.16283C8.98183 4.20004 8.96365 4.21864 8.92729 4.23724L5.05456 7.88376C5.03638 7.90236 5.01819 7.90236 4.98183 7.92097C4.94547 7.92097 4.92728 7.93957 4.89092 7.93957C4.85456 7.93957 4.83638 7.93957 4.81819 7.92097C4.80001 7.92097 4.78183 7.90236 4.76365 7.88376L3.92728 7.00934L3.81819 7.17678C3.49092 7.80934 3.21819 8.49771 3.01819 9.2419C2.81819 9.98608 2.69092 10.7489 2.67274 11.5489V11.5675V11.8465H2.65456ZM12.7091 13.6326H12.7636C12.9091 13.6326 13.0364 13.6512 13.1455 13.707C13.2727 13.7628 13.3818 13.8372 13.4727 13.9303C13.5636 14.0047 13.6364 14.0977 13.6909 14.2279C13.7455 14.3582 13.7636 14.4698 13.7636 14.6V14.6186V14.6372V14.6559V14.6745C13.7636 14.9535 13.6727 15.1768 13.4727 15.3628C13.2909 15.5489 13.0546 15.6605 12.7818 15.6791H12.7636H12.7455C12.4546 15.6791 12.2182 15.5861 12.0182 15.3814C11.8182 15.1768 11.7273 14.9535 11.7273 14.6745L11.7091 14.6559L11.6909 14.6372C11.6909 14.3396 11.7818 14.1163 11.9818 13.9117C12.2 13.7256 12.4364 13.6326 12.7091 13.6326ZM12.3455 15.0093C12.4 15.0465 12.4546 15.0838 12.5091 15.121C12.5818 15.1582 12.6364 15.1582 12.7091 15.1582C12.8364 15.121 12.9273 15.0652 13.0182 14.9721C13.1091 14.8791 13.1455 14.7675 13.1455 14.6372C13.1455 14.507 13.1091 14.414 13.0364 14.321C12.9636 14.2279 12.8727 14.1721 12.7636 14.1349H12.7091C12.6546 14.1349 12.6 14.1535 12.5455 14.1721C12.4909 14.1907 12.4364 14.2279 12.4 14.2838V14.2652C12.3455 14.321 12.3091 14.3954 12.2909 14.4512C12.2546 14.507 12.2364 14.5814 12.2182 14.6559V14.6745V14.6931C12.2182 14.7489 12.2364 14.8233 12.2727 14.8791C12.2727 14.8977 12.3091 14.9535 12.3455 15.0093ZM10.0364 11.921C10.0909 11.9024 10.1273 11.9024 10.1818 11.8838C10.2364 11.8838 10.2909 11.8652 10.3455 11.8652C10.5636 11.8652 10.7455 11.921 10.9091 12.0512C11.0727 12.1814 11.1818 12.3489 11.2546 12.5349H11.2727C11.2909 12.5721 11.2909 12.6279 11.3091 12.6838C11.3091 12.7396 11.3273 12.7954 11.3273 12.8512C11.3273 13.0745 11.2546 13.2791 11.1273 13.4465C11 13.614 10.8364 13.7442 10.6364 13.8186C10.5818 13.8372 10.5455 13.8372 10.4909 13.8559C10.4364 13.8559 10.3818 13.8745 10.3455 13.8745C10.2727 13.8745 10.2 13.8559 10.1091 13.8372C10.0364 13.8186 9.96365 13.7814 9.87274 13.7628H9.89092C9.76365 13.707 9.67274 13.614 9.60001 13.521C9.52728 13.4279 9.45456 13.3163 9.41819 13.1861C9.40001 13.1489 9.38183 13.0931 9.36365 13.0186C9.34547 12.9628 9.34547 12.8884 9.34547 12.814C9.34547 12.6093 9.40001 12.4047 9.52729 12.2372C9.69092 12.1256 9.83638 11.9954 10.0364 11.921ZM9.87274 13.0559C9.89092 13.1117 9.9091 13.1675 9.94547 13.2233C9.98183 13.2605 10.0364 13.2977 10.0909 13.3163V13.3349C10.1273 13.3535 10.1636 13.3721 10.2 13.3721C10.2364 13.3907 10.2727 13.3907 10.3091 13.3907C10.3273 13.3907 10.3273 13.3907 10.3273 13.3721C10.3273 13.3535 10.3273 13.3535 10.3455 13.3535H10.5091C10.6182 13.3163 10.6909 13.2605 10.7636 13.1675C10.8182 13.0745 10.8546 12.9628 10.8546 12.8326V12.7768C10.8546 12.7768 10.8546 12.7582 10.8364 12.7024C10.8 12.5907 10.7455 12.5163 10.6546 12.4605C10.5636 12.4047 10.4727 12.3675 10.3636 12.3675H10.2909C10.2909 12.3675 10.2727 12.3675 10.2364 12.3861C10.1273 12.4233 10.0364 12.4791 9.98183 12.5721C9.9091 12.6652 9.87274 12.7768 9.87274 12.8884C9.87274 12.9256 9.87274 12.9442 9.89092 12.9628C9.87274 13 9.87274 13.0372 9.87274 13.0559ZM11.8364 10.8605C11.7636 10.9163 11.6727 10.9721 11.5818 11.0093C11.4909 11.0465 11.3818 11.0652 11.2727 11.0652C11.1091 11.0652 10.9455 11.0279 10.8182 10.9535C10.6727 10.8791 10.5636 10.7861 10.4727 10.6745H10.4546C10.4 10.5814 10.3455 10.4884 10.3091 10.3954C10.2727 10.3024 10.2546 10.1907 10.2546 10.0791C10.2546 9.91166 10.2909 9.76283 10.3636 9.61399C10.4364 9.46515 10.5455 9.35352 10.6546 9.2605C10.7273 9.20469 10.8182 9.14887 10.9091 9.13027C11 9.11166 11.1091 9.09306 11.2182 9.09306C11.3818 9.09306 11.5273 9.13027 11.6546 9.20469C11.7818 9.2791 11.8909 9.37213 11.9818 9.48376H12C12.0546 9.55818 12.1091 9.6512 12.1455 9.76283C12.1818 9.87445 12.2 9.96748 12.2 10.0791C12.2 10.2465 12.1636 10.3954 12.0909 10.5256C12.0546 10.6558 11.9636 10.7675 11.8364 10.8605ZM11.6727 9.76283C11.6182 9.70701 11.5818 9.6512 11.5273 9.61399C11.4727 9.57678 11.4182 9.55818 11.3636 9.53957H11.3455C11.2727 9.53957 11.2 9.53957 11.1455 9.55818C11.0909 9.57678 11.0364 9.59538 10.9818 9.63259H10.9636C10.9091 9.68841 10.8546 9.76283 10.8182 9.81864C10.7818 9.89306 10.7636 9.96748 10.7636 10.0605C10.7636 10.1163 10.7818 10.1721 10.8 10.2279C10.8182 10.2652 10.8546 10.321 10.8727 10.3582H10.8546C10.9091 10.414 10.9636 10.4698 11.0182 10.507C11.0909 10.5442 11.1636 10.5628 11.2364 10.5628H11.2546H11.2727L11.5636 10.4698C11.6182 10.414 11.6727 10.3396 11.7091 10.2838C11.7455 10.2093 11.7636 10.1349 11.7636 10.0419C11.7636 10.0047 11.7636 9.94887 11.7455 9.91166C11.7273 9.85585 11.7091 9.80004 11.6727 9.76283ZM13.6182 10.8977H13.5636C13.4364 10.8047 13.3455 10.6931 13.2727 10.5442C13.2 10.3954 13.1636 10.2465 13.1636 10.0977C13.1636 9.96748 13.1818 9.87445 13.2182 9.76283C13.2546 9.6698 13.3091 9.57678 13.3636 9.48376C13.4182 9.37213 13.5091 9.29771 13.6182 9.22329C13.7273 9.14887 13.8364 9.11166 13.9636 9.09306H14.1818C14.2727 9.09306 14.3636 9.11166 14.4546 9.13027C14.5455 9.16748 14.6364 9.20469 14.7091 9.2419H14.7636C14.8909 9.33492 14.9818 9.44655 15.0546 9.57678C15.1273 9.70701 15.1636 9.87445 15.1636 10.0233C15.1636 10.1535 15.1455 10.2465 15.1091 10.3582C15.0727 10.4512 15.0182 10.5442 14.9455 10.6372C14.8727 10.7675 14.7636 10.8605 14.6182 10.9349C14.4727 11.0093 14.3273 11.0465 14.1636 11.0465C14.0546 11.0465 13.9636 11.0279 13.8727 10.9907C13.7818 10.9907 13.6909 10.9349 13.6182 10.8977ZM14.4909 9.61399C14.4364 9.57678 14.3636 9.55818 14.2909 9.53957C14.2182 9.52097 14.1455 9.52097 14.0727 9.52097C14.0182 9.53957 13.9636 9.55818 13.9091 9.59538C13.8546 9.63259 13.8182 9.6698 13.7636 9.70701V9.74422C13.7273 9.78143 13.7091 9.81864 13.6909 9.87445C13.6727 9.93027 13.6546 10.0047 13.6546 10.0605C13.6546 10.1349 13.6727 10.2093 13.7091 10.2838C13.7455 10.3582 13.8 10.414 13.8727 10.4698C13.9091 10.507 13.9455 10.5256 13.9818 10.5442C14.0364 10.5628 14.0727 10.5628 14.1273 10.5628H14.1455H14.1818C14.2546 10.5628 14.3273 10.5442 14.3818 10.507C14.4364 10.4698 14.4909 10.414 14.5455 10.3582C14.5818 10.321 14.6 10.2652 14.6182 10.2093C14.6364 10.1535 14.6546 10.0977 14.6546 10.0419C14.6546 9.96748 14.6364 9.89306 14.6 9.81864C14.5818 9.72562 14.5455 9.6698 14.4909 9.61399ZM14.1455 12.5535C14.2 12.4233 14.2546 12.3303 14.3273 12.2186C14.4 12.1256 14.5091 12.0326 14.6182 11.9768C14.6727 11.9396 14.7455 11.921 14.8182 11.9024C14.8909 11.8838 14.9818 11.8838 15.0727 11.8838H15.3455C15.5636 11.9396 15.7273 12.0698 15.8546 12.2558C15.9818 12.4419 16.0546 12.6465 16.0546 12.8698C16.0546 12.907 16.0546 12.9628 16.0364 13C16.0364 13.0372 16.0182 13.0931 16 13.1675V13.1489C15.9455 13.2791 15.8909 13.4093 15.8 13.521C15.7091 13.6326 15.6182 13.7256 15.5091 13.8H15.4909C15.4364 13.8372 15.3636 13.8558 15.2909 13.8745C15.2182 13.8931 15.1273 13.8931 15.0364 13.8931H14.9091C14.9091 13.8931 14.8546 13.8931 14.7636 13.8745C14.5636 13.8186 14.4 13.6884 14.2727 13.521C14.1455 13.3535 14.0727 13.1489 14.0727 12.9256C14.0727 12.8698 14.0727 12.7954 14.0909 12.7396C14.1091 12.6652 14.1273 12.6093 14.1455 12.5535ZM14.9091 13.3535H15.0727C15.1818 13.3535 15.2727 13.3163 15.3636 13.2605C15.4546 13.2047 15.5091 13.1303 15.5636 13.0372V13.0186C15.5636 13 15.5636 12.9814 15.5818 12.9628C15.5818 12.9442 15.6 12.907 15.6 12.8884C15.6 12.7582 15.5636 12.6652 15.4909 12.5721C15.4182 12.4791 15.3273 12.4047 15.2364 12.3675C15.2182 12.3675 15.2 12.3675 15.1818 12.3489C15.1636 12.3489 15.1273 12.3303 15.1091 12.3303C15 12.3303 14.9091 12.3675 14.8182 12.4419C14.7273 12.5163 14.6546 12.5907 14.6182 12.7024C14.6182 12.7396 14.6182 12.7582 14.6 12.7954C14.6 12.8326 14.5818 12.8512 14.5818 12.8884C14.5818 13 14.6182 13.0931 14.6909 13.1861C14.7273 13.2605 14.8 13.3349 14.9091 13.3535Z" fill="black"/>
</mask>
<g mask="url(#mask0)">
<path d="M12.7091 22.0233C11.3818 22.0233 10.1273 21.7814 9 21.2791C7.85455 20.7954 6.81818 20.107 5.96364 19.2512C5.10909 18.3954 4.41818 17.3721 3.90909 16.2186C3.4 15.0837 3.12727 13.8372 3.07273 12.5163H2.41818C2.30909 12.5163 2.21818 12.4791 2.12727 12.3861C2.05455 12.3116 2 12.2 2 12.0698C2 11.0837 2.12727 10.1163 2.36364 9.22328C2.6 8.36746 2.92727 7.53025 3.34545 6.74886L3.12727 6.54421L3.05455 6.39537L3.01818 6.26514C3.01818 6.22793 3.01818 6.19072 3.03636 6.15351C3.05455 6.1163 3.07273 6.07909 3.09091 6.04188L3.14545 5.93025C3.61818 5.11165 4.2 4.38607 4.87273 3.77211C5.54545 3.13956 6.32727 2.63723 7.14545 2.26514H7.16364C7.21818 2.22793 7.27273 2.20932 7.30909 2.20932H7.4L7.47273 2.22793C7.6 2.24653 7.65454 2.30235 7.69091 2.33956L7.74545 2.39537C8.45455 2.00467 9.21818 1.707 10.0364 1.48374C10.8909 1.26049 11.7636 1.13025 12.6727 1.11165H12.7273C12.8182 1.11165 12.9091 1.14886 12.9818 1.20467C13.0545 1.26049 13.1091 1.35351 13.1273 1.44653V1.48374V2.20932C14.4 2.24653 15.6 2.54421 16.7091 3.06514C17.8364 3.60467 18.8182 4.33025 19.6545 5.20467C20.4909 6.09769 21.1455 7.13956 21.6364 8.31165C22.1091 9.48374 22.3636 10.7489 22.3636 12.0698C22.3636 13.4093 22.1091 14.693 21.6 15.8837C21.1091 17.0744 20.4182 18.1535 19.5455 19.0465C18.6727 19.9396 17.6364 20.6651 16.4727 21.1861C15.3091 21.7442 14.0545 22.0233 12.7091 22.0233ZM3.70909 6.86049C3.29091 7.64188 2.94545 8.47909 2.72727 9.3349C2.49091 10.2093 2.36364 11.1396 2.36364 12.0884C2.36364 12.1256 2.38182 12.1256 2.38182 12.1442C2.4 12.1628 2.4 12.1628 2.41818 12.1628H3.43636V12.4605C3.47273 13.7442 3.74545 14.9721 4.23636 16.0698C4.72727 17.1861 5.4 18.1721 6.21818 18.9907C7.03636 19.8093 8.01818 20.4791 9.12727 20.9442C10.2182 21.4279 11.4182 21.6512 12.7091 21.6512C14 21.6512 15.2182 21.3907 16.3273 20.8698C17.4545 20.3675 18.4545 19.6605 19.2909 18.8047C20.1273 17.9303 20.8 16.907 21.2727 15.7535C21.7636 14.6186 22.0182 13.3721 22.0182 12.0884C22.0182 10.8047 21.7818 9.59537 21.3273 8.46049C20.8727 7.3256 20.2364 6.32095 19.4364 5.48374C18.6364 4.62793 17.6727 3.93956 16.6 3.41863C15.5273 2.89769 14.3455 2.61863 13.0909 2.60002H12.8V1.52095C12.8 1.50235 12.7818 1.50235 12.7818 1.48374C12.7273 1.46514 12.7273 1.46514 12.7273 1.46514H12.7091C11.8364 1.48374 10.9818 1.59537 10.1636 1.81863C9.34545 2.04188 8.58182 2.35816 7.87273 2.73025L7.83636 2.74886H7.61818L7.45455 2.54421H7.38182L7.32727 2.56281C6.52727 2.9163 5.78182 3.40002 5.14545 3.99537C4.49091 4.59072 3.94545 5.2977 3.49091 6.06049L3.4 6.22793V6.24653L3.41818 6.28374L3.72727 6.56281V6.74886H3.74545L3.70909 6.86049ZM12.8182 21.5396H12.7091C11.4727 21.5396 10.3091 21.2977 9.21818 20.8326C8.12727 20.3675 7.14545 19.7163 6.32727 18.8977C5.50909 18.0791 4.83636 17.1116 4.34545 16.014C3.85455 14.9163 3.58182 13.707 3.52727 12.4419V12.1442H4.54545L4.56364 12.1256L12.7455 3.79072L12.7818 3.7349V2.67444H13.0727C14.3091 2.71165 15.4727 3.00932 16.5455 3.53025C17.6182 4.03258 18.5636 4.72095 19.3636 5.55816C20.1636 6.39537 20.7818 7.38142 21.2364 8.49769C21.6909 9.61397 21.9273 10.8233 21.9273 12.0698V12.107C21.9273 13.3907 21.6909 14.6186 21.2 15.7535C20.7273 16.8884 20.0545 17.893 19.2182 18.7489C18.4182 19.5861 17.4545 20.2744 16.3455 20.7768C15.2545 21.2977 14.0727 21.5396 12.8182 21.5396ZM3.89091 12.5163C3.94545 13.7256 4.2 14.8419 4.67273 15.8837C5.14545 16.9442 5.78182 17.8744 6.58182 18.6558C7.38182 19.4372 8.30909 20.0698 9.36364 20.5163C10.4 20.9628 11.5273 21.1861 12.7091 21.1861H12.8182C14.0182 21.1861 15.1636 20.9442 16.2182 20.4605C17.2727 19.9768 18.2 19.3256 18.9818 18.507C19.7818 17.6884 20.4182 16.721 20.8909 15.6419C21.3455 14.5628 21.5818 13.3721 21.5818 12.1442V12.107C21.5818 10.9163 21.3636 9.74421 20.9091 8.66514C20.4727 7.60467 19.8727 6.65583 19.1091 5.83723C18.3455 5.03723 17.4364 4.36746 16.4 3.88374C15.4 3.38142 14.3091 3.12095 13.1455 3.06514V3.7349C13.1455 3.79072 13.1273 3.84653 13.1091 3.90235L13.0364 4.03258L4.83636 12.4047C4.81818 12.4233 4.78182 12.4605 4.74545 12.4791C4.69091 12.5163 4.63636 12.5349 4.58182 12.5349H3.89091V12.5163ZM12.8364 17.4837C12.1091 17.4837 11.4364 17.3535 10.8 17.0744C10.1636 16.814 9.6 16.4419 9.10909 15.9954C8.6 15.5303 8.2 14.9535 7.90909 14.321C7.61818 13.6698 7.45455 12.9814 7.43636 12.2372V12.0512C7.43636 11.307 7.56364 10.6186 7.83636 9.96746C8.10909 9.3163 8.47273 8.75816 8.96364 8.27444C9.43636 7.79072 10 7.40002 10.6182 7.10235C11.2545 6.82328 11.9455 6.67444 12.6727 6.65583H12.8364C13.5636 6.65583 14.2727 6.78607 14.9091 7.06514C15.5455 7.34421 16.0909 7.7349 16.5818 8.20002C17.0727 8.66514 17.4545 9.22328 17.7455 9.85583C18.0364 10.4884 18.2 11.1582 18.2182 11.8837C18.2364 11.921 18.2364 11.9768 18.2364 12.014V12.107C18.2364 12.8512 18.0909 13.5582 17.8182 14.2093C17.5455 14.8605 17.1455 15.4372 16.6545 15.9396C16.1636 16.4233 15.5818 16.814 14.9273 17.0744C14.2909 17.3535 13.6 17.4837 12.8364 17.4837ZM12.6909 7.04653C12 7.06514 11.3636 7.19537 10.7818 7.45583C10.2 7.7349 9.67273 8.107 9.23636 8.55351C8.8 9.00002 8.43636 9.52095 8.2 10.1163C7.94545 10.7116 7.81818 11.3628 7.81818 12.0512V12.2372C7.83636 12.9256 7.98182 13.5582 8.25455 14.1721C8.52727 14.7675 8.90909 15.2884 9.38182 15.7349C9.83636 16.1628 10.3636 16.4977 10.9636 16.7396C11.5455 16.9814 12.2 17.1116 12.8727 17.1116C13.5818 17.1116 14.2364 16.9814 14.8364 16.721C15.4545 16.4791 16 16.1256 16.4364 15.6605C16.8909 15.214 17.2545 14.6744 17.5091 14.0605C17.7636 13.4465 17.9091 12.7954 17.9091 12.107V12.014L17.8545 11.9768V11.921C17.8364 11.2512 17.6909 10.6186 17.4182 10.0047C17.1636 9.42793 16.8 8.907 16.3455 8.46049C15.8909 8.01397 15.3636 7.66049 14.7818 7.40002C14.1818 7.15816 13.5455 7.02793 12.8545 7.02793H12.6909V7.04653ZM12.8182 16.9814H12.6727C12.0182 16.9628 11.3818 16.8326 10.8182 16.5721C10.2364 16.3303 9.72727 15.9768 9.30909 15.5489C8.89091 15.121 8.54545 14.6 8.29091 14.0233C8.05454 13.4279 7.92727 12.814 7.92727 12.1442V11.9396C7.92727 11.2698 8.07273 10.6372 8.34545 10.0419C8.61818 9.44653 8.98182 8.94421 9.45455 8.5163C9.87273 8.08839 10.3818 7.75351 10.9636 7.53025C11.5455 7.28839 12.1636 7.17677 12.8182 7.17677H12.9636C13.6182 7.19537 14.2545 7.3256 14.8182 7.58607C15.4 7.82793 15.9091 8.18142 16.3273 8.62793C16.7455 9.07444 17.0909 9.57677 17.3455 10.1721C17.5818 10.7675 17.7091 11.3814 17.7091 12.0326V12.2372C17.6909 12.9256 17.5455 13.5582 17.2909 14.1349C17.0182 14.7116 16.6545 15.2326 16.2 15.6605C15.7636 16.0698 15.2545 16.4047 14.6727 16.6465C14.0727 16.8698 13.4545 16.9814 12.8182 16.9814ZM12.9455 7.54886H12.8182C12.2 7.54886 11.6364 7.66049 11.0909 7.88374C10.5636 8.107 10.0909 8.40467 9.70909 8.79537C9.29091 9.18607 8.94545 9.66979 8.69091 10.2093C8.43636 10.7489 8.30909 11.3256 8.30909 11.9396V12.1442C8.30909 12.7582 8.41818 13.3349 8.63636 13.8744C8.87273 14.414 9.18182 14.8791 9.58182 15.2884C9.98182 15.6791 10.4364 16.014 10.9818 16.2372C11.5091 16.4791 12.0727 16.5907 12.6909 16.6093H12.8182C13.4182 16.6093 13.9818 16.4977 14.5091 16.2744C15.0364 16.0512 15.5273 15.7349 15.9273 15.3628C16.3455 14.9721 16.6909 14.507 16.9273 13.9675C17.1818 13.4279 17.3091 12.8512 17.3273 12.2186V12.014C17.3273 11.4186 17.2182 10.8419 17 10.3023C16.7636 9.76281 16.4545 9.27909 16.0545 8.88839C15.6545 8.47909 15.2 8.16281 14.6545 7.92095C14.1455 7.6977 13.5636 7.56746 12.9455 7.54886ZM12.7818 15.8465C12.4182 15.8465 12.1273 15.7349 11.8909 15.493C11.6727 15.2884 11.5636 15.0279 11.5455 14.7303L11.5273 14.6372C11.5273 14.3023 11.6545 14.0047 11.8727 13.7814C12.1091 13.5582 12.3818 13.4465 12.7091 13.4465H12.7455C12.9091 13.4465 13.0545 13.4837 13.2 13.5396C13.3455 13.5954 13.4727 13.6884 13.5818 13.8C13.6909 13.8744 13.7636 14.0047 13.8364 14.1535C13.8909 14.3023 13.9273 14.4512 13.9273 14.6V14.6744C13.9273 14.9907 13.8182 15.2698 13.5818 15.5116C13.3818 15.7163 13.1091 15.8279 12.7818 15.8465ZM11.8909 14.5628L11.9091 14.6558C11.9091 14.8791 11.9818 15.0651 12.1455 15.2326C12.3091 15.4 12.5091 15.4744 12.7455 15.4744C12.9818 15.4558 13.1818 15.3814 13.3273 15.214C13.4909 15.0651 13.5636 14.8791 13.5636 14.6558V14.5814C13.5636 14.4884 13.5455 14.3954 13.4909 14.2837C13.4545 14.1907 13.4 14.1163 13.3273 14.0605C13.2364 13.9675 13.1455 13.9116 13.0545 13.8744C12.9636 13.8372 12.8545 13.8186 12.7455 13.8186H12.7091C12.6545 13.8186 12.6182 13.8186 12.5636 13.8372V13.9675C12.6 13.9489 12.6545 13.9489 12.7091 13.9489H12.8C12.9455 13.9861 13.0545 14.0791 13.1636 14.1907C13.2727 14.321 13.3273 14.4698 13.3273 14.6372C13.3273 14.8047 13.2727 14.9535 13.1636 15.0837C13.0545 15.214 12.9273 15.2884 12.7636 15.3442H12.7273C12.6364 15.3442 12.5455 15.3256 12.4545 15.2884C12.3636 15.2512 12.2909 15.1954 12.2364 15.1396L12.2182 15.1023C12.1818 15.0465 12.1455 14.9907 12.1091 14.9163C12.0727 14.8233 12.0364 14.7489 12.0364 14.6558V14.6C12.0545 14.507 12.0909 14.414 12.1273 14.3396C12.1636 14.2651 12.2 14.1907 12.2545 14.1349L12.4727 13.8558C12.3455 13.893 12.2364 13.9675 12.1455 14.0605C11.9818 14.1907 11.9091 14.3582 11.8909 14.5628ZM12.4727 14.8791C12.5091 14.8977 12.5273 14.9163 12.5818 14.9349C12.6182 14.9535 12.6545 14.9535 12.6909 14.9721C12.7636 14.9535 12.8364 14.8977 12.8727 14.8419C12.9273 14.7861 12.9455 14.7116 12.9455 14.6372C12.9455 14.5628 12.9273 14.4884 12.8727 14.4326C12.8182 14.3768 12.7636 14.3396 12.7091 14.321H12.6909C12.6545 14.321 12.6182 14.321 12.5818 14.3396C12.5455 14.3582 12.5273 14.3768 12.4909 14.3954L12.4545 14.4326C12.4364 14.4512 12.4182 14.4884 12.4182 14.507C12.4 14.5442 12.3818 14.6 12.3636 14.6558C12.3636 14.693 12.3636 14.7116 12.3818 14.7489C12.4364 14.8047 12.4545 14.8419 12.4727 14.8791ZM10.3636 14.0977C10.2727 14.0977 10.1818 14.0791 10.0909 14.0605C10.0182 14.0419 9.92727 14.0047 9.85455 13.9675V13.9489C9.70909 13.8744 9.6 13.7814 9.50909 13.6698C9.41818 13.5582 9.34545 13.4279 9.30909 13.2977C9.29091 13.2419 9.27273 13.1861 9.25455 13.1116C9.23636 13.0372 9.21818 12.9442 9.21818 12.8698C9.21818 12.6093 9.29091 12.3861 9.43636 12.1814C9.58182 11.9768 9.76364 11.8465 10 11.7535C10.0545 11.7349 10.1091 11.7163 10.1818 11.7163C10.2364 11.7163 10.3091 11.6977 10.3818 11.6977C10.6364 11.6977 10.8545 11.7721 11.0545 11.921C11.2182 12.0512 11.3273 12.2 11.4182 12.3675H11.4545L11.4909 12.4977C11.5091 12.5535 11.5273 12.6093 11.5273 12.6837C11.5273 12.7396 11.5455 12.814 11.5455 12.8884C11.5455 13.1489 11.4727 13.3907 11.3091 13.5954C11.1636 13.8 10.9636 13.9489 10.7455 14.0419C10.6909 14.0605 10.6182 14.0791 10.5636 14.0791C10.4727 14.0791 10.4182 14.0977 10.3636 14.0977ZM10 13.6326C10.0545 13.6512 10.1273 13.6698 10.1818 13.6884C10.2727 13.7256 10.3636 13.7256 10.4909 13.707C10.5273 13.707 10.5636 13.6884 10.6 13.6884C10.7636 13.6326 10.8909 13.521 11 13.3721C11.1091 13.2233 11.1636 13.0744 11.1636 12.8884C11.1636 12.8326 11.1636 12.7954 11.1636 12.7582H11.1455L11.0909 12.6093C11.0364 12.4419 10.9455 12.3116 10.8182 12.2186C10.6909 12.107 10.5273 12.0698 10.3636 12.0698C10.3091 12.0698 10.2545 12.0698 10.2182 12.0884C10.1818 12.0884 10.1455 12.107 10.1091 12.107C9.94545 12.1628 9.81818 12.2744 9.70909 12.4047C9.61818 12.5349 9.56364 12.6837 9.56364 12.8698C9.56364 12.9256 9.56364 12.9814 9.58182 13.0372C9.6 13.093 9.61818 13.1489 9.61818 13.1861C9.65455 13.2791 9.70909 13.3721 9.76364 13.4651C9.83636 13.521 9.90909 13.5768 10 13.6326ZM15.0545 14.0791H14.8909L14.7273 14.0419C14.4909 13.9675 14.2909 13.8372 14.1455 13.614C14 13.4093 13.9091 13.1675 13.9091 12.907C13.9091 12.8326 13.9091 12.7768 13.9273 12.7023C13.9273 12.6279 13.9455 12.5721 13.9636 12.4977C14.0182 12.3675 14.0909 12.2372 14.1636 12.1256C14.2545 12.014 14.3818 11.9023 14.5273 11.8279C14.6 11.7907 14.6909 11.7535 14.7818 11.7349C14.8727 11.7163 14.9636 11.7163 15.0727 11.7163H15.4C15.6545 11.7907 15.8545 11.9396 16.0182 12.1442C16.1636 12.3675 16.2545 12.6093 16.2545 12.8698C16.2545 12.9256 16.2545 12.9814 16.2364 13.0372C16.2364 13.093 16.2182 13.1489 16.2 13.2047C16.1455 13.3535 16.0727 13.5023 15.9818 13.614C15.8909 13.7256 15.7818 13.8372 15.6545 13.9303L15.6 13.9675H15.5636C15.4909 14.0047 15.4364 14.0233 15.3455 14.0233C15.2545 14.0605 15.1455 14.0791 15.0545 14.0791ZM14.9273 13.707H15.0545C15.1273 13.707 15.2 13.707 15.2727 13.6884C15.3273 13.6698 15.3818 13.6512 15.4364 13.6326L15.4727 13.614C15.5455 13.5582 15.6182 13.4837 15.6727 13.4093C15.7455 13.3163 15.8 13.2233 15.8364 13.093C15.8545 13.0558 15.8545 13.0186 15.8545 12.9814C15.8545 12.9442 15.8545 12.907 15.8545 12.8698C15.8545 12.6837 15.8 12.5163 15.6909 12.3675C15.5818 12.2186 15.4545 12.1256 15.2909 12.0884H15.0364C14.9636 12.0884 14.8909 12.0884 14.8182 12.107C14.7636 12.1256 14.7091 12.1442 14.6545 12.1628C14.5636 12.2186 14.4727 12.2744 14.4182 12.3489C14.3636 12.4233 14.3091 12.5163 14.2727 12.6279C14.2545 12.6651 14.2545 12.7023 14.2545 12.7396C14.2545 12.7954 14.2364 12.8512 14.2364 12.907C14.2364 13.093 14.2909 13.2605 14.4 13.3907C14.5091 13.5396 14.6364 13.6326 14.7818 13.6698L14.9273 13.707ZM10.3091 13.5954C10.2545 13.5954 10.2 13.5768 10.1455 13.5582C10.1091 13.5396 10.0545 13.521 10.0364 13.5023L9.92727 13.4465V13.4279C9.89091 13.4093 9.85455 13.3721 9.81818 13.3349C9.76364 13.2605 9.72727 13.1861 9.70909 13.093V13.0558C9.70909 13.0372 9.70909 13.0372 9.70909 13.0372C9.69091 13 9.69091 12.9442 9.69091 12.907C9.69091 12.7396 9.74545 12.5907 9.83636 12.4791C9.92727 12.3675 10.0364 12.2744 10.1818 12.2372L10.2545 12.2H10.3636C10.5091 12.2 10.6364 12.2372 10.7636 12.3303C10.8909 12.4233 10.9818 12.5349 11.0182 12.6837L11.0545 12.814V12.8698C11.0545 13.0186 11.0182 13.1675 10.9273 13.2977C10.8364 13.4279 10.7273 13.521 10.5636 13.5768H10.5091H10.4C10.3818 13.5768 10.3455 13.5954 10.3091 13.5954ZM10.0545 13.0372C10.0545 13.0558 10.0727 13.093 10.0909 13.1116C10.0909 13.1303 10.1091 13.1303 10.1455 13.1489L10.2909 13.1861V13.2233C10.3091 13.2233 10.3273 13.2047 10.3636 13.2047H10.4909C10.5455 13.1861 10.5818 13.1489 10.6182 13.093C10.6545 13.0186 10.6727 12.9442 10.6727 12.8698V12.8326L10.6545 12.7768C10.6364 12.721 10.6 12.6651 10.5455 12.6279C10.4909 12.5907 10.4182 12.5721 10.3455 12.5721H10.2909L10.2545 12.5907C10.1818 12.6093 10.1273 12.6465 10.0909 12.7023C10.0545 12.7582 10.0182 12.8326 10.0182 12.907C10.0182 12.9256 10.0182 12.9256 10.0182 12.9256C10.0545 12.9628 10.0545 13 10.0545 13.0372ZM15.0727 13.5396H14.8727C14.7273 13.5023 14.6 13.4093 14.5091 13.2977C14.4182 13.1675 14.3636 13.0372 14.3636 12.8884C14.3636 12.8512 14.3636 12.7954 14.3818 12.7582C14.3818 12.7396 14.3818 12.721 14.3818 12.721V12.6837L14.4 12.6465C14.4545 12.5163 14.5455 12.4047 14.6727 12.3116C14.8 12.2186 14.9273 12.1814 15.0727 12.1814C15.1273 12.1814 15.1636 12.1814 15.2 12.2H15.2364L15.2727 12.2186C15.4 12.2744 15.5273 12.3675 15.6 12.4791C15.6909 12.6093 15.7455 12.7396 15.7455 12.907C15.7455 12.9628 15.7455 13 15.7273 13.0558V13.1116L15.7091 13.1489C15.6545 13.2605 15.5636 13.3721 15.4545 13.4465C15.3455 13.5023 15.2182 13.5396 15.0727 13.5396ZM14.9455 13.1675H15.0727C15.1455 13.1675 15.2 13.1489 15.2545 13.1116C15.3091 13.0744 15.3455 13.0372 15.3818 12.9814C15.3818 12.9628 15.3818 12.9256 15.4 12.8884C15.4 12.8884 15.4 12.8884 15.4 12.8698C15.4 12.7954 15.3818 12.721 15.3273 12.6651C15.2909 12.6093 15.2364 12.5535 15.1636 12.5349C15.1455 12.5349 15.1273 12.5349 15.0909 12.5163C15.0909 12.5163 15.0909 12.5163 15.0727 12.5163C15 12.5163 14.9455 12.5349 14.8909 12.5907C14.8364 12.6279 14.7818 12.6837 14.7636 12.7396C14.7636 12.7768 14.7636 12.7954 14.7455 12.8326C14.7455 12.8512 14.7455 12.8698 14.7455 12.8698C14.7455 12.9256 14.7636 13 14.8182 13.0558C14.8364 13.1116 14.8909 13.1489 14.9455 13.1675ZM4.52727 12.0326H2.47273V11.5489C2.50909 10.7489 2.61818 9.94886 2.83636 9.20467C3.03636 8.44188 3.32727 7.7349 3.65455 7.10235L3.87273 6.73025L4.87273 7.75351C4.89091 7.75351 4.90909 7.75351 4.94545 7.75351L8.83636 4.08839V4.06979V4.05118L8.81818 4.03258L7.69091 2.86049L8.07273 2.69304C8.70909 2.35816 9.38182 2.09769 10.0909 1.91165C10.8 1.7256 11.5636 1.61397 12.3273 1.57676H12.6545V3.66049L4.52727 12.0326ZM2.83636 11.6605H4.38182L12.2909 3.49304V1.93025C11.5636 1.96746 10.8545 2.07909 10.1818 2.24653C9.52727 2.41397 8.90909 2.65583 8.30909 2.95351L9.05454 3.7349C9.07273 3.75351 9.09091 3.79072 9.12727 3.80932C9.16364 3.86514 9.18182 3.92095 9.18182 3.99537V4.01397C9.18182 4.05118 9.18182 4.107 9.16364 4.14421C9.14545 4.21863 9.10909 4.27444 9.03636 4.31165L5.18182 8.03258C5.14545 8.06979 5.09091 8.08839 5.03636 8.107C4.94545 8.1256 4.83636 8.1256 4.76364 8.107C4.70909 8.08839 4.67273 8.06979 4.63636 8.03258L3.94545 7.3256C3.63636 7.92095 3.38182 8.59072 3.18182 9.2977C2.98182 10.0233 2.87273 10.7861 2.83636 11.5489V11.6605ZM14.1636 11.2698C14.0364 11.2698 13.9091 11.2512 13.8 11.1954C13.7273 11.1582 13.6364 11.121 13.5636 11.0837H13.5091L13.4727 11.0465C13.3273 10.9349 13.2182 10.8047 13.1273 10.6186C13.0545 10.4512 13 10.2651 13 10.0977C13 9.94886 13.0182 9.81863 13.0727 9.707C13.1091 9.59537 13.1636 9.48374 13.2364 9.39072C13.3091 9.26049 13.4182 9.16746 13.5455 9.07444C13.6727 9.00002 13.8182 8.94421 13.9636 8.9256H13.9818H14.1818C14.2909 8.9256 14.4 8.94421 14.5091 8.98142C14.6 9.01863 14.6727 9.03723 14.7455 9.09304H14.8L14.8545 9.13025C15 9.24188 15.1091 9.37211 15.2 9.53956C15.2727 9.707 15.3273 9.89304 15.3273 10.0791C15.3273 10.2279 15.3091 10.3396 15.2727 10.4698C15.2364 10.5814 15.1818 10.7116 15.0909 10.8047C15 10.9535 14.8727 11.0651 14.7091 11.1582C14.5455 11.214 14.3636 11.2698 14.1636 11.2698ZM13.6364 10.7116H13.6727L13.7091 10.7303C13.7818 10.7675 13.8545 10.8047 13.9273 10.8419C14 10.8791 14.0727 10.8791 14.1636 10.8791C14.3091 10.8791 14.4182 10.8419 14.5273 10.7861C14.6364 10.7303 14.7273 10.6558 14.7818 10.5442L14.8 10.5256C14.8545 10.4512 14.9091 10.3768 14.9273 10.3023C14.9455 10.2279 14.9636 10.1349 14.9636 10.0233C14.9636 9.89304 14.9273 9.76281 14.8727 9.65118C14.8182 9.55816 14.7636 9.48374 14.6909 9.40932H14.6545L14.6182 9.39072C14.5455 9.35351 14.4727 9.3163 14.4 9.2977C14.3273 9.27909 14.2545 9.26049 14.1818 9.26049H14C13.9091 9.27909 13.8182 9.2977 13.7455 9.35351C13.6545 9.40932 13.6 9.46514 13.5636 9.55816C13.5091 9.65118 13.4545 9.7256 13.4364 9.81863C13.4 9.89304 13.4 9.98607 13.4 10.0791C13.4 10.2093 13.4364 10.321 13.4909 10.4512C13.4909 10.5628 13.5636 10.6372 13.6364 10.7116ZM11.2727 11.2512C11.0727 11.2512 10.8909 11.214 10.7273 11.121C10.6 11.0465 10.4909 10.9721 10.4 10.8791H10.3636L10.3091 10.8047C10.2364 10.693 10.1818 10.5814 10.1455 10.4698C10.1091 10.3582 10.0909 10.2279 10.0909 10.0977C10.0909 9.89304 10.1455 9.707 10.2182 9.53956C10.3091 9.37211 10.4182 9.22328 10.5636 9.13025C10.6545 9.05583 10.7636 9.00002 10.8727 8.96281C11.1636 8.86979 11.5091 8.907 11.7636 9.03723C11.8909 9.11165 12 9.18607 12.0909 9.2977H12.1091L12.1636 9.37211C12.2364 9.46514 12.2909 9.57677 12.3455 9.707C12.3818 9.83723 12.4182 9.96746 12.4182 10.0977C12.4182 10.3023 12.3636 10.4884 12.2727 10.6372C12.1818 10.8047 12.0727 10.9349 11.9273 11.0279C11.8364 11.1023 11.7273 11.1582 11.6182 11.1954C11.5273 11.214 11.4 11.2512 11.2727 11.2512ZM10.5455 10.4884L10.6 10.5442C10.6727 10.6372 10.7818 10.7116 10.8909 10.7861C11 10.8419 11.1273 10.8791 11.2545 10.8791C11.3455 10.8791 11.4182 10.8605 11.4909 10.8419C11.5636 10.8047 11.6364 10.7675 11.7091 10.7303C11.8182 10.6558 11.8909 10.5628 11.9636 10.4512C12.0182 10.3396 12.0545 10.2279 12.0545 10.0791C12.0545 9.98607 12.0364 9.91165 12 9.81863C11.9818 9.76281 11.9636 9.707 11.9273 9.66979H11.9091L11.8545 9.59537C11.7818 9.50235 11.6909 9.42793 11.5818 9.35351C11.4182 9.26049 11.1818 9.24188 10.9636 9.3163C10.8909 9.3349 10.8182 9.37211 10.7636 9.42793C10.6545 9.50235 10.5818 9.59537 10.5091 9.7256C10.4545 9.83723 10.4182 9.96746 10.4182 10.0977C10.4182 10.1907 10.4364 10.2651 10.4545 10.3582C10.5091 10.3768 10.5273 10.4326 10.5455 10.4884ZM14.1818 10.7489H14.1273C14.0545 10.7489 14 10.7303 13.9273 10.7116C13.8545 10.693 13.8 10.6558 13.7636 10.6186C13.6727 10.5628 13.6 10.4698 13.5455 10.3768C13.4909 10.2837 13.4727 10.1721 13.4727 10.0605C13.4727 9.98607 13.4909 9.89304 13.5273 9.81863C13.5455 9.76281 13.5636 9.7256 13.6 9.68839V9.65118L13.6545 9.59537C13.7091 9.53956 13.7636 9.50235 13.8182 9.46514C13.8727 9.42793 13.9455 9.39072 14.0364 9.37211H14.0727C14.1636 9.37211 14.2545 9.37211 14.3273 9.39072C14.4182 9.40932 14.4909 9.42793 14.5636 9.46514L14.6 9.48374C14.6909 9.55816 14.7455 9.63258 14.8 9.74421C14.8364 9.83723 14.8545 9.94886 14.8545 10.0419C14.8545 10.1349 14.8364 10.2093 14.8 10.2837C14.7818 10.3396 14.7455 10.414 14.7091 10.4698C14.6364 10.5628 14.5818 10.6186 14.4909 10.6744C14.4 10.7116 14.2909 10.7489 14.1818 10.7489ZM13.9636 9.80002L13.9091 9.87444C13.9091 9.87444 13.8909 9.89304 13.8727 9.94886C13.8545 9.98607 13.8545 10.0233 13.8545 10.0605C13.8545 10.0977 13.8727 10.1535 13.8909 10.2093C13.9091 10.2465 13.9455 10.2837 14 10.321L14.0364 10.3396C14.0545 10.3582 14.0545 10.3582 14.0727 10.3582C14.0909 10.3582 14.1273 10.3768 14.1455 10.3768H14.1818C14.2182 10.3768 14.2545 10.3582 14.2909 10.3396C14.3273 10.321 14.3636 10.2837 14.4 10.2279C14.4182 10.2093 14.4364 10.1535 14.4545 10.1163C14.4727 10.0791 14.4727 10.0605 14.4727 10.0233C14.4727 9.96746 14.4545 9.91165 14.4364 9.87444C14.4182 9.83723 14.4 9.80002 14.3636 9.78142C14.3273 9.76281 14.2727 9.74421 14.2182 9.74421C14.1636 9.7256 14.1091 9.7256 14.0545 9.7256C14.0182 9.74421 14 9.74421 13.9636 9.76281C14 9.76281 13.9818 9.78142 13.9636 9.80002ZM11.2727 10.7489H11.2182C11.1091 10.7489 11.0182 10.7303 10.9091 10.6744C10.8182 10.6186 10.7455 10.5628 10.6727 10.4698L10.4545 10.1721H10.5636C10.5636 10.1349 10.5455 10.0977 10.5455 10.0605C10.5455 9.93025 10.5636 9.81863 10.6182 9.7256C10.6727 9.65118 10.7273 9.55816 10.8 9.48374L10.8545 9.42793H10.9091C10.9636 9.40932 11.0182 9.37211 11.0727 9.37211C11.1455 9.35351 11.2182 9.3349 11.3091 9.3349H11.3818C11.4727 9.35351 11.5455 9.39072 11.6182 9.44653C11.6909 9.50235 11.7455 9.55816 11.8 9.63258C11.8364 9.707 11.8727 9.76281 11.8909 9.83723C11.9091 9.89304 11.9091 9.94886 11.9091 10.0047C11.9091 10.1349 11.8909 10.2465 11.8364 10.3396C11.7818 10.414 11.7273 10.507 11.6545 10.5814L11.6364 10.6372L11.2727 10.7489ZM11.0545 10.3023C11.0727 10.321 11.0909 10.321 11.0909 10.3396C11.1273 10.3582 11.1636 10.3768 11.2182 10.3768L11.4545 10.3023C11.4909 10.2651 11.5273 10.2279 11.5455 10.1721C11.5636 10.1349 11.5818 10.0791 11.5818 10.0233C11.5818 9.98607 11.5818 9.94886 11.5818 9.91165C11.5818 9.89304 11.5636 9.87444 11.5636 9.85583C11.5273 9.81863 11.4909 9.78142 11.4545 9.74421C11.4182 9.7256 11.4 9.707 11.3636 9.707C11.3091 9.707 11.2545 9.707 11.2182 9.7256C11.1818 9.74421 11.1273 9.76281 11.0727 9.78142H11.0545C11.0182 9.81863 11 9.85583 10.9818 9.89304C10.9636 9.93025 10.9455 9.98607 10.9455 10.0419C10.9455 10.0791 10.9455 10.0977 10.9636 10.1163C10.9818 10.1535 11 10.1907 11.0364 10.2279L11.0545 10.3023ZM4.90909 7.62328L3.50909 6.19072L3.67273 5.94886C4.07273 5.26049 4.56364 4.62793 5.14545 4.08839C5.72727 3.53025 6.4 3.08374 7.14545 2.73025L7.18182 2.71165H7.41818L8.74545 4.01397L4.90909 7.62328ZM3.98182 6.15351L4.90909 7.10235L8.21818 4.01397L7.27273 3.08374C6.58182 3.41863 5.94545 3.84653 5.4 4.36746C4.83636 4.88839 4.36364 5.48374 4 6.1349L3.98182 6.15351Z" fill="#2D3E50"/>
</g>
</svg>
