<svg width="12" height="12" viewBox="0 0 12 12" fill="none" xmlns="http://www.w3.org/2000/svg">
<path d="M6.34543 3.43025H6.42725C6.78179 3.43025 7.11816 3.49537 7.42725 3.6256C7.72725 3.76513 7.99998 3.94188 8.23634 4.17444C8.4727 4.39769 8.65452 4.66746 8.79088 4.97444C8.93634 5.28141 9.00907 5.6163 9.01816 5.96979C9.02725 5.98839 9.02725 5.99769 9.02725 6.0163V6.06281C9.02725 6.4163 8.95452 6.76048 8.81816 7.07676C8.68179 7.39304 8.49998 7.67211 8.26361 7.90467C8.02725 8.13723 7.75452 8.32327 7.43634 8.45351C7.12725 8.59304 6.79088 8.65816 6.41816 8.65816C6.0727 8.65816 5.73634 8.59304 5.43634 8.46281C5.12725 8.33258 4.85452 8.15583 4.61816 7.94188C4.3727 7.71862 4.18179 7.44886 4.03634 7.13258C3.89089 6.8256 3.81816 6.49072 3.80907 6.12792V6.11862V6.05351V6.0442V6.0349C3.80907 5.68141 3.8727 5.34653 3.99998 5.03025C4.12725 4.72327 4.30907 4.4442 4.54543 4.21165C4.7727 3.97909 5.04543 3.79304 5.34543 3.6442C5.65452 3.51397 5.98179 3.43955 6.34543 3.43025ZM4.06361 6.0442V6.06281V6.07211C4.06361 6.38839 4.11816 6.69537 4.23634 6.97444C4.35452 7.25351 4.51816 7.50467 4.72725 7.70932C4.93634 7.91397 5.1727 8.08141 5.45452 8.20234C5.72725 8.32327 6.02725 8.38839 6.34543 8.39769H6.41816C6.72725 8.39769 7.02725 8.34188 7.29998 8.22095C7.5727 8.10002 7.81816 7.94188 8.03634 7.74653C8.25452 7.54188 8.42725 7.30002 8.56361 7.02095C8.69088 6.74188 8.76361 6.4349 8.7727 6.10932V6.06281V6.00699C8.7727 5.70002 8.71816 5.40234 8.59998 5.11397C8.48179 4.8349 8.31816 4.58374 8.10907 4.36979C7.89998 4.15583 7.66361 3.98839 7.38179 3.86746C7.10907 3.74653 6.80907 3.68141 6.49089 3.67211H6.41816C6.09998 3.67211 5.79998 3.72792 5.52725 3.83955C5.25452 3.95118 5.00907 4.10932 4.79998 4.31397C4.58179 4.51862 4.39998 4.76048 4.2727 5.04886C4.13634 5.33723 4.0727 5.6349 4.0727 5.95118V5.98839V6.0442H4.06361ZM1.7727 3.40234V3.34653L1.63634 3.2163L1.60907 3.16979C1.60907 3.16979 1.60907 3.15118 1.59998 3.12327C1.59998 3.11397 1.59998 3.10467 1.60907 3.09537C1.60907 3.08606 1.61816 3.07676 1.62725 3.06746L1.66361 3.00234C1.89088 2.61165 2.1727 2.25816 2.50907 1.95118C2.84543 1.6442 3.21816 1.40234 3.62725 1.2163L3.65452 1.20699C3.66361 1.19769 3.6727 1.19769 3.68179 1.19769H3.71816C3.71816 1.19769 3.72725 1.19769 3.75452 1.20699C3.78179 1.20699 3.79088 1.2163 3.79088 1.2256L3.86361 1.30932H3.90907C4.26361 1.11397 4.65452 0.955832 5.0727 0.844204C5.49088 0.732576 5.92725 0.66746 6.3727 0.658157H6.36361C6.39088 0.658157 6.40907 0.66746 6.43634 0.686064C6.45452 0.686064 6.4727 0.713971 6.48179 0.741878V1.19769H6.53634C7.1727 1.2163 7.7727 1.35583 8.32725 1.6163C8.88179 1.87676 9.36361 2.23025 9.7727 2.66746C10.1818 3.10467 10.5091 3.60699 10.7363 4.19304C10.9727 4.76979 11.0909 5.38374 11.0909 6.0349C11.0909 6.69537 10.9636 7.31862 10.7182 7.90467C10.4727 8.50002 10.1363 9.01165 9.70907 9.45816C9.28179 9.90467 8.7727 10.2582 8.19998 10.5093C7.62725 10.7791 7.01816 10.9093 6.35452 10.9093C5.69998 10.9093 5.09089 10.7884 4.53634 10.5465C3.96361 10.3047 3.4727 9.96979 3.05452 9.55118C2.63634 9.13258 2.29998 8.63025 2.04543 8.06281C1.79088 7.49537 1.65452 6.88141 1.63634 6.22095V6.16513H1.21816C1.19088 6.16513 1.16361 6.15583 1.13634 6.12792C1.10907 6.10932 1.09998 6.07211 1.09998 6.0349C1.09998 5.55118 1.16361 5.08606 1.28179 4.63025C1.39998 4.18374 1.5727 3.75583 1.79088 3.35583L1.7727 3.40234ZM3.6727 1.44886H3.61816C3.25452 1.6256 2.92725 1.84886 2.63634 2.11862C2.34543 2.38839 2.10907 2.68606 1.91816 3.02095L1.90907 3.04886L1.8727 3.09537L2.45452 3.69072L4.24543 2.0163L3.6727 1.44886ZM1.85452 6.22095C1.88179 6.85351 2.00907 7.43955 2.25452 7.97909C2.49998 8.51862 2.81816 8.99304 3.22725 9.39304C3.63634 9.79304 4.10907 10.1093 4.64543 10.3419C5.1727 10.5744 5.74543 10.6861 6.35452 10.6861H6.40907C7.02725 10.6861 7.59998 10.5651 8.14543 10.314C8.69089 10.0628 9.15452 9.73723 9.55452 9.31862C9.96361 8.90002 10.2909 8.4163 10.5182 7.85816C10.7454 7.30002 10.8727 6.70467 10.8727 6.07211V6.06281V6.0442C10.8727 5.43025 10.7545 4.8442 10.5272 4.28606C10.3091 3.73723 9.99998 3.26281 9.60907 2.8442C9.21816 2.4256 8.75452 2.10002 8.22725 1.84886C7.69998 1.58839 7.13634 1.44886 6.52725 1.43025H6.4727V1.86746C6.4727 1.88606 6.4727 1.89537 6.46361 1.91397L6.43634 1.96048L2.33634 6.14653C2.32725 6.15583 2.31816 6.16513 2.30907 6.16513C2.29998 6.17444 2.29088 6.17444 2.28179 6.17444H2.2727H1.85452V6.22095ZM1.32725 5.92327H2.22725L6.23634 1.78374V0.872111H6.16361C5.78179 0.890716 5.41816 0.946529 5.06361 1.03955C4.70907 1.13258 4.3727 1.26281 4.05452 1.43025L4.08179 1.42095L3.99998 1.45816L4.46361 1.95118C4.4727 1.96048 4.48179 1.96979 4.49089 1.97909C4.49998 1.98839 4.49998 2.00699 4.49998 2.0163V2.0256V2.0349C4.49998 2.05351 4.49998 2.06281 4.49089 2.08141C4.49089 2.10002 4.48179 2.10932 4.46361 2.11862L2.52725 3.94188C2.51816 3.95118 2.50907 3.95118 2.49088 3.96048C2.4727 3.96048 2.46361 3.96979 2.44543 3.96979C2.42725 3.96979 2.41816 3.96979 2.40907 3.96048C2.39998 3.96048 2.39088 3.95118 2.38179 3.94188L1.96361 3.50467L1.90907 3.58839C1.74543 3.90467 1.60907 4.24885 1.50907 4.62095C1.40907 4.99304 1.34543 5.37444 1.33634 5.77444V5.78374V5.92327H1.32725ZM6.35452 6.8163H6.38179C6.45452 6.8163 6.51816 6.8256 6.5727 6.85351C6.63634 6.88141 6.69089 6.91862 6.73634 6.96513C6.78179 7.00234 6.81816 7.04886 6.84543 7.11397C6.8727 7.17909 6.88179 7.2349 6.88179 7.30002V7.30932V7.31862V7.32793V7.33723C6.88179 7.47676 6.83634 7.58839 6.73634 7.68141C6.64543 7.77444 6.52725 7.83025 6.39089 7.83955H6.38179H6.3727C6.22725 7.83955 6.10907 7.79304 6.00907 7.69072C5.90907 7.58839 5.86361 7.47676 5.86361 7.33723L5.85452 7.32793L5.84543 7.31862C5.84543 7.16979 5.89088 7.05816 5.99089 6.95583C6.09998 6.86281 6.21816 6.8163 6.35452 6.8163ZM6.1727 7.50467C6.19998 7.52327 6.22725 7.54188 6.25452 7.56048C6.29089 7.57909 6.31816 7.57909 6.35452 7.57909C6.41816 7.56048 6.46361 7.53258 6.50907 7.48606C6.55452 7.43955 6.5727 7.38374 6.5727 7.31862C6.5727 7.25351 6.55452 7.20699 6.51816 7.16048C6.48179 7.11397 6.43634 7.08606 6.38179 7.06746H6.35452C6.32725 7.06746 6.29998 7.07676 6.2727 7.08606C6.24543 7.09537 6.21816 7.11397 6.19998 7.14188V7.13258C6.1727 7.16048 6.15452 7.19769 6.14543 7.2256C6.12725 7.25351 6.11816 7.29072 6.10907 7.32793V7.33723V7.34653C6.10907 7.37444 6.11816 7.41165 6.13634 7.43955C6.13634 7.44885 6.15452 7.47676 6.1727 7.50467ZM5.01816 5.96048C5.04543 5.95118 5.06361 5.95118 5.09088 5.94188C5.11816 5.94188 5.14543 5.93258 5.1727 5.93258C5.28179 5.93258 5.3727 5.96048 5.45452 6.0256C5.53634 6.09072 5.59089 6.17444 5.62725 6.26746H5.63634C5.64543 6.28606 5.64543 6.31397 5.65452 6.34188C5.65452 6.36979 5.66361 6.39769 5.66361 6.4256C5.66361 6.53723 5.62725 6.63955 5.56361 6.72327C5.49998 6.80699 5.41816 6.87211 5.31816 6.90932C5.29088 6.91862 5.2727 6.91862 5.24543 6.92793C5.21816 6.92793 5.19089 6.93723 5.1727 6.93723C5.13634 6.93723 5.09998 6.92793 5.05452 6.91862C5.01816 6.90932 4.98179 6.89072 4.93634 6.88141H4.94543C4.88179 6.85351 4.83634 6.80699 4.79998 6.76048C4.76361 6.71397 4.72725 6.65816 4.70907 6.59304C4.69998 6.57444 4.69088 6.54653 4.68179 6.50932C4.6727 6.48141 4.6727 6.4442 4.6727 6.40699C4.6727 6.30467 4.69998 6.20234 4.76361 6.11862C4.84543 6.06281 4.91816 5.99769 5.01816 5.96048ZM4.93634 6.52793C4.94543 6.55583 4.95452 6.58374 4.9727 6.61165C4.99088 6.63025 5.01816 6.64886 5.04543 6.65816V6.66746C5.06361 6.67676 5.08179 6.68606 5.09998 6.68606C5.11816 6.69537 5.13634 6.69537 5.15452 6.69537C5.16361 6.69537 5.16361 6.69537 5.16361 6.68606C5.16361 6.67676 5.16361 6.67676 5.1727 6.67676H5.25452C5.30907 6.65816 5.34543 6.63025 5.38179 6.58374C5.40907 6.53723 5.42725 6.48141 5.42725 6.4163V6.38839C5.42725 6.38839 5.42725 6.37909 5.41816 6.35118C5.39998 6.29537 5.3727 6.25816 5.32725 6.23025C5.28179 6.20234 5.23634 6.18374 5.18179 6.18374H5.14543C5.14543 6.18374 5.13634 6.18374 5.11816 6.19304C5.06361 6.21165 5.01816 6.23955 4.99089 6.28606C4.95452 6.33258 4.93634 6.38839 4.93634 6.4442C4.93634 6.46281 4.93634 6.47211 4.94543 6.48141C4.93634 6.50002 4.93634 6.51862 4.93634 6.52793ZM5.91816 5.43025C5.88179 5.45816 5.83634 5.48606 5.79088 5.50467C5.74543 5.52327 5.69089 5.53258 5.63634 5.53258C5.55452 5.53258 5.4727 5.51397 5.40907 5.47676C5.33634 5.43955 5.28179 5.39304 5.23634 5.33723H5.22725C5.19998 5.29072 5.1727 5.2442 5.15452 5.19769C5.13634 5.15118 5.12725 5.09537 5.12725 5.03955C5.12725 4.95583 5.14543 4.88141 5.18179 4.80699C5.21816 4.73258 5.2727 4.67676 5.32725 4.63025C5.36361 4.60234 5.40907 4.57444 5.45452 4.56513C5.49998 4.55583 5.55452 4.54653 5.60907 4.54653C5.69088 4.54653 5.76361 4.56513 5.82725 4.60234C5.89088 4.63955 5.94543 4.68606 5.99089 4.74188H5.99998C6.02725 4.77909 6.05452 4.8256 6.0727 4.88141C6.09089 4.93723 6.09998 4.98374 6.09998 5.03955C6.09998 5.12327 6.08179 5.19769 6.04543 5.26281C6.02725 5.32792 5.98179 5.38374 5.91816 5.43025ZM5.83634 4.88141C5.80907 4.85351 5.79088 4.8256 5.76361 4.80699C5.73634 4.78839 5.70907 4.77909 5.68179 4.76979H5.6727C5.63634 4.76979 5.59998 4.76979 5.5727 4.77909C5.54543 4.78839 5.51816 4.79769 5.49089 4.8163H5.48179C5.45452 4.8442 5.42725 4.88141 5.40907 4.90932C5.39088 4.94653 5.38179 4.98374 5.38179 5.03025C5.38179 5.05816 5.39088 5.08606 5.39998 5.11397C5.40907 5.13258 5.42725 5.16048 5.43634 5.17909H5.42725C5.45452 5.20699 5.48179 5.2349 5.50907 5.25351C5.54543 5.27211 5.58179 5.28141 5.61816 5.28141H5.62725H5.63634L5.78179 5.2349C5.80907 5.20699 5.83634 5.16979 5.85452 5.14188C5.8727 5.10467 5.88179 5.06746 5.88179 5.02095C5.88179 5.00234 5.88179 4.97444 5.8727 4.95583C5.86361 4.92792 5.85452 4.90002 5.83634 4.88141ZM6.80907 5.44885H6.78179C6.71816 5.40234 6.6727 5.34653 6.63634 5.27211C6.59998 5.19769 6.58179 5.12327 6.58179 5.04886C6.58179 4.98374 6.59088 4.93723 6.60907 4.88141C6.62725 4.8349 6.65452 4.78839 6.68179 4.74188C6.70907 4.68606 6.75452 4.64885 6.80907 4.61165C6.86361 4.57444 6.91816 4.55583 6.98179 4.54653H7.09089C7.13634 4.54653 7.18179 4.55583 7.22725 4.56513C7.2727 4.58374 7.31816 4.60234 7.35452 4.62095H7.38179C7.44543 4.66746 7.49089 4.72327 7.52725 4.78839C7.56361 4.85351 7.58179 4.93723 7.58179 5.01165C7.58179 5.07676 7.5727 5.12327 7.55452 5.17909C7.53634 5.2256 7.50907 5.27211 7.4727 5.31862C7.43634 5.38374 7.38179 5.43025 7.30907 5.46746C7.23634 5.50467 7.16361 5.52327 7.08179 5.52327C7.02725 5.52327 6.98179 5.51397 6.93634 5.49537C6.89089 5.49537 6.84543 5.46746 6.80907 5.44885ZM7.24543 4.80699C7.21816 4.78839 7.18179 4.77909 7.14543 4.76979C7.10907 4.76048 7.0727 4.76048 7.03634 4.76048C7.00907 4.76978 6.98179 4.77909 6.95452 4.79769C6.92725 4.8163 6.90907 4.8349 6.88179 4.85351V4.87211C6.86361 4.89072 6.85452 4.90932 6.84543 4.93723C6.83634 4.96513 6.82725 5.00234 6.82725 5.03025C6.82725 5.06746 6.83634 5.10467 6.85452 5.14188C6.8727 5.17909 6.89998 5.20699 6.93634 5.2349C6.95452 5.25351 6.9727 5.26281 6.99089 5.27211C7.01816 5.28141 7.03634 5.28141 7.06361 5.28141H7.0727H7.09089C7.12725 5.28141 7.16361 5.27211 7.19089 5.25351C7.21816 5.2349 7.24543 5.20699 7.2727 5.17909C7.29088 5.16048 7.29998 5.13258 7.30907 5.10467C7.31816 5.07676 7.32725 5.04885 7.32725 5.02095C7.32725 4.98374 7.31816 4.94653 7.29998 4.90932C7.29089 4.86281 7.2727 4.8349 7.24543 4.80699ZM7.0727 6.27676C7.09998 6.21165 7.12725 6.16513 7.16361 6.10932C7.19998 6.06281 7.25452 6.0163 7.30907 5.98839C7.33634 5.96979 7.3727 5.96048 7.40907 5.95118C7.44543 5.94188 7.49089 5.94188 7.53634 5.94188H7.6727C7.78179 5.96979 7.86361 6.0349 7.92725 6.12792C7.99088 6.22095 8.02725 6.32327 8.02725 6.4349C8.02725 6.45351 8.02725 6.48141 8.01816 6.50002C8.01816 6.51862 8.00907 6.54653 7.99998 6.58374V6.57444C7.9727 6.63955 7.94543 6.70467 7.89998 6.76048C7.85452 6.8163 7.80907 6.86281 7.75452 6.90002H7.74543C7.71816 6.91862 7.68179 6.92792 7.64543 6.93723C7.60907 6.94653 7.56361 6.94653 7.51816 6.94653H7.45452C7.45452 6.94653 7.42725 6.94653 7.38179 6.93723C7.28179 6.90932 7.19998 6.8442 7.13634 6.76048C7.0727 6.67676 7.03634 6.57444 7.03634 6.46281C7.03634 6.4349 7.03634 6.39769 7.04543 6.36978C7.05452 6.33258 7.06361 6.30467 7.0727 6.27676ZM7.45452 6.67676H7.53634C7.59089 6.67676 7.63634 6.65816 7.68179 6.63025C7.72725 6.60234 7.75452 6.56513 7.78179 6.51862V6.50932C7.78179 6.50002 7.78179 6.49072 7.79088 6.48141C7.79088 6.47211 7.79998 6.45351 7.79998 6.4442C7.79998 6.37909 7.78179 6.33258 7.74543 6.28606C7.70907 6.23955 7.66361 6.20234 7.61816 6.18374C7.60907 6.18374 7.59998 6.18374 7.59089 6.17444C7.58179 6.17444 7.56361 6.16513 7.55452 6.16513C7.49998 6.16513 7.45452 6.18374 7.40907 6.22095C7.36361 6.25816 7.32725 6.29537 7.30907 6.35118C7.30907 6.36979 7.30907 6.37909 7.29998 6.39769C7.29998 6.4163 7.29088 6.4256 7.29088 6.4442C7.29088 6.50002 7.30907 6.54653 7.34543 6.59304C7.36361 6.63025 7.39998 6.66746 7.45452 6.67676Z" fill="#2D3E50"/>
<mask id="mask0" mask-type="alpha" maskUnits="userSpaceOnUse" x="1" y="0" width="11" height="12">
<path d="M11.1818 0.5H1V11.0116H11.1818V0.5Z" fill="white"/>
<path d="M6.34543 3.43025H6.42725C6.78179 3.43025 7.11816 3.49537 7.42725 3.6256C7.72725 3.76513 7.99998 3.94188 8.23634 4.17444C8.4727 4.39769 8.65452 4.66746 8.79088 4.97444C8.93634 5.28141 9.00907 5.6163 9.01816 5.96979C9.02725 5.98839 9.02725 5.99769 9.02725 6.0163V6.06281C9.02725 6.4163 8.95452 6.76048 8.81816 7.07676C8.68179 7.39304 8.49998 7.67211 8.26361 7.90467C8.02725 8.13723 7.75452 8.32327 7.43634 8.45351C7.12725 8.59304 6.79088 8.65816 6.41816 8.65816C6.0727 8.65816 5.73634 8.59304 5.43634 8.46281C5.12725 8.33258 4.85452 8.15583 4.61816 7.94188C4.3727 7.71862 4.18179 7.44886 4.03634 7.13258C3.89089 6.8256 3.81816 6.49072 3.80907 6.12792V6.11862V6.05351V6.0442V6.0349C3.80907 5.68141 3.8727 5.34653 3.99998 5.03025C4.12725 4.72327 4.30907 4.4442 4.54543 4.21165C4.7727 3.97909 5.04543 3.79304 5.34543 3.6442C5.65452 3.51397 5.98179 3.43955 6.34543 3.43025ZM4.06361 6.0442V6.06281V6.07211C4.06361 6.38839 4.11816 6.69537 4.23634 6.97444C4.35452 7.25351 4.51816 7.50467 4.72725 7.70932C4.93634 7.91397 5.1727 8.08141 5.45452 8.20234C5.72725 8.32327 6.02725 8.38839 6.34543 8.39769H6.41816C6.72725 8.39769 7.02725 8.34188 7.29998 8.22095C7.5727 8.10002 7.81816 7.94188 8.03634 7.74653C8.25452 7.54188 8.42725 7.30002 8.56361 7.02095C8.69088 6.74188 8.76361 6.4349 8.7727 6.10932V6.06281V6.00699C8.7727 5.70002 8.71816 5.40234 8.59998 5.11397C8.48179 4.8349 8.31816 4.58374 8.10907 4.36979C7.89998 4.15583 7.66361 3.98839 7.38179 3.86746C7.10907 3.74653 6.80907 3.68141 6.49089 3.67211H6.41816C6.09998 3.67211 5.79998 3.72792 5.52725 3.83955C5.25452 3.95118 5.00907 4.10932 4.79998 4.31397C4.58179 4.51862 4.39998 4.76048 4.2727 5.04886C4.13634 5.33723 4.0727 5.6349 4.0727 5.95118V5.98839V6.0442H4.06361ZM1.7727 3.40234V3.34653L1.63634 3.2163L1.60907 3.16979C1.60907 3.16979 1.60907 3.15118 1.59998 3.12327C1.59998 3.11397 1.59998 3.10467 1.60907 3.09537C1.60907 3.08606 1.61816 3.07676 1.62725 3.06746L1.66361 3.00234C1.89088 2.61165 2.1727 2.25816 2.50907 1.95118C2.84543 1.6442 3.21816 1.40234 3.62725 1.2163L3.65452 1.20699C3.66361 1.19769 3.6727 1.19769 3.68179 1.19769H3.71816C3.71816 1.19769 3.72725 1.19769 3.75452 1.20699C3.78179 1.20699 3.79088 1.2163 3.79088 1.2256L3.86361 1.30932H3.90907C4.26361 1.11397 4.65452 0.955832 5.0727 0.844204C5.49088 0.732576 5.92725 0.66746 6.3727 0.658157H6.36361C6.39088 0.658157 6.40907 0.66746 6.43634 0.686064C6.45452 0.686064 6.4727 0.713971 6.48179 0.741878V1.19769H6.53634C7.1727 1.2163 7.7727 1.35583 8.32725 1.6163C8.88179 1.87676 9.36361 2.23025 9.7727 2.66746C10.1818 3.10467 10.5091 3.60699 10.7363 4.19304C10.9727 4.76979 11.0909 5.38374 11.0909 6.0349C11.0909 6.69537 10.9636 7.31862 10.7182 7.90467C10.4727 8.50002 10.1363 9.01165 9.70907 9.45816C9.28179 9.90467 8.7727 10.2582 8.19998 10.5093C7.62725 10.7791 7.01816 10.9093 6.35452 10.9093C5.69998 10.9093 5.09089 10.7884 4.53634 10.5465C3.96361 10.3047 3.4727 9.96979 3.05452 9.55118C2.63634 9.13258 2.29998 8.63025 2.04543 8.06281C1.79088 7.49537 1.65452 6.88141 1.63634 6.22095V6.16513H1.21816C1.19088 6.16513 1.16361 6.15583 1.13634 6.12792C1.10907 6.10932 1.09998 6.07211 1.09998 6.0349C1.09998 5.55118 1.16361 5.08606 1.28179 4.63025C1.39998 4.18374 1.5727 3.75583 1.79088 3.35583L1.7727 3.40234ZM3.6727 1.44886H3.61816C3.25452 1.6256 2.92725 1.84886 2.63634 2.11862C2.34543 2.38839 2.10907 2.68606 1.91816 3.02095L1.90907 3.04886L1.8727 3.09537L2.45452 3.69072L4.24543 2.0163L3.6727 1.44886ZM1.85452 6.22095C1.88179 6.85351 2.00907 7.43955 2.25452 7.97909C2.49998 8.51862 2.81816 8.99304 3.22725 9.39304C3.63634 9.79304 4.10907 10.1093 4.64543 10.3419C5.1727 10.5744 5.74543 10.6861 6.35452 10.6861H6.40907C7.02725 10.6861 7.59998 10.5651 8.14543 10.314C8.69089 10.0628 9.15452 9.73723 9.55452 9.31862C9.96361 8.90002 10.2909 8.4163 10.5182 7.85816C10.7454 7.30002 10.8727 6.70467 10.8727 6.07211V6.06281V6.0442C10.8727 5.43025 10.7545 4.8442 10.5272 4.28606C10.3091 3.73723 9.99998 3.26281 9.60907 2.8442C9.21816 2.4256 8.75452 2.10002 8.22725 1.84886C7.69998 1.58839 7.13634 1.44886 6.52725 1.43025H6.4727V1.86746C6.4727 1.88606 6.4727 1.89537 6.46361 1.91397L6.43634 1.96048L2.33634 6.14653C2.32725 6.15583 2.31816 6.16513 2.30907 6.16513C2.29998 6.17444 2.29088 6.17444 2.28179 6.17444H2.2727H1.85452V6.22095ZM1.32725 5.92327H2.22725L6.23634 1.78374V0.872111H6.16361C5.78179 0.890716 5.41816 0.946529 5.06361 1.03955C4.70907 1.13258 4.3727 1.26281 4.05452 1.43025L4.08179 1.42095L3.99998 1.45816L4.46361 1.95118C4.4727 1.96048 4.48179 1.96979 4.49089 1.97909C4.49998 1.98839 4.49998 2.00699 4.49998 2.0163V2.0256V2.0349C4.49998 2.05351 4.49998 2.06281 4.49089 2.08141C4.49089 2.10002 4.48179 2.10932 4.46361 2.11862L2.52725 3.94188C2.51816 3.95118 2.50907 3.95118 2.49088 3.96048C2.4727 3.96048 2.46361 3.96979 2.44543 3.96979C2.42725 3.96979 2.41816 3.96979 2.40907 3.96048C2.39998 3.96048 2.39088 3.95118 2.38179 3.94188L1.96361 3.50467L1.90907 3.58839C1.74543 3.90467 1.60907 4.24885 1.50907 4.62095C1.40907 4.99304 1.34543 5.37444 1.33634 5.77444V5.78374V5.92327H1.32725ZM6.35452 6.8163H6.38179C6.45452 6.8163 6.51816 6.8256 6.5727 6.85351C6.63634 6.88141 6.69089 6.91862 6.73634 6.96513C6.78179 7.00234 6.81816 7.04886 6.84543 7.11397C6.8727 7.17909 6.88179 7.2349 6.88179 7.30002V7.30932V7.31862V7.32793V7.33723C6.88179 7.47676 6.83634 7.58839 6.73634 7.68141C6.64543 7.77444 6.52725 7.83025 6.39089 7.83955H6.38179H6.3727C6.22725 7.83955 6.10907 7.79304 6.00907 7.69072C5.90907 7.58839 5.86361 7.47676 5.86361 7.33723L5.85452 7.32793L5.84543 7.31862C5.84543 7.16979 5.89088 7.05816 5.99089 6.95583C6.09998 6.86281 6.21816 6.8163 6.35452 6.8163ZM6.1727 7.50467C6.19998 7.52327 6.22725 7.54188 6.25452 7.56048C6.29089 7.57909 6.31816 7.57909 6.35452 7.57909C6.41816 7.56048 6.46361 7.53258 6.50907 7.48606C6.55452 7.43955 6.5727 7.38374 6.5727 7.31862C6.5727 7.25351 6.55452 7.20699 6.51816 7.16048C6.48179 7.11397 6.43634 7.08606 6.38179 7.06746H6.35452C6.32725 7.06746 6.29998 7.07676 6.2727 7.08606C6.24543 7.09537 6.21816 7.11397 6.19998 7.14188V7.13258C6.1727 7.16048 6.15452 7.19769 6.14543 7.2256C6.12725 7.25351 6.11816 7.29072 6.10907 7.32793V7.33723V7.34653C6.10907 7.37444 6.11816 7.41165 6.13634 7.43955C6.13634 7.44885 6.15452 7.47676 6.1727 7.50467ZM5.01816 5.96048C5.04543 5.95118 5.06361 5.95118 5.09088 5.94188C5.11816 5.94188 5.14543 5.93258 5.1727 5.93258C5.28179 5.93258 5.3727 5.96048 5.45452 6.0256C5.53634 6.09072 5.59089 6.17444 5.62725 6.26746H5.63634C5.64543 6.28606 5.64543 6.31397 5.65452 6.34188C5.65452 6.36979 5.66361 6.39769 5.66361 6.4256C5.66361 6.53723 5.62725 6.63955 5.56361 6.72327C5.49998 6.80699 5.41816 6.87211 5.31816 6.90932C5.29088 6.91862 5.2727 6.91862 5.24543 6.92793C5.21816 6.92793 5.19089 6.93723 5.1727 6.93723C5.13634 6.93723 5.09998 6.92793 5.05452 6.91862C5.01816 6.90932 4.98179 6.89072 4.93634 6.88141H4.94543C4.88179 6.85351 4.83634 6.80699 4.79998 6.76048C4.76361 6.71397 4.72725 6.65816 4.70907 6.59304C4.69998 6.57444 4.69088 6.54653 4.68179 6.50932C4.6727 6.48141 4.6727 6.4442 4.6727 6.40699C4.6727 6.30467 4.69998 6.20234 4.76361 6.11862C4.84543 6.06281 4.91816 5.99769 5.01816 5.96048ZM4.93634 6.52793C4.94543 6.55583 4.95452 6.58374 4.9727 6.61165C4.99088 6.63025 5.01816 6.64886 5.04543 6.65816V6.66746C5.06361 6.67676 5.08179 6.68606 5.09998 6.68606C5.11816 6.69537 5.13634 6.69537 5.15452 6.69537C5.16361 6.69537 5.16361 6.69537 5.16361 6.68606C5.16361 6.67676 5.16361 6.67676 5.1727 6.67676H5.25452C5.30907 6.65816 5.34543 6.63025 5.38179 6.58374C5.40907 6.53723 5.42725 6.48141 5.42725 6.4163V6.38839C5.42725 6.38839 5.42725 6.37909 5.41816 6.35118C5.39998 6.29537 5.3727 6.25816 5.32725 6.23025C5.28179 6.20234 5.23634 6.18374 5.18179 6.18374H5.14543C5.14543 6.18374 5.13634 6.18374 5.11816 6.19304C5.06361 6.21165 5.01816 6.23955 4.99089 6.28606C4.95452 6.33258 4.93634 6.38839 4.93634 6.4442C4.93634 6.46281 4.93634 6.47211 4.94543 6.48141C4.93634 6.50002 4.93634 6.51862 4.93634 6.52793ZM5.91816 5.43025C5.88179 5.45816 5.83634 5.48606 5.79088 5.50467C5.74543 5.52327 5.69089 5.53258 5.63634 5.53258C5.55452 5.53258 5.4727 5.51397 5.40907 5.47676C5.33634 5.43955 5.28179 5.39304 5.23634 5.33723H5.22725C5.19998 5.29072 5.1727 5.2442 5.15452 5.19769C5.13634 5.15118 5.12725 5.09537 5.12725 5.03955C5.12725 4.95583 5.14543 4.88141 5.18179 4.80699C5.21816 4.73258 5.2727 4.67676 5.32725 4.63025C5.36361 4.60234 5.40907 4.57444 5.45452 4.56513C5.49998 4.55583 5.55452 4.54653 5.60907 4.54653C5.69088 4.54653 5.76361 4.56513 5.82725 4.60234C5.89088 4.63955 5.94543 4.68606 5.99089 4.74188H5.99998C6.02725 4.77909 6.05452 4.8256 6.0727 4.88141C6.09089 4.93723 6.09998 4.98374 6.09998 5.03955C6.09998 5.12327 6.08179 5.19769 6.04543 5.26281C6.02725 5.32792 5.98179 5.38374 5.91816 5.43025ZM5.83634 4.88141C5.80907 4.85351 5.79088 4.8256 5.76361 4.80699C5.73634 4.78839 5.70907 4.77909 5.68179 4.76979H5.6727C5.63634 4.76979 5.59998 4.76979 5.5727 4.77909C5.54543 4.78839 5.51816 4.79769 5.49089 4.8163H5.48179C5.45452 4.8442 5.42725 4.88141 5.40907 4.90932C5.39088 4.94653 5.38179 4.98374 5.38179 5.03025C5.38179 5.05816 5.39088 5.08606 5.39998 5.11397C5.40907 5.13258 5.42725 5.16048 5.43634 5.17909H5.42725C5.45452 5.20699 5.48179 5.2349 5.50907 5.25351C5.54543 5.27211 5.58179 5.28141 5.61816 5.28141H5.62725H5.63634L5.78179 5.2349C5.80907 5.20699 5.83634 5.16979 5.85452 5.14188C5.8727 5.10467 5.88179 5.06746 5.88179 5.02095C5.88179 5.00234 5.88179 4.97444 5.8727 4.95583C5.86361 4.92792 5.85452 4.90002 5.83634 4.88141ZM6.80907 5.44885H6.78179C6.71816 5.40234 6.6727 5.34653 6.63634 5.27211C6.59998 5.19769 6.58179 5.12327 6.58179 5.04886C6.58179 4.98374 6.59088 4.93723 6.60907 4.88141C6.62725 4.8349 6.65452 4.78839 6.68179 4.74188C6.70907 4.68606 6.75452 4.64885 6.80907 4.61165C6.86361 4.57444 6.91816 4.55583 6.98179 4.54653H7.09089C7.13634 4.54653 7.18179 4.55583 7.22725 4.56513C7.2727 4.58374 7.31816 4.60234 7.35452 4.62095H7.38179C7.44543 4.66746 7.49089 4.72327 7.52725 4.78839C7.56361 4.85351 7.58179 4.93723 7.58179 5.01165C7.58179 5.07676 7.5727 5.12327 7.55452 5.17909C7.53634 5.2256 7.50907 5.27211 7.4727 5.31862C7.43634 5.38374 7.38179 5.43025 7.30907 5.46746C7.23634 5.50467 7.16361 5.52327 7.08179 5.52327C7.02725 5.52327 6.98179 5.51397 6.93634 5.49537C6.89089 5.49537 6.84543 5.46746 6.80907 5.44885ZM7.24543 4.80699C7.21816 4.78839 7.18179 4.77909 7.14543 4.76979C7.10907 4.76048 7.0727 4.76048 7.03634 4.76048C7.00907 4.76978 6.98179 4.77909 6.95452 4.79769C6.92725 4.8163 6.90907 4.8349 6.88179 4.85351V4.87211C6.86361 4.89072 6.85452 4.90932 6.84543 4.93723C6.83634 4.96513 6.82725 5.00234 6.82725 5.03025C6.82725 5.06746 6.83634 5.10467 6.85452 5.14188C6.8727 5.17909 6.89998 5.20699 6.93634 5.2349C6.95452 5.25351 6.9727 5.26281 6.99089 5.27211C7.01816 5.28141 7.03634 5.28141 7.06361 5.28141H7.0727H7.09089C7.12725 5.28141 7.16361 5.27211 7.19089 5.25351C7.21816 5.2349 7.24543 5.20699 7.2727 5.17909C7.29088 5.16048 7.29998 5.13258 7.30907 5.10467C7.31816 5.07676 7.32725 5.04885 7.32725 5.02095C7.32725 4.98374 7.31816 4.94653 7.29998 4.90932C7.29089 4.86281 7.2727 4.8349 7.24543 4.80699ZM7.0727 6.27676C7.09998 6.21165 7.12725 6.16513 7.16361 6.10932C7.19998 6.06281 7.25452 6.0163 7.30907 5.98839C7.33634 5.96979 7.3727 5.96048 7.40907 5.95118C7.44543 5.94188 7.49089 5.94188 7.53634 5.94188H7.6727C7.78179 5.96979 7.86361 6.0349 7.92725 6.12792C7.99088 6.22095 8.02725 6.32327 8.02725 6.4349C8.02725 6.45351 8.02725 6.48141 8.01816 6.50002C8.01816 6.51862 8.00907 6.54653 7.99998 6.58374V6.57444C7.9727 6.63955 7.94543 6.70467 7.89998 6.76048C7.85452 6.8163 7.80907 6.86281 7.75452 6.90002H7.74543C7.71816 6.91862 7.68179 6.92792 7.64543 6.93723C7.60907 6.94653 7.56361 6.94653 7.51816 6.94653H7.45452C7.45452 6.94653 7.42725 6.94653 7.38179 6.93723C7.28179 6.90932 7.19998 6.8442 7.13634 6.76048C7.0727 6.67676 7.03634 6.57444 7.03634 6.46281C7.03634 6.4349 7.03634 6.39769 7.04543 6.36978C7.05452 6.33258 7.06361 6.30467 7.0727 6.27676ZM7.45452 6.67676H7.53634C7.59089 6.67676 7.63634 6.65816 7.68179 6.63025C7.72725 6.60234 7.75452 6.56513 7.78179 6.51862V6.50932C7.78179 6.50002 7.78179 6.49072 7.79088 6.48141C7.79088 6.47211 7.79998 6.45351 7.79998 6.4442C7.79998 6.37909 7.78179 6.33258 7.74543 6.28606C7.70907 6.23955 7.66361 6.20234 7.61816 6.18374C7.60907 6.18374 7.59998 6.18374 7.59089 6.17444C7.58179 6.17444 7.56361 6.16513 7.55452 6.16513C7.49998 6.16513 7.45452 6.18374 7.40907 6.22095C7.36361 6.25816 7.32725 6.29537 7.30907 6.35118C7.30907 6.36979 7.30907 6.37909 7.29998 6.39769C7.29998 6.4163 7.29088 6.4256 7.29088 6.4442C7.29088 6.50002 7.30907 6.54653 7.34543 6.59304C7.36361 6.63025 7.39998 6.66746 7.45452 6.67676Z" fill="black"/>
</mask>
<g mask="url(#mask0)">
<path d="M6.35455 11.0116C5.69091 11.0116 5.06364 10.8907 4.5 10.6395C3.92727 10.3977 3.40909 10.0535 2.98182 9.62558C2.55455 9.19768 2.20909 8.68605 1.95455 8.10931C1.7 7.54186 1.56364 6.91861 1.53636 6.25814H1.20909C1.15455 6.25814 1.10909 6.23954 1.06364 6.19303C1.02727 6.15582 1 6.1 1 6.03489C1 5.54186 1.06364 5.05814 1.18182 4.61163C1.3 4.18372 1.46364 3.76512 1.67273 3.37442L1.56364 3.2721L1.52727 3.19768L1.50909 3.13256C1.50909 3.11396 1.50909 3.09535 1.51818 3.07675C1.52727 3.05814 1.53636 3.03954 1.54545 3.02093L1.57273 2.96512C1.80909 2.55582 2.1 2.19303 2.43636 1.88605C2.77273 1.56977 3.16364 1.31861 3.57273 1.13256H3.58182C3.60909 1.11396 3.63636 1.10465 3.65455 1.10465H3.7L3.73636 1.11396C3.8 1.12326 3.82727 1.15117 3.84545 1.16977L3.87273 1.19768C4.22727 1.00233 4.60909 0.853491 5.01818 0.741863C5.44545 0.630235 5.88182 0.565119 6.33636 0.555817H6.36364C6.40909 0.555817 6.45455 0.574421 6.49091 0.602328C6.52727 0.630235 6.55454 0.676747 6.56364 0.723258V0.741863V1.10465C7.2 1.12326 7.8 1.2721 8.35455 1.53256C8.91818 1.80233 9.40909 2.16512 9.82727 2.60233C10.2455 3.04884 10.5727 3.56977 10.8182 4.15582C11.0545 4.74186 11.1818 5.37442 11.1818 6.03489C11.1818 6.70465 11.0545 7.34651 10.8 7.94186C10.5545 8.53721 10.2091 9.07675 9.77273 9.52326C9.33636 9.96977 8.81818 10.3326 8.23636 10.593C7.65454 10.8721 7.02727 11.0116 6.35455 11.0116ZM1.85455 3.43024C1.64545 3.82093 1.47273 4.23954 1.36364 4.66744C1.24545 5.10465 1.18182 5.56977 1.18182 6.04419C1.18182 6.06279 1.19091 6.06279 1.19091 6.0721C1.2 6.0814 1.2 6.0814 1.20909 6.0814H1.71818V6.23024C1.73636 6.8721 1.87273 7.48605 2.11818 8.03489C2.36364 8.59303 2.7 9.08605 3.10909 9.49535C3.51818 9.90465 4.00909 10.2395 4.56364 10.4721C5.10909 10.714 5.70909 10.8256 6.35455 10.8256C7 10.8256 7.60909 10.6954 8.16364 10.4349C8.72727 10.1837 9.22727 9.83024 9.64545 9.40233C10.0636 8.96512 10.4 8.45349 10.6364 7.87675C10.8818 7.30931 11.0091 6.68605 11.0091 6.04419C11.0091 5.40233 10.8909 4.79768 10.6636 4.23024C10.4364 3.66279 10.1182 3.16047 9.71818 2.74186C9.31818 2.31396 8.83636 1.96977 8.3 1.7093C7.76364 1.44884 7.17273 1.30931 6.54545 1.3H6.4V0.760468C6.4 0.751166 6.39091 0.751166 6.39091 0.741863C6.36364 0.732561 6.36364 0.732561 6.36364 0.732561H6.35455C5.91818 0.741863 5.49091 0.797677 5.08182 0.909305C4.67273 1.02093 4.29091 1.17907 3.93636 1.36512L3.91818 1.37442H3.80909L3.72727 1.2721H3.69091L3.66364 1.2814C3.26364 1.45814 2.89091 1.7 2.57273 1.99768C2.24545 2.29535 1.97273 2.64884 1.74545 3.03024L1.7 3.11396V3.12326L1.70909 3.14186L1.86364 3.2814V3.37442H1.87273L1.85455 3.43024ZM6.40909 10.7698H6.35455C5.73636 10.7698 5.15455 10.6488 4.60909 10.4163C4.06364 10.1837 3.57273 9.85814 3.16364 9.44884C2.75455 9.03954 2.41818 8.55582 2.17273 8.00698C1.92727 7.45814 1.79091 6.85349 1.76364 6.22093V6.0721H2.27273L2.28182 6.06279L6.37273 1.89535L6.39091 1.86744V1.33721H6.53636C7.15455 1.35582 7.73636 1.50465 8.27273 1.76512C8.80909 2.01628 9.28182 2.36047 9.68182 2.77907C10.0818 3.19768 10.3909 3.6907 10.6182 4.24884C10.8455 4.80698 10.9636 5.41163 10.9636 6.03489V6.05349C10.9636 6.69535 10.8455 7.30931 10.6 7.87675C10.3636 8.44419 10.0273 8.94651 9.60909 9.37442C9.20909 9.79303 8.72727 10.1372 8.17273 10.3884C7.62727 10.6488 7.03636 10.7698 6.40909 10.7698ZM1.94545 6.25814C1.97273 6.86279 2.1 7.42093 2.33636 7.94186C2.57273 8.4721 2.89091 8.93721 3.29091 9.32791C3.69091 9.71861 4.15455 10.0349 4.68182 10.2581C5.2 10.4814 5.76364 10.593 6.35455 10.593H6.40909C7.00909 10.593 7.58182 10.4721 8.10909 10.2302C8.63636 9.98837 9.1 9.66279 9.49091 9.25349C9.89091 8.84419 10.2091 8.36047 10.4455 7.82093C10.6727 7.2814 10.7909 6.68605 10.7909 6.0721V6.05349C10.7909 5.45814 10.6818 4.8721 10.4545 4.33256C10.2364 3.80233 9.93636 3.32791 9.55454 2.91861C9.17273 2.51861 8.71818 2.18372 8.2 1.94186C7.7 1.6907 7.15455 1.56047 6.57273 1.53256V1.86744C6.57273 1.89535 6.56364 1.92326 6.55454 1.95117L6.51818 2.01628L2.41818 6.20233C2.40909 6.21163 2.39091 6.23024 2.37273 6.23954C2.34545 6.25814 2.31818 6.26744 2.29091 6.26744H1.94545V6.25814ZM6.41818 8.74186C6.05454 8.74186 5.71818 8.67675 5.4 8.53721C5.08182 8.40698 4.8 8.22093 4.55455 7.99768C4.3 7.76512 4.1 7.47675 3.95455 7.16047C3.80909 6.83489 3.72727 6.4907 3.71818 6.11861V6.02558C3.71818 5.65349 3.78182 5.30931 3.91818 4.98372C4.05455 4.65814 4.23636 4.37907 4.48182 4.13721C4.71818 3.89535 5 3.7 5.30909 3.55117C5.62727 3.41163 5.97273 3.33721 6.33636 3.32791H6.41818C6.78182 3.32791 7.13636 3.39303 7.45455 3.53256C7.77273 3.6721 8.04545 3.86744 8.29091 4.1C8.53636 4.33256 8.72727 4.61163 8.87273 4.92791C9.01818 5.24419 9.1 5.57907 9.10909 5.94186C9.11818 5.96047 9.11818 5.98837 9.11818 6.00698V6.05349C9.11818 6.42558 9.04545 6.77907 8.90909 7.10465C8.77273 7.43024 8.57273 7.71861 8.32727 7.96977C8.08182 8.21163 7.79091 8.40698 7.46364 8.53721C7.14545 8.67675 6.8 8.74186 6.41818 8.74186ZM6.34545 3.52326C6 3.53256 5.68182 3.59768 5.39091 3.72791C5.1 3.86744 4.83636 4.05349 4.61818 4.27675C4.4 4.5 4.21818 4.76047 4.1 5.05814C3.97273 5.35582 3.90909 5.6814 3.90909 6.02558V6.11861C3.91818 6.46279 3.99091 6.77907 4.12727 7.08605C4.26364 7.38372 4.45455 7.64419 4.69091 7.86744C4.91818 8.0814 5.18182 8.24884 5.48182 8.36977C5.77273 8.4907 6.1 8.55582 6.43636 8.55582C6.79091 8.55582 7.11818 8.4907 7.41818 8.36047C7.72727 8.23954 8 8.06279 8.21818 7.83024C8.44545 7.60698 8.62727 7.33721 8.75455 7.03024C8.88182 6.72326 8.95455 6.39768 8.95455 6.05349V6.00698L8.92727 5.98837V5.96047C8.91818 5.62558 8.84545 5.30931 8.70909 5.00233C8.58182 4.71396 8.4 4.45349 8.17273 4.23024C7.94545 4.00698 7.68182 3.83024 7.39091 3.7C7.09091 3.57907 6.77273 3.51396 6.42727 3.51396H6.34545V3.52326ZM6.40909 8.4907H6.33636C6.00909 8.4814 5.69091 8.41628 5.40909 8.28605C5.11818 8.16512 4.86364 7.98837 4.65455 7.77442C4.44545 7.56047 4.27273 7.3 4.14545 7.01163C4.02727 6.71396 3.96364 6.40698 3.96364 6.0721V5.96977C3.96364 5.63489 4.03636 5.31861 4.17273 5.02093C4.30909 4.72326 4.49091 4.4721 4.72727 4.25814C4.93636 4.04419 5.19091 3.87675 5.48182 3.76512C5.77273 3.64419 6.08182 3.58838 6.40909 3.58838H6.48182C6.80909 3.59768 7.12727 3.66279 7.40909 3.79303C7.7 3.91396 7.95455 4.0907 8.16364 4.31396C8.37273 4.53721 8.54545 4.78837 8.67273 5.08605C8.79091 5.38372 8.85455 5.6907 8.85455 6.01628V6.11861C8.84545 6.46279 8.77273 6.77907 8.64545 7.06744C8.50909 7.35582 8.32727 7.61628 8.1 7.83024C7.88182 8.03489 7.62727 8.20233 7.33636 8.32326C7.03636 8.43489 6.72727 8.4907 6.40909 8.4907ZM6.47273 3.77442H6.40909C6.1 3.77442 5.81818 3.83024 5.54545 3.94186C5.28182 4.05349 5.04545 4.20233 4.85455 4.39768C4.64545 4.59303 4.47273 4.83489 4.34545 5.10465C4.21818 5.37442 4.15455 5.66279 4.15455 5.96977V6.0721C4.15455 6.37907 4.20909 6.66744 4.31818 6.93721C4.43636 7.20698 4.59091 7.43954 4.79091 7.64419C4.99091 7.83954 5.21818 8.00698 5.49091 8.11861C5.75455 8.23954 6.03636 8.29535 6.34545 8.30465H6.40909C6.70909 8.30465 6.99091 8.24884 7.25455 8.13721C7.51818 8.02558 7.76364 7.86744 7.96364 7.6814C8.17273 7.48605 8.34545 7.25349 8.46364 6.98372C8.59091 6.71396 8.65455 6.42558 8.66364 6.10931V6.00698C8.66364 5.7093 8.60909 5.42093 8.5 5.15117C8.38182 4.8814 8.22727 4.63954 8.02727 4.44419C7.82727 4.23954 7.6 4.0814 7.32727 3.96047C7.07273 3.84884 6.78182 3.78372 6.47273 3.77442ZM6.39091 7.92326C6.20909 7.92326 6.06364 7.86744 5.94545 7.74651C5.83636 7.64419 5.78182 7.51396 5.77273 7.36512L5.76364 7.31861C5.76364 7.15117 5.82727 7.00233 5.93636 6.8907C6.05455 6.77907 6.19091 6.72326 6.35455 6.72326H6.37273C6.45455 6.72326 6.52727 6.74186 6.6 6.76977C6.67273 6.79768 6.73636 6.84419 6.79091 6.9C6.84545 6.93721 6.88182 7.00233 6.91818 7.07675C6.94545 7.15117 6.96364 7.22558 6.96364 7.3V7.33721C6.96364 7.49535 6.90909 7.63489 6.79091 7.75582C6.69091 7.85814 6.55455 7.91396 6.39091 7.92326ZM5.94545 7.2814L5.95455 7.32791C5.95455 7.43954 5.99091 7.53256 6.07273 7.61628C6.15455 7.7 6.25455 7.73721 6.37273 7.73721C6.49091 7.72791 6.59091 7.6907 6.66364 7.60698C6.74545 7.53256 6.78182 7.43954 6.78182 7.32791V7.2907C6.78182 7.24419 6.77273 7.19768 6.74545 7.14186C6.72727 7.09535 6.7 7.05814 6.66364 7.03024C6.61818 6.98372 6.57273 6.95582 6.52727 6.93721C6.48182 6.91861 6.42727 6.90931 6.37273 6.90931H6.35455C6.32727 6.90931 6.30909 6.90931 6.28182 6.91861V6.98372C6.3 6.97442 6.32727 6.97442 6.35455 6.97442H6.4C6.47273 6.99303 6.52727 7.03954 6.58182 7.09535C6.63636 7.16047 6.66364 7.23489 6.66364 7.31861C6.66364 7.40233 6.63636 7.47675 6.58182 7.54186C6.52727 7.60698 6.46364 7.64419 6.38182 7.6721H6.36364C6.31818 7.6721 6.27273 7.66279 6.22727 7.64419C6.18182 7.62558 6.14545 7.59768 6.11818 7.56977L6.10909 7.55117C6.09091 7.52326 6.07273 7.49535 6.05454 7.45814C6.03636 7.41163 6.01818 7.37442 6.01818 7.32791V7.3C6.02727 7.25349 6.04545 7.20698 6.06364 7.16977C6.08182 7.13256 6.1 7.09535 6.12727 7.06744L6.23636 6.92791C6.17273 6.94651 6.11818 6.98372 6.07273 7.03024C5.99091 7.09535 5.95455 7.17907 5.94545 7.2814ZM6.23636 7.43954C6.25455 7.44884 6.26364 7.45814 6.29091 7.46744C6.30909 7.47675 6.32727 7.47675 6.34545 7.48605C6.38182 7.47675 6.41818 7.44884 6.43636 7.42093C6.46364 7.39303 6.47273 7.35582 6.47273 7.31861C6.47273 7.2814 6.46364 7.24419 6.43636 7.21628C6.40909 7.18837 6.38182 7.16977 6.35455 7.16047H6.34545C6.32727 7.16047 6.30909 7.16047 6.29091 7.16977C6.27273 7.17907 6.26364 7.18837 6.24545 7.19768L6.22727 7.21628C6.21818 7.22558 6.20909 7.24419 6.20909 7.25349C6.2 7.2721 6.19091 7.3 6.18182 7.32791C6.18182 7.34651 6.18182 7.35582 6.19091 7.37442C6.21818 7.40233 6.22727 7.42093 6.23636 7.43954ZM5.18182 7.04884C5.13636 7.04884 5.09091 7.03954 5.04545 7.03024C5.00909 7.02093 4.96364 7.00233 4.92727 6.98372V6.97442C4.85455 6.93721 4.8 6.8907 4.75455 6.83489C4.70909 6.77907 4.67273 6.71396 4.65455 6.64884C4.64545 6.62093 4.63636 6.59303 4.62727 6.55582C4.61818 6.51861 4.60909 6.4721 4.60909 6.43489C4.60909 6.30465 4.64545 6.19303 4.71818 6.0907C4.79091 5.98837 4.88182 5.92326 5 5.87675C5.02727 5.86744 5.05455 5.85814 5.09091 5.85814C5.11818 5.85814 5.15455 5.84884 5.19091 5.84884C5.31818 5.84884 5.42727 5.88605 5.52727 5.96047C5.60909 6.02558 5.66364 6.1 5.70909 6.18372H5.72727L5.74545 6.24884C5.75455 6.27675 5.76364 6.30465 5.76364 6.34186C5.76364 6.36977 5.77273 6.40698 5.77273 6.44419C5.77273 6.57442 5.73636 6.69535 5.65455 6.79768C5.58182 6.9 5.48182 6.97442 5.37273 7.02093C5.34545 7.03024 5.30909 7.03954 5.28182 7.03954C5.23636 7.03954 5.20909 7.04884 5.18182 7.04884ZM5 6.81628C5.02727 6.82558 5.06364 6.83489 5.09091 6.84419C5.13636 6.86279 5.18182 6.86279 5.24545 6.85349C5.26364 6.85349 5.28182 6.84419 5.3 6.84419C5.38182 6.81628 5.44545 6.76047 5.5 6.68605C5.55455 6.61163 5.58182 6.53721 5.58182 6.44419C5.58182 6.41628 5.58182 6.39768 5.58182 6.37907H5.57273L5.54545 6.30465C5.51818 6.22093 5.47273 6.15582 5.40909 6.10931C5.34545 6.05349 5.26364 6.03489 5.18182 6.03489C5.15455 6.03489 5.12727 6.03489 5.10909 6.04419C5.09091 6.04419 5.07273 6.05349 5.05454 6.05349C4.97273 6.0814 4.90909 6.13721 4.85455 6.20233C4.80909 6.26745 4.78182 6.34186 4.78182 6.43489C4.78182 6.46279 4.78182 6.4907 4.79091 6.51861C4.8 6.54651 4.80909 6.57442 4.80909 6.59303C4.82727 6.63954 4.85455 6.68605 4.88182 6.73256C4.91818 6.76047 4.95455 6.78837 5 6.81628ZM7.52727 7.03954H7.44545L7.36364 7.02093C7.24545 6.98372 7.14545 6.91861 7.07273 6.80698C7 6.70465 6.95455 6.58372 6.95455 6.45349C6.95455 6.41628 6.95455 6.38838 6.96364 6.35117C6.96364 6.31396 6.97273 6.28605 6.98182 6.24884C7.00909 6.18372 7.04545 6.11861 7.08182 6.06279C7.12727 6.00698 7.19091 5.95117 7.26364 5.91396C7.3 5.89535 7.34545 5.87675 7.39091 5.86744C7.43636 5.85814 7.48182 5.85814 7.53636 5.85814H7.7C7.82727 5.89535 7.92727 5.96977 8.00909 6.0721C8.08182 6.18372 8.12727 6.30465 8.12727 6.43489C8.12727 6.46279 8.12727 6.4907 8.11818 6.51861C8.11818 6.54651 8.10909 6.57442 8.1 6.60233C8.07273 6.67675 8.03636 6.75117 7.99091 6.80698C7.94545 6.86279 7.89091 6.91861 7.82727 6.96512L7.8 6.98372H7.78182C7.74545 7.00233 7.71818 7.01163 7.67273 7.01163C7.62727 7.03024 7.57273 7.03954 7.52727 7.03954ZM7.46364 6.85349H7.52727C7.56364 6.85349 7.6 6.85349 7.63636 6.84419C7.66364 6.83489 7.69091 6.82558 7.71818 6.81628L7.73636 6.80698C7.77273 6.77907 7.80909 6.74186 7.83636 6.70465C7.87273 6.65814 7.9 6.61163 7.91818 6.54651C7.92727 6.52791 7.92727 6.50931 7.92727 6.4907C7.92727 6.4721 7.92727 6.45349 7.92727 6.43489C7.92727 6.34186 7.9 6.25814 7.84545 6.18372C7.79091 6.1093 7.72727 6.06279 7.64545 6.04419H7.51818C7.48182 6.04419 7.44545 6.04419 7.40909 6.05349C7.38182 6.06279 7.35455 6.0721 7.32727 6.0814C7.28182 6.10931 7.23636 6.13721 7.20909 6.17442C7.18182 6.21163 7.15455 6.25814 7.13636 6.31396C7.12727 6.33256 7.12727 6.35117 7.12727 6.36977C7.12727 6.39768 7.11818 6.42558 7.11818 6.45349C7.11818 6.54651 7.14545 6.63024 7.2 6.69535C7.25454 6.76977 7.31818 6.81628 7.39091 6.83489L7.46364 6.85349ZM5.15455 6.79768C5.12727 6.79768 5.1 6.78837 5.07273 6.77907C5.05455 6.76977 5.02727 6.76047 5.01818 6.75117L4.96364 6.72326V6.71396C4.94545 6.70465 4.92727 6.68605 4.90909 6.66745C4.88182 6.63024 4.86364 6.59303 4.85455 6.54651V6.52791C4.85455 6.51861 4.85455 6.51861 4.85455 6.51861C4.84545 6.5 4.84545 6.4721 4.84545 6.45349C4.84545 6.36977 4.87273 6.29535 4.91818 6.23954C4.96364 6.18372 5.01818 6.13721 5.09091 6.11861L5.12727 6.1H5.18182C5.25455 6.1 5.31818 6.11861 5.38182 6.16512C5.44545 6.21163 5.49091 6.26745 5.50909 6.34186L5.52727 6.40698V6.43489C5.52727 6.50931 5.50909 6.58372 5.46364 6.64884C5.41818 6.71396 5.36364 6.76047 5.28182 6.78837H5.25455H5.2C5.19091 6.78837 5.17273 6.79768 5.15455 6.79768ZM5.02727 6.51861C5.02727 6.52791 5.03636 6.54651 5.04545 6.55582C5.04545 6.56512 5.05455 6.56512 5.07273 6.57442L5.14545 6.59303V6.61163C5.15455 6.61163 5.16364 6.60233 5.18182 6.60233H5.24545C5.27273 6.59303 5.29091 6.57442 5.30909 6.54651C5.32727 6.50931 5.33636 6.4721 5.33636 6.43489V6.41628L5.32727 6.38838C5.31818 6.36047 5.3 6.33256 5.27273 6.31396C5.24545 6.29535 5.20909 6.28605 5.17273 6.28605H5.14545L5.12727 6.29535C5.09091 6.30465 5.06364 6.32326 5.04545 6.35117C5.02727 6.37907 5.00909 6.41628 5.00909 6.45349C5.00909 6.46279 5.00909 6.46279 5.00909 6.46279C5.02727 6.4814 5.02727 6.5 5.02727 6.51861ZM7.53636 6.76977H7.43636C7.36364 6.75117 7.3 6.70465 7.25455 6.64884C7.20909 6.58372 7.18182 6.51861 7.18182 6.44419C7.18182 6.42558 7.18182 6.39768 7.19091 6.37907C7.19091 6.36977 7.19091 6.36047 7.19091 6.36047V6.34186L7.2 6.32326C7.22727 6.25814 7.27273 6.20233 7.33636 6.15582C7.4 6.10931 7.46364 6.0907 7.53636 6.0907C7.56364 6.0907 7.58182 6.0907 7.6 6.1H7.61818L7.63636 6.10931C7.7 6.13721 7.76364 6.18372 7.8 6.23954C7.84545 6.30465 7.87273 6.36977 7.87273 6.45349C7.87273 6.4814 7.87273 6.5 7.86364 6.52791V6.55582L7.85455 6.57442C7.82727 6.63024 7.78182 6.68605 7.72727 6.72326C7.67273 6.75117 7.60909 6.76977 7.53636 6.76977ZM7.47273 6.58372H7.53636C7.57273 6.58372 7.6 6.57442 7.62727 6.55582C7.65455 6.53721 7.67273 6.51861 7.69091 6.4907C7.69091 6.4814 7.69091 6.46279 7.7 6.44419C7.7 6.44419 7.7 6.44419 7.7 6.43489C7.7 6.39768 7.69091 6.36047 7.66364 6.33256C7.64545 6.30465 7.61818 6.27675 7.58182 6.26744C7.57273 6.26744 7.56364 6.26744 7.54545 6.25814C7.54545 6.25814 7.54545 6.25814 7.53636 6.25814C7.5 6.25814 7.47273 6.26745 7.44545 6.29535C7.41818 6.31396 7.39091 6.34186 7.38182 6.36977C7.38182 6.38837 7.38182 6.39768 7.37273 6.41628C7.37273 6.42558 7.37273 6.43489 7.37273 6.43489C7.37273 6.46279 7.38182 6.5 7.40909 6.52791C7.41818 6.55582 7.44545 6.57442 7.47273 6.58372ZM2.26364 6.01628H1.23636V5.77442C1.25455 5.37442 1.30909 4.97442 1.41818 4.60233C1.51818 4.22093 1.66364 3.86744 1.82727 3.55117L1.93636 3.36512L2.43636 3.87675C2.44545 3.87675 2.45455 3.87675 2.47273 3.87675L4.41818 2.04419V2.03489V2.02558L4.40909 2.01628L3.84545 1.43024L4.03636 1.34651C4.35455 1.17907 4.69091 1.04884 5.04545 0.955817C5.4 0.862793 5.78182 0.806979 6.16364 0.788375H6.32727V1.83024L2.26364 6.01628ZM1.41818 5.83024H2.19091L6.14545 1.74651V0.965119C5.78182 0.983724 5.42727 1.03954 5.09091 1.12326C4.76364 1.20698 4.45455 1.32791 4.15455 1.47675L4.52727 1.86744C4.53636 1.87675 4.54545 1.89535 4.56364 1.90465C4.58182 1.93256 4.59091 1.96047 4.59091 1.99768V2.00698C4.59091 2.02558 4.59091 2.05349 4.58182 2.0721C4.57273 2.1093 4.55455 2.13721 4.51818 2.15582L2.59091 4.01628C2.57273 4.03489 2.54545 4.04419 2.51818 4.05349C2.47273 4.06279 2.41818 4.06279 2.38182 4.05349C2.35455 4.04419 2.33636 4.03489 2.31818 4.01628L1.97273 3.66279C1.81818 3.96047 1.69091 4.29535 1.59091 4.64884C1.49091 5.01163 1.43636 5.39303 1.41818 5.77442V5.83024ZM7.08182 5.63489C7.01818 5.63489 6.95455 5.62558 6.9 5.59768C6.86364 5.57907 6.81818 5.56047 6.78182 5.54186H6.75455L6.73636 5.52326C6.66364 5.46744 6.60909 5.40233 6.56364 5.30931C6.52727 5.22558 6.5 5.13256 6.5 5.04884C6.5 4.97442 6.50909 4.90931 6.53636 4.85349C6.55455 4.79768 6.58182 4.74186 6.61818 4.69535C6.65455 4.63024 6.70909 4.58372 6.77273 4.53721C6.83636 4.5 6.90909 4.4721 6.98182 4.46279H6.99091H7.09091C7.14545 4.46279 7.2 4.4721 7.25455 4.4907C7.3 4.50931 7.33636 4.51861 7.37273 4.54651H7.4L7.42727 4.56512C7.5 4.62093 7.55454 4.68605 7.6 4.76977C7.63636 4.85349 7.66364 4.94651 7.66364 5.03954C7.66364 5.11396 7.65455 5.16977 7.63636 5.23489C7.61818 5.2907 7.59091 5.35582 7.54545 5.40233C7.5 5.47675 7.43636 5.53256 7.35455 5.57907C7.27273 5.60698 7.18182 5.63489 7.08182 5.63489ZM6.81818 5.35582H6.83636L6.85455 5.36512C6.89091 5.38372 6.92727 5.40233 6.96364 5.42093C7 5.43954 7.03636 5.43954 7.08182 5.43954C7.15455 5.43954 7.20909 5.42093 7.26364 5.39303C7.31818 5.36512 7.36364 5.32791 7.39091 5.2721L7.4 5.26279C7.42727 5.22558 7.45455 5.18837 7.46364 5.15117C7.47273 5.11396 7.48182 5.06744 7.48182 5.01163C7.48182 4.94651 7.46364 4.8814 7.43636 4.82558C7.40909 4.77907 7.38182 4.74186 7.34545 4.70465H7.32727L7.30909 4.69535C7.27273 4.67675 7.23636 4.65814 7.2 4.64884C7.16364 4.63954 7.12727 4.63024 7.09091 4.63024H7C6.95455 4.63954 6.90909 4.64884 6.87273 4.67675C6.82727 4.70465 6.8 4.73256 6.78182 4.77907C6.75455 4.82558 6.72727 4.86279 6.71818 4.90931C6.7 4.94651 6.7 4.99303 6.7 5.03954C6.7 5.10465 6.71818 5.16047 6.74545 5.22558C6.74545 5.2814 6.78182 5.31861 6.81818 5.35582ZM5.63636 5.62558C5.53636 5.62558 5.44545 5.60698 5.36364 5.56047C5.3 5.52326 5.24545 5.48605 5.2 5.43954H5.18182L5.15455 5.40233C5.11818 5.34651 5.09091 5.2907 5.07273 5.23489C5.05455 5.17907 5.04545 5.11396 5.04545 5.04884C5.04545 4.94651 5.07273 4.85349 5.10909 4.76977C5.15455 4.68605 5.20909 4.61163 5.28182 4.56512C5.32727 4.52791 5.38182 4.5 5.43636 4.4814C5.58182 4.43489 5.75455 4.45349 5.88182 4.51861C5.94545 4.55582 6 4.59303 6.04545 4.64884H6.05454L6.08182 4.68605C6.11818 4.73256 6.14545 4.78837 6.17273 4.85349C6.19091 4.91861 6.20909 4.98372 6.20909 5.04884C6.20909 5.15117 6.18182 5.24419 6.13636 5.31861C6.09091 5.40233 6.03636 5.46744 5.96364 5.51396C5.91818 5.55117 5.86364 5.57907 5.80909 5.59768C5.76364 5.60698 5.7 5.62558 5.63636 5.62558ZM5.27273 5.24419L5.3 5.2721C5.33636 5.31861 5.39091 5.35582 5.44545 5.39303C5.5 5.42093 5.56364 5.43954 5.62727 5.43954C5.67273 5.43954 5.70909 5.43024 5.74545 5.42093C5.78182 5.40233 5.81818 5.38372 5.85455 5.36512C5.90909 5.32791 5.94545 5.2814 5.98182 5.22558C6.00909 5.16977 6.02727 5.11396 6.02727 5.03954C6.02727 4.99303 6.01818 4.95582 6 4.90931C5.99091 4.8814 5.98182 4.85349 5.96364 4.83489H5.95455L5.92727 4.79768C5.89091 4.75117 5.84545 4.71396 5.79091 4.67675C5.70909 4.63024 5.59091 4.62093 5.48182 4.65814C5.44545 4.66744 5.40909 4.68605 5.38182 4.71396C5.32727 4.75117 5.29091 4.79768 5.25455 4.86279C5.22727 4.91861 5.20909 4.98372 5.20909 5.04884C5.20909 5.09535 5.21818 5.13256 5.22727 5.17907C5.25455 5.18837 5.26364 5.21628 5.27273 5.24419ZM7.09091 5.37442H7.06364C7.02727 5.37442 7 5.36512 6.96364 5.35582C6.92727 5.34651 6.9 5.32791 6.88182 5.30931C6.83636 5.2814 6.8 5.23489 6.77273 5.18837C6.74545 5.14186 6.73636 5.08605 6.73636 5.03024C6.73636 4.99303 6.74545 4.94651 6.76364 4.90931C6.77273 4.8814 6.78182 4.86279 6.8 4.84419V4.82558L6.82727 4.79768C6.85455 4.76977 6.88182 4.75117 6.90909 4.73256C6.93636 4.71396 6.97273 4.69535 7.01818 4.68605H7.03636C7.08182 4.68605 7.12727 4.68605 7.16364 4.69535C7.20909 4.70465 7.24545 4.71396 7.28182 4.73256L7.3 4.74186C7.34545 4.77907 7.37273 4.81628 7.4 4.8721C7.41818 4.91861 7.42727 4.97442 7.42727 5.02093C7.42727 5.06744 7.41818 5.10465 7.4 5.14186C7.39091 5.16977 7.37273 5.20698 7.35455 5.23489C7.31818 5.2814 7.29091 5.30931 7.24545 5.33721C7.2 5.35582 7.14545 5.37442 7.09091 5.37442ZM6.98182 4.9L6.95455 4.93721C6.95455 4.93721 6.94545 4.94651 6.93636 4.97442C6.92727 4.99303 6.92727 5.01163 6.92727 5.03024C6.92727 5.04884 6.93636 5.07675 6.94545 5.10465C6.95455 5.12326 6.97273 5.14186 7 5.16047L7.01818 5.16977C7.02727 5.17907 7.02727 5.17907 7.03636 5.17907C7.04545 5.17907 7.06364 5.18837 7.07273 5.18837H7.09091C7.10909 5.18837 7.12727 5.17907 7.14545 5.16977C7.16364 5.16047 7.18182 5.14186 7.2 5.11396C7.20909 5.10465 7.21818 5.07675 7.22727 5.05814C7.23636 5.03954 7.23636 5.03024 7.23636 5.01163C7.23636 4.98372 7.22727 4.95582 7.21818 4.93721C7.20909 4.91861 7.2 4.9 7.18182 4.8907C7.16364 4.8814 7.13636 4.8721 7.10909 4.8721C7.08182 4.86279 7.05455 4.86279 7.02727 4.86279C7.00909 4.8721 7 4.8721 6.98182 4.8814C7 4.8814 6.99091 4.8907 6.98182 4.9ZM5.63636 5.37442H5.60909C5.55455 5.37442 5.50909 5.36512 5.45455 5.33721C5.40909 5.30931 5.37273 5.2814 5.33636 5.23489L5.22727 5.08605H5.28182C5.28182 5.06744 5.27273 5.04884 5.27273 5.03024C5.27273 4.96512 5.28182 4.90931 5.30909 4.86279C5.33636 4.82558 5.36364 4.77907 5.4 4.74186L5.42727 4.71396H5.45455C5.48182 4.70465 5.50909 4.68605 5.53636 4.68605C5.57273 4.67675 5.60909 4.66744 5.65455 4.66744H5.69091C5.73636 4.67675 5.77273 4.69535 5.80909 4.72326C5.84545 4.75117 5.87273 4.77907 5.9 4.81628C5.91818 4.85349 5.93636 4.8814 5.94545 4.91861C5.95455 4.94651 5.95455 4.97442 5.95455 5.00233C5.95455 5.06744 5.94545 5.12326 5.91818 5.16977C5.89091 5.20698 5.86364 5.25349 5.82727 5.2907L5.81818 5.31861L5.63636 5.37442ZM5.52727 5.15117C5.53636 5.16047 5.54545 5.16047 5.54545 5.16977C5.56364 5.17907 5.58182 5.18837 5.60909 5.18837L5.72727 5.15117C5.74545 5.13256 5.76364 5.11396 5.77273 5.08605C5.78182 5.06744 5.79091 5.03954 5.79091 5.01163C5.79091 4.99303 5.79091 4.97442 5.79091 4.95582C5.79091 4.94651 5.78182 4.93721 5.78182 4.92791C5.76364 4.90931 5.74545 4.8907 5.72727 4.8721C5.70909 4.86279 5.7 4.85349 5.68182 4.85349C5.65455 4.85349 5.62727 4.85349 5.60909 4.86279C5.59091 4.8721 5.56364 4.8814 5.53636 4.8907H5.52727C5.50909 4.90931 5.5 4.92791 5.49091 4.94651C5.48182 4.96512 5.47273 4.99303 5.47273 5.02093C5.47273 5.03954 5.47273 5.04884 5.48182 5.05814C5.49091 5.07675 5.5 5.09535 5.51818 5.11396L5.52727 5.15117ZM2.45455 3.81163L1.75455 3.09535L1.83636 2.97442C2.03636 2.63023 2.28182 2.31396 2.57273 2.04419C2.86364 1.76512 3.2 1.54186 3.57273 1.36512L3.59091 1.35582H3.70909L4.37273 2.00698L2.45455 3.81163ZM1.99091 3.07675L2.45455 3.55117L4.10909 2.00698L3.63636 1.54186C3.29091 1.70931 2.97273 1.92326 2.7 2.18372C2.41818 2.44419 2.18182 2.74186 2 3.06744L1.99091 3.07675Z" fill="#2D3E50"/>
</g>
</svg>
