<svg width="12" height="12" viewBox="0 0 12 12" fill="none" xmlns="http://www.w3.org/2000/svg">
<path d="M11.5 6.19981V6.64149C11.4924 6.68966 11.4832 6.7374 11.4777 6.78577C11.4535 6.99421 11.4466 7.20642 11.4043 7.41065C11.1016 8.87178 10.3737 10.0607 9.13006 10.9098C8.48878 11.3471 7.78776 11.6447 7.01335 11.7511C6.84067 11.7751 6.66736 11.7932 6.49426 11.8142H6.07361C6.03663 11.8047 5.99903 11.7976 5.96109 11.7932C5.25233 11.7636 4.55939 11.5744 3.93398 11.2396C2.20237 10.3129 1.2965 8.83876 1.09627 6.9065C1.07524 6.71111 1.08449 6.70228 0.882581 6.71258C0.702333 6.72163 0.567094 6.67283 0.5 6.49426V6.19981C0.517457 6.02987 0.530918 5.85929 0.552792 5.68977C0.645355 4.98493 0.858359 4.30124 1.1825 3.66855C1.21279 3.6086 1.21153 3.57306 1.15895 3.52637C1.05252 3.43172 1.03486 3.29922 1.10153 3.17681C1.1314 3.12149 1.16084 3.06576 1.19365 3.01191C1.70979 2.16725 2.41101 1.53017 3.3152 1.12025C3.35787 1.09945 3.40516 1.08995 3.45255 1.09264C3.49994 1.09532 3.54585 1.11012 3.58589 1.1356C3.64205 1.17031 3.67822 1.16967 3.7348 1.14107C4.37103 0.819694 5.04176 0.613155 5.75287 0.543117C5.87402 0.531338 5.99474 0.514512 6.11568 0.5H6.34704C6.51214 0.580344 6.57692 0.712428 6.55358 0.892887C6.5479 0.937687 6.55547 0.983958 6.55231 1.02939C6.54769 1.09396 6.57713 1.11247 6.63855 1.11562C7.28908 1.14906 7.91143 1.29839 8.49172 1.59663C10.2212 2.48547 11.2009 3.90306 11.456 5.82669C11.4724 5.95078 11.4855 6.07593 11.5 6.19981ZM6.55273 1.62272C6.55273 1.73229 6.54895 1.81201 6.55273 1.89256C6.55967 2.01287 6.51593 2.10836 6.43222 2.19333C5.99474 2.63809 5.55832 3.08384 5.12294 3.53057C4.9746 3.68215 4.82674 3.83421 4.67937 3.98677L4.6901 4.01054C5.35851 3.54467 6.09654 3.41826 6.88126 3.55203C7.6805 3.68685 8.30054 4.11738 8.75526 4.77486C9.49602 5.84751 9.47205 7.28677 8.60256 8.33692C7.77598 9.33491 6.34535 9.66092 5.13998 9.10903C4.33254 8.73927 3.78212 8.12323 3.53794 7.26658C3.29753 6.42254 3.41405 5.6109 3.85153 4.84111C3.81136 4.86214 3.78969 4.89516 3.76298 4.9225C3.2214 5.47608 2.67792 6.02797 2.13864 6.58407C2.05157 6.67388 1.95966 6.7231 1.83367 6.71237C1.76216 6.70648 1.68981 6.71132 1.61556 6.71132C1.61237 6.73777 1.61069 6.76439 1.61052 6.79103C1.61767 6.88526 1.62314 6.98032 1.6347 7.0735C1.72451 7.82374 1.9895 8.54235 2.40828 9.17128C3.4599 10.7605 5.28384 11.5353 7.14417 11.2009C8.08895 11.031 8.89618 10.583 9.56291 9.89396C10.746 8.67008 11.1986 7.20748 10.8949 5.53623C10.539 3.57853 9.08021 2.10562 7.15111 1.70558C6.95908 1.66604 6.7639 1.65132 6.55273 1.62272ZM8.7113 6.43558C8.75337 5.17679 7.72004 4.0627 6.37249 4.04419C5.00537 4.02547 3.95985 5.20097 3.95922 6.41371C3.95816 7.80922 5.02935 8.82509 6.32075 8.83245C7.56398 8.8396 8.74327 7.81468 8.7113 6.43558ZM6.01577 1.04474C5.30214 1.0887 4.64004 1.25381 4.00233 1.57182C4.11927 1.69402 4.21665 1.80444 4.3235 1.90497C4.4621 2.03558 4.50249 2.20216 4.31088 2.37925C3.65214 2.98815 3.00287 3.60713 2.35086 4.22275C2.16031 4.40279 2.0299 4.40027 1.85155 4.21161C1.77394 4.12937 1.69275 4.0505 1.60442 3.96111C1.26937 4.6495 1.08365 5.35409 1.04222 6.09696C1.03843 6.16363 1.06788 6.18109 1.12887 6.18109C1.3005 6.17899 1.47275 6.17289 1.64396 6.18319C1.76447 6.19034 1.84482 6.14555 1.92558 6.06099C2.48757 5.47363 3.05187 4.8885 3.61849 4.30562C4.39837 3.49994 5.17847 2.69446 5.95878 1.8892C5.98191 1.86522 6.01283 1.83325 6.01325 1.80507C6.01746 1.55646 6.01577 1.30828 6.01577 1.04474ZM3.80883 2.12581C3.67528 1.98468 3.54887 1.85386 3.42625 1.71968C3.3825 1.67172 3.34381 1.66815 3.29017 1.70138C3.15052 1.78782 3.00392 1.86417 2.86826 1.95671C2.39951 2.27459 2.00574 2.6909 1.71442 3.1766C1.69696 3.20541 1.67845 3.26241 1.6917 3.27608C1.83199 3.42036 1.97859 3.55855 2.12855 3.70346L3.80883 2.12581Z" fill="#2D3E50"/>
<path d="M6.97637 7.81509C6.97385 8.19998 6.68023 8.49339 6.29954 8.4917C5.90813 8.49002 5.60547 8.18063 5.6101 7.78669C5.61431 7.40811 5.91255 7.13027 6.30606 7.12964C6.62302 7.12922 7.00035 7.40432 6.97637 7.81509ZM6.41564 7.80647L6.26842 7.68237C6.22993 7.72949 6.1723 7.7726 6.16052 7.82561C6.15379 7.85652 6.22025 7.90385 6.25369 7.94381L6.41564 7.80647Z" fill="#2D3E50"/>
<path d="M5.68889 6.86003C5.68889 7.23252 5.3896 7.55116 5.03226 7.55768C4.67492 7.5642 4.36385 7.23799 4.36469 6.85078C4.3644 6.67583 4.43337 6.50788 4.55653 6.38362C4.67968 6.25937 4.84701 6.1889 5.02195 6.18762C5.3774 6.18825 5.68826 6.50185 5.68889 6.86003ZM5.15277 6.88569C5.15593 6.80303 5.12375 6.75277 5.04488 6.7412C5.02682 6.73886 5.00847 6.74024 4.99096 6.74525C4.97346 6.75027 4.95716 6.75881 4.94308 6.77035C4.92899 6.7819 4.91742 6.7962 4.90906 6.81238C4.90071 6.82856 4.89575 6.84628 4.8945 6.86445C4.88882 6.96435 4.96243 6.98097 5.03562 6.99317C5.12312 7.00768 5.13532 6.94017 5.15277 6.88569Z" fill="#2D3E50"/>
<path d="M7.5861 6.20442C7.89717 6.15857 8.21245 6.48899 8.21287 6.8619C8.21234 6.95169 8.19413 7.0405 8.15927 7.12324C8.1244 7.20599 8.07357 7.28106 8.00968 7.34415C7.94578 7.40724 7.87008 7.45712 7.7869 7.49094C7.70372 7.52476 7.61469 7.54185 7.52489 7.54125C7.15704 7.54125 6.89076 7.25583 6.88656 6.86947C6.88382 6.53568 7.1379 6.1714 7.5861 6.20442ZM7.53162 6.98367C7.61723 6.98367 7.68243 6.92899 7.67528 6.85453C7.66813 6.78008 7.62711 6.72371 7.54488 6.71803C7.47315 6.7132 7.40943 6.78113 7.41069 6.86042C7.41195 6.93972 7.44918 6.9843 7.53162 6.98367Z" fill="#2D3E50"/>
<path d="M7.06715 6.03658C6.66859 6.01239 6.41346 5.79008 6.39811 5.377C6.38444 5.01082 6.67532 4.70228 7.01709 4.70164C7.4674 4.70164 7.71117 4.94899 7.72421 5.34713C7.72718 5.43576 7.71245 5.52409 7.68089 5.60696C7.64933 5.68983 7.60156 5.76557 7.54039 5.82976C7.47921 5.89396 7.40585 5.94531 7.32459 5.98082C7.24334 6.01633 7.15582 6.03529 7.06715 6.03658ZM7.19061 5.33346C7.19061 5.26342 7.1395 5.21358 7.06295 5.21042C7.00342 5.20769 6.93002 5.28235 6.93254 5.3486C6.93549 5.42664 6.98533 5.46996 7.05663 5.48174C7.11847 5.49184 7.18998 5.40729 7.19061 5.33346Z" fill="#2D3E50"/>
<path d="M6.17393 5.3587C6.17393 5.71751 5.86012 6.03174 5.50257 6.02564C5.16395 6.0187 4.82953 5.75958 4.83647 5.36122C4.84236 4.98474 5.13534 4.68818 5.50951 4.68944C5.68629 4.69033 5.8555 4.76128 5.98005 4.88674C6.1046 5.01219 6.17432 5.18192 6.17393 5.3587ZM5.3728 5.37594C5.39615 5.39698 5.43085 5.45608 5.47922 5.47164C5.55137 5.49478 5.63045 5.41717 5.63108 5.33977C5.63108 5.2672 5.59259 5.22051 5.52192 5.21084C5.44747 5.20095 5.37659 5.26699 5.3728 5.37594Z" fill="#2D3E50"/>
</svg>
