<svg width="24" height="24" viewBox="0 0 24 24" fill="none" xmlns="http://www.w3.org/2000/svg">
<path d="M23 12.3996V13.283C22.9849 13.3793 22.9663 13.4748 22.9554 13.5715C22.907 13.9884 22.8932 14.4128 22.8086 14.8213C22.2033 17.7436 20.7474 20.1215 18.2601 21.8197C16.9776 22.6942 15.5755 23.2894 14.0267 23.5023C13.6813 23.5502 13.3347 23.5864 12.9885 23.6285H12.1472C12.0733 23.6093 11.9981 23.5953 11.9222 23.5864C10.5047 23.5273 9.11878 23.1488 7.86795 22.4792C4.40474 20.6259 2.593 17.6775 2.19254 13.813C2.15048 13.4222 2.16899 13.4046 1.76516 13.4252C1.40467 13.4433 1.13419 13.3457 1 12.9885V12.3996C1.03491 12.0597 1.06184 11.7186 1.10558 11.3795C1.29071 9.96986 1.71672 8.60248 2.36501 7.33709C2.42558 7.21721 2.42306 7.14612 2.3179 7.05273C2.10505 6.86344 2.06971 6.59843 2.20306 6.35361C2.26279 6.24298 2.32168 6.13151 2.3873 6.02382C3.41958 4.33449 4.82203 3.06034 6.6304 2.2405C6.71574 2.19891 6.81031 2.1799 6.90509 2.18527C6.99987 2.19065 7.09169 2.22023 7.17178 2.2712C7.28409 2.34061 7.35644 2.33935 7.4696 2.28214C8.74207 1.63939 10.0835 1.22631 11.5057 1.08623C11.748 1.06268 11.9895 1.02902 12.2314 1H12.6941C13.0243 1.16069 13.1538 1.42486 13.1072 1.78577C13.0958 1.87537 13.1109 1.96792 13.1046 2.05878C13.0954 2.18792 13.1543 2.22493 13.2771 2.23124C14.5782 2.29813 15.8229 2.59679 16.9834 3.19327C20.4424 4.97094 22.4018 7.80612 22.9121 11.6534C22.9449 11.9016 22.971 12.1519 23 12.3996ZM13.1055 3.24543C13.1055 3.46459 13.0979 3.62402 13.1055 3.78512C13.1193 4.02574 13.0319 4.21671 12.8644 4.38665C11.9895 5.27619 11.1166 6.16769 10.2459 7.06115C9.94919 7.3643 9.65347 7.66843 9.35874 7.97354L9.38019 8.02107C10.717 7.08933 12.1931 6.83652 13.7625 7.10405C15.361 7.37369 16.6011 8.23476 17.5105 9.54971C18.992 11.695 18.9441 14.5735 17.2051 16.6738C15.552 18.6698 12.6907 19.3218 10.28 18.218C8.66509 17.4785 7.56424 16.2465 7.07587 14.5332C6.59507 12.8451 6.82811 11.2218 7.70306 9.68222C7.62272 9.72428 7.57939 9.79033 7.52597 9.84501C6.44279 10.9522 5.35583 12.0559 4.27729 13.1681C4.10314 13.3478 3.91931 13.4462 3.66734 13.4247C3.52432 13.413 3.37962 13.4226 3.23113 13.4226C3.22475 13.4755 3.22138 13.5288 3.22103 13.5821C3.23533 13.7705 3.24627 13.9606 3.26941 14.147C3.44902 15.6475 3.97901 17.0847 4.81656 18.3426C6.91981 21.521 10.5677 23.0707 14.2883 22.4018C16.1779 22.0619 17.7924 21.166 19.1258 19.7879C21.492 17.3402 22.3972 14.415 21.7898 11.0725C21.078 7.15706 18.1604 4.21124 14.3022 3.41117C13.9182 3.33208 13.5278 3.30264 13.1055 3.24543ZM17.4226 12.8712C17.5067 10.3536 15.4401 8.12539 12.745 8.08837C10.0107 8.05094 7.91969 10.4019 7.91843 12.8274C7.91633 15.6184 10.0587 17.6502 12.6415 17.6649C15.128 17.6792 17.4865 15.6294 17.4226 12.8712ZM12.0315 2.08948C10.6043 2.1774 9.28008 2.50761 8.00467 3.14363C8.23855 3.38803 8.43331 3.60887 8.647 3.80994C8.92421 4.07117 9.00497 4.40432 8.62176 4.75851C7.30428 5.97629 6.00574 7.21426 4.70172 8.44551C4.32061 8.80558 4.05981 8.80053 3.7031 8.42321C3.54788 8.25874 3.38551 8.10099 3.20883 7.92222C2.53874 9.29901 2.1673 10.7082 2.08444 12.1939C2.07686 12.3273 2.13576 12.3622 2.25774 12.3622C2.60099 12.358 2.94551 12.3458 3.28792 12.3664C3.52895 12.3807 3.68964 12.2911 3.85117 12.122C4.97514 10.9473 6.10375 9.777 7.23698 8.61124C8.79675 6.99987 10.3569 5.38892 11.9176 3.77839C11.9638 3.73044 12.0257 3.6665 12.0265 3.61013C12.0349 3.11293 12.0315 2.61656 12.0315 2.08948ZM7.61767 4.25163C7.35055 3.96937 7.09774 3.70772 6.8525 3.43935C6.76501 3.34344 6.68761 3.33629 6.58034 3.40275C6.30103 3.57564 6.00784 3.72834 5.73652 3.91342C4.79902 4.54919 4.01149 5.3818 3.42883 6.35319C3.39392 6.41082 3.3569 6.52482 3.3834 6.55216C3.66398 6.84073 3.95717 7.11709 4.25709 7.40692L7.61767 4.25163Z" fill="#2D3E50"/>
<path d="M13.9527 15.6302C13.9476 16.4 13.3604 16.9868 12.599 16.9834C11.8162 16.9801 11.2109 16.3613 11.2201 15.5734C11.2285 14.8162 11.825 14.2606 12.6121 14.2593C13.246 14.2585 14.0006 14.8087 13.9527 15.6302ZM12.8312 15.6129L12.5368 15.3648C12.4598 15.459 12.3445 15.5452 12.321 15.6512C12.3075 15.7131 12.4404 15.8077 12.5073 15.8876L12.8312 15.6129Z" fill="#2D3E50"/>
<path d="M11.3778 13.72C11.3778 14.465 10.7793 15.1023 10.0646 15.1153C9.34989 15.1284 8.72775 14.476 8.72943 13.7015C8.72887 13.3516 8.86681 13.0157 9.11312 12.7672C9.35943 12.5187 9.69408 12.3778 10.044 12.3752C10.7549 12.3765 11.3766 13.0037 11.3778 13.72ZM10.3056 13.7714C10.3119 13.6061 10.2476 13.5055 10.0898 13.4824C10.0537 13.4777 10.017 13.4805 9.98199 13.4905C9.94697 13.5005 9.91438 13.5176 9.88621 13.5407C9.85804 13.5638 9.83489 13.5924 9.81818 13.6247C9.80147 13.6571 9.79156 13.6925 9.78905 13.7289C9.77769 13.9287 9.92492 13.9619 10.0713 13.9863C10.2463 14.0153 10.2707 13.8803 10.3056 13.7714V13.7714Z" fill="#2D3E50"/>
<path d="M15.1722 12.4088C15.7943 12.3171 16.4249 12.978 16.4257 13.7238C16.4247 13.9034 16.3883 14.081 16.3185 14.2465C16.2488 14.412 16.1471 14.5621 16.0193 14.6883C15.8916 14.8145 15.7402 14.9142 15.5738 14.9819C15.4074 15.0495 15.2294 15.0837 15.0498 15.0825C14.3141 15.0825 13.7815 14.5117 13.7731 13.7389C13.7676 13.0713 14.2758 12.3428 15.1722 12.4088ZM15.0632 13.9673C15.2345 13.9673 15.3649 13.858 15.3506 13.7091C15.3363 13.5601 15.2542 13.4474 15.0898 13.4361C14.9463 13.4264 14.8189 13.5622 14.8214 13.7208C14.8239 13.8794 14.8984 13.9686 15.0632 13.9673V13.9673Z" fill="#2D3E50"/>
<path d="M14.1344 12.0732C13.3372 12.0248 12.827 11.5802 12.7963 10.754C12.7689 10.0216 13.3507 9.40455 14.0342 9.40329C14.9349 9.40329 15.4224 9.89797 15.4485 10.6943C15.4544 10.8715 15.425 11.0482 15.3618 11.2139C15.2987 11.3797 15.2032 11.5311 15.0808 11.6595C14.9585 11.7879 14.8118 11.8906 14.6492 11.9616C14.4867 12.0327 14.3117 12.0706 14.1344 12.0732ZM14.3813 10.6669C14.3813 10.5268 14.2791 10.4272 14.126 10.4208C14.0069 10.4154 13.8601 10.5647 13.8651 10.6972C13.871 10.8533 13.9707 10.9399 14.1133 10.9635C14.237 10.9837 14.38 10.8146 14.3813 10.6669Z" fill="#2D3E50"/>
<path d="M12.3479 10.7174C12.3479 11.435 11.7203 12.0635 11.0052 12.0513C10.328 12.0374 9.65912 11.5192 9.673 10.7225C9.68478 9.96949 10.2707 9.37638 11.0191 9.3789C11.3726 9.38068 11.7111 9.52258 11.9602 9.77349C12.2093 10.0244 12.3487 10.3638 12.3479 10.7174V10.7174ZM10.7457 10.7519C10.7924 10.794 10.8618 10.9122 10.9585 10.9433C11.1028 10.9896 11.261 10.8343 11.2622 10.6795C11.2622 10.5344 11.1852 10.441 11.0439 10.4217C10.895 10.4019 10.7532 10.534 10.7457 10.7519V10.7519Z" fill="#2D3E50"/>
</svg>
