<svg width="16" height="16" viewBox="0 0 16 16" fill="none" xmlns="http://www.w3.org/2000/svg">
<path d="M15.3334 8.2664V8.85531C15.3233 8.91953 15.3109 8.98319 15.3036 9.04769C15.2714 9.3256 15.2621 9.60855 15.2058 9.88086C14.8022 11.829 13.8316 13.4143 12.1734 14.5464C11.3184 15.1294 10.3837 15.5263 9.35115 15.6682C9.12091 15.7001 8.88984 15.7242 8.65904 15.7523H8.09817C8.04886 15.7395 7.99873 15.7302 7.94814 15.7242C7.00312 15.6848 6.0792 15.4325 5.24532 14.9861C2.93651 13.7506 1.72869 11.785 1.46172 9.20866C1.43367 8.94813 1.44601 8.93636 1.1768 8.9501C0.936464 8.96216 0.756145 8.8971 0.666687 8.65901V8.2664C0.689963 8.03981 0.707911 7.81238 0.737076 7.58635C0.860493 6.64656 1.1445 5.73497 1.57669 4.89139C1.61708 4.81146 1.61539 4.76407 1.54528 4.70181C1.40339 4.57562 1.37983 4.39894 1.46873 4.23573C1.50855 4.16198 1.54781 4.08766 1.59156 4.01587C2.27974 2.88965 3.2147 2.04022 4.42029 1.49365C4.47718 1.46593 4.54023 1.45325 4.60342 1.45684C4.6666 1.46042 4.72781 1.48015 4.78121 1.51413C4.85608 1.5604 4.90432 1.55956 4.97975 1.52142C5.82806 1.09292 6.72237 0.81753 7.67051 0.724145C7.83204 0.708441 7.99301 0.686006 8.15426 0.666656H8.46274C8.68288 0.773782 8.76925 0.949894 8.73812 1.19051C8.73055 1.25024 8.74065 1.31193 8.73644 1.37251C8.73027 1.4586 8.76953 1.48328 8.85142 1.48749C9.7188 1.53207 10.5486 1.73118 11.3223 2.12884C13.6283 3.31395 14.9346 5.20407 15.2747 7.76891C15.2966 7.93437 15.314 8.10123 15.3334 8.2664ZM8.737 2.16361C8.737 2.30972 8.73195 2.416 8.737 2.52341C8.74625 2.68381 8.68792 2.81113 8.57631 2.92443C7.99301 3.51745 7.41111 4.11178 6.83061 4.70742C6.63281 4.90952 6.43567 5.11227 6.23918 5.31568L6.25348 5.34737C7.1447 4.72621 8.12874 4.55767 9.17504 4.73603C10.2407 4.91578 11.0674 5.48983 11.6737 6.36647C12.6614 7.79668 12.6294 9.71568 11.4701 11.1159C10.368 12.4465 8.46049 12.8812 6.85333 12.1454C5.77674 11.6524 5.04285 10.831 4.71727 9.68876C4.39673 8.56338 4.55209 7.48119 5.13539 6.4548C5.08183 6.48284 5.05295 6.52687 5.01733 6.56333C4.29521 7.30143 3.57057 8.03729 2.85154 8.77875C2.73544 8.8985 2.61289 8.96412 2.44492 8.94982C2.34957 8.94197 2.2531 8.94841 2.15411 8.94841C2.14985 8.98369 2.1476 9.01917 2.14738 9.0547C2.15691 9.18033 2.1642 9.30709 2.17963 9.43132C2.29937 10.4316 2.65269 11.3898 3.21106 12.2284C4.61323 14.3473 7.04514 15.3804 9.52558 14.9345C10.7853 14.708 11.8616 14.1106 12.7506 13.1919C14.328 11.5601 14.9315 9.60996 14.5265 7.38163C14.0521 4.77136 12.107 2.80749 9.53483 2.2741C9.2788 2.22138 9.01855 2.20175 8.737 2.16361ZM11.6151 8.58077C11.6712 6.90237 10.2934 5.41692 8.49667 5.39224C6.67385 5.36728 5.27982 6.93462 5.27898 8.5516C5.27757 10.4123 6.70582 11.7668 8.42768 11.7766C10.0853 11.7861 11.6577 10.4196 11.6151 8.58077ZM8.02105 1.39298C7.06954 1.45159 6.18674 1.67173 5.33646 2.09575C5.49238 2.25868 5.62223 2.4059 5.76469 2.53995C5.94949 2.7141 6.00333 2.9362 5.74786 3.17233C4.86954 3.98418 4.00384 4.8095 3.1345 5.63033C2.88043 5.87038 2.70656 5.86701 2.46875 5.61546C2.36527 5.50581 2.25702 5.40065 2.13924 5.28147C1.69251 6.19933 1.44489 7.13878 1.38964 8.12927C1.3846 8.21817 1.42386 8.24144 1.50518 8.24144C1.73402 8.23864 1.96369 8.23051 2.19196 8.24425C2.35265 8.25378 2.45978 8.19405 2.56746 8.08132C3.31678 7.29816 4.06919 6.51799 4.82467 5.74082C5.86452 4.66657 6.90465 3.5926 7.94506 2.51892C7.9759 2.48695 8.01713 2.44432 8.01769 2.40675C8.0233 2.07527 8.02105 1.74436 8.02105 1.39298ZM5.07847 2.83441C4.90039 2.64624 4.73185 2.47181 4.56836 2.29289C4.51003 2.22895 4.45843 2.22418 4.38692 2.26849C4.20071 2.38375 4.00525 2.48555 3.82437 2.60894C3.19937 3.03278 2.67435 3.58785 2.28591 4.23545C2.26263 4.27387 2.23796 4.34987 2.25562 4.3681C2.44267 4.56047 2.63813 4.74472 2.83808 4.93794L5.07847 2.83441Z" fill="#2D3E50"/>
<path d="M9.30181 10.4201C9.29844 10.9333 8.90696 11.3245 8.39937 11.3223C7.87749 11.32 7.47394 10.9075 7.48011 10.3823C7.48572 9.87747 7.88337 9.50702 8.40807 9.50618C8.83068 9.50562 9.33378 9.87243 9.30181 10.4201ZM8.55417 10.4086L8.35787 10.2432C8.30655 10.306 8.22971 10.3635 8.21401 10.4341C8.20503 10.4754 8.29365 10.5385 8.33824 10.5917L8.55417 10.4086Z" fill="#2D3E50"/>
<path d="M7.58525 9.14668C7.58525 9.64333 7.1862 10.0682 6.70974 10.0769C6.23328 10.0856 5.81852 9.65062 5.81964 9.13434C5.81927 8.90108 5.91123 8.67715 6.07543 8.51147C6.23964 8.34579 6.46274 8.25184 6.696 8.25014C7.16993 8.25098 7.58441 8.6691 7.58525 9.14668ZM6.87043 9.1809C6.87463 9.07069 6.83173 9.00366 6.72656 8.98824C6.70248 8.98512 6.67802 8.98696 6.65468 8.99365C6.63134 9.00033 6.60961 9.01172 6.59083 9.02711C6.57205 9.0425 6.55661 9.06157 6.54548 9.08315C6.53434 9.10472 6.52773 9.12835 6.52606 9.15257C6.51848 9.28578 6.61663 9.30793 6.71423 9.3242C6.83089 9.34355 6.84715 9.25353 6.87043 9.1809Z" fill="#2D3E50"/>
<path d="M10.1148 8.27254C10.5296 8.2114 10.9499 8.65196 10.9505 9.14917C10.9498 9.2689 10.9255 9.38731 10.879 9.49764C10.8326 9.60797 10.7648 9.70806 10.6796 9.79218C10.5944 9.8763 10.4935 9.94281 10.3826 9.9879C10.2716 10.033 10.1529 10.0558 10.0332 10.055C9.54273 10.055 9.18771 9.67443 9.1821 9.15927C9.17845 8.71422 9.51722 8.22851 10.1148 8.27254ZM10.0422 9.31154C10.1563 9.31154 10.2433 9.23863 10.2337 9.13936C10.2242 9.04008 10.1695 8.96493 10.0599 8.95736C9.96423 8.95091 9.87925 9.04149 9.88094 9.14721C9.88262 9.25293 9.93226 9.31239 10.0422 9.31154Z" fill="#2D3E50"/>
<path d="M9.42295 8.04875C8.89153 8.0165 8.55136 7.72009 8.53089 7.16932C8.51266 6.68108 8.9005 6.26969 9.35621 6.26884C9.95662 6.26884 10.2816 6.59863 10.299 7.12949C10.303 7.24766 10.2834 7.36543 10.2413 7.47593C10.1992 7.58642 10.1355 7.68741 10.0539 7.773C9.97236 7.85859 9.87455 7.92706 9.76621 7.97441C9.65787 8.02176 9.54117 8.04703 9.42295 8.04875ZM9.58756 7.11127C9.58756 7.01788 9.51942 6.95142 9.41734 6.94721C9.33798 6.94357 9.24011 7.04312 9.24347 7.13146C9.2474 7.2355 9.31386 7.29327 9.40893 7.30897C9.49138 7.32243 9.58672 7.2097 9.58756 7.11127Z" fill="#2D3E50"/>
<path d="M8.23197 7.14492C8.23197 7.62334 7.81356 8.04231 7.33682 8.03418C6.88532 8.02492 6.43943 7.67943 6.44869 7.14829C6.45654 6.64631 6.84718 6.2509 7.34608 6.25258C7.58178 6.25377 7.8074 6.34837 7.97346 6.51565C8.13953 6.68292 8.23249 6.90922 8.23197 7.14492ZM7.16379 7.16792C7.19492 7.19596 7.24119 7.27476 7.30569 7.29552C7.40188 7.32636 7.50733 7.22288 7.50817 7.11968C7.50817 7.02293 7.45685 6.96068 7.36262 6.94778C7.26335 6.9346 7.16884 7.02265 7.16379 7.16792Z" fill="#2D3E50"/>
</svg>
