<svg width="12" height="12" viewBox="0 0 12 12" fill="none" xmlns="http://www.w3.org/2000/svg">
<path fill-rule="evenodd" clip-rule="evenodd" d="M3.22222 3.22222C3.22222 2.915 3.47111 2.66667 3.77778 2.66667C4.08444 2.66667 4.33333 2.915 4.33333 3.22222C4.33333 3.52944 4.08444 3.77778 3.77778 3.77778C3.47111 3.77778 3.22222 3.52944 3.22222 3.22222ZM5.44444 3.22222C5.44444 2.915 5.69333 2.66667 6 2.66667C6.30667 2.66667 6.55556 2.915 6.55556 3.22222C6.55556 3.52944 6.30667 3.77778 6 3.77778C5.69333 3.77778 5.44444 3.52944 5.44444 3.22222ZM2.11111 4.33333V2.66667C2.11111 2.36 2.36056 2.11111 2.66667 2.11111H9.33333C9.63945 2.11111 9.88889 2.36 9.88889 2.66667V4.33333H2.11111ZM9.88889 9.33333C9.88889 9.64 9.63945 9.88889 9.33333 9.88889H2.66667C2.36056 9.88889 2.11111 9.64 2.11111 9.33333V5.44444H9.88889V9.33333ZM9.33333 1H2.66667C1.74778 1 1 1.74778 1 2.66667V4.33333V5.44444V9.33333C1 10.2522 1.74778 11 2.66667 11H9.33333C10.2522 11 11 10.2522 11 9.33333V5.44444V4.33333V2.66667C11 1.74778 10.2522 1 9.33333 1Z" fill="#2D3E50"/>
</svg>
