<svg width="24" height="24" viewBox="0 0 24 24" fill="none" xmlns="http://www.w3.org/2000/svg">
<path fill-rule="evenodd" clip-rule="evenodd" d="M6.44444 6.44444C6.44444 5.83 6.94222 5.33333 7.55556 5.33333C8.16889 5.33333 8.66667 5.83 8.66667 6.44444C8.66667 7.05889 8.16889 7.55556 7.55556 7.55556C6.94222 7.55556 6.44444 7.05889 6.44444 6.44444ZM10.8889 6.44444C10.8889 5.83 11.3867 5.33333 12 5.33333C12.6133 5.33333 13.1111 5.83 13.1111 6.44444C13.1111 7.05889 12.6133 7.55556 12 7.55556C11.3867 7.55556 10.8889 7.05889 10.8889 6.44444ZM4.22222 8.66667V5.33333C4.22222 4.72 4.72111 4.22222 5.33333 4.22222H18.6667C19.2789 4.22222 19.7778 4.72 19.7778 5.33333V8.66667H4.22222ZM19.7778 18.6667C19.7778 19.28 19.2789 19.7778 18.6667 19.7778H5.33333C4.72111 19.7778 4.22222 19.28 4.22222 18.6667V10.8889H19.7778V18.6667ZM18.6667 2H5.33333C3.49556 2 2 3.49556 2 5.33333V8.66667V10.8889V18.6667C2 20.5044 3.49556 22 5.33333 22H18.6667C20.5044 22 22 20.5044 22 18.6667V10.8889V8.66667V5.33333C22 3.49556 20.5044 2 18.6667 2Z" fill="#2D3E50"/>
</svg>
