<svg width="12" height="12" viewBox="0 0 12 12" fill="none" xmlns="http://www.w3.org/2000/svg">
<path fill-rule="evenodd" clip-rule="evenodd" d="M2.94444 2.94444C2.94444 2.6065 3.21822 2.33333 3.55556 2.33333C3.89289 2.33333 4.16667 2.6065 4.16667 2.94444C4.16667 3.28239 3.89289 3.55556 3.55556 3.55556C3.21822 3.55556 2.94444 3.28239 2.94444 2.94444ZM5.38889 2.94444C5.38889 2.6065 5.66267 2.33333 6 2.33333C6.33733 2.33333 6.61111 2.6065 6.61111 2.94444C6.61111 3.28239 6.33733 3.55556 6 3.55556C5.66267 3.55556 5.38889 3.28239 5.38889 2.94444ZM1.72222 4.16667V2.33333C1.72222 1.996 1.99661 1.72222 2.33333 1.72222H9.66667C10.0034 1.72222 10.2778 1.996 10.2778 2.33333V4.16667H1.72222ZM10.2778 9.66667C10.2778 10.004 10.0034 10.2778 9.66667 10.2778H2.33333C1.99661 10.2778 1.72222 10.004 1.72222 9.66667V5.38889H10.2778V9.66667ZM9.66667 0.5H2.33333C1.32256 0.5 0.5 1.32256 0.5 2.33333V4.16667V5.38889V9.66667C0.5 10.6774 1.32256 11.5 2.33333 11.5H9.66667C10.6774 11.5 11.5 10.6774 11.5 9.66667V5.38889V4.16667V2.33333C11.5 1.32256 10.6774 0.5 9.66667 0.5Z" fill="#2D3E50"/>
</svg>
