<svg width="16" height="16" viewBox="0 0 16 16" fill="none" xmlns="http://www.w3.org/2000/svg">
<path fill-rule="evenodd" clip-rule="evenodd" d="M4.29628 4.2963C4.29628 3.88667 4.62813 3.55556 5.03702 3.55556C5.44591 3.55556 5.77776 3.88667 5.77776 4.2963C5.77776 4.70593 5.44591 5.03704 5.03702 5.03704C4.62813 5.03704 4.29628 4.70593 4.29628 4.2963ZM7.25924 4.2963C7.25924 3.88667 7.59109 3.55556 7.99998 3.55556C8.40887 3.55556 8.74072 3.88667 8.74072 4.2963C8.74072 4.70593 8.40887 5.03704 7.99998 5.03704C7.59109 5.03704 7.25924 4.70593 7.25924 4.2963ZM2.81479 5.77778V3.55556C2.81479 3.14667 3.14739 2.81482 3.55554 2.81482H12.4444C12.8526 2.81482 13.1852 3.14667 13.1852 3.55556V5.77778H2.81479ZM13.1852 12.4444C13.1852 12.8533 12.8526 13.1852 12.4444 13.1852H3.55554C3.14739 13.1852 2.81479 12.8533 2.81479 12.4444V7.25926H13.1852V12.4444ZM12.4444 1.33334H3.55554C2.33035 1.33334 1.33331 2.33037 1.33331 3.55556V5.77778V7.25926V12.4444C1.33331 13.6696 2.33035 14.6667 3.55554 14.6667H12.4444C13.6696 14.6667 14.6666 13.6696 14.6666 12.4444V7.25926V5.77778V3.55556C14.6666 2.33037 13.6696 1.33334 12.4444 1.33334Z" fill="#2D3E50"/>
</svg>
