<svg width="12" height="12" viewBox="0 0 12 12" fill="none" xmlns="http://www.w3.org/2000/svg">
<path d="M7.6 11.8H4.4C3.2 11.8 2.3 10.9 2.2 9.8L1.5 3.6C1.5 3.2 1.8 2.8 2.2 2.8C2.6 2.7 3 3 3 3.4L3.6 9.5C3.6 9.9 4 10.2 4.3 10.2H7.6C8 10.2 8.3 9.9 8.3 9.5L9 3.4C9 3 9.4 2.7 9.8 2.8C10.2 2.8 10.5 3.2 10.5 3.6L9.9 9.7C9.8 10.9 8.8 11.8 7.6 11.8Z" fill="#2D3E50"/>
<path d="M11 4.2H1.00001C0.600012 4.2 0.200012 3.9 0.200012 3.4C0.200012 2.9 0.600012 2.8 1.00001 2.8H2.80001V2.5C2.80001 1.3 3.80001 0.300003 5.00001 0.300003H7.00001C8.20001 0.300003 9.20001 1.3 9.20001 2.5V2.7H11C11.4 2.7 11.8 3 11.8 3.5C11.8 4 11.4 4.2 11 4.2ZM4.20001 2.8H7.70001V2.5C7.70001 2.1 7.40001 1.7 6.90001 1.7H5.00001C4.60001 1.7 4.20001 2 4.20001 2.5V2.8Z" fill="#2D3E50"/>
</svg>
