<svg width="16" height="16" viewBox="0 0 16 16" fill="none" xmlns="http://www.w3.org/2000/svg">
<path d="M10.1 15.2H5.89999C4.69999 15.2 3.79999 14.3 3.69999 13.2L2.79999 4.1C2.79999 3.7 3.09999 3.3 3.49999 3.3C3.89999 3.3 4.29999 3.6 4.29999 4L5.19999 13.1C5.19999 13.5 5.59999 13.8 5.89999 13.8H10.2C10.6 13.8 10.9 13.5 10.9 13.1L11.8 4C11.8 3.6 12.2 3.3 12.6 3.3C13 3.3 13.3 3.7 13.3 4.1L12.4 13.2C12.3 14.4 11.3 15.2 10.1 15.2Z" fill="#2D3E50"/>
<path d="M14 4.8H2.00001C1.60001 4.8 1.20001 4.4 1.20001 4C1.20001 3.6 1.60001 3.2 2.00001 3.2H4.80001V3C4.80001 1.8 5.80001 0.800003 7.00001 0.800003H9.00001C10.2 0.800003 11.2 1.8 11.2 3V3.2H14C14.4 3.2 14.8 3.5 14.8 4C14.8 4.5 14.4 4.8 14 4.8ZM6.20001 3.2H9.70001V3C9.70001 2.6 9.40001 2.2 8.90001 2.2H7.00001C6.60001 2.2 6.20001 2.6 6.20001 3V3.2Z" fill="#2D3E50"/>
<path d="M9.29999 12.8C9.19999 12.8 9.19999 12.8 9.29999 12.8C8.89999 12.8 8.49999 12.4 8.49999 12L8.69999 6.5C8.69999 6.1 9.09999 5.8 9.49999 5.8C9.89999 5.8 10.2 6.2 10.2 6.6L9.99999 12C9.99999 12.4 9.59999 12.8 9.29999 12.8ZM6.69999 12.8C6.39999 12.8 5.99999 12.4 5.99999 12L5.79999 6.5C5.79999 6.1 6.09999 5.7 6.49999 5.7C6.89999 5.7 7.29999 6 7.29999 6.4L7.49999 12C7.49999 12.4 7.19999 12.7 6.69999 12.8C6.79999 12.8 6.79999 12.8 6.69999 12.8Z" fill="#2D3E50"/>
</svg>
