<svg width="24" height="24" viewBox="0 0 24 24" fill="none" xmlns="http://www.w3.org/2000/svg">
<path d="M15.1 21.9H8.90001C7.40001 21.9 6.10001 20.7 6.00001 19.2L5.20001 6.90001H4.00001C3.50001 6.90001 3.10001 6.50001 3.10001 6.00001C3.10001 5.50001 3.50001 5.10001 4.00001 5.10001H6.00001H8.10001V5.00001C8.10001 3.40001 9.40001 2.10001 11 2.10001H13C14.6 2.10001 15.9 3.40001 15.9 5.00001V5.10001H18H20C20.5 5.10001 20.9 5.50001 20.9 6.00001C20.9 6.50001 20.5 6.90001 20 6.90001H18.8L18 19.2C17.9 20.7 16.7 21.9 15.1 21.9ZM7.00001 6.90001L7.80001 19.1C7.80001 19.7 8.30001 20.1 8.90001 20.1H15.2C15.8 20.1 16.3 19.6 16.3 19.1L17 6.90001H7.00001ZM9.90001 5.10001H14.1V5.00001C14.1 4.40001 13.6 3.90001 13 3.90001H11C10.4 3.90001 9.90001 4.40001 9.90001 5.00001V5.10001ZM13.7 17.9C13.2 17.9 12.8 17.5 12.8 17L13.1 10C13.1 9.50001 13.6 9.10001 14 9.10001C14.5 9.10001 14.9 9.50001 14.9 10L14.6 17C14.6 17.5 14.2 17.9 13.7 17.9ZM10.3 17.9C9.80001 17.9 9.40001 17.5 9.40001 17L9.10001 10C9.10001 9.50001 9.50001 9.10001 10 9.10001C10.5 9.10001 10.9 9.50001 10.9 10L11.2 17C11.2 17.5 10.8 17.9 10.3 17.9Z" fill="#2D3E50"/>
</svg>
