<svg width="24" height="24" viewBox="0 0 24 24" fill="none" xmlns="http://www.w3.org/2000/svg">
<path d="M15.1 21.9H8.89998C7.39998 21.9 6.09998 20.7 5.99998 19.2L5.19998 6.9H3.99998C3.49998 6.9 3.09998 6.5 3.09998 6C3.09998 5.5 3.49998 5.1 3.99998 5.1H5.99998H8.09998V5C8.09998 3.4 9.39998 2.1 11 2.1H13C14.6 2.1 15.9 3.4 15.9 5V5.1H18H20C20.5 5.1 20.9 5.5 20.9 6C20.9 6.5 20.5 6.9 20 6.9H18.8L18 19.2C17.9 20.7 16.7 21.9 15.1 21.9ZM6.99998 6.9L7.79998 19.1C7.79998 19.7 8.29998 20.1 8.89998 20.1H15.2C15.8 20.1 16.3 19.6 16.3 19.1L17 6.9H6.99998ZM9.89998 5.1H14.1V5C14.1 4.4 13.6 3.9 13 3.9H11C10.4 3.9 9.89998 4.4 9.89998 5V5.1ZM13.7 17.9C13.2 17.9 12.8 17.5 12.8 17L13.1 10C13.1 9.5 13.6 9.1 14 9.1C14.5 9.1 14.9 9.5 14.9 10L14.6 17C14.6 17.5 14.2 17.9 13.7 17.9ZM10.3 17.9C9.79998 17.9 9.39998 17.5 9.39998 17L9.09998 10C9.09998 9.5 9.49998 9.1 9.99998 9.1C10.5 9.1 10.9 9.5 10.9 10L11.2 17C11.2 17.5 10.8 17.9 10.3 17.9Z" fill="#2D3E50"/>
</svg>
