<svg width="24" height="24" viewBox="0 0 24 24" fill="none" xmlns="http://www.w3.org/2000/svg">
<path fill-rule="evenodd" clip-rule="evenodd" d="M8.40001 2.75001C8.40001 2.25295 7.99706 1.85001 7.50001 1.85001C7.00295 1.85001 6.60001 2.25295 6.60001 2.75001V4.10003H6.00001C3.8461 4.10003 2.10001 5.84612 2.10001 8.00003V18C2.10001 20.1539 3.8461 21.9 6.00001 21.9H18C20.1539 21.9 21.9 20.1539 21.9 18V8.00003C21.9 5.84612 20.1539 4.10003 18 4.10003H17.4V2.75001C17.4 2.25295 16.9971 1.85001 16.5 1.85001C16.0029 1.85001 15.6 2.25295 15.6 2.75001V4.10003H8.40001V2.75001ZM3.90001 18V9.00003H20.1V18C20.1 19.1598 19.1598 20.1 18 20.1H6.00001C4.84021 20.1 3.90001 19.1598 3.90001 18ZM6.75001 10.6C6.25295 10.6 5.85001 11.0029 5.85001 11.5C5.85001 11.9971 6.25295 12.4 6.75001 12.4H8.25001C8.74706 12.4 9.15001 11.9971 9.15001 11.5C9.15001 11.0029 8.74706 10.6 8.25001 10.6H6.75001ZM11.25 10.6C10.7529 10.6 10.35 11.0029 10.35 11.5C10.35 11.9971 10.7529 12.4 11.25 12.4H12.75C13.2471 12.4 13.65 11.9971 13.65 11.5C13.65 11.0029 13.2471 10.6 12.75 10.6H11.25ZM15.75 10.6C15.253 10.6 14.85 11.0029 14.85 11.5C14.85 11.9971 15.253 12.4 15.75 12.4H17.25C17.7471 12.4 18.15 11.9971 18.15 11.5C18.15 11.0029 17.7471 10.6 17.25 10.6H15.75ZM6.75001 13.6C6.25295 13.6 5.85001 14.0029 5.85001 14.5C5.85001 14.9971 6.25295 15.4 6.75001 15.4H8.25001C8.74706 15.4 9.15001 14.9971 9.15001 14.5C9.15001 14.0029 8.74706 13.6 8.25001 13.6H6.75001ZM11.25 13.6C10.7529 13.6 10.35 14.0029 10.35 14.5C10.35 14.9971 10.7529 15.4 11.25 15.4H12.75C13.2471 15.4 13.65 14.9971 13.65 14.5C13.65 14.0029 13.2471 13.6 12.75 13.6H11.25ZM15.75 13.6C15.253 13.6 14.85 14.0029 14.85 14.5C14.85 14.9971 15.253 15.4 15.75 15.4H17.25C17.7471 15.4 18.15 14.9971 18.15 14.5C18.15 14.0029 17.7471 13.6 17.25 13.6H15.75ZM6.75001 16.6C6.25295 16.6 5.85001 17.0029 5.85001 17.5C5.85001 17.9971 6.25295 18.4 6.75001 18.4H8.25001C8.74706 18.4 9.15001 17.9971 9.15001 17.5C9.15001 17.0029 8.74706 16.6 8.25001 16.6H6.75001ZM11.25 16.6C10.7529 16.6 10.35 17.0029 10.35 17.5C10.35 17.9971 10.7529 18.4 11.25 18.4H12.75C13.2471 18.4 13.65 17.9971 13.65 17.5C13.65 17.0029 13.2471 16.6 12.75 16.6H11.25ZM15.75 16.6C15.253 16.6 14.85 17.0029 14.85 17.5C14.85 17.9971 15.253 18.4 15.75 18.4H17.25C17.7471 18.4 18.15 17.9971 18.15 17.5C18.15 17.0029 17.7471 16.6 17.25 16.6H15.75Z" fill="#2D3E50"/>
</svg>
