<svg width="12" height="12" viewBox="0 0 12 12" fill="none" xmlns="http://www.w3.org/2000/svg">
<path d="M7.80001 11.2H4.20001C3.00001 11.2 2.30001 11.2 1.80001 10.9C1.30001 10.6 0.900012 10.2 0.600012 9.7C0.200012 9.2 0.200012 8.5 0.200012 7.3V5.7C0.200012 4.5 0.200012 3.8 0.500012 3.3C0.800012 2.7 1.20001 2.3 1.80001 2C2.30001 1.8 3.00001 1.8 4.20001 1.8H7.80001C9.00001 1.8 9.70001 1.8 10.2 2.1C10.7 2.4 11.1 2.8 11.4 3.3C11.7 3.9 11.7 4.6 11.7 5.8V7.4C11.7 8.6 11.7 9.3 11.4 9.8C11.1 10.3 10.7 10.7 10.2 11C9.70001 11.2 9.00001 11.2 7.80001 11.2ZM4.20001 3.2C3.20001 3.2 2.70001 3.2 2.40001 3.3C2.20001 3.5 2.00001 3.7 1.90001 3.9C1.80001 4.2 1.80001 4.7 1.80001 5.7V7.3C1.80001 8.3 1.80001 8.8 1.90001 9.1C2.00001 9.3 2.20001 9.5 2.40001 9.6C2.70001 9.7 3.20001 9.7 4.20001 9.7H7.80001C8.80001 9.7 9.30001 9.7 9.60001 9.6C9.80001 9.5 10 9.3 10.1 9.1C10.2 8.8 10.2 8.3 10.2 7.3V5.7C10.2 4.7 10.2 4.2 10.1 3.9C10 3.7 9.80001 3.5 9.60001 3.4C9.30001 3.2 8.80001 3.2 7.80001 3.2H4.20001Z" fill="#2D3E50"/>
<path d="M3.49999 2.8C3.09999 2.8 2.79999 2.4 2.79999 2V0.999997C2.79999 0.599997 3.09999 0.199997 3.59999 0.199997C4.09999 0.199997 4.19999 0.599997 4.19999 0.999997V2C4.19999 2.4 3.89999 2.8 3.49999 2.8Z" fill="#2D3E50"/>
<path d="M8.49999 2.8C8.09999 2.8 7.79999 2.4 7.79999 2V0.999997C7.79999 0.599997 8.09999 0.199997 8.59999 0.199997C9.09999 0.199997 9.19999 0.599997 9.19999 0.999997V2C9.19999 2.4 8.89999 2.8 8.49999 2.8Z" fill="#2D3E50"/>
<path d="M10.5 4.8H1.49999C1.09999 4.8 0.799988 4.4 0.799988 4C0.799988 3.6 1.09999 3.2 1.59999 3.2H10.6C11 3.2 11.4 3.5 11.4 4C11.4 4.5 10.9 4.8 10.5 4.8Z" fill="#2D3E50"/>
</svg>
