<svg width="16" height="16" viewBox="0 0 16 16" fill="none" xmlns="http://www.w3.org/2000/svg">
<path fill-rule="evenodd" clip-rule="evenodd" d="M5 0.249969C5.41421 0.249969 5.75 0.585756 5.75 0.999969V1.99997H10.25V0.999969C10.25 0.585756 10.5858 0.249969 11 0.249969C11.4142 0.249969 11.75 0.585756 11.75 0.999969V1.99997H12C13.6569 1.99997 15 3.34312 15 4.99997V6.99997V12C15 13.6568 13.6569 15 12 15H4C2.34315 15 1 13.6568 1 12V6.99997V4.99997C1 3.34312 2.34315 1.99997 4 1.99997H4.25V0.999969C4.25 0.585756 4.58579 0.249969 5 0.249969ZM13.5 6.99997H2.5V12C2.5 12.8284 3.17157 13.5 4 13.5H12C12.8284 13.5 13.5 12.8284 13.5 12V6.99997ZM5 8.5C4.44772 8.5 4 8.94771 4 9.5C4 10.0523 4.44772 10.5 5 10.5H6C6.55228 10.5 7 10.0523 7 9.5C7 8.94771 6.55228 8.5 6 8.5H5Z" fill="#2D3E50"/>
</svg>
