<svg width="16" height="16" viewBox="0 0 16 16" fill="none" xmlns="http://www.w3.org/2000/svg">
<path d="M14.9892 6.33363H13.4936L12.5953 4.10269C12.2464 3.235 11.4047 2.66667 10.4697 2.66667H5.53005C4.59505 2.66667 3.75343 3.235 3.40424 4.1024L2.5059 6.33334H1.01059C0.786865 6.33334 0.622724 6.5436 0.677151 6.76045L0.849027 7.44795C0.867661 7.52229 0.910585 7.58828 0.97099 7.63546C1.0314 7.68263 1.10582 7.70828 1.18246 7.70834H1.50645C1.26926 8.11397 1.12489 8.57946 1.12489 9.08306V12.9792C1.12489 13.3587 1.43283 13.6667 1.81239 13.6667H2.27072C2.65028 13.6667 2.95822 13.3587 2.95822 12.9792V12.2917H13.0416V12.9792C13.0416 13.3587 13.3495 13.6667 13.7291 13.6667H14.1874C14.567 13.6667 14.8749 13.3587 14.8749 12.9792V9.08334C14.8749 8.57946 14.7305 8.11397 14.4936 7.70863H14.8176C14.9755 7.70863 15.113 7.6012 15.1511 7.44824L15.3229 6.76074C15.3771 6.5436 15.2129 6.33363 14.9892 6.33363ZM4.67984 4.61602C4.8202 4.26711 5.15393 4.04167 5.53005 4.04167H10.4697C10.8459 4.04167 11.1796 4.26711 11.32 4.61602L12.0112 6.33305H3.98861L4.67984 4.61602ZM13.4999 10.4583C13.4999 10.711 13.2942 10.9167 13.0416 10.9167H2.95822C2.70557 10.9167 2.49989 10.711 2.49989 10.4583V9.08334C2.49989 8.32509 3.11663 7.70834 3.87489 7.70834H12.1249C12.8832 7.70834 13.4999 8.32509 13.4999 9.08334V10.4583ZM4.33322 8.39555C3.78322 8.39555 3.41656 8.76108 3.41656 9.30964C3.41656 9.85821 3.78322 10.2237 4.33322 10.2237C4.88322 10.2237 5.70823 10.3151 5.70823 9.76655C5.70823 9.21826 4.88322 8.39555 4.33322 8.39555ZM11.6666 8.39555C11.1166 8.39555 10.2916 9.21826 10.2916 9.76655C10.2916 10.3151 11.1166 10.2237 11.6666 10.2237C12.2166 10.2237 12.5832 9.85821 12.5832 9.30964C12.5832 8.76136 12.2166 8.39555 11.6666 8.39555Z" fill="#2D3E50"/>
</svg>
