<svg width="24" height="24" viewBox="0 0 24 24" fill="none" xmlns="http://www.w3.org/2000/svg">
<path d="M22.4838 9.50044H20.2404L18.8929 6.15403C18.3696 4.8525 17.1071 4 15.7046 4H8.29509C6.89259 4 5.63016 4.8525 5.10637 6.1536L3.75887 9.50001H1.5159C1.18031 9.50001 0.934101 9.8154 1.01574 10.1407L1.27356 11.1719C1.30151 11.2834 1.36589 11.3824 1.4565 11.4532C1.54711 11.5239 1.65875 11.5624 1.77371 11.5625H2.25969C1.90391 12.1709 1.68734 12.8692 1.68734 13.6246V19.4688C1.68734 20.0381 2.14926 20.5 2.7186 20.5H3.4061C3.97543 20.5 4.43735 20.0381 4.43735 19.4688V18.4375H19.5624V19.4688C19.5624 20.0381 20.0243 20.5 20.5936 20.5H21.2811C21.8505 20.5 22.3124 20.0381 22.3124 19.4688V13.625C22.3124 12.8692 22.0958 12.1709 21.7405 11.5629H22.2264C22.4632 11.5629 22.6694 11.4018 22.7266 11.1724L22.9844 10.1411C23.0656 9.8154 22.8194 9.50044 22.4838 9.50044ZM7.01977 6.92403C7.23032 6.40067 7.73091 6.0625 8.29509 6.0625H15.7046C16.2688 6.0625 16.7694 6.40067 16.9799 6.92403L18.0168 9.49958H5.98294L7.01977 6.92403ZM20.2499 15.6875C20.2499 16.0665 19.9414 16.375 19.5624 16.375H4.43735C4.05836 16.375 3.74985 16.0665 3.74985 15.6875V13.625C3.74985 12.4876 4.67497 11.5625 5.81235 11.5625H18.1874C19.3248 11.5625 20.2499 12.4876 20.2499 13.625V15.6875ZM6.49985 12.5933C5.67485 12.5933 5.12485 13.1416 5.12485 13.9645C5.12485 14.7873 5.67485 15.3356 6.49985 15.3356C7.32485 15.3356 8.56235 15.4727 8.56235 14.6498C8.56235 13.8274 7.32485 12.5933 6.49985 12.5933ZM17.4999 12.5933C16.6749 12.5933 15.4374 13.8274 15.4374 14.6498C15.4374 15.4727 16.6749 15.3356 17.4999 15.3356C18.3249 15.3356 18.8749 14.7873 18.8749 13.9645C18.8749 13.142 18.3249 12.5933 17.4999 12.5933Z" fill="#2D3E50"/>
</svg>
