<svg width="12" height="12" viewBox="0 0 12 12" fill="none" xmlns="http://www.w3.org/2000/svg">
<path d="M11.2419 4.75022H10.1202L9.44646 3.07701C9.18478 2.42625 8.55357 2 7.85231 2H4.14754C3.44629 2 2.81508 2.42625 2.55319 3.0768L1.87944 4.75H0.75795C0.590156 4.75 0.467051 4.9077 0.507871 5.07034L0.636778 5.58596C0.650753 5.64172 0.682946 5.69121 0.72825 5.72659C0.773554 5.76197 0.829374 5.78121 0.886856 5.78126H1.12984C0.951954 6.08547 0.843672 6.4346 0.843672 6.81229V9.73439C0.843672 10.0191 1.07463 10.25 1.3593 10.25H1.70305C1.98772 10.25 2.21867 10.0191 2.21867 9.73439V9.21876H9.78118V9.73439C9.78118 10.0191 10.0121 10.25 10.2968 10.25H10.6406C10.9252 10.25 11.1562 10.0191 11.1562 9.73439V6.81251C11.1562 6.4346 11.0479 6.08547 10.8702 5.78147H11.1132C11.2316 5.78147 11.3347 5.7009 11.3633 5.58618L11.4922 5.07055C11.5328 4.9077 11.4097 4.75022 11.2419 4.75022ZM3.50989 3.46201C3.61516 3.20033 3.86545 3.03125 4.14754 3.03125H7.85231C8.1344 3.03125 8.3847 3.20033 8.48997 3.46201L9.00839 4.74979H2.99147L3.50989 3.46201ZM10.1249 7.84376C10.1249 8.03325 9.97068 8.18751 9.78118 8.18751H2.21867C2.02918 8.18751 1.87492 8.03325 1.87492 7.84376V6.81251C1.87492 6.24381 2.33748 5.78126 2.90617 5.78126H9.09368C9.66238 5.78126 10.1249 6.24381 10.1249 6.81251V7.84376ZM3.24993 6.29667C2.83742 6.29667 2.56242 6.57081 2.56242 6.98223C2.56242 7.39366 2.83742 7.6678 3.24993 7.6678C3.66243 7.6678 4.28118 7.73634 4.28118 7.32491C4.28118 6.9137 3.66243 6.29667 3.24993 6.29667ZM8.74993 6.29667C8.33743 6.29667 7.71868 6.9137 7.71868 7.32491C7.71868 7.73634 8.33743 7.6678 8.74993 7.6678C9.16243 7.6678 9.43743 7.39366 9.43743 6.98223C9.43743 6.57102 9.16243 6.29667 8.74993 6.29667Z" fill="#2D3E50"/>
</svg>
