<svg width="12" height="12" viewBox="0 0 12 12" fill="none" xmlns="http://www.w3.org/2000/svg">
<path fill-rule="evenodd" clip-rule="evenodd" d="M0.549988 3.5C0.549988 2.69918 1.19917 2.05 1.99999 2.05H9.99998C10.8008 2.05 11.45 2.69918 11.45 3.5V4.5V8.5C11.45 9.3008 10.8008 9.95 9.99998 9.95H1.99999C1.19917 9.95 0.549988 9.3008 0.549988 8.5V4.5V3.5ZM1.99999 2.95C1.69623 2.95 1.44999 3.19624 1.44999 3.5V4.05H10.55V3.5C10.55 3.19624 10.3037 2.95 9.99998 2.95H1.99999ZM10.55 4.95H1.44999V8.5C1.44999 8.80375 1.69623 9.05 1.99999 9.05H9.99998C10.3037 9.05 10.55 8.80375 10.55 8.5V4.95ZM6.54998 7.5C6.54998 7.25145 6.75148 7.05 6.99998 7.05H8.99998C9.24853 7.05 9.44998 7.25145 9.44998 7.5C9.44998 7.74855 9.24853 7.95 8.99998 7.95H6.99998C6.75148 7.95 6.54998 7.74855 6.54998 7.5Z" fill="#2D3E50"/>
</svg>
