<svg width="24" height="24" viewBox="0 0 24 24" fill="none" xmlns="http://www.w3.org/2000/svg">
<path fill-rule="evenodd" clip-rule="evenodd" d="M1.10004 7C1.10004 5.39837 2.39841 4.1 4.00004 4.1H20C21.6016 4.1 22.9 5.39837 22.9 7V9V17C22.9 18.6016 21.6016 19.9 20 19.9H4.00004C2.39841 19.9 1.10004 18.6016 1.10004 17V9V7ZM4.00004 5.9C3.39252 5.9 2.90004 6.39249 2.90004 7V8.1H21.1V7C21.1 6.39249 20.6075 5.9 20 5.9H4.00004ZM21.1 9.9H2.90004V17C2.90004 17.6075 3.39252 18.1 4.00004 18.1H20C20.6075 18.1 21.1 17.6075 21.1 17V9.9ZM13.1 15C13.1 14.5029 13.503 14.1 14 14.1H18C18.4971 14.1 18.9 14.5029 18.9 15C18.9 15.4971 18.4971 15.9 18 15.9H14C13.503 15.9 13.1 15.4971 13.1 15Z" fill="#2D3E50"/>
</svg>
