<svg width="16" height="16" viewBox="0 0 16 16" fill="none" xmlns="http://www.w3.org/2000/svg">
<path fill-rule="evenodd" clip-rule="evenodd" d="M0.733337 4.66667C0.733337 3.59891 1.59892 2.73333 2.66667 2.73333H13.3333C14.4011 2.73333 15.2667 3.59891 15.2667 4.66667V6V11.3333C15.2667 12.4011 14.4011 13.2667 13.3333 13.2667H2.66667C1.59892 13.2667 0.733337 12.4011 0.733337 11.3333V6V4.66667ZM2.66667 3.93333C2.26166 3.93333 1.93334 4.26166 1.93334 4.66667V5.4H14.0667V4.66667C14.0667 4.26166 13.7383 3.93333 13.3333 3.93333H2.66667ZM14.0667 6.6H1.93334V11.3333C1.93334 11.7383 2.26166 12.0667 2.66667 12.0667H13.3333C13.7383 12.0667 14.0667 11.7383 14.0667 11.3333V6.6ZM8.73333 10C8.73333 9.6686 9.002 9.4 9.33333 9.4H12C12.3314 9.4 12.6 9.6686 12.6 10C12.6 10.3314 12.3314 10.6 12 10.6H9.33333C9.002 10.6 8.73333 10.3314 8.73333 10Z" fill="#2D3E50"/>
</svg>
