<svg width="12" height="12" viewBox="0 0 12 12" fill="none" xmlns="http://www.w3.org/2000/svg">
<path d="M1.7364 2.61755H2.60003V2.06793C2.60003 1.95801 2.6364 1.86641 2.71822 1.79313C2.79094 1.71984 2.88185 1.67404 2.99094 1.67404H4.17276C4.27276 1.6832 4.35458 1.71984 4.4364 1.79313C4.50913 1.86641 4.55458 1.95801 4.55458 2.05877V2.60839H7.62731V2.05877C7.6364 1.94885 7.67276 1.86641 7.75458 1.79313C7.82731 1.71984 7.91822 1.6832 8.02731 1.67404H9.19094C9.30004 1.67404 9.39095 1.71068 9.46367 1.79313C9.5364 1.86641 9.58185 1.95801 9.58185 2.06793V2.61755H10.4455H10.4546H10.4637C10.6364 2.61755 10.7909 2.68168 10.9091 2.80992C11.0273 2.93816 11.1 3.08473 11.1 3.25877V3.26793V3.2771V9.54274C11.1 9.71679 11.0364 9.87252 10.9091 10.0008C10.7819 10.129 10.6273 10.1931 10.4546 10.1931H1.7364C1.56367 10.1931 1.40912 10.129 1.28185 10.0008C1.15458 9.87252 1.09094 9.72595 1.09094 9.54274V3.26793V3.25877V3.24961C1.09094 3.07557 1.15458 2.91984 1.28185 2.80076C1.40912 2.67251 1.55458 2.60839 1.72731 2.60839H1.7364V2.61755ZM4.30003 2.05877C4.30003 2.02213 4.29094 1.98549 4.26367 1.96717C4.2364 1.93969 4.20913 1.93053 4.18185 1.92137H3.00003C2.96367 1.93053 2.92731 1.94885 2.90912 1.96717C2.88185 1.99465 2.87276 2.02213 2.86367 2.05877V2.60839H4.30913V2.05877H4.30003ZM9.32731 2.05877C9.31822 2.02213 9.30004 1.98549 9.28185 1.96717C9.25458 1.93969 9.22731 1.93053 9.19094 1.92137H8.02731C7.99095 1.92137 7.95458 1.93053 7.92731 1.95801C7.90004 1.98549 7.88185 2.01297 7.88185 2.05877V2.60839H9.32731V2.05877ZM1.34549 9.54274C1.34549 9.65267 1.38185 9.74427 1.46367 9.82671C1.54549 9.90916 1.6364 9.9458 1.74549 9.9458H10.4455C10.5546 9.9458 10.6455 9.90916 10.7273 9.82671C10.8091 9.74427 10.8455 9.65267 10.8455 9.54274V3.26793V3.25877V3.24961C10.8455 3.13969 10.8091 3.04809 10.7273 2.9748C10.6546 2.90152 10.5637 2.85572 10.4546 2.85572H10.4455H10.4364H1.7364H1.72731C1.61822 2.85572 1.52731 2.89236 1.45458 2.9748C1.38185 3.04809 1.3364 3.13969 1.3364 3.24961V3.25877V3.26793V9.54274H1.34549ZM3.10003 4.05572H3.92731C3.97276 4.05572 4.00913 4.07404 4.04549 4.11068C4.07276 4.14732 4.09094 4.18397 4.09094 4.22977C4.10003 4.22977 4.10003 4.22977 4.10003 4.23893V4.24809C4.10003 4.29389 4.08185 4.33053 4.05458 4.36717C4.02731 4.39465 3.98185 4.41297 3.9364 4.41297L3.92731 4.40381L3.91822 4.39465H3.09094C3.04549 4.39465 3.00912 4.37633 2.97276 4.34885C2.9364 4.32137 2.91822 4.27557 2.91822 4.22977C2.92731 4.18397 2.94549 4.14732 2.97276 4.11068C3.00912 4.0832 3.04549 4.06488 3.10003 4.05572ZM8.25458 4.0832H8.50913V3.82671V3.81755V3.80839C8.50913 3.77175 8.52731 3.73511 8.55458 3.70763C8.58185 3.68015 8.61822 3.66183 8.65458 3.66183H8.66367H8.67276C8.71822 3.66183 8.75458 3.68015 8.79095 3.71679C8.81822 3.75343 8.8364 3.79007 8.8364 3.83587V4.09236H9.09095C9.1364 4.09236 9.17276 4.10152 9.20913 4.129C9.2364 4.15648 9.25458 4.19313 9.26367 4.23893C9.26367 4.28473 9.24549 4.32137 9.20913 4.35801C9.17276 4.38549 9.1364 4.40381 9.09095 4.40381H8.8364V4.6603C8.8364 4.7061 8.81822 4.74274 8.79095 4.77939C8.76367 4.81603 8.71822 4.83435 8.67276 4.83435H8.66367H8.65458C8.61822 4.83435 8.58185 4.81603 8.55458 4.78855C8.52731 4.76106 8.50913 4.72442 8.50913 4.68778V4.67862V4.6603V4.40381H8.25458L8.24549 4.41297L8.2364 4.42213C8.19094 4.42213 8.15458 4.40381 8.11822 4.37633C8.09095 4.34885 8.07276 4.30305 8.07276 4.25725V4.24809C8.07276 4.24809 8.07276 4.24809 8.08185 4.23893C8.08185 4.19313 8.09095 4.15648 8.11822 4.129C8.14549 4.10152 8.18185 4.09236 8.22731 4.09236H8.25458V4.0832Z" fill="#2D3E50"/>
<mask id="mask0" mask-type="alpha" maskUnits="userSpaceOnUse" x="1" y="1" width="11" height="10">
<path d="M11.1818 1.5H1V10.2939H11.1818V1.5Z" fill="white"/>
<path d="M1.73634 2.61755H2.59997V2.06793C2.59997 1.95801 2.63634 1.86641 2.71815 1.79313C2.79088 1.71984 2.88179 1.67404 2.99088 1.67404H4.1727C4.2727 1.6832 4.35452 1.71984 4.43634 1.79313C4.50906 1.86641 4.55452 1.95801 4.55452 2.05877V2.60839H7.62725V2.05877C7.63634 1.94885 7.6727 1.86641 7.75452 1.79313C7.82725 1.71984 7.91816 1.6832 8.02725 1.67404H9.19088C9.29998 1.67404 9.39088 1.71068 9.46361 1.79313C9.53634 1.86641 9.58179 1.95801 9.58179 2.06793V2.61755H10.4454H10.4545H10.4636C10.6363 2.61755 10.7909 2.68168 10.9091 2.80992C11.0272 2.93816 11.1 3.08473 11.1 3.25877V3.26793V3.27709V9.54274C11.1 9.71679 11.0363 9.87251 10.9091 10.0008C10.7818 10.129 10.6272 10.1931 10.4545 10.1931H1.73634C1.56361 10.1931 1.40906 10.129 1.28179 10.0008C1.15452 9.87251 1.09088 9.72595 1.09088 9.54274V3.26793V3.25877V3.24961C1.09088 3.07557 1.15452 2.91984 1.28179 2.80076C1.40906 2.67251 1.55452 2.60839 1.72725 2.60839H1.73634V2.61755ZM4.29997 2.05877C4.29997 2.02213 4.29088 1.98549 4.26361 1.96717C4.23634 1.93969 4.20906 1.93053 4.18179 1.92137H2.99997C2.96361 1.93053 2.92725 1.94885 2.90906 1.96717C2.88179 1.99465 2.8727 2.02213 2.86361 2.05877V2.60839H4.30906V2.05877H4.29997ZM9.32725 2.05877C9.31816 2.02213 9.29998 1.98549 9.28179 1.96717C9.25452 1.93969 9.22725 1.93053 9.19088 1.92137H8.02725C7.99088 1.92137 7.95452 1.93053 7.92725 1.95801C7.89997 1.98549 7.88179 2.01297 7.88179 2.05877V2.60839H9.32725V2.05877ZM1.34543 9.54274C1.34543 9.65267 1.38179 9.74427 1.46361 9.82671C1.54543 9.90915 1.63634 9.9458 1.74543 9.9458H10.4454C10.5545 9.9458 10.6454 9.90915 10.7272 9.82671C10.8091 9.74427 10.8454 9.65267 10.8454 9.54274V3.26793V3.25877V3.24961C10.8454 3.13969 10.8091 3.04809 10.7272 2.9748C10.6545 2.90152 10.5636 2.85572 10.4545 2.85572H10.4454H10.4363H1.73634H1.72725C1.61815 2.85572 1.52725 2.89236 1.45452 2.9748C1.38179 3.04809 1.33634 3.13969 1.33634 3.24961V3.25877V3.26793V9.54274H1.34543ZM3.09997 4.05572H3.92725C3.9727 4.05572 4.00906 4.07404 4.04543 4.11068C4.0727 4.14732 4.09088 4.18396 4.09088 4.22977C4.09997 4.22977 4.09997 4.22977 4.09997 4.23893V4.24809C4.09997 4.29389 4.08179 4.33053 4.05452 4.36717C4.02725 4.39465 3.98179 4.41297 3.93634 4.41297L3.92725 4.40381L3.91815 4.39465H3.09088C3.04543 4.39465 3.00906 4.37633 2.9727 4.34885C2.93634 4.32137 2.91815 4.27557 2.91815 4.22977C2.92725 4.18396 2.94543 4.14732 2.9727 4.11068C3.00906 4.0832 3.04543 4.06488 3.09997 4.05572ZM8.25452 4.0832H8.50907V3.82671V3.81755V3.80839C8.50907 3.77175 8.52725 3.73511 8.55452 3.70763C8.58179 3.68015 8.61816 3.66183 8.65452 3.66183H8.66361H8.6727C8.71816 3.66183 8.75452 3.68015 8.79088 3.71679C8.81816 3.75343 8.83634 3.79007 8.83634 3.83587V4.09236H9.09088C9.13634 4.09236 9.1727 4.10152 9.20907 4.129C9.23634 4.15648 9.25452 4.19313 9.26361 4.23893C9.26361 4.28473 9.24543 4.32137 9.20907 4.35801C9.1727 4.38549 9.13634 4.40381 9.09088 4.40381H8.83634V4.6603C8.83634 4.7061 8.81816 4.74274 8.79088 4.77938C8.76361 4.81603 8.71816 4.83435 8.6727 4.83435H8.66361H8.65452C8.61816 4.83435 8.58179 4.81603 8.55452 4.78855C8.52725 4.76106 8.50907 4.72442 8.50907 4.68778V4.67862V4.6603V4.40381H8.25452L8.24543 4.41297L8.23634 4.42213C8.19088 4.42213 8.15452 4.40381 8.11816 4.37633C8.09088 4.34885 8.0727 4.30305 8.0727 4.25725V4.24809C8.0727 4.24809 8.0727 4.24809 8.08179 4.23893C8.08179 4.19313 8.09088 4.15648 8.11816 4.129C8.14543 4.10152 8.18179 4.09236 8.22725 4.09236H8.25452V4.0832Z" fill="black"/>
</mask>
<g mask="url(#mask0)">
<path d="M10.4455 10.2939H1.73636C1.53636 10.2939 1.36364 10.2206 1.21818 10.074C1.07273 9.92748 1 9.75343 1 9.5519V3.25877C1 3.05725 1.07273 2.8832 1.21818 2.7458C1.36364 2.59923 1.53636 2.52595 1.73636 2.52595H2.51818V2.06793C2.51818 1.93969 2.56364 1.82061 2.65455 1.729C2.74545 1.6374 2.86364 1.5916 2.99091 1.5916H4.17273C4.3 1.60076 4.40909 1.64656 4.5 1.73816C4.59091 1.82977 4.64545 1.93969 4.64545 2.07709V2.53511H7.53636V2.07709C7.54545 1.93969 7.6 1.82977 7.69091 1.73816C7.78182 1.64656 7.89091 1.60076 8.01818 1.5916H9.18182C9.30909 1.5916 9.42727 1.6374 9.51818 1.729C9.60909 1.82061 9.65455 1.93969 9.65455 2.06793V2.52595H10.4364C10.6364 2.52595 10.8091 2.59923 10.9545 2.7458C11.1 2.89236 11.1727 3.06641 11.1727 3.25877V9.54274C11.1727 9.74427 11.1 9.91832 10.9545 10.0649C10.8182 10.2206 10.6364 10.2939 10.4455 10.2939ZM1.73636 2.70916C1.58182 2.70916 1.45455 2.76412 1.34545 2.87404C1.23636 2.98397 1.18182 3.10305 1.18182 3.25877V9.54274C1.18182 9.69847 1.23636 9.82671 1.34545 9.93664C1.45455 10.0466 1.58182 10.1015 1.73636 10.1015H10.4364C10.5909 10.1015 10.7182 10.0466 10.8273 9.93664C10.9364 9.82671 10.9909 9.69847 10.9909 9.54274V3.25877C10.9909 3.10305 10.9364 2.98397 10.8273 2.87404C10.7182 2.76412 10.5909 2.70916 10.4455 2.70916H9.48182V2.06793C9.48182 1.98549 9.45455 1.92137 9.39091 1.85725C9.33636 1.80229 9.26364 1.76564 9.18182 1.76564H8.02727C7.94546 1.7748 7.87273 1.80229 7.81818 1.85725C7.75455 1.91221 7.72727 1.98549 7.71818 2.06793V2.7H4.46364V2.05877C4.46364 1.97633 4.43636 1.91221 4.38182 1.85725C4.31818 1.80229 4.25455 1.76564 4.17273 1.76564H2.99091C2.90909 1.76564 2.83636 1.79313 2.78182 1.85725C2.72727 1.91221 2.69091 1.98549 2.69091 2.06793V2.70916H1.73636ZM10.4455 10.0374H1.73636C1.60909 10.0374 1.49091 9.9916 1.39091 9.89084C1.29091 9.79007 1.24545 9.68015 1.24545 9.54274V3.25877C1.24545 3.13053 1.29091 3.01145 1.38182 2.91984C1.47273 2.82824 1.59091 2.78244 1.71818 2.78244H10.4455C10.5727 2.78244 10.6909 2.82824 10.7818 2.91984C10.8727 3.01145 10.9182 3.13053 10.9182 3.25877V9.54274C10.9182 9.67099 10.8727 9.79007 10.7727 9.89084C10.6727 9.9916 10.5727 10.0374 10.4455 10.0374ZM1.72727 2.95648C1.64545 2.95648 1.57273 2.98397 1.51818 3.04809C1.46364 3.10305 1.42727 3.17633 1.42727 3.25877V9.54274C1.42727 9.62519 1.45455 9.69847 1.51818 9.76259C1.58182 9.82671 1.65455 9.85419 1.73636 9.85419H10.4364C10.5182 9.85419 10.5909 9.82671 10.6545 9.76259C10.7182 9.69847 10.7455 9.62519 10.7455 9.54274V3.25877C10.7455 3.17633 10.7182 3.11221 10.6545 3.04809C10.6 2.99313 10.5273 2.95648 10.4455 2.95648H1.72727ZM8.67273 4.90763H8.65455C8.59091 4.90763 8.53636 4.88015 8.49091 4.83435C8.44546 4.78854 8.41818 4.72442 8.41818 4.66946V4.48625H8.3L8.25455 4.49542C8.18182 4.49542 8.12727 4.46793 8.07273 4.42213C8.02727 4.37633 8 4.31221 8 4.23893V4.18396L8.01818 4.1748C8.02727 4.11984 8.05455 4.0832 8.08182 4.05572C8.10909 4.02824 8.16364 3.9916 8.25455 3.9916H8.42727V3.80839C8.42727 3.74427 8.45455 3.68931 8.5 3.64351C8.54545 3.59771 8.60909 3.57022 8.66364 3.57022H8.68182C8.75455 3.57022 8.81818 3.59771 8.86364 3.65267C8.90909 3.70763 8.93636 3.76259 8.93636 3.83587V4.00076H9.09091C9.15455 4.00076 9.21818 4.01908 9.26364 4.06488C9.30909 4.10152 9.33636 4.15648 9.35455 4.22977V4.24809C9.35455 4.32137 9.32727 4.38549 9.27273 4.43129C9.21818 4.47709 9.16364 4.50458 9.09091 4.50458H8.92727V4.66946C8.92727 4.74274 8.9 4.79771 8.85455 4.85267C8.80909 4.88015 8.74545 4.90763 8.67273 4.90763ZM8.25455 4.29389H8.6V4.65114C8.6 4.66946 8.6 4.67862 8.61818 4.69694C8.63636 4.71526 8.64545 4.71526 8.65455 4.71526H8.67273C8.69091 4.71526 8.70909 4.7061 8.71818 4.69694C8.73636 4.67862 8.73636 4.6603 8.73636 4.64198V4.29389H9.09091C9.11818 4.29389 9.13636 4.28473 9.15455 4.27557C9.16364 4.26641 9.17273 4.24809 9.17273 4.23893C9.16364 4.21145 9.15455 4.20229 9.14545 4.19313C9.13636 4.18396 9.11818 4.1748 9.09091 4.1748H8.74545V3.82671C8.74545 3.79923 8.73636 3.78091 8.72727 3.77175C8.71818 3.75343 8.7 3.75343 8.68182 3.75343H8.66364C8.65455 3.75343 8.64545 3.75343 8.62727 3.77175C8.60909 3.79007 8.60909 3.79923 8.60909 3.80839V4.1748H8.26364C8.22727 4.1748 8.21818 4.18396 8.21818 4.18396C8.21818 4.18396 8.20909 4.19313 8.20909 4.22977V4.28473L8.21818 4.29389C8.22727 4.30305 8.23636 4.30305 8.24545 4.31221L8.25455 4.29389ZM3.93636 4.49542H3.9L3.89091 4.48625H3.1C3.02727 4.48625 2.97273 4.45877 2.91818 4.41297C2.86364 4.36717 2.83636 4.30305 2.83636 4.22977V4.21145C2.84545 4.14732 2.87273 4.09236 2.91818 4.04656C2.96364 4.00076 3.01818 3.97328 3.08182 3.96412H3.1H3.92727C4 3.96412 4.06364 3.9916 4.10909 4.04656C4.14545 4.0832 4.16364 4.129 4.17273 4.18396C4.18182 4.20229 4.19091 4.22061 4.19091 4.23893C4.19091 4.31221 4.16364 4.37633 4.11818 4.42213C4.07273 4.46793 4.00909 4.49542 3.93636 4.49542ZM3.01818 4.23893C3.01818 4.25725 3.02727 4.26641 3.03636 4.27557C3.05455 4.29389 3.07273 4.29389 3.1 4.29389H3.97273L3.98182 4.30305C3.99091 4.30305 3.99091 4.29389 4 4.29389L4.00909 4.28473V4.22977C4.00909 4.20229 4 4.18396 3.99091 4.1748C3.98182 4.15648 3.96364 4.15648 3.94545 4.15648H3.11818C3.09091 4.16564 3.07273 4.1748 3.06364 4.18396C3.02727 4.19313 3.01818 4.21145 3.01818 4.23893ZM9.41818 2.70916H7.79091V2.06793C7.79091 2.00381 7.81818 1.94885 7.86364 1.90305C7.90909 1.86641 7.96364 1.83893 8.02727 1.83893H9.20909C9.26364 1.84809 9.30909 1.87557 9.34546 1.91221C9.38182 1.94885 9.40909 1.99465 9.41818 2.04961V2.06793V2.70916ZM7.97273 2.52595H9.23636V2.07709C9.23636 2.05877 9.22727 2.04961 9.21818 2.04045C9.20909 2.03129 9.2 2.02213 9.18182 2.02213H8.02727C8.00909 2.02213 8 2.03129 7.98182 2.04045C7.97273 2.04961 7.96364 2.05877 7.96364 2.06793V2.52595H7.97273ZM4.39091 2.70916H2.76364V2.04961C2.77273 1.99465 2.8 1.94885 2.83636 1.91221C2.87273 1.87557 2.91818 1.84809 2.97273 1.83893H2.99091H4.2C4.24545 1.84809 4.28182 1.87557 4.31818 1.90305C4.36364 1.93969 4.39091 2.00381 4.39091 2.06793V2.70916ZM2.94545 2.52595H4.20909V2.06793C4.20909 2.04961 4.20909 2.04961 4.2 2.04961C4.19091 2.04045 4.17273 2.03129 4.16364 2.02213H3C2.98182 2.02213 2.97273 2.03129 2.96364 2.04045C2.95455 2.04961 2.94545 2.05877 2.94545 2.07709V2.52595Z" fill="#2D3E50"/>
</g>
</svg>
