<svg width="16" height="16" viewBox="0 0 16 16" fill="none" xmlns="http://www.w3.org/2000/svg">
<path d="M15.3334 4.40667V13.5081C15.3044 13.6145 15.2844 13.7241 15.2464 13.827C15.0696 14.2939 14.662 14.5591 14.1276 14.5594H1.85828C1.8293 14.5594 1.80031 14.5594 1.77132 14.5594C1.52874 14.5508 1.29535 14.4645 1.10558 14.3131C0.915814 14.1618 0.77973 13.9534 0.717412 13.7188C0.699441 13.6496 0.683499 13.58 0.666687 13.5104V4.40899C0.679467 4.37298 0.689924 4.33619 0.697991 4.29884C0.782629 3.76406 1.19451 3.38638 1.73335 3.36348C2.03161 3.35101 2.33074 3.3571 2.62959 3.35565C2.84524 3.35565 2.84524 3.35565 2.84524 3.14667C2.84524 3.01159 2.84524 2.87681 2.84524 2.74087C2.84775 2.58078 2.90198 2.42579 2.99983 2.29905C3.09767 2.17232 3.23389 2.08063 3.38814 2.03768C3.41863 2.02694 3.44844 2.01436 3.47741 2H5.33248C5.3574 2.01339 5.38326 2.02492 5.40988 2.03449C5.79277 2.14261 5.99364 2.40783 5.99451 2.80783C5.99451 2.92377 5.99451 3.03971 5.99451 3.15565C5.99451 3.3542 5.99451 3.35507 6.19017 3.35507H9.79712C9.83103 3.35507 9.86466 3.35275 9.89857 3.35507C9.97857 3.35855 10.009 3.32174 10.007 3.24145C10.0032 3.08725 10.0047 2.93275 10.007 2.77768C10.0107 2.48029 10.1539 2.26348 10.407 2.11971C10.4971 2.06841 10.6003 2.04 10.6968 2.00087H12.4939C12.5148 2.01237 12.5366 2.02207 12.5592 2.02986C12.9452 2.12928 13.1542 2.3942 13.1557 2.78899C13.1557 2.9287 13.1629 3.06899 13.1536 3.20783C13.1461 3.32377 13.1913 3.35768 13.3018 3.3571C13.6339 3.35478 13.9667 3.35072 14.2983 3.3658C14.771 3.38783 15.1789 3.73855 15.2881 4.1971C15.3044 4.26667 15.318 4.33681 15.3334 4.40667ZM8.00147 4.09536C5.96359 4.09536 3.92553 4.09536 1.88727 4.09536C1.53944 4.09536 1.41799 4.22029 1.41799 4.56928C1.41799 7.49604 1.41799 10.4227 1.41799 13.3493C1.41799 13.6713 1.56698 13.8249 1.88466 13.8249C5.96562 13.8249 10.0466 13.8249 14.1276 13.8249C14.4278 13.8249 14.5815 13.6687 14.5815 13.3678C14.5815 10.4268 14.5815 7.48551 14.5815 4.54406C14.5834 4.49558 14.5805 4.44703 14.5728 4.39913C14.5319 4.19478 14.3815 4.09478 14.1154 4.09478L8.00147 4.09536ZM3.58611 3.34464H5.25712C5.25712 3.16667 5.26147 2.99826 5.25277 2.83101C5.25132 2.80348 5.19306 2.75681 5.1606 2.75623C4.66862 2.75159 4.17664 2.75159 3.68466 2.75623C3.65132 2.75623 3.59248 2.8113 3.59074 2.84319C3.58089 3.00696 3.58611 3.17043 3.58611 3.34464ZM12.4136 3.34609C12.4136 3.16493 12.4183 3.00145 12.4096 2.83826C12.4035 2.81855 12.3925 2.80073 12.3776 2.78647C12.3626 2.77222 12.3443 2.76201 12.3244 2.75681C11.8274 2.75198 11.3305 2.75198 10.8336 2.75681C10.8047 2.75681 10.7487 2.79855 10.7467 2.8229C10.7392 2.9942 10.7426 3.16638 10.7426 3.34667L12.4136 3.34609Z" fill="#2D3E50"/>
<path d="M12.1223 6.28147C12.0577 6.7322 11.9545 6.86466 11.6791 6.8722C11.5252 6.87625 11.3893 6.82379 11.3255 6.69104C11.2675 6.57104 11.2554 6.42843 11.2203 6.28524C11.1931 6.28524 11.151 6.28524 11.109 6.28524C10.84 6.29307 10.6565 6.12437 10.6452 5.85886C10.6368 5.63828 10.8264 5.45452 11.0774 5.4548C11.1997 5.4548 11.2609 5.43481 11.2554 5.28959C11.2455 5.02872 11.4116 4.85249 11.6455 4.8464C11.9084 4.83944 12.098 5.00727 12.1015 5.27973C12.1032 5.4206 12.1455 5.4577 12.2817 5.45654C12.335 5.45421 12.3882 5.46261 12.4382 5.48126C12.4882 5.49991 12.5339 5.52841 12.5726 5.56508C12.6113 5.60175 12.6423 5.64584 12.6636 5.69471C12.685 5.74359 12.6962 5.79626 12.6968 5.84959C12.7029 6.07249 12.5412 6.24263 12.302 6.26495C12.242 6.27104 12.1806 6.27625 12.1223 6.28147Z" fill="#2D3E50"/>
<path d="M4.3458 5.42435C4.54869 5.42435 4.75159 5.41739 4.95275 5.42638C5.17362 5.43594 5.36696 5.67072 5.35275 5.89594C5.3455 6.00283 5.29755 6.10288 5.21878 6.17551C5.14001 6.24813 5.0364 6.28781 4.92927 6.28637C4.53449 6.28261 4.13942 6.27826 3.74464 6.26956C3.48696 6.26377 3.31507 6.11072 3.30348 5.88637C3.29955 5.76957 3.34126 5.65582 3.41977 5.56925C3.49828 5.48267 3.60742 5.43008 3.72406 5.42261C3.73362 5.42261 3.74319 5.42116 3.75304 5.42116H4.34609L4.3458 5.42435Z" fill="#2D3E50"/>
</svg>
