<svg width="24" height="24" viewBox="0 0 24 24" fill="none" xmlns="http://www.w3.org/2000/svg">
<path d="M23 6.61V20.2622C22.9565 20.4217 22.9265 20.5861 22.8696 20.7404C22.6043 21.4409 21.993 21.8387 21.1913 21.8391H2.78739C2.74391 21.8391 2.70043 21.8391 2.65696 21.8391C2.29308 21.8263 1.94299 21.6967 1.65834 21.4697C1.37369 21.2427 1.16956 20.9302 1.07609 20.5783C1.04913 20.4743 1.02522 20.37 1 20.2657V6.61348C1.01917 6.55947 1.03485 6.50428 1.04696 6.44826C1.17391 5.64609 1.79174 5.07956 2.6 5.04522C3.04739 5.02652 3.49609 5.03565 3.94435 5.03348C4.26783 5.03348 4.26783 5.03348 4.26783 4.72C4.26783 4.51739 4.26783 4.31522 4.26783 4.1113C4.2716 3.87116 4.35294 3.63868 4.49971 3.44858C4.64648 3.25848 4.85081 3.12094 5.08217 3.05652C5.12791 3.04041 5.17263 3.02153 5.21609 3H7.9987C8.03606 3.02009 8.07486 3.03738 8.11478 3.05174C8.68913 3.21391 8.99043 3.61174 8.99174 4.21174C8.99174 4.38565 8.99174 4.55957 8.99174 4.73348C8.99174 5.0313 8.99174 5.03261 9.28522 5.03261H14.6957C14.7465 5.03261 14.797 5.02913 14.8478 5.03261C14.9678 5.03783 15.0135 4.98261 15.0104 4.86217C15.0048 4.63087 15.007 4.39913 15.0104 4.16652C15.0161 3.72043 15.2309 3.39522 15.6104 3.17957C15.7457 3.10261 15.9004 3.06 16.0452 3.0013H18.7409C18.7722 3.01855 18.8049 3.0331 18.8387 3.04478C19.4178 3.19391 19.7313 3.5913 19.7335 4.18348C19.7335 4.39304 19.7443 4.60348 19.7304 4.81174C19.7191 4.98565 19.787 5.03652 19.9526 5.03565C20.4509 5.03217 20.95 5.02609 21.4474 5.0487C22.1565 5.08174 22.7683 5.60783 22.9322 6.29565C22.9565 6.4 22.977 6.50522 23 6.61ZM12.0022 6.14304C8.94536 6.14304 5.88826 6.14304 2.83087 6.14304C2.30913 6.14304 2.12696 6.33043 2.12696 6.85391C2.12696 11.2441 2.12696 15.6341 2.12696 20.0239C2.12696 20.507 2.35043 20.7374 2.82696 20.7374C8.94841 20.7374 15.0699 20.7374 21.1913 20.7374C21.6417 20.7374 21.8722 20.503 21.8722 20.0517C21.8722 15.6401 21.8722 11.2283 21.8722 6.81609C21.8751 6.74337 21.8708 6.67054 21.8591 6.5987C21.7978 6.29217 21.5722 6.14217 21.173 6.14217L12.0022 6.14304ZM5.37913 5.01696H7.88565C7.88565 4.75 7.89217 4.49739 7.87913 4.24652C7.87696 4.20522 7.78957 4.13522 7.74087 4.13435C7.0029 4.12739 6.26493 4.12739 5.52696 4.13435C5.47696 4.13435 5.3887 4.21696 5.38609 4.26478C5.3713 4.51043 5.37913 4.75565 5.37913 5.01696V5.01696ZM18.6204 5.01913C18.6204 4.74739 18.6274 4.50217 18.6143 4.25739C18.6052 4.22783 18.5887 4.20109 18.5663 4.17971C18.5439 4.15833 18.5165 4.14302 18.4865 4.13522C17.741 4.12797 16.9957 4.12797 16.2504 4.13522C16.207 4.13522 16.123 4.19783 16.12 4.23435C16.1087 4.4913 16.1139 4.74957 16.1139 5.02L18.6204 5.01913Z" fill="#2D3E50"/>
<path d="M18.1835 9.42221C18.0865 10.0983 17.9317 10.297 17.5187 10.3083C17.2878 10.3144 17.0839 10.2357 16.9882 10.0366C16.9013 9.85656 16.883 9.64264 16.8304 9.42786C16.7895 9.42786 16.7265 9.42786 16.6635 9.42786C16.26 9.4396 15.9848 9.18656 15.9678 8.78829C15.9552 8.45743 16.2396 8.18177 16.6161 8.18221C16.7996 8.18221 16.8913 8.15221 16.883 7.93438C16.8682 7.54308 17.1174 7.27873 17.4682 7.2696C17.8626 7.25916 18.1469 7.5109 18.1522 7.9196C18.1548 8.1309 18.2182 8.18656 18.4226 8.18482C18.5025 8.18131 18.5823 8.19392 18.6573 8.22189C18.7322 8.24986 18.8008 8.29262 18.8589 8.34762C18.917 8.40263 18.9634 8.46876 18.9954 8.54207C19.0274 8.61538 19.0443 8.69439 19.0452 8.77438C19.0543 9.10873 18.8117 9.36395 18.453 9.39743C18.363 9.40656 18.2709 9.41438 18.1835 9.42221Z" fill="#2D3E50"/>
<path d="M6.51869 8.13653C6.82304 8.13653 7.12739 8.12609 7.42913 8.13957C7.76043 8.15392 8.05043 8.50609 8.02913 8.84392C8.01824 9.00426 7.94633 9.15433 7.82817 9.26327C7.71002 9.3722 7.55461 9.43172 7.39391 9.42957C6.80174 9.42392 6.20913 9.4174 5.61696 9.40435C5.23043 9.39566 4.97261 9.16609 4.95522 8.82957C4.94932 8.65436 5.01189 8.48374 5.12965 8.35388C5.24742 8.22402 5.41113 8.14512 5.58609 8.13392C5.60043 8.13392 5.61478 8.13174 5.62956 8.13174H6.51913L6.51869 8.13653Z" fill="#2D3E50"/>
</svg>
