<svg width="24" height="24" viewBox="0 0 24 24" fill="none" xmlns="http://www.w3.org/2000/svg">
<path d="M3.47273 5.23511H5.20001V4.13587C5.20001 3.91602 5.27273 3.73282 5.43637 3.58625C5.58182 3.43969 5.76364 3.34808 5.98183 3.34808H8.34546C8.54546 3.3664 8.7091 3.43969 8.87274 3.58625C9.01819 3.73282 9.1091 3.91602 9.1091 4.11755V5.21679H15.2546V4.11755C15.2727 3.8977 15.3455 3.73282 15.5091 3.58625C15.6546 3.43969 15.8364 3.3664 16.0546 3.34808H18.3818C18.6 3.34808 18.7818 3.42137 18.9273 3.58625C19.0727 3.73282 19.1636 3.91602 19.1636 4.13587V5.23511H20.8909H20.9091H20.9273C21.2727 5.23511 21.5818 5.36335 21.8182 5.61984C22.0546 5.87633 22.2 6.16946 22.2 6.51755V6.53587V6.55419V19.0855C22.2 19.4336 22.0727 19.745 21.8182 20.0015C21.5636 20.258 21.2546 20.3863 20.9091 20.3863H3.47273C3.12728 20.3863 2.81819 20.258 2.56364 20.0015C2.3091 19.745 2.18182 19.4519 2.18182 19.0855V6.53587V6.51755V6.49923C2.18182 6.15114 2.3091 5.83969 2.56364 5.60152C2.81819 5.34503 3.1091 5.21679 3.45455 5.21679H3.47273V5.23511ZM8.60001 4.11755C8.60001 4.04427 8.58183 3.97098 8.52728 3.93434C8.47274 3.87938 8.41819 3.86106 8.36364 3.84274H6.00001C5.92728 3.86106 5.85455 3.8977 5.81819 3.93434C5.76364 3.9893 5.74546 4.04427 5.72728 4.11755V5.21679H8.61819V4.11755H8.60001ZM18.6546 4.11755C18.6364 4.04427 18.6 3.97098 18.5636 3.93434C18.5091 3.87938 18.4546 3.86106 18.3818 3.84274H16.0546C15.9818 3.84274 15.9091 3.86106 15.8546 3.91602C15.8 3.97098 15.7636 4.02595 15.7636 4.11755V5.21679H18.6546V4.11755ZM2.69091 19.0855C2.69091 19.3053 2.76364 19.4885 2.92728 19.6534C3.09092 19.8183 3.27273 19.8916 3.49092 19.8916H20.8909C21.1091 19.8916 21.2909 19.8183 21.4546 19.6534C21.6182 19.4885 21.6909 19.3053 21.6909 19.0855V6.53587V6.51755V6.49923C21.6909 6.27938 21.6182 6.09617 21.4546 5.94961C21.3091 5.80305 21.1273 5.71144 20.9091 5.71144H20.8909H20.8727H3.47273H3.45455C3.23637 5.71144 3.05455 5.78472 2.9091 5.94961C2.76364 6.09617 2.67273 6.27938 2.67273 6.49923V6.51755V6.53587V19.0855H2.69091ZM6.20001 8.11144H7.85455C7.94546 8.11144 8.01819 8.14808 8.09092 8.22137C8.14546 8.29465 8.18183 8.36793 8.18183 8.45953C8.20001 8.45953 8.20001 8.45953 8.20001 8.47785V8.49618C8.20001 8.58778 8.16364 8.66106 8.1091 8.73434C8.05455 8.7893 7.96364 8.82595 7.87273 8.82595L7.85455 8.80763L7.83637 8.7893H6.18183C6.09092 8.7893 6.01819 8.75266 5.94546 8.6977C5.87273 8.64274 5.83637 8.55114 5.83637 8.45953C5.85455 8.36793 5.89092 8.29465 5.94546 8.22137C6.01819 8.1664 6.09092 8.12976 6.20001 8.11144ZM16.5091 8.1664H17.0182V7.65343V7.63511V7.61679C17.0182 7.5435 17.0546 7.47022 17.1091 7.41526C17.1636 7.3603 17.2364 7.32366 17.3091 7.32366H17.3273H17.3455C17.4364 7.32366 17.5091 7.3603 17.5818 7.43358C17.6364 7.50686 17.6727 7.58014 17.6727 7.67175V8.18472H18.1818C18.2727 8.18472 18.3455 8.20305 18.4182 8.25801C18.4727 8.31297 18.5091 8.38625 18.5273 8.47785C18.5273 8.56946 18.4909 8.64274 18.4182 8.71602C18.3455 8.77098 18.2727 8.80763 18.1818 8.80763H17.6727V9.3206C17.6727 9.41221 17.6364 9.48549 17.5818 9.55877C17.5273 9.63205 17.4364 9.66869 17.3455 9.66869H17.3273H17.3091C17.2364 9.66869 17.1636 9.63205 17.1091 9.57709C17.0546 9.52213 17.0182 9.44885 17.0182 9.37557V9.35724V9.3206V8.80763H16.5091L16.4909 8.82595L16.4727 8.84427C16.3818 8.84427 16.3091 8.80763 16.2364 8.75266C16.1818 8.6977 16.1455 8.6061 16.1455 8.5145V8.49618C16.1455 8.49618 16.1455 8.49617 16.1636 8.47785C16.1636 8.38625 16.1818 8.31297 16.2364 8.25801C16.2909 8.20305 16.3636 8.18472 16.4546 8.18472H16.5091V8.1664Z" fill="#2D3E50"/>
<mask id="mask0" mask-type="alpha" maskUnits="userSpaceOnUse" x="2" y="3" width="21" height="18">
<path d="M22.3636 3H2V20.5878H22.3636V3Z" fill="white"/>
<path d="M3.47273 5.23509H5.20001V4.13585C5.20001 3.91601 5.27273 3.7328 5.43637 3.58624C5.58182 3.43967 5.76364 3.34807 5.98183 3.34807H8.34546C8.54546 3.36639 8.7091 3.43967 8.87274 3.58624C9.01819 3.7328 9.1091 3.91601 9.1091 4.11753V5.21677H15.2546V4.11753C15.2727 3.89769 15.3455 3.7328 15.5091 3.58624C15.6546 3.43967 15.8364 3.36639 16.0546 3.34807H18.3818C18.6 3.34807 18.7818 3.42135 18.9273 3.58624C19.0727 3.7328 19.1636 3.91601 19.1636 4.13585V5.23509H20.8909H20.9091H20.9273C21.2727 5.23509 21.5818 5.36334 21.8182 5.61982C22.0546 5.87631 22.2 6.16944 22.2 6.51753V6.53585V6.55417V19.0855C22.2 19.4336 22.0727 19.745 21.8182 20.0015C21.5636 20.258 21.2546 20.3862 20.9091 20.3862H3.47273C3.12728 20.3862 2.81819 20.258 2.56364 20.0015C2.3091 19.745 2.18182 19.4519 2.18182 19.0855V6.53585V6.51753V6.49921C2.18182 6.15112 2.3091 5.83967 2.56364 5.6015C2.81819 5.34501 3.1091 5.21677 3.45455 5.21677H3.47273V5.23509ZM8.60001 4.11753C8.60001 4.04425 8.58183 3.97097 8.52728 3.93433C8.47274 3.87937 8.41819 3.86105 8.36364 3.84272H6.00001C5.92728 3.86105 5.85455 3.89769 5.81819 3.93433C5.76364 3.98929 5.74546 4.04425 5.72728 4.11753V5.21677H8.61819V4.11753H8.60001ZM18.6546 4.11753C18.6364 4.04425 18.6 3.97097 18.5636 3.93433C18.5091 3.87937 18.4546 3.86105 18.3818 3.84272H16.0546C15.9818 3.84272 15.9091 3.86105 15.8546 3.91601C15.8 3.97097 15.7636 4.02593 15.7636 4.11753V5.21677H18.6546V4.11753ZM2.69091 19.0855C2.69091 19.3053 2.76364 19.4885 2.92728 19.6534C3.09092 19.8183 3.27273 19.8916 3.49092 19.8916H20.8909C21.1091 19.8916 21.2909 19.8183 21.4546 19.6534C21.6182 19.4885 21.6909 19.3053 21.6909 19.0855V6.53585V6.51753V6.49921C21.6909 6.27937 21.6182 6.09616 21.4546 5.94959C21.3091 5.80303 21.1273 5.71143 20.9091 5.71143H20.8909H20.8727H3.47273H3.45455C3.23637 5.71143 3.05455 5.78471 2.9091 5.94959C2.76364 6.09616 2.67273 6.27937 2.67273 6.49921V6.51753V6.53585V19.0855H2.69091ZM6.20001 8.11143H7.85455C7.94546 8.11143 8.01819 8.14807 8.09092 8.22135C8.14546 8.29463 8.18183 8.36792 8.18183 8.45952C8.20001 8.45952 8.20001 8.45952 8.20001 8.47784V8.49616C8.20001 8.58776 8.16364 8.66105 8.1091 8.73433C8.05455 8.78929 7.96364 8.82593 7.87273 8.82593L7.85455 8.80761L7.83637 8.78929H6.18183C6.09092 8.78929 6.01819 8.75265 5.94546 8.69769C5.87273 8.64272 5.83637 8.55112 5.83637 8.45952C5.85455 8.36792 5.89092 8.29463 5.94546 8.22135C6.01819 8.16639 6.09092 8.12975 6.20001 8.11143ZM16.5091 8.16639H17.0182V7.65341V7.63509V7.61677C17.0182 7.54349 17.0546 7.47021 17.1091 7.41524C17.1636 7.36028 17.2364 7.32364 17.3091 7.32364H17.3273H17.3455C17.4364 7.32364 17.5091 7.36028 17.5818 7.43356C17.6364 7.50685 17.6727 7.58013 17.6727 7.67173V8.18471H18.1818C18.2727 8.18471 18.3455 8.20303 18.4182 8.25799C18.4727 8.31295 18.5091 8.38624 18.5273 8.47784C18.5273 8.56944 18.4909 8.64272 18.4182 8.71601C18.3455 8.77097 18.2727 8.80761 18.1818 8.80761H17.6727V9.32059C17.6727 9.41219 17.6364 9.48547 17.5818 9.55876C17.5273 9.63204 17.4364 9.66868 17.3455 9.66868H17.3273H17.3091C17.2364 9.66868 17.1636 9.63204 17.1091 9.57708C17.0546 9.52211 17.0182 9.44883 17.0182 9.37555V9.35723V9.32059V8.80761H16.5091L16.4909 8.82593L16.4727 8.84425C16.3818 8.84425 16.3091 8.80761 16.2364 8.75265C16.1818 8.69769 16.1455 8.60608 16.1455 8.51448V8.49616C16.1455 8.49616 16.1455 8.49616 16.1636 8.47784C16.1636 8.38624 16.1818 8.31295 16.2364 8.25799C16.2909 8.20303 16.3636 8.18471 16.4546 8.18471H16.5091V8.16639Z" fill="black"/>
</mask>
<g mask="url(#mask0)">
<path d="M20.8909 20.5878H3.47273C3.07273 20.5878 2.72727 20.4412 2.43636 20.1481C2.14545 19.855 2 19.5069 2 19.1038V6.51756C2 6.11451 2.14545 5.76642 2.43636 5.49161C2.72727 5.19848 3.07273 5.05191 3.47273 5.05191H5.03636V4.13588C5.03636 3.8794 5.12727 3.64123 5.30909 3.45802C5.49091 3.27482 5.72727 3.18321 5.98182 3.18321H8.34546C8.6 3.20153 8.81818 3.29314 9 3.47634C9.18182 3.65955 9.29091 3.8794 9.29091 4.1542V5.07024H15.0727V4.1542C15.0909 3.8794 15.2 3.65955 15.3818 3.47634C15.5636 3.29314 15.7818 3.20153 16.0364 3.18321H18.3636C18.6182 3.18321 18.8545 3.27482 19.0364 3.45802C19.2182 3.64123 19.3091 3.8794 19.3091 4.13588V5.05191H20.8727C21.2727 5.05191 21.6182 5.19848 21.9091 5.49161C22.2 5.78474 22.3455 6.13283 22.3455 6.51756V19.0855C22.3455 19.4886 22.2 19.8366 21.9091 20.1298C21.6364 20.4412 21.2727 20.5878 20.8909 20.5878ZM3.47273 5.41833C3.16364 5.41833 2.90909 5.52825 2.69091 5.7481C2.47273 5.96795 2.36364 6.20611 2.36364 6.51756V19.0855C2.36364 19.397 2.47273 19.6534 2.69091 19.8733C2.90909 20.0931 3.16364 20.2031 3.47273 20.2031H20.8727C21.1818 20.2031 21.4364 20.0931 21.6545 19.8733C21.8727 19.6534 21.9818 19.397 21.9818 19.0855V6.51756C21.9818 6.20611 21.8727 5.96795 21.6545 5.7481C21.4364 5.52825 21.1818 5.41833 20.8909 5.41833H18.9636V4.13588C18.9636 3.971 18.9091 3.84275 18.7818 3.71451C18.6727 3.60459 18.5273 3.5313 18.3636 3.5313H16.0545C15.8909 3.54962 15.7455 3.60459 15.6364 3.71451C15.5091 3.82443 15.4545 3.971 15.4364 4.13588V5.40001H8.92727V4.11756C8.92727 3.95268 8.87273 3.82443 8.76364 3.71451C8.63636 3.60459 8.50909 3.5313 8.34546 3.5313H5.98182C5.81818 3.5313 5.67273 3.58627 5.56364 3.71451C5.45455 3.82443 5.38182 3.971 5.38182 4.13588V5.41833H3.47273ZM20.8909 20.0748H3.47273C3.21818 20.0748 2.98182 19.9832 2.78182 19.7817C2.58182 19.5802 2.49091 19.3603 2.49091 19.0855V6.51756C2.49091 6.26108 2.58182 6.02291 2.76364 5.8397C2.94545 5.65649 3.18182 5.56489 3.43636 5.56489H20.8909C21.1455 5.56489 21.3818 5.65649 21.5636 5.8397C21.7455 6.02291 21.8364 6.26108 21.8364 6.51756V19.0855C21.8364 19.342 21.7455 19.5802 21.5455 19.7817C21.3455 19.9832 21.1455 20.0748 20.8909 20.0748ZM3.45455 5.91298C3.29091 5.91298 3.14545 5.96795 3.03636 6.09619C2.92727 6.20611 2.85455 6.35268 2.85455 6.51756V19.0855C2.85455 19.2504 2.90909 19.397 3.03636 19.5252C3.16364 19.6534 3.30909 19.7084 3.47273 19.7084H20.8727C21.0364 19.7084 21.1818 19.6534 21.3091 19.5252C21.4364 19.397 21.4909 19.2504 21.4909 19.0855V6.51756C21.4909 6.35268 21.4364 6.22443 21.3091 6.09619C21.2 5.98627 21.0545 5.91298 20.8909 5.91298H3.45455ZM17.3455 9.81527H17.3091C17.1818 9.81527 17.0727 9.76031 16.9818 9.66871C16.8909 9.57711 16.8364 9.44886 16.8364 9.33894V8.97253H16.6L16.5091 8.99085C16.3636 8.99085 16.2545 8.93588 16.1455 8.84428C16.0545 8.75268 16 8.62443 16 8.47787V8.36795L16.0364 8.34962C16.0545 8.2397 16.1091 8.16642 16.1636 8.11146C16.2182 8.05649 16.3273 7.98321 16.5091 7.98321H16.8545V7.6168C16.8545 7.48856 16.9091 7.37863 17 7.28703C17.0909 7.19543 17.2182 7.14046 17.3273 7.14046H17.3636C17.5091 7.14046 17.6364 7.19543 17.7273 7.30535C17.8182 7.41527 17.8727 7.5252 17.8727 7.67176V8.00153H18.1818C18.3091 8.00153 18.4364 8.03817 18.5273 8.12978C18.6182 8.20306 18.6727 8.31298 18.7091 8.45955V8.49619C18.7091 8.64275 18.6545 8.771 18.5455 8.8626C18.4364 8.9542 18.3273 9.00917 18.1818 9.00917H17.8545V9.33894C17.8545 9.4855 17.8 9.59543 17.7091 9.70535C17.6182 9.76031 17.4909 9.81527 17.3455 9.81527ZM16.5091 8.58779H17.2V9.3023C17.2 9.33894 17.2 9.35726 17.2364 9.3939C17.2727 9.43054 17.2909 9.43054 17.3091 9.43054H17.3455C17.3818 9.43054 17.4182 9.41222 17.4364 9.3939C17.4727 9.35726 17.4727 9.32062 17.4727 9.28398V8.58779H18.1818C18.2364 8.58779 18.2727 8.56947 18.3091 8.55115C18.3273 8.53283 18.3455 8.49619 18.3455 8.47787C18.3273 8.42291 18.3091 8.40459 18.2909 8.38627C18.2727 8.36794 18.2364 8.34962 18.1818 8.34962H17.4909V7.65344C17.4909 7.59848 17.4727 7.56184 17.4545 7.54352C17.4364 7.50688 17.4 7.50688 17.3636 7.50688H17.3273C17.3091 7.50688 17.2909 7.50688 17.2545 7.54352C17.2182 7.58016 17.2182 7.59848 17.2182 7.6168V8.34962H16.5273C16.4545 8.34962 16.4364 8.36795 16.4364 8.36795C16.4364 8.36795 16.4182 8.38627 16.4182 8.45955V8.56947L16.4364 8.58779C16.4545 8.60611 16.4727 8.60611 16.4909 8.62443L16.5091 8.58779ZM7.87273 8.99085H7.8L7.78182 8.97253H6.2C6.05455 8.97253 5.94545 8.91756 5.83636 8.82596C5.72727 8.73436 5.67273 8.60611 5.67273 8.45955V8.42291C5.69091 8.29466 5.74545 8.18474 5.83636 8.09314C5.92727 8.00153 6.03636 7.94657 6.16364 7.92825H6.2H7.85455C8 7.92825 8.12727 7.98321 8.21818 8.09314C8.29091 8.16642 8.32727 8.25802 8.34546 8.36795C8.36364 8.40459 8.38182 8.44123 8.38182 8.47787C8.38182 8.62443 8.32727 8.75268 8.23636 8.84428C8.14545 8.93588 8.01818 8.99085 7.87273 8.99085ZM6.03636 8.47787C6.03636 8.51451 6.05455 8.53283 6.07273 8.55115C6.10909 8.58779 6.14545 8.58779 6.2 8.58779H7.94546L7.96364 8.60611C7.98182 8.60611 7.98182 8.58779 8 8.58779L8.01818 8.56947V8.45955C8.01818 8.40459 8 8.36795 7.98182 8.34962C7.96364 8.31298 7.92727 8.31298 7.89091 8.31298H6.23636C6.18182 8.3313 6.14545 8.34962 6.12727 8.36795C6.05455 8.38627 6.03636 8.42291 6.03636 8.47787ZM18.8364 5.41833H15.5818V4.13588C15.5818 4.00764 15.6364 3.89772 15.7273 3.80611C15.8182 3.73283 15.9273 3.67787 16.0545 3.67787H18.4182C18.5273 3.69619 18.6182 3.75115 18.6909 3.82443C18.7636 3.89772 18.8182 3.98932 18.8364 4.09924V4.13588V5.41833ZM15.9455 5.05191H18.4727V4.1542C18.4727 4.11756 18.4545 4.09924 18.4364 4.08092C18.4182 4.0626 18.4 4.04428 18.3636 4.04428H16.0545C16.0182 4.04428 16 4.0626 15.9636 4.08092C15.9455 4.09924 15.9273 4.11756 15.9273 4.13588V5.05191H15.9455ZM8.78182 5.41833H5.52727V4.09924C5.54545 3.98932 5.6 3.89772 5.67273 3.82443C5.74545 3.75115 5.83636 3.69619 5.94545 3.67787H5.98182H8.4C8.49091 3.69619 8.56364 3.75115 8.63636 3.80611C8.72727 3.8794 8.78182 4.00764 8.78182 4.13588V5.41833ZM5.89091 5.05191H8.41818V4.13588C8.41818 4.09924 8.41818 4.09924 8.4 4.09924C8.38182 4.08092 8.34545 4.0626 8.32727 4.04428H6C5.96364 4.04428 5.94545 4.0626 5.92727 4.08092C5.90909 4.09924 5.89091 4.11756 5.89091 4.1542V5.05191Z" fill="#2D3E50"/>
</g>
</svg>
