<svg width="16" height="16" viewBox="0 0 16 16" fill="none" xmlns="http://www.w3.org/2000/svg">
<path d="M2.31514 3.49007H3.46665V2.75725C3.46665 2.61068 3.51514 2.48854 3.62423 2.39083C3.7212 2.29312 3.84241 2.23206 3.98786 2.23206H5.56362C5.69695 2.24427 5.80605 2.29312 5.91514 2.39083C6.01211 2.48854 6.07271 2.61068 6.07271 2.74503V3.47786H10.1697V2.74503C10.1818 2.59847 10.2303 2.48854 10.3394 2.39083C10.4364 2.29312 10.5576 2.24427 10.703 2.23206H12.2545C12.4 2.23206 12.5212 2.28091 12.6182 2.39083C12.7151 2.48854 12.7757 2.61068 12.7757 2.75725V3.49007H13.9273H13.9394H13.9515C14.1818 3.49007 14.3879 3.57557 14.5454 3.74656C14.703 3.91755 14.8 4.11297 14.8 4.34503V4.35725V4.36946V12.7237C14.8 12.9557 14.7151 13.1634 14.5454 13.3343C14.3757 13.5053 14.1697 13.5908 13.9394 13.5908H2.31514C2.08483 13.5908 1.87877 13.5053 1.70907 13.3343C1.53938 13.1634 1.45453 12.9679 1.45453 12.7237V4.35725V4.34503V4.33282C1.45453 4.10076 1.53938 3.89312 1.70907 3.73435C1.87877 3.56335 2.07271 3.47786 2.30301 3.47786H2.31514V3.49007ZM5.73332 2.74503C5.73332 2.69618 5.7212 2.64732 5.68483 2.6229C5.64847 2.58625 5.61211 2.57404 5.57574 2.56183H3.99998C3.9515 2.57404 3.90301 2.59847 3.87877 2.6229C3.84241 2.65954 3.83029 2.69618 3.81817 2.74503V3.47786H5.74544V2.74503H5.73332ZM12.4364 2.74503C12.4242 2.69618 12.4 2.64732 12.3757 2.6229C12.3394 2.58625 12.303 2.57404 12.2545 2.56183H10.703C10.6545 2.56183 10.606 2.57404 10.5697 2.61068C10.5333 2.64732 10.5091 2.68396 10.5091 2.74503V3.47786H12.4364V2.74503ZM1.79392 12.7237C1.79392 12.8702 1.84241 12.9924 1.9515 13.1023C2.06059 13.2122 2.1818 13.2611 2.32726 13.2611H13.9273C14.0727 13.2611 14.1939 13.2122 14.303 13.1023C14.4121 12.9924 14.4606 12.8702 14.4606 12.7237V4.35725V4.34503V4.33282C14.4606 4.18625 14.4121 4.06412 14.303 3.96641C14.206 3.8687 14.0848 3.80763 13.9394 3.80763H13.9273H13.9151H2.31514H2.30301C2.15756 3.80763 2.03635 3.85648 1.93938 3.96641C1.84241 4.06412 1.7818 4.18625 1.7818 4.33282V4.34503V4.35725V12.7237H1.79392ZM4.13332 5.40763H5.23635C5.29695 5.40763 5.34544 5.43206 5.39392 5.48091C5.43029 5.52977 5.45453 5.57862 5.45453 5.63969C5.46665 5.63969 5.46665 5.63969 5.46665 5.6519V5.66412C5.46665 5.72519 5.44241 5.77404 5.40605 5.8229C5.36968 5.85954 5.30908 5.88396 5.24847 5.88396L5.23635 5.87175L5.22423 5.85954H4.1212C4.06059 5.85954 4.01211 5.83511 3.96362 5.79847C3.91514 5.76183 3.89089 5.70076 3.89089 5.63969C3.90301 5.57862 3.92726 5.52977 3.96362 5.48091C4.01211 5.44427 4.06059 5.41984 4.13332 5.40763ZM11.006 5.44427H11.3454V5.10228V5.09007V5.07786C11.3454 5.029 11.3697 4.98015 11.406 4.94351C11.4424 4.90686 11.4909 4.88244 11.5394 4.88244H11.5515H11.5636C11.6242 4.88244 11.6727 4.90686 11.7212 4.95572C11.7576 5.00458 11.7818 5.05343 11.7818 5.1145V5.45648H12.1212C12.1818 5.45648 12.2303 5.4687 12.2788 5.50534C12.3151 5.54198 12.3394 5.59083 12.3515 5.6519C12.3515 5.71297 12.3273 5.76183 12.2788 5.81068C12.2303 5.84732 12.1818 5.87175 12.1212 5.87175H11.7818V6.21373C11.7818 6.2748 11.7576 6.32366 11.7212 6.37251C11.6848 6.42137 11.6242 6.4458 11.5636 6.4458H11.5515H11.5394C11.4909 6.4458 11.4424 6.42137 11.406 6.38473C11.3697 6.34809 11.3454 6.29923 11.3454 6.25038V6.23816V6.21373V5.87175H11.006L10.9939 5.88396L10.9818 5.89618C10.9212 5.89618 10.8727 5.87175 10.8242 5.83511C10.7879 5.79847 10.7636 5.7374 10.7636 5.67633V5.66412C10.7636 5.66412 10.7636 5.66412 10.7757 5.6519C10.7757 5.59083 10.7879 5.54198 10.8242 5.50534C10.8606 5.4687 10.9091 5.45648 10.9697 5.45648H11.006V5.44427Z" fill="#2D3E50"/>
<mask id="mask0" mask-type="alpha" maskUnits="userSpaceOnUse" x="1" y="2" width="14" height="12">
<path d="M14.9091 2H1.33331V13.7252H14.9091V2Z" fill="white"/>
<path d="M2.31514 3.49007H3.46665V2.75725C3.46665 2.61068 3.51514 2.48854 3.62423 2.39083C3.7212 2.29312 3.84241 2.23206 3.98786 2.23206H5.56362C5.69695 2.24427 5.80605 2.29312 5.91514 2.39083C6.01211 2.48854 6.07271 2.61068 6.07271 2.74503V3.47786H10.1697V2.74503C10.1818 2.59847 10.2303 2.48854 10.3394 2.39083C10.4364 2.29312 10.5576 2.24427 10.703 2.23206H12.2545C12.4 2.23206 12.5212 2.28091 12.6182 2.39083C12.7151 2.48854 12.7757 2.61068 12.7757 2.75725V3.49007H13.9273H13.9394H13.9515C14.1818 3.49007 14.3879 3.57557 14.5454 3.74656C14.703 3.91755 14.8 4.11297 14.8 4.34503V4.35725V4.36946V12.7237C14.8 12.9557 14.7151 13.1634 14.5454 13.3343C14.3757 13.5053 14.1697 13.5908 13.9394 13.5908H2.31514C2.08483 13.5908 1.87877 13.5053 1.70907 13.3343C1.53938 13.1634 1.45453 12.9679 1.45453 12.7237V4.35725V4.34503V4.33282C1.45453 4.10076 1.53938 3.89312 1.70907 3.73435C1.87877 3.56335 2.07271 3.47786 2.30301 3.47786H2.31514V3.49007ZM5.73332 2.74503C5.73332 2.69618 5.7212 2.64732 5.68483 2.6229C5.64847 2.58625 5.61211 2.57404 5.57574 2.56183H3.99998C3.9515 2.57404 3.90301 2.59847 3.87877 2.6229C3.84241 2.65954 3.83029 2.69618 3.81817 2.74503V3.47786H5.74544V2.74503H5.73332ZM12.4364 2.74503C12.4242 2.69618 12.4 2.64732 12.3757 2.6229C12.3394 2.58625 12.303 2.57404 12.2545 2.56183H10.703C10.6545 2.56183 10.606 2.57404 10.5697 2.61068C10.5333 2.64732 10.5091 2.68396 10.5091 2.74503V3.47786H12.4364V2.74503ZM1.79392 12.7237C1.79392 12.8702 1.84241 12.9924 1.9515 13.1023C2.06059 13.2122 2.1818 13.2611 2.32726 13.2611H13.9273C14.0727 13.2611 14.1939 13.2122 14.303 13.1023C14.4121 12.9924 14.4606 12.8702 14.4606 12.7237V4.35725V4.34503V4.33282C14.4606 4.18625 14.4121 4.06412 14.303 3.96641C14.206 3.8687 14.0848 3.80763 13.9394 3.80763H13.9273H13.9151H2.31514H2.30301C2.15756 3.80763 2.03635 3.85648 1.93938 3.96641C1.84241 4.06412 1.7818 4.18625 1.7818 4.33282V4.34503V4.35725V12.7237H1.79392ZM4.13332 5.40763H5.23635C5.29695 5.40763 5.34544 5.43206 5.39392 5.48091C5.43029 5.52977 5.45453 5.57862 5.45453 5.63969C5.46665 5.63969 5.46665 5.63969 5.46665 5.6519V5.66412C5.46665 5.72519 5.44241 5.77404 5.40605 5.8229C5.36968 5.85954 5.30908 5.88396 5.24847 5.88396L5.23635 5.87175L5.22423 5.85954H4.1212C4.06059 5.85954 4.01211 5.83511 3.96362 5.79847C3.91514 5.76183 3.89089 5.70076 3.89089 5.63969C3.90301 5.57862 3.92726 5.52977 3.96362 5.48091C4.01211 5.44427 4.06059 5.41984 4.13332 5.40763ZM11.006 5.44427H11.3454V5.10228V5.09007V5.07786C11.3454 5.029 11.3697 4.98015 11.406 4.94351C11.4424 4.90686 11.4909 4.88244 11.5394 4.88244H11.5515H11.5636C11.6242 4.88244 11.6727 4.90686 11.7212 4.95572C11.7576 5.00457 11.7818 5.05343 11.7818 5.1145V5.45648H12.1212C12.1818 5.45648 12.2303 5.4687 12.2788 5.50534C12.3151 5.54198 12.3394 5.59083 12.3515 5.6519C12.3515 5.71297 12.3273 5.76183 12.2788 5.81068C12.2303 5.84732 12.1818 5.87175 12.1212 5.87175H11.7818V6.21373C11.7818 6.2748 11.7576 6.32366 11.7212 6.37251C11.6848 6.42137 11.6242 6.4458 11.5636 6.4458H11.5515H11.5394C11.4909 6.4458 11.4424 6.42137 11.406 6.38473C11.3697 6.34809 11.3454 6.29923 11.3454 6.25038V6.23816V6.21373V5.87175H11.006L10.9939 5.88396L10.9818 5.89618C10.9212 5.89618 10.8727 5.87175 10.8242 5.83511C10.7879 5.79847 10.7636 5.7374 10.7636 5.67633V5.66412C10.7636 5.66412 10.7636 5.66412 10.7757 5.6519C10.7757 5.59083 10.7879 5.54198 10.8242 5.50534C10.8606 5.4687 10.9091 5.45648 10.9697 5.45648H11.006V5.44427Z" fill="black"/>
</mask>
<g mask="url(#mask0)">
<path d="M13.9273 13.7252H2.31513C2.04846 13.7252 1.81816 13.6275 1.62422 13.4321C1.43028 13.2367 1.33331 13.0046 1.33331 12.7359V4.34505C1.33331 4.07635 1.43028 3.84428 1.62422 3.66108C1.81816 3.46566 2.04846 3.36795 2.31513 3.36795H3.35756V2.75726C3.35756 2.58627 3.41816 2.42749 3.53937 2.30535C3.66059 2.18322 3.81816 2.12215 3.98786 2.12215H5.56362C5.73331 2.13436 5.87877 2.19543 5.99998 2.31757C6.12119 2.4397 6.19392 2.58627 6.19392 2.76947V3.38016H10.0485V2.76947C10.0606 2.58627 10.1333 2.4397 10.2545 2.31757C10.3757 2.19543 10.5212 2.13436 10.6909 2.12215H12.2424C12.4121 2.12215 12.5697 2.18322 12.6909 2.30535C12.8121 2.42749 12.8727 2.58627 12.8727 2.75726V3.36795H13.9151C14.1818 3.36795 14.4121 3.46566 14.606 3.66108C14.8 3.8565 14.8969 4.08856 14.8969 4.34505V12.7237C14.8969 12.9924 14.8 13.2244 14.606 13.4199C14.4242 13.6275 14.1818 13.7252 13.9273 13.7252ZM2.31513 3.61222C2.10907 3.61222 1.93937 3.68551 1.79392 3.83207C1.64846 3.97864 1.57574 4.13741 1.57574 4.34505V12.7237C1.57574 12.9313 1.64846 13.1023 1.79392 13.2489C1.93937 13.3954 2.10907 13.4687 2.31513 13.4687H13.9151C14.1212 13.4687 14.2909 13.3954 14.4363 13.2489C14.5818 13.1023 14.6545 12.9313 14.6545 12.7237V4.34505C14.6545 4.13741 14.5818 3.97864 14.4363 3.83207C14.2909 3.68551 14.1212 3.61222 13.9273 3.61222H12.6424V2.75726C12.6424 2.64734 12.606 2.56184 12.5212 2.47635C12.4485 2.40306 12.3515 2.35421 12.2424 2.35421H10.703C10.5939 2.36642 10.4969 2.40306 10.4242 2.47635C10.3394 2.54963 10.303 2.64734 10.2909 2.75726V3.60001H5.95149V2.74505C5.95149 2.63512 5.91513 2.54963 5.8424 2.47635C5.75756 2.40306 5.67271 2.35421 5.56362 2.35421H3.98786C3.87877 2.35421 3.7818 2.39085 3.70907 2.47635C3.63634 2.54963 3.58786 2.64734 3.58786 2.75726V3.61222H2.31513ZM13.9273 13.3832H2.31513C2.14543 13.3832 1.98786 13.3221 1.85453 13.1878C1.72119 13.0534 1.66059 12.9069 1.66059 12.7237V4.34505C1.66059 4.17406 1.72119 4.01528 1.8424 3.89314C1.96362 3.771 2.12119 3.70993 2.29089 3.70993H13.9273C14.0969 3.70993 14.2545 3.771 14.3757 3.89314C14.4969 4.01528 14.5576 4.17406 14.5576 4.34505V12.7237C14.5576 12.8947 14.497 13.0534 14.3636 13.1878C14.2303 13.3221 14.0969 13.3832 13.9273 13.3832ZM2.30301 3.94199C2.19392 3.94199 2.09695 3.97864 2.02422 4.06413C1.95149 4.13741 1.90301 4.23512 1.90301 4.34505V12.7237C1.90301 12.8336 1.93937 12.9313 2.02422 13.0168C2.10907 13.1023 2.20604 13.1389 2.31513 13.1389H13.9151C14.0242 13.1389 14.1212 13.1023 14.206 13.0168C14.2909 12.9313 14.3273 12.8336 14.3273 12.7237V4.34505C14.3273 4.23512 14.2909 4.14963 14.206 4.06413C14.1333 3.99085 14.0363 3.94199 13.9273 3.94199H2.30301ZM11.5636 6.54352H11.5394C11.4545 6.54352 11.3818 6.50688 11.3212 6.44581C11.2606 6.38474 11.2242 6.29925 11.2242 6.22596V5.98169H11.0666L11.006 5.9939C10.9091 5.9939 10.8363 5.95726 10.7636 5.89619C10.703 5.83512 10.6666 5.74963 10.6666 5.65192V5.57864L10.6909 5.56642C10.703 5.49314 10.7394 5.44428 10.7757 5.40764C10.8121 5.371 10.8848 5.32215 11.006 5.32215H11.2363V5.07787C11.2363 4.99238 11.2727 4.91909 11.3333 4.85802C11.3939 4.79696 11.4788 4.76031 11.5515 4.76031H11.5757C11.6727 4.76031 11.7576 4.79696 11.8182 4.87024C11.8788 4.94352 11.9151 5.0168 11.9151 5.11451V5.33436H12.1212C12.206 5.33436 12.2909 5.35879 12.3515 5.41986C12.4121 5.46871 12.4485 5.54199 12.4727 5.6397V5.66413C12.4727 5.76184 12.4363 5.84734 12.3636 5.90841C12.2909 5.96948 12.2182 6.00612 12.1212 6.00612H11.903V6.22596C11.903 6.32367 11.8666 6.39696 11.806 6.47024C11.7454 6.50688 11.6606 6.54352 11.5636 6.54352ZM11.006 5.7252H11.4666V6.20154C11.4666 6.22596 11.4666 6.23818 11.4909 6.2626C11.5151 6.28703 11.5273 6.28703 11.5394 6.28703H11.5636C11.5879 6.28703 11.6121 6.27482 11.6242 6.2626C11.6485 6.23818 11.6485 6.21375 11.6485 6.18932V5.7252H12.1212C12.1576 5.7252 12.1818 5.71299 12.206 5.70077C12.2182 5.68856 12.2303 5.66413 12.2303 5.65192C12.2182 5.61528 12.206 5.60306 12.1939 5.59085C12.1818 5.57864 12.1576 5.56642 12.1212 5.56642H11.6606V5.1023C11.6606 5.06566 11.6485 5.04123 11.6363 5.02902C11.6242 5.00459 11.6 5.00459 11.5757 5.00459H11.5515C11.5394 5.00459 11.5273 5.00459 11.503 5.02902C11.4788 5.05344 11.4788 5.06566 11.4788 5.07787V5.56642H11.0182C10.9697 5.56642 10.9576 5.57864 10.9576 5.57864C10.9576 5.57864 10.9454 5.59085 10.9454 5.6397V5.71299L10.9576 5.7252C10.9697 5.73741 10.9818 5.73741 10.9939 5.74963L11.006 5.7252ZM5.24846 5.9939H5.19998L5.18786 5.98169H4.13331C4.03634 5.98169 3.96362 5.94505 3.89089 5.88398C3.81816 5.82291 3.7818 5.73741 3.7818 5.6397V5.61528C3.79392 5.52978 3.83028 5.4565 3.89089 5.39543C3.95149 5.33436 4.02422 5.29772 4.10907 5.28551H4.13331H5.23634C5.33331 5.28551 5.41816 5.32215 5.47877 5.39543C5.52725 5.44428 5.5515 5.50535 5.56362 5.57864C5.57574 5.60306 5.58786 5.62749 5.58786 5.65192C5.58786 5.74963 5.5515 5.83512 5.49089 5.89619C5.43028 5.95726 5.34543 5.9939 5.24846 5.9939ZM4.02422 5.65192C4.02422 5.67635 4.03634 5.68856 4.04846 5.70077C4.07271 5.7252 4.09695 5.7252 4.13331 5.7252H5.29695L5.30907 5.73741C5.32119 5.73741 5.32119 5.7252 5.33331 5.7252L5.34543 5.71299V5.6397C5.34543 5.60306 5.33331 5.57864 5.32119 5.56642C5.30907 5.54199 5.28483 5.54199 5.26059 5.54199H4.15756C4.12119 5.55421 4.09695 5.56642 4.08483 5.57864C4.03634 5.59085 4.02422 5.61528 4.02422 5.65192ZM12.5576 3.61222H10.3879V2.75726C10.3879 2.67176 10.4242 2.59848 10.4848 2.53741C10.5454 2.48856 10.6182 2.45192 10.703 2.45192H12.2788C12.3515 2.46413 12.4121 2.50077 12.4606 2.54963C12.5091 2.59848 12.5454 2.65955 12.5576 2.73283V2.75726V3.61222ZM10.6303 3.36795H12.3151V2.76947C12.3151 2.74505 12.303 2.73283 12.2909 2.72062C12.2788 2.70841 12.2666 2.69619 12.2424 2.69619H10.703C10.6788 2.69619 10.6666 2.70841 10.6424 2.72062C10.6303 2.73283 10.6182 2.74505 10.6182 2.75726V3.36795H10.6303ZM5.85453 3.61222H3.68483V2.73283C3.69695 2.65955 3.73331 2.59848 3.7818 2.54963C3.83028 2.50077 3.89089 2.46413 3.96362 2.45192H3.98786H5.59998C5.66059 2.46413 5.70907 2.50077 5.75756 2.53741C5.81816 2.58627 5.85453 2.67176 5.85453 2.75726V3.61222ZM3.92725 3.36795H5.6121V2.75726C5.6121 2.73283 5.6121 2.73283 5.59998 2.73283C5.58786 2.72062 5.56362 2.70841 5.5515 2.69619H3.99998C3.97574 2.69619 3.96362 2.70841 3.95149 2.72062C3.93937 2.73283 3.92725 2.74505 3.92725 2.76947V3.36795Z" fill="#2D3E50"/>
</g>
</svg>
