<svg width="12" height="12" viewBox="0 0 12 12" fill="none" xmlns="http://www.w3.org/2000/svg">
<path d="M11.5 3.305V10.1311C11.4783 10.2109 11.4633 10.293 11.4348 10.3702C11.3022 10.7204 10.9965 10.9193 10.5957 10.9196H1.3937C1.37196 10.9196 1.35022 10.9196 1.32848 10.9196C1.14654 10.9131 0.971495 10.8484 0.82917 10.7349C0.686845 10.6213 0.584782 10.4651 0.538043 10.2891C0.524565 10.2372 0.512609 10.185 0.5 10.1328V3.30674C0.509585 3.27973 0.517427 3.25214 0.523478 3.22413C0.586957 2.82304 0.89587 2.53978 1.3 2.52261C1.5237 2.51326 1.74804 2.51783 1.97217 2.51674C2.13391 2.51674 2.13391 2.51674 2.13391 2.36C2.13391 2.2587 2.13391 2.15761 2.13391 2.05565C2.1358 1.93558 2.17647 1.81934 2.24986 1.72429C2.32324 1.62924 2.4254 1.56047 2.54109 1.52826C2.56396 1.5202 2.58632 1.51077 2.60804 1.5H3.99935C4.01803 1.51004 4.03743 1.51869 4.05739 1.52587C4.34457 1.60696 4.49522 1.80587 4.49587 2.10587C4.49587 2.19283 4.49587 2.27978 4.49587 2.36674C4.49587 2.51565 4.49587 2.5163 4.64261 2.5163H7.34783C7.37326 2.5163 7.39848 2.51457 7.42391 2.5163C7.48391 2.51891 7.50674 2.4913 7.50522 2.43109C7.50239 2.31543 7.50348 2.19957 7.50522 2.08326C7.50804 1.86022 7.61544 1.69761 7.80522 1.58978C7.87283 1.5513 7.95022 1.53 8.02261 1.50065H9.37044C9.38609 1.50928 9.40246 1.51655 9.41935 1.52239C9.70891 1.59696 9.86565 1.79565 9.86674 2.09174C9.86674 2.19652 9.87217 2.30174 9.86522 2.40587C9.85957 2.49283 9.89348 2.51826 9.9763 2.51783C10.2254 2.51609 10.475 2.51304 10.7237 2.52435C11.0783 2.54087 11.3841 2.80391 11.4661 3.14783C11.4783 3.2 11.4885 3.25261 11.5 3.305ZM6.00109 3.07152C4.47268 3.07152 2.94413 3.07152 1.41543 3.07152C1.15457 3.07152 1.06348 3.16522 1.06348 3.42696C1.06348 5.62203 1.06348 7.81703 1.06348 10.012C1.06348 10.2535 1.17522 10.3687 1.41348 10.3687C4.4742 10.3687 7.53493 10.3687 10.5957 10.3687C10.8209 10.3687 10.9361 10.2515 10.9361 10.0259C10.9361 7.82007 10.9361 5.61413 10.9361 3.40804C10.9376 3.37168 10.9354 3.33527 10.9296 3.29935C10.8989 3.14609 10.7861 3.07109 10.5865 3.07109L6.00109 3.07152ZM2.68957 2.50848H3.94283C3.94283 2.375 3.94609 2.2487 3.93957 2.12326C3.93848 2.10261 3.89478 2.06761 3.87043 2.06717C3.50145 2.0637 3.13246 2.0637 2.76348 2.06717C2.73848 2.06717 2.69435 2.10848 2.69304 2.13239C2.68565 2.25522 2.68957 2.37783 2.68957 2.50848V2.50848ZM9.31022 2.50957C9.31022 2.3737 9.3137 2.25109 9.30717 2.1287C9.3026 2.11391 9.29433 2.10055 9.28315 2.08986C9.27196 2.07917 9.25823 2.07151 9.24326 2.06761C8.87051 2.06399 8.49783 2.06399 8.12522 2.06761C8.10348 2.06761 8.06152 2.09891 8.06 2.11717C8.05435 2.24565 8.05696 2.37478 8.05696 2.51L9.31022 2.50957Z" fill="#2D3E50"/>
<path d="M9.09173 4.7111C9.04325 5.04915 8.96586 5.1485 8.75934 5.15415C8.6439 5.15719 8.54195 5.11784 8.49412 5.01828C8.45064 4.92828 8.44151 4.82132 8.41521 4.71393C8.39477 4.71393 8.36325 4.71393 8.33173 4.71393C8.12999 4.7198 7.99238 4.59328 7.98391 4.39415C7.9776 4.22871 8.11977 4.09089 8.30804 4.0911C8.39977 4.0911 8.44564 4.0761 8.44151 3.96719C8.43412 3.77154 8.55869 3.63936 8.73412 3.6348C8.9313 3.62958 9.07347 3.75545 9.07608 3.9598C9.07738 4.06545 9.10912 4.09328 9.2113 4.09241C9.25126 4.09066 9.29116 4.09696 9.32864 4.11095C9.36611 4.12493 9.40039 4.14631 9.42943 4.17381C9.45848 4.20131 9.48169 4.23438 9.4977 4.27103C9.5137 4.30769 9.52217 4.34719 9.5226 4.38719C9.52717 4.55437 9.40586 4.68197 9.22651 4.69871C9.18151 4.70328 9.13543 4.70719 9.09173 4.7111Z" fill="#2D3E50"/>
<path d="M3.25935 4.06826C3.41152 4.06826 3.56369 4.06305 3.71456 4.06979C3.88022 4.07696 4.02522 4.25305 4.01456 4.42196C4.00912 4.50213 3.97316 4.57717 3.91409 4.63163C3.85501 4.6861 3.7773 4.71586 3.69696 4.71478C3.40087 4.71196 3.10456 4.7087 2.80848 4.70218C2.61522 4.69783 2.4863 4.58305 2.47761 4.41478C2.47466 4.32718 2.50594 4.24187 2.56483 4.17694C2.62371 4.11201 2.70557 4.07256 2.79304 4.06696C2.80022 4.06696 2.80739 4.06587 2.81478 4.06587H3.25956L3.25935 4.06826Z" fill="#2D3E50"/>
</svg>
