<svg width="24" height="24" viewBox="0 0 24 24" fill="none" xmlns="http://www.w3.org/2000/svg">
<path d="M3.99998 22.5C3.29998 22.5 2.59998 22.1 2.29998 21.4C2.09998 21 2.09998 20.6 2.09998 19.6V12C2.09998 8 2.09998 6 3.49998 4.5C4.99998 3.1 6.99998 3.1 11 3.1H13.5C17 3.1 18.8 3.1 20.1 4.2C20.3 4.4 20.6 4.6 20.8 4.9C21.9 6.3 21.9 8 21.9 11.5C21.9 15 21.9 16.8 20.8 18.1C20.6 18.3 20.4 18.6 20.1 18.8C18.7 19.9 17 19.9 13.5 19.9H9.29998C8.69998 19.9 8.39998 19.9 8.19998 19.9C7.69998 20 7.19998 20.2 6.79998 20.5C6.59998 20.6 6.39998 20.8 5.99998 21.3C5.29998 22 4.99998 22.3 4.59998 22.4C4.39998 22.5 4.19998 22.5 3.99998 22.5ZM3.89998 20.7C3.89998 20.7 3.99998 20.7 3.89998 20.7C4.09998 20.7 4.39998 20.3 4.69998 20C5.19998 19.5 5.39998 19.3 5.69998 19.1C6.29998 18.6 7.09998 18.3 7.89998 18.2C8.29998 18.1 8.59998 18.1 9.29998 18.1H13.5C16.6 18.1 18.1 18.1 19 17.4C19.2 17.3 19.3 17.1 19.4 17C20.1 16.1 20.1 14.6 20.1 11.5C20.1 8.4 20.1 6.9 19.4 6C19.3 5.8 19.1 5.7 19 5.6C18.1 4.9 16.6 4.9 13.5 4.9H11C7.49998 4.9 5.69998 4.9 4.79998 5.8C3.89998 6.7 3.89998 8.5 3.89998 12V19.6C3.89998 20.1 3.89998 20.6 3.89998 20.7Z" fill="#2D3E50"/>
<path d="M7.5 13C6.7 13 6 12.3 6 11.5C6 10.7 6.7 10 7.5 10C8.3 10 9 10.7 9 11.5C9 12.3 8.3 13 7.5 13ZM7.5 10.8V11.6V10.8Z" fill="#2D3E50"/>
<path d="M12 13C11.2 13 10.5 12.3 10.5 11.5C10.5 10.7 11.2 10 12 10C12.8 10 13.5 10.7 13.5 11.5C13.5 12.3 12.8 13 12 13ZM12 10.8V11.6V10.8Z" fill="#2D3E50"/>
<path d="M16.5 13C15.7 13 15 12.3 15 11.5C15 10.7 15.7 10 16.5 10C17.3 10 18 10.7 18 11.5C18 12.3 17.3 13 16.5 13ZM16.5 10.8V11.6V10.8Z" fill="#2D3E50"/>
</svg>
