<svg width="16" height="16" viewBox="0 0 16 16" fill="none" xmlns="http://www.w3.org/2000/svg">
<path fill-rule="evenodd" clip-rule="evenodd" d="M7.99999 15.3333C12.0501 15.3333 15.3333 12.0501 15.3333 8C15.3333 3.94991 12.0501 0.666664 7.99999 0.666664C3.9499 0.666664 0.666656 3.94991 0.666656 8C0.666656 12.0501 3.9499 15.3333 7.99999 15.3333ZM11.0909 6.7576C11.3253 6.52328 11.3253 6.14338 11.0909 5.90906C10.8566 5.67475 10.4767 5.67475 10.2424 5.90906L7.33332 8.81813L5.75759 7.2424C5.52327 7.00806 5.14338 7.00806 4.90906 7.2424C4.67474 7.47673 4.67474 7.8566 4.90906 8.09093L6.90906 10.0909C7.14339 10.3253 7.52326 10.3253 7.75759 10.0909L11.0909 6.7576Z" fill="#2D3E50"/>
</svg>
