<svg width="12" height="12" viewBox="0 0 12 12" fill="none" xmlns="http://www.w3.org/2000/svg">
<path d="M6.5 12C3.47248 12 1 9.52752 1 6.5C1 3.47248 3.47248 1 6.5 1C9.52752 1 12 3.47248 12 6.5C12 9.52752 9.52752 12 6.5 12ZM6.5 1.90826C3.97706 1.90826 1.90826 3.97706 1.90826 6.5C1.90826 9.02293 3.97706 11.0917 6.5 11.0917C9.02294 11.0917 11.0917 9.02293 11.0917 6.5C11.0917 3.97706 9.02294 1.90826 6.5 1.90826Z" fill="#2D3E50"/>
<path d="M8.01379 8.46788C7.91287 8.46788 7.76149 8.41743 7.71104 8.31651L6.19727 6.80275C6.09636 6.70183 6.0459 6.60091 6.0459 6.49999V3.72477C6.0459 3.47247 6.24773 3.27064 6.50003 3.27064C6.75232 3.27064 6.95415 3.47247 6.95415 3.72477V6.29816L8.31654 7.66055C8.51837 7.86238 8.51837 8.11467 8.31654 8.31651C8.26608 8.41743 8.1147 8.46788 8.01379 8.46788Z" fill="#2D3E50"/>
</svg>
