<svg width="16" height="16" viewBox="0 0 16 16" fill="none" xmlns="http://www.w3.org/2000/svg">
<path d="M8 15.2667C4 15.2667 0.733337 12 0.733337 8C0.733337 4 4 0.73333 8 0.73333C12 0.73333 15.2667 4 15.2667 8C15.2667 12 12 15.2667 8 15.2667ZM8 1.93333C4.66667 1.93333 1.93334 4.66666 1.93334 8C1.93334 11.3333 4.66667 14.0667 8 14.0667C11.3333 14.0667 14.0667 11.3333 14.0667 8C14.0667 4.66666 11.3333 1.93333 8 1.93333Z" fill="#2D3E50"/>
<path d="M10 10.6C9.86669 10.6 9.66669 10.5333 9.60002 10.4L7.60002 8.4C7.46669 8.26666 7.40002 8.13333 7.40002 8V4.33333C7.40002 4 7.66669 3.73333 8.00002 3.73333C8.33336 3.73333 8.60002 4 8.60002 4.33333V7.73333L10.4 9.53333C10.6667 9.8 10.6667 10.1333 10.4 10.4C10.3334 10.5333 10.1334 10.6 10 10.6Z" fill="#2D3E50"/>
</svg>
