<svg width="12" height="12" viewBox="0 0 12 12" fill="none" xmlns="http://www.w3.org/2000/svg">
<path d="M5.99999 11.45C2.99999 11.45 0.549988 9 0.549988 6C0.549988 3 2.99999 0.550003 5.99999 0.550003C8.99999 0.550003 11.45 3 11.45 6C11.45 9 8.99999 11.45 5.99999 11.45ZM5.99999 1.45C3.49999 1.45 1.44999 3.5 1.44999 6C1.44999 8.5 3.49999 10.55 5.99999 10.55C8.49999 10.55 10.55 8.5 10.55 6C10.55 3.5 8.49999 1.45 5.99999 1.45Z" fill="#2D3E50"/>
<path d="M7.49999 7.95C7.39999 7.95 7.24999 7.9 7.19999 7.8L5.69999 6.3C5.59999 6.2 5.54999 6.1 5.54999 6V3.25C5.54999 3 5.74999 2.8 5.99999 2.8C6.24999 2.8 6.44999 3 6.44999 3.25V5.8L7.79999 7.15C7.99999 7.35 7.99999 7.6 7.79999 7.8C7.74999 7.9 7.59999 7.95 7.49999 7.95Z" fill="#2D3E50"/>
</svg>
