<svg width="24" height="24" viewBox="0 0 24 24" fill="none" xmlns="http://www.w3.org/2000/svg">
<path d="M12 22.9C5.99998 22.9 1.09998 18 1.09998 12C1.09998 6 5.99998 1.1 12 1.1C18 1.1 22.9 6 22.9 12C22.9 18 18 22.9 12 22.9ZM12 2.9C6.99998 2.9 2.89998 7 2.89998 12C2.89998 17 6.99998 21.1 12 21.1C17 21.1 21.1 17 21.1 12C21.1 7 17 2.9 12 2.9Z" fill="#2D3E50"/>
<path d="M15 15.9C14.8 15.9 14.5 15.8 14.4 15.6L11.4 12.6C11.2 12.4 11.1 12.2 11.1 12V6.5C11.1 6 11.5 5.6 12 5.6C12.5 5.6 12.9 6 12.9 6.5V11.6L15.6 14.3C16 14.7 16 15.2 15.6 15.6C15.5 15.8 15.2 15.9 15 15.9Z" fill="#2D3E50"/>
</svg>
