<svg width="12" height="12" viewBox="0 0 12 12" fill="none" xmlns="http://www.w3.org/2000/svg">
<path d="M1.80104 1C1.88076 1.01987 1.96142 1.03643 2.03972 1.06032C2.51069 1.20343 2.86387 1.64271 2.8835 2.10706C2.90715 2.65799 2.62329 3.10934 2.12322 3.3078C2.06053 3.33264 2.0286 3.3563 2.0286 3.43105C2.03144 4.14449 2.03026 4.85817 2.03073 5.57161C2.03073 5.59526 2.03522 5.61892 2.03925 5.65677H10.6367C10.6367 5.88386 10.6367 6.09533 10.6367 6.30681C10.6367 6.36571 10.627 6.42509 10.627 6.48328C10.627 7.29134 10.627 8.09964 10.6249 8.9077C10.6249 9.00942 10.6462 9.06501 10.7529 9.10735C10.9932 9.20218 11.1958 9.37324 11.3295 9.59429C11.4633 9.81533 11.5208 10.0741 11.4933 10.331C11.4446 10.8335 11.0585 11.259 10.5492 11.3702C10.4806 11.3851 10.4108 11.3958 10.3415 11.4083H10.2706C10.1901 11.392 10.109 11.3783 10.0293 11.3586C9.5221 11.2342 9.16112 10.8046 9.11949 10.278C9.08117 9.79454 9.3797 9.30629 9.84854 9.11587C9.96516 9.06856 9.99402 9.00966 9.99331 8.89209C9.98811 8.08024 9.98811 7.26855 9.99331 6.45702C9.99331 6.34135 9.95878 6.31391 9.84712 6.31391C7.08088 6.31706 4.31472 6.31785 1.54864 6.31627H1.38305C1.3795 6.25879 1.37382 6.20959 1.37382 6.16015C1.37382 5.27355 1.37193 4.38601 1.37548 3.50036C1.37548 3.3932 1.34993 3.33714 1.24254 3.29124C0.840399 3.11927 0.599115 2.8127 0.525311 2.37815C0.518869 2.35184 0.510407 2.32605 0.5 2.30104V2.08814C0.510905 2.05926 0.520223 2.0298 0.527913 1.99991C0.628211 1.50977 0.919171 1.19421 1.39748 1.05086C1.46064 1.03193 1.52474 1.0168 1.58814 1H1.80104ZM1.70381 2.7318C1.84491 2.72938 1.9794 2.67156 2.07823 2.57082C2.17706 2.47009 2.2323 2.33452 2.23204 2.19341C2.22943 1.90434 1.98129 1.65998 1.69364 1.66329C1.40599 1.6666 1.15785 1.91971 1.16235 2.20381C1.16652 2.34486 1.22532 2.47876 1.32634 2.57727C1.42737 2.67578 1.56271 2.73119 1.70381 2.7318ZM10.3084 9.67484C10.0158 9.67484 9.77143 9.9166 9.77237 10.2057C9.77525 10.3467 9.83292 10.481 9.93316 10.5802C10.0334 10.6795 10.1683 10.7358 10.3093 10.7372C10.38 10.7387 10.4503 10.7261 10.5161 10.7C10.5818 10.674 10.6417 10.6351 10.6923 10.5856C10.7428 10.5362 10.7829 10.4771 10.8103 10.4119C10.8377 10.3467 10.8519 10.2767 10.8519 10.206C10.8519 10.1353 10.8377 10.0653 10.8103 10.0001C10.7829 9.93493 10.7428 9.87586 10.6923 9.82639C10.6417 9.77692 10.5818 9.73803 10.5161 9.71201C10.4503 9.68599 10.38 9.67335 10.3093 9.67484H10.3084Z" fill="#2D3E50"/>
<path d="M5.96438 11.4083C5.80636 11.3643 5.63699 11.3432 5.49246 11.2723C5.04088 11.0502 4.80243 10.6719 4.81757 10.1711C4.83271 9.66537 5.09789 9.30368 5.56484 9.10403C5.65639 9.06477 5.68714 9.0229 5.68643 8.92544C5.68241 8.25552 5.6843 7.58537 5.6843 6.91474V6.7643H6.31164C6.31448 6.81161 6.31992 6.86152 6.32015 6.9112C6.32015 7.57354 6.32346 8.23589 6.31755 8.89824C6.31755 9.01415 6.34925 9.06855 6.45948 9.11326C6.95813 9.31599 7.25903 9.84113 7.18475 10.3563C7.10598 10.9037 6.69296 11.3125 6.14865 11.3832C6.11817 11.3894 6.0882 11.3978 6.059 11.4085L5.96438 11.4083ZM6.00412 9.67484C5.86307 9.67501 5.72774 9.73065 5.62736 9.82974C5.52698 9.92884 5.46961 10.0634 5.46762 10.2045C5.46573 10.4902 5.71482 10.7377 6.00365 10.737C6.07434 10.7384 6.14463 10.7258 6.21038 10.6998C6.27613 10.6738 6.33603 10.6349 6.38656 10.5854C6.43708 10.5359 6.47723 10.4769 6.50463 10.4117C6.53204 10.3465 6.54615 10.2765 6.54615 10.2058C6.54615 10.1351 6.53204 10.0651 6.50463 9.99987C6.47723 9.93468 6.43708 9.87562 6.38656 9.82615C6.33603 9.77668 6.27613 9.73779 6.21038 9.71177C6.14463 9.68574 6.07434 9.67311 6.00365 9.6746L6.00412 9.67484Z" fill="#2D3E50"/>
<path d="M10.4115 1C10.5459 1.04163 10.6885 1.06647 10.8137 1.12821C11.2868 1.36476 11.525 1.75697 11.4907 2.28401C11.4588 2.77674 11.1872 3.11785 10.7337 3.30591C10.6462 3.34234 10.6251 3.38539 10.6254 3.47031C10.6282 3.98245 10.627 4.49482 10.6266 5.0079C10.6266 5.05521 10.6221 5.10016 10.6195 5.15125H9.99V5.01405C9.99 4.50192 9.98811 3.98955 9.9919 3.47646C9.9919 3.38586 9.97108 3.33856 9.87882 3.30331C9.64067 3.21377 9.43806 3.04927 9.30153 2.83457C9.165 2.61988 9.10194 2.36663 9.12186 2.11298C9.17201 1.5417 9.57131 1.11946 10.1215 1.02626C10.1478 1.01964 10.1734 1.01086 10.1982 1H10.4115ZM10.3082 2.7318C10.4479 2.72886 10.5809 2.67128 10.6787 2.57141C10.7765 2.47154 10.8313 2.33732 10.8313 2.19755C10.8313 2.05777 10.7765 1.92356 10.6787 1.82368C10.5809 1.72381 10.4479 1.66623 10.3082 1.66329C10.0212 1.66329 9.77025 1.9138 9.77167 2.19885C9.77454 2.33999 9.83216 2.47449 9.93236 2.57393C10.0326 2.67338 10.1675 2.72999 10.3086 2.7318H10.3082Z" fill="#2D3E50"/>
<path d="M6.10627 1C6.24418 1.04329 6.39013 1.06884 6.51811 1.13318C6.98577 1.36973 7.21901 1.76099 7.18495 2.28353C7.15278 2.77627 6.88193 3.11691 6.42798 3.30591C6.34211 3.34187 6.31775 3.38303 6.31822 3.46937C6.3213 3.98552 6.31988 4.50168 6.31941 5.01784C6.31941 5.05994 6.31491 5.10205 6.31231 5.15007H5.6845V5.01405C5.6845 4.50972 5.68166 4.0054 5.68687 3.5013C5.68805 3.39296 5.66061 3.33737 5.55298 3.29385C5.32018 3.20207 5.12306 3.03787 4.99072 2.82549C4.85838 2.61312 4.79783 2.36382 4.81801 2.1144C4.87123 1.53958 5.26746 1.1197 5.81697 1.02626C5.8432 1.01964 5.86883 1.01086 5.89361 1H6.10627ZM6.53727 2.20452C6.53707 2.06338 6.48182 1.92788 6.38326 1.82685C6.2847 1.72582 6.15062 1.66723 6.00952 1.66353C5.72566 1.65738 5.47397 1.90292 5.46711 2.1927C5.46049 2.47656 5.71005 2.72943 5.9977 2.7318C6.1389 2.73245 6.27468 2.6775 6.3757 2.57883C6.47671 2.48016 6.53484 2.3457 6.53751 2.20452H6.53727Z" fill="#2D3E50"/>
</svg>
