<svg width="16" height="16" viewBox="0 0 16 16" fill="none" xmlns="http://www.w3.org/2000/svg">
<path d="M1.34546 3.36971C1.34546 4.14546 1.92728 4.72728 2.70304 4.72728C3.47879 4.72728 4.06061 4.14546 4.06061 3.36971C4.06061 2.59395 3.47879 2.01213 2.70304 2.01213C1.92728 2.01213 1.34546 2.59395 1.34546 3.36971ZM1.9394 3.36971C1.9394 2.89698 2.31516 2.61819 2.69091 2.61819C3.16364 2.61819 3.44243 2.99395 3.44243 3.36971C3.44243 3.84243 3.06667 4.12122 2.69091 4.12122C2.31516 4.12122 1.9394 3.84243 1.9394 3.36971Z" fill="#2D3E50"/>
<path d="M2.70304 4.73939C1.92728 4.73939 1.33334 4.15758 1.33334 3.3697C1.33334 2.58182 1.91516 2 2.70304 2C3.49092 2 4.07274 2.58182 4.07274 3.3697C4.07274 4.15758 3.4788 4.73939 2.70304 4.73939ZM2.70304 2.02424C1.9394 2.02424 1.35759 2.60606 1.35759 3.3697C1.35759 4.13333 1.9394 4.71515 2.70304 4.71515C3.46668 4.71515 4.04849 4.13333 4.04849 3.3697C4.04849 2.60606 3.46668 2.02424 2.70304 2.02424ZM2.70304 4.13333C2.32728 4.13333 1.9394 3.84242 1.9394 3.3697C1.9394 2.89697 2.32728 2.60606 2.70304 2.60606C3.18789 2.60606 3.46668 2.99394 3.46668 3.3697C3.46668 3.84242 3.0788 4.13333 2.70304 4.13333ZM2.70304 2.61818C2.3394 2.61818 1.96365 2.89697 1.96365 3.35758C1.96365 3.81818 2.3394 4.09697 2.70304 4.09697C3.06668 4.09697 3.44243 3.81818 3.44243 3.35758C3.44243 3.00606 3.16365 2.61818 2.70304 2.61818Z" fill="#2D3E50"/>
<path d="M1.34546 3.36971C1.34546 4.14546 1.92728 4.72728 2.70304 4.72728C3.47879 4.72728 4.06061 4.14546 4.06061 3.36971C4.06061 2.59395 3.47879 2.01213 2.70304 2.01213C1.92728 2.01213 1.34546 2.59395 1.34546 3.36971ZM1.46667 3.36971C1.46667 2.70304 2.03637 2.13334 2.70304 2.13334C3.3697 2.13334 3.9394 2.70304 3.9394 3.36971C3.9394 4.03637 3.3697 4.60607 2.70304 4.60607C2.03637 4.60607 1.46667 4.03637 1.46667 3.36971ZM1.83031 3.36971C1.83031 3.85455 2.21819 4.24243 2.70304 4.24243C3.18788 4.24243 3.57576 3.85455 3.57576 3.36971C3.57576 2.88486 3.18788 2.49698 2.70304 2.49698C2.21819 2.49698 1.83031 2.88486 1.83031 3.36971ZM1.9394 3.36971C1.9394 3.17577 2.03637 2.99395 2.1697 2.84849C2.30304 2.70304 2.49697 2.61819 2.69091 2.61819C2.88485 2.61819 3.06667 2.71516 3.21213 2.84849C3.35758 2.99395 3.44243 3.17577 3.44243 3.36971C3.44243 3.56365 3.34546 3.74546 3.21213 3.89092C3.06667 4.03637 2.88485 4.12122 2.69091 4.12122C2.49697 4.12122 2.32728 4.02425 2.18182 3.89092C2.03637 3.75758 1.9394 3.55152 1.9394 3.36971Z" fill="#2D3E50"/>
<path d="M2.70304 4.73939C1.92728 4.73939 1.33334 4.15758 1.33334 3.3697C1.33334 2.58182 1.91516 2 2.70304 2C3.49092 2 4.07274 2.58182 4.07274 3.3697C4.07274 4.15758 3.4788 4.73939 2.70304 4.73939ZM2.70304 2.02424C1.9394 2.02424 1.35759 2.60606 1.35759 3.3697C1.35759 4.13333 1.9394 4.71515 2.70304 4.71515C3.46668 4.71515 4.04849 4.13333 4.04849 3.3697C4.04849 2.60606 3.46668 2.02424 2.70304 2.02424ZM2.70304 4.61818C2.02425 4.61818 1.45456 4.04848 1.45456 3.3697C1.45456 2.69091 2.02425 2.12121 2.70304 2.12121C3.38183 2.12121 3.95153 2.69091 3.95153 3.3697C3.95153 4.04848 3.38183 4.61818 2.70304 4.61818ZM2.70304 2.14545C2.03637 2.14545 1.4788 2.70303 1.4788 3.3697C1.4788 4.03636 2.03637 4.59394 2.70304 4.59394C3.36971 4.59394 3.92728 4.03636 3.92728 3.3697C3.92728 2.70303 3.35759 2.14545 2.70304 2.14545ZM2.70304 4.25455C2.21819 4.25455 1.81819 3.85455 1.81819 3.3697C1.81819 2.88485 2.21819 2.48485 2.70304 2.48485C3.18789 2.48485 3.58789 2.88485 3.58789 3.3697C3.58789 3.85455 3.18789 4.25455 2.70304 4.25455ZM2.70304 2.50909C2.23031 2.50909 1.84243 2.89697 1.84243 3.3697C1.84243 3.84242 2.23031 4.2303 2.70304 4.2303C3.17577 4.2303 3.56365 3.84242 3.56365 3.3697C3.56365 2.89697 3.17577 2.50909 2.70304 2.50909ZM2.70304 4.13333C2.52122 4.13333 2.32728 4.04848 2.16971 3.89091C2.01213 3.73333 1.92728 3.55151 1.92728 3.35758C1.92728 3.16364 2.01213 2.98182 2.16971 2.82424C2.32728 2.66667 2.5091 2.58182 2.70304 2.58182C2.89698 2.58182 3.0788 2.66667 3.23637 2.82424C3.39395 2.98182 3.4788 3.16364 3.4788 3.35758C3.4788 3.55151 3.39395 3.73333 3.23637 3.89091C3.0788 4.04848 2.88486 4.13333 2.70304 4.13333ZM2.70304 2.61818C2.52122 2.61818 2.3394 2.70303 2.19395 2.84848C2.04849 2.99394 1.96365 3.18788 1.96365 3.35758C1.96365 3.52727 2.04849 3.72121 2.19395 3.86667C2.3394 4.01212 2.53334 4.09697 2.70304 4.09697C2.87274 4.09697 3.06668 4.01212 3.21213 3.86667C3.35759 3.72121 3.44243 3.52727 3.44243 3.35758C3.44243 3.18788 3.35759 2.99394 3.21213 2.84848C3.06668 2.70303 2.87274 2.61818 2.70304 2.61818Z" fill="#2D3E50"/>
<path d="M6.71515 13.2485C6.71515 14.0243 7.29697 14.6061 8.07272 14.6061C8.84848 14.6061 9.4303 14.0243 9.4303 13.2485C9.4303 12.4727 8.84848 11.8909 8.07272 11.8909C7.29697 11.8909 6.71515 12.4727 6.71515 13.2485ZM7.22424 13.2485C7.22424 12.7758 7.6 12.497 7.97575 12.497C8.44848 12.497 8.72727 12.8727 8.72727 13.2485C8.72727 13.7212 8.35151 14 7.97575 14C7.6 14 7.22424 13.7212 7.22424 13.2485Z" fill="#2D3E50"/>
<path d="M8.07276 14.6182C7.297 14.6182 6.70306 14.0364 6.70306 13.2485C6.70306 12.4727 7.28488 11.8788 8.07276 11.8788C8.86064 11.8788 9.44246 12.4606 9.44246 13.2485C9.44246 14.0243 8.84852 14.6182 8.07276 14.6182ZM8.07276 11.903C7.30912 11.903 6.72731 12.4849 6.72731 13.2485C6.72731 14.0121 7.30912 14.594 8.07276 14.594C8.8364 14.594 9.41822 14.0121 9.41822 13.2485C9.41822 12.4849 8.8364 11.903 8.07276 11.903ZM7.97579 14.0121C7.78185 14.0121 7.58791 13.9394 7.44246 13.8061C7.33337 13.7091 7.20003 13.5273 7.20003 13.2485C7.20003 12.9697 7.33337 12.7879 7.44246 12.6909C7.58791 12.5576 7.78185 12.4849 7.97579 12.4849C8.25458 12.4849 8.4364 12.6182 8.53337 12.7273C8.6667 12.8727 8.73943 13.0667 8.73943 13.2606C8.73943 13.5394 8.60609 13.7212 8.497 13.8182C8.36367 13.9394 8.16973 14.0121 7.97579 14.0121ZM7.97579 12.5091C7.61215 12.5091 7.2364 12.7879 7.2364 13.2485C7.2364 13.6121 7.51519 13.9879 7.97579 13.9879C8.4364 13.9879 8.71518 13.6121 8.71518 13.2485C8.71518 12.7879 8.33943 12.5091 7.97579 12.5091Z" fill="#2D3E50"/>
<path d="M6.61819 13.2485C6.61819 14.0243 7.20001 14.6061 7.97577 14.6061C8.75153 14.6061 9.43032 14.0243 9.33335 13.2485C9.33335 12.4727 8.75153 11.8909 7.97577 11.8909C7.20001 11.8909 6.61819 12.4727 6.61819 13.2485ZM6.73941 13.2485C6.73941 12.5818 7.3091 12.0121 7.97577 12.0121C8.73941 12.0121 9.21214 12.5818 9.21214 13.2485C9.21214 13.9152 8.64244 14.4849 7.97577 14.4849C7.3091 14.4849 6.73941 13.9152 6.73941 13.2485ZM7.10304 13.2485C7.10304 13.7334 7.49092 14.1212 7.97577 14.1212C8.46062 14.1212 8.8485 13.7334 8.8485 13.2485C8.8485 12.7637 8.46062 12.3758 7.97577 12.3758C7.49092 12.3758 7.10304 12.7637 7.10304 13.2485ZM7.22426 13.2485C7.22426 13.0667 7.32122 12.8727 7.45456 12.7273C7.60001 12.5818 7.78183 12.497 7.97577 12.497C8.4485 12.497 8.72729 12.8727 8.72729 13.2485C8.72729 13.4424 8.63032 13.6243 8.49698 13.7697C8.35153 13.9152 8.16971 14 7.97577 14C7.78183 14 7.60001 13.9031 7.45456 13.7697C7.3091 13.6243 7.22426 13.4303 7.22426 13.2485Z" fill="#2D3E50"/>
<path d="M7.97578 14.6182C7.20002 14.6182 6.60608 14.0364 6.60608 13.2485C6.60608 12.4727 7.1879 11.8788 7.97578 11.8788C8.75153 11.8788 9.34547 12.4606 9.34547 13.2485C9.38184 13.5758 9.28487 13.8909 9.06668 14.1455C8.80002 14.4364 8.40002 14.6182 7.97578 14.6182ZM7.97578 11.903C7.21214 11.903 6.63032 12.4849 6.63032 13.2485C6.63032 14.0121 7.21214 14.594 7.97578 14.594C8.3879 14.594 8.7879 14.4243 9.04244 14.1333C9.26062 13.8909 9.35759 13.5758 9.32123 13.2485C9.32123 12.4849 8.73941 11.903 7.97578 11.903ZM7.97578 14.497C7.29699 14.497 6.72729 13.9273 6.72729 13.2485C6.72729 12.5697 7.29699 12 7.97578 12C8.70305 12 9.22426 12.5212 9.22426 13.2485C9.22426 13.9273 8.65456 14.497 7.97578 14.497ZM7.97578 12.0243C7.30911 12.0243 6.75153 12.5818 6.75153 13.2485C6.75153 13.9152 7.30911 14.4727 7.97578 14.4727C8.64244 14.4727 9.20002 13.9152 9.20002 13.2485C9.20002 12.5333 8.67881 12.0243 7.97578 12.0243ZM7.97578 14.1333C7.49093 14.1333 7.09093 13.7333 7.09093 13.2485C7.09093 12.7636 7.49093 12.3636 7.97578 12.3636C8.46062 12.3636 8.86062 12.7636 8.86062 13.2485C8.86062 13.7333 8.46062 14.1333 7.97578 14.1333ZM7.97578 12.3879C7.50305 12.3879 7.11517 12.7758 7.11517 13.2485C7.11517 13.7212 7.50305 14.1091 7.97578 14.1091C8.4485 14.1091 8.83638 13.7212 8.83638 13.2485C8.83638 12.7758 8.4485 12.3879 7.97578 12.3879ZM7.97578 14.0121C7.79396 14.0121 7.60002 13.9273 7.44244 13.7697C7.28487 13.6121 7.20002 13.4303 7.20002 13.2364C7.20002 13.0546 7.28487 12.8606 7.44244 12.703C7.60002 12.5455 7.78184 12.4606 7.97578 12.4606C8.25456 12.4606 8.43638 12.594 8.53335 12.703C8.66668 12.8485 8.73941 13.0424 8.73941 13.2364C8.73941 13.4182 8.65456 13.6121 8.49699 13.7697C8.35153 13.9273 8.15759 14.0121 7.97578 14.0121ZM7.97578 12.5091C7.79396 12.5091 7.61214 12.594 7.46669 12.7394C7.32123 12.8849 7.23638 13.0788 7.23638 13.2485C7.23638 13.4303 7.32123 13.6121 7.46669 13.7576C7.61214 13.903 7.80608 13.9879 7.97578 13.9879C8.14547 13.9879 8.33941 13.903 8.48487 13.7576C8.63032 13.6121 8.71517 13.4182 8.71517 13.2485C8.71517 12.7879 8.33941 12.5091 7.97578 12.5091Z" fill="#2D3E50"/>
<path d="M11.9879 13.2485C11.9879 14.0243 12.5697 14.6061 13.3455 14.6061C14.1212 14.6061 14.703 14.0243 14.703 13.2485C14.703 12.4727 14.1212 11.8909 13.3455 11.8909C12.5697 11.8909 11.9879 12.4727 11.9879 13.2485ZM12.497 13.2485C12.497 12.7758 12.8727 12.497 13.2485 12.497C13.7212 12.497 14 12.8727 14 13.2485C14 13.7212 13.6242 14 13.2485 14C12.8727 14 12.497 13.7212 12.497 13.2485Z" fill="#2D3E50"/>
<path d="M13.3455 14.6182C12.5697 14.6182 11.9758 14.0364 11.9758 13.2485C11.9758 12.4727 12.5576 11.8788 13.3455 11.8788C14.1333 11.8788 14.7152 12.4606 14.7152 13.2485C14.7152 14.0243 14.1333 14.6182 13.3455 14.6182ZM13.3455 11.903C12.5818 11.903 12 12.4849 12 13.2485C12 14.0121 12.5818 14.594 13.3455 14.594C14.1091 14.594 14.6909 14.0121 14.6909 13.2485C14.6909 12.4849 14.1091 11.903 13.3455 11.903ZM13.2485 14.0121C13.0546 14.0121 12.8606 13.9394 12.7152 13.8061C12.6061 13.7091 12.4727 13.5273 12.4727 13.2485C12.4727 12.9697 12.6061 12.7879 12.7152 12.6909C12.8606 12.5576 13.0546 12.4849 13.2485 12.4849C13.5273 12.4849 13.7091 12.6182 13.8061 12.7273C13.9394 12.8727 14.0121 13.0667 14.0121 13.2606C14.0121 13.5394 13.8788 13.7212 13.7697 13.8182C13.6364 13.9394 13.4424 14.0121 13.2485 14.0121ZM13.2485 12.5091C12.8849 12.5091 12.5091 12.7879 12.5091 13.2485C12.5091 13.6121 12.7879 13.9879 13.2485 13.9879C13.7091 13.9879 13.9879 13.6121 13.9879 13.2485C14 12.7879 13.6121 12.5091 13.2485 12.5091Z" fill="#2D3E50"/>
<path d="M11.9879 13.2485C11.9879 14.0243 12.5697 14.6061 13.3455 14.6061C14.1212 14.6061 14.703 14.0243 14.703 13.2485C14.703 12.4727 14.1212 11.8909 13.3455 11.8909C12.5697 11.8909 11.9879 12.4727 11.9879 13.2485ZM12.1091 13.2485C12.1091 12.5818 12.6788 12.0121 13.3455 12.0121C14.0121 12.0121 14.5818 12.5818 14.5818 13.2485C14.5818 13.9152 14.0121 14.4849 13.3455 14.4849C12.6788 14.4849 12.1091 13.9152 12.1091 13.2485ZM12.4727 13.2485C12.4727 13.7334 12.8606 14.1212 13.3455 14.1212C13.8303 14.1212 14.2182 13.7334 14.2182 13.2485C14.2182 12.7637 13.8303 12.3758 13.3455 12.3758C12.8606 12.3758 12.4727 12.7637 12.4727 13.2485ZM12.5939 13.2485C12.5939 13.0667 12.6909 12.8727 12.8242 12.7273C12.9697 12.5818 13.1515 12.497 13.3455 12.497C13.5394 12.497 13.7212 12.594 13.8667 12.7273C14.0121 12.8727 14.097 13.0546 14.097 13.2485C14.097 13.4424 14 13.6243 13.8667 13.7697C13.7212 13.9152 13.5394 14 13.3455 14C13.1636 14 12.9697 13.9031 12.8242 13.7697C12.6909 13.6243 12.5939 13.4303 12.5939 13.2485Z" fill="#2D3E50"/>
<path d="M13.3455 14.6182C12.5697 14.6182 11.9758 14.0364 11.9758 13.2485C11.9758 12.4727 12.5576 11.8788 13.3455 11.8788C14.1333 11.8788 14.7152 12.4606 14.7152 13.2485C14.7152 14.0243 14.1333 14.6182 13.3455 14.6182ZM13.3455 11.903C12.5818 11.903 12 12.4849 12 13.2485C12 14.0121 12.5818 14.594 13.3455 14.594C14.1091 14.594 14.6909 14.0121 14.6909 13.2485C14.6909 12.4849 14.1091 11.903 13.3455 11.903ZM13.3455 14.497C12.6667 14.497 12.097 13.9273 12.097 13.2485C12.097 12.5697 12.6667 12 13.3455 12C14.0243 12 14.5939 12.5697 14.5939 13.2485C14.5939 13.9273 14.0243 14.497 13.3455 14.497ZM13.3455 12.0243C12.6788 12.0243 12.1212 12.5818 12.1212 13.2485C12.1212 13.9152 12.6788 14.4727 13.3455 14.4727C14.0121 14.4727 14.5697 13.9152 14.5697 13.2485C14.5697 12.5818 14.0121 12.0243 13.3455 12.0243ZM13.3455 14.1333C12.8606 14.1333 12.4606 13.7333 12.4606 13.2485C12.4606 12.7636 12.8606 12.3636 13.3455 12.3636C13.8303 12.3636 14.2303 12.7636 14.2303 13.2485C14.2303 13.7333 13.8424 14.1333 13.3455 14.1333ZM13.3455 12.3879C12.8727 12.3879 12.4849 12.7758 12.4849 13.2485C12.4849 13.7212 12.8727 14.1091 13.3455 14.1091C13.8182 14.1091 14.2061 13.7212 14.2061 13.2485C14.2061 12.7758 13.8182 12.3879 13.3455 12.3879ZM13.3455 14.0121C13.1636 14.0121 12.9697 13.9273 12.8121 13.7697C12.6546 13.6121 12.5697 13.4303 12.5697 13.2364C12.5697 13.0546 12.6546 12.8606 12.8121 12.703C12.9697 12.5455 13.1515 12.4606 13.3455 12.4606C13.5394 12.4606 13.7212 12.5455 13.8788 12.703C14.0364 12.8606 14.1212 13.0424 14.1212 13.2364C14.1212 13.4182 14.0364 13.6121 13.8788 13.7697C13.7212 13.9273 13.5273 14.0121 13.3455 14.0121ZM13.3455 12.5091C13.1636 12.5091 12.9818 12.594 12.8364 12.7394C12.6909 12.8849 12.6061 13.0788 12.6061 13.2485C12.6061 13.4303 12.6909 13.6121 12.8364 13.7576C12.9818 13.903 13.1758 13.9879 13.3455 13.9879C13.5152 13.9879 13.7091 13.903 13.8546 13.7576C14 13.6121 14.0849 13.4182 14.0849 13.2485C14.0849 13.0667 14 12.8849 13.8546 12.7394C13.7091 12.594 13.5273 12.5091 13.3455 12.5091Z" fill="#2D3E50"/>
<path d="M6.71515 3.36971C6.71515 4.14546 7.29697 4.72728 8.07272 4.72728C8.84848 4.72728 9.4303 4.14546 9.4303 3.36971C9.4303 2.59395 8.75151 2.01213 7.97575 2.01213C7.29697 2.01213 6.71515 2.59395 6.71515 3.36971ZM7.22424 3.36971C7.22424 2.89698 7.6 2.61819 7.97575 2.61819C8.44848 2.61819 8.72727 2.99395 8.72727 3.36971C8.72727 3.84243 8.35151 4.12122 7.97575 4.12122C7.6 4.12122 7.22424 3.84243 7.22424 3.36971Z" fill="#2D3E50"/>
<path d="M8.07276 4.73939C7.297 4.73939 6.70306 4.15758 6.70306 3.3697C6.70306 2.61818 7.27276 2 7.97579 2C8.78791 2 9.44246 2.61818 9.44246 3.3697C9.44246 4.14545 8.84852 4.73939 8.07276 4.73939ZM7.97579 2.02424C7.28488 2.02424 6.72731 2.6303 6.72731 3.3697C6.72731 4.13333 7.30912 4.71515 8.07276 4.71515C8.8364 4.71515 9.41822 4.13333 9.41822 3.3697C9.41822 2.6303 8.77579 2.02424 7.97579 2.02424ZM7.97579 4.13333C7.60003 4.13333 7.21215 3.84242 7.21215 3.3697C7.21215 2.89697 7.60003 2.60606 7.97579 2.60606C8.25458 2.60606 8.4364 2.73939 8.53337 2.84848C8.6667 2.99394 8.73943 3.18788 8.73943 3.38182C8.73943 3.66061 8.60609 3.84242 8.497 3.93939C8.36367 4.06061 8.16973 4.13333 7.97579 4.13333ZM7.97579 2.61818C7.61215 2.61818 7.2364 2.89697 7.2364 3.35758C7.2364 3.81818 7.61215 4.09697 7.97579 4.09697C8.4364 4.09697 8.71518 3.72121 8.71518 3.35758C8.71518 2.99394 8.4364 2.61818 7.97579 2.61818Z" fill="#2D3E50"/>
<path d="M6.61819 3.36971C6.61819 4.14546 7.20001 4.72728 7.97577 4.72728C8.75153 4.72728 9.33335 4.14546 9.33335 3.36971C9.33335 2.59395 8.75153 2.01213 7.97577 2.01213C7.20001 2.01213 6.61819 2.59395 6.61819 3.36971ZM6.73941 3.36971C6.73941 2.70304 7.3091 2.13334 7.97577 2.13334C8.73941 2.13334 9.21213 2.70304 9.21213 3.36971C9.21213 4.03637 8.64244 4.60607 7.97577 4.60607C7.3091 4.60607 6.73941 4.03637 6.73941 3.36971ZM7.10304 3.36971C7.10304 3.85455 7.49092 4.24243 7.97577 4.24243C8.46062 4.24243 8.8485 3.85455 8.8485 3.36971C8.8485 3.12728 8.72729 2.9091 8.55759 2.75152C8.38789 2.59395 8.16971 2.49698 7.97577 2.49698C7.78183 2.49698 7.56365 2.59395 7.39395 2.75152C7.22425 2.9091 7.10304 3.12728 7.10304 3.36971ZM7.22426 3.36971C7.22426 3.17577 7.32122 2.99395 7.45456 2.84849C7.58789 2.70304 7.78183 2.61819 7.97577 2.61819C8.4485 2.61819 8.72729 2.99395 8.72729 3.36971C8.72729 3.56365 8.63032 3.74546 8.49698 3.89092C8.35153 4.03637 8.16971 4.12122 7.97577 4.12122C7.78183 4.12122 7.60001 4.02425 7.45456 3.89092C7.3091 3.75758 7.22426 3.55152 7.22426 3.36971Z" fill="#2D3E50"/>
<path d="M7.97577 4.73939C7.20002 4.73939 6.60608 4.15758 6.60608 3.3697C6.60608 2.58182 7.1879 2 7.97577 2C8.75153 2 9.34547 2.58182 9.34547 3.3697C9.34547 4.15758 8.75153 4.73939 7.97577 4.73939ZM7.97577 2.02424C7.21214 2.02424 6.63032 2.60606 6.63032 3.3697C6.63032 4.13333 7.21214 4.71515 7.97577 4.71515C8.73941 4.71515 9.32123 4.13333 9.32123 3.3697C9.32123 2.60606 8.73941 2.02424 7.97577 2.02424ZM7.97577 4.61818C7.29699 4.61818 6.72729 4.04848 6.72729 3.3697C6.72729 2.69091 7.29699 2.12121 7.97577 2.12121C8.70305 2.12121 9.22426 2.64242 9.22426 3.3697C9.22426 4.04848 8.65456 4.61818 7.97577 4.61818ZM7.97577 2.14545C7.30911 2.14545 6.75153 2.70303 6.75153 3.3697C6.75153 4.03636 7.30911 4.59394 7.97577 4.59394C8.64244 4.59394 9.20002 4.03636 9.20002 3.3697C9.20002 2.65455 8.6788 2.14545 7.97577 2.14545ZM7.97577 4.25455C7.49093 4.25455 7.09093 3.85455 7.09093 3.3697C7.09093 3.13939 7.20002 2.92121 7.38184 2.73939C7.55153 2.58182 7.78184 2.48485 7.97577 2.48485C8.16971 2.48485 8.3879 2.58182 8.56971 2.73939C8.76365 2.92121 8.86062 3.13939 8.86062 3.3697C8.86062 3.85455 8.46062 4.25455 7.97577 4.25455ZM7.97577 2.50909C7.78184 2.50909 7.57578 2.60606 7.40608 2.76364C7.22426 2.93333 7.11517 3.15152 7.11517 3.3697C7.11517 3.84242 7.50305 4.2303 7.97577 4.2303C8.4485 4.2303 8.83638 3.84242 8.83638 3.3697C8.83638 3.15152 8.73941 2.93333 8.54547 2.76364C8.3879 2.59394 8.16971 2.50909 7.97577 2.50909ZM7.97577 4.13333C7.79396 4.13333 7.60002 4.04848 7.44244 3.89091C7.28487 3.73333 7.20002 3.55151 7.20002 3.35758C7.20002 3.16364 7.28487 2.98182 7.44244 2.82424C7.60002 2.66667 7.78184 2.58182 7.97577 2.58182C8.46062 2.58182 8.73941 2.9697 8.73941 3.34545C8.73941 3.52727 8.65456 3.72121 8.49699 3.87879C8.35153 4.04848 8.15759 4.13333 7.97577 4.13333ZM7.97577 2.61818C7.79396 2.61818 7.61214 2.70303 7.46668 2.84848C7.32123 2.99394 7.23638 3.18788 7.23638 3.35758C7.23638 3.52727 7.32123 3.72121 7.46668 3.86667C7.61214 4.01212 7.80608 4.09697 7.97577 4.09697C8.14547 4.09697 8.33941 4.01212 8.48487 3.86667C8.63032 3.72121 8.71517 3.52727 8.71517 3.35758C8.71517 3.00606 8.43638 2.61818 7.97577 2.61818Z" fill="#2D3E50"/>
<path d="M11.9879 3.36971C11.9879 4.14546 12.5697 4.72728 13.3455 4.72728C14.1212 4.72728 14.703 4.14546 14.703 3.36971C14.703 2.59395 14.1212 2.01213 13.3455 2.01213C12.5697 2.01213 11.9879 2.59395 11.9879 3.36971ZM12.497 3.36971C12.497 2.89698 12.8727 2.61819 13.2485 2.61819C13.7212 2.61819 14 2.99395 14 3.36971C14 3.84243 13.6242 4.12122 13.2485 4.12122C12.8727 4.12122 12.497 3.84243 12.497 3.36971Z" fill="#2D3E50"/>
<path d="M13.3455 4.73939C12.5697 4.73939 11.9758 4.15758 11.9758 3.3697C11.9758 2.58182 12.5576 2 13.3455 2C14.1333 2 14.7152 2.58182 14.7152 3.3697C14.7152 4.15758 14.1333 4.73939 13.3455 4.73939ZM13.3455 2.02424C12.5818 2.02424 12 2.60606 12 3.3697C12 4.13333 12.5818 4.71515 13.3455 4.71515C14.1091 4.71515 14.6909 4.13333 14.6909 3.3697C14.6909 2.60606 14.1091 2.02424 13.3455 2.02424ZM13.2485 4.13333C13.0546 4.13333 12.8606 4.06061 12.7152 3.92727C12.6061 3.8303 12.4727 3.64848 12.4727 3.3697C12.4727 3.09091 12.6061 2.90909 12.7152 2.81212C12.8606 2.67879 13.0546 2.60606 13.2485 2.60606C13.5273 2.60606 13.7091 2.73939 13.8061 2.84848C13.9394 2.99394 14.0121 3.18788 14.0121 3.38182C14.0121 3.66061 13.8788 3.84242 13.7697 3.93939C13.6364 4.06061 13.4424 4.13333 13.2485 4.13333ZM13.2485 2.61818C12.7879 2.61818 12.5091 2.99394 12.5091 3.35758C12.5091 3.72121 12.7879 4.09697 13.2485 4.09697C13.7091 4.09697 13.9879 3.72121 13.9879 3.35758C13.9879 2.99394 13.7212 2.61818 13.2485 2.61818Z" fill="#2D3E50"/>
<path d="M11.9879 3.36971C11.9879 4.14546 12.5697 4.72728 13.3455 4.72728C14.1212 4.72728 14.703 4.14546 14.703 3.36971C14.703 2.59395 14.1212 2.01213 13.3455 2.01213C12.5697 2.01213 11.9879 2.59395 11.9879 3.36971ZM12.1091 3.36971C12.1091 2.70304 12.6788 2.13334 13.3455 2.13334C14.0121 2.13334 14.5818 2.70304 14.5818 3.36971C14.5818 4.03637 14.0121 4.60607 13.3455 4.60607C12.6788 4.60607 12.1091 4.03637 12.1091 3.36971ZM12.4727 3.36971C12.4727 3.85455 12.8606 4.24243 13.3455 4.24243C13.8303 4.24243 14.2182 3.85455 14.2182 3.36971C14.2182 2.88486 13.8303 2.49698 13.3455 2.49698C12.8606 2.49698 12.4727 2.88486 12.4727 3.36971ZM12.5939 3.36971C12.5939 3.17577 12.6909 2.99395 12.8242 2.84849C12.9576 2.70304 13.1515 2.61819 13.3455 2.61819C13.5394 2.61819 13.7212 2.71516 13.8667 2.84849C14.0121 2.99395 14.097 3.17577 14.097 3.36971C14.097 3.56365 14 3.74546 13.8667 3.89092C13.7212 4.03637 13.5394 4.12122 13.3455 4.12122C13.1636 4.12122 12.9697 4.02425 12.8242 3.89092C12.6788 3.75758 12.5939 3.55152 12.5939 3.36971Z" fill="#2D3E50"/>
<path d="M13.3455 4.73939C12.5697 4.73939 11.9758 4.15758 11.9758 3.3697C11.9758 2.58182 12.5576 2 13.3455 2C14.1333 2 14.7152 2.58182 14.7152 3.3697C14.7152 4.15758 14.1333 4.73939 13.3455 4.73939ZM13.3455 2.02424C12.5818 2.02424 12 2.60606 12 3.3697C12 4.13333 12.5818 4.71515 13.3455 4.71515C14.1091 4.71515 14.6909 4.13333 14.6909 3.3697C14.6909 2.60606 14.1091 2.02424 13.3455 2.02424ZM13.3455 4.61818C12.6667 4.61818 12.097 4.04848 12.097 3.3697C12.097 2.69091 12.6667 2.12121 13.3455 2.12121C14.0243 2.12121 14.5939 2.69091 14.5939 3.3697C14.5939 4.04848 14.0243 4.61818 13.3455 4.61818ZM13.3455 2.14545C12.6788 2.14545 12.1212 2.70303 12.1212 3.3697C12.1212 4.03636 12.6788 4.59394 13.3455 4.59394C14.0121 4.59394 14.5697 4.03636 14.5697 3.3697C14.5697 2.70303 14.0121 2.14545 13.3455 2.14545ZM13.3455 4.25455C12.8606 4.25455 12.4606 3.85455 12.4606 3.3697C12.4606 2.88485 12.8606 2.48485 13.3455 2.48485C13.8303 2.48485 14.2303 2.88485 14.2303 3.3697C14.2303 3.85455 13.8424 4.25455 13.3455 4.25455ZM13.3455 2.50909C12.8727 2.50909 12.4849 2.89697 12.4849 3.3697C12.4849 3.84242 12.8727 4.2303 13.3455 4.2303C13.8182 4.2303 14.2061 3.84242 14.2061 3.3697C14.2061 2.89697 13.8182 2.50909 13.3455 2.50909ZM13.3455 4.13333C13.1636 4.13333 12.9697 4.04848 12.8121 3.89091C12.6546 3.73333 12.5697 3.55151 12.5697 3.35758C12.5697 3.16364 12.6546 2.98182 12.8121 2.82424C12.9697 2.66667 13.1515 2.58182 13.3455 2.58182C13.5394 2.58182 13.7212 2.66667 13.8788 2.82424C14.0364 2.98182 14.1212 3.16364 14.1212 3.35758C14.1212 3.55151 14.0364 3.73333 13.8788 3.89091C13.7212 4.04848 13.5273 4.13333 13.3455 4.13333ZM13.3455 2.61818C13.1636 2.61818 12.9818 2.70303 12.8364 2.84848C12.6909 2.99394 12.6061 3.18788 12.6061 3.35758C12.6061 3.52727 12.6909 3.72121 12.8364 3.86667C12.9818 4.01212 13.1758 4.09697 13.3455 4.09697C13.5152 4.09697 13.7091 4.01212 13.8546 3.86667C14 3.72121 14.0849 3.52727 14.0849 3.35758C14.0849 3.18788 14 2.99394 13.8546 2.84848C13.7091 2.70303 13.5273 2.61818 13.3455 2.61818Z" fill="#2D3E50"/>
<path d="M2.50912 4.41219L2.49699 4.42431L2.40002 8.26673V8.27885H2.41215H2.50912H2.89699H2.99396H3.00608V8.26673V4.42431V4.41219H2.99396H2.89699H2.50912Z" fill="#2D3E50"/>
<path d="M3.01818 8.27882H2.38788V8.25458L2.48485 4.38791H3.01818V8.27882ZM2.41212 8.25458H2.98182V4.42427H2.49697L2.41212 8.25458Z" fill="#2D3E50"/>
<path d="M2.99396 8.36366H3.00608V8.35153V4.32729V4.31517H2.99396H2.42426H2.41214V4.32729V8.35153V8.36366H2.42426H2.99396ZM2.88487 8.24244H2.52123V4.43638H2.88487V8.24244Z" fill="#2D3E50"/>
<path d="M3.01821 8.37575H2.40002V4.30302H3.01821V8.37575ZM2.41215 8.35151H2.98184V4.32727H2.41215V8.35151ZM2.89699 8.25454H2.50912V4.42424H2.89699V8.25454ZM2.53336 8.23029H2.87275V4.44848H2.53336V8.23029Z" fill="#2D3E50"/>
<path d="M7.78182 4.41219L7.67273 7.29703V7.30916H7.68485H7.78182H8.1697H8.26667H8.27879V7.29703V4.42431V4.41219H8.26667H8.1697H7.78182Z" fill="#2D3E50"/>
<path d="M8.29095 7.32125H7.66064L7.75761 4.40004H8.27883V7.32125H8.29095ZM7.68489 7.29701H8.26671V4.42428H7.78186L7.68489 7.29701Z" fill="#2D3E50"/>
<path d="M8.36365 7.40608L8.37577 4.32729V4.31517H8.36365H7.78184H7.76971V4.32729V4.41214V4.42426V7.29699V7.30911V7.39396V7.40608H7.78184H8.36365ZM7.79396 7.28487V4.43638H8.15759V7.28487H7.79396Z" fill="#2D3E50"/>
<path d="M8.38789 7.41818H7.76971V4.30302H8.38789V7.41818ZM7.78184 7.39393H8.35153V4.32727H7.78184V7.39393ZM8.16971 7.29696H7.78184V4.42424H8.16971V7.29696ZM7.80608 7.27272H8.14547V4.44848H7.80608V7.27272Z" fill="#2D3E50"/>
<path d="M13.1515 4.41219L13.0424 7.29703V7.30916H13.0546H13.1515H13.5394H13.6364H13.6485V7.29703V4.42431V4.41219H13.6364H13.5394H13.1515Z" fill="#2D3E50"/>
<path d="M13.6606 7.32125H13.0303V7.29701L13.1273 4.40004H13.6485V7.32125H13.6606ZM13.0546 7.29701H13.6243V4.42428H13.1394L13.0546 7.29701Z" fill="#2D3E50"/>
<path d="M13.6364 7.40608L13.6485 4.32729V4.31517H13.6364H13.0667H13.0546V4.32729V7.39396V7.40608H13.0667H13.6364ZM13.5273 7.28487H13.1637V4.43638H13.5273V7.28487Z" fill="#2D3E50"/>
<path d="M13.6606 7.41818H13.0424V4.30302H13.6606V7.41818ZM13.0546 7.39393H13.6243V4.32727H13.0546V7.39393ZM13.5394 7.29696H13.1515V4.42424H13.5394V7.29696ZM13.1758 7.27272H13.5152V4.44848H13.1758V7.27272Z" fill="#2D3E50"/>
<path d="M13.1637 8.15761H13.1394L13.0424 12V12.097V12.1091H13.0546H13.1515H13.5394H13.6364H13.6485V12.097V8.25458V8.24246H13.6364H13.5394H13.1637V8.15761Z" fill="#2D3E50"/>
<path d="M13.6606 12.1213H13.0424V12L13.1394 8.14549H13.1879V8.23034H13.6728V12.1213H13.6606ZM13.0546 12.097H13.6243V8.25458H13.1394V8.16973L13.0424 12V12.097H13.0546Z" fill="#2D3E50"/>
<path d="M13.6364 12.2061L13.6485 8.16973V8.14549H13.6364H13.0667H13.0546V8.15761V12.1819V12.194H13.0667H13.6364V12.2061ZM13.5273 12.0849H13.1637V8.2667H13.5273V12.0849Z" fill="#2D3E50"/>
<path d="M13.6606 12.2182H13.0424V8.13335H13.6606V12.2182ZM13.0546 12.194H13.6243V8.15759H13.0546V12.194ZM13.5394 12.097H13.1515V8.25456H13.5394V12.097ZM13.1758 12.0727H13.5152V8.2788H13.1758V12.0727Z" fill="#2D3E50"/>
<path d="M7.78184 8.63033L7.76971 12.097V12.1091H7.78184H7.87881H8.26668H8.36365H8.37577V12.097V8.73942V8.64245V8.63033H8.36365H8.26668H7.78184Z" fill="#2D3E50"/>
<path d="M8.38789 12.1212H7.76971V8.61819H8.38789V12.1212ZM7.78184 12.097H8.35153V8.64244H7.78184V12.097Z" fill="#2D3E50"/>
<path d="M8.36365 12.2061L8.37577 8.64245V8.63033H8.36365H7.78184H7.76971V8.64245V8.7273V8.73942V12.097V12.1091V12.194V12.2061H7.78184H8.36365ZM7.79396 12.0849V8.75154H8.15759V12.0849H7.79396Z" fill="#2D3E50"/>
<path d="M8.38789 12.2182H7.76971V8.61819H8.38789V12.2182ZM7.78184 12.194H8.35153V8.64244H7.78184V12.194ZM8.16971 12.097H7.78184V8.73941H8.16971V12.097ZM7.80608 12.0727H8.14547V8.76365H7.80608V12.0727Z" fill="#2D3E50"/>
<path d="M2.50912 7.76978L2.40002 8.25462V8.26675H2.41215H2.50912H13.5394H13.5515V8.25462V7.86674V7.7819V7.76978H13.5394H2.50912Z" fill="#2D3E50"/>
<path d="M13.5636 8.27884H2.38788L2.49697 7.74551H13.5758V8.27884H13.5636ZM2.41212 8.2546H13.5394V7.76976H2.50909L2.41212 8.2546Z" fill="#2D3E50"/>
<path d="M13.6364 8.36365L13.6485 7.78184V7.76971H13.6364H2.41215H2.40002V7.78184V8.35153V8.36365H2.41215H13.6364ZM13.5273 8.24244H2.52124V7.87881H13.5273V8.24244Z" fill="#2D3E50"/>
<path d="M13.6606 8.37576H2.38788V7.75758H13.6606V8.37576ZM2.41212 8.35152H13.6364V7.78183H2.41212V8.35152ZM13.5394 8.25455H2.50909V7.86667H13.5394V8.25455ZM2.53333 8.23031H13.5152V7.90304H2.53333V8.23031Z" fill="#2D3E50"/>
</svg>
