<svg width="24" height="24" viewBox="0 0 24 24" fill="none" xmlns="http://www.w3.org/2000/svg">
<path d="M3.60207 2C3.76151 2.03974 3.92284 2.07286 4.07944 2.12064C5.02139 2.40687 5.72773 3.28542 5.767 4.21413C5.81431 5.31599 5.24658 6.21867 4.24644 6.61561C4.12107 6.66528 4.0572 6.71259 4.0572 6.86209C4.06288 8.28898 4.06051 9.71633 4.06146 11.1432C4.06146 11.1905 4.07045 11.2378 4.07849 11.3135H21.2735C21.2735 11.7677 21.2735 12.1907 21.2735 12.6136C21.2735 12.7314 21.2541 12.8502 21.2541 12.9666C21.2541 14.5827 21.2541 16.1993 21.2498 17.8154C21.2498 18.0188 21.2924 18.13 21.5058 18.2147C21.9864 18.4044 22.3916 18.7465 22.659 19.1886C22.9265 19.6307 23.0416 20.1483 22.9866 20.6621C22.8891 21.6669 22.117 22.5181 21.0984 22.7404C20.9612 22.7702 20.8217 22.7915 20.683 22.8166H20.5411C20.3802 22.7839 20.218 22.7565 20.0585 22.7172C19.0442 22.4684 18.3222 21.6092 18.239 20.5561C18.1623 19.5891 18.7594 18.6126 19.6971 18.2317C19.9303 18.1371 19.988 18.0193 19.9866 17.7842C19.9762 16.1605 19.9762 14.5371 19.9866 12.914C19.9866 12.6827 19.9176 12.6278 19.6942 12.6278C14.1618 12.6341 8.62944 12.6357 3.09727 12.6325H2.7661C2.759 12.5176 2.74765 12.4192 2.74765 12.3203C2.74765 10.5471 2.74386 8.77201 2.75096 7.00071C2.75096 6.7864 2.69986 6.67427 2.48507 6.58249C1.6808 6.23854 1.19823 5.6254 1.05062 4.75631C1.03774 4.70367 1.02081 4.65211 1 4.60207V4.17628C1.02181 4.11852 1.04045 4.05961 1.05583 3.99981C1.25642 3.01954 1.83834 2.38842 2.79496 2.10172C2.92128 2.06387 3.04949 2.03359 3.17628 2H3.60207ZM3.40763 5.4636C3.68983 5.45875 3.9588 5.34311 4.15646 5.14164C4.35412 4.94018 4.46461 4.66905 4.46407 4.38681C4.45887 3.80868 3.96258 3.31996 3.38728 3.32658C2.81199 3.33321 2.3157 3.83943 2.32469 4.40763C2.33303 4.68971 2.45064 4.95752 2.65269 5.15454C2.85474 5.35156 3.12542 5.46237 3.40763 5.4636ZM20.6168 19.3497C20.0316 19.3497 19.5429 19.8332 19.5447 20.4113C19.5505 20.6933 19.6658 20.962 19.8663 21.1605C20.0668 21.3589 20.3366 21.4715 20.6187 21.4744C20.7601 21.4774 20.9007 21.4521 21.0322 21.4001C21.1637 21.348 21.2835 21.2702 21.3845 21.1713C21.4856 21.0723 21.5658 20.9542 21.6207 20.8238C21.6755 20.6935 21.7037 20.5535 21.7037 20.412C21.7037 20.2706 21.6755 20.1306 21.6207 20.0002C21.5658 19.8699 21.4856 19.7517 21.3845 19.6528C21.2835 19.5538 21.1637 19.4761 21.0322 19.424C20.9007 19.372 20.7601 19.3467 20.6187 19.3497H20.6168Z" fill="#2D3E50"/>
<path d="M11.9288 22.8166C11.6128 22.7286 11.274 22.6865 10.9849 22.5445C10.0818 22.1003 9.6049 21.3438 9.63518 20.3422C9.66546 19.3307 10.1958 18.6074 11.1297 18.2081C11.3128 18.1295 11.3743 18.0458 11.3729 17.8509C11.3648 16.511 11.3686 15.1707 11.3686 13.8295V13.5286H12.6233C12.629 13.6232 12.6399 13.723 12.6403 13.8224C12.6403 15.1471 12.647 16.4718 12.6351 17.7965C12.6351 18.0283 12.6985 18.1371 12.919 18.2265C13.9163 18.632 14.5181 19.6823 14.3695 20.7127C14.212 21.8074 13.3859 22.625 12.2973 22.7664C12.2364 22.7787 12.1764 22.7956 12.118 22.8171L11.9288 22.8166ZM12.0083 19.3497C11.7262 19.35 11.4555 19.4613 11.2548 19.6595C11.054 19.8577 10.9392 20.1269 10.9353 20.409C10.9315 20.9805 11.4297 21.4753 12.0073 21.4739C12.1487 21.4769 12.2893 21.4516 12.4208 21.3996C12.5523 21.3475 12.6721 21.2697 12.7731 21.1708C12.8742 21.0719 12.9545 20.9537 13.0093 20.8234C13.0641 20.693 13.0923 20.553 13.0923 20.4116C13.0923 20.2701 13.0641 20.1301 13.0093 19.9997C12.9545 19.8694 12.8742 19.7512 12.7731 19.6523C12.6721 19.5534 12.5523 19.4756 12.4208 19.4235C12.2893 19.3715 12.1487 19.3462 12.0073 19.3492L12.0083 19.3497Z" fill="#2D3E50"/>
<path d="M20.8231 2C21.0918 2.08327 21.3771 2.13294 21.6274 2.25642C22.5736 2.72953 23.05 3.51393 22.9814 4.56801C22.9175 5.55349 22.3744 6.2357 21.4674 6.61182C21.2924 6.68468 21.2503 6.77078 21.2508 6.94063C21.2564 7.9649 21.2541 8.98964 21.2531 10.0158C21.2531 10.1104 21.2441 10.2003 21.2389 10.3025H19.98V10.0281C19.98 9.00384 19.9762 7.97909 19.9838 6.95293C19.9838 6.77173 19.9422 6.67711 19.7576 6.60662C19.2813 6.42755 18.8761 6.09853 18.6031 5.66915C18.33 5.23976 18.2039 4.73325 18.2437 4.22596C18.344 3.08341 19.1426 2.23892 20.2431 2.05251C20.2955 2.03928 20.3468 2.02172 20.3963 2H20.8231ZM20.6163 5.4636C20.8958 5.45772 21.1619 5.34256 21.3575 5.14281C21.5531 4.94307 21.6626 4.67465 21.6626 4.39509C21.6626 4.11554 21.5531 3.84711 21.3575 3.64737C21.1619 3.44762 20.8958 3.33247 20.6163 3.32658C20.0425 3.32658 19.5405 3.8276 19.5433 4.39769C19.5491 4.67998 19.6643 4.94897 19.8647 5.14786C20.0651 5.34676 20.335 5.45997 20.6173 5.4636H20.6163Z" fill="#2D3E50"/>
<path d="M12.2125 2C12.4884 2.08658 12.7803 2.13767 13.0362 2.26636C13.9715 2.73946 14.438 3.52198 14.3699 4.56706C14.3056 5.55254 13.7639 6.23381 12.856 6.61182C12.6842 6.68373 12.6355 6.76605 12.6364 6.93874C12.6426 7.97105 12.6398 9.00336 12.6388 10.0357C12.6388 10.1199 12.6298 10.2041 12.6246 10.3001H11.369V10.0281C11.369 9.01945 11.3633 8.01079 11.3737 7.00261C11.3761 6.78592 11.3212 6.67474 11.106 6.58769C10.6404 6.40413 10.2461 6.07574 9.98144 5.65099C9.71676 5.22623 9.59566 4.72763 9.63602 4.22879C9.74247 3.07915 10.5349 2.23939 11.6339 2.05251C11.6864 2.03928 11.7377 2.02172 11.7872 2H12.2125ZM13.0745 4.40905C13.0741 4.12676 12.9636 3.85577 12.7665 3.65371C12.5694 3.45164 12.3012 3.33445 12.019 3.32706C11.4513 3.31476 10.9479 3.80584 10.9342 4.38539C10.921 4.95312 11.4201 5.45887 11.9954 5.4636C12.2778 5.46489 12.5494 5.35499 12.7514 5.15766C12.9534 4.96032 13.0697 4.69141 13.075 4.40905H13.0745Z" fill="#2D3E50"/>
</svg>
