<svg width="16" height="16" viewBox="0 0 16 16" fill="none" xmlns="http://www.w3.org/2000/svg">
<path d="M2.40137 1.33333C2.50766 1.35982 2.61522 1.3819 2.71961 1.41376C3.34758 1.60457 3.81848 2.19028 3.84466 2.80941C3.8762 3.54399 3.49771 4.14578 2.83095 4.4104C2.74737 4.44352 2.70479 4.47506 2.70479 4.57472C2.70857 5.52598 2.707 6.47755 2.70763 7.4288C2.70763 7.46034 2.71362 7.49188 2.71898 7.54235H14.1823C14.1823 7.84514 14.1823 8.12711 14.1823 8.40908C14.1823 8.48761 14.1694 8.56678 14.1694 8.64437C14.1694 9.72178 14.1694 10.7995 14.1665 11.8769C14.1665 12.0126 14.1949 12.0867 14.3372 12.1431C14.6576 12.2696 14.9277 12.4977 15.106 12.7924C15.2843 13.0871 15.3611 13.4322 15.3244 13.7747C15.2594 14.4446 14.7447 15.012 14.0656 15.1603C13.9741 15.1801 13.8811 15.1943 13.7887 15.2111H13.6941C13.5868 15.1893 13.4786 15.171 13.3723 15.1448C12.6961 14.9789 12.2148 14.4061 12.1593 13.7041C12.1082 13.0594 12.5063 12.4084 13.1314 12.1545C13.2869 12.0914 13.3254 12.0129 13.3244 11.8561C13.3175 10.7737 13.3175 9.6914 13.3244 8.60936C13.3244 8.45512 13.2784 8.41854 13.1295 8.41854C9.44117 8.42274 5.75295 8.42379 2.06484 8.42169H1.84406C1.83932 8.34505 1.83175 8.27945 1.83175 8.21353C1.83175 7.0314 1.82923 5.848 1.83396 4.66714C1.83396 4.52426 1.7999 4.44951 1.65671 4.38832C1.12052 4.15902 0.79881 3.75026 0.700405 3.17087C0.691815 3.13577 0.680532 3.1014 0.666656 3.06804V2.78418C0.681196 2.74567 0.693621 2.7064 0.703874 2.66654C0.837605 2.01302 1.22555 1.59227 1.8633 1.40114C1.94751 1.37591 2.03298 1.35572 2.11751 1.33333H2.40137ZM2.27174 3.64239C2.45987 3.63916 2.63919 3.56207 2.77096 3.42776C2.90273 3.29345 2.9764 3.11269 2.97604 2.92454C2.97257 2.53911 2.64171 2.2133 2.25818 2.21772C1.87465 2.22213 1.54379 2.55961 1.54978 2.93841C1.55535 3.12647 1.63375 3.30501 1.76845 3.43635C1.90315 3.5677 2.08361 3.64158 2.27174 3.64239V3.64239ZM13.7445 12.8998C13.3544 12.8998 13.0286 13.2221 13.0298 13.6075C13.0337 13.7956 13.1106 13.9747 13.2442 14.107C13.3778 14.2393 13.5577 14.3143 13.7458 14.3163C13.84 14.3182 13.9338 14.3014 14.0214 14.2667C14.1091 14.232 14.189 14.1801 14.2563 14.1142C14.3237 14.0482 14.3772 13.9695 14.4138 13.8826C14.4503 13.7956 14.4691 13.7023 14.4691 13.608C14.4691 13.5137 14.4503 13.4204 14.4138 13.3335C14.3772 13.2466 14.3237 13.1678 14.2563 13.1019C14.189 13.0359 14.1091 12.984 14.0214 12.9493C13.9338 12.9146 13.84 12.8978 13.7458 12.8998H13.7445Z" fill="#2D3E50"/>
<path d="M7.95249 15.211C7.74181 15.1524 7.51598 15.1243 7.32327 15.0297C6.72116 14.7335 6.40324 14.2292 6.42342 13.5615C6.44361 12.8872 6.79717 12.4049 7.41978 12.1387C7.54184 12.0864 7.58284 12.0305 7.5819 11.9006C7.57653 11.0074 7.57906 10.1138 7.57906 9.21965V9.01906H8.41551C8.41929 9.08214 8.42655 9.14869 8.42686 9.21492C8.42686 10.0981 8.43128 10.9812 8.42339 11.8643C8.42339 12.0189 8.46565 12.0914 8.61263 12.151C9.2775 12.4213 9.67869 13.1215 9.57966 13.8085C9.47463 14.5383 8.92394 15.0833 8.19819 15.1776C8.15755 15.1858 8.11758 15.1971 8.07866 15.2114L7.95249 15.211ZM8.00548 12.8998C7.81741 12.9 7.63698 12.9742 7.50314 13.1063C7.3693 13.2384 7.2928 13.4179 7.29015 13.606C7.28763 13.987 7.61974 14.3169 8.00485 14.3159C8.09912 14.3179 8.19283 14.3011 8.2805 14.2664C8.36817 14.2317 8.44803 14.1798 8.5154 14.1139C8.58277 14.0479 8.63629 13.9692 8.67283 13.8822C8.70937 13.7953 8.72819 13.702 8.72819 13.6077C8.72819 13.5134 8.70937 13.4201 8.67283 13.3332C8.63629 13.2462 8.58277 13.1675 8.5154 13.1015C8.44803 13.0356 8.36817 12.9837 8.2805 12.949C8.19283 12.9143 8.09912 12.8975 8.00485 12.8995L8.00548 12.8998Z" fill="#2D3E50"/>
<path d="M13.882 1.33333C14.0612 1.38884 14.2514 1.42196 14.4182 1.50428C15.049 1.81968 15.3666 2.34262 15.3209 3.04534C15.2783 3.70232 14.9162 4.15713 14.3116 4.40788C14.1949 4.45645 14.1668 4.51385 14.1672 4.62708C14.1709 5.30993 14.1694 5.99309 14.1687 6.6772C14.1687 6.74028 14.1627 6.80021 14.1593 6.86833H13.32V6.6854C13.32 6.00255 13.3175 5.31939 13.3225 4.63528C13.3225 4.51448 13.2948 4.4514 13.1717 4.40441C12.8542 4.28503 12.5841 4.06568 12.402 3.77943C12.22 3.49317 12.1359 3.1555 12.1625 2.8173C12.2293 2.0556 12.7617 1.49261 13.4953 1.36834C13.5303 1.35952 13.5645 1.3478 13.5975 1.33333H13.882ZM13.7442 3.64239C13.9305 3.63847 14.1079 3.5617 14.2383 3.42854C14.3687 3.29538 14.4417 3.11643 14.4417 2.93006C14.4417 2.74369 14.3687 2.56474 14.2383 2.43157C14.1079 2.29841 13.9305 2.22164 13.7442 2.21772C13.3616 2.21772 13.027 2.55173 13.0289 2.93179C13.0327 3.11998 13.1095 3.29931 13.2431 3.4319C13.3767 3.5645 13.5566 3.63998 13.7448 3.64239H13.7442Z" fill="#2D3E50"/>
<path d="M8.1417 1.33333C8.32558 1.39105 8.52018 1.42511 8.69081 1.5109C9.31436 1.8263 9.62535 2.34798 9.57993 3.0447C9.53704 3.70169 9.1759 4.15587 8.57064 4.40788C8.45615 4.45582 8.42367 4.5107 8.4243 4.62582C8.4284 5.31403 8.42651 6.00224 8.42587 6.69045C8.42587 6.74659 8.41988 6.80273 8.41641 6.86676H7.57933V6.6854C7.57933 6.01296 7.57555 5.34052 7.58249 4.6684C7.58406 4.52394 7.54748 4.44982 7.40397 4.39179C7.09357 4.26942 6.83075 4.05049 6.6543 3.76732C6.47784 3.48415 6.39711 3.15175 6.42401 2.81919C6.49498 2.05276 7.02328 1.49292 7.75596 1.36834C7.79093 1.35952 7.82511 1.3478 7.85815 1.33333H8.1417ZM8.71636 2.93936C8.7161 2.75117 8.64242 2.57051 8.51101 2.4358C8.3796 2.30109 8.20082 2.22296 8.0127 2.21803C7.63421 2.20983 7.29863 2.53722 7.28948 2.92359C7.28065 3.30207 7.6134 3.63924 7.99693 3.64239C8.1852 3.64326 8.36625 3.56999 8.50093 3.43843C8.63561 3.30688 8.71311 3.1276 8.71668 2.93936H8.71636Z" fill="#2D3E50"/>
</svg>
