<svg width="12" height="12" viewBox="0 0 12 12" fill="none" xmlns="http://www.w3.org/2000/svg">
<path d="M1.00909 2.52729C1.00909 3.10911 1.44546 3.54547 2.02728 3.54547C2.60909 3.54547 3.04546 3.10911 3.04546 2.52729C3.04546 1.94547 2.60909 1.50911 2.02728 1.50911C1.44546 1.50911 1.00909 1.94547 1.00909 2.52729ZM1.45455 2.52729C1.45455 2.17275 1.73637 1.96365 2.01819 1.96365C2.37273 1.96365 2.58182 2.24547 2.58182 2.52729C2.58182 2.88184 2.3 3.09093 2.01819 3.09093C1.73637 3.09093 1.45455 2.88184 1.45455 2.52729Z" fill="#2D3E50"/>
<path d="M2.02727 3.55455C1.44545 3.55455 1 3.11818 1 2.52727C1 1.93636 1.43636 1.5 2.02727 1.5C2.61818 1.5 3.05455 1.93636 3.05455 2.52727C3.05455 3.11818 2.60909 3.55455 2.02727 3.55455ZM2.02727 1.51818C1.45455 1.51818 1.01818 1.95455 1.01818 2.52727C1.01818 3.1 1.45455 3.53636 2.02727 3.53636C2.6 3.53636 3.03636 3.1 3.03636 2.52727C3.03636 1.95455 2.6 1.51818 2.02727 1.51818ZM2.02727 3.1C1.74545 3.1 1.45455 2.88182 1.45455 2.52727C1.45455 2.17273 1.74545 1.95455 2.02727 1.95455C2.39091 1.95455 2.6 2.24545 2.6 2.52727C2.6 2.88182 2.30909 3.1 2.02727 3.1ZM2.02727 1.96364C1.75455 1.96364 1.47273 2.17273 1.47273 2.51818C1.47273 2.86364 1.75455 3.07273 2.02727 3.07273C2.3 3.07273 2.58182 2.86364 2.58182 2.51818C2.58182 2.25455 2.37273 1.96364 2.02727 1.96364Z" fill="#2D3E50"/>
<path d="M1.00909 2.52729C1.00909 3.10911 1.44546 3.54547 2.02728 3.54547C2.60909 3.54547 3.04546 3.10911 3.04546 2.52729C3.04546 1.94547 2.60909 1.50911 2.02728 1.50911C1.44546 1.50911 1.00909 1.94547 1.00909 2.52729ZM1.1 2.52729C1.1 2.02729 1.52728 1.60002 2.02728 1.60002C2.52728 1.60002 2.95455 2.02729 2.95455 2.52729C2.95455 3.02729 2.52728 3.45456 2.02728 3.45456C1.52728 3.45456 1.1 3.02729 1.1 2.52729ZM1.37273 2.52729C1.37273 2.89093 1.66364 3.18184 2.02728 3.18184C2.39091 3.18184 2.68182 2.89093 2.68182 2.52729C2.68182 2.16365 2.39091 1.87275 2.02728 1.87275C1.66364 1.87275 1.37273 2.16365 1.37273 2.52729ZM1.45455 2.52729C1.45455 2.38184 1.52728 2.24547 1.62728 2.13638C1.72728 2.02729 1.87273 1.96365 2.01819 1.96365C2.16364 1.96365 2.3 2.03638 2.40909 2.13638C2.51819 2.24547 2.58182 2.38184 2.58182 2.52729C2.58182 2.67275 2.50909 2.80911 2.40909 2.9182C2.3 3.02729 2.16364 3.09093 2.01819 3.09093C1.87273 3.09093 1.74546 3.0182 1.63637 2.9182C1.52728 2.8182 1.45455 2.66365 1.45455 2.52729Z" fill="#2D3E50"/>
<path d="M2.02727 3.55455C1.44545 3.55455 1 3.11818 1 2.52727C1 1.93636 1.43636 1.5 2.02727 1.5C2.61818 1.5 3.05455 1.93636 3.05455 2.52727C3.05455 3.11818 2.60909 3.55455 2.02727 3.55455ZM2.02727 1.51818C1.45455 1.51818 1.01818 1.95455 1.01818 2.52727C1.01818 3.1 1.45455 3.53636 2.02727 3.53636C2.6 3.53636 3.03636 3.1 3.03636 2.52727C3.03636 1.95455 2.6 1.51818 2.02727 1.51818ZM2.02727 3.46364C1.51818 3.46364 1.09091 3.03636 1.09091 2.52727C1.09091 2.01818 1.51818 1.59091 2.02727 1.59091C2.53636 1.59091 2.96364 2.01818 2.96364 2.52727C2.96364 3.03636 2.53636 3.46364 2.02727 3.46364ZM2.02727 1.60909C1.52727 1.60909 1.10909 2.02727 1.10909 2.52727C1.10909 3.02727 1.52727 3.44545 2.02727 3.44545C2.52727 3.44545 2.94545 3.02727 2.94545 2.52727C2.94545 2.02727 2.51818 1.60909 2.02727 1.60909ZM2.02727 3.19091C1.66364 3.19091 1.36364 2.89091 1.36364 2.52727C1.36364 2.16364 1.66364 1.86364 2.02727 1.86364C2.39091 1.86364 2.69091 2.16364 2.69091 2.52727C2.69091 2.89091 2.39091 3.19091 2.02727 3.19091ZM2.02727 1.88182C1.67273 1.88182 1.38182 2.17273 1.38182 2.52727C1.38182 2.88182 1.67273 3.17273 2.02727 3.17273C2.38182 3.17273 2.67273 2.88182 2.67273 2.52727C2.67273 2.17273 2.38182 1.88182 2.02727 1.88182ZM2.02727 3.1C1.89091 3.1 1.74545 3.03636 1.62727 2.91818C1.50909 2.8 1.44545 2.66364 1.44545 2.51818C1.44545 2.37273 1.50909 2.23636 1.62727 2.11818C1.74545 2 1.88182 1.93636 2.02727 1.93636C2.17273 1.93636 2.30909 2 2.42727 2.11818C2.54545 2.23636 2.60909 2.37273 2.60909 2.51818C2.60909 2.66364 2.54545 2.8 2.42727 2.91818C2.30909 3.03636 2.16364 3.1 2.02727 3.1ZM2.02727 1.96364C1.89091 1.96364 1.75455 2.02727 1.64545 2.13636C1.53636 2.24545 1.47273 2.39091 1.47273 2.51818C1.47273 2.64545 1.53636 2.79091 1.64545 2.9C1.75455 3.00909 1.9 3.07273 2.02727 3.07273C2.15455 3.07273 2.3 3.00909 2.40909 2.9C2.51818 2.79091 2.58182 2.64545 2.58182 2.51818C2.58182 2.39091 2.51818 2.24545 2.40909 2.13636C2.3 2.02727 2.15455 1.96364 2.02727 1.96364Z" fill="#2D3E50"/>
<path d="M5.03638 9.93638C5.03638 10.5182 5.47274 10.9546 6.05456 10.9546C6.63638 10.9546 7.07274 10.5182 7.07274 9.93638C7.07274 9.35456 6.63638 8.9182 6.05456 8.9182C5.47274 8.9182 5.03638 9.35456 5.03638 9.93638ZM5.41819 9.93638C5.41819 9.58183 5.70001 9.37274 5.98183 9.37274C6.33638 9.37274 6.54547 9.65456 6.54547 9.93638C6.54547 10.2909 6.26365 10.5 5.98183 10.5C5.70001 10.5 5.41819 10.2909 5.41819 9.93638Z" fill="#2D3E50"/>
<path d="M6.05456 10.9636C5.47274 10.9636 5.02728 10.5273 5.02728 9.93636C5.02728 9.35454 5.46365 8.90909 6.05456 8.90909C6.64546 8.90909 7.08183 9.34545 7.08183 9.93636C7.08183 10.5182 6.63637 10.9636 6.05456 10.9636ZM6.05456 8.92727C5.48183 8.92727 5.04546 9.36363 5.04546 9.93636C5.04546 10.5091 5.48183 10.9455 6.05456 10.9455C6.62728 10.9455 7.06365 10.5091 7.06365 9.93636C7.06365 9.36363 6.62728 8.92727 6.05456 8.92727ZM5.98183 10.5091C5.83637 10.5091 5.69092 10.4545 5.58183 10.3545C5.50001 10.2818 5.40001 10.1455 5.40001 9.93636C5.40001 9.72727 5.50001 9.59091 5.58183 9.51818C5.69092 9.41818 5.83637 9.36363 5.98183 9.36363C6.19092 9.36363 6.32728 9.46363 6.40001 9.54545C6.50001 9.65454 6.55456 9.8 6.55456 9.94545C6.55456 10.1545 6.45456 10.2909 6.37274 10.3636C6.27274 10.4545 6.12728 10.5091 5.98183 10.5091ZM5.98183 9.38182C5.7091 9.38182 5.42728 9.59091 5.42728 9.93636C5.42728 10.2091 5.63637 10.4909 5.98183 10.4909C6.32728 10.4909 6.53637 10.2091 6.53637 9.93636C6.53637 9.59091 6.25456 9.38182 5.98183 9.38182Z" fill="#2D3E50"/>
<path d="M4.96362 9.93638C4.96362 10.5182 5.39999 10.9546 5.9818 10.9546C6.56362 10.9546 7.07271 10.5182 6.99999 9.93638C6.99999 9.35456 6.56362 8.9182 5.9818 8.9182C5.39999 8.9182 4.96362 9.35456 4.96362 9.93638ZM5.05453 9.93638C5.05453 9.43638 5.4818 9.00911 5.9818 9.00911C6.55453 9.00911 6.90908 9.43638 6.90908 9.93638C6.90908 10.4364 6.4818 10.8637 5.9818 10.8637C5.4818 10.8637 5.05453 10.4364 5.05453 9.93638ZM5.32726 9.93638C5.32726 10.3 5.61817 10.5909 5.9818 10.5909C6.34544 10.5909 6.63635 10.3 6.63635 9.93638C6.63635 9.57274 6.34544 9.28183 5.9818 9.28183C5.61817 9.28183 5.32726 9.57274 5.32726 9.93638ZM5.41817 9.93638C5.41817 9.80002 5.4909 9.65456 5.5909 9.54547C5.69999 9.43638 5.83635 9.37274 5.9818 9.37274C6.33635 9.37274 6.54544 9.65456 6.54544 9.93638C6.54544 10.0818 6.47271 10.2182 6.37271 10.3273C6.26362 10.4364 6.12726 10.5 5.9818 10.5C5.83635 10.5 5.69999 10.4273 5.5909 10.3273C5.4818 10.2182 5.41817 10.0727 5.41817 9.93638Z" fill="#2D3E50"/>
<path d="M5.9818 10.9636C5.39998 10.9636 4.95453 10.5273 4.95453 9.93636C4.95453 9.35454 5.39089 8.90909 5.9818 8.90909C6.56362 8.90909 7.00907 9.34545 7.00907 9.93636C7.03635 10.1818 6.96362 10.4182 6.79998 10.6091C6.59998 10.8273 6.29998 10.9636 5.9818 10.9636ZM5.9818 8.92727C5.40907 8.92727 4.97271 9.36363 4.97271 9.93636C4.97271 10.5091 5.40907 10.9455 5.9818 10.9455C6.29089 10.9455 6.59089 10.8182 6.7818 10.6C6.94544 10.4182 7.01816 10.1818 6.99089 9.93636C6.99089 9.36363 6.55453 8.92727 5.9818 8.92727ZM5.9818 10.8727C5.47271 10.8727 5.04544 10.4455 5.04544 9.93636C5.04544 9.42727 5.47271 9 5.9818 9C6.52726 9 6.91817 9.39091 6.91817 9.93636C6.91817 10.4455 6.49089 10.8727 5.9818 10.8727ZM5.9818 9.01818C5.4818 9.01818 5.06362 9.43636 5.06362 9.93636C5.06362 10.4364 5.4818 10.8545 5.9818 10.8545C6.4818 10.8545 6.89998 10.4364 6.89998 9.93636C6.89998 9.4 6.50907 9.01818 5.9818 9.01818ZM5.9818 10.6C5.61817 10.6 5.31817 10.3 5.31817 9.93636C5.31817 9.57272 5.61817 9.27272 5.9818 9.27272C6.34544 9.27272 6.64544 9.57272 6.64544 9.93636C6.64544 10.3 6.34544 10.6 5.9818 10.6ZM5.9818 9.29091C5.62726 9.29091 5.33635 9.58182 5.33635 9.93636C5.33635 10.2909 5.62726 10.5818 5.9818 10.5818C6.33635 10.5818 6.62726 10.2909 6.62726 9.93636C6.62726 9.58182 6.33635 9.29091 5.9818 9.29091ZM5.9818 10.5091C5.84544 10.5091 5.69998 10.4455 5.5818 10.3273C5.46362 10.2091 5.39998 10.0727 5.39998 9.92727C5.39998 9.79091 5.46362 9.64545 5.5818 9.52727C5.69998 9.40909 5.83635 9.34545 5.9818 9.34545C6.19089 9.34545 6.32726 9.44545 6.39998 9.52727C6.49998 9.63636 6.55453 9.78182 6.55453 9.92727C6.55453 10.0636 6.49089 10.2091 6.37271 10.3273C6.26362 10.4455 6.11817 10.5091 5.9818 10.5091ZM5.9818 9.38182C5.84544 9.38182 5.70907 9.44545 5.59998 9.55454C5.49089 9.66363 5.42726 9.80909 5.42726 9.93636C5.42726 10.0727 5.49089 10.2091 5.59998 10.3182C5.70907 10.4273 5.85453 10.4909 5.9818 10.4909C6.10907 10.4909 6.25453 10.4273 6.36362 10.3182C6.47271 10.2091 6.53635 10.0636 6.53635 9.93636C6.53635 9.59091 6.25453 9.38182 5.9818 9.38182Z" fill="#2D3E50"/>
<path d="M8.99091 9.93638C8.99091 10.5182 9.42727 10.9546 10.0091 10.9546C10.5909 10.9546 11.0273 10.5182 11.0273 9.93638C11.0273 9.35456 10.5909 8.9182 10.0091 8.9182C9.42727 8.9182 8.99091 9.35456 8.99091 9.93638ZM9.37272 9.93638C9.37272 9.58183 9.65454 9.37274 9.93636 9.37274C10.2909 9.37274 10.5 9.65456 10.5 9.93638C10.5 10.2909 10.2182 10.5 9.93636 10.5C9.65454 10.5 9.37272 10.2909 9.37272 9.93638Z" fill="#2D3E50"/>
<path d="M10.0091 10.9636C9.4273 10.9636 8.98184 10.5273 8.98184 9.93636C8.98184 9.35454 9.41821 8.90909 10.0091 8.90909C10.6 8.90909 11.0364 9.34545 11.0364 9.93636C11.0364 10.5182 10.6 10.9636 10.0091 10.9636ZM10.0091 8.92727C9.43639 8.92727 9.00002 9.36363 9.00002 9.93636C9.00002 10.5091 9.43639 10.9455 10.0091 10.9455C10.5818 10.9455 11.0182 10.5091 11.0182 9.93636C11.0182 9.36363 10.5818 8.92727 10.0091 8.92727ZM9.93639 10.5091C9.79093 10.5091 9.64548 10.4545 9.53639 10.3545C9.45457 10.2818 9.35457 10.1455 9.35457 9.93636C9.35457 9.72727 9.45457 9.59091 9.53639 9.51818C9.64548 9.41818 9.79093 9.36363 9.93639 9.36363C10.1455 9.36363 10.2818 9.46363 10.3546 9.54545C10.4546 9.65454 10.5091 9.8 10.5091 9.94545C10.5091 10.1545 10.4091 10.2909 10.3273 10.3636C10.2273 10.4545 10.0818 10.5091 9.93639 10.5091ZM9.93639 9.38182C9.66366 9.38182 9.38184 9.59091 9.38184 9.93636C9.38184 10.2091 9.59093 10.4909 9.93639 10.4909C10.2818 10.4909 10.4909 10.2091 10.4909 9.93636C10.5 9.59091 10.2091 9.38182 9.93639 9.38182Z" fill="#2D3E50"/>
<path d="M8.99091 9.93638C8.99091 10.5182 9.42727 10.9546 10.0091 10.9546C10.5909 10.9546 11.0273 10.5182 11.0273 9.93638C11.0273 9.35456 10.5909 8.9182 10.0091 8.9182C9.42727 8.9182 8.99091 9.35456 8.99091 9.93638ZM9.08181 9.93638C9.08181 9.43638 9.50909 9.00911 10.0091 9.00911C10.5091 9.00911 10.9364 9.43638 10.9364 9.93638C10.9364 10.4364 10.5091 10.8637 10.0091 10.8637C9.50909 10.8637 9.08181 10.4364 9.08181 9.93638ZM9.35454 9.93638C9.35454 10.3 9.64545 10.5909 10.0091 10.5909C10.3727 10.5909 10.6636 10.3 10.6636 9.93638C10.6636 9.57274 10.3727 9.28183 10.0091 9.28183C9.64545 9.28183 9.35454 9.57274 9.35454 9.93638ZM9.44545 9.93638C9.44545 9.80002 9.51818 9.65456 9.61818 9.54547C9.72727 9.43638 9.86363 9.37274 10.0091 9.37274C10.1545 9.37274 10.2909 9.44547 10.4 9.54547C10.5091 9.65456 10.5727 9.79092 10.5727 9.93638C10.5727 10.0818 10.5 10.2182 10.4 10.3273C10.2909 10.4364 10.1545 10.5 10.0091 10.5C9.87272 10.5 9.72727 10.4273 9.61818 10.3273C9.51818 10.2182 9.44545 10.0727 9.44545 9.93638Z" fill="#2D3E50"/>
<path d="M10.0091 10.9636C9.4273 10.9636 8.98184 10.5273 8.98184 9.93636C8.98184 9.35454 9.41821 8.90909 10.0091 8.90909C10.6 8.90909 11.0364 9.34545 11.0364 9.93636C11.0364 10.5182 10.6 10.9636 10.0091 10.9636ZM10.0091 8.92727C9.43639 8.92727 9.00002 9.36363 9.00002 9.93636C9.00002 10.5091 9.43639 10.9455 10.0091 10.9455C10.5818 10.9455 11.0182 10.5091 11.0182 9.93636C11.0182 9.36363 10.5818 8.92727 10.0091 8.92727ZM10.0091 10.8727C9.50002 10.8727 9.07275 10.4455 9.07275 9.93636C9.07275 9.42727 9.50002 9 10.0091 9C10.5182 9 10.9455 9.42727 10.9455 9.93636C10.9455 10.4455 10.5182 10.8727 10.0091 10.8727ZM10.0091 9.01818C9.50911 9.01818 9.09093 9.43636 9.09093 9.93636C9.09093 10.4364 9.50911 10.8545 10.0091 10.8545C10.5091 10.8545 10.9273 10.4364 10.9273 9.93636C10.9273 9.43636 10.5091 9.01818 10.0091 9.01818ZM10.0091 10.6C9.64548 10.6 9.34548 10.3 9.34548 9.93636C9.34548 9.57272 9.64548 9.27272 10.0091 9.27272C10.3728 9.27272 10.6728 9.57272 10.6728 9.93636C10.6728 10.3 10.3818 10.6 10.0091 10.6ZM10.0091 9.29091C9.65457 9.29091 9.36366 9.58182 9.36366 9.93636C9.36366 10.2909 9.65457 10.5818 10.0091 10.5818C10.3637 10.5818 10.6546 10.2909 10.6546 9.93636C10.6546 9.58182 10.3637 9.29091 10.0091 9.29091ZM10.0091 10.5091C9.87275 10.5091 9.7273 10.4455 9.60911 10.3273C9.49093 10.2091 9.4273 10.0727 9.4273 9.92727C9.4273 9.79091 9.49093 9.64545 9.60911 9.52727C9.7273 9.40909 9.86366 9.34545 10.0091 9.34545C10.1546 9.34545 10.2909 9.40909 10.4091 9.52727C10.5273 9.64545 10.5909 9.78182 10.5909 9.92727C10.5909 10.0636 10.5273 10.2091 10.4091 10.3273C10.2909 10.4455 10.1455 10.5091 10.0091 10.5091ZM10.0091 9.38182C9.87275 9.38182 9.73639 9.44545 9.6273 9.55454C9.51821 9.66363 9.45457 9.80909 9.45457 9.93636C9.45457 10.0727 9.51821 10.2091 9.6273 10.3182C9.73639 10.4273 9.88184 10.4909 10.0091 10.4909C10.1364 10.4909 10.2818 10.4273 10.3909 10.3182C10.5 10.2091 10.5637 10.0636 10.5637 9.93636C10.5637 9.8 10.5 9.66363 10.3909 9.55454C10.2818 9.44545 10.1455 9.38182 10.0091 9.38182Z" fill="#2D3E50"/>
<path d="M5.03638 2.52729C5.03638 3.10911 5.47274 3.54547 6.05456 3.54547C6.63638 3.54547 7.07274 3.10911 7.07274 2.52729C7.07274 1.94547 6.56365 1.50911 5.98183 1.50911C5.47274 1.50911 5.03638 1.94547 5.03638 2.52729ZM5.41819 2.52729C5.41819 2.17275 5.70001 1.96365 5.98183 1.96365C6.33638 1.96365 6.54547 2.24547 6.54547 2.52729C6.54547 2.88184 6.26365 3.09093 5.98183 3.09093C5.70001 3.09093 5.41819 2.88184 5.41819 2.52729Z" fill="#2D3E50"/>
<path d="M6.05456 3.55455C5.47274 3.55455 5.02728 3.11818 5.02728 2.52727C5.02728 1.96364 5.45456 1.5 5.98183 1.5C6.59092 1.5 7.08183 1.96364 7.08183 2.52727C7.08183 3.10909 6.63637 3.55455 6.05456 3.55455ZM5.98183 1.51818C5.46365 1.51818 5.04546 1.97273 5.04546 2.52727C5.04546 3.1 5.48183 3.53636 6.05456 3.53636C6.62728 3.53636 7.06365 3.1 7.06365 2.52727C7.06365 1.97273 6.58183 1.51818 5.98183 1.51818ZM5.98183 3.1C5.70001 3.1 5.4091 2.88182 5.4091 2.52727C5.4091 2.17273 5.70001 1.95455 5.98183 1.95455C6.19092 1.95455 6.32728 2.05455 6.40001 2.13636C6.50001 2.24545 6.55456 2.39091 6.55456 2.53636C6.55456 2.74545 6.45456 2.88182 6.37274 2.95455C6.27274 3.04545 6.12728 3.1 5.98183 3.1ZM5.98183 1.96364C5.7091 1.96364 5.42728 2.17273 5.42728 2.51818C5.42728 2.86364 5.7091 3.07273 5.98183 3.07273C6.32728 3.07273 6.53637 2.79091 6.53637 2.51818C6.53637 2.24545 6.32728 1.96364 5.98183 1.96364Z" fill="#2D3E50"/>
<path d="M4.96362 2.52729C4.96362 3.10911 5.39999 3.54547 5.9818 3.54547C6.56362 3.54547 6.99999 3.10911 6.99999 2.52729C6.99999 1.94547 6.56362 1.50911 5.9818 1.50911C5.39999 1.50911 4.96362 1.94547 4.96362 2.52729ZM5.05453 2.52729C5.05453 2.02729 5.4818 1.60002 5.9818 1.60002C6.55453 1.60002 6.90908 2.02729 6.90908 2.52729C6.90908 3.02729 6.4818 3.45456 5.9818 3.45456C5.4818 3.45456 5.05453 3.02729 5.05453 2.52729ZM5.32726 2.52729C5.32726 2.89093 5.61817 3.18184 5.9818 3.18184C6.34544 3.18184 6.63635 2.89093 6.63635 2.52729C6.63635 2.34547 6.54544 2.18184 6.41817 2.06365C6.2909 1.94547 6.12726 1.87275 5.9818 1.87275C5.83635 1.87275 5.67271 1.94547 5.54544 2.06365C5.41817 2.18184 5.32726 2.34547 5.32726 2.52729ZM5.41817 2.52729C5.41817 2.38184 5.4909 2.24547 5.5909 2.13638C5.6909 2.02729 5.83635 1.96365 5.9818 1.96365C6.33635 1.96365 6.54544 2.24547 6.54544 2.52729C6.54544 2.67275 6.47271 2.80911 6.37271 2.9182C6.26362 3.02729 6.12726 3.09093 5.9818 3.09093C5.83635 3.09093 5.69999 3.0182 5.5909 2.9182C5.4818 2.8182 5.41817 2.66365 5.41817 2.52729Z" fill="#2D3E50"/>
<path d="M5.9818 3.55455C5.39998 3.55455 4.95453 3.11818 4.95453 2.52727C4.95453 1.93636 5.39089 1.5 5.9818 1.5C6.56362 1.5 7.00907 1.93636 7.00907 2.52727C7.00907 3.11818 6.56362 3.55455 5.9818 3.55455ZM5.9818 1.51818C5.40907 1.51818 4.97271 1.95455 4.97271 2.52727C4.97271 3.1 5.40907 3.53636 5.9818 3.53636C6.55453 3.53636 6.99089 3.1 6.99089 2.52727C6.99089 1.95455 6.55453 1.51818 5.9818 1.51818ZM5.9818 3.46364C5.47271 3.46364 5.04544 3.03636 5.04544 2.52727C5.04544 2.01818 5.47271 1.59091 5.9818 1.59091C6.52725 1.59091 6.91816 1.98182 6.91816 2.52727C6.91816 3.03636 6.49089 3.46364 5.9818 3.46364ZM5.9818 1.60909C5.4818 1.60909 5.06362 2.02727 5.06362 2.52727C5.06362 3.02727 5.4818 3.44545 5.9818 3.44545C6.4818 3.44545 6.89998 3.02727 6.89998 2.52727C6.89998 1.99091 6.50907 1.60909 5.9818 1.60909ZM5.9818 3.19091C5.61816 3.19091 5.31816 2.89091 5.31816 2.52727C5.31816 2.35455 5.39998 2.19091 5.53635 2.05455C5.66362 1.93636 5.83635 1.86364 5.9818 1.86364C6.12726 1.86364 6.29089 1.93636 6.42726 2.05455C6.57271 2.19091 6.64544 2.35455 6.64544 2.52727C6.64544 2.89091 6.34544 3.19091 5.9818 3.19091ZM5.9818 1.88182C5.83635 1.88182 5.6818 1.95455 5.55453 2.07273C5.41817 2.2 5.33635 2.36364 5.33635 2.52727C5.33635 2.88182 5.62726 3.17273 5.9818 3.17273C6.33635 3.17273 6.62725 2.88182 6.62725 2.52727C6.62725 2.36364 6.55453 2.2 6.40907 2.07273C6.29089 1.94545 6.12726 1.88182 5.9818 1.88182ZM5.9818 3.1C5.84544 3.1 5.69998 3.03636 5.5818 2.91818C5.46362 2.8 5.39998 2.66364 5.39998 2.51818C5.39998 2.37273 5.46362 2.23636 5.5818 2.11818C5.69998 2 5.83635 1.93636 5.9818 1.93636C6.34544 1.93636 6.55453 2.22727 6.55453 2.50909C6.55453 2.64545 6.49089 2.79091 6.37271 2.90909C6.26362 3.03636 6.11816 3.1 5.9818 3.1ZM5.9818 1.96364C5.84544 1.96364 5.70907 2.02727 5.59998 2.13636C5.49089 2.24545 5.42726 2.39091 5.42726 2.51818C5.42726 2.64545 5.49089 2.79091 5.59998 2.9C5.70907 3.00909 5.85453 3.07273 5.9818 3.07273C6.10907 3.07273 6.25453 3.00909 6.36362 2.9C6.47271 2.79091 6.53635 2.64545 6.53635 2.51818C6.53635 2.25455 6.32725 1.96364 5.9818 1.96364Z" fill="#2D3E50"/>
<path d="M8.99091 2.52729C8.99091 3.10911 9.42727 3.54547 10.0091 3.54547C10.5909 3.54547 11.0273 3.10911 11.0273 2.52729C11.0273 1.94547 10.5909 1.50911 10.0091 1.50911C9.42727 1.50911 8.99091 1.94547 8.99091 2.52729ZM9.37272 2.52729C9.37272 2.17275 9.65454 1.96365 9.93636 1.96365C10.2909 1.96365 10.5 2.24547 10.5 2.52729C10.5 2.88184 10.2182 3.09093 9.93636 3.09093C9.65454 3.09093 9.37272 2.88184 9.37272 2.52729Z" fill="#2D3E50"/>
<path d="M10.0091 3.55455C9.4273 3.55455 8.98184 3.11818 8.98184 2.52727C8.98184 1.93636 9.41821 1.5 10.0091 1.5C10.6 1.5 11.0364 1.93636 11.0364 2.52727C11.0364 3.11818 10.6 3.55455 10.0091 3.55455ZM10.0091 1.51818C9.43639 1.51818 9.00002 1.95455 9.00002 2.52727C9.00002 3.1 9.43639 3.53636 10.0091 3.53636C10.5818 3.53636 11.0182 3.1 11.0182 2.52727C11.0182 1.95455 10.5818 1.51818 10.0091 1.51818ZM9.93639 3.1C9.79093 3.1 9.64548 3.04545 9.53639 2.94545C9.45457 2.87273 9.35457 2.73636 9.35457 2.52727C9.35457 2.31818 9.45457 2.18182 9.53639 2.10909C9.64548 2.00909 9.79093 1.95455 9.93639 1.95455C10.1455 1.95455 10.2818 2.05455 10.3546 2.13636C10.4546 2.24545 10.5091 2.39091 10.5091 2.53636C10.5091 2.74545 10.4091 2.88182 10.3273 2.95455C10.2273 3.04545 10.0818 3.1 9.93639 3.1ZM9.93639 1.96364C9.59093 1.96364 9.38184 2.24545 9.38184 2.51818C9.38184 2.79091 9.59093 3.07273 9.93639 3.07273C10.2818 3.07273 10.4909 2.79091 10.4909 2.51818C10.4909 2.24545 10.2909 1.96364 9.93639 1.96364Z" fill="#2D3E50"/>
<path d="M8.99091 2.52729C8.99091 3.10911 9.42727 3.54547 10.0091 3.54547C10.5909 3.54547 11.0273 3.10911 11.0273 2.52729C11.0273 1.94547 10.5909 1.50911 10.0091 1.50911C9.42727 1.50911 8.99091 1.94547 8.99091 2.52729ZM9.08181 2.52729C9.08181 2.02729 9.50909 1.60002 10.0091 1.60002C10.5091 1.60002 10.9364 2.02729 10.9364 2.52729C10.9364 3.02729 10.5091 3.45456 10.0091 3.45456C9.50909 3.45456 9.08181 3.02729 9.08181 2.52729ZM9.35454 2.52729C9.35454 2.89093 9.64545 3.18184 10.0091 3.18184C10.3727 3.18184 10.6636 2.89093 10.6636 2.52729C10.6636 2.16365 10.3727 1.87275 10.0091 1.87275C9.64545 1.87275 9.35454 2.16365 9.35454 2.52729ZM9.44545 2.52729C9.44545 2.38184 9.51818 2.24547 9.61818 2.13638C9.71818 2.02729 9.86363 1.96365 10.0091 1.96365C10.1545 1.96365 10.2909 2.03638 10.4 2.13638C10.5091 2.24547 10.5727 2.38184 10.5727 2.52729C10.5727 2.67275 10.5 2.80911 10.4 2.9182C10.2909 3.02729 10.1545 3.09093 10.0091 3.09093C9.87272 3.09093 9.72727 3.0182 9.61818 2.9182C9.50909 2.8182 9.44545 2.66365 9.44545 2.52729Z" fill="#2D3E50"/>
<path d="M10.0091 3.55455C9.4273 3.55455 8.98184 3.11818 8.98184 2.52727C8.98184 1.93636 9.41821 1.5 10.0091 1.5C10.6 1.5 11.0364 1.93636 11.0364 2.52727C11.0364 3.11818 10.6 3.55455 10.0091 3.55455ZM10.0091 1.51818C9.43639 1.51818 9.00002 1.95455 9.00002 2.52727C9.00002 3.1 9.43639 3.53636 10.0091 3.53636C10.5818 3.53636 11.0182 3.1 11.0182 2.52727C11.0182 1.95455 10.5818 1.51818 10.0091 1.51818ZM10.0091 3.46364C9.50002 3.46364 9.07275 3.03636 9.07275 2.52727C9.07275 2.01818 9.50002 1.59091 10.0091 1.59091C10.5182 1.59091 10.9455 2.01818 10.9455 2.52727C10.9455 3.03636 10.5182 3.46364 10.0091 3.46364ZM10.0091 1.60909C9.50911 1.60909 9.09093 2.02727 9.09093 2.52727C9.09093 3.02727 9.50911 3.44545 10.0091 3.44545C10.5091 3.44545 10.9273 3.02727 10.9273 2.52727C10.9273 2.02727 10.5091 1.60909 10.0091 1.60909ZM10.0091 3.19091C9.64548 3.19091 9.34548 2.89091 9.34548 2.52727C9.34548 2.16364 9.64548 1.86364 10.0091 1.86364C10.3728 1.86364 10.6728 2.16364 10.6728 2.52727C10.6728 2.89091 10.3818 3.19091 10.0091 3.19091ZM10.0091 1.88182C9.65457 1.88182 9.36366 2.17273 9.36366 2.52727C9.36366 2.88182 9.65457 3.17273 10.0091 3.17273C10.3637 3.17273 10.6546 2.88182 10.6546 2.52727C10.6546 2.17273 10.3637 1.88182 10.0091 1.88182ZM10.0091 3.1C9.87275 3.1 9.7273 3.03636 9.60911 2.91818C9.49093 2.8 9.4273 2.66364 9.4273 2.51818C9.4273 2.37273 9.49093 2.23636 9.60911 2.11818C9.7273 2 9.86366 1.93636 10.0091 1.93636C10.1546 1.93636 10.2909 2 10.4091 2.11818C10.5273 2.23636 10.5909 2.37273 10.5909 2.51818C10.5909 2.66364 10.5273 2.8 10.4091 2.91818C10.2909 3.03636 10.1455 3.1 10.0091 3.1ZM10.0091 1.96364C9.87275 1.96364 9.73639 2.02727 9.6273 2.13636C9.51821 2.24545 9.45457 2.39091 9.45457 2.51818C9.45457 2.64545 9.51821 2.79091 9.6273 2.9C9.73639 3.00909 9.88184 3.07273 10.0091 3.07273C10.1364 3.07273 10.2818 3.00909 10.3909 2.9C10.5 2.79091 10.5637 2.64545 10.5637 2.51818C10.5637 2.39091 10.5 2.24545 10.3909 2.13636C10.2818 2.02727 10.1455 1.96364 10.0091 1.96364Z" fill="#2D3E50"/>
<path d="M1.88181 3.30913L1.87271 3.31822L1.79999 6.20004V6.20913H1.80908H1.88181H2.17271H2.24544H2.25453V6.20004V3.31822V3.30913H2.24544H2.17271H1.88181Z" fill="#2D3E50"/>
<path d="M2.26365 6.20911H1.79092V6.19092L1.86365 3.29092H2.26365V6.20911ZM1.80911 6.19092H2.23638V3.3182H1.87274L1.80911 6.19092Z" fill="#2D3E50"/>
<path d="M2.24545 6.27274H2.25454V6.26365V3.24546V3.23637H2.24545H1.81817H1.80908V3.24546V6.26365V6.27274H1.81817H2.24545ZM2.16363 6.18183H1.8909V3.32728H2.16363V6.18183Z" fill="#2D3E50"/>
<path d="M2.26362 6.28182H1.79999V3.22728H2.26362V6.28182ZM1.80908 6.26364H2.23635V3.24546H1.80908V6.26364ZM2.17271 6.19092H1.88181V3.31819H2.17271V6.19092ZM1.89999 6.17273H2.15453V3.33637H1.89999V6.17273Z" fill="#2D3E50"/>
<path d="M5.83637 3.30913L5.75455 5.47276V5.48186H5.76364H5.83637H6.12727H6.2H6.20909V5.47276V3.31822V3.30913H6.2H6.12727H5.83637Z" fill="#2D3E50"/>
<path d="M6.21818 5.49094H5.74545L5.81818 3.30003H6.20909V5.49094H6.21818ZM5.76363 5.47276H6.2V3.31822H5.83636L5.76363 5.47276Z" fill="#2D3E50"/>
<path d="M6.27276 5.55456L6.28185 3.24546V3.23637H6.27276H5.83639H5.8273V3.24546V3.3091V3.31819V5.47274V5.48183V5.54546V5.55456H5.83639H6.27276ZM5.84548 5.46365V3.32728H6.11821V5.46365H5.84548Z" fill="#2D3E50"/>
<path d="M6.29094 5.56364H5.8273V3.22728H6.29094V5.56364ZM5.83639 5.54546H6.26366V3.24546H5.83639V5.54546ZM6.1273 5.47273H5.83639V3.31819H6.1273V5.47273ZM5.85457 5.45455H6.10912V3.33637H5.85457V5.45455Z" fill="#2D3E50"/>
<path d="M9.86365 3.30913L9.78183 5.47276V5.48186H9.79092H9.86365H10.1546H10.2273H10.2364V5.47276V3.31822V3.30913H10.2273H10.1546H9.86365Z" fill="#2D3E50"/>
<path d="M10.2455 5.49094H9.77274V5.47276L9.84546 3.30003H10.2364V5.49094H10.2455ZM9.79092 5.47276H10.2182V3.31822H9.85455L9.79092 5.47276Z" fill="#2D3E50"/>
<path d="M10.2273 5.55456L10.2363 3.24546V3.23637H10.2273H9.79998H9.79089V3.24546V5.54546V5.55456H9.79998H10.2273ZM10.1454 5.46365H9.87271V3.32728H10.1454V5.46365Z" fill="#2D3E50"/>
<path d="M10.2455 5.56364H9.78183V3.22728H10.2455V5.56364ZM9.79092 5.54546H10.2182V3.24546H9.79092V5.54546ZM10.1546 5.47273H9.86365V3.31819H10.1546V5.47273ZM9.88183 5.45455H10.1364V3.33637H9.88183V5.45455Z" fill="#2D3E50"/>
<path d="M9.87274 6.11821H9.85456L9.78183 9.00003V9.07276V9.08185H9.79092H9.86365H10.1546H10.2273H10.2364V9.07276V6.19094V6.18185H10.2273H10.1546H9.87274V6.11821Z" fill="#2D3E50"/>
<path d="M10.2455 9.09093H9.78183V9.00002L9.85456 6.10912H9.89092V6.17275H10.2546V9.09093H10.2455ZM9.79092 9.07275H10.2182V6.19093H9.85456V6.1273L9.78183 9.00002V9.07275H9.79092Z" fill="#2D3E50"/>
<path d="M10.2273 9.15457L10.2363 6.1273V6.10912H10.2273H9.79998H9.79089V6.11821V9.13639V9.14548H9.79998H10.2273V9.15457ZM10.1454 9.06366H9.87271V6.20002H10.1454V9.06366Z" fill="#2D3E50"/>
<path d="M10.2455 9.16366H9.78183V6.10002H10.2455V9.16366ZM9.79092 9.14548H10.2182V6.1182H9.79092V9.14548ZM10.1546 9.07275H9.86365V6.19093H10.1546V9.07275ZM9.88183 9.05457H10.1364V6.20911H9.88183V9.05457Z" fill="#2D3E50"/>
<path d="M5.83639 6.47275L5.8273 9.07275V9.08184H5.83639H5.90912H6.20003H6.27276H6.28185V9.07275V6.55457V6.48184V6.47275H6.27276H6.20003H5.83639Z" fill="#2D3E50"/>
<path d="M6.29094 9.09093H5.8273V6.46365H6.29094V9.09093ZM5.83639 9.07274H6.26366V6.48184H5.83639V9.07274Z" fill="#2D3E50"/>
<path d="M6.27276 9.15457L6.28185 6.48184V6.47275H6.27276H5.83639H5.8273V6.48184V6.54548V6.55457V9.07275V9.08184V9.14548V9.15457H5.83639H6.27276ZM5.84548 9.06366V6.56366H6.11821V9.06366H5.84548Z" fill="#2D3E50"/>
<path d="M6.29094 9.16365H5.8273V6.46365H6.29094V9.16365ZM5.83639 9.14547H6.26366V6.48184H5.83639V9.14547ZM6.1273 9.07274H5.83639V6.55456H6.1273V9.07274ZM5.85457 9.05456H6.10912V6.57274H5.85457V9.05456Z" fill="#2D3E50"/>
<path d="M1.88181 5.82733L1.79999 6.19097V6.20006H1.80908H1.88181H10.1545H10.1636V6.19097V5.90006V5.83642V5.82733H10.1545H1.88181Z" fill="#2D3E50"/>
<path d="M10.1727 6.20914H1.79092L1.87274 5.80914H10.1818V6.20914H10.1727ZM1.80911 6.19096H10.1546V5.82732H1.88183L1.80911 6.19096Z" fill="#2D3E50"/>
<path d="M10.2273 6.27274L10.2364 5.83638V5.82729H10.2273H1.80908H1.79999V5.83638V6.26365V6.27274H1.80908H10.2273ZM10.1454 6.18183H1.8909V5.9091H10.1454V6.18183Z" fill="#2D3E50"/>
<path d="M10.2455 6.28181H1.79092V5.81818H10.2455V6.28181ZM1.80911 6.26363H10.2273V5.83636H1.80911V6.26363ZM10.1546 6.1909H1.88183V5.89999H10.1546V6.1909ZM1.90002 6.17272H10.1364V5.92727H1.90002V6.17272Z" fill="#2D3E50"/>
</svg>
