<svg width="24" height="24" viewBox="0 0 24 24" fill="none" xmlns="http://www.w3.org/2000/svg">
<path d="M2.01819 5.05457C2.01819 6.2182 2.89092 7.09093 4.05455 7.09093C5.21819 7.09093 6.09092 6.2182 6.09092 5.05457C6.09092 3.89093 5.21819 3.0182 4.05455 3.0182C2.89092 3.0182 2.01819 3.89093 2.01819 5.05457ZM2.9091 5.05457C2.9091 4.34548 3.47273 3.92729 4.03637 3.92729C4.74546 3.92729 5.16364 4.49093 5.16364 5.05457C5.16364 5.76366 4.60001 6.18184 4.03637 6.18184C3.47273 6.18184 2.9091 5.76366 2.9091 5.05457Z" fill="#2D3E50"/>
<path d="M4.05455 7.10909C2.89091 7.10909 2 6.23636 2 5.05455C2 3.87273 2.87273 3 4.05455 3C5.23636 3 6.10909 3.87273 6.10909 5.05455C6.10909 6.23636 5.21818 7.10909 4.05455 7.10909ZM4.05455 3.03636C2.90909 3.03636 2.03636 3.90909 2.03636 5.05455C2.03636 6.2 2.90909 7.07273 4.05455 7.07273C5.2 7.07273 6.07273 6.2 6.07273 5.05455C6.07273 3.90909 5.2 3.03636 4.05455 3.03636ZM4.05455 6.2C3.49091 6.2 2.90909 5.76364 2.90909 5.05455C2.90909 4.34545 3.49091 3.90909 4.05455 3.90909C4.78182 3.90909 5.2 4.49091 5.2 5.05455C5.2 5.76364 4.61818 6.2 4.05455 6.2ZM4.05455 3.92727C3.50909 3.92727 2.94545 4.34545 2.94545 5.03636C2.94545 5.72727 3.50909 6.14545 4.05455 6.14545C4.6 6.14545 5.16364 5.72727 5.16364 5.03636C5.16364 4.50909 4.74545 3.92727 4.05455 3.92727Z" fill="#2D3E50"/>
<path d="M2.01819 5.05457C2.01819 6.2182 2.89092 7.09093 4.05455 7.09093C5.21819 7.09093 6.09092 6.2182 6.09092 5.05457C6.09092 3.89093 5.21819 3.0182 4.05455 3.0182C2.89092 3.0182 2.01819 3.89093 2.01819 5.05457ZM2.20001 5.05457C2.20001 4.05457 3.05455 3.20002 4.05455 3.20002C5.05455 3.20002 5.9091 4.05457 5.9091 5.05457C5.9091 6.05457 5.05455 6.90911 4.05455 6.90911C3.05455 6.90911 2.20001 6.05457 2.20001 5.05457ZM2.74546 5.05457C2.74546 5.78184 3.32728 6.36366 4.05455 6.36366C4.78183 6.36366 5.36364 5.78184 5.36364 5.05457C5.36364 4.32729 4.78183 3.74548 4.05455 3.74548C3.32728 3.74548 2.74546 4.32729 2.74546 5.05457ZM2.9091 5.05457C2.9091 4.76366 3.05455 4.49093 3.25455 4.27275C3.45455 4.05457 3.74546 3.92729 4.03637 3.92729C4.32728 3.92729 4.60001 4.07275 4.81819 4.27275C5.03637 4.49093 5.16364 4.76366 5.16364 5.05457C5.16364 5.34548 5.01819 5.6182 4.81819 5.83638C4.60001 6.05457 4.32728 6.18184 4.03637 6.18184C3.74546 6.18184 3.49092 6.03638 3.27273 5.83638C3.05455 5.63638 2.9091 5.32729 2.9091 5.05457Z" fill="#2D3E50"/>
<path d="M4.05455 7.10909C2.89091 7.10909 2 6.23636 2 5.05455C2 3.87273 2.87273 3 4.05455 3C5.23636 3 6.10909 3.87273 6.10909 5.05455C6.10909 6.23636 5.21818 7.10909 4.05455 7.10909ZM4.05455 3.03636C2.90909 3.03636 2.03636 3.90909 2.03636 5.05455C2.03636 6.2 2.90909 7.07273 4.05455 7.07273C5.2 7.07273 6.07273 6.2 6.07273 5.05455C6.07273 3.90909 5.2 3.03636 4.05455 3.03636ZM4.05455 6.92727C3.03636 6.92727 2.18182 6.07273 2.18182 5.05455C2.18182 4.03636 3.03636 3.18182 4.05455 3.18182C5.07273 3.18182 5.92727 4.03636 5.92727 5.05455C5.92727 6.07273 5.07273 6.92727 4.05455 6.92727ZM4.05455 3.21818C3.05455 3.21818 2.21818 4.05455 2.21818 5.05455C2.21818 6.05455 3.05455 6.89091 4.05455 6.89091C5.05455 6.89091 5.89091 6.05455 5.89091 5.05455C5.89091 4.05455 5.03636 3.21818 4.05455 3.21818ZM4.05455 6.38182C3.32727 6.38182 2.72727 5.78182 2.72727 5.05455C2.72727 4.32727 3.32727 3.72727 4.05455 3.72727C4.78182 3.72727 5.38182 4.32727 5.38182 5.05455C5.38182 5.78182 4.78182 6.38182 4.05455 6.38182ZM4.05455 3.76364C3.34545 3.76364 2.76364 4.34545 2.76364 5.05455C2.76364 5.76364 3.34545 6.34545 4.05455 6.34545C4.76364 6.34545 5.34545 5.76364 5.34545 5.05455C5.34545 4.34545 4.76364 3.76364 4.05455 3.76364ZM4.05455 6.2C3.78182 6.2 3.49091 6.07273 3.25455 5.83636C3.01818 5.6 2.89091 5.32727 2.89091 5.03636C2.89091 4.74545 3.01818 4.47273 3.25455 4.23636C3.49091 4 3.76364 3.87273 4.05455 3.87273C4.34545 3.87273 4.61818 4 4.85455 4.23636C5.09091 4.47273 5.21818 4.74545 5.21818 5.03636C5.21818 5.32727 5.09091 5.6 4.85455 5.83636C4.61818 6.07273 4.32727 6.2 4.05455 6.2ZM4.05455 3.92727C3.78182 3.92727 3.50909 4.05455 3.29091 4.27273C3.07273 4.49091 2.94545 4.78182 2.94545 5.03636C2.94545 5.29091 3.07273 5.58182 3.29091 5.8C3.50909 6.01818 3.8 6.14545 4.05455 6.14545C4.30909 6.14545 4.6 6.01818 4.81818 5.8C5.03636 5.58182 5.16364 5.29091 5.16364 5.03636C5.16364 4.78182 5.03636 4.49091 4.81818 4.27273C4.6 4.05455 4.30909 3.92727 4.05455 3.92727Z" fill="#2D3E50"/>
<path d="M10.0727 19.8728C10.0727 21.0364 10.9455 21.9091 12.1091 21.9091C13.2727 21.9091 14.1454 21.0364 14.1454 19.8728C14.1454 18.7091 13.2727 17.8364 12.1091 17.8364C10.9455 17.8364 10.0727 18.7091 10.0727 19.8728ZM10.8364 19.8728C10.8364 19.1637 11.4 18.7455 11.9636 18.7455C12.6727 18.7455 13.0909 19.3091 13.0909 19.8728C13.0909 20.5818 12.5273 21 11.9636 21C11.4 21 10.8364 20.5818 10.8364 19.8728Z" fill="#2D3E50"/>
<path d="M12.1091 21.9273C10.9455 21.9273 10.0546 21.0546 10.0546 19.8727C10.0546 18.7091 10.9273 17.8182 12.1091 17.8182C13.2909 17.8182 14.1637 18.6909 14.1637 19.8727C14.1637 21.0364 13.2727 21.9273 12.1091 21.9273ZM12.1091 17.8546C10.9637 17.8546 10.0909 18.7273 10.0909 19.8727C10.0909 21.0182 10.9637 21.8909 12.1091 21.8909C13.2546 21.8909 14.1273 21.0182 14.1273 19.8727C14.1273 18.7273 13.2546 17.8546 12.1091 17.8546ZM11.9637 21.0182C11.6727 21.0182 11.3818 20.9091 11.1637 20.7091C11 20.5636 10.8 20.2909 10.8 19.8727C10.8 19.4546 11 19.1818 11.1637 19.0364C11.3818 18.8364 11.6727 18.7273 11.9637 18.7273C12.3818 18.7273 12.6546 18.9273 12.8 19.0909C13 19.3091 13.1091 19.6 13.1091 19.8909C13.1091 20.3091 12.9091 20.5818 12.7455 20.7273C12.5455 20.9091 12.2546 21.0182 11.9637 21.0182ZM11.9637 18.7636C11.4182 18.7636 10.8546 19.1818 10.8546 19.8727C10.8546 20.4182 11.2727 20.9818 11.9637 20.9818C12.6546 20.9818 13.0727 20.4182 13.0727 19.8727C13.0727 19.1818 12.5091 18.7636 11.9637 18.7636Z" fill="#2D3E50"/>
<path d="M9.92728 19.8728C9.92728 21.0364 10.8 21.9091 11.9636 21.9091C13.1273 21.9091 14.1455 21.0364 14 19.8728C14 18.7091 13.1273 17.8364 11.9636 17.8364C10.8 17.8364 9.92728 18.7091 9.92728 19.8728ZM10.1091 19.8728C10.1091 18.8728 10.9636 18.0182 11.9636 18.0182C13.1091 18.0182 13.8182 18.8728 13.8182 19.8728C13.8182 20.8728 12.9636 21.7273 11.9636 21.7273C10.9636 21.7273 10.1091 20.8728 10.1091 19.8728ZM10.6545 19.8728C10.6545 20.6 11.2364 21.1818 11.9636 21.1818C12.6909 21.1818 13.2727 20.6 13.2727 19.8728C13.2727 19.1455 12.6909 18.5637 11.9636 18.5637C11.2364 18.5637 10.6545 19.1455 10.6545 19.8728ZM10.8364 19.8728C10.8364 19.6 10.9818 19.3091 11.1818 19.0909C11.4 18.8728 11.6727 18.7455 11.9636 18.7455C12.6727 18.7455 13.0909 19.3091 13.0909 19.8728C13.0909 20.1637 12.9455 20.4364 12.7455 20.6546C12.5273 20.8728 12.2545 21 11.9636 21C11.6727 21 11.4 20.8546 11.1818 20.6546C10.9636 20.4364 10.8364 20.1455 10.8364 19.8728Z" fill="#2D3E50"/>
<path d="M11.9636 21.9273C10.8 21.9273 9.90909 21.0546 9.90909 19.8727C9.90909 18.7091 10.7818 17.8182 11.9636 17.8182C13.1273 17.8182 14.0182 18.6909 14.0182 19.8727C14.0727 20.3636 13.9273 20.8364 13.6 21.2182C13.2 21.6546 12.6 21.9273 11.9636 21.9273ZM11.9636 17.8546C10.8182 17.8546 9.94545 18.7273 9.94545 19.8727C9.94545 21.0182 10.8182 21.8909 11.9636 21.8909C12.5818 21.8909 13.1818 21.6364 13.5636 21.2C13.8909 20.8364 14.0364 20.3636 13.9818 19.8727C13.9818 18.7273 13.1091 17.8546 11.9636 17.8546ZM11.9636 21.7455C10.9455 21.7455 10.0909 20.8909 10.0909 19.8727C10.0909 18.8546 10.9455 18 11.9636 18C13.0545 18 13.8364 18.7818 13.8364 19.8727C13.8364 20.8909 12.9818 21.7455 11.9636 21.7455ZM11.9636 18.0364C10.9636 18.0364 10.1273 18.8727 10.1273 19.8727C10.1273 20.8727 10.9636 21.7091 11.9636 21.7091C12.9636 21.7091 13.8 20.8727 13.8 19.8727C13.8 18.8 13.0182 18.0364 11.9636 18.0364ZM11.9636 21.2C11.2364 21.2 10.6364 20.6 10.6364 19.8727C10.6364 19.1455 11.2364 18.5455 11.9636 18.5455C12.6909 18.5455 13.2909 19.1455 13.2909 19.8727C13.2909 20.6 12.6909 21.2 11.9636 21.2ZM11.9636 18.5818C11.2545 18.5818 10.6727 19.1636 10.6727 19.8727C10.6727 20.5818 11.2545 21.1636 11.9636 21.1636C12.6727 21.1636 13.2545 20.5818 13.2545 19.8727C13.2545 19.1636 12.6727 18.5818 11.9636 18.5818ZM11.9636 21.0182C11.6909 21.0182 11.4 20.8909 11.1636 20.6546C10.9273 20.4182 10.8 20.1455 10.8 19.8546C10.8 19.5818 10.9273 19.2909 11.1636 19.0546C11.4 18.8182 11.6727 18.6909 11.9636 18.6909C12.3818 18.6909 12.6545 18.8909 12.8 19.0546C13 19.2727 13.1091 19.5636 13.1091 19.8546C13.1091 20.1273 12.9818 20.4182 12.7455 20.6546C12.5273 20.8909 12.2364 21.0182 11.9636 21.0182ZM11.9636 18.7636C11.6909 18.7636 11.4182 18.8909 11.2 19.1091C10.9818 19.3273 10.8545 19.6182 10.8545 19.8727C10.8545 20.1455 10.9818 20.4182 11.2 20.6364C11.4182 20.8546 11.7091 20.9818 11.9636 20.9818C12.2182 20.9818 12.5091 20.8546 12.7273 20.6364C12.9455 20.4182 13.0727 20.1273 13.0727 19.8727C13.0727 19.1818 12.5091 18.7636 11.9636 18.7636Z" fill="#2D3E50"/>
<path d="M17.9818 19.8728C17.9818 21.0364 18.8545 21.9091 20.0182 21.9091C21.1818 21.9091 22.0545 21.0364 22.0545 19.8728C22.0545 18.7091 21.1818 17.8364 20.0182 17.8364C18.8545 17.8364 17.9818 18.7091 17.9818 19.8728ZM18.7454 19.8728C18.7454 19.1637 19.3091 18.7455 19.8727 18.7455C20.5818 18.7455 21 19.3091 21 19.8728C21 20.5818 20.4364 21 19.8727 21C19.3091 21 18.7454 20.5818 18.7454 19.8728Z" fill="#2D3E50"/>
<path d="M20.0182 21.9273C18.8546 21.9273 17.9637 21.0546 17.9637 19.8727C17.9637 18.7091 18.8364 17.8182 20.0182 17.8182C21.2 17.8182 22.0727 18.6909 22.0727 19.8727C22.0727 21.0364 21.2 21.9273 20.0182 21.9273ZM20.0182 17.8546C18.8727 17.8546 18 18.7273 18 19.8727C18 21.0182 18.8727 21.8909 20.0182 21.8909C21.1637 21.8909 22.0364 21.0182 22.0364 19.8727C22.0364 18.7273 21.1637 17.8546 20.0182 17.8546ZM19.8727 21.0182C19.5818 21.0182 19.2909 20.9091 19.0727 20.7091C18.9091 20.5636 18.7091 20.2909 18.7091 19.8727C18.7091 19.4546 18.9091 19.1818 19.0727 19.0364C19.2909 18.8364 19.5818 18.7273 19.8727 18.7273C20.2909 18.7273 20.5637 18.9273 20.7091 19.0909C20.9091 19.3091 21.0182 19.6 21.0182 19.8909C21.0182 20.3091 20.8182 20.5818 20.6546 20.7273C20.4546 20.9091 20.1637 21.0182 19.8727 21.0182ZM19.8727 18.7636C19.3273 18.7636 18.7637 19.1818 18.7637 19.8727C18.7637 20.4182 19.1818 20.9818 19.8727 20.9818C20.5637 20.9818 20.9818 20.4182 20.9818 19.8727C21 19.1818 20.4182 18.7636 19.8727 18.7636Z" fill="#2D3E50"/>
<path d="M17.9818 19.8728C17.9818 21.0364 18.8545 21.9091 20.0182 21.9091C21.1818 21.9091 22.0545 21.0364 22.0545 19.8728C22.0545 18.7091 21.1818 17.8364 20.0182 17.8364C18.8545 17.8364 17.9818 18.7091 17.9818 19.8728ZM18.1636 19.8728C18.1636 18.8728 19.0182 18.0182 20.0182 18.0182C21.0182 18.0182 21.8727 18.8728 21.8727 19.8728C21.8727 20.8728 21.0182 21.7273 20.0182 21.7273C19.0182 21.7273 18.1636 20.8728 18.1636 19.8728ZM18.7091 19.8728C18.7091 20.6 19.2909 21.1818 20.0182 21.1818C20.7454 21.1818 21.3273 20.6 21.3273 19.8728C21.3273 19.1455 20.7454 18.5637 20.0182 18.5637C19.2909 18.5637 18.7091 19.1455 18.7091 19.8728ZM18.8909 19.8728C18.8909 19.6 19.0364 19.3091 19.2364 19.0909C19.4545 18.8728 19.7273 18.7455 20.0182 18.7455C20.3091 18.7455 20.5818 18.8909 20.8 19.0909C21.0182 19.3091 21.1454 19.5818 21.1454 19.8728C21.1454 20.1637 21 20.4364 20.8 20.6546C20.5818 20.8728 20.3091 21 20.0182 21C19.7454 21 19.4545 20.8546 19.2364 20.6546C19.0364 20.4364 18.8909 20.1455 18.8909 19.8728Z" fill="#2D3E50"/>
<path d="M20.0182 21.9273C18.8546 21.9273 17.9637 21.0546 17.9637 19.8727C17.9637 18.7091 18.8364 17.8182 20.0182 17.8182C21.2 17.8182 22.0727 18.6909 22.0727 19.8727C22.0727 21.0364 21.2 21.9273 20.0182 21.9273ZM20.0182 17.8546C18.8727 17.8546 18 18.7273 18 19.8727C18 21.0182 18.8727 21.8909 20.0182 21.8909C21.1637 21.8909 22.0364 21.0182 22.0364 19.8727C22.0364 18.7273 21.1637 17.8546 20.0182 17.8546ZM20.0182 21.7455C19 21.7455 18.1455 20.8909 18.1455 19.8727C18.1455 18.8546 19 18 20.0182 18C21.0364 18 21.8909 18.8546 21.8909 19.8727C21.8909 20.8909 21.0364 21.7455 20.0182 21.7455ZM20.0182 18.0364C19.0182 18.0364 18.1818 18.8727 18.1818 19.8727C18.1818 20.8727 19.0182 21.7091 20.0182 21.7091C21.0182 21.7091 21.8546 20.8727 21.8546 19.8727C21.8546 18.8727 21.0182 18.0364 20.0182 18.0364ZM20.0182 21.2C19.2909 21.2 18.6909 20.6 18.6909 19.8727C18.6909 19.1455 19.2909 18.5455 20.0182 18.5455C20.7455 18.5455 21.3455 19.1455 21.3455 19.8727C21.3455 20.6 20.7637 21.2 20.0182 21.2ZM20.0182 18.5818C19.3091 18.5818 18.7273 19.1636 18.7273 19.8727C18.7273 20.5818 19.3091 21.1636 20.0182 21.1636C20.7273 21.1636 21.3091 20.5818 21.3091 19.8727C21.3091 19.1636 20.7273 18.5818 20.0182 18.5818ZM20.0182 21.0182C19.7455 21.0182 19.4546 20.8909 19.2182 20.6546C18.9818 20.4182 18.8546 20.1455 18.8546 19.8546C18.8546 19.5818 18.9818 19.2909 19.2182 19.0546C19.4546 18.8182 19.7273 18.6909 20.0182 18.6909C20.3091 18.6909 20.5818 18.8182 20.8182 19.0546C21.0546 19.2909 21.1818 19.5636 21.1818 19.8546C21.1818 20.1273 21.0546 20.4182 20.8182 20.6546C20.5818 20.8909 20.2909 21.0182 20.0182 21.0182ZM20.0182 18.7636C19.7455 18.7636 19.4727 18.8909 19.2546 19.1091C19.0364 19.3273 18.9091 19.6182 18.9091 19.8727C18.9091 20.1455 19.0364 20.4182 19.2546 20.6364C19.4727 20.8546 19.7637 20.9818 20.0182 20.9818C20.2727 20.9818 20.5637 20.8546 20.7818 20.6364C21 20.4182 21.1273 20.1273 21.1273 19.8727C21.1273 19.6 21 19.3273 20.7818 19.1091C20.5637 18.8909 20.2909 18.7636 20.0182 18.7636Z" fill="#2D3E50"/>
<path d="M10.0727 5.05457C10.0727 6.2182 10.9455 7.09093 12.1091 7.09093C13.2727 7.09093 14.1454 6.2182 14.1454 5.05457C14.1454 3.89093 13.1273 3.0182 11.9636 3.0182C10.9454 3.0182 10.0727 3.89093 10.0727 5.05457ZM10.8364 5.05457C10.8364 4.34548 11.4 3.92729 11.9636 3.92729C12.6727 3.92729 13.0909 4.49093 13.0909 5.05457C13.0909 5.76366 12.5273 6.18184 11.9636 6.18184C11.4 6.18184 10.8364 5.76366 10.8364 5.05457Z" fill="#2D3E50"/>
<path d="M12.1091 7.10909C10.9455 7.10909 10.0546 6.23636 10.0546 5.05455C10.0546 3.92727 10.9091 3 11.9637 3C13.1818 3 14.1637 3.92727 14.1637 5.05455C14.1637 6.21818 13.2727 7.10909 12.1091 7.10909ZM11.9637 3.03636C10.9273 3.03636 10.0909 3.94545 10.0909 5.05455C10.0909 6.2 10.9637 7.07273 12.1091 7.07273C13.2546 7.07273 14.1273 6.2 14.1273 5.05455C14.1273 3.94545 13.1637 3.03636 11.9637 3.03636ZM11.9637 6.2C11.4 6.2 10.8182 5.76364 10.8182 5.05455C10.8182 4.34545 11.4 3.90909 11.9637 3.90909C12.3818 3.90909 12.6546 4.10909 12.8 4.27273C13 4.49091 13.1091 4.78182 13.1091 5.07273C13.1091 5.49091 12.9091 5.76364 12.7455 5.90909C12.5455 6.09091 12.2546 6.2 11.9637 6.2ZM11.9637 3.92727C11.4182 3.92727 10.8546 4.34545 10.8546 5.03636C10.8546 5.72727 11.4182 6.14545 11.9637 6.14545C12.6546 6.14545 13.0727 5.58182 13.0727 5.03636C13.0727 4.49091 12.6546 3.92727 11.9637 3.92727Z" fill="#2D3E50"/>
<path d="M9.92728 5.05457C9.92728 6.2182 10.8 7.09093 11.9636 7.09093C13.1273 7.09093 14 6.2182 14 5.05457C14 3.89093 13.1273 3.0182 11.9636 3.0182C10.8 3.0182 9.92728 3.89093 9.92728 5.05457ZM10.1091 5.05457C10.1091 4.05457 10.9636 3.20002 11.9636 3.20002C13.1091 3.20002 13.8182 4.05457 13.8182 5.05457C13.8182 6.05457 12.9636 6.90911 11.9636 6.90911C10.9636 6.90911 10.1091 6.05457 10.1091 5.05457ZM10.6545 5.05457C10.6545 5.78184 11.2364 6.36366 11.9636 6.36366C12.6909 6.36366 13.2727 5.78184 13.2727 5.05457C13.2727 4.69093 13.0909 4.36366 12.8364 4.12729C12.5818 3.89093 12.2545 3.74548 11.9636 3.74548C11.6727 3.74548 11.3455 3.89093 11.0909 4.12729C10.8364 4.36366 10.6545 4.69093 10.6545 5.05457ZM10.8364 5.05457C10.8364 4.76366 10.9818 4.49093 11.1818 4.27275C11.3818 4.05457 11.6727 3.92729 11.9636 3.92729C12.6727 3.92729 13.0909 4.49093 13.0909 5.05457C13.0909 5.34548 12.9455 5.6182 12.7455 5.83638C12.5273 6.05457 12.2545 6.18184 11.9636 6.18184C11.6727 6.18184 11.4 6.03638 11.1818 5.83638C10.9636 5.63638 10.8364 5.32729 10.8364 5.05457Z" fill="#2D3E50"/>
<path d="M11.9636 7.10909C10.8 7.10909 9.90909 6.23636 9.90909 5.05455C9.90909 3.87273 10.7818 3 11.9636 3C13.1273 3 14.0182 3.87273 14.0182 5.05455C14.0182 6.23636 13.1273 7.10909 11.9636 7.10909ZM11.9636 3.03636C10.8182 3.03636 9.94545 3.90909 9.94545 5.05455C9.94545 6.2 10.8182 7.07273 11.9636 7.07273C13.1091 7.07273 13.9818 6.2 13.9818 5.05455C13.9818 3.90909 13.1091 3.03636 11.9636 3.03636ZM11.9636 6.92727C10.9455 6.92727 10.0909 6.07273 10.0909 5.05455C10.0909 4.03636 10.9455 3.18182 11.9636 3.18182C13.0545 3.18182 13.8364 3.96364 13.8364 5.05455C13.8364 6.07273 12.9818 6.92727 11.9636 6.92727ZM11.9636 3.21818C10.9636 3.21818 10.1273 4.05455 10.1273 5.05455C10.1273 6.05455 10.9636 6.89091 11.9636 6.89091C12.9636 6.89091 13.8 6.05455 13.8 5.05455C13.8 3.98182 13.0182 3.21818 11.9636 3.21818ZM11.9636 6.38182C11.2364 6.38182 10.6364 5.78182 10.6364 5.05455C10.6364 4.70909 10.8 4.38182 11.0727 4.10909C11.3273 3.87273 11.6727 3.72727 11.9636 3.72727C12.2545 3.72727 12.5818 3.87273 12.8545 4.10909C13.1454 4.38182 13.2909 4.70909 13.2909 5.05455C13.2909 5.78182 12.6909 6.38182 11.9636 6.38182ZM11.9636 3.76364C11.6727 3.76364 11.3636 3.90909 11.1091 4.14545C10.8364 4.4 10.6727 4.72727 10.6727 5.05455C10.6727 5.76364 11.2545 6.34545 11.9636 6.34545C12.6727 6.34545 13.2545 5.76364 13.2545 5.05455C13.2545 4.72727 13.1091 4.4 12.8182 4.14545C12.5818 3.89091 12.2545 3.76364 11.9636 3.76364ZM11.9636 6.2C11.6909 6.2 11.4 6.07273 11.1636 5.83636C10.9273 5.6 10.8 5.32727 10.8 5.03636C10.8 4.74545 10.9273 4.47273 11.1636 4.23636C11.4 4 11.6727 3.87273 11.9636 3.87273C12.6909 3.87273 13.1091 4.45455 13.1091 5.01818C13.1091 5.29091 12.9818 5.58182 12.7454 5.81818C12.5273 6.07273 12.2364 6.2 11.9636 6.2ZM11.9636 3.92727C11.6909 3.92727 11.4182 4.05455 11.2 4.27273C10.9818 4.49091 10.8545 4.78182 10.8545 5.03636C10.8545 5.29091 10.9818 5.58182 11.2 5.8C11.4182 6.01818 11.7091 6.14545 11.9636 6.14545C12.2182 6.14545 12.5091 6.01818 12.7273 5.8C12.9454 5.58182 13.0727 5.29091 13.0727 5.03636C13.0727 4.50909 12.6545 3.92727 11.9636 3.92727Z" fill="#2D3E50"/>
<path d="M17.9818 5.05457C17.9818 6.2182 18.8545 7.09093 20.0182 7.09093C21.1818 7.09093 22.0545 6.2182 22.0545 5.05457C22.0545 3.89093 21.1818 3.0182 20.0182 3.0182C18.8545 3.0182 17.9818 3.89093 17.9818 5.05457ZM18.7454 5.05457C18.7454 4.34548 19.3091 3.92729 19.8727 3.92729C20.5818 3.92729 21 4.49093 21 5.05457C21 5.76366 20.4364 6.18184 19.8727 6.18184C19.3091 6.18184 18.7454 5.76366 18.7454 5.05457Z" fill="#2D3E50"/>
<path d="M20.0182 7.10909C18.8546 7.10909 17.9637 6.23636 17.9637 5.05455C17.9637 3.87273 18.8364 3 20.0182 3C21.2 3 22.0727 3.87273 22.0727 5.05455C22.0727 6.23636 21.2 7.10909 20.0182 7.10909ZM20.0182 3.03636C18.8727 3.03636 18 3.90909 18 5.05455C18 6.2 18.8727 7.07273 20.0182 7.07273C21.1637 7.07273 22.0364 6.2 22.0364 5.05455C22.0364 3.90909 21.1637 3.03636 20.0182 3.03636ZM19.8727 6.2C19.5818 6.2 19.2909 6.09091 19.0727 5.89091C18.9091 5.74545 18.7091 5.47273 18.7091 5.05455C18.7091 4.63636 18.9091 4.36364 19.0727 4.21818C19.2909 4.01818 19.5818 3.90909 19.8727 3.90909C20.2909 3.90909 20.5637 4.10909 20.7091 4.27273C20.9091 4.49091 21.0182 4.78182 21.0182 5.07273C21.0182 5.49091 20.8182 5.76364 20.6546 5.90909C20.4546 6.09091 20.1637 6.2 19.8727 6.2ZM19.8727 3.92727C19.1818 3.92727 18.7637 4.49091 18.7637 5.03636C18.7637 5.58182 19.1818 6.14545 19.8727 6.14545C20.5637 6.14545 20.9818 5.58182 20.9818 5.03636C20.9818 4.49091 20.5818 3.92727 19.8727 3.92727Z" fill="#2D3E50"/>
<path d="M17.9818 5.05457C17.9818 6.2182 18.8545 7.09093 20.0182 7.09093C21.1818 7.09093 22.0545 6.2182 22.0545 5.05457C22.0545 3.89093 21.1818 3.0182 20.0182 3.0182C18.8545 3.0182 17.9818 3.89093 17.9818 5.05457ZM18.1636 5.05457C18.1636 4.05457 19.0182 3.20002 20.0182 3.20002C21.0182 3.20002 21.8727 4.05457 21.8727 5.05457C21.8727 6.05457 21.0182 6.90911 20.0182 6.90911C19.0182 6.90911 18.1636 6.05457 18.1636 5.05457ZM18.7091 5.05457C18.7091 5.78184 19.2909 6.36366 20.0182 6.36366C20.7454 6.36366 21.3273 5.78184 21.3273 5.05457C21.3273 4.32729 20.7454 3.74548 20.0182 3.74548C19.2909 3.74548 18.7091 4.32729 18.7091 5.05457ZM18.8909 5.05457C18.8909 4.76366 19.0364 4.49093 19.2364 4.27275C19.4364 4.05457 19.7273 3.92729 20.0182 3.92729C20.3091 3.92729 20.5818 4.07275 20.8 4.27275C21.0182 4.49093 21.1454 4.76366 21.1454 5.05457C21.1454 5.34548 21 5.6182 20.8 5.83638C20.5818 6.05457 20.3091 6.18184 20.0182 6.18184C19.7454 6.18184 19.4545 6.03638 19.2364 5.83638C19.0182 5.63638 18.8909 5.32729 18.8909 5.05457Z" fill="#2D3E50"/>
<path d="M20.0182 7.10909C18.8546 7.10909 17.9637 6.23636 17.9637 5.05455C17.9637 3.87273 18.8364 3 20.0182 3C21.2 3 22.0727 3.87273 22.0727 5.05455C22.0727 6.23636 21.2 7.10909 20.0182 7.10909ZM20.0182 3.03636C18.8727 3.03636 18 3.90909 18 5.05455C18 6.2 18.8727 7.07273 20.0182 7.07273C21.1637 7.07273 22.0364 6.2 22.0364 5.05455C22.0364 3.90909 21.1637 3.03636 20.0182 3.03636ZM20.0182 6.92727C19 6.92727 18.1455 6.07273 18.1455 5.05455C18.1455 4.03636 19 3.18182 20.0182 3.18182C21.0364 3.18182 21.8909 4.03636 21.8909 5.05455C21.8909 6.07273 21.0364 6.92727 20.0182 6.92727ZM20.0182 3.21818C19.0182 3.21818 18.1818 4.05455 18.1818 5.05455C18.1818 6.05455 19.0182 6.89091 20.0182 6.89091C21.0182 6.89091 21.8546 6.05455 21.8546 5.05455C21.8546 4.05455 21.0182 3.21818 20.0182 3.21818ZM20.0182 6.38182C19.2909 6.38182 18.6909 5.78182 18.6909 5.05455C18.6909 4.32727 19.2909 3.72727 20.0182 3.72727C20.7455 3.72727 21.3455 4.32727 21.3455 5.05455C21.3455 5.78182 20.7637 6.38182 20.0182 6.38182ZM20.0182 3.76364C19.3091 3.76364 18.7273 4.34545 18.7273 5.05455C18.7273 5.76364 19.3091 6.34545 20.0182 6.34545C20.7273 6.34545 21.3091 5.76364 21.3091 5.05455C21.3091 4.34545 20.7273 3.76364 20.0182 3.76364ZM20.0182 6.2C19.7455 6.2 19.4546 6.07273 19.2182 5.83636C18.9818 5.6 18.8546 5.32727 18.8546 5.03636C18.8546 4.74545 18.9818 4.47273 19.2182 4.23636C19.4546 4 19.7273 3.87273 20.0182 3.87273C20.3091 3.87273 20.5818 4 20.8182 4.23636C21.0546 4.47273 21.1818 4.74545 21.1818 5.03636C21.1818 5.32727 21.0546 5.6 20.8182 5.83636C20.5818 6.07273 20.2909 6.2 20.0182 6.2ZM20.0182 3.92727C19.7455 3.92727 19.4727 4.05455 19.2546 4.27273C19.0364 4.49091 18.9091 4.78182 18.9091 5.03636C18.9091 5.29091 19.0364 5.58182 19.2546 5.8C19.4727 6.01818 19.7637 6.14545 20.0182 6.14545C20.2727 6.14545 20.5637 6.01818 20.7818 5.8C21 5.58182 21.1273 5.29091 21.1273 5.03636C21.1273 4.78182 21 4.49091 20.7818 4.27273C20.5637 4.05455 20.2909 3.92727 20.0182 3.92727Z" fill="#2D3E50"/>
<path d="M3.76364 6.61827L3.74546 6.63645L3.60001 12.4001V12.4183H3.61819H3.76364H4.34546H4.49091H4.5091V12.4001V6.63645V6.61827H4.49091H4.34546H3.76364Z" fill="#2D3E50"/>
<path d="M4.52727 12.4182H3.58182V12.3819L3.72727 6.58186H4.52727V12.4182ZM3.61818 12.3819H4.47273V6.63641H3.74545L3.61818 12.3819Z" fill="#2D3E50"/>
<path d="M4.49092 12.5455H4.5091V12.5273V6.49093V6.47275H4.49092H3.63638H3.61819V6.49093V12.5273V12.5455H3.63638H4.49092ZM4.32729 12.3637H3.78183V6.65457H4.32729V12.3637Z" fill="#2D3E50"/>
<path d="M4.52728 12.5636H3.60001V6.45454H4.52728V12.5636ZM3.61819 12.5273H4.47273V6.49091H3.61819V12.5273ZM4.34546 12.3818H3.76364V6.63636H4.34546V12.3818ZM3.80001 12.3454H4.3091V6.67273H3.80001V12.3454Z" fill="#2D3E50"/>
<path d="M11.6727 6.61827L11.5091 10.9455V10.9637H11.5273H11.6727H12.2545H12.4H12.4182V10.9455V6.63645V6.61827H12.4H12.2545H11.6727Z" fill="#2D3E50"/>
<path d="M12.4364 10.9819H11.4909L11.6364 6.60007H12.4182V10.9819H12.4364ZM11.5273 10.9455H12.4V6.63643H11.6728L11.5273 10.9455Z" fill="#2D3E50"/>
<path d="M12.5455 11.1091L12.5637 6.49093V6.47275H12.5455H11.6728H11.6546V6.49093V6.6182V6.63638V10.9455V10.9637V11.0909V11.1091H11.6728H12.5455ZM11.6909 10.9273V6.65457H12.2364V10.9273H11.6909Z" fill="#2D3E50"/>
<path d="M12.5818 11.1273H11.6546V6.45454H12.5818V11.1273ZM11.6728 11.0909H12.5273V6.49091H11.6728V11.0909ZM12.2546 10.9455H11.6728V6.63636H12.2546V10.9455ZM11.7091 10.9091H12.2182V6.67273H11.7091V10.9091Z" fill="#2D3E50"/>
<path d="M19.7273 6.61827L19.5637 10.9455V10.9637H19.5818H19.7273H20.3091H20.4546H20.4728V10.9455V6.63645V6.61827H20.4546H20.3091H19.7273Z" fill="#2D3E50"/>
<path d="M20.4909 10.9819H19.5455V10.9455L19.6909 6.60007H20.4727V10.9819H20.4909ZM19.5818 10.9455H20.4364V6.63643H19.7091L19.5818 10.9455Z" fill="#2D3E50"/>
<path d="M20.4545 11.1091L20.4727 6.49093V6.47275H20.4545H19.6H19.5818V6.49093V11.0909V11.1091H19.6H20.4545ZM20.2909 10.9273H19.7455V6.65457H20.2909V10.9273Z" fill="#2D3E50"/>
<path d="M20.4909 11.1273H19.5637V6.45454H20.4909V11.1273ZM19.5818 11.0909H20.4364V6.49091H19.5818V11.0909ZM20.3091 10.9455H19.7273V6.63636H20.3091V10.9455ZM19.7637 10.9091H20.2728V6.67273H19.7637V10.9091Z" fill="#2D3E50"/>
<path d="M19.7455 12.2364H19.7091L19.5637 18.0001V18.1455V18.1637H19.5818H19.7273H20.3091H20.4546H20.4728V18.1455V12.3819V12.3637H20.4546H20.3091H19.7455V12.2364Z" fill="#2D3E50"/>
<path d="M20.4909 18.1819H19.5637V18L19.7091 12.2182H19.7818V12.3455H20.5091V18.1819H20.4909ZM19.5818 18.1455H20.4364V12.3819H19.7091V12.2546L19.5637 18V18.1455H19.5818Z" fill="#2D3E50"/>
<path d="M20.4545 18.3091L20.4727 12.2546V12.2182H20.4545H19.6H19.5818V12.2364V18.2728V18.291H19.6H20.4545V18.3091ZM20.2909 18.1273H19.7455V12.4H20.2909V18.1273Z" fill="#2D3E50"/>
<path d="M20.4909 18.3273H19.5637V12.2H20.4909V18.3273ZM19.5818 18.2909H20.4364V12.2364H19.5818V18.2909ZM20.3091 18.1455H19.7273V12.3818H20.3091V18.1455ZM19.7637 18.1091H20.2728V12.4182H19.7637V18.1091Z" fill="#2D3E50"/>
<path d="M11.6728 12.9455L11.6546 18.1455V18.1637H11.6728H11.8182H12.4H12.5455H12.5637V18.1455V13.1091V12.9637V12.9455H12.5455H12.4H11.6728Z" fill="#2D3E50"/>
<path d="M12.5818 18.1818H11.6546V12.9273H12.5818V18.1818ZM11.6728 18.1455H12.5273V12.9637H11.6728V18.1455Z" fill="#2D3E50"/>
<path d="M12.5455 18.3091L12.5637 12.9637V12.9455H12.5455H11.6728H11.6546V12.9637V13.091V13.1091V18.1455V18.1637V18.291V18.3091H11.6728H12.5455ZM11.6909 18.1273V13.1273H12.2364V18.1273H11.6909Z" fill="#2D3E50"/>
<path d="M12.5818 18.3273H11.6546V12.9273H12.5818V18.3273ZM11.6728 18.2909H12.5273V12.9637H11.6728V18.2909ZM12.2546 18.1455H11.6728V13.1091H12.2546V18.1455ZM11.7091 18.1091H12.2182V13.1455H11.7091V18.1091Z" fill="#2D3E50"/>
<path d="M3.76364 11.6547L3.60001 12.3819V12.4001H3.61819H3.76364H20.3091H20.3273V12.3819V11.8001V11.6728V11.6547H20.3091H3.76364Z" fill="#2D3E50"/>
<path d="M20.3455 12.4183H3.58182L3.74545 11.6183H20.3636V12.4183H20.3455ZM3.61818 12.3819H20.3091V11.6546H3.76364L3.61818 12.3819Z" fill="#2D3E50"/>
<path d="M20.4546 12.5455L20.4727 11.6728V11.6546H20.4546H3.61819H3.60001V11.6728V12.5273V12.5455H3.61819H20.4546ZM20.2909 12.3637H3.78182V11.8182H20.2909V12.3637Z" fill="#2D3E50"/>
<path d="M20.4909 12.5636H3.58182V11.6364H20.4909V12.5636ZM3.61818 12.5273H20.4545V11.6727H3.61818V12.5273ZM20.3091 12.3818H3.76364V11.8H20.3091V12.3818ZM3.8 12.3455H20.2727V11.8545H3.8V12.3455Z" fill="#2D3E50"/>
</svg>
