<svg width="12" height="12" viewBox="0 0 12 12" fill="none" xmlns="http://www.w3.org/2000/svg">
<circle cx="6" cy="6" r="4.5" stroke="#2D3E50" stroke-width="1.2"/>
<path d="M7.46601 7.26185C7.41595 7.21971 7.33807 7.21971 7.29357 7.26712C7.03214 7.51475 6.69839 7.64647 6.36465 7.64647C5.87515 7.64647 5.40791 7.36196 5.14091 6.89305H6.40915C6.48146 6.89305 6.53708 6.84036 6.53708 6.77187V6.36091C6.53708 6.29241 6.48146 6.23973 6.40915 6.23973H4.91842C4.90729 6.1607 4.90729 6.08167 4.90729 6.0079C4.90729 5.93414 4.91286 5.85511 4.92398 5.77081H6.40915C6.48146 5.77081 6.53708 5.71812 6.53708 5.64963V5.23867C6.53708 5.17018 6.48146 5.11749 6.40915 5.11749H5.14091C5.40791 4.65385 5.86959 4.36407 6.36465 4.36407C6.70396 4.36407 7.03214 4.50105 7.29357 4.74868C7.34363 4.7961 7.42151 4.7961 7.46601 4.75395L7.94994 4.33246C7.97775 4.31138 7.98888 4.27977 7.99444 4.24289C7.99444 4.21128 7.98331 4.17966 7.96106 4.15332C7.52163 3.73182 6.95983 3.5 6.37021 3.5C5.39679 3.5 4.51236 4.14805 4.16193 5.11222H3.62794C3.55562 5.11222 3.5 5.16491 3.5 5.2334V5.64436C3.5 5.71286 3.55562 5.76554 3.62794 5.76554H4.01731C4.01174 5.84984 4.00618 5.92887 4.00618 6.00263C4.00618 6.0764 4.01174 6.15543 4.01731 6.23446H3.62794C3.55562 6.23446 3.5 6.28714 3.5 6.35564V6.7666C3.5 6.83509 3.55562 6.88778 3.62794 6.88778H4.16193C4.51236 7.85195 5.39679 8.5 6.37021 8.5C6.95983 8.5 7.52719 8.26818 7.96106 7.84668C7.98331 7.82561 8 7.79399 8 7.75711C8 7.7255 7.98331 7.69389 7.9555 7.66754L7.46601 7.26185Z" fill="#2D3E50"/>
</svg>
