<svg width="12" height="12" viewBox="0 0 12 12" fill="none" xmlns="http://www.w3.org/2000/svg">
<path d="M6.1 11.2C3.3 11.2 1 8.9 1 6.1C1 3.3 3.3 1 6.1 1C8.9 1 11.2 3.3 11.2 6.1C11.2 8.9 8.9 11.2 6.1 11.2ZM6.1 2.2C3.9 2.2 2.2 3.9 2.2 6.1C2.2 8.3 3.9 10 6.1 10C8.3 10 10 8.3 10 6.1C10 3.9 8.3 2.2 6.1 2.2Z" fill="#2D3E50"/>
<path d="M7.59998 7.40001C7.49998 7.40001 7.49998 7.40001 7.39998 7.40001C7.09998 7.60001 6.79998 7.70001 6.49998 7.70001C5.99998 7.70001 5.49998 7.40001 5.29998 6.90001H6.59998C6.69998 6.90001 6.69998 6.80001 6.69998 6.80001V6.50001C6.69998 6.40001 6.59998 6.40001 6.59998 6.40001H4.99998C4.99998 6.30001 4.99998 6.20001 4.99998 6.20001C4.99998 6.10001 4.99998 6.00001 4.99998 6.00001H6.49998C6.59998 6.00001 6.59998 5.90001 6.59998 5.90001V5.30001C6.59998 5.20001 6.49998 5.20001 6.49998 5.20001H5.19998C5.49998 4.70001 5.89998 4.40001 6.39998 4.40001C6.69998 4.40001 7.09998 4.50001 7.29998 4.80001C7.39998 4.80001 7.39998 4.80001 7.49998 4.80001L7.99998 4.40001V4.30001V4.20001C7.59998 3.80001 7.09998 3.60001 6.49998 3.60001C5.49998 3.60001 4.59998 4.20001 4.29998 5.20001H3.69998C3.59998 5.20001 3.59998 5.30001 3.59998 5.30001V5.70001C3.59998 5.80001 3.69998 5.80001 3.69998 5.80001H4.09998C4.09998 5.90001 4.09998 6.00001 4.09998 6.10001C4.09998 6.20001 4.09998 6.30001 4.09998 6.30001H3.69998C3.59998 6.30001 3.59998 6.40001 3.59998 6.40001V6.80001C3.59998 6.90001 3.69998 6.90001 3.69998 6.90001H4.19998C4.59998 7.90001 5.39998 8.50001 6.39998 8.50001C7.09998 8.60001 7.59998 8.40001 8.09998 7.90001V7.80001V7.70001L7.59998 7.40001Z" fill="#2D3E50"/>
</svg>
