<svg width="16" height="16" viewBox="0 0 16 16" fill="none" xmlns="http://www.w3.org/2000/svg">
<path d="M7.8 14.6C4.1 14.6 1 11.6 1 7.8C1 4.1 4 1 7.8 1C11.5 1 14.6 4 14.6 7.8C14.6 11.5 11.5 14.6 7.8 14.6ZM7.8 2.6C4.9 2.6 2.6 4.9 2.6 7.8C2.6 10.7 5 13 7.8 13C10.7 13 13 10.6 13 7.8C13 4.9 10.7 2.6 7.8 2.6Z" fill="#2D3E50"/>
<path d="M9.79996 9.5C9.69996 9.4 9.59996 9.4 9.59996 9.5C9.29996 9.8 8.79996 10 8.39996 10C7.69996 10 7.09996 9.6 6.79996 9H8.49996C8.59996 9 8.69996 8.9 8.69996 8.8V8.3C8.69996 8.2 8.59996 8.1 8.49996 8.1H6.49996C6.49996 8 6.49996 7.9 6.49996 7.8C6.49996 7.7 6.49996 7.6 6.49996 7.5H8.49996C8.59996 7.5 8.69996 7.4 8.69996 7.3V6.8C8.69996 6.7 8.59996 6.6 8.49996 6.6H6.69996C7.09996 6 7.69996 5.6 8.29996 5.6C8.79996 5.6 9.19996 5.8 9.49996 6.1C9.59996 6.2 9.69996 6.2 9.69996 6.1L10.3 5.5L10.4 5.4V5.3C9.79996 4.8 9.09996 4.5 8.29996 4.5C6.99996 4.5 5.79996 5.3 5.29996 6.6H4.59996C4.49996 6.6 4.49996 6.7 4.49996 6.8V7.3C4.49996 7.4 4.59996 7.5 4.69996 7.5H5.19996C5.19996 7.6 5.19996 7.7 5.19996 7.8C5.19996 7.9 5.19996 8 5.19996 8.1H4.59996C4.49996 8.1 4.39996 8.2 4.39996 8.3V8.8C4.39996 8.9 4.49996 9 4.59996 9H5.29996C5.79996 10.3 6.89996 11.1 8.19996 11.1C8.99996 11.1 9.69996 10.8 10.3 10.2L10.4 10.1C10.4 10.1 10.4 10 10.3 10L9.79996 9.5Z" fill="#2D3E50"/>
</svg>
