<svg width="24" height="24" viewBox="0 0 24 24" fill="none" xmlns="http://www.w3.org/2000/svg">
<path d="M11.9 21.8C6.4 21.8 2 17.4 2 11.9C2 6.4 6.4 2 11.9 2C17.4 2 21.8 6.4 21.8 11.9C21.8 17.4 17.4 21.8 11.9 21.8ZM11.9 3.8C7.4 3.8 3.8 7.4 3.8 11.9C3.8 16.4 7.4 20 11.9 20C16.4 20 20 16.4 20 11.9C20 7.4 16.4 3.8 11.9 3.8Z" fill="#2D3E50"/>
<path d="M14.8 14.4C14.7 14.3 14.5 14.3 14.5 14.4C14 14.9 13.3 15.2 12.6 15.2C11.6 15.2 10.7 14.6 10.2 13.7H12.7C12.8 13.7 13 13.6 13 13.5V12.7C13 12.6 12.9 12.5 12.7 12.5H9.70002C9.70002 12.3 9.70002 12.2 9.70002 12C9.70002 11.9 9.70002 11.7 9.70002 11.5H12.7C12.8 11.5 13 11.4 13 11.3V10.5C13 10.4 12.9 10.3 12.7 10.3H10.2C10.7 9.4 11.7 8.8 12.6 8.8C13.3 8.8 13.9 9.1 14.5 9.6C14.6 9.7 14.8 9.7 14.8 9.6L15.8 8.8C15.9 8.5 15.9 8.5 15.9 8.4C15.9 8.3 15.9 8.3 15.8 8.2C14.9 7.4 13.8 6.9 12.6 6.9C10.7 6.9 8.90002 8.2 8.20002 10.1H7.20002C7.10002 10.1 6.90002 10.2 6.90002 10.3V11.1C6.90002 11.2 7.00002 11.3 7.20002 11.3H7.90002C7.90002 11.5 7.90002 11.6 7.90002 11.8C7.90002 11.9 7.90002 12.1 7.90002 12.3H7.20002C7.10002 12.3 6.90002 12.4 6.90002 12.5V13.3C6.90002 13.4 7.00002 13.5 7.20002 13.5H8.30002C8.90002 15.6 10.7 16.9 12.6 16.9C13.8 16.9 14.9 16.4 15.8 15.6C15.8 15.6 15.9 15.5 15.9 15.4C15.9 15.3 15.9 15.3 15.8 15.2L14.8 14.4Z" fill="#2D3E50"/>
</svg>
