<svg width="12" height="12" viewBox="0 0 12 12" fill="none" xmlns="http://www.w3.org/2000/svg">
<path d="M6 12C2.70588 12 0 9.29412 0 6C0 2.70588 2.70588 0 6 0C9.29412 0 12 2.70588 12 6C12 9.29412 9.29412 12 6 12ZM6 1.41176C3.41176 1.41176 1.41176 3.41176 1.41176 6C1.41176 8.58823 3.41176 10.5882 6 10.5882C8.58823 10.5882 10.5882 8.58823 10.5882 6C10.5882 3.41176 8.58823 1.41176 6 1.41176Z" fill="#2D3E50"/>
<path d="M7.76466 7.52941C7.64701 7.52941 7.64701 7.52941 7.52937 7.52941C7.17642 7.7647 6.82348 7.88235 6.47054 7.88235C5.88231 7.88235 5.29407 7.52941 5.05878 6.94118H6.58819C6.70584 6.94118 6.70584 6.82353 6.70584 6.82353V6.47059C6.70584 6.35294 6.58819 6.35294 6.58819 6.35294H4.70584C4.70584 6.23529 4.70584 6.11765 4.70584 6.11765C4.70584 6 4.70584 5.88235 4.70584 5.88235H6.47054C6.58819 5.88235 6.58819 5.7647 6.58819 5.7647V5.05882C6.58819 4.94118 6.47054 4.94118 6.47054 4.94118H4.94113C5.29407 4.35294 5.76466 4 6.35289 4C6.70584 4 7.17642 4.11765 7.41172 4.47059C7.52936 4.47059 7.52937 4.47059 7.64701 4.47059L8.23525 4V3.88235V3.7647C7.76466 3.29412 7.17642 3.05882 6.47054 3.05882C5.29407 3.05882 4.23525 3.7647 3.88231 4.94118H3.17642C3.05878 4.94118 3.05878 5.05882 3.05878 5.05882V5.52941C3.05878 5.64706 3.17642 5.64706 3.17642 5.64706H3.64701C3.64701 5.7647 3.64701 5.88235 3.64701 6C3.64701 6.11765 3.64701 6.23529 3.64701 6.23529H3.17642C3.05878 6.23529 3.05878 6.35294 3.05878 6.35294V6.82353C3.05878 6.94118 3.17642 6.94118 3.17642 6.94118H3.76466C4.23525 8.11765 5.17642 8.82353 6.35289 8.82353C7.17642 8.94117 7.76466 8.70588 8.35289 8.11765V8V7.88235L7.76466 7.52941Z" fill="#2D3E50"/>
</svg>
