<svg width="16" height="16" viewBox="0 0 16 16" fill="none" xmlns="http://www.w3.org/2000/svg">
<circle cx="8" cy="8" r="6" stroke="#2D3E50" stroke-width="1.5"/>
<path d="M9.9547 9.68248C9.88795 9.62628 9.78412 9.62628 9.72478 9.6895C9.37621 10.0197 8.93121 10.1953 8.48622 10.1953C7.83356 10.1953 7.21057 9.81595 6.85457 9.19073H8.54555C8.64197 9.19073 8.71613 9.12048 8.71613 9.02916V8.48121C8.71613 8.38989 8.64197 8.31964 8.54555 8.31964H6.55791C6.54308 8.21427 6.54308 8.10889 6.54308 8.01054C6.54308 7.91219 6.55049 7.80682 6.56533 7.69442H8.54555C8.64197 7.69442 8.71613 7.62417 8.71613 7.53285V6.9849C8.71613 6.89358 8.64197 6.82333 8.54555 6.82333H6.85457C7.21057 6.20513 7.82614 5.81876 8.48622 5.81876C8.93863 5.81876 9.37621 6.00141 9.72478 6.33158C9.79153 6.39481 9.89537 6.39481 9.9547 6.33861L10.5999 5.77661C10.637 5.74851 10.6519 5.70636 10.6593 5.65719C10.6593 5.61504 10.6444 5.57289 10.6148 5.53776C10.0289 4.97577 9.27979 4.66667 8.49363 4.66667C7.19574 4.66667 6.0165 5.53074 5.54926 6.8163H4.83727C4.74085 6.8163 4.66669 6.88655 4.66669 6.97788V7.52582C4.66669 7.61715 4.74085 7.6874 4.83727 7.6874H5.35643C5.34901 7.79979 5.34159 7.90517 5.34159 8.00352C5.34159 8.10187 5.34901 8.20724 5.35643 8.31261H4.83727C4.74085 8.31261 4.66669 8.38286 4.66669 8.47419V9.02213C4.66669 9.11346 4.74085 9.18371 4.83727 9.18371H5.54926C6.0165 10.4693 7.19574 11.3333 8.49363 11.3333C9.27979 11.3333 10.0363 11.0242 10.6148 10.4622C10.6444 10.4341 10.6667 10.392 10.6667 10.3428C10.6667 10.3007 10.6444 10.2585 10.6074 10.2234L9.9547 9.68248Z" fill="#2D3E50"/>
</svg>
