<svg width="24" height="24" viewBox="0 0 24 24" fill="none" xmlns="http://www.w3.org/2000/svg">
<circle cx="12" cy="12" r="9" stroke="#2D3E50" stroke-width="1.8"/>
<path d="M14.932 14.5237C14.8319 14.4394 14.6761 14.4394 14.5871 14.5342C14.0643 15.0295 13.3968 15.2929 12.7293 15.2929C11.7503 15.2929 10.8158 14.7239 10.2818 13.7861H12.8183C12.9629 13.7861 13.0742 13.6807 13.0742 13.5437V12.7218C13.0742 12.5848 12.9629 12.4795 12.8183 12.4795H9.83684C9.81459 12.3214 9.81459 12.1633 9.81459 12.0158C9.81459 11.8683 9.82571 11.7102 9.84796 11.5416H12.8183C12.9629 11.5416 13.0742 11.4362 13.0742 11.2993V10.4773C13.0742 10.3404 12.9629 10.235 12.8183 10.235H10.2818C10.8158 9.30769 11.7392 8.72813 12.7293 8.72813C13.4079 8.72813 14.0643 9.00211 14.5871 9.49737C14.6873 9.5922 14.843 9.5922 14.932 9.5079L15.8999 8.66491C15.9555 8.62276 15.9778 8.55954 15.9889 8.48577C15.9889 8.42255 15.9666 8.35933 15.9221 8.30664C15.0433 7.46365 13.9197 7 12.7404 7C10.7936 7 9.02472 8.2961 8.32386 10.2244H7.25587C7.11125 10.2244 7 10.3298 7 10.4668V11.2887C7 11.4257 7.11125 11.5311 7.25587 11.5311H8.03461C8.02349 11.6997 8.01236 11.8577 8.01236 12.0053C8.01236 12.1528 8.02349 12.3109 8.03461 12.4689H7.25587C7.11125 12.4689 7 12.5743 7 12.7113V13.5332C7 13.6702 7.11125 13.7756 7.25587 13.7756H8.32386C9.02472 15.7039 10.7936 17 12.7404 17C13.9197 17 15.0544 16.5364 15.9221 15.6934C15.9666 15.6512 16 15.588 16 15.5142C16 15.451 15.9666 15.3878 15.911 15.3351L14.932 14.5237Z" fill="#2D3E50"/>
</svg>
