<svg width="12" height="12" viewBox="0 0 12 12" fill="none" xmlns="http://www.w3.org/2000/svg">
<path d="M6.1 11.2C3.3 11.2 1 8.9 1 6.1C1 3.3 3.3 1 6.1 1C8.9 1 11.2 3.3 11.2 6.1C11.2 8.9 8.9 11.2 6.1 11.2ZM6.1 2.2C3.9 2.2 2.2 3.9 2.2 6.1C2.2 8.3 3.9 10 6.1 10C8.3 10 10 8.3 10 6.1C10 3.9 8.3 2.2 6.1 2.2Z" fill="#2D3E50"/>
<path d="M7.59998 7.4C7.49998 7.4 7.49998 7.4 7.39998 7.4C7.09998 7.6 6.79998 7.7 6.49998 7.7C5.99998 7.7 5.49998 7.4 5.29998 6.9H6.59998C6.69998 6.9 6.69998 6.8 6.69998 6.8V6.5C6.69998 6.4 6.59998 6.4 6.59998 6.4H4.99998C4.99998 6.3 4.99998 6.2 4.99998 6.2C4.99998 6.1 4.99998 6 4.99998 6H6.49998C6.59998 6 6.59998 5.9 6.59998 5.9V5.3C6.59998 5.2 6.49998 5.2 6.49998 5.2H5.19998C5.49998 4.7 5.89998 4.4 6.39998 4.4C6.69998 4.4 7.09998 4.5 7.29998 4.8C7.39998 4.8 7.39998 4.8 7.49998 4.8L7.99998 4.4V4.3V4.2C7.59998 3.8 7.09998 3.6 6.49998 3.6C5.49998 3.6 4.59998 4.2 4.29998 5.2H3.69998C3.59998 5.2 3.59998 5.3 3.59998 5.3V5.7C3.59998 5.8 3.69998 5.8 3.69998 5.8H4.09998C4.09998 5.9 4.09998 6 4.09998 6.1C4.09998 6.2 4.09998 6.3 4.09998 6.3H3.69998C3.59998 6.3 3.59998 6.4 3.59998 6.4V6.8C3.59998 6.9 3.69998 6.9 3.69998 6.9H4.19998C4.59998 7.9 5.39998 8.5 6.39998 8.5C7.09998 8.6 7.59998 8.4 8.09998 7.9V7.8V7.7L7.59998 7.4Z" fill="#2D3E50"/>
</svg>
