<svg width="12" height="12" viewBox="0 0 12 12" fill="none" xmlns="http://www.w3.org/2000/svg">
<path fill-rule="evenodd" clip-rule="evenodd" d="M1.69999 6C1.69999 3.62518 3.62516 1.7 6 1.7C8.3748 1.7 10.3 3.62518 10.3 6C10.3 8.37485 8.3748 10.3 6 10.3C3.62516 10.3 1.69999 8.37485 1.69999 6ZM6 0.800003C3.1281 0.800003 0.799988 3.12812 0.799988 6C0.799988 8.8719 3.1281 11.2 6 11.2C8.87185 11.2 11.2 8.8719 11.2 6C11.2 3.12812 8.87185 0.800003 6 0.800003ZM8.5681 3.56835C8.6186 3.47993 8.52005 3.38138 8.43165 3.43191L5.7236 4.97938C5.4135 5.15655 5.15655 5.4135 4.97937 5.7236L3.43191 8.43165C3.38138 8.52005 3.47992 8.6186 3.56834 8.5681L6.2764 7.02065C6.58645 6.84345 6.84345 6.5865 7.0206 6.2764L8.5681 3.56835Z" fill="#2D3E50"/>
</svg>
