<svg width="12" height="12" viewBox="0 0 12 12" fill="none" xmlns="http://www.w3.org/2000/svg">
<path fill-rule="evenodd" clip-rule="evenodd" d="M1.45192 5.99999C1.45192 3.48816 3.48816 1.45192 6.00001 1.45192C8.51181 1.45192 10.5481 3.48816 10.5481 5.99999C10.5481 8.51185 8.51181 10.5481 6.00001 10.5481C3.48816 10.5481 1.45192 8.51185 1.45192 5.99999ZM6.00001 0.5C2.96243 0.5 0.5 2.96243 0.5 5.99999C0.5 9.03757 2.96243 11.5 6.00001 11.5C9.03754 11.5 11.5 9.03757 11.5 5.99999C11.5 2.96243 9.03754 0.5 6.00001 0.5ZM8.71626 3.42805C8.76968 3.33453 8.66544 3.2303 8.57194 3.28375L5.70766 4.92049C5.37967 5.10788 5.1079 5.37965 4.92049 5.70764L3.28376 8.57192C3.23031 8.66542 3.33454 8.76966 3.42807 8.71625L6.29235 7.07952C6.62029 6.8921 6.89212 6.62033 7.07948 6.29234L8.71626 3.42805Z" fill="#2D3E50"/>
</svg>
