<svg width="16" height="16" viewBox="0 0 16 16" fill="none" xmlns="http://www.w3.org/2000/svg">
<path fill-rule="evenodd" clip-rule="evenodd" d="M2.26665 8C2.26665 4.83357 4.83355 2.26667 8 2.26667C11.1664 2.26667 13.7333 4.83357 13.7333 8C13.7333 11.1665 11.1664 13.7333 8 13.7333C4.83355 13.7333 2.26665 11.1665 2.26665 8ZM8 1.06667C4.1708 1.06667 1.06665 4.17083 1.06665 8C1.06665 11.8292 4.1708 14.9333 8 14.9333C11.8291 14.9333 14.9333 11.8292 14.9333 8C14.9333 4.17083 11.8291 1.06667 8 1.06667ZM11.4241 4.7578C11.4915 4.63991 11.3601 4.50851 11.2422 4.57589L7.63146 6.63917C7.218 6.8754 6.8754 7.218 6.63916 7.63147L4.57588 11.2422C4.5085 11.3601 4.6399 11.4915 4.75779 11.4241L8.36853 9.36087C8.78193 9.1246 9.1246 8.782 9.3608 8.36853L11.4241 4.7578Z" fill="#2D3E50"/>
</svg>
