<svg width="24" height="24" viewBox="0 0 24 24" fill="none" xmlns="http://www.w3.org/2000/svg">
<path fill-rule="evenodd" clip-rule="evenodd" d="M3.39998 12C3.39998 7.25036 7.25033 3.40001 12 3.40001C16.7496 3.40001 20.6 7.25036 20.6 12C20.6 16.7497 16.7496 20.6 12 20.6C7.25033 20.6 3.39998 16.7497 3.39998 12ZM12 1.60001C6.25621 1.60001 1.59998 6.25624 1.59998 12C1.59998 17.7438 6.25621 22.4 12 22.4C17.7437 22.4 22.4 17.7438 22.4 12C22.4 6.25624 17.7437 1.60001 12 1.60001ZM17.1362 7.1367C17.2372 6.95986 17.0401 6.76277 16.8633 6.86383L11.4472 9.95876C10.827 10.3131 10.3131 10.827 9.95874 11.4472L6.86382 16.8633C6.76276 17.0401 6.95985 17.2372 7.13669 17.1362L12.5528 14.0413C13.1729 13.6869 13.6869 13.173 14.0412 12.5528L17.1362 7.1367Z" fill="#262F56"/>
</svg>
