<svg width="12" height="12" viewBox="0 0 12 12" fill="none" xmlns="http://www.w3.org/2000/svg">
<path d="M2 11.0273V1.90155C2.00575 1.8939 2.01058 1.88561 2.0144 1.87683C2.10799 1.57271 2.2979 1.43164 2.61584 1.43145C2.92029 1.43145 3.22513 1.43145 3.53036 1.43145H3.83098V1.30828C3.83098 1.06681 3.91815 0.977495 4.15709 0.977495C4.4941 0.977495 4.83131 0.973408 5.1689 0.97983C5.26755 0.981581 5.33234 0.964652 5.3699 0.863083C5.38935 0.81113 5.43644 0.768518 5.47439 0.724738C5.58043 0.602543 5.72734 0.550785 5.87347 0.5H6.12642C6.14304 0.508142 6.16012 0.515289 6.17759 0.521404C6.38812 0.579777 6.55001 0.702945 6.6475 0.898301C6.6796 0.962123 6.7156 0.978273 6.78078 0.977884C7.144 0.975419 7.50682 0.975419 7.86925 0.977884C8.07006 0.979051 8.16443 1.0777 8.16618 1.27909C8.16618 1.32618 8.16618 1.37327 8.16618 1.42872H8.28487C8.65729 1.42872 9.02991 1.42872 9.40253 1.42872C9.61656 1.42872 9.78682 1.51142 9.9022 1.69199C9.94306 1.7562 9.96622 1.83169 9.99735 1.90193V11.0082C9.86796 11.4184 9.60002 11.5036 9.2636 11.4999C8.31347 11.4892 7.36335 11.4962 6.41322 11.4962C5.14198 11.4962 3.87074 11.4962 2.59949 11.4962C2.44383 11.4962 2.29556 11.461 2.19302 11.3452C2.11188 11.2541 2.06304 11.1345 2 11.0273ZM8.16482 1.94046C8.16482 2.03211 8.16598 2.11266 8.16482 2.19341C8.1617 2.37923 8.05994 2.48197 7.87295 2.48197C6.62129 2.48275 5.36951 2.48275 4.11759 2.48197C3.93683 2.48197 3.83429 2.37709 3.83215 2.19808C3.83098 2.1148 3.83215 2.03152 3.83215 1.93949H2.66585C2.51018 1.93949 2.51018 1.93949 2.51018 2.09515V10.8305C2.51018 10.9841 2.5133 10.9862 2.66954 10.9862H9.31263C9.47861 10.9862 9.48775 10.9769 9.48775 10.8099V2.1043C9.48775 2.07822 9.48775 2.05234 9.48775 2.02647C9.48561 1.96809 9.45662 1.93968 9.39552 1.93988C8.99041 1.94085 8.5853 1.94027 8.16482 1.94027V1.94046ZM4.34914 1.95856H7.64996V1.49157H7.53808C7.20081 1.49157 6.86354 1.49157 6.52627 1.49157C6.32761 1.49157 6.24472 1.41685 6.2202 1.21916C6.20522 1.0995 6.11319 1.01135 6.00208 1.00999C5.8865 1.00863 5.77909 1.09872 5.7789 1.22208C5.7789 1.38416 5.63997 1.49624 5.4773 1.49293C5.13718 1.48632 4.79628 1.49099 4.45655 1.49099H4.34856L4.34914 1.95856Z" fill="#2D3E50"/>
<path d="M5.17805 8.79642C5.02472 8.96123 4.83267 8.98613 4.62934 8.98107C4.47076 8.97699 4.31179 8.98263 4.15301 8.97718C3.95454 8.97056 3.84441 8.81782 3.90531 8.64134C3.94014 8.54016 4.02479 8.48334 4.15827 8.48101C4.33008 8.47789 4.50209 8.47439 4.6737 8.48101C4.77099 8.48529 4.82236 8.44929 4.85641 8.36095C4.88891 8.2767 4.9358 8.19809 4.97627 8.11695C5.02803 8.01344 5.10372 7.94592 5.22728 7.95273C5.35083 7.95954 5.41894 8.0325 5.46233 8.1403C5.59879 8.47939 5.73629 8.81815 5.87483 9.15658C5.89254 9.19919 5.92289 9.23655 5.9585 9.29493C5.99567 9.22702 6.02563 9.18149 6.04684 9.13206C6.14004 8.91511 6.23052 8.69699 6.32236 8.47945C6.33322 8.45274 6.34576 8.42674 6.35992 8.40162C6.4681 8.21696 6.70588 8.21638 6.80589 8.40512C6.84344 8.47595 6.88664 8.50066 6.96486 8.49949C7.25011 8.49541 7.53556 8.49638 7.821 8.49949C7.99826 8.50085 8.09789 8.59873 8.09244 8.75789C8.08777 8.89526 7.99865 8.99138 7.86011 8.99333C7.50696 8.99547 7.1536 8.99197 6.80044 8.98886C6.75919 8.98886 6.71794 8.97582 6.6654 8.96706C6.59769 9.12273 6.53095 9.28345 6.45974 9.44144C6.34649 9.69226 6.14958 9.81114 5.88768 9.78449C5.65982 9.76094 5.52148 9.61909 5.43626 9.41907C5.35278 9.22274 5.27514 9.02407 5.19498 8.82638C5.19109 8.81938 5.18778 8.81412 5.17805 8.79642Z" fill="#2D3E50"/>
<path d="M5.99858 4.53788C6.82223 4.53788 7.64588 4.53691 8.46972 4.53983C8.54021 4.53901 8.60996 4.55431 8.67364 4.58458C8.76489 4.63186 8.80342 4.74783 8.78104 4.84492C8.77011 4.89773 8.74281 4.94574 8.70302 4.98214C8.66323 5.01854 8.61299 5.04147 8.55942 5.04767C8.53039 5.05046 8.5012 5.05131 8.47205 5.0502C6.81827 5.0502 5.16436 5.0502 3.51031 5.0502C3.42061 5.0502 3.33519 5.04223 3.26884 4.97237C3.19704 4.89746 3.17505 4.81068 3.20697 4.713C3.21947 4.66896 3.24453 4.62952 3.27908 4.59949C3.31364 4.56946 3.35619 4.55015 3.40154 4.54391C3.44022 4.5386 3.47927 4.53651 3.51829 4.53769L5.99858 4.53788Z" fill="#2D3E50"/>
<path d="M5.99099 3.75975H3.52997C3.3101 3.75975 3.19063 3.66713 3.19315 3.49921C3.19549 3.33655 3.31554 3.24626 3.52802 3.24626C5.17545 3.24626 6.82288 3.24626 8.47031 3.24626C8.64543 3.24626 8.74486 3.3095 8.77755 3.44084C8.78699 3.4753 8.78896 3.51138 8.78331 3.54667C8.77765 3.58195 8.76452 3.61561 8.74478 3.6454C8.72504 3.67518 8.69915 3.7004 8.66886 3.71935C8.63857 3.7383 8.60457 3.75055 8.56915 3.75528C8.52732 3.76021 8.48517 3.76203 8.44307 3.76073L5.99099 3.75975Z" fill="#2D3E50"/>
<path d="M5.98881 5.82872H8.45995C8.49558 5.82758 8.53124 5.82849 8.56677 5.83145C8.62676 5.83942 8.68194 5.86849 8.72245 5.91345C8.76295 5.95841 8.78612 6.01632 8.78781 6.07681C8.78807 6.13888 8.76626 6.19903 8.72627 6.2465C8.68628 6.29398 8.63071 6.3257 8.5695 6.33599C8.55333 6.33758 8.53708 6.3381 8.52085 6.33754H3.46241C3.34157 6.33754 3.24681 6.27489 3.20945 6.17507C3.17054 6.07039 3.19622 5.94586 3.28962 5.88807C3.35292 5.85107 3.42488 5.83147 3.49821 5.83125C4.32867 5.82736 5.15874 5.82872 5.98881 5.82872Z" fill="#2D3E50"/>
</svg>
