<svg width="16" height="16" viewBox="0 0 16 16" fill="none" xmlns="http://www.w3.org/2000/svg">
<path d="M2.66669 14.703V2.53538C2.67436 2.52519 2.6808 2.51413 2.68589 2.50244C2.81067 2.09694 3.06389 1.90884 3.48781 1.90858C3.89374 1.90858 4.30019 1.90858 4.70716 1.90858H5.10799V1.74436C5.10799 1.4224 5.22422 1.30332 5.54281 1.30332C5.99216 1.30332 6.44176 1.29787 6.89188 1.30643C7.02342 1.30876 7.10981 1.28619 7.15988 1.15077C7.18583 1.0815 7.24861 1.02468 7.2992 0.966307C7.44059 0.80338 7.63647 0.73437 7.83131 0.666656H8.16858C8.19073 0.677513 8.21352 0.687042 8.23681 0.695195C8.51752 0.773026 8.73337 0.93725 8.86335 1.19772C8.90616 1.28282 8.95415 1.30435 9.04106 1.30383C9.52535 1.30055 10.0091 1.30055 10.4924 1.30383C10.7601 1.30539 10.8859 1.43693 10.8883 1.70544C10.8883 1.76823 10.8883 1.83101 10.8883 1.90495H11.0465C11.5431 1.90495 12.0399 1.90495 12.5367 1.90495C12.8221 1.90495 13.0491 2.01521 13.203 2.25597C13.2574 2.34158 13.2883 2.44225 13.3298 2.5359V14.6776C13.1573 15.2245 12.8001 15.3381 12.3515 15.3332C11.0847 15.3189 9.81782 15.3282 8.55099 15.3282C6.856 15.3282 5.161 15.3282 3.46601 15.3282C3.25846 15.3282 3.06077 15.2813 2.92405 15.1269C2.81586 15.0055 2.75074 14.8459 2.66669 14.703ZM10.8864 2.58727C10.8864 2.70947 10.888 2.81687 10.8864 2.92454C10.8823 3.1723 10.7466 3.30929 10.4973 3.30929C8.82841 3.31032 7.15936 3.31032 5.49014 3.30929C5.24913 3.30929 5.1124 3.16945 5.10955 2.93077C5.10799 2.81973 5.10955 2.70869 5.10955 2.58597H3.55448C3.34693 2.58597 3.34693 2.58597 3.34693 2.79352V14.4407C3.34693 14.6454 3.35108 14.6483 3.55941 14.6483H12.4169C12.6382 14.6483 12.6504 14.6358 12.6504 14.4132V2.80572C12.6504 2.77095 12.6504 2.73645 12.6504 2.70194C12.6475 2.62411 12.6088 2.58623 12.5274 2.58649C11.9872 2.58779 11.4471 2.58701 10.8864 2.58701V2.58727ZM5.79887 2.6114H10.2V1.98875H10.0508C9.6011 1.98875 9.15141 1.98875 8.70172 1.98875C8.43683 1.98875 8.32631 1.88913 8.29363 1.62554C8.27365 1.46598 8.15093 1.34846 8.0028 1.34664C7.84869 1.34483 7.70548 1.46495 7.70522 1.62943C7.70522 1.84554 7.51998 1.99498 7.30309 1.99057C6.8496 1.98174 6.39506 1.98797 5.94208 1.98797H5.7981L5.79887 2.6114Z" fill="#2D3E50"/>
<path d="M6.90409 11.7285C6.69965 11.9483 6.44359 11.9815 6.17247 11.9748C5.96103 11.9693 5.74907 11.9768 5.53737 11.9696C5.27274 11.9607 5.1259 11.7571 5.20711 11.5218C5.25355 11.3869 5.3664 11.3111 5.54438 11.308C5.77346 11.3038 6.0028 11.2992 6.23163 11.308C6.36134 11.3137 6.42984 11.2657 6.47524 11.1479C6.51856 11.0356 6.58109 10.9308 6.63505 10.8226C6.70406 10.6846 6.80498 10.5945 6.96972 10.6036C7.13447 10.6127 7.22527 10.71 7.28313 10.8537C7.46508 11.3058 7.64841 11.7575 7.83313 12.2088C7.85674 12.2656 7.89721 12.3154 7.94469 12.3932C7.99424 12.3027 8.0342 12.242 8.06248 12.1761C8.18675 11.8868 8.30738 11.596 8.42984 11.3059C8.44432 11.2703 8.46104 11.2356 8.47991 11.2021C8.62416 10.9559 8.94119 10.9552 9.07454 11.2068C9.12461 11.3013 9.18221 11.3342 9.2865 11.3326C9.66684 11.3272 10.0474 11.3285 10.428 11.3326C10.6644 11.3345 10.7972 11.465 10.7899 11.6772C10.7837 11.8603 10.6649 11.9885 10.4802 11.9911C10.0093 11.994 9.53816 11.9893 9.06728 11.9851C9.01228 11.9851 8.95727 11.9677 8.88723 11.9561C8.79694 12.1636 8.70796 12.3779 8.613 12.5886C8.46201 12.923 8.19946 13.0815 7.85026 13.046C7.54645 13.0146 7.36199 12.8254 7.24836 12.5587C7.13706 12.297 7.03355 12.0321 6.92666 11.7685C6.92147 11.7592 6.91706 11.7522 6.90409 11.7285Z" fill="#2D3E50"/>
<path d="M7.99814 6.0505C9.09634 6.0505 10.1945 6.0492 11.293 6.0531C11.387 6.052 11.48 6.07241 11.5649 6.11277C11.6866 6.17581 11.7379 6.33043 11.7081 6.45989C11.6935 6.5303 11.6571 6.59432 11.6041 6.64285C11.551 6.69138 11.484 6.72196 11.4126 6.73023C11.3739 6.73395 11.335 6.73507 11.2961 6.7336C9.09107 6.7336 6.88585 6.7336 4.68046 6.7336C4.56086 6.7336 4.44696 6.72296 4.3585 6.62982C4.26276 6.52994 4.23345 6.41423 4.27599 6.284C4.29266 6.22528 4.32608 6.17268 4.37215 6.13265C4.41822 6.09261 4.47496 6.06686 4.53543 6.05854C4.587 6.05146 4.63907 6.04868 4.69109 6.05024L7.99814 6.0505Z" fill="#2D3E50"/>
<path d="M7.98801 5.01298H4.70665C4.41348 5.01298 4.25419 4.88949 4.25756 4.66559C4.26067 4.4487 4.42075 4.32832 4.70405 4.32832C6.90062 4.32832 9.09719 4.32832 11.2938 4.32832C11.5273 4.32832 11.6598 4.41264 11.7034 4.58776C11.716 4.63371 11.7186 4.68182 11.7111 4.72886C11.7036 4.77591 11.686 4.82079 11.6597 4.8605C11.6334 4.90022 11.5989 4.93384 11.5585 4.95911C11.5181 4.98438 11.4728 5.00071 11.4256 5.00701C11.3698 5.01359 11.3136 5.01602 11.2574 5.01428L7.98801 5.01298Z" fill="#2D3E50"/>
<path d="M7.98512 7.77163H11.28C11.3275 7.77011 11.375 7.77132 11.4224 7.77526C11.5024 7.78589 11.576 7.82465 11.63 7.8846C11.684 7.94455 11.7149 8.02176 11.7171 8.10241C11.7175 8.18518 11.6884 8.26537 11.6351 8.32867C11.5817 8.39197 11.5077 8.43426 11.426 8.44798C11.4045 8.4501 11.3828 8.4508 11.3612 8.45006H4.61658C4.45547 8.45006 4.32912 8.36652 4.27931 8.23343C4.22742 8.09385 4.26167 7.92781 4.3862 7.85076C4.47061 7.80143 4.56655 7.77529 4.66432 7.775C5.7716 7.76981 6.87836 7.77163 7.98512 7.77163Z" fill="#2D3E50"/>
</svg>
