<svg width="16" height="16" viewBox="0 0 16 16" fill="none" xmlns="http://www.w3.org/2000/svg">
<path d="M11.3955 6.15131H4.58262C4.44889 6.15131 4.33948 6.2609 4.33948 6.39485C4.33948 6.5288 4.44889 6.6384 4.58262 6.6384H11.3955C11.5292 6.6384 11.6386 6.5288 11.6386 6.39485C11.6386 6.2609 11.5292 6.15131 11.3955 6.15131Z" fill="#2D3E50"/>
<path d="M11.3955 6.71147H4.5826C4.40753 6.71147 4.26651 6.57021 4.26651 6.39486C4.26651 6.2195 4.40753 6.07825 4.5826 6.07825H11.3955C11.5705 6.07825 11.7115 6.2195 11.7115 6.39486C11.7115 6.57021 11.5705 6.71147 11.3955 6.71147ZM4.5826 6.22437C4.4902 6.22437 4.4124 6.29987 4.4124 6.39486C4.4124 6.4874 4.48777 6.56534 4.5826 6.56534H11.3955C11.4903 6.56534 11.5657 6.48984 11.5657 6.39486C11.5657 6.29987 11.4903 6.22437 11.3955 6.22437H4.5826Z" fill="#2D3E50"/>
<path d="M4.33948 4.66566C4.33948 4.79961 4.44889 4.90921 4.58262 4.90921H11.3955C11.5292 4.90921 11.6386 4.79961 11.6386 4.66566C11.6386 4.53171 11.5292 4.42212 11.3955 4.42212H4.58262C4.44889 4.42455 4.33948 4.53171 4.33948 4.66566Z" fill="#2D3E50"/>
<path d="M11.3955 4.98228H4.5826C4.40753 4.98228 4.26651 4.84102 4.26651 4.66567C4.26651 4.49032 4.40753 4.34906 4.5826 4.34906H11.3955C11.5705 4.34906 11.7115 4.49032 11.7115 4.66567C11.7115 4.84102 11.5705 4.98228 11.3955 4.98228ZM4.5826 4.49762C4.4902 4.49762 4.4124 4.57312 4.4124 4.6681C4.4124 4.76309 4.48777 4.83859 4.5826 4.83859H11.3955C11.4903 4.83859 11.5657 4.76309 11.5657 4.6681C11.5657 4.57312 11.4903 4.49762 11.3955 4.49762H4.5826Z" fill="#2D3E50"/>
<path d="M10.5615 1.3827H8.84978C8.74279 1.01251 8.40239 0.742172 8.00121 0.742172C7.60002 0.742172 7.25962 1.01251 7.15264 1.3827H5.44092C5.30719 1.3827 5.19777 1.49229 5.19777 1.62624V1.98425H3.41068C3.0411 1.98425 2.74203 2.28625 2.74203 2.65644V14.6121C2.74203 14.9823 3.04353 15.2843 3.41311 15.2843H12.5674C12.9516 15.2843 13.2628 14.9725 13.2628 14.5877V2.65644C13.2628 2.28625 12.9613 1.98425 12.5917 1.98425H10.8046V1.62381C10.8046 1.48986 10.6952 1.3827 10.5615 1.3827ZM5.68163 1.86735H7.35931C7.49304 1.86735 7.60245 1.75776 7.60245 1.62381C7.60245 1.40462 7.77995 1.22683 7.99878 1.22683C8.21761 1.22683 8.3951 1.40462 8.3951 1.62381C8.3951 1.75776 8.50451 1.86735 8.63824 1.86735H10.3159V2.70515H5.68163V1.86735ZM12.5917 2.46891C12.6939 2.46891 12.7765 2.55171 12.7765 2.654V14.5853C12.7765 14.7022 12.6817 14.7947 12.5674 14.7947H3.41068C3.30856 14.7947 3.22589 14.7119 3.22589 14.6096V2.65644C3.22589 2.55415 3.30856 2.47134 3.41068 2.47134H5.19534V2.95113C5.19534 3.08508 5.30476 3.19467 5.43849 3.19467H10.5591C10.6928 3.19467 10.8022 3.08508 10.8022 2.95113V2.46891H12.5917Z" fill="#2D3E50"/>
<path d="M12.565 15.3549H3.41067C2.99976 15.3549 2.66666 15.0212 2.66666 14.6096V2.65644C2.66666 2.24484 2.99976 1.91119 3.41067 1.91119H5.1224V1.6238C5.1224 1.44845 5.26342 1.3072 5.43848 1.3072H7.09671C7.23044 0.927265 7.59273 0.666672 7.99877 0.666672C8.40482 0.666672 8.7671 0.927265 8.90083 1.3072H10.5591C10.7341 1.3072 10.8752 1.44845 10.8752 1.6238V1.90875H12.5893C13.0002 1.90875 13.3333 2.24241 13.3333 2.654V14.5853C13.3333 15.0115 12.9905 15.3549 12.565 15.3549ZM3.41067 2.05731C3.08243 2.05731 2.81254 2.32521 2.81254 2.65644V14.6121C2.81254 14.9433 3.08 15.2112 3.41067 15.2112H12.565C12.9078 15.2112 13.1874 14.9311 13.1874 14.5877V2.65644C13.1874 2.32521 12.92 2.05731 12.5893 2.05731H10.7293V1.6238C10.7293 1.53126 10.6539 1.45332 10.5591 1.45332H8.79142L8.77683 1.39974C8.67714 1.05391 8.35862 0.812799 7.99877 0.812799C7.63892 0.812799 7.32041 1.05391 7.22072 1.39974L7.20613 1.45332H5.43848C5.34609 1.45332 5.26828 1.52882 5.26828 1.6238V2.05488H3.41067V2.05731ZM12.565 14.8702H3.41067C3.26965 14.8702 3.15294 14.7533 3.15294 14.6121V2.65644C3.15294 2.51274 3.26965 2.39828 3.41067 2.39828H5.26828V2.95113C5.26828 3.04367 5.34366 3.12161 5.43848 3.12161H10.5591C10.6515 3.12161 10.7293 3.04611 10.7293 2.95113V2.39584H12.5893C12.7328 2.39584 12.847 2.51274 12.847 2.654V14.5853C12.8495 14.7436 12.723 14.8702 12.565 14.8702ZM3.41067 2.54197C3.34989 2.54197 3.29883 2.59311 3.29883 2.654V14.6096C3.29883 14.6705 3.34989 14.7217 3.41067 14.7217H12.565C12.6404 14.7217 12.7012 14.6608 12.7012 14.5853V2.65644C12.7012 2.59555 12.6501 2.5444 12.5893 2.5444H10.8752V2.95113C10.8752 3.12648 10.7341 3.26773 10.5591 3.26773H5.44091C5.26585 3.26773 5.12483 3.12648 5.12483 2.95113V2.54197H3.41067ZM10.3913 2.77821H5.60868V1.79429H7.35931C7.45413 1.79429 7.52951 1.71879 7.52951 1.6238C7.52951 1.36321 7.74104 1.15376 7.99877 1.15376C8.25894 1.15376 8.46804 1.36565 8.46804 1.6238C8.46804 1.71635 8.54341 1.79429 8.63824 1.79429H10.3889V2.77821H10.3913ZM5.75457 2.63208H10.2454V1.94041H8.64067C8.46561 1.94041 8.32459 1.79916 8.32459 1.6238C8.32459 1.44602 8.1787 1.29989 8.00121 1.29989C7.82371 1.29989 7.67783 1.44602 7.67783 1.6238C7.67783 1.79916 7.5368 1.94041 7.36174 1.94041H5.757V2.63208H5.75457Z" fill="#2D3E50"/>
<path d="M11.3955 7.88045H4.58262C4.44889 7.88045 4.33948 7.99004 4.33948 8.12399C4.33948 8.25794 4.44889 8.36754 4.58262 8.36754H11.3955C11.5292 8.36754 11.6386 8.25794 11.6386 8.12399C11.6386 7.99004 11.5292 7.88045 11.3955 7.88045Z" fill="#2D3E50"/>
<path d="M11.3955 8.4406H4.5826C4.40753 8.4406 4.26651 8.29935 4.26651 8.124C4.26651 7.94864 4.40753 7.80739 4.5826 7.80739H11.3955C11.5705 7.80739 11.7115 7.94864 11.7115 8.124C11.7115 8.29935 11.5705 8.4406 11.3955 8.4406ZM4.5826 7.95352C4.4902 7.95352 4.4124 8.02901 4.4124 8.124C4.4124 8.21654 4.48777 8.29448 4.5826 8.29448H11.3955C11.4903 8.29448 11.5657 8.21898 11.5657 8.124C11.5657 8.02901 11.4903 7.95352 11.3955 7.95352H4.5826Z" fill="#2D3E50"/>
<path d="M6.91435 11.7041C6.71011 11.9574 6.45238 11.9915 6.1752 11.9794C5.95637 11.9696 5.73754 11.9794 5.51871 11.9769C5.32663 11.9745 5.2002 11.8503 5.2002 11.6701C5.2002 11.4923 5.32906 11.3656 5.52114 11.3656C5.77644 11.3632 6.03174 11.3632 6.28704 11.3656C6.36971 11.3656 6.42077 11.3413 6.45724 11.2609C6.51803 11.1245 6.59097 10.993 6.65662 10.8566C6.7174 10.7275 6.81223 10.6496 6.96055 10.6569C7.10643 10.6618 7.1964 10.7446 7.24989 10.8761C7.44197 11.3559 7.63648 11.8381 7.83343 12.3154C7.85288 12.3642 7.90394 12.4007 7.94284 12.4421C7.97688 12.4031 8.02551 12.369 8.04496 12.3228C8.19085 11.9891 8.33187 11.653 8.47046 11.3169C8.52638 11.1805 8.60905 11.0807 8.77196 11.0758C8.93243 11.0709 9.02969 11.161 9.08561 11.2974C9.11965 11.3802 9.17801 11.3875 9.25095 11.3875C9.65213 11.3875 10.0533 11.3851 10.4545 11.3875C10.6733 11.39 10.8046 11.5337 10.7803 11.7334C10.7633 11.8795 10.6563 11.9964 10.5104 11.9988C10.0363 12.0037 9.56217 12.0013 9.08804 11.9964C9.0224 11.9964 8.95675 11.9672 8.87894 11.9501C8.78898 12.162 8.69902 12.3715 8.60905 12.5833C8.47776 12.8975 8.23705 13.068 7.93312 13.0656C7.62919 13.0631 7.39334 12.8878 7.26448 12.5736C7.1502 12.296 7.03835 12.0135 6.91435 11.7041Z" fill="#2D3E50"/>
</svg>
