<svg width="12" height="12" viewBox="0 0 12 12" fill="none" xmlns="http://www.w3.org/2000/svg">
<path d="M8.54664 4.61348H3.437C3.3367 4.61348 3.25464 4.69568 3.25464 4.79614C3.25464 4.8966 3.3367 4.9788 3.437 4.9788H8.54664C8.64693 4.9788 8.729 4.8966 8.729 4.79614C8.729 4.69568 8.64693 4.61348 8.54664 4.61348Z" fill="#2D3E50"/>
<path d="M8.5466 5.0336H3.43695C3.30566 5.0336 3.19989 4.92766 3.19989 4.79614C3.19989 4.66463 3.30566 4.55869 3.43695 4.55869H8.5466C8.67789 4.55869 8.78366 4.66463 8.78366 4.79614C8.78366 4.92766 8.67789 5.0336 8.5466 5.0336ZM3.43695 4.66828C3.36766 4.66828 3.3093 4.72491 3.3093 4.79614C3.3093 4.86555 3.36583 4.924 3.43695 4.924H8.5466C8.61772 4.924 8.67425 4.86738 8.67425 4.79614C8.67425 4.72491 8.61772 4.66828 8.5466 4.66828H3.43695Z" fill="#2D3E50"/>
<path d="M3.25464 3.49925C3.25464 3.59971 3.3367 3.68191 3.437 3.68191H8.54664C8.64693 3.68191 8.729 3.59971 8.729 3.49925C8.729 3.39879 8.64693 3.31659 8.54664 3.31659H3.437C3.3367 3.31842 3.25464 3.39879 3.25464 3.49925Z" fill="#2D3E50"/>
<path d="M8.5466 3.73671H3.43695C3.30566 3.73671 3.19989 3.63077 3.19989 3.49925C3.19989 3.36774 3.30566 3.2618 3.43695 3.2618H8.5466C8.67789 3.2618 8.78366 3.36774 8.78366 3.49925C8.78366 3.63077 8.67789 3.73671 8.5466 3.73671ZM3.43695 3.37322C3.36766 3.37322 3.3093 3.42984 3.3093 3.50108C3.3093 3.57232 3.36583 3.62894 3.43695 3.62894H8.5466C8.61772 3.62894 8.67425 3.57232 8.67425 3.50108C8.67425 3.42984 8.61772 3.37322 8.5466 3.37322H3.43695Z" fill="#2D3E50"/>
<path d="M7.92112 1.03702H6.63732C6.55709 0.759377 6.30179 0.556625 6.0009 0.556625C5.70001 0.556625 5.44471 0.759377 5.36447 1.03702H4.08068C3.98038 1.03702 3.89832 1.11921 3.89832 1.21968V1.48819H2.558C2.28082 1.48819 2.05652 1.71468 2.05652 1.99232V10.959C2.05652 11.2367 2.28264 11.4632 2.55982 11.4632H9.42556C9.71369 11.4632 9.9471 11.2294 9.9471 10.9408V1.99232C9.9471 1.71468 9.72098 1.48819 9.4438 1.48819H8.10347V1.21785C8.10347 1.11739 8.02141 1.03702 7.92112 1.03702ZM4.26121 1.40051H5.51948C5.61977 1.40051 5.70183 1.31831 5.70183 1.21785C5.70183 1.05346 5.83495 0.920117 5.99908 0.920117C6.1632 0.920117 6.29632 1.05346 6.29632 1.21785C6.29632 1.31831 6.37838 1.40051 6.47867 1.40051H7.73694V2.02886H4.26121V1.40051ZM9.4438 1.85168C9.52039 1.85168 9.58239 1.91378 9.58239 1.9905V10.939C9.58239 11.0266 9.51127 11.096 9.42556 11.096H2.558C2.48141 11.096 2.41941 11.0339 2.41941 10.9572V1.99232C2.41941 1.91561 2.48141 1.8535 2.558 1.8535H3.8965V2.21334C3.8965 2.3138 3.97856 2.396 4.07886 2.396H7.91929C8.01959 2.396 8.10165 2.3138 8.10165 2.21334V1.85168H9.4438Z" fill="#2D3E50"/>
<path d="M9.42375 11.5162H2.55801C2.24983 11.5162 2 11.2659 2 10.9572V1.99232C2 1.68363 2.24983 1.43339 2.55801 1.43339H3.84181V1.21785C3.84181 1.08634 3.94757 0.980393 4.07887 0.980393H5.32254C5.42284 0.695445 5.69455 0.5 5.99909 0.5C6.30362 0.5 6.57534 0.695445 6.67563 0.980393H7.91931C8.0506 0.980393 8.15637 1.08634 8.15637 1.21785V1.43156H9.44199C9.75017 1.43156 10 1.6818 10 1.9905V10.939C10 11.2586 9.74288 11.5162 9.42375 11.5162ZM2.55801 1.54298C2.31183 1.54298 2.10941 1.74391 2.10941 1.99232V10.959C2.10941 11.2075 2.31001 11.4084 2.55801 11.4084H9.42375C9.68088 11.4084 9.89059 11.1983 9.89059 10.9408V1.99232C9.89059 1.74391 9.68999 1.54298 9.44199 1.54298H8.04696V1.21785C8.04696 1.14844 7.99043 1.08999 7.91931 1.08999H6.59357L6.58263 1.0498C6.50786 0.790428 6.26898 0.609595 5.99909 0.609595C5.7292 0.609595 5.49031 0.790428 5.41555 1.0498L5.4046 1.08999H4.07887C4.00957 1.08999 3.95122 1.14661 3.95122 1.21785V1.54116H2.55801V1.54298ZM9.42375 11.1527H2.55801C2.45225 11.1527 2.36471 11.065 2.36471 10.959V1.99232C2.36471 1.88455 2.45225 1.7987 2.55801 1.7987H3.95122V2.21334C3.95122 2.28275 4.00775 2.3412 4.07887 2.3412H7.91931C7.9886 2.3412 8.04696 2.28458 8.04696 2.21334V1.79688H9.44199C9.54958 1.79688 9.63529 1.88455 9.63529 1.9905V10.939C9.63711 11.0577 9.54228 11.1527 9.42375 11.1527ZM2.55801 1.90647C2.51242 1.90647 2.47413 1.94483 2.47413 1.9905V10.9572C2.47413 11.0029 2.51242 11.0412 2.55801 11.0412H9.42375C9.48028 11.0412 9.52587 10.9956 9.52587 10.939V1.99232C9.52587 1.94666 9.48758 1.9083 9.44199 1.9083H8.15637V2.21334C8.15637 2.34485 8.0506 2.4508 7.91931 2.4508H4.08069C3.9494 2.4508 3.84363 2.34485 3.84363 2.21334V1.90647H2.55801ZM7.79348 2.08365H4.20652V1.34571H5.51949C5.59061 1.34571 5.64714 1.28909 5.64714 1.21785C5.64714 1.0224 5.80579 0.865318 5.99909 0.865318C6.19421 0.865318 6.35104 1.02423 6.35104 1.21785C6.35104 1.28726 6.40757 1.34571 6.47869 1.34571H7.79166V2.08365H7.79348ZM4.31593 1.97406H7.68407V1.45531H6.48051C6.34921 1.45531 6.24345 1.34936 6.24345 1.21785C6.24345 1.08451 6.13403 0.974913 6.00091 0.974913C5.86779 0.974913 5.75838 1.08451 5.75838 1.21785C5.75838 1.34936 5.65261 1.45531 5.52131 1.45531H4.31776V1.97406H4.31593Z" fill="#2D3E50"/>
<path d="M8.54664 5.91034H3.437C3.3367 5.91034 3.25464 5.99254 3.25464 6.093C3.25464 6.19346 3.3367 6.27566 3.437 6.27566H8.54664C8.64693 6.27566 8.729 6.19346 8.729 6.093C8.729 5.99254 8.64693 5.91034 8.54664 5.91034Z" fill="#2D3E50"/>
<path d="M8.5466 6.33046H3.43695C3.30566 6.33046 3.19989 6.22452 3.19989 6.093C3.19989 5.96149 3.30566 5.85555 3.43695 5.85555H8.5466C8.67789 5.85555 8.78366 5.96149 8.78366 6.093C8.78366 6.22452 8.67789 6.33046 8.5466 6.33046ZM3.43695 5.96514C3.36766 5.96514 3.3093 6.02176 3.3093 6.093C3.3093 6.16241 3.36583 6.22086 3.43695 6.22086H8.5466C8.61772 6.22086 8.67425 6.16424 8.67425 6.093C8.67425 6.02176 8.61772 5.96514 8.5466 5.96514H3.43695Z" fill="#2D3E50"/>
<path d="M5.18576 8.7781C5.03258 8.96806 4.83928 8.99363 4.6314 8.9845C4.46728 8.9772 4.30316 8.9845 4.13903 8.98268C3.99497 8.98085 3.90015 8.88769 3.90015 8.75252C3.90015 8.61918 3.9968 8.5242 4.14086 8.5242C4.33233 8.52237 4.52381 8.52237 4.71528 8.5242C4.77728 8.5242 4.81558 8.50594 4.84293 8.44566C4.88852 8.34337 4.94323 8.24473 4.99246 8.14244C5.03805 8.04564 5.10917 7.98718 5.22041 7.99266C5.32982 7.99632 5.3973 8.05842 5.43741 8.15706C5.58148 8.51689 5.72736 8.87856 5.87507 9.23657C5.88966 9.2731 5.92795 9.3005 5.95713 9.33155C5.98266 9.30233 6.01913 9.27676 6.03372 9.24205C6.14314 8.99181 6.2489 8.73974 6.35285 8.48767C6.39479 8.38538 6.45679 8.31049 6.57897 8.30684C6.69932 8.30318 6.77227 8.37077 6.81421 8.47306C6.83974 8.53516 6.8835 8.54064 6.93821 8.54064C7.2391 8.54064 7.53999 8.53881 7.84088 8.54064C8.005 8.54247 8.10347 8.65024 8.08524 8.80002C8.07247 8.90961 7.99223 8.99729 7.88282 8.99911C7.52722 9.00277 7.17163 9.00094 6.81603 8.99729C6.7668 8.99729 6.71756 8.97537 6.65921 8.96258C6.59173 9.1215 6.52426 9.27858 6.45679 9.4375C6.35832 9.67313 6.17778 9.80099 5.94984 9.79916C5.72189 9.79733 5.54501 9.66582 5.44836 9.43019C5.36265 9.22196 5.27876 9.01007 5.18576 8.7781Z" fill="#2D3E50"/>
</svg>
