<svg width="24" height="24" viewBox="0 0 24 24" fill="none" xmlns="http://www.w3.org/2000/svg">
<path d="M17.0932 9.22697H6.87396C6.67337 9.22697 6.50925 9.39137 6.50925 9.59229C6.50925 9.79322 6.67337 9.95761 6.87396 9.95761H17.0932C17.2938 9.95761 17.458 9.79322 17.458 9.59229C17.458 9.39137 17.2938 9.22697 17.0932 9.22697Z" fill="#2D3E50"/>
<path d="M17.0932 10.0672H6.87394C6.61134 10.0672 6.39981 9.85531 6.39981 9.59228C6.39981 9.32926 6.61134 9.11737 6.87394 9.11737H17.0932C17.3558 9.11737 17.5673 9.32926 17.5673 9.59228C17.5673 9.85531 17.3558 10.0672 17.0932 10.0672ZM6.87394 9.33656C6.73535 9.33656 6.61864 9.44981 6.61864 9.59228C6.61864 9.73111 6.7317 9.84801 6.87394 9.84801H17.0932C17.2355 9.84801 17.3485 9.73476 17.3485 9.59228C17.3485 9.44981 17.2355 9.33656 17.0932 9.33656H6.87394Z" fill="#2D3E50"/>
<path d="M6.50925 6.99851C6.50925 7.19944 6.67337 7.36383 6.87396 7.36383H17.0932C17.2938 7.36383 17.458 7.19944 17.458 6.99851C17.458 6.79759 17.2938 6.63319 17.0932 6.63319H6.87396C6.67337 6.63685 6.50925 6.79759 6.50925 6.99851Z" fill="#2D3E50"/>
<path d="M17.0932 7.47342H6.87394C6.61134 7.47342 6.39981 7.26153 6.39981 6.9985C6.39981 6.73547 6.61134 6.52359 6.87394 6.52359H17.0932C17.3558 6.52359 17.5673 6.73547 17.5673 6.9985C17.5673 7.26153 17.3558 7.47342 17.0932 7.47342ZM6.87394 6.74643C6.73535 6.74643 6.61864 6.85968 6.61864 7.00216C6.61864 7.14463 6.7317 7.25788 6.87394 7.25788H17.0932C17.2355 7.25788 17.3485 7.14463 17.3485 7.00216C17.3485 6.85968 17.2355 6.74643 17.0932 6.74643H6.87394Z" fill="#2D3E50"/>
<path d="M15.8423 2.07404H13.2747C13.1142 1.51875 12.6036 1.11325 12.0018 1.11325C11.4 1.11325 10.8895 1.51875 10.729 2.07404H8.16139C7.9608 2.07404 7.79668 2.23843 7.79668 2.43935V2.97637H5.11603C4.56167 2.97637 4.11307 3.42937 4.11307 3.98465V21.9181C4.11307 22.4734 4.56531 22.9264 5.11968 22.9264H18.8512C19.4274 22.9264 19.8942 22.4588 19.8942 21.8816V3.98465C19.8942 3.42937 19.442 2.97637 18.8876 2.97637H16.207V2.4357C16.207 2.23478 16.0429 2.07404 15.8423 2.07404ZM8.52246 2.80102H11.039C11.2396 2.80102 11.4037 2.63663 11.4037 2.4357C11.4037 2.10692 11.6699 1.84023 11.9982 1.84023C12.3264 1.84023 12.5927 2.10692 12.5927 2.4357C12.5927 2.63663 12.7568 2.80102 12.9574 2.80102H15.4739V4.05771H8.52246V2.80102ZM18.8876 3.70335C19.0408 3.70335 19.1648 3.82756 19.1648 3.981V21.8779C19.1648 22.0533 19.0226 22.1921 18.8512 22.1921H5.11603C4.96285 22.1921 4.83885 22.0679 4.83885 21.9144V3.98465C4.83885 3.83122 4.96285 3.70701 5.11603 3.70701H7.79303V4.42668C7.79303 4.62761 7.95715 4.792 8.15774 4.792H15.8386C16.0392 4.792 16.2033 4.62761 16.2033 4.42668V3.70335H18.8876Z" fill="#2D3E50"/>
<path d="M18.8475 23.0323H5.11602C4.49966 23.0323 4 22.5318 4 21.9144V3.98465C4 3.36726 4.49966 2.86677 5.11602 2.86677H7.68361V2.4357C7.68361 2.17267 7.89514 1.96079 8.15774 1.96079H10.6451C10.8457 1.39089 11.3891 1 11.9982 1C12.6072 1 13.1507 1.39089 13.3513 1.96079H15.8386C16.1012 1.96079 16.3127 2.17267 16.3127 2.4357V2.86312H18.884C19.5003 2.86312 20 3.36361 20 3.98099V21.8779C20 22.5172 19.4858 23.0323 18.8475 23.0323ZM5.11602 3.08596C4.62366 3.08596 4.21883 3.48781 4.21883 3.98465V21.9181C4.21883 22.4149 4.62001 22.8168 5.11602 22.8168H18.8475C19.3618 22.8168 19.7812 22.3967 19.7812 21.8816V3.98465C19.7812 3.48781 19.38 3.08596 18.884 3.08596H16.0939V2.4357C16.0939 2.29688 15.9809 2.17998 15.8386 2.17998H13.1871L13.1653 2.09961C13.0157 1.58086 12.538 1.21919 11.9982 1.21919C11.4584 1.21919 10.9806 1.58086 10.8311 2.09961L10.8092 2.17998H8.15774C8.01915 2.17998 7.90244 2.29322 7.90244 2.4357V3.08231H5.11602V3.08596ZM18.8475 22.3053H5.11602C4.90449 22.3053 4.72943 22.13 4.72943 21.9181V3.98465C4.72943 3.76911 4.90449 3.59741 5.11602 3.59741H7.90244V4.42668C7.90244 4.5655 8.0155 4.6824 8.15774 4.6824H15.8386C15.9772 4.6824 16.0939 4.56915 16.0939 4.42668V3.59376H18.884C19.0992 3.59376 19.2706 3.76911 19.2706 3.98099V21.8779C19.2742 22.1154 19.0846 22.3053 18.8475 22.3053ZM5.11602 3.81295C5.02485 3.81295 4.94826 3.88966 4.94826 3.98099V21.9144C4.94826 22.0058 5.02485 22.0825 5.11602 22.0825H18.8475C18.9606 22.0825 19.0517 21.9912 19.0517 21.8779V3.98465C19.0517 3.89332 18.9752 3.8166 18.884 3.8166H16.3127V4.42668C16.3127 4.68971 16.1012 4.90159 15.8386 4.90159H8.16139C7.89879 4.90159 7.68726 4.68971 7.68726 4.42668V3.81295H5.11602ZM15.587 4.1673H8.41304V2.69142H11.039C11.1812 2.69142 11.2943 2.57817 11.2943 2.4357C11.2943 2.04481 11.6116 1.73064 11.9982 1.73064C12.3884 1.73064 12.7021 2.04846 12.7021 2.4357C12.7021 2.57452 12.8151 2.69142 12.9574 2.69142H15.5833V4.1673H15.587ZM8.63187 3.94811H15.3681V2.91061H12.961C12.6984 2.91061 12.4869 2.69873 12.4869 2.4357C12.4869 2.16902 12.2681 1.94983 12.0018 1.94983C11.7356 1.94983 11.5168 2.16902 11.5168 2.4357C11.5168 2.69873 11.3052 2.91061 11.0426 2.91061H8.63551V3.94811H8.63187Z" fill="#2D3E50"/>
<path d="M17.0932 11.8207H6.87396C6.67337 11.8207 6.50925 11.9851 6.50925 12.186C6.50925 12.3869 6.67337 12.5513 6.87396 12.5513H17.0932C17.2938 12.5513 17.458 12.3869 17.458 12.186C17.458 11.9851 17.2938 11.8207 17.0932 11.8207Z" fill="#2D3E50"/>
<path d="M17.0932 12.6609H6.87394C6.61134 12.6609 6.39981 12.449 6.39981 12.186C6.39981 11.923 6.61134 11.7111 6.87394 11.7111H17.0932C17.3558 11.7111 17.5673 11.923 17.5673 12.186C17.5673 12.449 17.3558 12.6609 17.0932 12.6609ZM6.87394 11.9303C6.73535 11.9303 6.61864 12.0435 6.61864 12.186C6.61864 12.3248 6.7317 12.4417 6.87394 12.4417H17.0932C17.2355 12.4417 17.3485 12.3285 17.3485 12.186C17.3485 12.0435 17.2355 11.9303 17.0932 11.9303H6.87394Z" fill="#2D3E50"/>
<path d="M10.3716 17.5562C10.0652 17.9361 9.6786 17.9873 9.26283 17.969C8.93458 17.9544 8.60634 17.969 8.2781 17.9654C7.98997 17.9617 7.80032 17.7754 7.80032 17.5051C7.80032 17.2384 7.99362 17.0484 8.28175 17.0484C8.6647 17.0448 9.04764 17.0448 9.43059 17.0484C9.5546 17.0484 9.63119 17.0119 9.68589 16.8913C9.77707 16.6868 9.88649 16.4895 9.98496 16.2849C10.0761 16.0913 10.2184 15.9744 10.4409 15.9853C10.6597 15.9926 10.7946 16.1169 10.8749 16.3141C11.163 17.0338 11.4548 17.7571 11.7502 18.4732C11.7794 18.5462 11.8559 18.601 11.9143 18.6631C11.9654 18.6047 12.0383 18.5535 12.0675 18.4841C12.2863 17.9836 12.4978 17.4795 12.7057 16.9754C12.7896 16.7708 12.9136 16.621 13.158 16.6137C13.3987 16.6064 13.5446 16.7416 13.6285 16.9461C13.6795 17.0703 13.767 17.0813 13.8765 17.0813C14.4782 17.0813 15.08 17.0776 15.6818 17.0813C16.01 17.0849 16.207 17.3005 16.1705 17.6C16.145 17.8192 15.9845 17.9946 15.7657 17.9982C15.0545 18.0056 14.3433 18.0019 13.6321 17.9946C13.5336 17.9946 13.4352 17.9508 13.3184 17.9252C13.1835 18.243 13.0486 18.5572 12.9136 18.875C12.7167 19.3463 12.3556 19.602 11.8997 19.5983C11.4438 19.5947 11.09 19.3317 10.8967 18.8604C10.7253 18.4439 10.5576 18.0202 10.3716 17.5562Z" fill="#2D3E50"/>
</svg>
