<svg width="24" height="24" viewBox="0 0 24 24" fill="none" xmlns="http://www.w3.org/2000/svg">
<path d="M4 22.0545V3.80309C4.0115 3.7878 4.02117 3.77122 4.0288 3.75367C4.21598 3.14542 4.5958 2.86328 5.23168 2.86289C5.84058 2.86289 6.45026 2.86289 7.06071 2.86289H7.66196V2.61655C7.66196 2.13361 7.8363 1.95499 8.31418 1.95499C8.9882 1.95499 9.66261 1.94682 10.3378 1.95966C10.5351 1.96316 10.6647 1.9293 10.7398 1.72617C10.7787 1.62226 10.8729 1.53704 10.9488 1.44948C11.1609 1.20509 11.4547 1.10157 11.7469 1H12.2528C12.2861 1.01628 12.3202 1.03058 12.3552 1.04281C12.7762 1.15955 13.1 1.40589 13.295 1.7966C13.3592 1.92425 13.4312 1.95655 13.5616 1.95577C14.288 1.95084 15.0136 1.95084 15.7385 1.95577C16.1401 1.9581 16.3289 2.1554 16.3324 2.55818C16.3324 2.65236 16.3324 2.74653 16.3324 2.85744H16.5697C17.3146 2.85744 18.0598 2.85744 18.8051 2.85744C19.2331 2.85744 19.5736 3.02283 19.8044 3.38397C19.8861 3.51239 19.9324 3.66338 19.9947 3.80387V22.0164C19.7359 22.8367 19.2 23.0072 18.5272 22.9998C16.6269 22.9784 14.7267 22.9924 12.8264 22.9924C10.284 22.9924 7.74148 22.9924 5.19899 22.9924C4.88766 22.9924 4.59113 22.9219 4.38604 22.6904C4.22376 22.5083 4.12609 22.2689 4 22.0545ZM16.3296 3.88092C16.3296 4.06422 16.332 4.22533 16.3296 4.38683C16.3234 4.75847 16.1199 4.96394 15.7459 4.96394C13.2426 4.9655 10.739 4.9655 8.23519 4.96394C7.87366 4.96394 7.66857 4.75419 7.66429 4.39617C7.66196 4.22961 7.66429 4.06305 7.66429 3.87898H5.33169C5.02037 3.87898 5.02037 3.87898 5.02037 4.1903V21.6611C5.02037 21.9681 5.02659 21.9724 5.33909 21.9724H18.6253C18.9572 21.9724 18.9755 21.9537 18.9755 21.6198V4.20859C18.9755 4.15645 18.9755 4.10469 18.9755 4.05293C18.9712 3.93618 18.9132 3.87937 18.791 3.87976C17.9808 3.8817 17.1706 3.88053 16.3296 3.88053V3.88092ZM8.69828 3.91711H15.2999V2.98314H15.0762C14.4016 2.98314 13.7271 2.98314 13.0525 2.98314C12.6552 2.98314 12.4894 2.8337 12.4404 2.43832C12.4104 2.19899 12.2264 2.0227 12.0042 2.01998C11.773 2.01725 11.5582 2.19743 11.5578 2.44416C11.5578 2.76833 11.2799 2.99248 10.9546 2.98586C10.2744 2.97263 9.59256 2.98197 8.9131 2.98197H8.69711L8.69828 3.91711Z" fill="#2D3E50"/>
<path d="M10.3561 17.5928C10.0494 17.9224 9.66532 17.9723 9.25865 17.9621C8.94149 17.954 8.62355 17.9653 8.30599 17.9544C7.90906 17.9411 7.68879 17.6356 7.8106 17.2827C7.88026 17.0803 8.04954 16.9667 8.3165 16.962C8.66013 16.9558 9.00414 16.9488 9.34738 16.962C9.54195 16.9706 9.64469 16.8986 9.71279 16.7219C9.77778 16.5534 9.87157 16.3962 9.95251 16.2339C10.056 16.0269 10.2074 15.8918 10.4545 15.9055C10.7016 15.9191 10.8378 16.065 10.9246 16.2806C11.1976 16.9588 11.4726 17.6363 11.7496 18.3132C11.7851 18.3984 11.8458 18.4731 11.917 18.5899C11.9913 18.454 12.0512 18.363 12.0937 18.2641C12.2801 17.8302 12.461 17.394 12.6447 16.9589C12.6664 16.9055 12.6915 16.8535 12.7198 16.8032C12.9362 16.4339 13.4117 16.4328 13.6117 16.8102C13.6869 16.9519 13.7732 17.0013 13.9297 16.999C14.5002 16.9908 15.0711 16.9928 15.642 16.999C15.9965 17.0017 16.1957 17.1975 16.1848 17.5158C16.1755 17.7905 15.9973 17.9828 15.7202 17.9867C15.0139 17.9909 14.3072 17.9839 13.6009 17.9777C13.5184 17.9777 13.4359 17.9516 13.3308 17.9341C13.1954 18.2454 13.0619 18.5669 12.9194 18.8829C12.693 19.3845 12.2991 19.6223 11.7753 19.569C11.3196 19.5219 11.0429 19.2382 10.8725 18.8381C10.7055 18.4455 10.5503 18.0481 10.3899 17.6528C10.3821 17.6388 10.3755 17.6282 10.3561 17.5928Z" fill="#2D3E50"/>
<path d="M11.9972 9.07576C13.6445 9.07576 15.2918 9.07381 16.9395 9.07965C17.0805 9.07801 17.22 9.10863 17.3473 9.16916C17.5298 9.26372 17.6069 9.49566 17.5621 9.68985C17.5402 9.79546 17.4856 9.89148 17.4061 9.96428C17.3265 10.0371 17.226 10.0829 17.1189 10.0953C17.0608 10.1009 17.0024 10.1026 16.9441 10.1004C13.6366 10.1004 10.3287 10.1004 7.02066 10.1004C6.84125 10.1004 6.67042 10.0845 6.53771 9.94474C6.39411 9.79492 6.35014 9.62136 6.41396 9.426C6.43897 9.33792 6.48908 9.25903 6.55819 9.19898C6.6273 9.13892 6.71241 9.1003 6.80312 9.08782C6.88047 9.07719 6.95857 9.07303 7.03661 9.07537L11.9972 9.07576Z" fill="#2D3E50"/>
<path d="M11.982 7.51951H7.05997C6.62022 7.51951 6.38128 7.33427 6.38634 6.99843C6.39101 6.67309 6.63112 6.49252 7.05608 6.49252C10.3509 6.49252 13.6458 6.49252 16.9406 6.49252C17.2909 6.49252 17.4897 6.619 17.5551 6.88168C17.574 6.9506 17.5779 7.02277 17.5666 7.09333C17.5553 7.1639 17.5291 7.23122 17.4896 7.29079C17.4501 7.35036 17.3983 7.40079 17.3377 7.4387C17.2772 7.4766 17.2092 7.50111 17.1383 7.51056C17.0547 7.52042 16.9704 7.52406 16.8862 7.52145L11.982 7.51951Z" fill="#2D3E50"/>
<path d="M11.9776 11.6574H16.9199C16.9912 11.6552 17.0625 11.657 17.1336 11.6629C17.2535 11.6788 17.3639 11.737 17.4449 11.8269C17.5259 11.9168 17.5723 12.0326 17.5757 12.1536C17.5762 12.2778 17.5325 12.3981 17.4526 12.493C17.3726 12.588 17.2615 12.6514 17.139 12.672C17.1067 12.6752 17.0742 12.6762 17.0417 12.6751H6.92484C6.68318 12.6751 6.49366 12.5498 6.41894 12.3501C6.34111 12.1408 6.39248 11.8917 6.57927 11.7761C6.70588 11.7021 6.8498 11.6629 6.99645 11.6625C8.65736 11.6547 10.3175 11.6574 11.9776 11.6574Z" fill="#2D3E50"/>
</svg>
