<svg width="12" height="12" viewBox="0 0 12 12" fill="none" xmlns="http://www.w3.org/2000/svg">
<path d="M8.53165 11.0253H3.46835C3.07892 11.0253 2.70544 10.8706 2.43007 10.5952C2.1547 10.3198 2 9.94636 2 9.55693V4.99997C2 4.61054 2.1547 4.23706 2.43007 3.96169C2.70544 3.68632 3.07892 3.53162 3.46835 3.53162H4.22785C4.34871 3.53162 4.46461 3.57963 4.55007 3.66509C4.63553 3.75055 4.68354 3.86645 4.68354 3.98731C4.68354 4.10817 4.63553 4.22408 4.55007 4.30954C4.46461 4.395 4.34871 4.44301 4.22785 4.44301H3.46835C3.32064 4.44301 3.17897 4.50169 3.07452 4.60614C2.97007 4.71059 2.91139 4.85226 2.91139 4.99997V9.55693C2.91139 9.70465 2.97007 9.84631 3.07452 9.95076C3.17897 10.0552 3.32064 10.1139 3.46835 10.1139H8.53165C8.60479 10.1139 8.67721 10.0995 8.74479 10.0715C8.81236 10.0435 8.87376 10.0025 8.92548 9.95076C8.9772 9.89904 9.01822 9.83765 9.04621 9.77007C9.0742 9.7025 9.08861 9.63007 9.08861 9.55693V4.99997C9.08861 4.92683 9.0742 4.8544 9.04621 4.78683C9.01822 4.71926 8.9772 4.65786 8.92548 4.60614C8.87376 4.55442 8.81236 4.51339 8.74479 4.4854C8.67721 4.45741 8.60479 4.44301 8.53165 4.44301H7.77215C7.65129 4.44301 7.53539 4.395 7.44993 4.30954C7.36447 4.22408 7.31646 4.10817 7.31646 3.98731C7.31646 3.86645 7.36447 3.75055 7.44993 3.66509C7.53539 3.57963 7.65129 3.53162 7.77215 3.53162H8.53165C8.92108 3.53162 9.29456 3.68632 9.56993 3.96169C9.8453 4.23706 10 4.61054 10 4.99997V9.55693C10 9.94636 9.8453 10.3198 9.56993 10.5952C9.29456 10.8706 8.92108 11.0253 8.53165 11.0253Z" fill="#2D3E50"/>
<path d="M5.99999 9C5.94416 8.99907 5.88908 8.98702 5.83797 8.96456C5.782 8.94181 5.73056 8.90923 5.68607 8.86835L3.66075 6.84304C3.61063 6.80238 3.56961 6.75165 3.54035 6.69413C3.51109 6.6366 3.49424 6.57358 3.49089 6.50913C3.48754 6.44468 3.49776 6.38024 3.5209 6.32C3.54404 6.25975 3.57958 6.20504 3.62522 6.15941C3.67085 6.11377 3.72556 6.07823 3.78581 6.05509C3.84606 6.03195 3.91049 6.02172 3.97494 6.02507C4.03939 6.02842 4.10242 6.04527 4.15994 6.07454C4.21746 6.1038 4.26819 6.14482 4.30885 6.19494L5.55442 7.44557V1.4557C5.55442 1.33484 5.60243 1.21893 5.68789 1.13347C5.77335 1.04801 5.88926 1 6.01012 1C6.13098 1 6.24688 1.04801 6.33234 1.13347C6.4178 1.21893 6.46581 1.33484 6.46581 1.4557V7.44557L7.71138 6.19494C7.79986 6.12316 7.9118 6.08671 8.02557 6.09263C8.13935 6.09854 8.2469 6.1464 8.32746 6.22696C8.40803 6.30752 8.45588 6.41507 8.4618 6.52885C8.46771 6.64263 8.43126 6.75456 8.35948 6.84304L6.33417 8.86835C6.28968 8.90923 6.23824 8.94181 6.18227 8.96456C6.13115 8.98702 6.07607 8.99907 6.02024 9H5.99999Z" fill="#2D3E50"/>
</svg>
