<svg width="16" height="16" viewBox="0 0 16 16" fill="none" xmlns="http://www.w3.org/2000/svg">
<path d="M11.3755 14.7004H4.62446C4.10522 14.7004 3.60724 14.4942 3.24008 14.127C2.87292 13.7598 2.66666 13.2619 2.66666 12.7426V6.66667C2.66666 6.14743 2.87292 5.64945 3.24008 5.28229C3.60724 4.91513 4.10522 4.70886 4.62446 4.70886H5.63712C5.79826 4.70886 5.95281 4.77288 6.06676 4.88682C6.1807 5.00077 6.24472 5.15531 6.24472 5.31646C6.24472 5.4776 6.1807 5.63215 6.06676 5.74609C5.95281 5.86004 5.79826 5.92405 5.63712 5.92405H4.62446C4.42751 5.92405 4.23862 6.00229 4.09935 6.14156C3.96009 6.28083 3.88185 6.46971 3.88185 6.66667V12.7426C3.88185 12.9396 3.96009 13.1285 4.09935 13.2677C4.23862 13.407 4.42751 13.4852 4.62446 13.4852H11.3755C11.473 13.4852 11.5696 13.466 11.6597 13.4287C11.7498 13.3914 11.8317 13.3367 11.9006 13.2677C11.9696 13.1988 12.0243 13.1169 12.0616 13.0268C12.0989 12.9367 12.1181 12.8401 12.1181 12.7426V6.66667C12.1181 6.56915 12.0989 6.47258 12.0616 6.38248C12.0243 6.29238 11.9696 6.21052 11.9006 6.14156C11.8317 6.0726 11.7498 6.0179 11.6597 5.98058C11.5696 5.94326 11.473 5.92405 11.3755 5.92405H10.3629C10.2017 5.92405 10.0472 5.86004 9.93322 5.74609C9.81928 5.63215 9.75526 5.4776 9.75526 5.31646C9.75526 5.15531 9.81928 5.00077 9.93322 4.88682C10.0472 4.77288 10.2017 4.70886 10.3629 4.70886H11.3755C11.8948 4.70886 12.3927 4.91513 12.7599 5.28229C13.1271 5.64945 13.3333 6.14743 13.3333 6.66667V12.7426C13.3333 13.2619 13.1271 13.7598 12.7599 14.127C12.3927 14.4942 11.8948 14.7004 11.3755 14.7004Z" fill="#2D3E50"/>
<path d="M7.99999 12C7.92555 11.9987 7.85211 11.9827 7.78395 11.9527C7.70933 11.9224 7.64074 11.8789 7.58142 11.8245L4.881 9.12403C4.81417 9.06982 4.75948 9.00218 4.72047 8.92548C4.68145 8.84878 4.65898 8.76475 4.65451 8.67882C4.65005 8.59288 4.66368 8.50697 4.69454 8.42664C4.72539 8.34632 4.77278 8.27337 4.83362 8.21252C4.89447 8.15167 4.96742 8.10429 5.04775 8.07343C5.12807 8.04258 5.21399 8.02894 5.29992 8.03341C5.38585 8.03788 5.46989 8.06035 5.54659 8.09936C5.62328 8.13838 5.69093 8.19307 5.74514 8.2599L7.40589 9.92741V1.94091C7.40589 1.77976 7.46991 1.62522 7.58386 1.51127C7.6978 1.39733 7.85235 1.33331 8.01349 1.33331C8.17463 1.33331 8.32918 1.39733 8.44312 1.51127C8.55707 1.62522 8.62109 1.77976 8.62109 1.94091V9.92741L10.2818 8.2599C10.3998 8.1642 10.5491 8.1156 10.7008 8.12348C10.8525 8.13137 10.9959 8.19518 11.1033 8.30259C11.2107 8.41001 11.2745 8.55341 11.2824 8.70511C11.2903 8.85681 11.2417 9.00606 11.146 9.12403L8.44556 11.8245C8.38624 11.8789 8.31765 11.9224 8.24303 11.9527C8.17487 11.9827 8.10143 11.9987 8.02699 12H7.99999Z" fill="#2D3E50"/>
</svg>
