<svg width="24" height="24" viewBox="0 0 24 24" fill="none" xmlns="http://www.w3.org/2000/svg">
<path d="M17.0633 22.0506H6.93671C6.15785 22.0506 5.41088 21.7412 4.86014 21.1905C4.3094 20.6398 4 19.8928 4 19.1139V10C4 9.22114 4.3094 8.47418 4.86014 7.92344C5.41088 7.3727 6.15785 7.06329 6.93671 7.06329H8.4557C8.69741 7.06329 8.92923 7.15932 9.10015 7.33023C9.27107 7.50115 9.36709 7.73297 9.36709 7.97469C9.36709 8.2164 9.27107 8.44822 9.10015 8.61914C8.92923 8.79006 8.69741 8.88608 8.4557 8.88608H6.93671C6.64128 8.88608 6.35795 9.00344 6.14905 9.21234C5.94014 9.42124 5.82279 9.70457 5.82279 10V19.1139C5.82279 19.4094 5.94014 19.6927 6.14905 19.9016C6.35795 20.1105 6.64128 20.2279 6.93671 20.2279H17.0633C17.2096 20.2279 17.3544 20.199 17.4896 20.1431C17.6247 20.0871 17.7475 20.005 17.851 19.9016C17.9544 19.7982 18.0364 19.6754 18.0924 19.5402C18.1484 19.4051 18.1772 19.2602 18.1772 19.1139V10C18.1772 9.85372 18.1484 9.70887 18.0924 9.57372C18.0364 9.43857 17.9544 9.31578 17.851 9.21234C17.7475 9.1089 17.6247 9.02685 17.4896 8.97087C17.3544 8.91489 17.2096 8.88608 17.0633 8.88608H15.5443C15.3026 8.88608 15.0708 8.79006 14.8999 8.61914C14.7289 8.44822 14.6329 8.2164 14.6329 7.97469C14.6329 7.73297 14.7289 7.50115 14.8999 7.33023C15.0708 7.15932 15.3026 7.06329 15.5443 7.06329H17.0633C17.8422 7.06329 18.5891 7.3727 19.1399 7.92344C19.6906 8.47418 20 9.22114 20 10V19.1139C20 19.8928 19.6906 20.6398 19.1399 21.1905C18.5891 21.7412 17.8422 22.0506 17.0633 22.0506Z" fill="#2D3E50"/>
<path d="M12 18C11.8884 17.9981 11.7782 17.974 11.676 17.9291C11.564 17.8836 11.4611 17.8185 11.3722 17.7367L7.32153 13.6861C7.22129 13.6048 7.13925 13.5033 7.08073 13.3883C7.02221 13.2732 6.9885 13.1472 6.9818 13.0183C6.9751 12.8894 6.99556 12.7605 7.04184 12.64C7.08812 12.5195 7.1592 12.4101 7.25047 12.3188C7.34174 12.2275 7.45116 12.1565 7.57165 12.1102C7.69214 12.0639 7.82101 12.0434 7.94991 12.0501C8.07881 12.0568 8.20487 12.0905 8.31991 12.1491C8.43495 12.2076 8.53642 12.2896 8.61773 12.3899L11.1089 14.8911V2.91139C11.1089 2.66968 11.2049 2.43786 11.3758 2.26694C11.5467 2.09602 11.7785 2 12.0203 2C12.262 2 12.4938 2.09602 12.6647 2.26694C12.8356 2.43786 12.9317 2.66968 12.9317 2.91139V14.8911L15.4228 12.3899C15.5998 12.2463 15.8236 12.1734 16.0512 12.1853C16.2787 12.1971 16.4938 12.2928 16.655 12.4539C16.8161 12.615 16.9118 12.8301 16.9236 13.0577C16.9354 13.2853 16.8625 13.5091 16.719 13.6861L12.6684 17.7367C12.5794 17.8185 12.4765 17.8836 12.3646 17.9291C12.2623 17.974 12.1522 17.9981 12.0405 18H12Z" fill="#2D3E50"/>
</svg>
