<svg width="16" height="16" viewBox="0 0 16 16" fill="none" xmlns="http://www.w3.org/2000/svg">
<path d="M4.6 14.2667H2.6C2.26667 14.2667 2 14 2 13.6667V11.6667C2 11.5333 2.06667 11.3333 2.2 11.2667L8.2 5.26667C8.46667 5 8.8 5 9.06667 5.26667L11.0667 7.26667C11.3333 7.53333 11.3333 7.86667 11.0667 8.13333L5.06667 14.1333C4.93333 14.2 4.73333 14.2667 4.6 14.2667ZM3.2 13.0667H4.33333L9.73333 7.66667L8.6 6.53333L3.2 11.9333V13.0667Z" fill="#2D3E50"/>
<path d="M11.9333 6.93333C11.8 6.93333 11.6 6.86667 11.5333 6.73333L9.53334 4.73333C9.26668 4.46667 9.26668 4.13333 9.53334 3.86667L11.2 2.2C11.4667 1.93333 11.8 1.93333 12.0667 2.2L14.0667 4.2C14.3333 4.46667 14.3333 4.8 14.0667 5.06667L12.4 6.73333C12.2667 6.86667 12.0667 6.93333 11.9333 6.93333ZM10.8 4.33333L11.9333 5.46667L12.7333 4.66667L11.6 3.53333L10.8 4.33333Z" fill="#2D3E50"/>
</svg>
