<svg width="24" height="24" viewBox="0 0 24 24" fill="none" xmlns="http://www.w3.org/2000/svg">
<path d="M6.9 21.4H3.9C3.4 21.4 3 21 3 20.5V17.5C3 17.3 3.1 17 3.3 16.9L12.3 7.9C12.7 7.5 13.2 7.5 13.6 7.9L16.6 10.9C17 11.3 17 11.8 16.6 12.2L7.6 21.2C7.4 21.3 7.1 21.4 6.9 21.4ZM4.8 19.6H6.5L14.6 11.5L12.9 9.8L4.8 17.9V19.6Z" fill="#2D3E50"/>
<path d="M17.9 10.4C17.7 10.4 17.4 10.3 17.3 10.1L14.3 7.1C13.9 6.7 13.9 6.2 14.3 5.8L16.8 3.3C17.2 2.9 17.7 2.9 18.1 3.3L21.1 6.3C21.5 6.7 21.5 7.2 21.1 7.6L18.6 10.1C18.4 10.3 18.1 10.4 17.9 10.4ZM16.2 6.5L17.9 8.2L19.1 7L17.4 5.3L16.2 6.5Z" fill="#2D3E50"/>
</svg>
