<svg width="12" height="12" viewBox="0 0 12 12" fill="none" xmlns="http://www.w3.org/2000/svg">
<path d="M3.45 10.7H1.95C1.7 10.7 1.5 10.5 1.5 10.25V8.75C1.5 8.65 1.55 8.5 1.65 8.45L6.15 3.95C6.35 3.75 6.6 3.75 6.8 3.95L8.3 5.45C8.5 5.65 8.5 5.9 8.3 6.1L3.8 10.6C3.7 10.65 3.55 10.7 3.45 10.7ZM2.4 9.8H3.25L7.3 5.75L6.45 4.9L2.4 8.95V9.8Z" fill="#2D3E50"/>
<path d="M8.95 5.2C8.85 5.2 8.7 5.15 8.65 5.05L7.15 3.55C6.95 3.35 6.95 3.1 7.15 2.9L8.4 1.65C8.6 1.45 8.85 1.45 9.05 1.65L10.55 3.15C10.75 3.35 10.75 3.6 10.55 3.8L9.3 5.05C9.2 5.15 9.05 5.2 8.95 5.2ZM8.1 3.25L8.95 4.1L9.55 3.5L8.7 2.65L8.1 3.25Z" fill="#2D3E50"/>
</svg>
