<svg width="16" height="16" viewBox="0 0 16 16" fill="none" xmlns="http://www.w3.org/2000/svg">
<path fill-rule="evenodd" clip-rule="evenodd" d="M12.5 5.89053C12.161 6.22955 11.9914 6.39906 11.7876 6.43666C11.7076 6.45139 11.6256 6.45139 11.5457 6.43666C11.3418 6.39906 11.1723 6.22955 10.8333 5.89053L9.83329 4.89053C9.49429 4.55151 9.32476 4.382 9.28716 4.17812C9.27243 4.09818 9.27243 4.01621 9.28716 3.93627C9.32476 3.73239 9.49429 3.56288 9.83329 3.22386C10.1723 2.88484 10.3418 2.71533 10.5457 2.67773C10.6256 2.66299 10.7076 2.66299 10.7876 2.67773C10.9914 2.71533 11.161 2.88484 11.5 3.22386L12.5 4.22386C12.839 4.56288 13.0085 4.73239 13.0461 4.93627C13.0608 5.01621 13.0608 5.09818 13.0461 5.17812C13.0085 5.382 12.839 5.55151 12.5 5.89053ZM3.99996 13.0572C3.37142 13.0572 3.05715 13.0572 2.86189 12.8619C2.66663 12.6667 2.66663 12.3524 2.66663 11.7239V10.9428C2.66663 10.6703 2.66663 10.5341 2.71737 10.4115C2.76812 10.2891 2.86447 10.1927 3.05715 9.99999L7.39049 5.66667C7.83496 5.22223 8.05716 5.00001 8.33329 5.00001C8.60943 5.00001 8.83163 5.22223 9.27609 5.66667L10.0572 6.44773C10.5016 6.89219 10.7238 7.11439 10.7238 7.39053C10.7238 7.66666 10.5016 7.88886 10.0572 8.33333L5.72382 12.6667C5.53113 12.8593 5.43479 12.9557 5.31227 13.0065C5.18976 13.0572 5.05351 13.0572 4.78101 13.0572H3.99996Z" fill="#2D3E50"/>
</svg>
