<svg width="16" height="16" viewBox="0 0 16 16" fill="none" xmlns="http://www.w3.org/2000/svg">
<path fill-rule="evenodd" clip-rule="evenodd" d="M3 11V9.20711C3 9.0745 3.05268 8.94732 3.14645 8.85355L10.1464 1.85355C10.3417 1.65829 10.6583 1.65829 10.8536 1.85355L12.6464 3.64645C12.8417 3.84171 12.8417 4.15829 12.6464 4.35355L5.64645 11.3536C5.55268 11.4473 5.4255 11.5 5.29289 11.5H3.5C3.22386 11.5 3 11.2761 3 11ZM3 13.25C2.58579 13.25 2.25 13.5858 2.25 14C2.25 14.4142 2.58579 14.75 3 14.75H13C13.4142 14.75 13.75 14.4142 13.75 14C13.75 13.5858 13.4142 13.25 13 13.25H3Z" fill="#2D3E50"/>
</svg>
