<svg width="24" height="24" viewBox="0 0 24 24" fill="none" xmlns="http://www.w3.org/2000/svg">
<path fill-rule="evenodd" clip-rule="evenodd" d="M4.5 16.5V13.8107C4.5 13.6117 4.57902 13.421 4.71968 13.2803L15.2196 2.78032C15.5126 2.48743 15.9874 2.48743 16.2804 2.78032L18.9696 5.46967C19.2626 5.76256 19.2626 6.23743 18.9696 6.53032L8.46968 17.0304C8.32902 17.1709 8.13825 17.25 7.93933 17.25H5.25C4.83579 17.25 4.5 16.9141 4.5 16.5ZM4.5 19.875C3.87868 19.875 3.375 20.3787 3.375 21C3.375 21.6213 3.87868 22.125 4.5 22.125H19.5C20.1213 22.125 20.625 21.6213 20.625 21C20.625 20.3787 20.1213 19.875 19.5 19.875H4.5Z" fill="#2D3E50"/>
</svg>
