<svg width="24" height="24" viewBox="0 0 24 24" fill="none" xmlns="http://www.w3.org/2000/svg">
<path fill-rule="evenodd" clip-rule="evenodd" d="M18.75 8.83578C18.2415 9.34431 17.9872 9.59858 17.6814 9.65498C17.5615 9.67708 17.4385 9.67708 17.3186 9.65498C17.0128 9.59858 16.7585 9.34431 16.25 8.83578L14.75 7.33578C14.2415 6.82725 13.9872 6.57299 13.9308 6.26717C13.9087 6.14726 13.9087 6.02431 13.9308 5.9044C13.9872 5.59857 14.2415 5.34431 14.75 4.83578C15.2585 4.32725 15.5128 4.07299 15.8186 4.01658C15.9385 3.99447 16.0615 3.99447 16.1814 4.01658C16.4872 4.07299 16.7415 4.32725 17.25 4.83578L18.75 6.33578C19.2585 6.84431 19.5128 7.09857 19.5692 7.4044C19.5913 7.52431 19.5913 7.64726 19.5692 7.76717C19.5128 8.07299 19.2585 8.32725 18.75 8.83578ZM6 19.5858C5.05719 19.5858 4.58579 19.5858 4.29289 19.2929C4 19 4 18.5286 4 17.5858V16.4142C4 16.0055 4 15.8011 4.07612 15.6173C4.15224 15.4336 4.29676 15.289 4.58579 15L11.0858 8.5C11.7525 7.83333 12.0858 7.5 12.5 7.5C12.9142 7.5 13.2475 7.83333 13.9142 8.49999L15.0858 9.67158C15.7525 10.3383 16.0858 10.6716 16.0858 11.0858C16.0858 11.5 15.7525 11.8333 15.0858 12.5L8.58579 19C8.29676 19.289 8.15224 19.4336 7.96847 19.5097C7.7847 19.5858 7.58032 19.5858 7.17157 19.5858H6Z" fill="#2D3E50"/>
</svg>
