<svg width="12" height="12" viewBox="0 0 12 12" fill="none" xmlns="http://www.w3.org/2000/svg">
<path fill-rule="evenodd" clip-rule="evenodd" d="M2 8V6.45711C2 6.3245 2.05268 6.19732 2.14645 6.10355L7.89645 0.353554C8.09171 0.158292 8.40829 0.158292 8.60355 0.353554L10.1464 1.89645C10.3417 2.09171 10.3417 2.40829 10.1464 2.60355L4.39645 8.35355C4.30268 8.44732 4.1755 8.5 4.04289 8.5H2.5C2.22386 8.5 2 8.27614 2 8ZM1 10.25C0.585786 10.25 0.25 10.5858 0.25 11C0.25 11.4142 0.585786 11.75 1 11.75H11C11.4142 11.75 11.75 11.4142 11.75 11C11.75 10.5858 11.4142 10.25 11 10.25H1Z" fill="#2D3E50"/>
</svg>
