<svg width="12" height="12" viewBox="0 0 12 12" fill="none" xmlns="http://www.w3.org/2000/svg">
<path fill-rule="evenodd" clip-rule="evenodd" d="M9.375 4.41789C9.12075 4.67216 8.9936 4.79929 8.8407 4.82749C8.78075 4.83854 8.71925 4.83854 8.6593 4.82749C8.5064 4.79929 8.37925 4.67216 8.125 4.41789L7.375 3.66789C7.12075 3.41363 6.9936 3.2865 6.9654 3.13359C6.95435 3.07363 6.95435 3.01216 6.9654 2.9522C6.9936 2.79929 7.12075 2.67216 7.375 2.41789C7.62925 2.16363 7.7564 2.0365 7.9093 2.00829C7.96925 1.99724 8.03075 1.99724 8.0907 2.00829C8.2436 2.0365 8.37075 2.16363 8.625 2.41789L9.375 3.16789C9.62925 3.42216 9.7564 3.54929 9.7846 3.7022C9.79565 3.76216 9.79565 3.82363 9.7846 3.88359C9.7564 4.0365 9.62925 4.16363 9.375 4.41789ZM3 9.79289C2.52859 9.79289 2.29289 9.79289 2.14645 9.64644C2 9.49999 2 9.26429 2 8.79289V8.20709C2 8.00274 2 7.90054 2.03806 7.80864C2.07612 7.71679 2.14838 7.64449 2.2929 7.49999L5.5429 4.25C5.87625 3.91667 6.0429 3.75 6.25 3.75C6.4571 3.75 6.62375 3.91667 6.9571 4.25L7.5429 4.83579C7.87625 5.16914 8.0429 5.33579 8.0429 5.54289C8.0429 5.74999 7.87625 5.91664 7.5429 6.24999L4.29289 9.49999C4.14838 9.64449 4.07612 9.71679 3.98423 9.75484C3.89235 9.79289 3.79016 9.79289 3.58578 9.79289H3Z" fill="#2D3E50"/>
</svg>
