<svg width="16" height="16" viewBox="0 0 16 16" fill="none" xmlns="http://www.w3.org/2000/svg">
<path d="M1.51007 6.03638C1.53487 5.9879 1.55968 5.95153 1.59689 5.92729C1.6341 5.90305 1.68371 5.89093 1.72092 5.89093H1.73332H2.94883C2.99844 5.89093 3.06046 5.91517 3.09767 5.96365C3.14728 6.01214 3.15968 6.06062 3.15968 6.10911V6.12123V6.13335V7.15153H4.06511V6.25456C4.06511 6.18183 4.08991 6.13335 4.12712 6.08487C4.17673 6.03638 4.22635 6.01214 4.28836 6.00002H5.86356V4.42426C5.86356 4.3879 5.86356 4.36365 5.87596 4.32729C5.88836 4.30305 5.90077 4.2788 5.92557 4.25456C5.95038 4.23032 5.97518 4.2182 6.01239 4.20608C6.0496 4.19396 6.07441 4.19396 6.09922 4.19396H6.11162H8.77829V3.21214H7.02945H7.01705H7.00464C6.95503 3.21214 6.90542 3.1879 6.86821 3.15153C6.831 3.11517 6.8186 3.06668 6.8186 3.00608V2.99396V2.95759C6.8186 2.89699 6.8434 2.8485 6.88061 2.81214C6.93022 2.76365 6.97984 2.73941 7.02945 2.73941H11.0356C11.0977 2.75153 11.1597 2.77577 11.1969 2.82426C11.2341 2.87274 11.2589 2.92123 11.2589 2.99396C11.2465 3.05456 11.2217 3.10305 11.1721 3.13941C11.1225 3.1879 11.0729 3.21214 11.0232 3.21214H9.26201V4.19396H11.9535C11.9907 4.19396 12.0155 4.19396 12.0403 4.20608C12.0651 4.2182 12.0899 4.23032 12.1147 4.25456C12.1395 4.2788 12.1519 4.30305 12.1767 4.32729C12.1891 4.35153 12.2015 4.3879 12.2015 4.42426V5.09093H13.5163C13.5783 5.09093 13.6403 5.11517 13.6775 5.16365C13.7271 5.21214 13.7395 5.26062 13.7395 5.33335V8.23032H14.9302V6.46062C14.9302 6.3879 14.955 6.33941 14.9922 6.29093C15.0419 6.24244 15.0915 6.2182 15.1535 6.2182C15.2155 6.2182 15.2775 6.24244 15.3271 6.29093C15.3767 6.33941 15.4015 6.40002 15.4015 6.46062V10.4727C15.4015 10.5455 15.3767 10.594 15.3271 10.6424C15.2775 10.6909 15.2155 10.7152 15.1535 10.7152C15.0915 10.703 15.0294 10.6788 14.9922 10.6303C14.9426 10.5818 14.9302 10.5334 14.9302 10.4606V8.69093H13.7395V11.5879C13.7395 11.6606 13.7147 11.7091 13.6775 11.7576C13.6279 11.8061 13.5783 11.8303 13.5163 11.8303H11.5194L9.51007 13.5152L9.44805 13.5515C9.44805 13.5515 9.42325 13.5515 9.38604 13.5637H9.36123H9.34883H4.30077C4.25115 13.5637 4.18914 13.5394 4.15193 13.4909C4.10232 13.4424 4.08991 13.394 4.08991 13.3455V11.7455H3.19689V12.7637V12.7758C3.19689 12.8121 3.19689 12.8364 3.18449 12.8727C3.17208 12.897 3.15968 12.9212 3.13487 12.9455C3.11007 12.9697 3.08526 12.9818 3.06046 12.994C3.03565 13.0061 2.99844 13.0061 2.97363 13.0061H1.75813C1.70852 13.0061 1.65891 12.994 1.6217 12.9697C1.58449 12.9455 1.55968 12.9091 1.54728 12.8606H1.53487L0.790688 11.2121C0.778285 11.2 0.765882 11.1879 0.765882 11.1758C0.765882 11.1637 0.753479 11.1394 0.753479 11.1394V11.1273V11.1152V7.79396C0.753479 7.76971 0.753479 7.75759 0.765882 7.73335C0.765882 7.72123 0.778285 7.69699 0.790688 7.69699L1.51007 6.03638ZM1.2496 11.0546L1.88216 12.5212H2.71317V11.4909C2.71317 11.4182 2.73798 11.3697 2.78759 11.3212C2.8372 11.2727 2.89922 11.2485 2.96123 11.2485H4.30077H4.31317H4.32557C4.36278 11.2485 4.38759 11.2485 4.41239 11.2606C4.4372 11.2727 4.46201 11.2849 4.47441 11.3091C4.49922 11.3334 4.51162 11.3576 4.53642 11.3818C4.54883 11.4061 4.56123 11.4424 4.56123 11.4788V13.0909H9.27441L11.2837 11.4061C11.3085 11.3818 11.3333 11.3697 11.3581 11.3576C11.3829 11.3455 11.4201 11.3455 11.445 11.3455H13.2806V5.57577H11.9535C11.8915 5.57577 11.8294 5.55153 11.7922 5.50305C11.7426 5.45456 11.7302 5.39396 11.7302 5.33335V4.6788H6.35968V6.26668V6.2788V6.29093C6.35968 6.36365 6.33487 6.41214 6.29767 6.46062C6.26046 6.50911 6.21084 6.53335 6.13643 6.53335H6.12402H6.09922H6.11162H4.54883V7.43032C4.54883 7.50305 4.52402 7.55153 4.47441 7.60002C4.4248 7.6485 4.36278 7.67274 4.30077 7.67274H2.97363C2.91162 7.67274 2.8496 7.6485 2.79999 7.60002C2.75038 7.55153 2.72557 7.50305 2.72557 7.43032V6.40002H1.89456L1.2496 7.84244V11.0546Z" fill="#2D3E50"/>
<mask id="mask0" mask-type="alpha" maskUnits="userSpaceOnUse" x="0" y="2" width="16" height="12">
<path d="M15.5504 2.66667H0.666656V13.697H15.5504V2.66667Z" fill="white"/>
<path d="M1.51007 6.03638C1.53487 5.98789 1.55968 5.95153 1.59689 5.92729C1.6341 5.90305 1.68371 5.89092 1.72092 5.89092H1.73332H2.94883C2.99844 5.89092 3.06046 5.91517 3.09767 5.96365C3.14728 6.01214 3.15968 6.06062 3.15968 6.10911V6.12123V6.13335V7.15153H4.06511V6.25456C4.06511 6.18183 4.08991 6.13335 4.12712 6.08486C4.17674 6.03638 4.22635 6.01214 4.28836 6.00002H5.86356V4.42426C5.86356 4.3879 5.86356 4.36365 5.87596 4.32729C5.88836 4.30305 5.90077 4.2788 5.92557 4.25456C5.95038 4.23032 5.97518 4.2182 6.01239 4.20608C6.0496 4.19396 6.07441 4.19396 6.09922 4.19396H6.11162H8.77829V3.21214H7.02945H7.01705H7.00464C6.95503 3.21214 6.90542 3.1879 6.86821 3.15153C6.831 3.11517 6.8186 3.06668 6.8186 3.00608V2.99396V2.95759C6.8186 2.89699 6.8434 2.8485 6.88061 2.81214C6.93022 2.76365 6.97984 2.73941 7.02945 2.73941H11.0356C11.0977 2.75153 11.1597 2.77577 11.1969 2.82426C11.2341 2.87274 11.2589 2.92123 11.2589 2.99396C11.2465 3.05456 11.2217 3.10305 11.1721 3.13941C11.1225 3.1879 11.0729 3.21214 11.0232 3.21214H9.26201V4.19396H11.9535C11.9907 4.19396 12.0155 4.19396 12.0403 4.20608C12.0651 4.2182 12.0899 4.23032 12.1147 4.25456C12.1395 4.2788 12.1519 4.30305 12.1767 4.32729C12.1891 4.35153 12.2015 4.3879 12.2015 4.42426V5.09093H13.5163C13.5783 5.09093 13.6403 5.11517 13.6775 5.16365C13.7271 5.21214 13.7395 5.26062 13.7395 5.33335V8.23032H14.9302V6.46062C14.9302 6.38789 14.955 6.33941 14.9922 6.29093C15.0419 6.24244 15.0915 6.2182 15.1535 6.2182C15.2155 6.2182 15.2775 6.24244 15.3271 6.29093C15.3767 6.33941 15.4015 6.40002 15.4015 6.46062V10.4727C15.4015 10.5455 15.3767 10.594 15.3271 10.6424C15.2775 10.6909 15.2155 10.7152 15.1535 10.7152C15.0915 10.703 15.0294 10.6788 14.9922 10.6303C14.9426 10.5818 14.9302 10.5333 14.9302 10.4606V8.69092H13.7395V11.5879C13.7395 11.6606 13.7147 11.7091 13.6775 11.7576C13.6279 11.8061 13.5783 11.8303 13.5163 11.8303H11.5194L9.51007 13.5152L9.44805 13.5515C9.44805 13.5515 9.42325 13.5515 9.38604 13.5637H9.36123H9.34883H4.30077C4.25115 13.5637 4.18914 13.5394 4.15193 13.4909C4.10232 13.4424 4.08991 13.394 4.08991 13.3455V11.7455H3.19689V12.7637V12.7758C3.19689 12.8121 3.19689 12.8364 3.18449 12.8727C3.17208 12.897 3.15968 12.9212 3.13487 12.9455C3.11007 12.9697 3.08526 12.9818 3.06046 12.994C3.03565 13.0061 2.99844 13.0061 2.97363 13.0061H1.75813C1.70852 13.0061 1.65891 12.994 1.6217 12.9697C1.58449 12.9455 1.55968 12.9091 1.54728 12.8606H1.53487L0.790688 11.2121C0.778285 11.2 0.765882 11.1879 0.765882 11.1758C0.765882 11.1637 0.753479 11.1394 0.753479 11.1394V11.1273V11.1152V7.79395C0.753479 7.76971 0.753479 7.75759 0.765882 7.73335C0.765882 7.72123 0.778285 7.69699 0.790688 7.69699L1.51007 6.03638ZM1.2496 11.0546L1.88216 12.5212H2.71317V11.4909C2.71317 11.4182 2.73798 11.3697 2.78759 11.3212C2.8372 11.2727 2.89922 11.2485 2.96123 11.2485H4.30077H4.31317H4.32557C4.36278 11.2485 4.38759 11.2485 4.41239 11.2606C4.4372 11.2727 4.46201 11.2849 4.47441 11.3091C4.49922 11.3333 4.51162 11.3576 4.53642 11.3818C4.54883 11.4061 4.56123 11.4424 4.56123 11.4788V13.0909H9.27441L11.2837 11.4061C11.3085 11.3818 11.3333 11.3697 11.3581 11.3576C11.3829 11.3455 11.4201 11.3455 11.445 11.3455H13.2806V5.57577H11.9535C11.8915 5.57577 11.8294 5.55153 11.7922 5.50305C11.7426 5.45456 11.7302 5.39396 11.7302 5.33335V4.6788H6.35968V6.26668V6.2788V6.29093C6.35968 6.36365 6.33487 6.41214 6.29767 6.46062C6.26046 6.50911 6.21084 6.53335 6.13643 6.53335H6.12402H6.09922H6.11162H4.54883V7.43032C4.54883 7.50305 4.52402 7.55153 4.47441 7.60002C4.4248 7.6485 4.36278 7.67274 4.30077 7.67274H2.97363C2.91162 7.67274 2.8496 7.6485 2.79999 7.60002C2.75038 7.55153 2.72557 7.50305 2.72557 7.43032V6.40002H1.89456L1.2496 7.84244V11.0546Z" fill="black"/>
</mask>
<g mask="url(#mask0)">
<path d="M9.38603 13.6364H4.30076C4.22634 13.6364 4.16432 13.6121 4.10231 13.5515C4.04029 13.4909 4.01549 13.4303 4.01549 13.3576V11.8061H3.2589V12.7758C3.2589 12.8121 3.24649 12.8606 3.23409 12.8849C3.22169 12.9212 3.19688 12.9576 3.17207 12.9818C3.14727 13.0061 3.11006 13.0303 3.07285 13.0424C3.03564 13.0546 2.99843 13.0667 2.96122 13.0667H1.74572C1.6713 13.0667 1.62169 13.0546 1.57207 13.0182C1.53487 12.994 1.51006 12.9576 1.48525 12.9212H1.47285L0.741067 11.2364C0.728664 11.2243 0.716261 11.2121 0.716261 11.1879C0.703857 11.1637 0.703857 11.1394 0.703857 11.1273V7.79396C0.703857 7.76971 0.703857 7.74547 0.716261 7.72123C0.728664 7.69699 0.728664 7.68486 0.741067 7.66062L1.46045 6.01214C1.48525 5.96365 1.52246 5.91517 1.57207 5.8788C1.62169 5.84244 1.6713 5.83032 1.73331 5.83032H2.97363C3.04804 5.83032 3.11006 5.85456 3.17207 5.91517C3.23409 5.97577 3.2589 6.03638 3.2589 6.10911V7.10305H4.01549V6.26668C4.01549 6.18183 4.04029 6.10911 4.10231 6.06062C4.15192 6.01214 4.22634 5.97577 4.30076 5.96365H5.81393V4.42426C5.81393 4.38789 5.82634 4.33941 5.83874 4.31517C5.85114 4.2788 5.87595 4.24244 5.90076 4.2182C5.92556 4.19395 5.96277 4.16971 6.01238 4.15759C6.04959 4.14547 6.0868 4.13335 6.11161 4.13335H8.74107V3.27274H7.00463C6.93021 3.27274 6.8682 3.2485 6.81859 3.18789C6.78138 3.13941 6.75657 3.0788 6.75657 3.00608V2.95759C6.75657 2.88486 6.78138 2.82426 6.84339 2.76365C6.90541 2.70304 6.96742 2.6788 7.04184 2.6788H11.048C11.1349 2.69092 11.2093 2.72729 11.2589 2.78789C11.3085 2.8485 11.3333 2.90911 11.3333 2.99395C11.3209 3.06668 11.2837 3.13941 11.2341 3.18789C11.1721 3.2485 11.1101 3.27274 11.0356 3.27274H9.32401V4.13335H11.9535C11.9907 4.13335 12.0279 4.14547 12.0651 4.15759C12.1023 4.16971 12.1271 4.19395 12.1643 4.2182C12.1891 4.24244 12.2139 4.2788 12.2263 4.30305C12.2511 4.33941 12.2635 4.37577 12.2635 4.42426V5.03032H13.5163C13.6031 5.03032 13.6651 5.05456 13.7271 5.11517C13.7891 5.17577 13.8139 5.23638 13.8139 5.32123V8.15759H14.8806V6.46062C14.8806 6.37577 14.9054 6.30305 14.9674 6.24244C15.0791 6.12123 15.2775 6.10911 15.4015 6.24244C15.4635 6.30305 15.4884 6.37577 15.4884 6.46062V10.4727C15.4884 10.5576 15.4511 10.6303 15.3891 10.6909C15.3271 10.7515 15.2527 10.7879 15.1659 10.7879C15.0791 10.7758 15.0046 10.7394 14.955 10.6909C14.893 10.6303 14.8682 10.5697 14.8682 10.4849V8.75153H13.8015V11.5879C13.8015 11.6727 13.7767 11.7455 13.7147 11.8061C13.6527 11.8667 13.5907 11.903 13.5039 11.903H11.5194L9.54727 13.5758L9.47285 13.6121L9.38603 13.6364ZM3.13487 11.6849H4.13952V13.3576C4.13952 13.394 4.15192 13.4303 4.18913 13.4667C4.22634 13.503 4.25114 13.5152 4.30076 13.5152H9.37363L9.42324 13.503L9.47285 13.4788L11.4946 11.7818H13.5163C13.5659 11.7818 13.6031 11.7697 13.6403 11.7334C13.6775 11.697 13.6899 11.6485 13.6899 11.6V8.63032H15.0046V10.4727C15.0046 10.5212 15.017 10.5697 15.0542 10.594C15.0915 10.6303 15.1287 10.6546 15.1907 10.6546C15.2279 10.6546 15.2775 10.6303 15.3147 10.594C15.3519 10.5576 15.3767 10.5091 15.3767 10.4606V6.46062C15.3767 6.41214 15.3519 6.36365 15.3147 6.32729C15.2403 6.25456 15.1287 6.25456 15.0666 6.32729C15.0294 6.36365 15.017 6.41214 15.017 6.46062V8.29093H13.7023V5.32123C13.7023 5.27274 13.6899 5.22426 13.6527 5.20002C13.6155 5.16365 13.5783 5.15153 13.5287 5.15153H12.1395V4.42426C12.1395 4.40002 12.1395 4.37577 12.1271 4.36365C12.1147 4.33941 12.1023 4.31517 12.0775 4.30305C12.0651 4.29092 12.0403 4.2788 12.0279 4.26668C12.0031 4.25456 11.9907 4.25456 11.9535 4.25456H9.19998V3.15153H11.0356C11.0728 3.15153 11.1101 3.13941 11.1473 3.10305C11.1845 3.06668 11.2093 3.03032 11.2093 2.98183C11.2093 2.94547 11.1969 2.89698 11.1597 2.86062C11.1349 2.82426 11.0853 2.81214 11.0356 2.80001H7.04184C7.00463 2.80001 6.96742 2.81214 6.93021 2.8485C6.893 2.88486 6.8806 2.92123 6.8806 2.95759V3.00608C6.8806 3.04244 6.893 3.0788 6.91781 3.10305C6.94262 3.12729 6.96742 3.13941 7.00463 3.13941H8.85269V4.24244H6.11161C6.09921 4.24244 6.0868 4.24244 6.04959 4.25456C6.02479 4.26668 5.99998 4.2788 5.98758 4.29092C5.97518 4.30305 5.96277 4.32729 5.95037 4.35153C5.93797 4.37577 5.93797 4.40002 5.93797 4.42426V6.07274H4.30076C4.25114 6.08486 4.21394 6.09699 4.17673 6.13335C4.13952 6.16971 4.12711 6.20608 4.12711 6.25456V7.21214H3.12246V6.09699C3.12246 6.06062 3.11006 6.02426 3.07285 5.98789C3.03564 5.95153 3.01083 5.93941 2.96122 5.93941H1.72091C1.6837 5.93941 1.6589 5.95153 1.63409 5.96365C1.60928 5.98789 1.58448 6.01214 1.55967 6.0485L0.840292 7.73335L0.827888 7.74547C0.827888 7.75759 0.827888 7.76971 0.827888 7.78183V11.1152C0.827888 11.1152 0.827888 11.1273 0.827888 11.1394C0.827888 11.1515 0.827888 11.1515 0.840292 11.1637L0.852695 11.1879L1.55967 12.8H1.58448L1.59688 12.8485C1.60928 12.8849 1.62169 12.9091 1.64649 12.9212C1.6713 12.9455 1.70851 12.9455 1.75812 12.9455H2.97363C2.99843 12.9455 3.02324 12.9455 3.03564 12.9334C3.06045 12.9212 3.07285 12.9091 3.08525 12.897C3.09766 12.8849 3.11006 12.8606 3.12246 12.8364C3.13487 12.8121 3.13487 12.7879 3.13487 12.7637V11.6849ZM9.2868 13.1637H4.4868V11.4909C4.4868 11.4667 4.4868 11.4424 4.4744 11.4303C4.462 11.4061 4.44959 11.3818 4.42479 11.3697L4.41238 11.3576C4.41238 11.3576 4.39998 11.3455 4.38758 11.3334C4.36277 11.3212 4.35037 11.3212 4.31316 11.3212H2.97363C2.92401 11.3212 2.8744 11.3334 2.83719 11.3697C2.79998 11.4061 2.78758 11.4424 2.78758 11.4909V12.5818H1.84494L1.18758 11.0546V7.83032L1.84494 6.31517H2.78758V7.40608C2.78758 7.45456 2.79998 7.49093 2.83719 7.52729C2.8744 7.56365 2.92401 7.57577 2.97363 7.57577H4.31316C4.36277 7.57577 4.41238 7.56365 4.44959 7.52729C4.4868 7.49093 4.49921 7.45456 4.49921 7.40608V6.4485H6.13642C6.19843 6.4485 6.22324 6.43638 6.26045 6.40002C6.28525 6.36365 6.31006 6.32729 6.31006 6.2788V4.6182H11.7922V5.33335C11.7922 5.38183 11.8046 5.43032 11.8418 5.46668C11.8791 5.50305 11.9163 5.51517 11.9659 5.51517H13.3426V11.4182H11.4325C11.4077 11.4182 11.3829 11.4182 11.3581 11.4303C11.3333 11.4424 11.3209 11.4546 11.3085 11.4667L9.2868 13.1637ZM4.61083 13.0424H9.23719L11.2217 11.3697C11.2465 11.3455 11.2837 11.3212 11.3085 11.3091C11.3457 11.297 11.3829 11.2849 11.4201 11.2849H13.1938V5.63638H11.9535C11.8666 5.63638 11.7922 5.60002 11.7426 5.53941C11.693 5.4788 11.6558 5.40608 11.6558 5.32123V4.72729H6.42169V6.26668C6.42169 6.35153 6.39688 6.41214 6.34727 6.47274C6.29766 6.53335 6.22324 6.55759 6.13642 6.55759H4.61083V7.39396C4.61083 7.4788 4.57362 7.55153 4.51161 7.60002C4.44959 7.66062 4.37518 7.68487 4.28835 7.68487H2.97363C2.8868 7.68487 2.81238 7.66062 2.75037 7.60002C2.68835 7.53941 2.65114 7.46668 2.65114 7.39396V6.42426H1.91936L1.31161 7.85456V11.0424L1.91936 12.4606H2.65114V11.4909C2.65114 11.4061 2.68835 11.3334 2.75037 11.2849C2.81238 11.2243 2.8868 11.2 2.97363 11.2H4.32556C4.36277 11.2 4.39998 11.2121 4.43719 11.2243C4.4744 11.2364 4.49921 11.2606 4.52401 11.297C4.54882 11.3212 4.57363 11.3455 4.58603 11.3818C4.61083 11.4182 4.62324 11.4546 4.62324 11.503V13.0424H4.61083Z" fill="#2D3E50"/>
</g>
</svg>
