<svg width="12" height="12" viewBox="0 0 12 12" fill="none" xmlns="http://www.w3.org/2000/svg">
<path d="M1.13257 4.52728C1.15117 4.49091 1.16978 4.46364 1.19768 4.44546C1.22559 4.42728 1.2628 4.41819 1.29071 4.41819H1.30001H2.21164C2.24885 4.41819 2.29536 4.43637 2.32326 4.47273C2.36047 4.5091 2.36978 4.54546 2.36978 4.58182V4.59091V4.6V5.36364H3.04885V4.69091C3.04885 4.63637 3.06745 4.60001 3.09536 4.56364C3.13257 4.52728 3.16978 4.5091 3.21629 4.50001H4.39768V3.31819C4.39768 3.29091 4.39768 3.27273 4.40698 3.24546C4.41629 3.22728 4.42559 3.2091 4.44419 3.19091C4.4628 3.17273 4.4814 3.16364 4.50931 3.15455C4.53722 3.14546 4.55582 3.14546 4.57443 3.14546H4.58373H6.58373V2.4091H5.2721H5.2628H5.2535C5.21629 2.4091 5.17908 2.39091 5.15117 2.36364C5.12326 2.33637 5.11396 2.3 5.11396 2.25455V2.24546V2.21819C5.11396 2.17273 5.13257 2.13637 5.16047 2.1091C5.19768 2.07273 5.23489 2.05455 5.2721 2.05455H8.27675C8.32326 2.06364 8.36977 2.08182 8.39768 2.11819C8.42559 2.15455 8.44419 2.19091 8.44419 2.24546C8.43489 2.29091 8.41629 2.32728 8.37908 2.35455C8.34187 2.39091 8.30466 2.4091 8.26745 2.4091H6.94652V3.14546H8.96512C8.99303 3.14546 9.01164 3.14546 9.03024 3.15455C9.04884 3.16364 9.06745 3.17273 9.08605 3.19091C9.10466 3.2091 9.11396 3.22728 9.13257 3.24546C9.14187 3.26364 9.15117 3.29091 9.15117 3.31819V3.81819H10.1372C10.1837 3.81819 10.2302 3.83637 10.2581 3.87273C10.2954 3.9091 10.3047 3.94546 10.3047 4V6.17273H11.1977V4.84546C11.1977 4.79091 11.2163 4.75455 11.2442 4.71819C11.2814 4.68182 11.3186 4.66364 11.3651 4.66364C11.4116 4.66364 11.4581 4.68182 11.4954 4.71819C11.5326 4.75455 11.5512 4.8 11.5512 4.84546V7.85455C11.5512 7.9091 11.5326 7.94546 11.4954 7.98182C11.4581 8.01819 11.4116 8.03637 11.3651 8.03637C11.3186 8.02728 11.2721 8.0091 11.2442 7.97273C11.207 7.93637 11.1977 7.90001 11.1977 7.84546V6.51819H10.3047V8.69091C10.3047 8.74546 10.2861 8.78182 10.2581 8.81819C10.2209 8.85455 10.1837 8.87273 10.1372 8.87273H8.63954L7.13257 10.1364L7.08605 10.1636C7.08605 10.1636 7.06745 10.1636 7.03954 10.1727H7.02094H7.01164H3.22559C3.18838 10.1727 3.14187 10.1546 3.11396 10.1182C3.07675 10.0818 3.06745 10.0455 3.06745 10.0091V8.8091H2.39768V9.57273V9.58182C2.39768 9.6091 2.39768 9.62728 2.38838 9.65455C2.37908 9.67273 2.36978 9.69092 2.35117 9.7091C2.33257 9.72728 2.31396 9.73637 2.29536 9.74546C2.27675 9.75455 2.24885 9.75455 2.23024 9.75455H1.31861C1.2814 9.75455 1.24419 9.74546 1.21629 9.72728C1.18838 9.7091 1.16978 9.68182 1.16047 9.64546H1.15117L0.593031 8.4091C0.583729 8.40001 0.574427 8.39091 0.574427 8.38182C0.574427 8.37273 0.565125 8.35455 0.565125 8.35455V8.34546V8.33637V5.84546C0.565125 5.82728 0.565125 5.81819 0.574427 5.8C0.574427 5.79091 0.583729 5.77273 0.593031 5.77273L1.13257 4.52728ZM0.937218 8.29091L1.41164 9.39091H2.03489V8.61819C2.03489 8.56364 2.0535 8.52728 2.09071 8.49091C2.12792 8.45455 2.17443 8.43637 2.22094 8.43637H3.22559H3.23489H3.24419C3.2721 8.43637 3.29071 8.43637 3.30931 8.44546C3.32791 8.45455 3.34652 8.46364 3.35582 8.48182C3.37443 8.50001 3.38373 8.51819 3.40233 8.53637C3.41164 8.55455 3.42094 8.58182 3.42094 8.6091V9.81819H6.95582L8.4628 8.55455C8.4814 8.53637 8.50001 8.52728 8.51861 8.51819C8.53722 8.5091 8.56512 8.5091 8.58373 8.5091H9.96047V4.18182H8.96512C8.91861 4.18182 8.8721 4.16364 8.84419 4.12728C8.80698 4.09091 8.79768 4.04546 8.79768 4V3.5091H4.76978V4.70001V4.7091V4.71819C4.76978 4.77273 4.75117 4.8091 4.72326 4.84546C4.69536 4.88182 4.65815 4.90001 4.60233 4.90001H4.59303H4.57443H4.58373H3.41164V5.57273C3.41164 5.62728 3.39303 5.66364 3.35582 5.70001C3.31861 5.73637 3.2721 5.75455 3.22559 5.75455H2.23024C2.18373 5.75455 2.13722 5.73637 2.10001 5.70001C2.0628 5.66364 2.04419 5.62728 2.04419 5.57273V4.8H1.42094L0.937218 5.88182V8.29091Z" fill="#2D3E50"/>
<mask id="mask0" mask-type="alpha" maskUnits="userSpaceOnUse" x="0" y="2" width="12" height="9">
<path d="M11.6628 2H0.5V10.2727H11.6628V2Z" fill="white"/>
<path d="M1.13257 4.52728C1.15117 4.49091 1.16978 4.46364 1.19768 4.44546C1.22559 4.42728 1.2628 4.41819 1.29071 4.41819H1.30001H2.21164C2.24885 4.41819 2.29536 4.43637 2.32326 4.47273C2.36047 4.5091 2.36978 4.54546 2.36978 4.58182V4.59091V4.6V5.36364H3.04885V4.69091C3.04885 4.63637 3.06745 4.6 3.09536 4.56364C3.13257 4.52728 3.16978 4.5091 3.21629 4.5H4.39768V3.31819C4.39768 3.29091 4.39768 3.27273 4.40699 3.24546C4.41629 3.22728 4.42559 3.2091 4.44419 3.19091C4.4628 3.17273 4.4814 3.16364 4.50931 3.15455C4.53722 3.14546 4.55582 3.14546 4.57443 3.14546H4.58373H6.58373V2.4091H5.2721H5.2628H5.2535C5.21629 2.4091 5.17908 2.39091 5.15117 2.36364C5.12326 2.33637 5.11396 2.3 5.11396 2.25455V2.24546V2.21819C5.11396 2.17273 5.13257 2.13637 5.16047 2.1091C5.19768 2.07273 5.23489 2.05455 5.2721 2.05455H8.27675C8.32326 2.06364 8.36978 2.08182 8.39768 2.11819C8.42559 2.15455 8.44419 2.19091 8.44419 2.24546C8.43489 2.29091 8.41629 2.32728 8.37908 2.35455C8.34187 2.39091 8.30466 2.4091 8.26745 2.4091H6.94652V3.14546H8.96513C8.99303 3.14546 9.01164 3.14546 9.03024 3.15455C9.04885 3.16364 9.06745 3.17273 9.08605 3.19091C9.10466 3.2091 9.11396 3.22728 9.13257 3.24546C9.14187 3.26364 9.15117 3.29091 9.15117 3.31819V3.81819H10.1372C10.1837 3.81819 10.2302 3.83637 10.2581 3.87273C10.2954 3.9091 10.3047 3.94546 10.3047 4V6.17273H11.1977V4.84546C11.1977 4.79091 11.2163 4.75455 11.2442 4.71819C11.2814 4.68182 11.3186 4.66364 11.3651 4.66364C11.4116 4.66364 11.4581 4.68182 11.4954 4.71819C11.5326 4.75455 11.5512 4.8 11.5512 4.84546V7.85455C11.5512 7.9091 11.5326 7.94546 11.4954 7.98182C11.4581 8.01819 11.4116 8.03637 11.3651 8.03637C11.3186 8.02728 11.2721 8.00909 11.2442 7.97273C11.207 7.93637 11.1977 7.9 11.1977 7.84546V6.51819H10.3047V8.69091C10.3047 8.74546 10.2861 8.78182 10.2581 8.81819C10.2209 8.85455 10.1837 8.87273 10.1372 8.87273H8.63954L7.13257 10.1364L7.08606 10.1636C7.08606 10.1636 7.06745 10.1636 7.03954 10.1727H7.02094H7.01164H3.22559C3.18838 10.1727 3.14187 10.1545 3.11396 10.1182C3.07675 10.0818 3.06745 10.0455 3.06745 10.0091V8.80909H2.39768V9.57273V9.58182C2.39768 9.6091 2.39768 9.62728 2.38838 9.65455C2.37908 9.67273 2.36978 9.69091 2.35117 9.7091C2.33257 9.72728 2.31396 9.73637 2.29536 9.74546C2.27675 9.75455 2.24885 9.75455 2.23024 9.75455H1.31861C1.2814 9.75455 1.24419 9.74546 1.21629 9.72728C1.18838 9.70909 1.16978 9.68182 1.16047 9.64546H1.15117L0.593031 8.40909C0.583729 8.4 0.574427 8.39091 0.574427 8.38182C0.574427 8.37273 0.565125 8.35455 0.565125 8.35455V8.34546V8.33637V5.84546C0.565125 5.82728 0.565125 5.81819 0.574427 5.8C0.574427 5.79091 0.583729 5.77273 0.593031 5.77273L1.13257 4.52728ZM0.937218 8.29091L1.41164 9.39091H2.03489V8.61819C2.03489 8.56364 2.0535 8.52728 2.09071 8.49091C2.12792 8.45455 2.17443 8.43637 2.22094 8.43637H3.22559H3.23489H3.24419C3.2721 8.43637 3.29071 8.43637 3.30931 8.44546C3.32792 8.45455 3.34652 8.46364 3.35582 8.48182C3.37443 8.5 3.38373 8.51819 3.40233 8.53637C3.41164 8.55455 3.42094 8.58182 3.42094 8.60909V9.81819H6.95582L8.4628 8.55455C8.4814 8.53637 8.50001 8.52728 8.51861 8.51819C8.53722 8.50909 8.56512 8.50909 8.58373 8.50909H9.96047V4.18182H8.96513C8.91861 4.18182 8.8721 4.16364 8.8442 4.12728C8.80699 4.09091 8.79768 4.04546 8.79768 4V3.5091H4.76978V4.7V4.7091V4.71819C4.76978 4.77273 4.75117 4.8091 4.72326 4.84546C4.69536 4.88182 4.65815 4.9 4.60233 4.9H4.59303H4.57443H4.58373H3.41164V5.57273C3.41164 5.62728 3.39303 5.66364 3.35582 5.7C3.31861 5.73637 3.2721 5.75455 3.22559 5.75455H2.23024C2.18373 5.75455 2.13722 5.73637 2.10001 5.7C2.0628 5.66364 2.04419 5.62728 2.04419 5.57273V4.8H1.42094L0.937218 5.88182V8.29091Z" fill="black"/>
</mask>
<g mask="url(#mask0)">
<path d="M7.03952 10.2273H3.22557C3.16975 10.2273 3.12324 10.2091 3.07673 10.1637C3.03022 10.1182 3.01161 10.0727 3.01161 10.0182V8.85457H2.44417V9.58184C2.44417 9.60911 2.43487 9.64548 2.42557 9.66366C2.41627 9.69093 2.39766 9.7182 2.37906 9.73639C2.36045 9.75457 2.33254 9.77275 2.30464 9.78184C2.27673 9.79093 2.24882 9.80002 2.22092 9.80002H1.30929C1.25347 9.80002 1.21627 9.79093 1.17906 9.76366C1.15115 9.74548 1.13254 9.7182 1.11394 9.69093H1.10464L0.5558 8.42729C0.546498 8.4182 0.537195 8.40911 0.537195 8.39093C0.527893 8.37275 0.527893 8.35457 0.527893 8.34548V5.84547C0.527893 5.82729 0.527893 5.80911 0.537195 5.79093C0.546498 5.77275 0.546498 5.76366 0.5558 5.74547L1.09533 4.50911C1.11394 4.47275 1.14185 4.43638 1.17906 4.40911C1.21627 4.38184 1.25347 4.37275 1.29999 4.37275H2.23022C2.28603 4.37275 2.33254 4.39093 2.37906 4.43638C2.42557 4.48184 2.44417 4.52729 2.44417 4.58184V5.32729H3.01161V4.70002C3.01161 4.63638 3.03022 4.58184 3.07673 4.54547C3.11394 4.50911 3.16975 4.48184 3.22557 4.47275H4.36045V3.3182C4.36045 3.29093 4.36975 3.25456 4.37906 3.23638C4.38836 3.20911 4.40696 3.18184 4.42557 3.16366C4.44417 3.14547 4.47208 3.12729 4.50929 3.1182C4.5372 3.10911 4.5651 3.10002 4.58371 3.10002H6.5558V2.45456H5.25347C5.19766 2.45456 5.15115 2.43638 5.11394 2.39093C5.08603 2.35456 5.06743 2.30911 5.06743 2.25456V2.2182C5.06743 2.16365 5.08603 2.1182 5.13254 2.07275C5.17906 2.02729 5.22557 2.00911 5.28138 2.00911H8.28603C8.35115 2.0182 8.40696 2.04547 8.44417 2.09093C8.48138 2.13638 8.49999 2.18184 8.49999 2.24547C8.49068 2.30002 8.46278 2.35456 8.42557 2.39093C8.37906 2.43638 8.33254 2.45456 8.27673 2.45456H6.99301V3.10002H8.9651C8.99301 3.10002 9.02092 3.10911 9.04882 3.1182C9.07673 3.12729 9.09534 3.14547 9.12324 3.16366C9.14185 3.18184 9.16045 3.20911 9.16975 3.22729C9.18836 3.25456 9.19766 3.28184 9.19766 3.3182V3.77275H10.1372C10.2023 3.77275 10.2488 3.79093 10.2953 3.83638C10.3418 3.88184 10.3605 3.92729 10.3605 3.99093V6.1182H11.1605V4.84547C11.1605 4.78184 11.1791 4.72729 11.2256 4.68184C11.3093 4.59093 11.4581 4.58184 11.5511 4.68184C11.5977 4.72729 11.6163 4.78184 11.6163 4.84547V7.85457C11.6163 7.9182 11.5884 7.97275 11.5418 8.0182C11.4953 8.06366 11.4395 8.09093 11.3744 8.09093C11.3093 8.08184 11.2535 8.05457 11.2163 8.0182C11.1698 7.97275 11.1511 7.92729 11.1511 7.86366V6.56366H10.3511V8.69093C10.3511 8.75457 10.3325 8.80911 10.286 8.85457C10.2395 8.90002 10.193 8.92729 10.1279 8.92729H8.63952L7.16045 10.1818L7.10464 10.2091L7.03952 10.2273ZM2.35115 8.76366H3.10464V10.0182C3.10464 10.0455 3.11394 10.0727 3.14185 10.1C3.16975 10.1273 3.18836 10.1364 3.22557 10.1364H7.03022L7.06743 10.1273L7.10464 10.1091L8.62092 8.83639H10.1372C10.1744 8.83639 10.2023 8.82729 10.2302 8.80002C10.2581 8.77275 10.2674 8.73638 10.2674 8.70002V6.47275H11.2535V7.85457C11.2535 7.89093 11.2628 7.92729 11.2907 7.94548C11.3186 7.97275 11.3465 7.99093 11.393 7.99093C11.4209 7.99093 11.4581 7.97275 11.486 7.94548C11.5139 7.9182 11.5325 7.88184 11.5325 7.84548V4.84547C11.5325 4.80911 11.5139 4.77275 11.486 4.74547C11.4302 4.69093 11.3465 4.69093 11.3 4.74547C11.2721 4.77275 11.2628 4.80911 11.2628 4.84547V6.2182H10.2767V3.99093C10.2767 3.95457 10.2674 3.9182 10.2395 3.90002C10.2116 3.87275 10.1837 3.86366 10.1465 3.86366H9.10464V3.3182C9.10464 3.30002 9.10464 3.28184 9.09534 3.27275C9.08603 3.25456 9.07673 3.23638 9.05813 3.22729C9.04882 3.2182 9.03022 3.20911 9.02092 3.20002C9.00231 3.19093 8.99301 3.19093 8.9651 3.19093H6.89999V2.36366H8.27673C8.30464 2.36366 8.33254 2.35456 8.36045 2.32729C8.38836 2.30002 8.40696 2.27275 8.40696 2.23638C8.40696 2.20911 8.39766 2.17275 8.36975 2.14547C8.35115 2.1182 8.31394 2.10911 8.27673 2.10002H5.28138C5.25347 2.10002 5.22557 2.10911 5.19766 2.13638C5.16975 2.16365 5.16045 2.19093 5.16045 2.2182V2.25456C5.16045 2.28184 5.16975 2.30911 5.18836 2.32729C5.20696 2.34547 5.22557 2.35456 5.25347 2.35456H6.63952V3.18184H4.58371C4.5744 3.18184 4.5651 3.18184 4.5372 3.19093C4.51859 3.20002 4.49999 3.20911 4.49068 3.2182C4.48138 3.22729 4.47208 3.24547 4.46278 3.26366C4.45347 3.28184 4.45347 3.30002 4.45347 3.3182V4.55456H3.22557C3.18836 4.56366 3.16045 4.57275 3.13254 4.60002C3.10464 4.62729 3.09534 4.65457 3.09534 4.69093V5.40911H2.34185V4.57275C2.34185 4.54547 2.33254 4.5182 2.30464 4.49093C2.27673 4.46366 2.25813 4.45457 2.22092 4.45457H1.29068C1.26278 4.45457 1.24417 4.46366 1.22557 4.47275C1.20696 4.49093 1.18836 4.50911 1.16975 4.53638L0.630219 5.80002L0.620916 5.80911C0.620916 5.8182 0.620916 5.82729 0.620916 5.83638V8.33638C0.620916 8.33638 0.620916 8.34548 0.620916 8.35457C0.620916 8.36366 0.620916 8.36366 0.630219 8.37275L0.639521 8.39093L1.16975 9.60002H1.18836L1.19766 9.63639C1.20696 9.66366 1.21627 9.68184 1.23487 9.69093C1.25347 9.70911 1.28138 9.70911 1.31859 9.70911H2.23022C2.24882 9.70911 2.26743 9.70911 2.27673 9.70002C2.29534 9.69093 2.30464 9.68184 2.31394 9.67275C2.32324 9.66366 2.33254 9.64548 2.34185 9.6273C2.35115 9.60911 2.35115 9.59093 2.35115 9.57275V8.76366ZM6.9651 9.87275H3.3651V8.6182C3.3651 8.60002 3.3651 8.58184 3.3558 8.57275C3.3465 8.55457 3.3372 8.53639 3.31859 8.52729L3.30929 8.5182C3.30929 8.5182 3.29999 8.50911 3.29068 8.50002C3.27208 8.49093 3.26278 8.49093 3.23487 8.49093H2.23022C2.19301 8.49093 2.1558 8.50002 2.12789 8.52729C2.09999 8.55457 2.09068 8.58184 2.09068 8.6182V9.43639H1.38371L0.890684 8.29093V5.87275L1.38371 4.73638H2.09068V5.55457C2.09068 5.59093 2.09999 5.6182 2.12789 5.64547C2.1558 5.67275 2.19301 5.68184 2.23022 5.68184H3.23487C3.27208 5.68184 3.30929 5.67275 3.3372 5.64547C3.3651 5.6182 3.3744 5.59093 3.3744 5.55457V4.83638H4.60231C4.64882 4.83638 4.66743 4.82729 4.69534 4.80002C4.71394 4.77275 4.73254 4.74547 4.73254 4.70911V3.46366H8.84417V4.00002C8.84417 4.03638 8.85347 4.07275 8.88138 4.10002C8.90929 4.12729 8.9372 4.13638 8.97441 4.13638H10.007V8.56366H8.57441C8.5558 8.56366 8.5372 8.56366 8.51859 8.57275C8.49999 8.58184 8.49068 8.59093 8.48138 8.60002L6.9651 9.87275ZM3.45813 9.78184H6.92789L8.41627 8.52729C8.43487 8.50911 8.46278 8.49093 8.48138 8.48184C8.50929 8.47275 8.5372 8.46366 8.5651 8.46366H9.89534V4.22729H8.9651C8.89999 4.22729 8.84417 4.20002 8.80696 4.15457C8.76975 4.10911 8.74185 4.05456 8.74185 3.99093V3.54547H4.81627V4.70002C4.81627 4.76366 4.79766 4.80911 4.76045 4.85457C4.72324 4.90002 4.66743 4.9182 4.60231 4.9182H3.45813V5.54547C3.45813 5.60911 3.43022 5.66366 3.38371 5.70002C3.3372 5.74547 3.28138 5.76366 3.21627 5.76366H2.23022C2.1651 5.76366 2.10929 5.74547 2.06278 5.70002C2.01627 5.65457 1.98836 5.60002 1.98836 5.54547V4.8182H1.43952L0.983707 5.89093V8.28184L1.43952 9.34548H1.98836V8.6182C1.98836 8.55457 2.01627 8.50002 2.06278 8.46366C2.10929 8.4182 2.1651 8.40002 2.23022 8.40002H3.24417C3.27208 8.40002 3.29999 8.40911 3.32789 8.4182C3.3558 8.42729 3.3744 8.44548 3.39301 8.47275C3.41161 8.49093 3.43022 8.50911 3.43952 8.53639C3.45813 8.56366 3.46743 8.59093 3.46743 8.62729V9.78184H3.45813Z" fill="#2D3E50"/>
</g>
</svg>
