<svg width="16" height="16" viewBox="0 0 16 16" fill="none" xmlns="http://www.w3.org/2000/svg">
<path d="M0.666687 7.3446C0.91018 6.75855 1.1583 6.17403 1.39572 5.58523C1.49289 5.34463 1.64644 5.23213 1.89774 5.24038C2.2491 5.2517 2.60133 5.24222 2.95298 5.24344C3.21527 5.24344 3.37432 5.41281 3.37605 5.69192C3.37779 5.97103 3.37605 6.25107 3.37605 6.55464C3.53886 6.55464 3.69155 6.56045 3.8428 6.54913C3.86853 6.54699 3.90786 6.47301 3.90931 6.43082C3.91625 6.23242 3.91133 6.0334 3.91278 5.83469C3.91509 5.55007 4.08629 5.36726 4.35494 5.36603C4.7358 5.3642 5.11636 5.36603 5.49722 5.36603H5.66957C5.67304 5.29847 5.67796 5.24375 5.67796 5.19055C5.67796 4.79313 5.67796 4.3957 5.67796 3.99828C5.67796 3.63143 5.80809 3.496 6.16003 3.49569H8.34337C8.53741 3.49569 8.54088 3.49569 8.53712 3.29912C8.53423 3.14351 8.57472 2.93807 8.49808 2.84728C8.43157 2.76871 8.22741 2.81671 8.08397 2.81518C7.71786 2.81243 7.35147 2.81518 6.98507 2.81518C6.75141 2.81518 6.60393 2.65835 6.60451 2.41775C6.60451 2.18266 6.76182 2.00168 6.97842 2.00138C8.27975 1.99954 9.58108 1.99954 10.8824 2.00138C10.9332 2.0002 10.9838 2.00975 11.031 2.02948C11.0783 2.04921 11.1214 2.07871 11.1578 2.11626C11.1941 2.15382 11.223 2.19866 11.2428 2.24818C11.2625 2.29769 11.2727 2.35087 11.2728 2.40461C11.2728 2.61372 11.09 2.81273 10.8815 2.81487C10.4093 2.81885 9.93678 2.81976 9.46454 2.81487C9.34655 2.81487 9.29855 2.84881 9.3078 2.97812C9.31665 3.10023 9.31665 3.22287 9.3078 3.34498C9.29912 3.46726 9.34655 3.50211 9.45789 3.5015C10.1953 3.49753 10.9327 3.51281 11.6699 3.49386C12.0203 3.48499 12.2155 3.6889 12.1866 4.05147C12.1771 4.16673 12.1849 4.28351 12.1849 4.4223H12.6765C12.8789 4.4223 13.0814 4.4223 13.2838 4.4223C13.5493 4.4223 13.704 4.58708 13.7046 4.86925C13.7046 5.74053 13.7074 6.61181 13.7022 7.48308C13.7022 7.62035 13.7332 7.67201 13.87 7.66437C14.0857 7.65245 14.302 7.66131 14.5299 7.66131C14.5345 7.57602 14.5415 7.50601 14.5417 7.436C14.5417 6.97254 14.5389 6.50878 14.5443 6.04532C14.5475 5.75337 14.6996 5.58003 14.9345 5.58125C15.0366 5.57919 15.1353 5.61975 15.2093 5.69415C15.2833 5.76854 15.3266 5.87077 15.3298 5.97868C15.3361 6.19757 15.3321 6.41676 15.3321 6.63596C15.3321 7.78237 15.3321 8.92879 15.3298 10.0749C15.332 10.1755 15.3134 10.2755 15.2754 10.3678C15.239 10.4434 15.1805 10.5046 15.1085 10.5422C15.0365 10.5798 14.955 10.5917 14.876 10.5763C14.6939 10.5347 14.5559 10.391 14.5519 10.199C14.5417 9.71538 14.5446 9.23114 14.5423 8.7475C14.5406 8.42926 14.5553 8.48184 14.2858 8.47756C14.1459 8.47542 14.0056 8.4852 13.8665 8.47511C13.7404 8.46594 13.7011 8.51027 13.702 8.64662C13.7074 9.50781 13.7051 10.3687 13.7048 11.2299C13.7048 11.5836 13.5553 11.7416 13.2208 11.7416C12.6759 11.7416 12.1314 11.7456 11.5869 11.7389C11.4723 11.7345 11.3606 11.7776 11.2757 11.859C10.7138 12.3635 10.1479 12.8612 9.58484 13.3659C9.47291 13.4711 9.32739 13.5274 9.17767 13.5236C7.57751 13.5202 5.97736 13.5194 4.37721 13.5215C4.06923 13.5215 3.93938 13.3842 3.93881 13.0577C3.93881 12.6349 3.93563 12.2121 3.94054 11.7893C3.94199 11.6713 3.907 11.6291 3.79277 11.6276C3.38791 11.6218 3.38791 11.6181 3.38791 12.037C3.38791 12.21 3.39138 12.3836 3.38386 12.5567C3.37374 12.7869 3.22857 12.9354 3.01255 12.9373C2.60769 12.9403 2.20283 12.9403 1.79798 12.9373C1.62244 12.9373 1.49867 12.8456 1.4284 12.6734C1.18587 12.0865 0.943051 11.4997 0.699943 10.9132C0.690602 10.8944 0.679458 10.8767 0.666687 10.8603V7.3446ZM2.5967 12.095C2.5967 11.8068 2.5967 11.5377 2.5967 11.2696C2.5967 10.9498 2.73349 10.7973 3.03482 10.7936C3.45375 10.7885 3.87297 10.7885 4.29248 10.7936C4.55708 10.7967 4.70746 10.9648 4.70832 11.2476C4.70832 11.6756 4.71324 12.1036 4.70601 12.5316C4.7037 12.6627 4.73493 12.7062 4.86593 12.7059C6.23464 12.701 7.60335 12.704 8.97235 12.6994C9.04712 12.6973 9.11928 12.6698 9.17824 12.6212C9.77946 12.095 10.3729 11.5591 10.9773 11.0373C11.0735 10.9572 11.1907 10.9105 11.313 10.9037C11.785 10.8887 12.2575 10.8921 12.73 10.9006C12.8659 10.9031 12.9105 10.8676 12.9102 10.7172C12.9053 8.95967 12.907 7.20152 12.9067 5.44429C12.9067 5.38988 12.9024 5.33516 12.8998 5.26912C12.8376 5.26637 12.7858 5.26148 12.7341 5.26148C12.4258 5.26148 12.1172 5.26148 11.8087 5.26148C11.5591 5.25964 11.4038 5.10006 11.3951 4.83623C11.3886 4.72425 11.3886 4.61194 11.3951 4.49995C11.4064 4.36391 11.3558 4.32447 11.2306 4.32631C10.8162 4.33303 10.4015 4.32875 9.98709 4.32875C8.87402 4.32875 7.76037 4.33089 6.6473 4.326C6.51052 4.326 6.46541 4.36422 6.46888 4.51432C6.479 4.92153 6.47264 5.32935 6.47235 5.73717C6.47235 6.0921 6.34771 6.22325 6.00965 6.22416C5.64326 6.22416 5.27715 6.22416 4.91075 6.22416C4.84916 6.22416 4.78785 6.2315 4.70832 6.23639C4.70832 6.48096 4.70832 6.71361 4.70832 6.94686C4.70832 7.21467 4.55188 7.39381 4.30115 7.39718C3.86738 7.40309 3.4336 7.40309 2.99982 7.39718C2.76125 7.39412 2.60422 7.22537 2.59815 6.97346C2.59265 6.73929 2.59815 6.50481 2.59555 6.27033C2.59555 6.21224 2.58485 6.15416 2.57848 6.0869C2.43389 6.0869 2.30318 6.09332 2.17363 6.08476C2.0753 6.07834 2.02903 6.1193 1.99057 6.21316C1.83875 6.59774 1.67767 6.97744 1.52556 7.36294C1.49465 7.44117 1.47797 7.52487 1.4764 7.60965C1.47293 8.59791 1.47293 9.58637 1.4764 10.575C1.47431 10.641 1.48413 10.7068 1.50532 10.7689C1.66938 11.1814 1.8374 11.5919 2.00937 12.0006C2.02043 12.0238 2.03628 12.0441 2.05575 12.06C2.07522 12.0758 2.09781 12.0869 2.12186 12.0923C2.26761 12.1015 2.41683 12.095 2.5967 12.095Z" fill="#2D3E50"/>
</svg>
