<svg width="24" height="24" viewBox="0 0 24 24" fill="none" xmlns="http://www.w3.org/2000/svg">
<path d="M1 11.0169C1.36524 10.1378 1.73742 9.26104 2.09355 8.37784C2.2393 8.01695 2.46963 7.8482 2.84659 7.86058C3.37362 7.87754 3.90196 7.86333 4.42944 7.86516C4.82287 7.86516 5.06145 8.11921 5.06405 8.53788C5.06665 8.95655 5.06405 9.3766 5.06405 9.83196C5.30827 9.83196 5.5373 9.84067 5.76416 9.8237C5.80277 9.82049 5.86176 9.70952 5.86393 9.64624C5.87434 9.34863 5.86697 9.0501 5.86914 8.75203C5.87261 8.32511 6.1294 8.05088 6.53238 8.04905C7.10367 8.0463 7.67452 8.04905 8.2458 8.04905H8.50433C8.50953 7.94771 8.51691 7.86562 8.51691 7.78583C8.51691 7.18969 8.51691 6.59356 8.51691 5.99742C8.51691 5.44714 8.71211 5.244 9.24001 5.24354H12.515C12.8061 5.24354 12.8113 5.24354 12.8057 4.94868C12.8013 4.71527 12.862 4.40711 12.7471 4.27092C12.6473 4.15307 12.3411 4.22506 12.1259 4.22277C11.5768 4.21864 11.0272 4.22277 10.4776 4.22277C10.1271 4.22277 9.90586 3.98752 9.90673 3.62663C9.90673 3.27399 10.1427 3.00252 10.4676 3.00206C12.4196 2.99931 14.3716 2.99931 16.3236 3.00206C16.3998 3.00029 16.4756 3.01462 16.5465 3.04422C16.6175 3.07381 16.6821 3.11807 16.7366 3.1744C16.7911 3.23073 16.8345 3.298 16.8641 3.37227C16.8938 3.44653 16.9091 3.52631 16.9092 3.60691C16.9092 3.92057 16.635 4.2191 16.3223 4.22231C15.6139 4.22827 14.9051 4.22965 14.1968 4.22231C14.0198 4.22231 13.9478 4.27321 13.9617 4.46718C13.9749 4.65034 13.9749 4.83431 13.9617 5.01746C13.9487 5.20089 14.0198 5.25317 14.1868 5.25225C15.2929 5.24629 16.3991 5.26922 17.5048 5.24079C18.0305 5.22749 18.3233 5.53335 18.2799 6.07721C18.2656 6.25009 18.2773 6.42526 18.2773 6.63345H19.0147C19.3184 6.63345 19.622 6.63345 19.9257 6.63345C20.3239 6.63345 20.5559 6.88062 20.5568 7.30388C20.5568 8.61079 20.5611 9.91771 20.5533 11.2246C20.5533 11.4305 20.5997 11.508 20.8049 11.4966C21.1285 11.4787 21.453 11.492 21.7948 11.492C21.8017 11.364 21.8122 11.259 21.8126 11.154C21.8126 10.4588 21.8082 9.76317 21.8165 9.06798C21.8213 8.63005 22.0494 8.37004 22.4017 8.37188C22.5548 8.36878 22.7029 8.42963 22.8139 8.54122C22.9249 8.65281 22.9899 8.80616 22.9946 8.96802C23.0042 9.29635 22.9981 9.62514 22.9981 9.95393C22.9981 11.6736 22.9981 13.3932 22.9946 15.1124C22.9979 15.2633 22.9701 15.4132 22.9131 15.5517C22.8585 15.6652 22.7707 15.757 22.6627 15.8133C22.5548 15.8697 22.4324 15.8876 22.314 15.8644C22.0408 15.802 21.8338 15.5865 21.8278 15.2985C21.8126 14.5731 21.8169 13.8467 21.8135 13.1213C21.8109 12.6439 21.833 12.7228 21.4287 12.7163C21.2187 12.7131 21.0084 12.7278 20.7997 12.7127C20.6106 12.6989 20.5516 12.7654 20.5529 12.9699C20.5611 14.2617 20.5577 15.553 20.5572 16.8448C20.5572 17.3754 20.333 17.6125 19.8311 17.6125C19.0139 17.6125 18.1971 17.6184 17.3803 17.6083C17.2084 17.6018 17.0409 17.6664 16.9135 17.7885C16.0707 18.5452 15.2218 19.2917 14.3772 20.0488C14.2093 20.2066 13.9911 20.2912 13.7665 20.2854C11.3662 20.2802 8.96601 20.2792 6.56578 20.2822C6.10381 20.2822 5.90905 20.0763 5.90818 19.5866C5.90818 18.9524 5.90341 18.3182 5.91078 17.684C5.91295 17.507 5.86046 17.4437 5.68912 17.4414C5.08183 17.4327 5.08183 17.4272 5.08183 18.0554C5.08183 18.315 5.08704 18.5754 5.07576 18.835C5.06058 19.1803 4.84282 19.4032 4.51879 19.4059C3.91151 19.4105 3.30422 19.4105 2.69693 19.4059C2.43363 19.4059 2.24797 19.2683 2.14257 19.0102C1.77877 18.1297 1.41455 17.2496 1.04988 16.3697C1.03587 16.3416 1.01916 16.315 1 16.2904V11.0169ZM3.89502 18.1426C3.89502 17.7101 3.89502 17.3066 3.89502 16.9044C3.89502 16.4248 4.1002 16.1959 4.55219 16.1904C5.18059 16.1828 5.80942 16.1828 6.43869 16.1904C6.83559 16.195 7.06116 16.4472 7.06246 16.8714C7.06246 17.5134 7.06983 18.1554 7.05899 18.7974C7.05552 18.9941 7.10237 19.0592 7.29887 19.0588C9.35193 19.0514 11.405 19.056 13.4585 19.0491C13.5707 19.0459 13.6789 19.0048 13.7673 18.9318C14.6692 18.1426 15.5593 17.3387 16.4659 16.5559C16.6102 16.4358 16.7861 16.3658 16.9695 16.3555C17.6774 16.3331 18.3862 16.3381 19.095 16.3509C19.2989 16.3546 19.3657 16.3014 19.3652 16.0758C19.3578 13.4395 19.3604 10.8023 19.36 8.16644C19.36 8.08482 19.3535 8.00273 19.3496 7.90368C19.2563 7.89956 19.1787 7.89222 19.101 7.89222C18.6386 7.89222 18.1758 7.89222 17.713 7.89222C17.3386 7.88947 17.1057 7.6501 17.0927 7.25435C17.0829 7.08637 17.0829 6.91791 17.0927 6.74993C17.1096 6.54587 17.0337 6.48671 16.8458 6.48946C16.2242 6.49955 15.6022 6.49313 14.9806 6.49313C13.311 6.49313 11.6405 6.49634 9.97093 6.489C9.76575 6.489 9.69808 6.54633 9.70329 6.77148C9.71847 7.38229 9.70893 7.99402 9.70849 8.60575C9.70849 9.13814 9.52153 9.33487 9.01445 9.33624C8.46486 9.33624 7.91569 9.33624 7.3661 9.33624C7.27371 9.33624 7.18175 9.34725 7.06246 9.35459C7.06246 9.72144 7.06246 10.0704 7.06246 10.4203C7.06246 10.822 6.82778 11.0907 6.4517 11.0958C5.80104 11.1046 5.15037 11.1046 4.49971 11.0958C4.14184 11.0912 3.9063 10.8381 3.89719 10.4602C3.88895 10.1089 3.89719 9.75721 3.89329 9.40549C3.89329 9.31836 3.87724 9.23123 3.86769 9.13035C3.65081 9.13035 3.45474 9.13998 3.26041 9.12714C3.11292 9.11751 3.04352 9.17896 2.98583 9.31974C2.7581 9.89661 2.51648 10.4662 2.28832 11.0444C2.24194 11.1618 2.21692 11.2873 2.21457 11.4145C2.20937 12.8969 2.20937 14.3796 2.21457 15.8626C2.21144 15.9615 2.22616 16.0602 2.25795 16.1533C2.50405 16.7721 2.75607 17.3879 3.01402 18.0009C3.03062 18.0357 3.05439 18.0661 3.0836 18.0899C3.1128 18.1137 3.14669 18.1303 3.18276 18.1384C3.40139 18.1522 3.62521 18.1426 3.89502 18.1426Z" fill="#2D3E50"/>
</svg>
