<svg width="12" height="12" viewBox="0 0 12 12" fill="none" xmlns="http://www.w3.org/2000/svg">
<path d="M0.5 5.50845C0.68262 5.06891 0.86871 4.63052 1.04677 4.18892C1.11965 4.00847 1.23482 3.9241 1.42329 3.93029C1.68681 3.93877 1.95098 3.93166 2.21472 3.93258C2.41144 3.93258 2.53072 4.0596 2.53202 4.26894C2.53333 4.47828 2.53202 4.6883 2.53202 4.91598C2.65413 4.91598 2.76865 4.92033 2.88208 4.91185C2.90139 4.91025 2.93088 4.85476 2.93197 4.82312C2.93717 4.67431 2.93348 4.52505 2.93457 4.37602C2.9363 4.16255 3.0647 4.02544 3.26619 4.02452C3.55183 4.02315 3.83726 4.02452 4.1229 4.02452H4.25216C4.25477 3.97385 4.25845 3.93281 4.25845 3.89292C4.25845 3.59485 4.25845 3.29678 4.25845 2.99871C4.25845 2.72357 4.35605 2.622 4.62001 2.62177H6.25751C6.40304 2.62177 6.40565 2.62177 6.40283 2.47434C6.40066 2.35763 6.43102 2.20356 6.37355 2.13546C6.32366 2.07653 6.17054 2.11253 6.06296 2.11138C5.78838 2.10932 5.51359 2.11138 5.23879 2.11138C5.06354 2.11138 4.95293 1.99376 4.95336 1.81332C4.95336 1.637 5.07135 1.50126 5.2338 1.50103C6.2098 1.49966 7.18579 1.49966 8.16179 1.50103C8.1999 1.50015 8.2378 1.50731 8.27326 1.52211C8.30873 1.5369 8.34104 1.55903 8.36831 1.5872C8.39557 1.61536 8.41725 1.649 8.43207 1.68613C8.44688 1.72327 8.45454 1.76315 8.45459 1.80346C8.45459 1.96029 8.31752 2.10955 8.16114 2.11115C7.80696 2.11414 7.45257 2.11482 7.09839 2.11115C7.0099 2.11115 6.97389 2.13661 6.98083 2.23359C6.98747 2.32517 6.98747 2.41715 6.98083 2.50873C6.97433 2.60045 7.0099 2.62658 7.0934 2.62612C7.64646 2.62314 8.19953 2.63461 8.75238 2.62039C9.01524 2.61374 9.16164 2.76668 9.13996 3.03861C9.1328 3.12505 9.13865 3.21263 9.13865 3.31673H9.50736C9.65919 3.31673 9.81101 3.31673 9.96283 3.31673C10.1619 3.31673 10.278 3.44031 10.2784 3.65194C10.2784 4.3054 10.2806 4.95885 10.2767 5.61231C10.2767 5.71526 10.2999 5.75401 10.4025 5.74828C10.5643 5.73933 10.7265 5.74598 10.8974 5.74598C10.9009 5.68201 10.9061 5.62951 10.9063 5.577C10.9063 5.22941 10.9041 4.88159 10.9082 4.53399C10.9106 4.31503 11.0247 4.18502 11.2008 4.18594C11.2774 4.18439 11.3515 4.21481 11.407 4.27061C11.4625 4.32641 11.4949 4.40308 11.4973 4.48401C11.5021 4.64817 11.499 4.81257 11.499 4.97697C11.499 5.83678 11.499 6.69659 11.4973 7.55618C11.499 7.63165 11.4851 7.70661 11.4565 7.77583C11.4293 7.83258 11.3854 7.87848 11.3314 7.90666C11.2774 7.93485 11.2162 7.9438 11.157 7.9322C11.0204 7.90102 10.9169 7.79325 10.9139 7.64926C10.9063 7.28654 10.9085 6.92335 10.9067 6.56063C10.9054 6.32194 10.9165 6.36138 10.7143 6.35817C10.6094 6.35657 10.5042 6.3639 10.3999 6.35634C10.3053 6.34946 10.2758 6.3827 10.2764 6.48496C10.2806 7.13086 10.2788 7.77652 10.2786 8.42241C10.2786 8.68769 10.1665 8.80623 9.91555 8.80623C9.50693 8.80623 9.09853 8.80921 8.69013 8.80417C8.6042 8.80088 8.52046 8.83321 8.45676 8.89427C8.03534 9.27259 7.61089 9.64586 7.18861 10.0244C7.10466 10.1033 6.99553 10.1456 6.88323 10.1427C5.68312 10.1401 4.48301 10.1396 3.28289 10.1411C3.05191 10.1411 2.95452 10.0382 2.95409 9.79329C2.95409 9.47619 2.9517 9.1591 2.95539 8.842C2.95648 8.75349 2.93023 8.72185 2.84456 8.72071C2.54092 8.71635 2.54092 8.7136 2.54092 9.02772C2.54092 9.15749 2.54352 9.28772 2.53788 9.4175C2.53029 9.59015 2.42141 9.70158 2.2594 9.70296C1.95575 9.70525 1.65211 9.70525 1.34847 9.70296C1.21682 9.70296 1.12399 9.63417 1.07128 9.50508C0.889386 9.06486 0.707273 8.62479 0.524942 8.18487C0.517936 8.17078 0.509578 8.15749 0.5 8.1452V5.50845ZM1.94751 9.07128C1.94751 8.85507 1.94751 8.6533 1.94751 8.45222C1.94751 8.21239 2.0501 8.09797 2.2761 8.09522C2.5903 8.0914 2.90471 8.0914 3.21934 8.09522C3.4178 8.09751 3.53058 8.22362 3.53123 8.43571C3.53123 8.7567 3.53492 9.0777 3.52949 9.3987C3.52776 9.49706 3.55118 9.52962 3.64943 9.52939C4.67596 9.52572 5.7025 9.52801 6.72924 9.52457C6.78533 9.52295 6.83944 9.50238 6.88367 9.46588C7.33458 9.07128 7.77963 8.66935 8.23293 8.27796C8.30508 8.2179 8.39303 8.1829 8.48474 8.17776C8.8387 8.16653 9.19309 8.16905 9.54749 8.17547C9.64943 8.1773 9.68283 8.15071 9.68261 8.0379C9.67892 6.71975 9.68022 5.40114 9.68001 4.08322C9.68001 4.04241 9.67675 4.00137 9.6748 3.95184C9.62817 3.94978 9.58935 3.94611 9.55053 3.94611C9.31932 3.94611 9.0879 3.94611 8.85648 3.94611C8.66931 3.94473 8.55284 3.82505 8.54633 3.62718C8.54144 3.54319 8.54144 3.45896 8.54633 3.37496C8.55479 3.27293 8.51684 3.24336 8.42292 3.24473C8.11212 3.24978 7.8011 3.24657 7.4903 3.24657C6.6555 3.24657 5.82027 3.24817 4.98546 3.2445C4.88288 3.2445 4.84904 3.27316 4.85164 3.38574C4.85923 3.69115 4.85446 3.99701 4.85425 4.30287C4.85425 4.56907 4.76077 4.66743 4.50723 4.66812C4.23243 4.66812 3.95785 4.66812 3.68305 4.66812C3.63685 4.66812 3.59087 4.67363 3.53123 4.67729C3.53123 4.86072 3.53123 5.03521 3.53123 5.21015C3.53123 5.411 3.41389 5.54536 3.22585 5.54788C2.90052 5.55232 2.57519 5.55232 2.24985 5.54788C2.07092 5.54559 1.95315 5.41903 1.9486 5.2301C1.94447 5.05447 1.9486 4.8786 1.94664 4.70274C1.94664 4.65918 1.93862 4.61562 1.93385 4.56517C1.8254 4.56517 1.72737 4.56999 1.6302 4.56357C1.55646 4.55875 1.52176 4.58948 1.49291 4.65987C1.37905 4.94831 1.25824 5.23308 1.14416 5.5222C1.12097 5.58088 1.10846 5.64365 1.10729 5.70723C1.10468 6.44843 1.10468 7.18978 1.10729 7.93128C1.10572 7.98075 1.11308 8.03009 1.12898 8.07665C1.25202 8.38603 1.37804 8.69396 1.50701 9.00043C1.51531 9.01784 1.5272 9.03306 1.5418 9.04496C1.5564 9.05687 1.57334 9.06516 1.59138 9.06922C1.70069 9.0761 1.81261 9.07128 1.94751 9.07128Z" fill="#2D3E50"/>
</svg>
