<svg width="24" height="24" viewBox="0 0 24 24" fill="none" xmlns="http://www.w3.org/2000/svg">
<path d="M2.26513 9.05455C2.30234 8.98183 2.33955 8.92728 2.39537 8.89092C2.45118 8.85456 2.5256 8.83637 2.58141 8.83637H2.60002H4.42327C4.49769 8.83637 4.59071 8.87274 4.64653 8.94546C4.72095 9.01819 4.73955 9.09092 4.73955 9.16365V9.18183V9.20001V10.7273H6.09769V9.38183C6.09769 9.27274 6.1349 9.20001 6.19071 9.12728C6.26513 9.05455 6.33955 9.01819 6.43257 9.00001H8.79536V6.63637C8.79536 6.58183 8.79536 6.54546 8.81397 6.49092C8.83257 6.45456 8.85118 6.41819 8.88839 6.38183C8.9256 6.34546 8.96281 6.32728 9.01862 6.3091C9.07443 6.29092 9.11164 6.29092 9.14885 6.29092H9.16746H13.1675V4.81819H10.5442H10.5256H10.507C10.4326 4.81819 10.3582 4.78183 10.3023 4.72728C10.2465 4.67274 10.2279 4.60001 10.2279 4.5091V4.49092V4.43637C10.2279 4.34546 10.2651 4.27274 10.3209 4.21819C10.3954 4.14546 10.4698 4.1091 10.5442 4.1091H16.5535C16.6465 4.12728 16.7395 4.16365 16.7954 4.23637C16.8512 4.3091 16.8884 4.38183 16.8884 4.49092C16.8698 4.58183 16.8326 4.65455 16.7582 4.7091C16.6837 4.78183 16.6093 4.81819 16.5349 4.81819H13.893V6.29092H17.9302C17.9861 6.29092 18.0233 6.29092 18.0605 6.3091C18.0977 6.32728 18.1349 6.34546 18.1721 6.38183C18.2093 6.41819 18.2279 6.45456 18.2651 6.49092C18.2837 6.52728 18.3023 6.58183 18.3023 6.63637V7.63637H20.2744C20.3675 7.63637 20.4605 7.67274 20.5163 7.74546C20.5907 7.81819 20.6093 7.89092 20.6093 8.00001V12.3455H22.3954V9.69092C22.3954 9.58183 22.4326 9.5091 22.4884 9.43637C22.5628 9.36365 22.6372 9.32728 22.7302 9.32728C22.8233 9.32728 22.9163 9.36365 22.9907 9.43637C23.0651 9.5091 23.1023 9.60001 23.1023 9.69092V15.7091C23.1023 15.8182 23.0651 15.8909 22.9907 15.9636C22.9163 16.0364 22.8233 16.0727 22.7302 16.0727C22.6372 16.0546 22.5442 16.0182 22.4884 15.9455C22.414 15.8727 22.3954 15.8 22.3954 15.6909V13.0364H20.6093V17.3818C20.6093 17.4909 20.5721 17.5636 20.5163 17.6364C20.4419 17.7091 20.3675 17.7455 20.2744 17.7455H17.2791L14.2651 20.2727L14.1721 20.3273C14.1721 20.3273 14.1349 20.3273 14.0791 20.3455H14.0419H14.0233H6.45118C6.37676 20.3455 6.28374 20.3091 6.22792 20.2364C6.1535 20.1636 6.1349 20.0909 6.1349 20.0182V17.6182H4.79537V19.1455V19.1636C4.79537 19.2182 4.79536 19.2546 4.77676 19.3091C4.75816 19.3455 4.73955 19.3818 4.70234 19.4182C4.66513 19.4546 4.62792 19.4727 4.59071 19.4909C4.5535 19.5091 4.49769 19.5091 4.46048 19.5091H2.63723C2.56281 19.5091 2.48839 19.4909 2.43257 19.4546C2.37676 19.4182 2.33955 19.3636 2.32095 19.2909H2.30234L1.18606 16.8182C1.16746 16.8 1.14885 16.7818 1.14885 16.7636C1.14885 16.7455 1.13025 16.7091 1.13025 16.7091V16.6909V16.6727V11.6909C1.13025 11.6546 1.13025 11.6364 1.14885 11.6C1.14885 11.5818 1.16746 11.5455 1.18606 11.5455L2.26513 9.05455ZM1.87444 16.5818L2.82327 18.7818H4.06978V17.2364C4.06978 17.1273 4.10699 17.0546 4.18141 16.9818C4.25583 16.9091 4.34885 16.8727 4.44188 16.8727H6.45118H6.46978H6.48839C6.5442 16.8727 6.58141 16.8727 6.61862 16.8909C6.65583 16.9091 6.69304 16.9273 6.71164 16.9636C6.74885 17 6.76746 17.0364 6.80467 17.0727C6.82327 17.1091 6.84188 17.1636 6.84188 17.2182V19.6364H13.9116L16.9256 17.1091C16.9628 17.0727 17 17.0546 17.0372 17.0364C17.0744 17.0182 17.1302 17.0182 17.1675 17.0182H19.9209V8.36365H17.9302C17.8372 8.36365 17.7442 8.32728 17.6884 8.25456C17.614 8.18183 17.5954 8.09092 17.5954 8.00001V7.01819H9.53955V9.40001V9.41819V9.43637C9.53955 9.54546 9.50234 9.61819 9.44653 9.69092C9.39071 9.76365 9.31629 9.80001 9.20467 9.80001H9.18606H9.14885H9.16746H6.82327V11.1455C6.82327 11.2546 6.78606 11.3273 6.71164 11.4C6.63723 11.4727 6.5442 11.5091 6.45118 11.5091H4.46048C4.36746 11.5091 4.27443 11.4727 4.20002 11.4C4.1256 11.3273 4.08839 11.2546 4.08839 11.1455V9.60001H2.84188L1.87444 11.7636V16.5818Z" fill="#2D3E50"/>
<mask id="mask0" mask-type="alpha" maskUnits="userSpaceOnUse" x="1" y="4" width="23" height="17">
<path d="M23.3256 4H1V20.5455H23.3256V4Z" fill="white"/>
<path d="M2.2651 9.05457C2.30231 8.98184 2.33952 8.9273 2.39533 8.89093C2.45115 8.85457 2.52557 8.83639 2.58138 8.83639H2.59999H4.42324C4.49766 8.83639 4.59068 8.87275 4.6465 8.94548C4.72092 9.01821 4.73952 9.09093 4.73952 9.16366V9.18184V9.20002V10.7273H6.09766V9.38184C6.09766 9.27275 6.13487 9.20003 6.19068 9.1273C6.2651 9.05457 6.33952 9.01821 6.43254 9.00002H8.79534V6.63639C8.79534 6.58184 8.79534 6.54548 8.81394 6.49093C8.83254 6.45457 8.85115 6.41821 8.88836 6.38184C8.92557 6.34548 8.96278 6.3273 9.01859 6.30912C9.07441 6.29093 9.11161 6.29093 9.14882 6.29093H9.16743H13.1674V4.81821H10.5442H10.5256H10.507C10.4325 4.81821 10.3581 4.78184 10.3023 4.7273C10.2465 4.67275 10.2279 4.60002 10.2279 4.50912V4.49093V4.43639C10.2279 4.34548 10.2651 4.27275 10.3209 4.21821C10.3953 4.14548 10.4698 4.10912 10.5442 4.10912H16.5535C16.6465 4.1273 16.7395 4.16366 16.7953 4.23639C16.8511 4.30912 16.8884 4.38184 16.8884 4.49093C16.8698 4.58184 16.8325 4.65457 16.7581 4.70912C16.6837 4.78184 16.6093 4.81821 16.5349 4.81821H13.893V6.29093H17.9302C17.986 6.29093 18.0232 6.29093 18.0605 6.30912C18.0977 6.3273 18.1349 6.34548 18.1721 6.38184C18.2093 6.41821 18.2279 6.45457 18.2651 6.49093C18.2837 6.5273 18.3023 6.58184 18.3023 6.63639V7.63639H20.2744C20.3674 7.63639 20.4605 7.67275 20.5163 7.74548C20.5907 7.81821 20.6093 7.89093 20.6093 8.00002V12.3455H22.3953V9.69093C22.3953 9.58184 22.4325 9.50912 22.4884 9.43639C22.5628 9.36366 22.6372 9.3273 22.7302 9.3273C22.8232 9.3273 22.9163 9.36366 22.9907 9.43639C23.0651 9.50912 23.1023 9.60002 23.1023 9.69093V15.7091C23.1023 15.8182 23.0651 15.8909 22.9907 15.9637C22.9163 16.0364 22.8232 16.0728 22.7302 16.0728C22.6372 16.0546 22.5442 16.0182 22.4884 15.9455C22.4139 15.8728 22.3953 15.8 22.3953 15.6909V13.0364H20.6093V17.3818C20.6093 17.4909 20.5721 17.5637 20.5163 17.6364C20.4418 17.7091 20.3674 17.7455 20.2744 17.7455H17.2791L14.2651 20.2728L14.1721 20.3273C14.1721 20.3273 14.1349 20.3273 14.0791 20.3455H14.0418H14.0232H6.45115C6.37673 20.3455 6.28371 20.3091 6.22789 20.2364C6.15347 20.1637 6.13487 20.0909 6.13487 20.0182V17.6182H4.79534V19.1455V19.1637C4.79534 19.2182 4.79533 19.2546 4.77673 19.3091C4.75813 19.3455 4.73952 19.3818 4.70231 19.4182C4.6651 19.4546 4.62789 19.4728 4.59068 19.4909C4.55347 19.5091 4.49766 19.5091 4.46045 19.5091H2.6372C2.56278 19.5091 2.48836 19.4909 2.43254 19.4546C2.37673 19.4182 2.33952 19.3637 2.32092 19.2909H2.30231L1.18603 16.8182C1.16743 16.8 1.14882 16.7818 1.14882 16.7637C1.14882 16.7455 1.13022 16.7091 1.13022 16.7091V16.6909V16.6728V11.6909C1.13022 11.6546 1.13022 11.6364 1.14882 11.6C1.14882 11.5818 1.16743 11.5455 1.18603 11.5455L2.2651 9.05457ZM1.8744 16.5818L2.82324 18.7818H4.06975V17.2364C4.06975 17.1273 4.10696 17.0546 4.18138 16.9818C4.2558 16.9091 4.34882 16.8728 4.44185 16.8728H6.45115H6.46975H6.48836C6.54417 16.8728 6.58138 16.8728 6.61859 16.8909C6.6558 16.9091 6.69301 16.9273 6.71161 16.9637C6.74882 17 6.76743 17.0364 6.80464 17.0728C6.82324 17.1091 6.84185 17.1637 6.84185 17.2182V19.6364H13.9116L16.9256 17.1091C16.9628 17.0728 17 17.0546 17.0372 17.0364C17.0744 17.0182 17.1302 17.0182 17.1674 17.0182H19.9209V8.36366H17.9302C17.8372 8.36366 17.7442 8.3273 17.6884 8.25457C17.6139 8.18184 17.5953 8.09093 17.5953 8.00002V7.01821H9.53952V9.40002V9.41821V9.43639C9.53952 9.54548 9.50231 9.61821 9.4465 9.69093C9.39068 9.76366 9.31627 9.80002 9.20464 9.80002H9.18603H9.14882H9.16743H6.82324V11.1455C6.82324 11.2546 6.78603 11.3273 6.71161 11.4C6.6372 11.4728 6.54417 11.5091 6.45115 11.5091H4.46045C4.36743 11.5091 4.2744 11.4728 4.19999 11.4C4.12557 11.3273 4.08836 11.2546 4.08836 11.1455V9.60002H2.84185L1.8744 11.7637V16.5818Z" fill="black"/>
</mask>
<g mask="url(#mask0)">
<path d="M14.0791 20.4546H6.45117C6.33954 20.4546 6.24651 20.4182 6.15349 20.3273C6.06047 20.2364 6.02326 20.1455 6.02326 20.0364V17.7091H4.88838V19.1637C4.88838 19.2182 4.86977 19.2909 4.85117 19.3273C4.83256 19.3818 4.79535 19.4364 4.75814 19.4728C4.72093 19.5091 4.66512 19.5455 4.60931 19.5637C4.55349 19.5818 4.49768 19.6 4.44186 19.6H2.61861C2.50698 19.6 2.43256 19.5818 2.35814 19.5273C2.30233 19.4909 2.26512 19.4364 2.22791 19.3818H2.20931L1.11163 16.8546C1.09303 16.8364 1.07442 16.8182 1.07442 16.7818C1.05582 16.7455 1.05582 16.7091 1.05582 16.6909V11.6909C1.05582 11.6546 1.05582 11.6182 1.07442 11.5818C1.09303 11.5455 1.09303 11.5273 1.11163 11.4909L2.1907 9.01821C2.22791 8.94548 2.28372 8.87275 2.35814 8.81821C2.43256 8.76366 2.50698 8.74548 2.6 8.74548H4.46047C4.5721 8.74548 4.66512 8.78184 4.75814 8.87275C4.85117 8.96366 4.88838 9.05457 4.88838 9.16366V10.6546H6.02326V9.40002C6.02326 9.27275 6.06047 9.16366 6.15349 9.09093C6.22791 9.01821 6.33954 8.96366 6.45117 8.94548H8.72093V6.63639C8.72093 6.58184 8.73954 6.50911 8.75814 6.47275C8.77675 6.4182 8.81396 6.36366 8.85117 6.3273C8.88837 6.29093 8.94419 6.25457 9.01861 6.23639C9.07442 6.2182 9.13024 6.20002 9.16745 6.20002H13.1116V4.90911H10.507C10.3954 4.90911 10.3023 4.87275 10.2279 4.78184C10.1721 4.70911 10.1349 4.6182 10.1349 4.50911V4.43639C10.1349 4.32729 10.1721 4.23639 10.2651 4.14548C10.3581 4.05457 10.4512 4.0182 10.5628 4.0182H16.5721C16.7023 4.03639 16.814 4.09093 16.8884 4.18184C16.9628 4.27275 17 4.36366 17 4.49093C16.9814 4.60002 16.9256 4.70911 16.8512 4.78184C16.7581 4.87275 16.6651 4.90911 16.5535 4.90911H13.9861V6.20002H17.9302C17.986 6.20002 18.0419 6.2182 18.0977 6.23639C18.1535 6.25457 18.1907 6.29093 18.2465 6.3273C18.2837 6.36366 18.3209 6.4182 18.3395 6.45457C18.3767 6.50911 18.3954 6.56366 18.3954 6.63639V7.54548H20.2744C20.4047 7.54548 20.4977 7.58184 20.5907 7.67275C20.6837 7.76366 20.7209 7.85457 20.7209 7.98184V12.2364H22.3209V9.69093C22.3209 9.56366 22.3581 9.45457 22.4512 9.36366C22.6186 9.18184 22.9163 9.16366 23.1023 9.36366C23.1954 9.45457 23.2326 9.56366 23.2326 9.69093V15.7091C23.2326 15.8364 23.1767 15.9455 23.0837 16.0364C22.9907 16.1273 22.8791 16.1818 22.7488 16.1818C22.6186 16.1637 22.507 16.1091 22.4326 16.0364C22.3395 15.9455 22.3023 15.8546 22.3023 15.7273V13.1273H20.7023V17.3818C20.7023 17.5091 20.6651 17.6182 20.5721 17.7091C20.4791 17.8 20.386 17.8546 20.2558 17.8546H17.2791L14.3209 20.3637L14.2093 20.4182L14.0791 20.4546ZM4.70233 17.5273H6.20931V20.0364C6.20931 20.0909 6.22791 20.1455 6.28372 20.2C6.33954 20.2546 6.37675 20.2728 6.45117 20.2728H14.0605L14.1349 20.2546L14.2093 20.2182L17.2419 17.6728H20.2744C20.3488 17.6728 20.4047 17.6546 20.4605 17.6C20.5163 17.5455 20.5349 17.4728 20.5349 17.4V12.9455H22.507V15.7091C22.507 15.7818 22.5256 15.8546 22.5814 15.8909C22.6372 15.9455 22.693 15.9818 22.7861 15.9818C22.8419 15.9818 22.9163 15.9455 22.9721 15.8909C23.0279 15.8364 23.0651 15.7637 23.0651 15.6909V9.69093C23.0651 9.61821 23.0279 9.54548 22.9721 9.49093C22.8605 9.38184 22.693 9.38184 22.6 9.49093C22.5442 9.54548 22.5256 9.61821 22.5256 9.69093V12.4364H20.5535V7.98184C20.5535 7.90911 20.5349 7.83639 20.4791 7.80002C20.4233 7.74548 20.3674 7.7273 20.293 7.7273H18.2093V6.63639C18.2093 6.60002 18.2093 6.56366 18.1907 6.54548C18.1721 6.50911 18.1535 6.47275 18.1163 6.45457C18.0977 6.43639 18.0605 6.4182 18.0419 6.40002C18.0047 6.38184 17.986 6.38184 17.9302 6.38184H13.8V4.72729H16.5535C16.6093 4.72729 16.6651 4.70911 16.7209 4.65457C16.7767 4.60002 16.814 4.54548 16.814 4.47275C16.814 4.4182 16.7954 4.34548 16.7395 4.29093C16.7023 4.23639 16.6279 4.2182 16.5535 4.20002H10.5628C10.507 4.20002 10.4512 4.2182 10.3954 4.27275C10.3395 4.32729 10.3209 4.38184 10.3209 4.43639V4.50911C10.3209 4.56366 10.3395 4.6182 10.3767 4.65457C10.414 4.69093 10.4512 4.70911 10.507 4.70911H13.2791V6.36366H9.16745C9.14884 6.36366 9.13024 6.36366 9.07442 6.38184C9.03721 6.40002 9 6.41821 8.9814 6.43639C8.96279 6.45457 8.94419 6.49093 8.92558 6.5273C8.90698 6.56366 8.90698 6.60002 8.90698 6.63639V9.10911H6.45117C6.37675 9.1273 6.32093 9.14548 6.26512 9.20002C6.20931 9.25457 6.1907 9.30911 6.1907 9.38184V10.8182H4.68372V9.14548C4.68372 9.09093 4.66512 9.03639 4.60931 8.98184C4.55349 8.9273 4.51628 8.90911 4.44186 8.90911H2.5814C2.52558 8.90911 2.48837 8.9273 2.45117 8.94548C2.41396 8.98184 2.37675 9.01821 2.33954 9.07275L1.26047 11.6L1.24186 11.6182C1.24186 11.6364 1.24186 11.6546 1.24186 11.6728V16.6728C1.24186 16.6728 1.24186 16.6909 1.24186 16.7091C1.24186 16.7273 1.24186 16.7273 1.26047 16.7455L1.27907 16.7818L2.33954 19.2H2.37675L2.39535 19.2728C2.41396 19.3273 2.43256 19.3637 2.46977 19.3818C2.50698 19.4182 2.56279 19.4182 2.63721 19.4182H4.46047C4.49768 19.4182 4.53489 19.4182 4.55349 19.4C4.5907 19.3818 4.60931 19.3637 4.62791 19.3455C4.64651 19.3273 4.66512 19.2909 4.68372 19.2546C4.70233 19.2182 4.70233 19.1818 4.70233 19.1455V17.5273ZM13.9302 19.7455H6.73024V17.2364C6.73024 17.2 6.73024 17.1637 6.71163 17.1455C6.69303 17.1091 6.67442 17.0728 6.63721 17.0546L6.61861 17.0364C6.61861 17.0364 6.6 17.0182 6.5814 17C6.54419 16.9818 6.52558 16.9818 6.46977 16.9818H4.46047C4.38605 16.9818 4.31163 17 4.25582 17.0546C4.2 17.1091 4.1814 17.1637 4.1814 17.2364V18.8728H2.76744L1.7814 16.5818V11.7455L2.76744 9.47275H4.1814V11.1091C4.1814 11.1818 4.2 11.2364 4.25582 11.2909C4.31163 11.3455 4.38605 11.3637 4.46047 11.3637H6.46977C6.54419 11.3637 6.61861 11.3455 6.67442 11.2909C6.73024 11.2364 6.74884 11.1818 6.74884 11.1091V9.67275H9.20465C9.29768 9.67275 9.33489 9.65457 9.3907 9.60002C9.42791 9.54548 9.46512 9.49093 9.46512 9.41821V6.9273H17.6884V8.00002C17.6884 8.07275 17.707 8.14548 17.7628 8.20002C17.8186 8.25457 17.8744 8.27275 17.9488 8.27275H20.014V17.1273H17.1488C17.1116 17.1273 17.0744 17.1273 17.0372 17.1455C17 17.1637 16.9814 17.1818 16.9628 17.2L13.9302 19.7455ZM6.91628 19.5637H13.8558L16.8326 17.0546C16.8698 17.0182 16.9256 16.9818 16.9628 16.9637C17.0186 16.9455 17.0744 16.9273 17.1302 16.9273H19.7907V8.45457H17.9302C17.8 8.45457 17.6884 8.40002 17.614 8.30911C17.5395 8.21821 17.4837 8.10911 17.4837 7.98184V7.09093H9.63256V9.40002C9.63256 9.5273 9.59535 9.61821 9.52093 9.70912C9.44652 9.80002 9.33489 9.83639 9.20465 9.83639H6.91628V11.0909C6.91628 11.2182 6.86047 11.3273 6.76744 11.4C6.67442 11.4909 6.56279 11.5273 6.43256 11.5273H4.46047C4.33024 11.5273 4.21861 11.4909 4.12558 11.4C4.03256 11.3091 3.97675 11.2 3.97675 11.0909V9.63639H2.87907L1.96744 11.7818V16.5637L2.87907 18.6909H3.97675V17.2364C3.97675 17.1091 4.03256 17 4.12558 16.9273C4.21861 16.8364 4.33024 16.8 4.46047 16.8H6.48838C6.54419 16.8 6.6 16.8182 6.65582 16.8364C6.71163 16.8546 6.74884 16.8909 6.78605 16.9455C6.82326 16.9818 6.86047 17.0182 6.87907 17.0728C6.91628 17.1273 6.93489 17.1818 6.93489 17.2546V19.5637H6.91628Z" fill="#2D3E50"/>
</g>
</svg>
