<svg width="16" height="16" viewBox="0 0 16 16" fill="none" xmlns="http://www.w3.org/2000/svg">
<path d="M3.87049 0.666893C3.91919 0.68106 3.97143 0.689029 4.01548 0.711165C4.139 0.774474 4.27292 0.8276 4.37696 0.915259C4.54652 1.05826 4.6986 1.22273 4.85244 1.38343C5.08192 1.62354 5.15976 1.90702 5.08598 2.2339C5.07659 2.27857 5.0851 2.32514 5.10966 2.36362C5.37924 2.70943 5.52084 3.13788 5.51043 3.57624C5.50002 4.01459 5.33824 4.43583 5.05255 4.76847C5.04834 4.77334 5.04591 4.7802 5.04768 4.7771C5.23783 4.96526 5.42621 5.1512 5.62698 5.34954C5.75979 5.21539 5.90766 5.06531 6.0562 4.91545C6.20473 4.76559 6.37827 4.64849 6.58259 4.58872C7.06825 4.44639 7.51075 4.5336 7.87267 4.8911C8.8544 5.86066 9.82662 6.83907 10.8028 7.81482C11.3868 8.39788 11.9711 8.98079 12.5558 9.56356C12.9615 9.96821 13.0744 10.4421 12.8825 10.9829C12.8573 11.0544 12.8924 11.083 12.9307 11.121C13.4565 11.6461 13.9823 12.1712 14.5079 12.6962C14.7917 12.9796 14.8966 13.3245 14.7461 13.6924C14.5732 14.1147 14.2607 14.4164 13.7792 14.4642C13.4883 14.493 13.2395 14.3757 13.0326 14.167C12.5354 13.6667 12.0353 13.1691 11.5377 12.6695C11.5085 12.6347 11.4821 12.5977 11.4587 12.5588L11.3584 12.644L11.9187 13.2074C12.042 13.3309 12.1662 13.4537 12.289 13.5779C12.6742 13.9677 12.6726 14.5271 12.289 14.9174C12.1248 15.0845 11.9605 15.2465 11.7206 15.303C11.3965 15.3789 11.1045 15.3145 10.8646 15.0865C10.5396 14.7766 10.2268 14.4558 9.91073 14.1375C9.86491 14.0915 9.82905 14.0746 9.76021 14.0988C9.23957 14.2803 8.77272 14.1822 8.3818 13.7935C7.18956 12.6084 6.00012 11.4204 4.81348 10.2296C4.4447 9.86055 4.07591 9.49243 3.70713 9.12527C3.16944 8.5867 3.16922 7.80198 3.70713 7.26585C3.84747 7.12595 3.98936 6.98738 4.13922 6.83973C4.10469 6.80232 4.07879 6.77332 4.05068 6.74432C3.85743 6.54864 3.65334 6.36403 3.47293 6.15905C2.90337 5.51002 2.84382 4.59293 3.31222 3.86488C3.32661 3.84274 3.33967 3.81861 3.36158 3.78165C3.29208 3.77368 3.23209 3.77146 3.17387 3.75951C2.99813 3.72506 2.83666 3.63897 2.71012 3.51225C2.57199 3.37412 2.43519 3.23511 2.29574 3.09853C2.14964 2.95509 2.05335 2.78663 2.02214 2.58254C2.01678 2.56686 2.00933 2.55197 2 2.53827V2.35166C2.00717 2.32227 2.01597 2.2933 2.02634 2.26489C2.06729 2.16882 2.08766 2.05128 2.15628 1.98177C2.46618 1.66788 2.78693 1.36462 3.1099 1.06379C3.28101 0.904191 3.42135 0.695006 3.68543 0.666672L3.87049 0.666893ZM7.61147 5.54433L4.35328 8.8302L8.65274 13.1434L11.926 9.86749L7.61147 5.54433ZM4.66539 2.82869C4.47945 3.01486 4.3048 3.18796 4.13413 3.36438C4.12553 3.37598 4.11967 3.38937 4.11699 3.40356C4.1143 3.41774 4.11487 3.43235 4.11863 3.44629C4.20231 3.6838 4.13391 3.87639 3.96612 4.0537C3.56147 4.48136 3.50591 5.16049 3.86407 5.62845C4.07237 5.90072 4.33202 6.13359 4.55648 6.37155L5.13401 5.79248C4.93877 5.5979 4.73224 5.39403 4.52726 5.1875C4.29771 4.95684 4.29373 4.65624 4.51642 4.42049C4.6481 4.28574 4.74834 4.12351 4.80994 3.94545C4.93855 3.55741 4.89007 3.19283 4.66539 2.82869ZM3.34321 3.16383C3.41227 3.12863 3.48599 3.10982 3.53358 3.06378C3.82577 2.78088 4.1145 2.49392 4.39976 2.20291C4.51044 2.09068 4.51044 1.93728 4.40242 1.82527C4.25787 1.67497 4.11066 1.52665 3.9597 1.38255C3.84703 1.27519 3.70093 1.27674 3.59202 1.38388C3.30189 1.66943 3.01331 1.95661 2.72628 2.24541C2.6094 2.36362 2.60741 2.51104 2.72097 2.63013C2.8622 2.77889 3.00697 2.92454 3.15727 3.06444C3.20442 3.10783 3.27304 3.12642 3.34321 3.16383ZM12.4743 11.5824L11.9278 12.1192L13.1824 13.3809L13.7298 12.8366L12.4743 11.5824ZM9.22275 13.5463C9.26676 13.5521 9.31121 13.5541 9.35556 13.552C9.51361 13.5365 9.66119 13.466 9.7726 13.3528C9.99928 13.1244 10.2266 12.8967 10.4546 12.6699C11.0185 12.106 11.5823 11.5421 12.146 10.978C12.301 10.8231 12.3618 10.6396 12.3333 10.4346L9.22275 13.5463ZM3.94664 8.26684L7.04767 5.1647C6.85021 5.13415 6.66892 5.20034 6.51507 5.34909C6.4241 5.43764 6.33489 5.52618 6.24546 5.6165C5.53711 6.32485 4.82876 7.03386 4.1204 7.74354C4.0509 7.80994 3.99872 7.89235 3.96843 7.98357C3.93813 8.0748 3.93065 8.17205 3.94664 8.26684ZM10.9595 14.2792L11.5147 13.7382L10.9263 13.1319L10.361 13.6764L10.9595 14.2792ZM14.0606 13.1788L13.5534 13.7141C13.7748 13.8369 13.9098 13.8037 14.1037 13.5717C14.2029 13.4531 14.1923 13.3342 14.0606 13.1788ZM11.8248 14.0784L11.3201 14.6037C11.5041 14.6872 11.6369 14.6732 11.7418 14.5694C11.914 14.3978 11.9298 14.3195 11.8239 14.0784H11.8248Z" fill="#2D3E50"/>
<path d="M6.68686 7.50934C6.76123 7.55759 6.84668 7.59456 6.90822 7.65566C7.50604 8.24816 8.10171 8.84288 8.69525 9.43982C9.11864 9.8632 9.54203 10.2867 9.96541 10.7102C10.0557 10.8001 10.1104 10.9001 10.0703 11.0316C10.0578 11.0744 10.0353 11.1136 10.0047 11.1461C9.97417 11.1785 9.93637 11.2033 9.89442 11.2184C9.85246 11.2335 9.80754 11.2385 9.76329 11.233C9.71905 11.2274 9.67674 11.2115 9.63979 11.1866C9.59817 11.1566 9.55955 11.1226 9.52447 11.0852C8.5251 10.0863 7.52588 9.08697 6.52681 8.08731C6.45377 8.01426 6.38227 7.94165 6.38116 7.82699C6.37992 7.78848 6.38653 7.75011 6.4006 7.71424C6.41467 7.67837 6.4359 7.64574 6.46299 7.61833C6.49008 7.59093 6.52247 7.56934 6.55818 7.55486C6.59389 7.54038 6.63217 7.53333 6.6707 7.53413L6.68686 7.50934Z" fill="#2D3E50"/>
<path d="M10.7085 10.3906C10.637 10.3443 10.5536 10.3091 10.4956 10.2502C9.53726 9.2966 8.58091 8.34121 7.62655 7.38405C7.56014 7.31875 7.49374 7.25434 7.43087 7.18749C7.3182 7.06972 7.31443 6.90614 7.41936 6.78904C7.52428 6.67194 7.68942 6.66618 7.81626 6.76956C7.83839 6.78682 7.85676 6.8063 7.87624 6.82556C8.87974 7.82995 9.88398 8.83411 10.889 9.83805C10.9735 9.92216 11.0328 10.0138 11.0107 10.1373C10.9852 10.2781 10.8688 10.3684 10.7085 10.3906Z" fill="#2D3E50"/>
<path d="M9.14903 11.848C9.15335 11.9016 9.14072 11.9551 9.11291 12.0011C9.08509 12.047 9.04352 12.0831 8.99407 12.1041C8.94541 12.1301 8.88999 12.1408 8.83515 12.1346C8.78031 12.1283 8.72866 12.1056 8.68705 12.0694C8.67151 12.0562 8.65673 12.0421 8.64278 12.0273C7.62659 11.011 6.61047 9.9947 5.59443 8.97851C5.50965 8.89395 5.45719 8.80143 5.49438 8.67569C5.55459 8.47359 5.77728 8.39833 5.9444 8.52583C5.97107 8.54731 5.99629 8.57053 6.01989 8.59534C7.02058 9.59677 8.02142 10.599 9.02241 11.6021C9.08572 11.6658 9.12446 11.7541 9.1747 11.8312L9.14903 11.848Z" fill="#2D3E50"/>
</svg>
