<svg width="24" height="24" viewBox="0 0 24 24" fill="none" xmlns="http://www.w3.org/2000/svg">
<path d="M11.6597 12.6677L11.5881 12.7416L11.6597 12.6677C11.5343 12.5385 11.3194 12.5385 11.194 12.6677C11.0687 12.797 11.0687 13.0185 11.194 13.1477L16.1731 18.2062C16.2985 18.3354 16.5134 18.3354 16.6388 18.2062C16.7105 18.1324 16.7284 18.0585 16.7284 17.9662C16.7284 17.8739 16.6925 17.8 16.6388 17.7262L11.6597 12.6677Z" fill="#2D3E50"/>
<path d="M16.406 18.3908C16.2985 18.3908 16.191 18.3539 16.1015 18.2616L11.1224 13.2216C11.0507 13.1477 10.997 13.037 10.997 12.9077C10.997 12.797 11.0328 12.6862 11.1224 12.6123C11.2657 12.4646 11.4806 12.4462 11.6418 12.557L16.6746 17.6708C16.7463 17.7446 16.8 17.8554 16.8 17.9662C16.8 18.077 16.7642 18.1877 16.6746 18.2616C16.6209 18.3539 16.5134 18.3908 16.406 18.3908ZM11.4269 12.6677C11.3731 12.6677 11.3015 12.6862 11.2478 12.7416C11.194 12.797 11.1761 12.8523 11.1761 12.9077C11.1761 12.9816 11.194 13.037 11.2478 13.0739L16.2269 18.1323C16.3164 18.2246 16.4776 18.2246 16.5672 18.1323C16.6209 18.0954 16.6388 18.0216 16.6388 17.9662C16.6388 17.9108 16.6209 17.837 16.5672 17.8L11.5881 12.7416C11.5522 12.6862 11.4806 12.6677 11.4269 12.6677Z" fill="#2D3E50"/>
<path d="M17.3194 17.0246C17.4448 17.1538 17.6597 17.1538 17.7851 17.0246L12.806 11.4861L12.7522 11.5415L12.806 11.4861C12.6806 11.3569 12.4657 11.3569 12.3403 11.4861L12.4119 11.56L12.3403 11.4861C12.2149 11.6154 12.2149 11.8369 12.3403 11.9661L17.3194 17.0246Z" fill="#2D3E50"/>
<path d="M17.5522 17.2277C17.4448 17.2277 17.3373 17.1908 17.2478 17.0985L12.2866 12.04C12.2149 11.9662 12.1612 11.8554 12.1612 11.7262C12.1612 11.6339 12.1791 11.56 12.2328 11.4862L12.2866 11.4308L12.3582 11.357C12.5015 11.2646 12.6806 11.2646 12.806 11.357L12.8239 11.3385L12.9493 11.4677L17.9284 17.0062L17.8746 17.0616C17.7672 17.1723 17.6597 17.2277 17.5522 17.2277ZM12.4119 11.5785C12.3761 11.6154 12.3403 11.6893 12.3403 11.7446C12.3403 11.8185 12.3582 11.8739 12.4119 11.9108L17.391 16.9693C17.4627 17.0431 17.5701 17.0616 17.6597 17.0246L12.7522 11.56C12.6627 11.4677 12.5015 11.4677 12.4119 11.5785Z" fill="#2D3E50"/>
<path d="M18.9492 15.8615C19.0209 15.7877 19.0388 15.7139 19.0388 15.6215C19.0388 15.5292 19.003 15.4554 18.9492 15.3816L13.9701 10.3231C13.8448 10.1939 13.6298 10.1939 13.5045 10.3231C13.3791 10.4523 13.3791 10.6739 13.5045 10.8031L18.4836 15.8615C18.6089 15.9908 18.806 15.9908 18.9492 15.8615Z" fill="#2D3E50"/>
<path d="M18.7164 16.0461C18.609 16.0461 18.5015 16.0092 18.4119 15.9169L13.4328 10.8769C13.3612 10.8031 13.3075 10.6923 13.3075 10.5815C13.3075 10.4708 13.3433 10.36 13.4328 10.2861C13.594 10.12 13.8627 10.12 14.0239 10.2861L19.003 15.3446C19.0746 15.4185 19.1284 15.5292 19.1284 15.6585C19.1284 15.7692 19.0925 15.88 19.003 15.9538C18.9313 16.0092 18.8239 16.0461 18.7164 16.0461ZM13.7373 10.3231C13.6836 10.3231 13.6119 10.3415 13.5582 10.3969C13.5045 10.4338 13.4866 10.5077 13.4866 10.5631C13.4866 10.6369 13.5045 10.6923 13.5582 10.7292L18.5373 15.7877C18.6269 15.88 18.7881 15.88 18.8776 15.7877C18.9313 15.7323 18.9493 15.6769 18.9493 15.6215C18.9493 15.5477 18.9313 15.4923 18.8776 15.4554L13.8985 10.3969C13.8627 10.3415 13.791 10.3231 13.7373 10.3231Z" fill="#2D3E50"/>
<path d="M2.14927 1.68312C1.7015 1.22158 0.967176 1.22158 0.519415 1.68312C0.0716535 2.14466 0.0716535 2.88312 0.519415 3.34466L2.65076 5.50466C3.56419 6.4462 5.06867 6.4462 5.9821 5.50466L7.09255 4.37851C7.11046 4.36004 7.11046 4.36004 7.12837 4.36004C7.12837 4.36004 7.14628 4.36004 7.14628 4.37851L7.20001 4.43389C7.12837 4.58158 7.09255 4.72928 7.09255 4.89543C7.09255 5.17235 7.20001 5.43081 7.39703 5.61543L7.98807 6.2062C8.27464 6.50158 8.7224 6.57543 9.08061 6.42774C9.09852 6.4462 9.09852 6.46466 9.11643 6.46466C9.13434 6.48312 9.13434 6.50158 9.11643 6.52004C8.203 7.44312 8.203 8.97543 9.11643 9.89851L10.0299 10.8216L9.29553 11.5785C9.00897 11.8739 8.84777 12.2616 8.84777 12.6862C8.84777 13.0739 8.99106 13.4431 9.2418 13.72C9.25971 13.7385 9.27762 13.757 9.29553 13.7754L15.6 20.1631C15.6179 20.1816 15.6358 20.2 15.6537 20.2185C16.1552 20.6616 16.8717 20.7354 17.4269 20.4216L18.1612 21.1785L18.8418 21.88C19.2537 22.3047 19.9343 22.3047 20.3463 21.88L20.5612 21.6585C20.7761 21.4554 20.8657 21.1785 20.8657 20.9016C20.8657 20.6247 20.7582 20.3477 20.5612 20.1447L19.1821 18.7416L19.5403 18.3724L21.8328 20.6985C22.2448 21.1231 22.9254 21.1231 23.3373 20.6985L23.5523 20.477C23.7493 20.2739 23.8567 19.997 23.8567 19.72C23.8567 19.4247 23.7493 19.1662 23.5523 18.9631L23.409 18.8154L22.8358 18.2431L21.206 16.5816C21.3314 16.3416 21.403 16.0831 21.403 15.8247C21.403 15.437 21.2597 15.0677 21.009 14.7908C20.9911 14.7724 20.9731 14.7539 20.9552 14.7354L14.6149 8.3662C14.597 8.34774 14.5791 8.32927 14.5612 8.31081C13.9523 7.75697 13.0388 7.77543 12.4478 8.3662L11.6955 9.14158L11.194 8.64312L10.6925 8.14466C10.6746 8.1262 10.6746 8.10774 10.6925 8.08927C11.1403 7.6462 11.3911 7.03697 11.3911 6.39081C11.3911 5.78158 11.1761 5.20928 10.7642 4.7662C10.8358 4.63697 10.8537 4.48927 10.8537 4.32312C10.8537 4.0462 10.7463 3.78774 10.5493 3.60312L9.95822 3.01235C9.7612 2.80928 9.51046 2.71697 9.2418 2.71697C9.13434 2.71697 9.00897 2.73543 8.9015 2.77235C8.45374 2.32928 7.8627 2.07081 7.23583 2.07081C6.60897 2.07081 6.01792 2.31081 5.57016 2.77235L4.40598 3.95389C4.38807 3.97235 4.38807 3.97235 4.37016 3.97235C4.37016 3.97235 4.35225 3.97235 4.33434 3.95389L2.14927 1.68312ZM18.4836 12.9816L20.4537 14.9754L15.7791 19.72L9.72538 13.5908L14.4 8.8462L18.4836 12.9816ZM19.8985 20.237L18.8776 21.2893L18.6448 21.0493L19.6657 19.997L19.8985 20.237ZM20.1851 21.3447L19.9702 21.5662C19.7552 21.7693 19.4328 21.7877 19.2179 21.6216L20.2388 20.5877C20.4179 20.8093 20.4 21.1416 20.1851 21.3447ZM19.3254 19.6462L18.3045 20.6985L17.7851 20.1631L18.806 19.1108L19.3254 19.6462ZM20.8836 17.0247L22.2985 18.4647L21.2776 19.517L19.8627 18.077L20.8836 17.0247ZM22.8717 19.037L21.8508 20.0893L21.6179 19.8493L22.6388 18.797L22.8717 19.037ZM23.1761 20.1816L22.9612 20.4031C22.7463 20.6247 22.406 20.6247 22.1731 20.44L23.194 19.4062C23.2836 19.517 23.3373 19.6462 23.3373 19.7939C23.3373 19.9231 23.2836 20.0708 23.1761 20.1816ZM20.6687 16.5077C20.6328 16.5447 20.6149 16.5816 20.5791 16.6185L17.3911 19.8677C17.3552 19.9047 17.3194 19.9416 17.2836 19.96C16.9433 20.2185 16.5134 20.237 16.1552 20.0524L20.7761 15.3631C20.8478 15.5108 20.9015 15.6954 20.9015 15.8616C20.8836 16.1016 20.812 16.3231 20.6687 16.5077ZM14.0239 8.53235L9.42091 13.2216C9.34927 13.0739 9.29553 12.8893 9.29553 12.7231C9.29553 12.4462 9.403 12.1693 9.60001 11.9662L10.5134 11.0431L12.806 8.71697C13.1284 8.38466 13.6299 8.31081 14.0239 8.53235ZM10.3343 10.5262L10.012 10.1939L11.0328 9.16004L11.3552 9.49235L10.3343 10.5262ZM10.9075 6.39081C10.9075 6.90774 10.7105 7.36927 10.3523 7.73851C10.1552 7.94158 10.1552 8.27389 10.3523 8.49543L10.6746 8.82774L9.67165 9.84312L9.43882 9.60312C8.70449 8.86466 8.70449 7.66466 9.43882 6.90774C9.54628 6.79697 9.60001 6.66774 9.60001 6.53851C9.60001 6.40927 9.54628 6.28004 9.47464 6.18774L10.4955 5.15389C10.7463 5.4862 10.9075 5.92928 10.9075 6.39081ZM9.63583 3.3262L10.2269 3.91697C10.3343 4.02774 10.3881 4.15697 10.3881 4.30466C10.3881 4.45235 10.3343 4.58158 10.2269 4.69235L9.0627 5.87389C8.84777 6.07697 8.50747 6.07697 8.31046 5.87389L7.71941 5.28312C7.61195 5.17235 7.55822 5.04312 7.55822 4.89543C7.55822 4.74774 7.61195 4.61851 7.71941 4.50774L8.88359 3.3262C8.99106 3.21543 9.11643 3.16004 9.25971 3.16004C9.403 3.16004 9.52837 3.23389 9.63583 3.3262ZM4.76419 4.26774L5.92837 3.0862C6.28658 2.73543 6.75225 2.53235 7.25374 2.53235C7.71941 2.53235 8.16718 2.69851 8.50747 3.01235L7.48658 4.0462C7.37912 3.95389 7.25374 3.89851 7.11046 3.89851C6.96718 3.89851 6.8418 3.95389 6.73434 4.0462L5.62389 5.17235C4.88956 5.91081 3.70747 5.91081 2.97315 5.17235L0.859713 2.99389C0.591056 2.73543 0.591056 2.29235 0.859713 2.01543C1.12837 1.75697 1.55822 1.75697 1.80897 2.01543L4.02986 4.26774C4.11941 4.36004 4.2627 4.41543 4.40598 4.41543C4.53135 4.43389 4.67464 4.37851 4.76419 4.26774Z" fill="#2D3E50"/>
<mask id="mask0" mask-type="alpha" maskUnits="userSpaceOnUse" x="0" y="1" width="24" height="22">
<path d="M24 1H0V22.4154H24V1Z" fill="white"/>
<path d="M2.14927 1.68311C1.7015 1.22158 0.967176 1.22158 0.519415 1.68311C0.0716535 2.14465 0.0716535 2.88311 0.519415 3.34465L2.65076 5.50465C3.56419 6.44619 5.06867 6.44619 5.9821 5.50465L7.09255 4.3785C7.11046 4.36004 7.11046 4.36004 7.12837 4.36004C7.12837 4.36004 7.14628 4.36004 7.14628 4.3785L7.20001 4.43388C7.12837 4.58158 7.09255 4.72927 7.09255 4.89542C7.09255 5.17234 7.20001 5.43081 7.39703 5.61542L7.98807 6.20619C8.27464 6.50157 8.7224 6.57542 9.08061 6.42773C9.09852 6.44619 9.09852 6.46465 9.11643 6.46465C9.13434 6.48311 9.13434 6.50157 9.11643 6.52004C8.203 7.44311 8.203 8.97542 9.11643 9.8985L10.0299 10.8216L9.29553 11.5785C9.00897 11.8739 8.84777 12.2616 8.84777 12.6862C8.84777 13.0739 8.99106 13.4431 9.2418 13.72C9.25971 13.7385 9.27762 13.757 9.29553 13.7754L15.6 20.1631C15.6179 20.1816 15.6358 20.2 15.6537 20.2185C16.1552 20.6616 16.8717 20.7354 17.4269 20.4216L18.1612 21.1785L18.8418 21.88C19.2537 22.3047 19.9343 22.3047 20.3463 21.88L20.5612 21.6585C20.7761 21.4554 20.8657 21.1785 20.8657 20.9016C20.8657 20.6247 20.7582 20.3477 20.5612 20.1447L19.1821 18.7416L19.5403 18.3723L21.8328 20.6985C22.2448 21.1231 22.9254 21.1231 23.3373 20.6985L23.5523 20.477C23.7493 20.2739 23.8567 19.997 23.8567 19.72C23.8567 19.4247 23.7493 19.1662 23.5523 18.9631L23.409 18.8154L22.8358 18.2431L21.206 16.5816C21.3314 16.3416 21.403 16.0831 21.403 15.8247C21.403 15.437 21.2597 15.0677 21.009 14.7908C20.9911 14.7723 20.9731 14.7539 20.9552 14.7354L14.6149 8.36619C14.597 8.34773 14.5791 8.32927 14.5612 8.31081C13.9523 7.75696 13.0388 7.77542 12.4478 8.36619L11.6955 9.14157L11.194 8.64311L10.6925 8.14465C10.6746 8.12619 10.6746 8.10773 10.6925 8.08927C11.1403 7.64619 11.3911 7.03696 11.3911 6.39081C11.3911 5.78158 11.1761 5.20927 10.7642 4.76619C10.8358 4.63696 10.8537 4.48927 10.8537 4.32311C10.8537 4.04619 10.7463 3.78773 10.5493 3.60311L9.95822 3.01234C9.7612 2.80927 9.51046 2.71696 9.2418 2.71696C9.13434 2.71696 9.00897 2.73542 8.9015 2.77234C8.45374 2.32927 7.8627 2.07081 7.23583 2.07081C6.60897 2.07081 6.01792 2.31081 5.57016 2.77234L4.40598 3.95388C4.38807 3.97234 4.38807 3.97234 4.37016 3.97234C4.37016 3.97234 4.35225 3.97234 4.33434 3.95388L2.14927 1.68311ZM18.4836 12.9816L20.4537 14.9754L15.7791 19.72L9.72538 13.5908L14.4 8.84619L18.4836 12.9816ZM19.8985 20.237L18.8776 21.2893L18.6448 21.0493L19.6657 19.997L19.8985 20.237ZM20.1851 21.3447L19.9702 21.5662C19.7552 21.7693 19.4328 21.7877 19.2179 21.6216L20.2388 20.5877C20.4179 20.8093 20.4 21.1416 20.1851 21.3447ZM19.3254 19.6462L18.3045 20.6985L17.7851 20.1631L18.806 19.1108L19.3254 19.6462ZM20.8836 17.0247L22.2985 18.4647L21.2776 19.517L19.8627 18.077L20.8836 17.0247ZM22.8717 19.037L21.8508 20.0893L21.6179 19.8493L22.6388 18.797L22.8717 19.037ZM23.1761 20.1816L22.9612 20.4031C22.7463 20.6247 22.406 20.6247 22.1731 20.44L23.194 19.4062C23.2836 19.517 23.3373 19.6462 23.3373 19.7939C23.3373 19.9231 23.2836 20.0708 23.1761 20.1816ZM20.6687 16.5077C20.6328 16.5447 20.6149 16.5816 20.5791 16.6185L17.3911 19.8677C17.3552 19.9047 17.3194 19.9416 17.2836 19.96C16.9433 20.2185 16.5134 20.237 16.1552 20.0523L20.7761 15.3631C20.8478 15.5108 20.9015 15.6954 20.9015 15.8616C20.8836 16.1016 20.812 16.3231 20.6687 16.5077ZM14.0239 8.53234L9.42091 13.2216C9.34927 13.0739 9.29553 12.8893 9.29553 12.7231C9.29553 12.4462 9.403 12.1693 9.60001 11.9662L10.5134 11.0431L12.806 8.71696C13.1284 8.38465 13.6299 8.31081 14.0239 8.53234ZM10.3343 10.5262L10.012 10.1939L11.0328 9.16004L11.3552 9.49234L10.3343 10.5262ZM10.9075 6.39081C10.9075 6.90773 10.7105 7.36927 10.3523 7.7385C10.1552 7.94157 10.1552 8.27388 10.3523 8.49542L10.6746 8.82773L9.67165 9.84311L9.43882 9.60311C8.70449 8.86465 8.70449 7.66465 9.43882 6.90773C9.54628 6.79696 9.60001 6.66773 9.60001 6.5385C9.60001 6.40927 9.54628 6.28004 9.47464 6.18773L10.4955 5.15388C10.7463 5.48619 10.9075 5.92927 10.9075 6.39081ZM9.63583 3.32619L10.2269 3.91696C10.3343 4.02773 10.3881 4.15696 10.3881 4.30465C10.3881 4.45234 10.3343 4.58157 10.2269 4.69234L9.0627 5.87388C8.84777 6.07696 8.50747 6.07696 8.31046 5.87388L7.71941 5.28311C7.61195 5.17234 7.55822 5.04311 7.55822 4.89542C7.55822 4.74773 7.61195 4.6185 7.71941 4.50773L8.88359 3.32619C8.99106 3.21542 9.11643 3.16004 9.25971 3.16004C9.403 3.16004 9.52837 3.23388 9.63583 3.32619ZM4.76419 4.26773L5.92837 3.08619C6.28658 2.73542 6.75225 2.53234 7.25374 2.53234C7.71941 2.53234 8.16718 2.6985 8.50747 3.01234L7.48658 4.04619C7.37912 3.95388 7.25374 3.8985 7.11046 3.8985C6.96718 3.8985 6.8418 3.95388 6.73434 4.04619L5.62389 5.17234C4.88956 5.91081 3.70747 5.91081 2.97315 5.17234L0.859713 2.99388C0.591056 2.73542 0.591056 2.29234 0.859713 2.01542C1.12837 1.75696 1.55822 1.75696 1.80897 2.01542L4.02986 4.26773C4.11941 4.36004 4.2627 4.41542 4.40598 4.41542C4.53135 4.43388 4.67464 4.3785 4.76419 4.26773Z" fill="black"/>
</mask>
<g mask="url(#mask0)">
<path d="M19.5582 22.4154C19.2358 22.4154 18.9313 22.2862 18.6806 22.0462L17.3552 20.6985C16.7642 20.9754 16.0478 20.8831 15.5463 20.4585H15.5104L15.4746 20.3847C15.4567 20.3662 15.4388 20.3662 15.4388 20.3477L9.13433 13.9416C9.11642 13.9231 9.09851 13.9047 9.0806 13.8677C8.79403 13.5539 8.65075 13.1293 8.65075 12.7047C8.65075 12.2431 8.82985 11.8 9.15224 11.4677L9.76119 10.84L8.95522 10.0647C8.48955 9.5662 8.2209 8.93851 8.2209 8.25543C8.2209 7.70158 8.4 7.1662 8.72239 6.72312C8.4 6.74158 8.07761 6.61235 7.84478 6.37235L7.25373 5.78158C7.0209 5.56004 6.89552 5.2462 6.89552 4.91389C6.89552 4.89543 6.89552 4.85851 6.89552 4.84004L6.08955 5.65235C5.10448 6.64928 3.49254 6.64928 2.50746 5.65235L0.39403 3.47389C0.143284 3.21543 0 2.88312 0 2.51389C0 2.14466 0.143284 1.81235 0.39403 1.55389C0.913433 1.01851 1.75522 1.01851 2.27463 1.55389L4.38806 3.69543L5.46269 2.6062C5.94627 2.1262 6.57313 1.84927 7.25373 1.84927C7.89851 1.84927 8.50746 2.08927 8.97313 2.53235C9.38507 2.42158 9.81493 2.55081 10.1015 2.8462L10.6925 3.43697C10.9254 3.65851 11.0507 3.97235 11.0507 4.30466C11.0507 4.43389 11.0328 4.58158 10.9791 4.71081C11.3731 5.17235 11.5701 5.76312 11.5701 6.37235C11.5701 7.01851 11.3373 7.60928 10.9254 8.08928L11.6955 8.86466L12.3224 8.21851C12.9672 7.57235 13.9881 7.53543 14.6687 8.14466L14.6866 8.16312C14.7045 8.18158 14.7224 8.20004 14.7403 8.21851L21.0448 14.6062C21.0627 14.6247 21.0806 14.6431 21.1164 14.68C21.403 14.9939 21.5463 15.4 21.5463 15.8431C21.5463 16.0831 21.4925 16.3416 21.3851 16.5631L22.8716 18.077H22.9791V18.1877L23.6418 18.8524C23.8746 19.0924 24 19.4062 24 19.7385C24 20.0708 23.8746 20.3847 23.6418 20.6247L23.4269 20.8462C22.9433 21.3262 22.1552 21.3447 21.6716 20.8462L19.5045 18.6493L19.397 18.76L20.6507 20.0339C20.8836 20.2739 21.009 20.5877 21.009 20.92C21.009 21.2524 20.8836 21.5662 20.6507 21.8062L20.4358 22.0277C20.203 22.2862 19.8806 22.4154 19.5582 22.4154ZM17.4269 20.237L18.9493 21.7693C19.2896 22.12 19.8448 22.12 20.203 21.7693L20.4179 21.5477C20.5791 21.3816 20.6687 21.16 20.6687 20.92C20.6687 20.68 20.5791 20.4585 20.4179 20.2924L18.9134 18.76L19.5224 18.1324L21.9403 20.5877C22.2806 20.9385 22.8358 20.9385 23.194 20.5877L23.409 20.3662C23.5701 20.2 23.6597 19.9785 23.6597 19.7385C23.6597 19.4985 23.5701 19.277 23.409 19.1108L23.3194 19.0185H23.2119V18.9077L22.7104 18.3908L22.6388 18.3354V18.3539L20.9731 16.6554L21.0448 16.5262C21.1522 16.3231 21.2239 16.0831 21.2239 15.8616C21.2239 15.5293 21.0985 15.197 20.8836 14.9385C20.8657 14.92 20.8478 14.9016 20.8299 14.8831L14.4896 8.49543C14.4716 8.47697 14.4537 8.45851 14.4358 8.45851C13.8985 7.96004 13.0746 7.97851 12.5731 8.49543L11.6955 9.40005L10.6209 8.31081H10.5134V8.16312C10.4955 8.08928 10.5134 7.99697 10.5672 7.94158C10.9791 7.51697 11.2119 6.96312 11.2119 6.37235C11.2119 5.81851 10.997 5.28312 10.6388 4.87697L10.5493 4.78466L10.603 4.67389C10.6567 4.56312 10.6746 4.43389 10.6746 4.30466C10.6746 4.08312 10.5851 3.86158 10.4239 3.71389L9.85075 3.12312C9.63582 2.90158 9.29552 2.80927 8.99104 2.92004L8.88358 2.95697L8.81194 2.88312C8.4 2.45851 7.86269 2.23697 7.27164 2.23697C6.69851 2.23697 6.14328 2.45851 5.73134 2.88312L4.56716 4.06466C4.47761 4.15697 4.33433 4.15697 4.26269 4.06466L2.02388 1.81235C1.64776 1.42466 1.0209 1.42466 0.644776 1.81235C0.465672 1.99697 0.358209 2.25543 0.358209 2.51389C0.358209 2.77235 0.465672 3.03081 0.644776 3.21543L2.77612 5.37543C3.61791 6.24312 5.01493 6.24312 5.85672 5.37543L6.96716 4.24927C7.03881 4.17543 7.16418 4.15697 7.25373 4.23081L7.27164 4.24927L7.41493 4.37851L7.34328 4.50774C7.28955 4.61851 7.25373 4.74774 7.25373 4.89543C7.25373 5.11697 7.34328 5.33851 7.50448 5.4862L8.09552 6.07697C8.32836 6.31697 8.68657 6.39081 8.99104 6.26158L9.13433 6.2062L9.20597 6.33543C9.2597 6.39081 9.27761 6.4462 9.27761 6.50158C9.27761 6.52004 9.27761 6.55697 9.2597 6.57543V6.61235L9.20597 6.66774C8.79403 7.09235 8.56119 7.6462 8.56119 8.23697C8.56119 8.82774 8.77612 9.36312 9.18806 9.78774L9.20597 9.8062L10.2269 10.84L9.34925 11.7262C9.09851 11.9847 8.95522 12.3354 8.95522 12.6862C8.95522 13.0185 9.0806 13.3508 9.29552 13.6093C9.31343 13.6277 9.33134 13.6462 9.34925 13.6647L15.6537 20.0524L15.6716 20.0708L15.7075 20.1077C16.1373 20.4954 16.7642 20.5693 17.2657 20.2739L17.4269 20.237ZM19.5582 21.917C19.397 21.917 19.2358 21.8616 19.1104 21.7693L18.9493 21.64L20.2567 20.3108L20.3821 20.477C20.6149 20.7908 20.5791 21.2154 20.3104 21.4924L20.0955 21.7139C19.9522 21.8431 19.7552 21.917 19.5582 21.917ZM19.5403 21.5477C19.6478 21.5477 19.7731 21.5108 19.8448 21.437L20.0597 21.2154C20.1493 21.1231 20.1851 21.0124 20.1672 20.9016L19.5403 21.5477ZM18.8776 21.5293L18.394 21.0308L19.6836 19.72L20.1672 20.2185L18.8776 21.5293ZM18.3045 20.957L17.5164 20.1631L18.806 18.8524L19.594 19.6462L18.3045 20.957ZM18.0358 20.1631L18.3045 20.44L19.0746 19.6462L18.806 19.3693L18.0358 20.1631ZM22.5493 20.7354C22.3701 20.7354 22.209 20.68 22.0657 20.5508L21.9224 20.4216L23.2299 19.0924L23.3552 19.24C23.4627 19.3693 23.5343 19.5539 23.5343 19.7385C23.5343 19.9416 23.4627 20.1447 23.3194 20.2924L23.1045 20.5139C22.9433 20.6616 22.7463 20.7354 22.5493 20.7354ZM22.4776 20.3662C22.603 20.3847 22.7284 20.3477 22.8358 20.2554L23.0507 20.0339C23.1224 19.96 23.1582 19.8493 23.1582 19.757C23.1582 19.7385 23.1582 19.7016 23.1582 19.6831L22.4776 20.3662ZM16.6388 20.3662C16.4418 20.3662 16.2448 20.3108 16.0657 20.2185L15.8507 20.1077L20.8119 15.0677L20.9194 15.2893C21.009 15.4739 21.0627 15.677 21.0627 15.88C21.0627 16.157 20.9731 16.4154 20.8119 16.637C20.7761 16.6739 20.7403 16.7293 20.7045 16.7662L17.5164 20.0154C17.4806 20.0524 17.4269 20.0893 17.391 20.1262C17.1761 20.2739 16.9075 20.3662 16.6388 20.3662ZM16.4776 19.9785C16.7104 20.0339 16.9791 19.96 17.1761 19.8124C17.2119 19.7939 17.2299 19.757 17.2657 19.7385L20.4537 16.4893C20.4896 16.4524 20.5075 16.4339 20.5254 16.397C20.6328 16.2493 20.7045 16.0647 20.7045 15.8616C20.7045 15.8062 20.7045 15.7508 20.6866 15.6954L16.4776 19.9785ZM21.8328 20.3293L21.3493 19.8308L22.6388 18.52L23.1224 19.0185L21.8328 20.3293ZM15.7791 19.997L9.47463 13.5908L14.4179 8.58774L18.6269 12.8524L20.7224 14.9754L15.7791 19.997ZM9.97612 13.5908L15.7791 19.48L20.203 14.9939L14.4 9.10466L9.97612 13.5908ZM21.2597 19.757L19.594 18.0585L20.8836 16.7477L22.5493 18.4462L21.2597 19.757ZM20.0955 18.0585L21.2597 19.24L22.0299 18.4462L20.8657 17.2647L20.0955 18.0585ZM9.36716 13.517L9.2597 13.2954C9.17015 13.1108 9.11642 12.9077 9.11642 12.7047C9.11642 12.3724 9.24179 12.0585 9.47463 11.8185L12.6627 8.56928C13.0388 8.18158 13.6299 8.08928 14.1134 8.34774L14.3284 8.45851L9.36716 13.517ZM10.5851 11.2277L9.72537 12.0954C9.56418 12.2616 9.47463 12.4831 9.47463 12.7231C9.47463 12.7785 9.47463 12.8339 9.49254 12.8893L13.7015 8.6062C13.4149 8.55081 13.1284 8.64312 12.9134 8.8462L10.6925 11.117V11.2277H10.5851ZM10.3343 10.7847L9.74328 10.1939L11.0149 8.90158L11.606 9.49235L10.3343 10.7847ZM10.2627 10.1754L10.3343 10.2493L11.1045 9.49235L11.0328 9.41851L10.2627 10.1754ZM9.67164 10.1016L9.31343 9.73235C8.9194 9.34466 8.72239 8.80928 8.72239 8.25543C8.72239 7.72004 8.9194 7.22158 9.27761 6.83389V6.72312H9.36716C9.40298 6.66774 9.4209 6.59389 9.4209 6.53851C9.4209 6.4462 9.38507 6.37235 9.33134 6.31697L9.20597 6.16928L10.4776 4.87697L10.603 5.02466C10.9254 5.39389 11.0866 5.87389 11.0866 6.37235C11.0866 6.9262 10.8716 7.46158 10.4776 7.84928C10.4239 7.92312 10.3881 8.01543 10.3881 8.10774C10.3881 8.20004 10.4239 8.27389 10.4776 8.34774L10.9433 8.80928L9.67164 10.1016ZM9.54627 9.45543L9.67164 9.58466L10.4418 8.80928L10.2448 8.6062C10.1015 8.45851 10.0299 8.29235 10.0299 8.08928C10.0299 7.90466 10.1015 7.72005 10.2448 7.59081C10.5672 7.25851 10.7463 6.83389 10.7463 6.37235C10.7463 6.02158 10.6388 5.68928 10.4597 5.41235L9.68955 6.18774C9.74328 6.28004 9.76119 6.40928 9.76119 6.52004C9.76119 6.6862 9.70746 6.83389 9.6 6.96312L9.54627 7.01851C9.22388 7.35081 9.04478 7.77543 9.04478 8.23697C9.06269 8.69851 9.24179 9.12312 9.54627 9.45543ZM8.68657 6.22466C8.50746 6.22466 8.32836 6.15081 8.18507 6.02158L7.59403 5.43081C7.45075 5.30158 7.3791 5.11697 7.3791 4.91389C7.3791 4.71081 7.45075 4.54466 7.59403 4.39697L8.75821 3.21543C9.02687 2.93851 9.49254 2.93851 9.76119 3.21543L10.3522 3.8062C10.4955 3.93543 10.5672 4.12004 10.5672 4.32312C10.5672 4.5262 10.4955 4.69235 10.3522 4.84004L9.18806 6.02158C9.04478 6.15081 8.86567 6.22466 8.68657 6.22466ZM9.2597 3.36312C9.17015 3.36312 9.0806 3.40004 9.00896 3.47389L7.84478 4.65543C7.77313 4.72927 7.73731 4.80312 7.73731 4.91389C7.73731 5.0062 7.77313 5.09851 7.84478 5.17235L8.43582 5.76312C8.5791 5.91081 8.79403 5.91081 8.93731 5.76312L10.1015 4.58158C10.1731 4.50774 10.209 4.41543 10.209 4.32312C10.209 4.23081 10.1731 4.13851 10.1015 4.06466L9.51045 3.47389C9.43881 3.40004 9.34925 3.36312 9.2597 3.36312ZM4.31642 5.89235C3.79701 5.89235 3.2597 5.68928 2.86567 5.28312L0.734328 3.12312C0.573134 2.95697 0.483582 2.73543 0.483582 2.51389C0.483582 2.27389 0.573134 2.05235 0.734328 1.90466C1.07463 1.57235 1.61194 1.57235 1.93433 1.90466L4.15522 4.13851C4.22687 4.21235 4.29851 4.24927 4.40597 4.24927C4.49552 4.24927 4.58507 4.21235 4.65672 4.13851L5.8209 2.95697C6.21493 2.56927 6.71642 2.34774 7.27164 2.34774C7.77313 2.34774 8.25672 2.53235 8.63284 2.88312L8.77612 3.01235L7.50448 4.30466L7.34328 4.15697C7.21791 4.02774 6.98507 4.02774 6.8597 4.15697L5.74925 5.28312C5.35522 5.68928 4.83582 5.89235 4.31642 5.89235ZM1.34328 2.01543C1.21791 2.01543 1.09254 2.07081 0.985075 2.16312C0.895522 2.25543 0.841791 2.38466 0.841791 2.51389C0.841791 2.64312 0.895522 2.77235 0.985075 2.86466L3.11642 5.02466C3.7791 5.68927 4.85373 5.68927 5.51642 5.02466L6.62687 3.89851C6.8597 3.67697 7.21791 3.62158 7.48657 3.78774L8.23881 3.03081C7.95224 2.82774 7.61194 2.71697 7.25373 2.71697C6.80597 2.71697 6.37612 2.90158 6.05373 3.21543L4.88955 4.39697C4.76418 4.5262 4.58507 4.61851 4.38806 4.60004C4.20896 4.60004 4.02985 4.5262 3.88657 4.39697L1.68358 2.16312C1.59403 2.05235 1.46866 2.01543 1.34328 2.01543Z" fill="#2D3E50"/>
</g>
</svg>
