<svg width="24" height="24" viewBox="0 0 24 24" fill="none" xmlns="http://www.w3.org/2000/svg">
<path d="M5.80573 1.00033C5.87878 1.02158 5.95714 1.03354 6.02322 1.06674C6.2085 1.1617 6.40938 1.24139 6.56544 1.37288C6.81978 1.58738 7.04789 1.83408 7.27866 2.07514C7.62288 2.4353 7.73964 2.86053 7.62896 3.35084C7.61489 3.41785 7.62765 3.4877 7.66449 3.54542C8.06886 4.06414 8.28126 4.70682 8.26564 5.36435C8.25003 6.02188 8.00736 6.65374 7.57883 7.15269C7.57252 7.16 7.56886 7.17029 7.57152 7.16564C7.85674 7.44788 8.13931 7.72679 8.44047 8.0243C8.63969 7.82308 8.86149 7.59796 9.08429 7.37317C9.30709 7.14838 9.56741 6.97273 9.87388 6.88308C10.6024 6.66958 11.2661 6.8004 11.809 7.33664C13.2816 8.79098 14.7399 10.2586 16.2042 11.7222C17.0801 12.5968 17.9566 13.4712 18.8336 14.3453C19.4423 14.9523 19.6116 15.6632 19.3237 16.4744C19.2859 16.5816 19.3387 16.6245 19.3961 16.6816C20.1848 17.4692 20.9734 18.2568 21.7619 19.0444C22.1876 19.4694 22.345 19.9867 22.1192 20.5385C21.8598 21.1721 21.391 21.6246 20.6688 21.6964C20.2325 21.7395 19.8593 21.5635 19.5489 21.2504C18.8031 20.5 18.053 19.7536 17.3066 19.0042C17.2628 18.952 17.2232 18.8965 17.1881 18.8382L17.0376 18.966L17.878 19.811C18.063 19.9963 18.2492 20.1806 18.4335 20.3669C19.0113 20.9516 19.009 21.7907 18.4335 22.376C18.1872 22.6267 17.9408 22.8698 17.5809 22.9545C17.0947 23.0683 16.6568 22.9717 16.2969 22.6297C15.8094 22.1649 15.3403 21.6837 14.8661 21.2063C14.7974 21.1372 14.7436 21.112 14.6403 21.1482C13.8594 21.4204 13.1591 21.2733 12.5727 20.6903C10.7843 18.9125 9.00018 17.1306 7.22022 15.3444C6.66705 14.7908 6.11387 14.2386 5.56069 13.6879C4.75416 12.88 4.75383 11.703 5.56069 10.8988C5.7712 10.6889 5.98404 10.4811 6.20883 10.2596C6.15703 10.2035 6.11818 10.16 6.07601 10.1165C5.78614 9.82296 5.48 9.54603 5.20939 9.23857C4.35505 8.26503 4.26573 6.88939 4.96833 5.79731C4.98991 5.7641 5.0095 5.72791 5.04238 5.67246C4.93811 5.66051 4.84813 5.65719 4.76081 5.63926C4.4972 5.58758 4.255 5.45845 4.06518 5.26837C3.85799 5.06118 3.65279 4.85266 3.4436 4.64779C3.22446 4.43263 3.08002 4.17994 3.0332 3.8738C3.02516 3.85028 3.014 3.82794 3 3.80739V3.52749C3.01076 3.4834 3.02395 3.43995 3.03951 3.39733C3.10094 3.25322 3.13149 3.07691 3.23442 2.97265C3.69928 2.50181 4.1804 2.04692 4.66485 1.59568C4.92151 1.35628 5.13203 1.0425 5.52815 1L5.80573 1.00033ZM11.4172 8.31649L6.52991 13.2453L12.9791 19.7151L17.889 14.8012L11.4172 8.31649ZM6.99809 4.24303C6.71918 4.52228 6.4572 4.78193 6.20119 5.04657C6.1883 5.06396 6.17951 5.08405 6.17548 5.10533C6.17146 5.1266 6.1723 5.14852 6.17795 5.16942C6.30346 5.5257 6.20086 5.81457 5.94918 6.08054C5.34221 6.72204 5.25887 7.74074 5.79611 8.44267C6.10855 8.85108 6.49804 9.20038 6.83473 9.55732L7.70102 8.68871C7.40816 8.39685 7.09836 8.09104 6.7909 7.78124C6.44657 7.43526 6.44059 6.98435 6.77463 6.63073C6.97216 6.4286 7.12251 6.18526 7.21491 5.91817C7.40782 5.3361 7.33511 4.78924 6.99809 4.24303ZM5.01482 4.74574C5.11841 4.69294 5.22898 4.66472 5.30037 4.59566C5.73866 4.17131 6.17175 3.74088 6.59964 3.30435C6.76566 3.13601 6.76566 2.90591 6.60363 2.7379C6.3868 2.51244 6.166 2.28997 5.93955 2.07382C5.77054 1.91278 5.55139 1.9151 5.38803 2.07581C4.95284 2.50414 4.51997 2.93491 4.08942 3.36811C3.9141 3.54542 3.91112 3.76655 4.08145 3.94519C4.29329 4.16832 4.51045 4.3868 4.7359 4.59665C4.80663 4.66173 4.90956 4.68962 5.01482 4.74574ZM18.7114 17.3735L17.8916 18.1787L19.7736 20.0714L20.5948 19.2549L18.7114 17.3735ZM13.8341 20.3194C13.9001 20.3282 13.9668 20.3311 14.0333 20.328C14.2704 20.3047 14.4918 20.1989 14.6589 20.0292C14.9989 19.6865 15.3399 19.3451 15.6819 19.0048C16.5277 18.159 17.3734 17.3131 18.219 16.4671C18.4515 16.2346 18.5428 15.9594 18.4999 15.6519L13.8341 20.3194ZM5.91996 12.4002L10.5715 7.74704C10.2753 7.70122 10.0034 7.8005 9.77261 8.02363C9.63614 8.15645 9.50233 8.28926 9.36819 8.42474C8.30566 9.48726 7.24313 10.5508 6.18061 11.6153C6.07635 11.7149 5.99808 11.8385 5.95264 11.9754C5.9072 12.1122 5.89598 12.2581 5.91996 12.4002ZM16.4393 21.4188L17.2721 20.6073L16.3895 19.6978L15.5415 20.5146L16.4393 21.4188ZM21.0908 19.7682L20.3301 20.5711C20.6622 20.7554 20.8647 20.7056 21.1556 20.3576C21.3043 20.1796 21.2884 20.0013 21.0908 19.7682ZM17.7372 21.1176L16.9802 21.9055C17.2561 22.0307 17.4553 22.0098 17.6127 21.8541C17.8711 21.5967 17.8946 21.4792 17.7359 21.1176H17.7372Z" fill="#2D3E50"/>
<path d="M10.0303 11.264C10.1419 11.3364 10.27 11.3918 10.3623 11.4835C11.2591 12.3722 12.1526 13.2643 13.0429 14.1597C13.678 14.7948 14.3131 15.43 14.9481 16.0653C15.0836 16.2001 15.1656 16.3502 15.1055 16.5474C15.0867 16.6116 15.053 16.6704 15.0071 16.7191C14.9613 16.7678 14.9046 16.805 14.8416 16.8276C14.7787 16.8503 14.7113 16.8578 14.645 16.8495C14.5786 16.8412 14.5151 16.8173 14.4597 16.7798C14.3973 16.7349 14.3393 16.6839 14.2867 16.6278C12.7877 15.1294 11.2888 13.6305 9.79024 12.131C9.68066 12.0214 9.57341 11.9125 9.57175 11.7405C9.56989 11.6827 9.57982 11.6252 9.60092 11.5714C9.62202 11.5176 9.65386 11.4686 9.6945 11.4275C9.73514 11.3864 9.78372 11.354 9.83728 11.3323C9.89085 11.3106 9.94827 11.3 10.0061 11.3012L10.0303 11.264Z" fill="#2D3E50"/>
<path d="M16.0628 15.5858C15.9556 15.5164 15.8304 15.4637 15.7434 15.3753C14.3059 13.9449 12.8714 12.5118 11.4398 11.0761C11.3402 10.9781 11.2406 10.8815 11.1463 10.7812C10.9773 10.6046 10.9717 10.3592 11.1291 10.1836C11.2864 10.0079 11.5341 9.99928 11.7244 10.1543C11.7576 10.1802 11.7852 10.2095 11.8144 10.2383C13.3196 11.7449 14.826 13.2512 16.3334 14.7571C16.4603 14.8832 16.5493 15.0207 16.5161 15.206C16.4779 15.4172 16.3032 15.5526 16.0628 15.5858Z" fill="#2D3E50"/>
<path d="M13.7236 17.772C13.7301 17.8523 13.7111 17.9326 13.6694 18.0016C13.6277 18.0706 13.5653 18.1246 13.4911 18.1562C13.4182 18.1952 13.335 18.2111 13.2528 18.2018C13.1705 18.1925 13.093 18.1584 13.0306 18.104C13.0073 18.0843 12.9851 18.0632 12.9642 18.0409C11.4399 16.5164 9.91574 14.992 8.39168 13.4678C8.26451 13.3409 8.18582 13.2021 8.2416 13.0135C8.33191 12.7104 8.66595 12.5975 8.91664 12.7887C8.95664 12.8209 8.99446 12.8558 9.02986 12.893C10.5309 14.3951 12.0322 15.8985 13.5336 17.4031C13.6286 17.4987 13.6867 17.6312 13.7621 17.7467L13.7236 17.772Z" fill="#2D3E50"/>
</svg>
