<svg width="16" height="16" viewBox="0 0 16 16" fill="none" xmlns="http://www.w3.org/2000/svg">
<path d="M7.77313 8.44517L7.72537 8.4944L7.77313 8.44517C7.68955 8.35902 7.54626 8.35902 7.46268 8.44517C7.3791 8.53132 7.3791 8.67902 7.46268 8.76517L10.7821 12.1375C10.8657 12.2236 11.0089 12.2236 11.0925 12.1375C11.1403 12.0882 11.1522 12.039 11.1522 11.9775C11.1522 11.9159 11.1284 11.8667 11.0925 11.8175L7.77313 8.44517Z" fill="#2D3E50"/>
<path d="M10.9373 12.2606C10.8657 12.2606 10.794 12.2359 10.7343 12.1744L7.41491 8.8144C7.36715 8.76517 7.33133 8.69133 7.33133 8.60517C7.33133 8.53133 7.35521 8.45748 7.41491 8.40825C7.51043 8.30979 7.65372 8.29748 7.76118 8.37132L11.1164 11.7806C11.1642 11.8298 11.2 11.9036 11.2 11.9775C11.2 12.0513 11.1761 12.1252 11.1164 12.1744C11.0806 12.2359 11.0089 12.2606 10.9373 12.2606ZM7.6179 8.44517C7.58208 8.44517 7.53431 8.45748 7.49849 8.4944C7.46267 8.53132 7.45073 8.56825 7.45073 8.60517C7.45073 8.6544 7.46267 8.69133 7.49849 8.71594L10.8179 12.0882C10.8776 12.1498 10.9851 12.1498 11.0448 12.0882C11.0806 12.0636 11.0925 12.0144 11.0925 11.9775C11.0925 11.9406 11.0806 11.8913 11.0448 11.8667L7.72536 8.4944C7.70148 8.45748 7.65372 8.44517 7.6179 8.44517Z" fill="#2D3E50"/>
<path d="M11.5462 11.3497C11.6298 11.4359 11.7731 11.4359 11.8567 11.3497L8.53729 7.65743L8.50147 7.69436L8.53729 7.65743C8.45371 7.57128 8.31042 7.57128 8.22684 7.65743L8.2746 7.70666L8.22684 7.65743C8.14326 7.74359 8.14326 7.89128 8.22684 7.97743L11.5462 11.3497Z" fill="#2D3E50"/>
<path d="M11.7015 11.4851C11.6298 11.4851 11.5582 11.4605 11.4985 11.399L8.19103 8.02669C8.14327 7.97745 8.10745 7.90361 8.10745 7.81745C8.10745 7.75592 8.11939 7.70669 8.15521 7.65745L8.19103 7.62053L8.2388 7.5713C8.33432 7.50976 8.45372 7.50976 8.5373 7.5713L8.54924 7.55899L8.63283 7.64515L11.9522 11.3375L11.9164 11.3744C11.8448 11.4482 11.7731 11.4851 11.7015 11.4851ZM8.27462 7.71899C8.25074 7.74361 8.22686 7.79284 8.22686 7.82976C8.22686 7.87899 8.2388 7.91592 8.27462 7.94053L11.594 11.3128C11.6418 11.3621 11.7134 11.3744 11.7731 11.3498L8.50148 7.70668C8.44178 7.64515 8.33432 7.64515 8.27462 7.71899Z" fill="#2D3E50"/>
<path d="M12.6328 10.5744C12.6806 10.5252 12.6925 10.4759 12.6925 10.4144C12.6925 10.3528 12.6687 10.3036 12.6328 10.2544L9.31344 6.88207C9.22986 6.79592 9.08658 6.79592 9.00299 6.88207C8.91941 6.96823 8.91941 7.11592 9.00299 7.20207L12.3224 10.5744C12.406 10.6605 12.5373 10.6605 12.6328 10.5744Z" fill="#2D3E50"/>
<path d="M12.4776 10.6974C12.406 10.6974 12.3343 10.6728 12.2746 10.6113L8.95522 7.25129C8.90746 7.20206 8.87164 7.12821 8.87164 7.05437C8.87164 6.98052 8.89552 6.90668 8.95522 6.85745C9.06269 6.74668 9.24179 6.74668 9.34926 6.85745L12.6687 10.2298C12.7164 10.279 12.7522 10.3528 12.7522 10.439C12.7522 10.5128 12.7284 10.5867 12.6687 10.6359C12.6209 10.6728 12.5493 10.6974 12.4776 10.6974ZM9.15821 6.88206C9.12239 6.88206 9.07463 6.89437 9.03881 6.93129C9.00299 6.95591 8.99105 7.00514 8.99105 7.04206C8.99105 7.09129 9.00299 7.12821 9.03881 7.15283L12.3582 10.5251C12.4179 10.5867 12.5254 10.5867 12.5851 10.5251C12.6209 10.4882 12.6328 10.4513 12.6328 10.4144C12.6328 10.3651 12.6209 10.3282 12.5851 10.3036L9.26567 6.93129C9.24179 6.89437 9.19403 6.88206 9.15821 6.88206Z" fill="#2D3E50"/>
<path d="M1.43285 1.12208C1.13435 0.814389 0.644794 0.814389 0.346287 1.12208C0.0477791 1.42977 0.0477791 1.92208 0.346287 2.22977L1.76718 3.66977C2.37614 4.29747 3.37912 4.29747 3.98808 3.66977L4.72838 2.919C4.74032 2.9067 4.74032 2.9067 4.75226 2.9067C4.75226 2.9067 4.7642 2.9067 4.7642 2.919L4.80002 2.95593C4.75226 3.05439 4.72838 3.15285 4.72838 3.26362C4.72838 3.44823 4.80002 3.62054 4.93136 3.74362L5.32539 4.13747C5.51644 4.33439 5.81494 4.38362 6.05375 4.28516C6.06569 4.29747 6.06569 4.30977 6.07763 4.30977C6.08957 4.32208 6.08957 4.33439 6.07763 4.3467C5.46867 4.96208 5.46867 5.98362 6.07763 6.599L6.68658 7.21439L6.19703 7.719C6.00599 7.91593 5.89853 8.17439 5.89853 8.45747C5.89853 8.71593 5.99405 8.96208 6.16121 9.1467C6.17315 9.159 6.18509 9.17131 6.19703 9.18362L10.4 13.4421C10.412 13.4544 10.4239 13.4667 10.4358 13.479C10.7702 13.7744 11.2478 13.8236 11.6179 13.6144L12.1075 14.119L12.5612 14.5867C12.8358 14.8698 13.2896 14.8698 13.5642 14.5867L13.7075 14.439C13.8508 14.3036 13.9105 14.119 13.9105 13.9344C13.9105 13.7498 13.8388 13.5652 13.7075 13.4298L12.7881 12.4944L13.0269 12.2482L14.5552 13.799C14.8299 14.0821 15.2836 14.0821 15.5582 13.799L15.7015 13.6513C15.8329 13.5159 15.9045 13.3313 15.9045 13.1467C15.9045 12.9498 15.8329 12.7775 15.7015 12.6421L15.606 12.5436L15.2239 12.1621L14.1373 11.0544C14.2209 10.8944 14.2687 10.7221 14.2687 10.5498C14.2687 10.2913 14.1732 10.0452 14.006 9.86054C13.994 9.84824 13.9821 9.83593 13.9702 9.82362L9.7433 5.57747C9.73136 5.56516 9.71942 5.55285 9.70748 5.54054C9.30151 5.17131 8.69255 5.18362 8.29852 5.57747L7.79703 6.09439L7.4627 5.76208L7.12838 5.42977C7.11644 5.41747 7.11644 5.40516 7.12838 5.39285C7.42688 5.09747 7.59405 4.69131 7.59405 4.26054C7.59405 3.85439 7.45076 3.47285 7.17614 3.17747C7.2239 3.09131 7.23584 2.99285 7.23584 2.88208C7.23584 2.69747 7.1642 2.52516 7.03285 2.40208L6.63882 2.00823C6.50748 1.87285 6.34032 1.81131 6.16121 1.81131C6.08957 1.81131 6.00599 1.82362 5.93435 1.84823C5.63584 1.55285 5.24181 1.38054 4.8239 1.38054C4.40599 1.38054 4.01196 1.54054 3.71345 1.84823L2.93733 2.63593C2.92539 2.64823 2.92539 2.64823 2.91345 2.64823C2.91345 2.64823 2.90151 2.64823 2.88957 2.63593L1.43285 1.12208ZM12.3224 8.65439L13.6358 9.98362L10.5194 13.1467L6.4836 9.06054L9.60002 5.89747L12.3224 8.65439ZM13.2657 13.4913L12.5851 14.1929L12.4299 14.0329L13.1105 13.3313L13.2657 13.4913ZM13.4567 14.2298L13.3134 14.3775C13.1702 14.5129 12.9552 14.5252 12.812 14.4144L13.4926 13.7252C13.612 13.8729 13.6 14.0944 13.4567 14.2298ZM12.8836 13.0975L12.203 13.799L11.8567 13.4421L12.5373 12.7405L12.8836 13.0975ZM13.9224 11.3498L14.8657 12.3098L14.1851 13.0113L13.2418 12.0513L13.9224 11.3498ZM15.2478 12.6913L14.5672 13.3929L14.412 13.2329L15.0926 12.5313L15.2478 12.6913ZM15.4508 13.4544L15.3075 13.6021C15.1642 13.7498 14.9373 13.7498 14.7821 13.6267L15.4627 12.9375C15.5224 13.0113 15.5582 13.0975 15.5582 13.1959C15.5582 13.2821 15.5224 13.3805 15.4508 13.4544ZM13.7791 11.0052C13.7552 11.0298 13.7433 11.0544 13.7194 11.079L11.594 13.2452C11.5702 13.2698 11.5463 13.2944 11.5224 13.3067C11.2955 13.479 11.009 13.4913 10.7702 13.3682L13.8508 10.2421C13.8985 10.3405 13.9343 10.4636 13.9343 10.5744C13.9224 10.7344 13.8746 10.8821 13.7791 11.0052ZM9.34927 5.68823L6.28061 8.81439C6.23285 8.71593 6.19703 8.59285 6.19703 8.48208C6.19703 8.29747 6.26867 8.11285 6.40002 7.97747L7.00897 7.36208L8.53733 5.81131C8.75226 5.58977 9.08659 5.54054 9.34927 5.68823ZM6.88957 7.01747L6.67464 6.79593L7.35524 6.1067L7.57017 6.32823L6.88957 7.01747ZM7.27166 4.26054C7.27166 4.60516 7.14032 4.91285 6.90151 5.159C6.77017 5.29439 6.77017 5.51593 6.90151 5.66362L7.11644 5.88516L6.44778 6.56208L6.29255 6.40208C5.803 5.90977 5.803 5.10977 6.29255 4.60516C6.3642 4.53131 6.40002 4.44516 6.40002 4.359C6.40002 4.27285 6.3642 4.1867 6.31644 4.12516L6.99703 3.43593C7.1642 3.65747 7.27166 3.95285 7.27166 4.26054ZM6.4239 2.21747L6.81793 2.61131C6.88957 2.68516 6.92539 2.77131 6.92539 2.86977C6.92539 2.96823 6.88957 3.05439 6.81793 3.12823L6.04181 3.91593C5.89852 4.05131 5.67166 4.05131 5.54032 3.91593L5.14629 3.52208C5.07464 3.44823 5.03882 3.36208 5.03882 3.26362C5.03882 3.16516 5.07464 3.079 5.14629 3.00516L5.92241 2.21747C5.99405 2.14362 6.07763 2.1067 6.17315 2.1067C6.26867 2.1067 6.35226 2.15593 6.4239 2.21747ZM3.17614 2.84516L3.95226 2.05747C4.19106 1.82362 4.50151 1.68823 4.83584 1.68823C5.14629 1.68823 5.44479 1.799 5.67166 2.00823L4.99106 2.69747C4.91942 2.63593 4.83584 2.599 4.74032 2.599C4.64479 2.599 4.56121 2.63593 4.48957 2.69747L3.74927 3.44823C3.25972 3.94054 2.47166 3.94054 1.98211 3.44823L0.573152 1.99593C0.394048 1.82362 0.394048 1.52823 0.573152 1.34362C0.752257 1.17131 1.03882 1.17131 1.20599 1.34362L2.68659 2.84516C2.74629 2.9067 2.84181 2.94362 2.93733 2.94362C3.02091 2.95593 3.11644 2.919 3.17614 2.84516Z" fill="#2D3E50"/>
<mask id="mask0" mask-type="alpha" maskUnits="userSpaceOnUse" x="0" y="0" width="16" height="15">
<path d="M16 0.666672H0V14.9436H16V0.666672Z" fill="white"/>
<path d="M1.43282 1.12208C1.13432 0.814389 0.644764 0.814389 0.346256 1.12208C0.0477486 1.42977 0.0477486 1.92208 0.346256 2.22977L1.76715 3.66977C2.37611 4.29747 3.37909 4.29747 3.98805 3.66977L4.72835 2.919C4.74029 2.9067 4.74029 2.9067 4.75223 2.9067C4.75223 2.9067 4.76417 2.9067 4.76417 2.919L4.79999 2.95593C4.75223 3.05439 4.72835 3.15285 4.72835 3.26362C4.72835 3.44823 4.79999 3.62054 4.93133 3.74362L5.32536 4.13747C5.5164 4.33439 5.81491 4.38362 6.05372 4.28516C6.06566 4.29747 6.06566 4.30977 6.0776 4.30977C6.08954 4.32208 6.08954 4.33439 6.0776 4.3467C5.46864 4.96208 5.46864 5.98362 6.0776 6.599L6.68655 7.21439L6.197 7.719C6.00596 7.91593 5.89849 8.17439 5.89849 8.45747C5.89849 8.71593 5.99402 8.96208 6.16118 9.1467C6.17312 9.159 6.18506 9.17131 6.197 9.18362L10.4 13.4421C10.4119 13.4544 10.4239 13.4667 10.4358 13.479C10.7701 13.7744 11.2477 13.8236 11.6179 13.6144L12.1074 14.119L12.5612 14.5867C12.8358 14.8698 13.2895 14.8698 13.5642 14.5867L13.7074 14.439C13.8507 14.3036 13.9104 14.119 13.9104 13.9344C13.9104 13.7498 13.8388 13.5652 13.7074 13.4298L12.788 12.4944L13.0269 12.2482L14.5552 13.799C14.8298 14.0821 15.2836 14.0821 15.5582 13.799L15.7015 13.6513C15.8328 13.5159 15.9045 13.3313 15.9045 13.1467C15.9045 12.9498 15.8328 12.7775 15.7015 12.6421L15.606 12.5436L15.2239 12.1621L14.1373 11.0544C14.2209 10.8944 14.2686 10.7221 14.2686 10.5498C14.2686 10.2913 14.1731 10.0452 14.006 9.86054C13.994 9.84824 13.9821 9.83593 13.9701 9.82362L9.74327 5.57747C9.73133 5.56516 9.71939 5.55285 9.70745 5.54054C9.30148 5.17131 8.69252 5.18362 8.29849 5.57747L7.797 6.09439L7.46267 5.76208L7.12835 5.42977C7.11641 5.41747 7.11641 5.40516 7.12835 5.39285C7.42685 5.09747 7.59402 4.69131 7.59402 4.26054C7.59402 3.85439 7.45073 3.47285 7.17611 3.17747C7.22387 3.09131 7.23581 2.99285 7.23581 2.88208C7.23581 2.69747 7.16417 2.52516 7.03282 2.40208L6.63879 2.00823C6.50745 1.87285 6.34029 1.81131 6.16118 1.81131C6.08954 1.81131 6.00596 1.82362 5.93432 1.84823C5.63581 1.55285 5.24178 1.38054 4.82387 1.38054C4.40596 1.38054 4.01193 1.54054 3.71342 1.84823L2.9373 2.63593C2.92536 2.64823 2.92536 2.64823 2.91342 2.64823C2.91342 2.64823 2.90148 2.64823 2.88954 2.63593L1.43282 1.12208ZM12.3224 8.65439L13.6358 9.98362L10.5194 13.1467L6.48357 9.06054L9.59999 5.89747L12.3224 8.65439ZM13.2657 13.4913L12.5851 14.1929L12.4298 14.0329L13.1104 13.3313L13.2657 13.4913ZM13.4567 14.2298L13.3134 14.3775C13.1701 14.5129 12.9552 14.5252 12.8119 14.4144L13.4925 13.7252C13.6119 13.8729 13.6 14.0944 13.4567 14.2298ZM12.8836 13.0975L12.203 13.799L11.8567 13.4421L12.5373 12.7405L12.8836 13.0975ZM13.9224 11.3498L14.8657 12.3098L14.1851 13.0113L13.2418 12.0513L13.9224 11.3498ZM15.2477 12.6913L14.5672 13.3929L14.4119 13.2329L15.0925 12.5313L15.2477 12.6913ZM15.4507 13.4544L15.3074 13.6021C15.1642 13.7498 14.9373 13.7498 14.7821 13.6267L15.4627 12.9375C15.5224 13.0113 15.5582 13.0975 15.5582 13.1959C15.5582 13.2821 15.5224 13.3805 15.4507 13.4544ZM13.7791 11.0052C13.7552 11.0298 13.7433 11.0544 13.7194 11.079L11.594 13.2452C11.5701 13.2698 11.5463 13.2944 11.5224 13.3067C11.2955 13.479 11.0089 13.4913 10.7701 13.3682L13.8507 10.2421C13.8985 10.3405 13.9343 10.4636 13.9343 10.5744C13.9224 10.7344 13.8746 10.8821 13.7791 11.0052ZM9.34924 5.68823L6.28058 8.81439C6.23282 8.71593 6.197 8.59285 6.197 8.48208C6.197 8.29747 6.26864 8.11285 6.39999 7.97747L7.00894 7.36208L8.5373 5.81131C8.75223 5.58977 9.08655 5.54054 9.34924 5.68823ZM6.88954 7.01747L6.67461 6.79593L7.35521 6.1067L7.57014 6.32823L6.88954 7.01747ZM7.27163 4.26054C7.27163 4.60516 7.14029 4.91285 6.90148 5.159C6.77014 5.29439 6.77014 5.51593 6.90148 5.66362L7.11641 5.88516L6.44775 6.56208L6.29252 6.40208C5.80297 5.90977 5.80297 5.10977 6.29252 4.60516C6.36417 4.53131 6.39999 4.44516 6.39999 4.359C6.39999 4.27285 6.36417 4.1867 6.31641 4.12516L6.997 3.43593C7.16417 3.65747 7.27163 3.95285 7.27163 4.26054ZM6.42387 2.21747L6.8179 2.61131C6.88954 2.68516 6.92536 2.77131 6.92536 2.86977C6.92536 2.96823 6.88954 3.05439 6.8179 3.12823L6.04178 3.91593C5.89849 4.05131 5.67163 4.05131 5.54029 3.91593L5.14626 3.52208C5.07461 3.44823 5.03879 3.36208 5.03879 3.26362C5.03879 3.16516 5.07461 3.079 5.14626 3.00516L5.92238 2.21747C5.99402 2.14362 6.0776 2.1067 6.17312 2.1067C6.26864 2.1067 6.35223 2.15593 6.42387 2.21747ZM3.17611 2.84516L3.95223 2.05747C4.19103 1.82362 4.50148 1.68823 4.83581 1.68823C5.14626 1.68823 5.44476 1.799 5.67163 2.00823L4.99103 2.69747C4.91939 2.63593 4.83581 2.599 4.74029 2.599C4.64476 2.599 4.56118 2.63593 4.48954 2.69747L3.74924 3.44823C3.25969 3.94054 2.47163 3.94054 1.98208 3.44823L0.573122 1.99593C0.394017 1.82362 0.394017 1.52823 0.573122 1.34362C0.752226 1.17131 1.03879 1.17131 1.20596 1.34362L2.68655 2.84516C2.74626 2.9067 2.84178 2.94362 2.9373 2.94362C3.02088 2.95593 3.11641 2.919 3.17611 2.84516Z" fill="black"/>
</mask>
<g mask="url(#mask0)">
<path d="M13.0388 14.9436C12.8239 14.9436 12.6209 14.8575 12.4537 14.6975L11.5701 13.799C11.1761 13.9836 10.6985 13.9221 10.3642 13.639H10.3403L10.3164 13.5898C10.3045 13.5775 10.2925 13.5775 10.2925 13.5652L6.08955 9.29439C6.07761 9.28208 6.06567 9.26977 6.05373 9.24516C5.86269 9.03593 5.76716 8.75285 5.76716 8.46977C5.76716 8.16208 5.88657 7.8667 6.10149 7.64516L6.50746 7.2267L5.97015 6.70977C5.6597 6.37747 5.4806 5.959 5.4806 5.50362C5.4806 5.13439 5.6 4.77747 5.81493 4.48208C5.6 4.49439 5.38507 4.40823 5.22985 4.24823L4.83582 3.85439C4.6806 3.7067 4.59701 3.49747 4.59701 3.27593C4.59701 3.26362 4.59701 3.239 4.59701 3.2267L4.0597 3.76823C3.40299 4.43285 2.32836 4.43285 1.67164 3.76823L0.262687 2.31593C0.0955224 2.14362 0 1.92208 0 1.67593C0 1.42977 0.0955224 1.20823 0.262687 1.03593C0.608955 0.679003 1.17015 0.679003 1.51642 1.03593L2.92537 2.46362L3.64179 1.73747C3.96418 1.41747 4.38209 1.23285 4.83582 1.23285C5.26567 1.23285 5.67164 1.39285 5.98209 1.68823C6.25672 1.61439 6.54328 1.70054 6.73433 1.89747L7.12836 2.29131C7.28358 2.439 7.36716 2.64823 7.36716 2.86977C7.36716 2.95593 7.35522 3.05439 7.3194 3.14054C7.58209 3.44823 7.71343 3.84208 7.71343 4.24823C7.71343 4.679 7.55821 5.07285 7.28358 5.39285L7.79702 5.90977L8.21493 5.479C8.64478 5.04823 9.32537 5.02362 9.7791 5.42977L9.79104 5.44208C9.80299 5.45439 9.81493 5.4667 9.82687 5.479L14.0299 9.73747C14.0418 9.74977 14.0537 9.76208 14.0776 9.7867C14.2687 9.99593 14.3642 10.2667 14.3642 10.5621C14.3642 10.7221 14.3284 10.8944 14.2567 11.0421L15.2478 12.0513H15.3194V12.1252L15.7612 12.5682C15.9164 12.7282 16 12.9375 16 13.159C16 13.3805 15.9164 13.5898 15.7612 13.7498L15.6179 13.8975C15.2955 14.2175 14.7701 14.2298 14.4478 13.8975L13.003 12.4329L12.9313 12.5067L13.7672 13.3559C13.9224 13.5159 14.006 13.7252 14.006 13.9467C14.006 14.1682 13.9224 14.3775 13.7672 14.5375L13.6239 14.6852C13.4687 14.8575 13.2537 14.9436 13.0388 14.9436ZM11.6179 13.4913L12.6328 14.5129C12.8597 14.7467 13.2299 14.7467 13.4687 14.5129L13.6119 14.3652C13.7194 14.2544 13.7791 14.1067 13.7791 13.9467C13.7791 13.7867 13.7194 13.639 13.6119 13.5282L12.609 12.5067L13.0149 12.0882L14.6269 13.7252C14.8537 13.959 15.2239 13.959 15.4627 13.7252L15.606 13.5775C15.7134 13.4667 15.7731 13.319 15.7731 13.159C15.7731 12.999 15.7134 12.8513 15.606 12.7405L15.5463 12.679H15.4746V12.6052L15.1403 12.2605L15.0925 12.2236V12.2359L13.9821 11.1036L14.0299 11.0175C14.1015 10.8821 14.1493 10.7221 14.1493 10.5744C14.1493 10.3529 14.0657 10.1313 13.9224 9.95901C13.9104 9.9467 13.8985 9.93439 13.8866 9.92208L9.6597 5.66362C9.64776 5.65131 9.63582 5.639 9.62388 5.639C9.26567 5.3067 8.71642 5.319 8.38209 5.66362L7.79702 6.2667L7.0806 5.54054H7.00896V5.44208C6.99701 5.39285 7.00896 5.33131 7.04478 5.29439C7.3194 5.01131 7.47463 4.64208 7.47463 4.24823C7.47463 3.879 7.33134 3.52208 7.09254 3.25131L7.03284 3.18977L7.06866 3.11593C7.10448 3.04208 7.11642 2.95593 7.11642 2.86977C7.11642 2.72208 7.05672 2.57439 6.94925 2.47593L6.56716 2.08208C6.42388 1.93439 6.19701 1.87285 5.99403 1.9467L5.92239 1.97131L5.87463 1.92208C5.6 1.639 5.24179 1.49131 4.84776 1.49131C4.46567 1.49131 4.09552 1.639 3.8209 1.92208L3.04478 2.70977C2.98507 2.77131 2.88955 2.77131 2.84179 2.70977L1.34925 1.20823C1.09851 0.949773 0.680597 0.949773 0.429851 1.20823C0.310448 1.33131 0.238806 1.50362 0.238806 1.67593C0.238806 1.84823 0.310448 2.02054 0.429851 2.14362L1.85075 3.58362C2.41194 4.16208 3.34328 4.16208 3.90448 3.58362L4.64478 2.83285C4.69254 2.78362 4.77612 2.77131 4.83582 2.82054L4.84776 2.83285L4.94328 2.919L4.89552 3.00516C4.8597 3.079 4.83582 3.16516 4.83582 3.26362C4.83582 3.41131 4.89552 3.559 5.00299 3.65747L5.39702 4.05131C5.55224 4.21131 5.79104 4.26054 5.99403 4.17439L6.08955 4.13747L6.13731 4.22362C6.17313 4.26054 6.18507 4.29747 6.18507 4.33439C6.18507 4.3467 6.18507 4.37131 6.17313 4.38362V4.40824L6.13731 4.44516C5.86269 4.72824 5.70746 5.09747 5.70746 5.49131C5.70746 5.88516 5.85075 6.24208 6.12537 6.52516L6.13731 6.53747L6.81791 7.2267L6.23284 7.81747C6.06567 7.98977 5.97015 8.22362 5.97015 8.45747C5.97015 8.67901 6.05373 8.90054 6.19701 9.07285C6.20896 9.08516 6.2209 9.09747 6.23284 9.10977L10.4358 13.3682L10.4478 13.3805L10.4716 13.4052C10.7582 13.6636 11.1761 13.7129 11.5104 13.5159L11.6179 13.4913ZM13.0388 14.6113C12.9313 14.6113 12.8239 14.5744 12.7403 14.5129L12.6328 14.4267L13.5045 13.5405L13.5881 13.6513C13.7433 13.8605 13.7194 14.1436 13.5403 14.3282L13.397 14.4759C13.3015 14.5621 13.1701 14.6113 13.0388 14.6113ZM13.0269 14.3652C13.0985 14.3652 13.1821 14.3405 13.2299 14.2913L13.3731 14.1436C13.4328 14.0821 13.4567 14.0082 13.4448 13.9344L13.0269 14.3652ZM12.5851 14.3529L12.2627 14.0205L13.1224 13.1467L13.4448 13.479L12.5851 14.3529ZM12.203 13.9713L11.6776 13.4421L12.5373 12.5682L13.0627 13.0975L12.203 13.9713ZM12.0239 13.4421L12.203 13.6267L12.7164 13.0975L12.5373 12.9129L12.0239 13.4421ZM15.0328 13.8236C14.9134 13.8236 14.806 13.7867 14.7104 13.7005L14.6149 13.6144L15.4866 12.7282L15.5701 12.8267C15.6418 12.9129 15.6896 13.0359 15.6896 13.159C15.6896 13.2944 15.6418 13.4298 15.5463 13.5282L15.403 13.6759C15.2955 13.7744 15.1642 13.8236 15.0328 13.8236ZM14.9851 13.5775C15.0687 13.5898 15.1522 13.5652 15.2239 13.5036L15.3672 13.3559C15.4149 13.3067 15.4388 13.2329 15.4388 13.1713C15.4388 13.159 15.4388 13.1344 15.4388 13.1221L14.9851 13.5775ZM11.0925 13.5775C10.9612 13.5775 10.8299 13.5405 10.7104 13.479L10.5672 13.4052L13.8746 10.0452L13.9463 10.1929C14.006 10.3159 14.0418 10.4513 14.0418 10.5867C14.0418 10.7713 13.9821 10.9436 13.8746 11.0913C13.8507 11.1159 13.8269 11.1529 13.803 11.1775L11.6776 13.3436C11.6537 13.3682 11.6179 13.3929 11.594 13.4175C11.4507 13.5159 11.2716 13.5775 11.0925 13.5775ZM10.9851 13.319C11.1403 13.3559 11.3194 13.3067 11.4507 13.2082C11.4746 13.1959 11.4866 13.1713 11.5104 13.159L13.6358 10.9929C13.6597 10.9682 13.6716 10.9559 13.6836 10.9313C13.7552 10.8329 13.803 10.7098 13.803 10.5744C13.803 10.5375 13.803 10.5005 13.791 10.4636L10.9851 13.319ZM14.5552 13.5529L14.2328 13.2205L15.0925 12.3467L15.4149 12.679L14.5552 13.5529ZM10.5194 13.3313L6.31642 9.06054L9.61194 5.72516L12.4179 8.56824L13.8149 9.98362L10.5194 13.3313ZM6.65075 9.06054L10.5194 12.9867L13.4687 9.99593L9.6 6.06977L6.65075 9.06054ZM14.1731 13.1713L13.0627 12.039L13.9224 11.1652L15.0328 12.2975L14.1731 13.1713ZM13.397 12.039L14.1731 12.8267L14.6866 12.2975L13.9104 11.5098L13.397 12.039ZM6.24478 9.01131L6.17313 8.86362C6.11343 8.74054 6.07761 8.60516 6.07761 8.46977C6.07761 8.24824 6.16119 8.039 6.31642 7.879L8.44179 5.71285C8.69254 5.45439 9.08657 5.39285 9.40896 5.56516L9.55224 5.639L6.24478 9.01131ZM7.05672 7.48516L6.48358 8.06362C6.37612 8.17439 6.31642 8.32208 6.31642 8.48208C6.31642 8.519 6.31642 8.55593 6.32836 8.59285L9.13433 5.73747C8.94328 5.70054 8.75224 5.76208 8.60895 5.89747L7.12836 7.41131V7.48516H7.05672ZM6.88955 7.18977L6.49552 6.79593L7.34328 5.93439L7.73731 6.32824L6.88955 7.18977ZM6.84179 6.78362L6.88955 6.83285L7.40299 6.32824L7.35522 6.279L6.84179 6.78362ZM6.44776 6.73439L6.20896 6.48823C5.94627 6.22977 5.81493 5.87285 5.81493 5.50362C5.81493 5.1467 5.94627 4.81439 6.18507 4.55593V4.48208H6.24478C6.26866 4.44516 6.2806 4.39593 6.2806 4.359C6.2806 4.29747 6.25672 4.24823 6.2209 4.21131L6.13731 4.11285L6.98507 3.25131L7.06866 3.34977C7.28358 3.59593 7.39104 3.91593 7.39104 4.24823C7.39104 4.61747 7.24776 4.97439 6.98507 5.23285C6.94925 5.28208 6.92537 5.34362 6.92537 5.40516C6.92537 5.4667 6.94925 5.51593 6.98507 5.56516L7.29552 5.87285L6.44776 6.73439ZM6.36418 6.30362L6.44776 6.38977L6.96119 5.87285L6.82985 5.73747C6.73433 5.639 6.68657 5.52824 6.68657 5.39285C6.68657 5.26977 6.73433 5.1467 6.82985 5.06054C7.04478 4.839 7.16418 4.55593 7.16418 4.24823C7.16418 4.01439 7.09254 3.79285 6.97313 3.60823L6.4597 4.12516C6.49552 4.1867 6.50746 4.27285 6.50746 4.3467C6.50746 4.45747 6.47164 4.55593 6.4 4.64208L6.36418 4.679C6.14925 4.90054 6.02985 5.18362 6.02985 5.49131C6.04179 5.799 6.16119 6.08208 6.36418 6.30362ZM5.79104 4.14977C5.67164 4.14977 5.55224 4.10054 5.45672 4.01439L5.06269 3.62054C4.96716 3.53439 4.9194 3.41131 4.9194 3.27593C4.9194 3.14054 4.96716 3.02977 5.06269 2.93131L5.83881 2.14362C6.01791 1.959 6.32836 1.959 6.50746 2.14362L6.90149 2.53747C6.99701 2.62362 7.04478 2.7467 7.04478 2.88208C7.04478 3.01747 6.99701 3.12823 6.90149 3.2267L6.12537 4.01439C6.02985 4.10054 5.91045 4.14977 5.79104 4.14977ZM6.17313 2.24208C6.11343 2.24208 6.05373 2.2667 6.00597 2.31593L5.22985 3.10362C5.18209 3.15285 5.15821 3.20208 5.15821 3.27593C5.15821 3.33747 5.18209 3.399 5.22985 3.44823L5.62388 3.84208C5.7194 3.94054 5.86269 3.94054 5.95821 3.84208L6.73433 3.05439C6.78209 3.00516 6.80597 2.94362 6.80597 2.88208C6.80597 2.82054 6.78209 2.759 6.73433 2.70977L6.3403 2.31593C6.29254 2.2667 6.23284 2.24208 6.17313 2.24208ZM2.87761 3.92823C2.53134 3.92823 2.17313 3.79285 1.91045 3.52208L0.489552 2.08208C0.38209 1.97131 0.322388 1.82362 0.322388 1.67593C0.322388 1.51593 0.38209 1.36823 0.489552 1.26977C0.716418 1.04823 1.07463 1.04823 1.28955 1.26977L2.77015 2.759C2.81791 2.80823 2.86567 2.83285 2.93731 2.83285C2.99701 2.83285 3.05672 2.80823 3.10448 2.759L3.8806 1.97131C4.14328 1.71285 4.47761 1.56516 4.84776 1.56516C5.18209 1.56516 5.50448 1.68823 5.75522 1.92208L5.85075 2.00823L5.00299 2.86977L4.89552 2.77131C4.81194 2.68516 4.65672 2.68516 4.57313 2.77131L3.83284 3.52208C3.57015 3.79285 3.22388 3.92823 2.87761 3.92823ZM0.895522 1.34362C0.81194 1.34362 0.728358 1.38054 0.656716 1.44208C0.597015 1.50362 0.561194 1.58977 0.561194 1.67593C0.561194 1.76208 0.597015 1.84823 0.656716 1.90977L2.07761 3.34977C2.5194 3.79285 3.23582 3.79285 3.67761 3.34977L4.41791 2.599C4.57313 2.45131 4.81194 2.41439 4.99104 2.52516L5.49254 2.02054C5.30149 1.88516 5.07463 1.81131 4.83582 1.81131C4.53731 1.81131 4.25075 1.93439 4.03582 2.14362L3.2597 2.93131C3.17612 3.01747 3.05672 3.079 2.92537 3.0667C2.80597 3.0667 2.68657 3.01747 2.59104 2.93131L1.12239 1.44208C1.06269 1.36823 0.979104 1.34362 0.895522 1.34362Z" fill="#2D3E50"/>
</g>
</svg>
