<svg width="12" height="12" viewBox="0 0 12 12" fill="none" xmlns="http://www.w3.org/2000/svg">
<path d="M5.82984 6.33386L5.79402 6.37079L5.82984 6.33386C5.76715 6.26925 5.65969 6.26925 5.597 6.33386C5.53432 6.39848 5.53432 6.50925 5.597 6.57386L8.08655 9.10309C8.14924 9.16771 8.2567 9.16771 8.31939 9.10309C8.35521 9.06617 8.36417 9.02925 8.36417 8.98309C8.36417 8.93694 8.34626 8.90002 8.31939 8.86309L5.82984 6.33386Z" fill="#2D3E50"/>
<path d="M8.20298 9.1954C8.14925 9.1954 8.09552 9.17694 8.05074 9.13079L5.56119 6.61079C5.52537 6.57386 5.4985 6.51848 5.4985 6.45386C5.4985 6.39848 5.51641 6.34309 5.56119 6.30617C5.63283 6.23232 5.7403 6.22309 5.82089 6.27848L8.33731 8.8354C8.37313 8.87232 8.4 8.92771 8.4 8.98309C8.4 9.03848 8.38209 9.09386 8.33731 9.13079C8.31044 9.17694 8.25671 9.1954 8.20298 9.1954ZM5.71343 6.33386C5.68656 6.33386 5.65074 6.34309 5.62388 6.37079C5.59701 6.39848 5.58806 6.42617 5.58806 6.45386C5.58806 6.49079 5.59701 6.51848 5.62388 6.53694L8.11343 9.06617C8.15821 9.11232 8.2388 9.11232 8.28358 9.06617C8.31044 9.04771 8.3194 9.01079 8.3194 8.98309C8.3194 8.9554 8.31044 8.91848 8.28358 8.90002L5.79403 6.37079C5.77612 6.34309 5.7403 6.33386 5.71343 6.33386Z" fill="#2D3E50"/>
<path d="M8.65971 8.5123C8.72239 8.57692 8.82986 8.57692 8.89254 8.5123L6.40299 5.74307L6.37612 5.77076L6.40299 5.74307C6.3403 5.67846 6.23284 5.67846 6.17015 5.74307L6.20597 5.77999L6.17015 5.74307C6.10747 5.80769 6.10747 5.91846 6.17015 5.98307L8.65971 8.5123Z" fill="#2D3E50"/>
<path d="M8.77612 8.61386C8.72239 8.61386 8.66866 8.5954 8.62388 8.54924L6.14328 6.02001C6.10746 5.98309 6.0806 5.92771 6.0806 5.86309C6.0806 5.81694 6.08955 5.78001 6.11642 5.74309L6.14328 5.7154L6.1791 5.67848C6.25075 5.63232 6.3403 5.63232 6.40298 5.67848L6.41194 5.66924L6.47463 5.73386L8.96418 8.50309L8.93731 8.53078C8.88358 8.58617 8.82985 8.61386 8.77612 8.61386ZM6.20597 5.78924C6.18806 5.80771 6.17015 5.84463 6.17015 5.87232C6.17015 5.90924 6.1791 5.93694 6.20597 5.9554L8.69552 8.48463C8.73134 8.52155 8.78507 8.53078 8.82985 8.51232L6.37612 5.78001C6.33134 5.73386 6.25075 5.73386 6.20597 5.78924Z" fill="#2D3E50"/>
<path d="M9.47463 7.93077C9.51045 7.89385 9.51941 7.85693 9.51941 7.81077C9.51941 7.76462 9.5015 7.7277 9.47463 7.69078L6.98508 5.16154C6.92239 5.09693 6.81493 5.09693 6.75225 5.16154C6.68956 5.22616 6.68956 5.33693 6.75225 5.40154L9.2418 7.93077C9.30448 7.99539 9.40299 7.99539 9.47463 7.93077Z" fill="#2D3E50"/>
<path d="M9.35823 8.02307C9.30449 8.02307 9.25076 8.00461 9.20599 7.95846L6.71643 5.43846C6.68061 5.40153 6.65375 5.34615 6.65375 5.29076C6.65375 5.23538 6.67166 5.18 6.71643 5.14307C6.79703 5.06 6.93136 5.06 7.01196 5.14307L9.50151 7.6723C9.53733 7.70923 9.5642 7.76461 9.5642 7.82923C9.5642 7.88461 9.54628 7.94 9.50151 7.97692C9.46569 8.00461 9.41196 8.02307 9.35823 8.02307ZM6.86867 5.16153C6.84181 5.16153 6.80599 5.17076 6.77912 5.19846C6.75225 5.21692 6.7433 5.25384 6.7433 5.28153C6.7433 5.31846 6.75225 5.34615 6.77912 5.36461L9.26867 7.89384C9.31345 7.94 9.39405 7.94 9.43882 7.89384C9.46569 7.86615 9.47464 7.83846 9.47464 7.81076C9.47464 7.77384 9.46569 7.74615 9.43882 7.72769L6.94927 5.19846C6.93136 5.17076 6.89554 5.16153 6.86867 5.16153Z" fill="#2D3E50"/>
<path d="M1.07463 0.841564C0.850752 0.610795 0.483588 0.610795 0.259707 0.841564C0.0358267 1.07233 0.0358267 1.44156 0.259707 1.67233L1.32538 2.75233C1.7821 3.2231 2.53433 3.2231 2.99105 2.75233L3.54627 2.18926C3.55523 2.18003 3.55523 2.18003 3.56418 2.18003C3.56418 2.18003 3.57314 2.18003 3.57314 2.18926L3.60001 2.21695C3.56418 2.2908 3.54627 2.36464 3.54627 2.44772C3.54627 2.58618 3.60001 2.71541 3.69851 2.80772L3.99404 3.1031C4.13732 3.2508 4.3612 3.28772 4.5403 3.21387C4.54926 3.2231 4.54926 3.23233 4.55821 3.23233C4.56717 3.24156 4.56717 3.2508 4.55821 3.26003C4.1015 3.72156 4.1015 4.48772 4.55821 4.94926L5.01493 5.41079L4.64777 5.78926C4.50448 5.93695 4.42389 6.1308 4.42389 6.3431C4.42389 6.53695 4.49553 6.72156 4.6209 6.86003C4.62986 6.86926 4.63881 6.87849 4.64777 6.88772L7.80001 10.0816C7.80896 10.0908 7.81792 10.1 7.82687 10.1093C8.07762 10.3308 8.43583 10.3677 8.71344 10.2108L9.0806 10.5893L9.4209 10.94C9.62687 11.1523 9.96717 11.1523 10.1731 10.94L10.2806 10.8293C10.3881 10.7277 10.4328 10.5893 10.4328 10.4508C10.4328 10.3123 10.3791 10.1739 10.2806 10.0723L9.59105 9.3708L9.77015 9.18618L10.9164 10.3493C11.1224 10.5616 11.4627 10.5616 11.6687 10.3493L11.7761 10.2385C11.8746 10.1369 11.9284 9.99849 11.9284 9.86003C11.9284 9.71233 11.8746 9.5831 11.7761 9.48156L11.7045 9.40772L11.4179 9.12156L10.603 8.2908C10.6657 8.1708 10.7015 8.04156 10.7015 7.91233C10.7015 7.71849 10.6299 7.53387 10.5045 7.39541C10.4955 7.38618 10.4866 7.37695 10.4776 7.36772L7.30747 4.1831C7.29851 4.17387 7.28956 4.16464 7.2806 4.15541C6.97613 3.87849 6.51941 3.88772 6.22389 4.1831L5.84777 4.57079L5.59702 4.32156L5.34627 4.07233C5.33732 4.0631 5.33732 4.05387 5.34627 4.04464C5.57016 3.8231 5.69553 3.51849 5.69553 3.19541C5.69553 2.8908 5.58807 2.60464 5.38209 2.3831C5.41792 2.31849 5.42687 2.24464 5.42687 2.16156C5.42687 2.0231 5.37314 1.89387 5.27463 1.80156L4.97911 1.50618C4.8806 1.40464 4.75523 1.35849 4.6209 1.35849C4.56717 1.35849 4.50448 1.36772 4.45075 1.38618C4.22687 1.16464 3.93135 1.03541 3.61792 1.03541C3.30448 1.03541 3.00896 1.15541 2.78508 1.38618L2.20299 1.97695C2.19404 1.98618 2.19404 1.98618 2.18508 1.98618C2.18508 1.98618 2.17613 1.98618 2.16717 1.97695L1.07463 0.841564ZM9.2418 6.4908L10.2269 7.48772L7.88956 9.86003L4.86269 6.79541L7.20001 4.4231L9.2418 6.4908ZM9.94926 10.1185L9.43881 10.6446L9.32239 10.5246L9.83284 9.99849L9.94926 10.1185ZM10.0925 10.6723L9.98508 10.7831C9.87762 10.8846 9.71642 10.8939 9.60896 10.8108L10.1194 10.2939C10.209 10.4046 10.2 10.5708 10.0925 10.6723ZM9.66269 9.8231L9.15224 10.3493L8.89254 10.0816L9.40299 9.55541L9.66269 9.8231ZM10.4418 8.51233L11.1493 9.23233L10.6388 9.75849L9.93135 9.03849L10.4418 8.51233ZM11.4358 9.51849L10.9254 10.0446L10.809 9.92464L11.3194 9.39849L11.4358 9.51849ZM11.5881 10.0908L11.4806 10.2016C11.3731 10.3123 11.203 10.3123 11.0866 10.22L11.597 9.7031C11.6418 9.75849 11.6687 9.8231 11.6687 9.89695C11.6687 9.96156 11.6418 10.0354 11.5881 10.0908ZM10.3343 8.25387C10.3164 8.27233 10.3075 8.29079 10.2896 8.30926L8.69553 9.93387C8.67762 9.95233 8.65971 9.97079 8.6418 9.98003C8.47165 10.1093 8.25672 10.1185 8.07762 10.0262L10.3881 7.68156C10.4239 7.75541 10.4508 7.84772 10.4508 7.9308C10.4418 8.0508 10.406 8.16156 10.3343 8.25387ZM7.01195 4.26618L4.71045 6.6108C4.67463 6.53695 4.64777 6.44464 4.64777 6.36156C4.64777 6.2231 4.7015 6.08464 4.80001 5.9831L5.25672 5.52156L6.40299 4.35849C6.56418 4.19233 6.81493 4.15541 7.01195 4.26618ZM5.16717 5.2631L5.00598 5.09695L5.51642 4.58003L5.67762 4.74618L5.16717 5.2631ZM5.45374 3.19541C5.45374 3.45387 5.35523 3.68464 5.17613 3.86926C5.07762 3.97079 5.07762 4.13695 5.17613 4.24772L5.33732 4.41387L4.83583 4.92156L4.71941 4.80156C4.35224 4.43233 4.35224 3.83233 4.71941 3.45387C4.77314 3.39849 4.80001 3.33387 4.80001 3.26926C4.80001 3.20464 4.77314 3.14003 4.73732 3.09387L5.24777 2.57695C5.37314 2.7431 5.45374 2.96464 5.45374 3.19541ZM4.81792 1.6631L5.11344 1.95849C5.16717 2.01387 5.19404 2.07849 5.19404 2.15233C5.19404 2.22618 5.16717 2.2908 5.11344 2.34618L4.53135 2.93695C4.42389 3.03849 4.25374 3.03849 4.15523 2.93695L3.85971 2.64156C3.80598 2.58618 3.77911 2.52156 3.77911 2.44772C3.77911 2.37387 3.80598 2.30926 3.85971 2.25387L4.4418 1.6631C4.49553 1.60772 4.55821 1.58003 4.62986 1.58003C4.7015 1.58003 4.76418 1.61695 4.81792 1.6631ZM2.3821 2.13387L2.96418 1.5431C3.14329 1.36772 3.37613 1.26618 3.62687 1.26618C3.85971 1.26618 4.08359 1.34926 4.25374 1.50618L3.74329 2.0231C3.68956 1.97695 3.62687 1.94926 3.55523 1.94926C3.48359 1.94926 3.4209 1.97695 3.36717 2.0231L2.81195 2.58618C2.44478 2.95541 1.85374 2.95541 1.48657 2.58618L0.429857 1.49695C0.295528 1.36772 0.295528 1.14618 0.429857 1.00772C0.564185 0.878488 0.77911 0.878488 0.904483 1.00772L2.01493 2.13387C2.05971 2.18003 2.13135 2.20772 2.20299 2.20772C2.26568 2.21695 2.33732 2.18926 2.3821 2.13387Z" fill="#2D3E50"/>
<mask id="mask0" mask-type="alpha" maskUnits="userSpaceOnUse" x="0" y="0" width="12" height="12">
<path d="M12 0.5H0V11.2077H12V0.5Z" fill="white"/>
<path d="M1.07463 0.841564C0.850752 0.610795 0.483588 0.610795 0.259707 0.841564C0.0358267 1.07233 0.0358267 1.44156 0.259707 1.67233L1.32538 2.75233C1.7821 3.2231 2.53433 3.2231 2.99105 2.75233L3.54627 2.18926C3.55523 2.18003 3.55523 2.18003 3.56418 2.18003C3.56418 2.18003 3.57314 2.18003 3.57314 2.18926L3.60001 2.21695C3.56418 2.2908 3.54627 2.36464 3.54627 2.44772C3.54627 2.58618 3.60001 2.71541 3.69851 2.80772L3.99404 3.1031C4.13732 3.2508 4.3612 3.28772 4.5403 3.21387C4.54926 3.2231 4.54926 3.23233 4.55821 3.23233C4.56717 3.24156 4.56717 3.2508 4.55821 3.26003C4.1015 3.72156 4.1015 4.48772 4.55821 4.94926L5.01493 5.41079L4.64777 5.78926C4.50448 5.93695 4.42389 6.1308 4.42389 6.3431C4.42389 6.53695 4.49553 6.72156 4.6209 6.86003C4.62986 6.86926 4.63881 6.87849 4.64777 6.88772L7.80001 10.0816C7.80896 10.0908 7.81792 10.1 7.82687 10.1093C8.07762 10.3308 8.43583 10.3677 8.71344 10.2108L9.0806 10.5893L9.4209 10.94C9.62687 11.1523 9.96717 11.1523 10.1731 10.94L10.2806 10.8293C10.3881 10.7277 10.4328 10.5893 10.4328 10.4508C10.4328 10.3123 10.3791 10.1739 10.2806 10.0723L9.59105 9.3708L9.77015 9.18618L10.9164 10.3493C11.1224 10.5616 11.4627 10.5616 11.6687 10.3493L11.7761 10.2385C11.8746 10.1369 11.9284 9.99849 11.9284 9.86003C11.9284 9.71233 11.8746 9.5831 11.7761 9.48156L11.7045 9.40772L11.4179 9.12156L10.603 8.2908C10.6657 8.1708 10.7015 8.04156 10.7015 7.91233C10.7015 7.71849 10.6299 7.53387 10.5045 7.39541C10.4955 7.38618 10.4866 7.37695 10.4776 7.36772L7.30747 4.1831C7.29851 4.17387 7.28956 4.16464 7.2806 4.15541C6.97613 3.87849 6.51941 3.88772 6.22389 4.1831L5.84777 4.57079L5.59702 4.32156L5.34627 4.07233C5.33732 4.0631 5.33732 4.05387 5.34627 4.04464C5.57016 3.8231 5.69553 3.51849 5.69553 3.19541C5.69553 2.8908 5.58807 2.60464 5.38209 2.3831C5.41792 2.31849 5.42687 2.24464 5.42687 2.16156C5.42687 2.0231 5.37314 1.89387 5.27463 1.80156L4.97911 1.50618C4.8806 1.40464 4.75523 1.35849 4.6209 1.35849C4.56717 1.35849 4.50448 1.36772 4.45075 1.38618C4.22687 1.16464 3.93135 1.03541 3.61792 1.03541C3.30448 1.03541 3.00896 1.15541 2.78508 1.38618L2.20299 1.97695C2.19404 1.98618 2.19404 1.98618 2.18508 1.98618C2.18508 1.98618 2.17613 1.98618 2.16717 1.97695L1.07463 0.841564ZM9.2418 6.4908L10.2269 7.48772L7.88956 9.86003L4.86269 6.79541L7.20001 4.4231L9.2418 6.4908ZM9.94926 10.1185L9.43881 10.6446L9.32239 10.5246L9.83284 9.99849L9.94926 10.1185ZM10.0925 10.6723L9.98508 10.7831C9.87762 10.8846 9.71642 10.8939 9.60896 10.8108L10.1194 10.2939C10.209 10.4046 10.2 10.5708 10.0925 10.6723ZM9.66269 9.8231L9.15224 10.3493L8.89254 10.0816L9.40299 9.55541L9.66269 9.8231ZM10.4418 8.51233L11.1493 9.23233L10.6388 9.75849L9.93135 9.03849L10.4418 8.51233ZM11.4358 9.51849L10.9254 10.0446L10.809 9.92464L11.3194 9.39849L11.4358 9.51849ZM11.5881 10.0908L11.4806 10.2016C11.3731 10.3123 11.203 10.3123 11.0866 10.22L11.597 9.7031C11.6418 9.75849 11.6687 9.8231 11.6687 9.89695C11.6687 9.96156 11.6418 10.0354 11.5881 10.0908ZM10.3343 8.25387C10.3164 8.27233 10.3075 8.29079 10.2896 8.30926L8.69553 9.93387C8.67762 9.95233 8.65971 9.97079 8.6418 9.98003C8.47165 10.1093 8.25672 10.1185 8.07762 10.0262L10.3881 7.68156C10.4239 7.75541 10.4508 7.84772 10.4508 7.9308C10.4418 8.0508 10.406 8.16156 10.3343 8.25387ZM7.01195 4.26618L4.71045 6.6108C4.67463 6.53695 4.64777 6.44464 4.64777 6.36156C4.64777 6.2231 4.7015 6.08464 4.80001 5.9831L5.25672 5.52156L6.40299 4.35849C6.56418 4.19233 6.81493 4.15541 7.01195 4.26618ZM5.16717 5.2631L5.00598 5.09695L5.51642 4.58003L5.67762 4.74618L5.16717 5.2631ZM5.45374 3.19541C5.45374 3.45387 5.35523 3.68464 5.17613 3.86926C5.07762 3.97079 5.07762 4.13695 5.17613 4.24772L5.33732 4.41387L4.83583 4.92156L4.71941 4.80156C4.35224 4.43233 4.35224 3.83233 4.71941 3.45387C4.77314 3.39849 4.80001 3.33387 4.80001 3.26926C4.80001 3.20464 4.77314 3.14003 4.73732 3.09387L5.24777 2.57695C5.37314 2.7431 5.45374 2.96464 5.45374 3.19541ZM4.81792 1.6631L5.11344 1.95849C5.16717 2.01387 5.19404 2.07849 5.19404 2.15233C5.19404 2.22618 5.16717 2.2908 5.11344 2.34618L4.53135 2.93695C4.42389 3.03849 4.25374 3.03849 4.15523 2.93695L3.85971 2.64156C3.80598 2.58618 3.77911 2.52156 3.77911 2.44772C3.77911 2.37387 3.80598 2.30926 3.85971 2.25387L4.4418 1.6631C4.49553 1.60772 4.55821 1.58003 4.62986 1.58003C4.7015 1.58003 4.76418 1.61695 4.81792 1.6631ZM2.3821 2.13387L2.96418 1.5431C3.14329 1.36772 3.37613 1.26618 3.62687 1.26618C3.85971 1.26618 4.08359 1.34926 4.25374 1.50618L3.74329 2.0231C3.68956 1.97695 3.62687 1.94926 3.55523 1.94926C3.48359 1.94926 3.4209 1.97695 3.36717 2.0231L2.81195 2.58618C2.44478 2.95541 1.85374 2.95541 1.48657 2.58618L0.429857 1.49695C0.295528 1.36772 0.295528 1.14618 0.429857 1.00772C0.564185 0.878488 0.77911 0.878488 0.904483 1.00772L2.01493 2.13387C2.05971 2.18003 2.13135 2.20772 2.20299 2.20772C2.26568 2.21695 2.33732 2.18926 2.3821 2.13387Z" fill="black"/>
</mask>
<g mask="url(#mask0)">
<path d="M9.7791 11.2077C9.61791 11.2077 9.46567 11.1431 9.3403 11.0231L8.67761 10.3493C8.38209 10.4877 8.02388 10.4416 7.77313 10.2293H7.75522L7.73731 10.1923C7.72836 10.1831 7.7194 10.1831 7.7194 10.1739L4.56716 6.97079C4.55821 6.96156 4.54925 6.95233 4.5403 6.93387C4.39702 6.77694 4.32537 6.56463 4.32537 6.35233C4.32537 6.12156 4.41493 5.90002 4.57612 5.73386L4.8806 5.42002L4.47761 5.03233C4.24478 4.7831 4.11045 4.46925 4.11045 4.12771C4.11045 3.85079 4.2 3.5831 4.36119 3.36156C4.2 3.37079 4.03881 3.30617 3.92239 3.18617L3.62687 2.89079C3.51045 2.78002 3.44776 2.6231 3.44776 2.45694C3.44776 2.44771 3.44776 2.42925 3.44776 2.42002L3.04478 2.82617C2.55224 3.32463 1.74627 3.32463 1.25373 2.82617L0.197015 1.73694C0.0716418 1.60771 0 1.44156 0 1.25694C0 1.07233 0.0716418 0.906172 0.197015 0.776941C0.456716 0.509249 0.877612 0.509249 1.13731 0.776941L2.19403 1.84771L2.73134 1.3031C2.97313 1.0631 3.28657 0.924634 3.62687 0.924634C3.94925 0.924634 4.25373 1.04463 4.48657 1.26617C4.69254 1.21079 4.90746 1.2754 5.05075 1.4231L5.34627 1.71848C5.46269 1.82925 5.52537 1.98617 5.52537 2.15233C5.52537 2.21694 5.51642 2.29079 5.48955 2.3554C5.68657 2.58617 5.78507 2.88156 5.78507 3.18617C5.78507 3.50925 5.66866 3.80463 5.46269 4.04463L5.84776 4.43233L6.16119 4.10925C6.48358 3.78617 6.99403 3.76771 7.33433 4.07233L7.34328 4.08156C7.35224 4.09079 7.36119 4.10002 7.37015 4.10925L10.5224 7.3031C10.5313 7.31233 10.5403 7.32156 10.5582 7.34002C10.7015 7.49694 10.7731 7.70002 10.7731 7.92156C10.7731 8.04156 10.7463 8.17079 10.6925 8.28156L11.4358 9.03848H11.4896V9.09387L11.8209 9.42617C11.9373 9.54617 12 9.7031 12 9.86925C12 10.0354 11.9373 10.1923 11.8209 10.3123L11.7134 10.4231C11.4716 10.6631 11.0776 10.6723 10.8358 10.4231L9.75224 9.32464L9.69851 9.38002L10.3254 10.0169C10.4418 10.1369 10.5045 10.2939 10.5045 10.46C10.5045 10.6262 10.4418 10.7831 10.3254 10.9031L10.2179 11.0139C10.1015 11.1431 9.9403 11.2077 9.7791 11.2077ZM8.71343 10.1185L9.47463 10.8846C9.64478 11.06 9.92239 11.06 10.1015 10.8846L10.209 10.7739C10.2896 10.6908 10.3343 10.58 10.3343 10.46C10.3343 10.34 10.2896 10.2293 10.209 10.1462L9.45672 9.38002L9.76119 9.06617L10.9701 10.2939C11.1403 10.4693 11.4179 10.4693 11.597 10.2939L11.7045 10.1831C11.7851 10.1 11.8299 9.98925 11.8299 9.86925C11.8299 9.74925 11.7851 9.63848 11.7045 9.5554L11.6597 9.50925H11.606V9.45387L11.3552 9.1954L11.3194 9.16771V9.17694L10.4866 8.32771L10.5224 8.2631C10.5761 8.16156 10.6119 8.04156 10.6119 7.93079C10.6119 7.76464 10.5493 7.59848 10.4418 7.46925C10.4328 7.46002 10.4239 7.45079 10.4149 7.44156L7.24478 4.24771C7.23582 4.23848 7.22687 4.22925 7.21791 4.22925C6.94925 3.98002 6.53731 3.98925 6.28657 4.24771L5.84776 4.70002L5.31045 4.1554H5.25672V4.08156C5.24776 4.04463 5.25672 3.99848 5.28358 3.97079C5.48955 3.75848 5.60597 3.48156 5.60597 3.18617C5.60597 2.90925 5.49851 2.64156 5.3194 2.43848L5.27463 2.39233L5.30149 2.33694C5.32836 2.28156 5.33731 2.21694 5.33731 2.15233C5.33731 2.04156 5.29254 1.93079 5.21194 1.85694L4.92537 1.56156C4.81791 1.45079 4.64776 1.40463 4.49552 1.46002L4.44179 1.47848L4.40597 1.44156C4.2 1.22925 3.93134 1.11848 3.63582 1.11848C3.34925 1.11848 3.07164 1.22925 2.86567 1.44156L2.28358 2.03233C2.23881 2.07848 2.16716 2.07848 2.13134 2.03233L1.01194 0.906172C0.823881 0.712326 0.510448 0.712326 0.322388 0.906172C0.232836 0.99848 0.179104 1.12771 0.179104 1.25694C0.179104 1.38617 0.232836 1.5154 0.322388 1.60771L1.38806 2.68771C1.80896 3.12156 2.50746 3.12156 2.92836 2.68771L3.48358 2.12463C3.5194 2.08771 3.58209 2.07848 3.62687 2.1154L3.63582 2.12463L3.70746 2.18925L3.67164 2.25386C3.64478 2.30925 3.62687 2.37386 3.62687 2.44771C3.62687 2.55848 3.67164 2.66925 3.75224 2.7431L4.04776 3.03848C4.16418 3.15848 4.34328 3.1954 4.49552 3.13079L4.56716 3.1031L4.60299 3.16771C4.62985 3.1954 4.63881 3.2231 4.63881 3.25079C4.63881 3.26002 4.63881 3.27848 4.62985 3.28771V3.30617L4.60299 3.33386C4.39702 3.54617 4.2806 3.8231 4.2806 4.11848C4.2806 4.41386 4.38806 4.68156 4.59403 4.89386L4.60299 4.9031L5.11343 5.42002L4.67463 5.8631C4.54925 5.99233 4.47761 6.16771 4.47761 6.3431C4.47761 6.50925 4.5403 6.6754 4.64776 6.80464C4.65672 6.81387 4.66567 6.8231 4.67463 6.83233L7.82687 10.0262L7.83582 10.0354L7.85373 10.0539C8.06866 10.2477 8.38209 10.2846 8.63284 10.1369L8.71343 10.1185ZM9.7791 10.9585C9.69851 10.9585 9.61791 10.9308 9.55522 10.8846L9.47463 10.82L10.1284 10.1554L10.191 10.2385C10.3075 10.3954 10.2896 10.6077 10.1552 10.7462L10.0478 10.8569C9.97612 10.9216 9.87761 10.9585 9.7791 10.9585ZM9.77015 10.7739C9.82388 10.7739 9.88657 10.7554 9.92239 10.7185L10.0299 10.6077C10.0746 10.5616 10.0925 10.5062 10.0836 10.4508L9.77015 10.7739ZM9.43881 10.7646L9.19701 10.5154L9.84179 9.86002L10.0836 10.1093L9.43881 10.7646ZM9.15224 10.4785L8.75821 10.0816L9.40298 9.42617L9.79702 9.8231L9.15224 10.4785ZM9.01791 10.0816L9.15224 10.22L9.53731 9.8231L9.40298 9.68464L9.01791 10.0816ZM11.2746 10.3677C11.1851 10.3677 11.1045 10.34 11.0328 10.2754L10.9612 10.2108L11.6149 9.54617L11.6776 9.62002C11.7313 9.68464 11.7672 9.77694 11.7672 9.86925C11.7672 9.97079 11.7313 10.0723 11.6597 10.1462L11.5522 10.2569C11.4716 10.3308 11.3731 10.3677 11.2746 10.3677ZM11.2388 10.1831C11.3015 10.1923 11.3642 10.1739 11.4179 10.1277L11.5254 10.0169C11.5612 9.98002 11.5791 9.92463 11.5791 9.87848C11.5791 9.86925 11.5791 9.85079 11.5791 9.84156L11.2388 10.1831ZM8.3194 10.1831C8.2209 10.1831 8.12239 10.1554 8.03284 10.1093L7.92537 10.0539L10.406 7.53387L10.4597 7.64464C10.5045 7.73694 10.5313 7.83848 10.5313 7.94002C10.5313 8.07848 10.4866 8.20771 10.406 8.31848C10.3881 8.33694 10.3701 8.36464 10.3522 8.3831L8.75821 10.0077C8.7403 10.0262 8.71343 10.0446 8.69552 10.0631C8.58806 10.1369 8.45373 10.1831 8.3194 10.1831ZM8.23881 9.98925C8.35522 10.0169 8.48955 9.98002 8.58806 9.90617C8.60597 9.89694 8.61493 9.87848 8.63284 9.86925L10.2269 8.24464C10.2448 8.22617 10.2537 8.21694 10.2627 8.19848C10.3164 8.12464 10.3522 8.03233 10.3522 7.93079C10.3522 7.9031 10.3522 7.8754 10.3433 7.84771L8.23881 9.98925ZM10.9164 10.1646L10.6746 9.9154L11.3194 9.26002L11.5612 9.50925L10.9164 10.1646ZM7.88955 9.99848L4.73731 6.7954L7.20896 4.29386L9.31343 6.42617L10.3612 7.48771L7.88955 9.99848ZM4.98806 6.7954L7.88955 9.74002L10.1015 7.49694L7.2 4.55233L4.98806 6.7954ZM10.6299 9.87848L9.79702 9.02925L10.4418 8.37387L11.2746 9.2231L10.6299 9.87848ZM10.0478 9.02925L10.6299 9.62002L11.0149 9.2231L10.4328 8.63233L10.0478 9.02925ZM4.68358 6.75848L4.62985 6.64771C4.58507 6.5554 4.55821 6.45387 4.55821 6.35233C4.55821 6.18617 4.6209 6.02925 4.73731 5.90925L6.33134 4.28463C6.5194 4.09079 6.81493 4.04463 7.05672 4.17386L7.16418 4.22925L4.68358 6.75848ZM5.29254 5.61387L4.86269 6.04771C4.78209 6.13079 4.73731 6.24156 4.73731 6.36156C4.73731 6.38925 4.73731 6.41694 4.74627 6.44463L6.85075 4.3031C6.70746 4.2754 6.56418 4.32156 6.45672 4.4231L5.34627 5.55848V5.61387H5.29254ZM5.16716 5.39233L4.87164 5.09694L5.50746 4.45079L5.80299 4.74617L5.16716 5.39233ZM5.13134 5.08771L5.16716 5.12463L5.55224 4.74617L5.51642 4.70925L5.13134 5.08771ZM4.83582 5.05079L4.65672 4.86617C4.4597 4.67233 4.36119 4.40463 4.36119 4.12771C4.36119 3.86002 4.4597 3.61079 4.63881 3.41694V3.36156H4.68358C4.70149 3.33386 4.71045 3.29694 4.71045 3.26925C4.71045 3.2231 4.69254 3.18617 4.66567 3.15848L4.60299 3.08463L5.23881 2.43848L5.30149 2.51233C5.46269 2.69694 5.54328 2.93694 5.54328 3.18617C5.54328 3.4631 5.43582 3.73079 5.23881 3.92463C5.21194 3.96156 5.19403 4.00771 5.19403 4.05386C5.19403 4.10002 5.21194 4.13694 5.23881 4.17386L5.47164 4.40463L4.83582 5.05079ZM4.77313 4.72771L4.83582 4.79233L5.2209 4.40463L5.12239 4.3031C5.05075 4.22925 5.01493 4.14617 5.01493 4.04463C5.01493 3.95233 5.05075 3.86002 5.12239 3.7954C5.28358 3.62925 5.37313 3.41694 5.37313 3.18617C5.37313 3.01079 5.3194 2.84463 5.22985 2.70617L4.84478 3.09386C4.87164 3.14002 4.8806 3.20463 4.8806 3.26002C4.8806 3.3431 4.85373 3.41694 4.8 3.48156L4.77313 3.50925C4.61194 3.6754 4.52239 3.88771 4.52239 4.11848C4.53134 4.34925 4.6209 4.56156 4.77313 4.72771ZM4.34328 3.11233C4.25373 3.11233 4.16418 3.0754 4.09254 3.01079L3.79701 2.7154C3.72537 2.65079 3.68955 2.55848 3.68955 2.45694C3.68955 2.3554 3.72537 2.27233 3.79701 2.19848L4.3791 1.60771C4.51343 1.46925 4.74627 1.46925 4.8806 1.60771L5.17612 1.9031C5.24776 1.96771 5.28358 2.06002 5.28358 2.16156C5.28358 2.2631 5.24776 2.34617 5.17612 2.42002L4.59403 3.01079C4.52239 3.0754 4.43284 3.11233 4.34328 3.11233ZM4.62985 1.68156C4.58507 1.68156 4.5403 1.70002 4.50448 1.73694L3.92239 2.32771C3.88657 2.36463 3.86866 2.40156 3.86866 2.45694C3.86866 2.5031 3.88657 2.54925 3.92239 2.58617L4.21791 2.88156C4.28955 2.9554 4.39702 2.9554 4.46866 2.88156L5.05075 2.29079C5.08657 2.25386 5.10448 2.20771 5.10448 2.16156C5.10448 2.1154 5.08657 2.06925 5.05075 2.03233L4.75522 1.73694C4.7194 1.70002 4.67463 1.68156 4.62985 1.68156ZM2.15821 2.94617C1.89851 2.94617 1.62985 2.84463 1.43284 2.64156L0.367164 1.56156C0.286567 1.47848 0.241791 1.36771 0.241791 1.25694C0.241791 1.13694 0.286567 1.02617 0.367164 0.952326C0.537313 0.786172 0.80597 0.786172 0.967164 0.952326L2.07761 2.06925C2.11343 2.10617 2.14925 2.12463 2.20299 2.12463C2.24776 2.12463 2.29254 2.10617 2.32836 2.06925L2.91045 1.47848C3.10746 1.28463 3.35821 1.17386 3.63582 1.17386C3.88657 1.17386 4.12836 1.26617 4.31642 1.44156L4.38806 1.50617L3.75224 2.15233L3.67164 2.07848C3.60896 2.01386 3.49254 2.01386 3.42985 2.07848L2.87463 2.64156C2.67761 2.84463 2.41791 2.94617 2.15821 2.94617ZM0.671642 1.00771C0.608955 1.00771 0.546269 1.0354 0.492537 1.08156C0.447761 1.12771 0.420896 1.19233 0.420896 1.25694C0.420896 1.32156 0.447761 1.38617 0.492537 1.43233L1.55821 2.51233C1.88955 2.84463 2.42687 2.84463 2.75821 2.51233L3.31343 1.94925C3.42985 1.83848 3.60896 1.81079 3.74328 1.89386L4.1194 1.5154C3.97612 1.41386 3.80597 1.35848 3.62687 1.35848C3.40299 1.35848 3.18806 1.45079 3.02687 1.60771L2.44478 2.19848C2.38209 2.2631 2.29254 2.30925 2.19403 2.30002C2.10448 2.30002 2.01493 2.2631 1.94328 2.19848L0.841791 1.08156C0.797015 1.02617 0.734328 1.00771 0.671642 1.00771Z" fill="#2D3E50"/>
</g>
</svg>
