<svg width="12" height="12" viewBox="0 0 12 12" fill="none" xmlns="http://www.w3.org/2000/svg">
<path d="M2.90287 0.500166C2.93939 0.510791 2.97857 0.516768 3.01161 0.53337C3.10425 0.580852 3.20469 0.620696 3.28272 0.68644C3.40989 0.793689 3.52395 0.917042 3.63933 1.03757C3.81144 1.21765 3.86982 1.43026 3.81448 1.67542C3.80745 1.70892 3.81382 1.74385 3.83225 1.77271C4.03443 2.03207 4.14063 2.35341 4.13282 2.68217C4.12501 3.01094 4.00368 3.32687 3.78941 3.57635C3.78626 3.58 3.78443 3.58515 3.78576 3.58282C3.92837 3.72394 4.06965 3.86339 4.22023 4.01215C4.31985 3.91154 4.43075 3.79898 4.54215 3.68658C4.65355 3.57419 4.78371 3.48636 4.93694 3.44154C5.30119 3.33479 5.63306 3.4002 5.90451 3.66832C6.6408 4.39549 7.36996 5.1293 8.10211 5.86111C8.54007 6.29841 8.97831 6.73559 9.41682 7.17267C9.72113 7.47615 9.8058 7.8316 9.66186 8.23719C9.64294 8.29081 9.66934 8.31223 9.69806 8.34078C10.0924 8.73458 10.4867 9.12838 10.8809 9.52218C11.0938 9.73468 11.1725 9.99334 11.0596 10.2693C10.9299 10.586 10.6955 10.8123 10.3344 10.8482C10.1163 10.8698 9.92965 10.7818 9.77443 10.6252C9.40155 10.25 9.02651 9.8768 8.65329 9.50209C8.63141 9.476 8.61159 9.44825 8.59403 9.41908L8.51882 9.483L8.93901 9.90552C9.03149 9.99816 9.12462 10.0903 9.21677 10.1834C9.50564 10.4758 9.50448 10.8953 9.21677 11.188C9.09358 11.3134 8.97039 11.4349 8.79043 11.4772C8.54737 11.5342 8.32839 11.4859 8.14843 11.3149C7.90471 11.0824 7.67013 10.8419 7.43305 10.6031C7.39868 10.5686 7.37179 10.556 7.32016 10.5741C6.92968 10.7102 6.57954 10.6367 6.28635 10.3451C5.39217 9.45627 4.50009 8.5653 3.61011 7.67222C3.33352 7.39541 3.05693 7.11932 2.78034 6.84395C2.37708 6.44002 2.37692 5.85148 2.78034 5.44938C2.8856 5.34446 2.99202 5.24053 3.10442 5.12979C3.07852 5.10174 3.05909 5.07999 3.03801 5.05824C2.89307 4.91148 2.74 4.77302 2.6047 4.61928C2.17753 4.13251 2.13287 3.44469 2.48417 2.89865C2.49496 2.88205 2.50475 2.86396 2.52119 2.83623C2.46906 2.83025 2.42407 2.82859 2.3804 2.81963C2.2486 2.79379 2.1275 2.72922 2.03259 2.63418C1.929 2.53059 1.82639 2.42633 1.7218 2.32389C1.61223 2.21631 1.54001 2.08997 1.5166 1.9369C1.51258 1.92514 1.507 1.91397 1.5 1.9037V1.76374C1.50538 1.7417 1.51197 1.71997 1.51976 1.69866C1.55047 1.62661 1.56574 1.53845 1.61721 1.48632C1.84964 1.25091 2.0902 1.02346 2.33242 0.79784C2.46076 0.678139 2.56601 0.521251 2.76407 0.5L2.90287 0.500166ZM5.7086 4.15825L3.26496 6.62264L6.48956 9.85754L8.94449 7.40061L5.7086 4.15825ZM3.49904 2.12152C3.35959 2.26114 3.2286 2.39097 3.1006 2.52328C3.09415 2.53198 3.08975 2.54203 3.08774 2.55266C3.08573 2.5633 3.08615 2.57426 3.08898 2.58471C3.15173 2.76285 3.10043 2.90729 2.97459 3.04027C2.6711 3.36102 2.62943 3.87037 2.89805 4.22133C3.05428 4.42554 3.24902 4.60019 3.41736 4.77866L3.85051 4.34435C3.70408 4.19842 3.54918 4.04552 3.39545 3.89062C3.22329 3.71763 3.2203 3.49217 3.38731 3.31536C3.48608 3.2143 3.56126 3.09263 3.60746 2.95908C3.70391 2.66805 3.66755 2.39462 3.49904 2.12152ZM2.50741 2.37287C2.55921 2.34647 2.61449 2.33236 2.65018 2.29783C2.86933 2.08565 3.08588 1.87044 3.29982 1.65218C3.38283 1.56801 3.38283 1.45295 3.30181 1.36895C3.1934 1.25622 3.083 1.14499 2.96977 1.03691C2.88527 0.956388 2.7757 0.957551 2.69401 1.0379C2.47642 1.25207 2.25998 1.46745 2.04471 1.68405C1.95705 1.77271 1.95556 1.88328 2.04073 1.9726C2.14665 2.08416 2.25522 2.1934 2.36795 2.29833C2.40331 2.33087 2.45478 2.34481 2.50741 2.37287ZM9.35572 8.68677L8.94582 9.08937L9.88682 10.0357L10.2974 9.62743L9.35572 8.68677ZM6.91706 10.1597C6.95007 10.1641 6.98341 10.1655 7.01667 10.164C7.13521 10.1523 7.24589 10.0995 7.32945 10.0146C7.49946 9.84326 7.66996 9.67254 7.84096 9.50242C8.26387 9.07951 8.68672 8.65655 9.10952 8.23353C9.22573 8.11732 9.27139 7.97969 9.24997 7.82595L6.91706 10.1597ZM2.95998 6.20012L5.28575 3.87352C5.13766 3.85061 5.00169 3.90025 4.88631 4.01182C4.81807 4.07822 4.75117 4.14463 4.68409 4.21237C4.15283 4.74363 3.62157 5.27539 3.0903 5.80765C3.03817 5.85745 2.99904 5.91926 2.97632 5.98768C2.9536 6.05609 2.94799 6.12904 2.95998 6.20012ZM8.21965 10.7094L8.63603 10.3036L8.19475 9.84891L7.77073 10.2573L8.21965 10.7094ZM10.5454 9.8841L10.1651 10.2855C10.3311 10.3777 10.4324 10.3528 10.5778 10.1788C10.6522 10.0898 10.6442 10.0006 10.5454 9.8841ZM8.86862 10.5588L8.4901 10.9528C8.62806 11.0154 8.72767 11.0049 8.80636 10.927C8.93553 10.7984 8.94732 10.7396 8.86796 10.5588H8.86862Z" fill="#2D3E50"/>
<path d="M5.01515 5.632C5.07093 5.6682 5.13502 5.69592 5.18117 5.74174C5.62953 6.18612 6.07629 6.63216 6.52145 7.07986C6.83899 7.3974 7.15653 7.715 7.47407 8.03265C7.54181 8.10005 7.58281 8.17509 7.55276 8.27371C7.54335 8.3058 7.52649 8.33521 7.50356 8.35956C7.48063 8.3839 7.45228 8.40249 7.42082 8.41382C7.38935 8.42514 7.35566 8.42888 7.32248 8.42473C7.28929 8.42058 7.25756 8.40865 7.22985 8.38992C7.19864 8.36743 7.16967 8.34196 7.14336 8.31389C6.39383 7.56469 5.64442 6.81523 4.89512 6.06548C4.84033 6.01069 4.78671 5.95624 4.78588 5.87024C4.78495 5.84136 4.78991 5.81259 4.80046 5.78568C4.81101 5.75878 4.82693 5.7343 4.84725 5.71375C4.86757 5.6932 4.89186 5.677 4.91864 5.66614C4.94542 5.65529 4.97414 5.65 5.00303 5.6506L5.01515 5.632Z" fill="#2D3E50"/>
<path d="M8.03142 7.79292C7.97779 7.75822 7.9152 7.73183 7.8717 7.68766C7.15295 6.97245 6.43569 6.25591 5.71992 5.53804C5.67011 5.48906 5.62031 5.44075 5.57316 5.39061C5.48866 5.30229 5.48583 5.1796 5.56453 5.09178C5.64322 5.00395 5.76707 4.99964 5.8622 5.07717C5.8788 5.09012 5.89258 5.10473 5.90719 5.11917C6.65981 5.87246 7.41299 6.62558 8.16672 7.37854C8.23014 7.44162 8.27463 7.51035 8.25803 7.60299C8.23894 7.70858 8.15161 7.77632 8.03142 7.79292Z" fill="#2D3E50"/>
<path d="M6.86179 8.88599C6.86503 8.92616 6.85555 8.96632 6.83469 9.0008C6.81384 9.03528 6.78266 9.06231 6.74557 9.07808C6.70908 9.0976 6.6675 9.10556 6.62638 9.10091C6.58525 9.09625 6.54651 9.0792 6.5153 9.05201C6.50365 9.04213 6.49256 9.0316 6.4821 9.02047C5.71996 8.25822 4.95787 7.49602 4.19584 6.73388C4.13225 6.67046 4.09291 6.60106 4.1208 6.50676C4.16596 6.35519 4.33297 6.29874 4.45832 6.39437C4.47832 6.41047 4.49723 6.42789 4.51493 6.4465C5.26545 7.19757 6.01608 7.94925 6.76682 8.70154C6.8143 8.74936 6.84336 8.8156 6.88104 8.87337L6.86179 8.88599Z" fill="#2D3E50"/>
</svg>
