<svg width="12" height="12" viewBox="0 0 12 12" fill="none" xmlns="http://www.w3.org/2000/svg">
<path fill-rule="evenodd" clip-rule="evenodd" d="M5.55977 4.125C5.30584 5.20001 4.34009 6 3.1875 6C1.8413 6 0.75 4.9087 0.75 3.5625C0.75 2.2163 1.8413 1.125 3.1875 1.125C4.34009 1.125 5.30584 1.92499 5.55977 3H9.75C10.0606 3 10.3125 3.25184 10.3125 3.5625C10.3125 3.87316 10.0606 4.125 9.75 4.125H5.55977ZM1.6875 8.4375C1.6875 8.12685 1.93934 7.875 2.25 7.875H6.44023C6.69416 6.79999 7.6599 6 8.8125 6C10.1587 6 11.25 7.0913 11.25 8.4375C11.25 9.78368 10.1587 10.875 8.8125 10.875C7.6599 10.875 6.69416 10.0751 6.44023 9H2.25C1.93934 9 1.6875 8.74815 1.6875 8.4375Z" fill="#2D3E50"/>
</svg>
