<svg width="24" height="24" viewBox="0 0 24 24" fill="none" xmlns="http://www.w3.org/2000/svg">
<path d="M23 6.44453C23 7.14271 22.4341 7.7089 21.7356 7.7089H2.26437C1.56593 7.7089 1 7.14271 1 6.44453V5.26437C1 4.56618 1.56593 4 2.26437 4H21.7356C22.4341 4 23 4.56618 23 5.26437V6.44453Z" fill="#2D3E50"/>
<path d="M19.2069 13.0086C19.2069 13.707 18.6409 14.273 17.9425 14.273H6.05743C5.35899 14.273 4.79306 13.707 4.79306 13.0086V11.8287C4.79306 11.1303 5.35899 10.5643 6.05743 10.5643H17.9425C18.6409 10.5643 19.2069 11.1303 19.2069 11.8287V13.0086Z" fill="#2D3E50"/>
<path d="M15.4138 19.5729C15.4138 20.2711 14.8478 20.8373 14.1494 20.8373H9.85055C9.15211 20.8373 8.58618 20.2711 8.58618 19.5729V18.3928C8.58618 17.6946 9.15211 17.1284 9.85055 17.1284H14.1494C14.8478 17.1284 15.4138 17.6946 15.4138 18.3928V19.5729Z" fill="#2D3E50"/>
</svg>
