<svg width="24" height="24" viewBox="0 0 24 24" fill="none" xmlns="http://www.w3.org/2000/svg">
<path d="M19 8.40001C19.4971 8.40001 19.9 7.99707 19.9 7.50001C19.9 7.00295 19.4971 6.60001 19 6.60001V8.40001ZM10 6.60001C9.50295 6.60001 9.10001 7.00295 9.10001 7.50001C9.10001 7.99707 9.50295 8.40001 10 8.40001V6.60001ZM19 6.60001H10V8.40001H19V6.60001Z" fill="#2D3E50"/>
<path d="M5.5 12C7.98528 12 10 9.98528 10 7.5C10 5.01472 7.98528 3 5.5 3C3.01472 3 1 5.01472 1 7.5C1 9.98528 3.01472 12 5.5 12Z" fill="#2D3E50"/>
<path d="M14 17.4C14.4971 17.4 14.9 16.9971 14.9 16.5C14.9 16.0029 14.4971 15.6 14 15.6V17.4ZM5.00001 15.6C4.50295 15.6 4.10001 16.0029 4.10001 16.5C4.10001 16.9971 4.50295 17.4 5.00001 17.4V15.6ZM14 15.6H5.00001V17.4H14V15.6Z" fill="#2D3E50"/>
<path d="M18.5 21C20.9853 21 23 18.9853 23 16.5C23 14.0147 20.9853 12 18.5 12C16.0147 12 14 14.0147 14 16.5C14 18.9853 16.0147 21 18.5 21Z" fill="#2D3E50"/>
</svg>
