<svg width="24" height="24" viewBox="0 0 24 24" fill="none" xmlns="http://www.w3.org/2000/svg">
<path d="M19 8.40001C19.5 8.40001 19.9 8.00001 19.9 7.50001C19.9 7.00001 19.5 6.60001 19 6.60001V8.40001ZM9.99998 6.60001C9.49998 6.60001 9.09998 7.00001 9.09998 7.50001C9.09998 8.00001 9.49998 8.40001 9.99998 8.40001V6.60001ZM19 6.60001H9.99998V8.40001H19V6.60001Z" fill="#2D3E50"/>
<path d="M14 17.4C14.5 17.4 14.9 17 14.9 16.5C14.9 16 14.5 15.6 14 15.6V17.4ZM4.99998 15.6C4.49998 15.6 4.09998 16 4.09998 16.5C4.09998 17 4.49998 17.4 4.99998 17.4V15.6ZM14 15.6H4.99998V17.4H14V15.6Z" fill="#2D3E50"/>
<path d="M5.99998 12.4C3.29998 12.4 1.09998 10.2 1.09998 7.50001C1.09998 4.80001 3.29998 2.60001 5.99998 2.60001C8.69998 2.60001 10.9 4.80001 10.9 7.50001C10.9 10.2 8.69998 12.4 5.99998 12.4ZM5.99998 4.40001C4.29998 4.40001 2.89998 5.80001 2.89998 7.50001C2.89998 9.20001 4.29998 10.6 5.99998 10.6C7.69998 10.6 9.09998 9.20001 9.09998 7.50001C9.09998 5.80001 7.69998 4.40001 5.99998 4.40001Z" fill="#2D3E50"/>
<path d="M18 21.4C15.3 21.4 13.1 19.2 13.1 16.5C13.1 13.8 15.3 11.6 18 11.6C20.7 11.6 22.9 13.8 22.9 16.5C22.9 19.2 20.7 21.4 18 21.4ZM18 13.4C16.3 13.4 14.9 14.8 14.9 16.5C14.9 18.2 16.3 19.6 18 19.6C19.7 19.6 21.1 18.2 21.1 16.5C21.1 14.8 19.7 13.4 18 13.4Z" fill="#2D3E50"/>
</svg>
