<svg width="12" height="12" viewBox="0 0 12 12" fill="none" xmlns="http://www.w3.org/2000/svg">
<path fill-rule="evenodd" clip-rule="evenodd" d="M1.6875 3.5625C1.6875 2.73407 2.35907 2.0625 3.1875 2.0625C4.01593 2.0625 4.6875 2.73407 4.6875 3.5625C4.6875 4.39093 4.01593 5.0625 3.1875 5.0625C2.35907 5.0625 1.6875 4.39093 1.6875 3.5625ZM5.75209 3C5.49459 1.82056 4.44417 0.9375 3.1875 0.9375C1.73775 0.9375 0.5625 2.11275 0.5625 3.5625C0.5625 5.01225 1.73775 6.1875 3.1875 6.1875C4.44417 6.1875 5.49459 5.30444 5.75209 4.125H9.75C10.0606 4.125 10.3125 3.87316 10.3125 3.5625C10.3125 3.25184 10.0606 3 9.75 3H5.75209ZM1.6875 8.4375C1.6875 8.12685 1.93934 7.875 2.25 7.875H6.2479C6.50541 6.69556 7.5558 5.8125 8.8125 5.8125C10.2622 5.8125 11.4375 6.98775 11.4375 8.4375C11.4375 9.88725 10.2622 11.0625 8.8125 11.0625C7.5558 11.0625 6.50541 10.1795 6.2479 9H2.25C1.93934 9 1.6875 8.74815 1.6875 8.4375ZM7.3125 8.4375C7.3125 9.26595 7.98405 9.9375 8.8125 9.9375C9.64095 9.9375 10.3125 9.26595 10.3125 8.4375C10.3125 7.60905 9.64095 6.9375 8.8125 6.9375C7.98405 6.9375 7.3125 7.60905 7.3125 8.4375Z" fill="#2D3E50"/>
</svg>
