<svg width="12" height="12" viewBox="0 0 12 12" fill="none" xmlns="http://www.w3.org/2000/svg">
<path fill-rule="evenodd" clip-rule="evenodd" d="M1.63793 3.65517C1.63793 2.81722 2.31722 2.13793 3.15517 2.13793C3.99312 2.13793 4.67241 2.81722 4.67241 3.65517C4.67241 4.49312 3.99312 5.17241 3.15517 5.17241C2.31722 5.17241 1.63793 4.49312 1.63793 3.65517ZM5.74925 3.08621C5.48878 1.89321 4.42629 1 3.15517 1C1.68876 1 0.5 2.18876 0.5 3.65517C0.5 5.12159 1.68876 6.31035 3.15517 6.31035C4.42629 6.31035 5.48878 5.41714 5.74925 4.22414H9.7931C10.1073 4.22414 10.3621 3.9694 10.3621 3.65517C10.3621 3.34094 10.1073 3.08621 9.7931 3.08621H5.74925ZM1.63793 8.58621C1.63793 8.27199 1.89267 8.01724 2.2069 8.01724H6.25075C6.51122 6.82424 7.57368 5.93104 8.84483 5.93104C10.3112 5.93104 11.5 7.11979 11.5 8.58621C11.5 10.0526 10.3112 11.2414 8.84483 11.2414C7.57368 11.2414 6.51122 10.3482 6.25075 9.15517H2.2069C1.89267 9.15517 1.63793 8.90043 1.63793 8.58621ZM7.32759 8.58621C7.32759 9.42418 8.00686 10.1034 8.84483 10.1034C9.6828 10.1034 10.3621 9.42418 10.3621 8.58621C10.3621 7.74823 9.6828 7.06897 8.84483 7.06897C8.00686 7.06897 7.32759 7.74823 7.32759 8.58621Z" fill="#2D3E50"/>
</svg>
