<svg width="12" height="12" viewBox="0 0 12 12" fill="none" xmlns="http://www.w3.org/2000/svg">
<path d="M11.5 3.22226C11.5 3.57136 11.217 3.85445 10.8678 3.85445H1.13218C0.782966 3.85445 0.5 3.57136 0.5 3.22226V2.63218C0.5 2.28309 0.782966 2 1.13218 2H10.8678C11.217 2 11.5 2.28309 11.5 2.63218V3.22226Z" fill="#2D3E50"/>
<path d="M9.60341 6.5043C9.60341 6.85352 9.32045 7.13649 8.97123 7.13649H3.0287C2.67948 7.13649 2.39651 6.85352 2.39651 6.5043V5.91435C2.39651 5.56513 2.67948 5.28217 3.0287 5.28217H8.97123C9.32045 5.28217 9.60341 5.56513 9.60341 5.91435V6.5043Z" fill="#2D3E50"/>
<path d="M7.70688 9.78647C7.70688 10.1356 7.42392 10.4187 7.0747 10.4187H4.92527C4.57606 10.4187 4.29309 10.1356 4.29309 9.78647V9.19639C4.29309 8.8473 4.57606 8.56421 4.92527 8.56421H7.0747C7.42392 8.56421 7.70688 8.8473 7.70688 9.19639V9.78647Z" fill="#2D3E50"/>
</svg>
