<svg width="16" height="16" viewBox="0 0 16 16" fill="none" xmlns="http://www.w3.org/2000/svg">
<path fill-rule="evenodd" clip-rule="evenodd" d="M7.41303 5.5C7.07445 6.93335 5.78679 8 4.25 8C2.45507 8 1 6.54493 1 4.75C1 2.95507 2.45507 1.5 4.25 1.5C5.78679 1.5 7.07445 2.56665 7.41303 4H13C13.4142 4 13.75 4.33579 13.75 4.75C13.75 5.16421 13.4142 5.5 13 5.5H7.41303ZM2.25 11.25C2.25 10.8358 2.58579 10.5 3 10.5H8.58697C8.92555 9.06665 10.2132 8 11.75 8C13.5449 8 15 9.45507 15 11.25C15 13.0449 13.5449 14.5 11.75 14.5C10.2132 14.5 8.92555 13.4334 8.58697 12H3C2.58579 12 2.25 11.6642 2.25 11.25Z" fill="#2D3E50"/>
</svg>
