<svg width="16" height="16" viewBox="0 0 16 16" fill="none" xmlns="http://www.w3.org/2000/svg">
<path d="M15.3333 4.29636C15.3333 4.76181 14.956 5.13927 14.4904 5.13927H1.50957C1.04394 5.13927 0.666656 4.76181 0.666656 4.29636V3.50958C0.666656 3.04413 1.04394 2.66667 1.50957 2.66667H14.4904C14.956 2.66667 15.3333 3.04413 15.3333 3.50958V4.29636Z" fill="#2D3E50"/>
<path d="M12.8046 8.67241C12.8046 9.13803 12.4273 9.51532 11.9617 9.51532H4.03829C3.57266 9.51532 3.19537 9.13803 3.19537 8.67241V7.8858C3.19537 7.42018 3.57266 7.04289 4.03829 7.04289H11.9617C12.4273 7.04289 12.8046 7.42018 12.8046 7.8858V8.67241Z" fill="#2D3E50"/>
<path d="M10.2758 13.0486C10.2758 13.5141 9.89856 13.8915 9.43293 13.8915H6.56703C6.10141 13.8915 5.72412 13.5141 5.72412 13.0486V12.2619C5.72412 11.7964 6.10141 11.4189 6.56703 11.4189H9.43293C9.89856 11.4189 10.2758 11.7964 10.2758 12.2619V13.0486Z" fill="#2D3E50"/>
</svg>
