<svg width="16" height="16" viewBox="0 0 16 16" fill="none" xmlns="http://www.w3.org/2000/svg">
<path fill-rule="evenodd" clip-rule="evenodd" d="M6.01283 1.33334H5.98786H5.98785C5.29101 1.33333 4.73289 1.33332 4.28175 1.37018C3.8185 1.40803 3.4175 1.48761 3.04837 1.67569C2.45735 1.97683 1.97683 2.45734 1.67569 3.04837C1.48761 3.41749 1.40804 3.81849 1.37019 4.28174C1.33333 4.73288 1.33334 5.291 1.33334 5.98784V5.98785V6.01282V9.98717V10.0121V10.0122C1.33334 10.709 1.33333 11.2671 1.37019 11.7183C1.40804 12.1815 1.48761 12.5825 1.67569 12.9517C1.97683 13.5426 2.45735 14.0232 3.04837 14.3243C3.4175 14.5124 3.8185 14.592 4.28174 14.6298C4.73287 14.6667 5.29098 14.6667 5.9878 14.6667H5.98785H6.01283H9.9872H10.0121H10.0122C10.709 14.6667 11.2671 14.6667 11.7183 14.6298C12.1815 14.592 12.5825 14.5124 12.9516 14.3243C13.5426 14.0232 14.0232 13.5426 14.3243 12.9517C14.5124 12.5825 14.5919 12.1815 14.6298 11.7183C14.6667 11.2671 14.6667 10.709 14.6667 10.0122V9.98717V6.01282V5.98785V5.98779C14.6667 5.29098 14.6667 4.73286 14.6298 4.28174C14.5919 3.81849 14.5124 3.41749 14.3243 3.04837C14.0232 2.45734 13.5426 1.97683 12.9516 1.67569C12.5825 1.48761 12.1815 1.40803 11.7183 1.37018C11.2671 1.33332 10.709 1.33333 10.0121 1.33334H9.9872H6.01283ZM3.57221 2.70377C3.75157 2.61238 3.98382 2.55222 4.37571 2.5202C4.77433 2.48763 5.28529 2.48718 6.01283 2.48718H9.9872C10.7147 2.48718 11.2257 2.48763 11.6243 2.5202C12.0162 2.55222 12.2484 2.61238 12.4278 2.70377C12.8017 2.89429 13.1057 3.19829 13.2962 3.5722C13.3876 3.75156 13.4478 3.98381 13.4798 4.3757C13.5124 4.77433 13.5128 5.28528 13.5128 6.01282V9.55532L12.2403 7.81391C11.7281 7.11307 10.6821 7.11307 10.17 7.81391L8.46745 10.1437C7.97842 10.813 6.99233 10.8492 6.45549 10.2176L6.09224 9.79025C5.58028 9.18794 4.65051 9.18794 4.13855 9.79025L2.52575 11.6876C2.52382 11.667 2.52197 11.6459 2.5202 11.6243C2.48764 11.2256 2.48719 10.7147 2.48719 9.98717V6.01282C2.48719 5.28528 2.48764 4.77433 2.5202 4.3757C2.55222 3.98381 2.61239 3.75156 2.70378 3.5722C2.89429 3.19829 3.19829 2.89429 3.57221 2.70377ZM7.03848 5.4359C7.03848 6.32097 6.32098 7.03846 5.4359 7.03846C4.55083 7.03846 3.83334 6.32097 3.83334 5.4359C3.83334 4.55082 4.55083 3.83333 5.4359 3.83333C6.32098 3.83333 7.03848 4.55082 7.03848 5.4359Z" fill="#2D3E50"/>
</svg>
