<svg width="24" height="24" viewBox="0 0 24 24" fill="none" xmlns="http://www.w3.org/2000/svg">
<path fill-rule="evenodd" clip-rule="evenodd" d="M9.01922 2H8.98177H8.98175C7.93649 1.99999 7.09931 1.99998 6.42261 2.05527C5.72774 2.11205 5.12624 2.2314 4.57254 2.51353C3.68601 2.96524 2.96523 3.68601 2.51352 4.57255C2.2314 5.12624 2.11205 5.72774 2.05527 6.42261C1.99998 7.09931 1.99999 7.93649 2 8.98175V8.98177V9.01922V14.9808V15.0182V15.0183C1.99999 16.0634 1.99998 16.9007 2.05527 17.5774C2.11205 18.2722 2.2314 18.8737 2.51352 19.4275C2.96523 20.3139 3.68601 21.0348 4.57254 21.4864C5.12624 21.7685 5.72774 21.888 6.4226 21.9447C7.09929 22 7.93646 22 8.98169 22H8.98176H9.01922H14.9808H15.0182H15.0183C16.0635 22 16.9007 22 17.5774 21.9447C18.2722 21.888 18.8738 21.7685 19.4274 21.4864C20.3139 21.0348 21.0347 20.3139 21.4864 19.4275C21.7686 18.8737 21.8879 18.2722 21.9447 17.5774C22 16.9007 22 16.0635 22 15.0183V14.9808V9.01922V8.98177V8.98169C22 7.93647 22 7.09929 21.9447 6.42261C21.8879 5.72774 21.7686 5.12624 21.4864 4.57255C21.0347 3.68601 20.3139 2.96524 19.4274 2.51353C18.8738 2.2314 18.2722 2.11205 17.5774 2.05527C16.9007 1.99998 16.0635 1.99999 15.0182 2H14.9808H9.01922ZM5.3583 4.05565C5.62733 3.91857 5.97571 3.82833 6.56354 3.7803C7.16149 3.73144 7.92792 3.73077 9.01922 3.73077H14.9808C16.072 3.73077 16.8385 3.73144 17.4364 3.7803C18.0242 3.82833 18.3726 3.91857 18.6416 4.05565C19.2025 4.34143 19.6586 4.79743 19.9443 5.3583C20.0814 5.62733 20.1716 5.97571 20.2197 6.56355C20.2686 7.16149 20.2692 7.92792 20.2692 9.01922V14.333L18.3604 11.7209C17.5921 10.6696 16.0232 10.6696 15.255 11.7209L12.7012 15.2156C11.9676 16.2195 10.4885 16.2737 9.68322 15.3264L9.13834 14.6854C8.3704 13.7819 6.97575 13.7819 6.2078 14.6854L3.78861 17.5314C3.78571 17.5005 3.78294 17.4688 3.78029 17.4364C3.73144 16.8384 3.73077 16.0721 3.73077 14.9808V9.01922C3.73077 7.92792 3.73144 7.16149 3.78029 6.56355C3.82832 5.97571 3.91857 5.62733 4.05565 5.3583C4.34142 4.79743 4.79742 4.34143 5.3583 4.05565ZM10.5577 8.15384C10.5577 9.48145 9.48145 10.5577 8.15384 10.5577C6.82624 10.5577 5.75 9.48145 5.75 8.15384C5.75 6.82623 6.82624 5.75 8.15384 5.75C9.48145 5.75 10.5577 6.82623 10.5577 8.15384Z" fill="#2D3E50"/>
</svg>
