<svg width="12" height="12" viewBox="0 0 12 12" fill="none" xmlns="http://www.w3.org/2000/svg">
<path fill-rule="evenodd" clip-rule="evenodd" d="M4.50961 1H4.49089H4.49088C3.96825 0.999995 3.54966 0.999991 3.21131 1.02763C2.86387 1.05602 2.56312 1.1157 2.28627 1.25676C1.843 1.48262 1.48262 1.843 1.25676 2.28627C1.1157 2.56312 1.05602 2.86387 1.02763 3.21131C0.999991 3.54966 0.999995 3.96825 1 4.49088V4.49089V4.50961V7.49038V7.50908V7.50913C0.999995 8.03172 0.999991 8.45033 1.02763 8.78869C1.05602 9.1361 1.1157 9.43687 1.25676 9.71374C1.48262 10.157 1.843 10.5174 2.28627 10.7432C2.56312 10.8843 2.86387 10.944 3.2113 10.9723C3.54965 11 3.96823 11 4.49084 11H4.49088H4.50961H7.49039H7.50909H7.50914C8.03173 11 8.45034 11 8.7887 10.9723C9.13611 10.944 9.43688 10.8843 9.7137 10.7432C10.157 10.5174 10.5174 10.157 10.7432 9.71374C10.8843 9.43687 10.9439 9.1361 10.9724 8.78869C11 8.45033 11 8.03177 11 7.50913V7.49038V4.50961V4.49089V4.49084C11 3.96823 11 3.54965 10.9724 3.21131C10.9439 2.86387 10.8843 2.56312 10.7432 2.28627C10.5174 1.843 10.157 1.48262 9.7137 1.25676C9.43688 1.1157 9.13611 1.05602 8.7887 1.02763C8.45034 0.999991 8.03173 0.999995 7.50909 1H7.49039H4.50961ZM2.67915 2.02783C2.81367 1.95928 2.98785 1.91416 3.28177 1.89015C3.58074 1.86572 3.96396 1.86538 4.50961 1.86538H7.49039C8.03601 1.86538 8.41923 1.86572 8.71822 1.89015C9.01212 1.91416 9.1863 1.95928 9.32082 2.02783C9.60125 2.17072 9.82928 2.39872 9.97217 2.67915C10.0407 2.81367 10.0858 2.98785 10.1099 3.28178C10.1343 3.58074 10.1346 3.96396 10.1346 4.50961V7.16648L9.18019 5.86043C8.79606 5.3348 8.01159 5.3348 7.6275 5.86043L6.35058 7.60778C5.9838 8.10975 5.24424 8.13687 4.84161 7.66321L4.56917 7.34269C4.1852 6.89096 3.48788 6.89096 3.1039 7.34269L1.89431 8.76571C1.89286 8.75023 1.89147 8.73442 1.89014 8.71821C1.86572 8.41922 1.86538 8.03605 1.86538 7.49038V4.50961C1.86538 3.96396 1.86572 3.58074 1.89014 3.28178C1.91416 2.98785 1.95928 2.81367 2.02783 2.67915C2.17071 2.39872 2.39871 2.17072 2.67915 2.02783ZM5.27885 4.07692C5.27885 4.74072 4.74073 5.27884 4.07692 5.27884C3.41312 5.27884 2.875 4.74072 2.875 4.07692C2.875 3.41311 3.41312 2.875 4.07692 2.875C4.74073 2.875 5.27885 3.41311 5.27885 4.07692Z" fill="#2D3E50"/>
</svg>
