<svg width="16" height="16" viewBox="0 0 16 16" fill="none" xmlns="http://www.w3.org/2000/svg">
<path d="M7.99988 2C4.14134 2 1 5.11439 1 8.95127C1 11.3191 2.19704 13.4181 4.01884 14.6728C4.09598 14.7261 4.18746 14.755 4.28131 14.7555H11.7187C11.8125 14.755 11.904 14.7261 11.9812 14.6728C13.8029 13.4182 15 11.3193 15 8.95127C15 5.11439 11.8587 2 8.00012 2H7.99988ZM7.5332 2.95279V4.17782C7.53146 4.30271 7.57985 4.42315 7.66753 4.51201C7.7552 4.60099 7.87499 4.65112 7.99988 4.65112C8.12477 4.65112 8.24456 4.60099 8.33224 4.51201C8.41991 4.42315 8.4683 4.30271 8.46656 4.17782V2.95279C9.24205 3.01106 9.97837 3.21201 10.6442 3.53122L10.4012 3.93475C10.3269 4.04065 10.2999 4.17259 10.3265 4.2991C10.3532 4.42573 10.4313 4.53553 10.542 4.60237C10.6528 4.66921 10.7863 4.68712 10.9107 4.65174C11.0352 4.61648 11.1393 4.53108 11.1984 4.41596L11.4463 4.00277C12.0538 4.41921 12.5834 4.94003 13.0018 5.54377L11.806 6.26315C11.6951 6.32402 11.6137 6.42732 11.5804 6.5494C11.5471 6.67146 11.5648 6.80178 11.6293 6.91061C11.694 7.01934 11.8 7.09724 11.9231 7.12643C12.0462 7.15562 12.1759 7.13348 12.2824 7.06523L13.4734 6.35061C13.7953 7.01782 13.9979 7.75661 14.0518 8.53329H13.4442C13.428 8.53242 13.4118 8.53242 13.3956 8.53329C13.2718 8.53969 13.1557 8.59503 13.0727 8.68704C12.9897 8.77916 12.9467 8.90047 12.9531 9.02418C12.9596 9.14798 13.0149 9.26419 13.1071 9.34709C13.1992 9.4301 13.3204 9.47306 13.4442 9.46655H14.0421C13.9803 10.1895 13.7896 10.8768 13.4928 11.5033L12.2824 10.7741C12.2022 10.7251 12.1091 10.7013 12.0151 10.7061C11.8802 10.7133 11.755 10.7784 11.6718 10.8848C11.5887 10.9913 11.5557 11.1285 11.5814 11.2611C11.6072 11.3937 11.6891 11.5086 11.806 11.5762L13.031 12.3103C12.6323 12.896 12.1337 13.4066 11.5582 13.8221H4.44166C3.86614 13.4066 3.36757 12.896 2.96882 12.3103L4.19386 11.5762C4.31788 11.5054 4.40262 11.3815 4.42378 11.2401C4.44494 11.0987 4.40012 10.9555 4.30214 10.8513C4.20427 10.7472 4.06398 10.6937 3.92162 10.7061C3.84914 10.7126 3.77926 10.7359 3.71742 10.7741L2.50705 11.5033C2.21027 10.8768 2.01953 10.1895 1.95781 9.46655H2.55566C2.68055 9.46829 2.80099 9.42 2.88996 9.33222C2.97882 9.24455 3.02895 9.12487 3.02895 8.99987C3.02895 8.87498 2.97882 8.7553 2.88996 8.66762C2.80098 8.57984 2.68054 8.53145 2.55566 8.5333H1.94803C2.00196 7.75661 2.20454 7.01779 2.52646 6.35061L3.71742 7.06524C3.82397 7.13349 3.95363 7.15562 4.0768 7.12643C4.19984 7.09725 4.30585 7.01934 4.37052 6.91062C4.43508 6.80179 4.45276 6.67147 4.41945 6.5494C4.38614 6.42733 4.30476 6.32404 4.19387 6.26316L2.99803 5.54378C3.41641 4.94007 3.94604 4.41924 4.55356 4.00278L4.80149 4.41597C4.86052 4.53109 4.96468 4.61648 5.08913 4.65175C5.21358 4.68712 5.34704 4.66922 5.45781 4.60238C5.56859 4.53554 5.64661 4.42573 5.67331 4.29911C5.7 4.17259 5.67298 4.04065 5.59865 3.93475L5.3556 3.53123C6.02151 3.21201 6.7578 3.01104 7.53329 2.9528L7.5332 2.95279ZM9.86649 5.25689C9.7824 5.25765 9.70015 5.28109 9.62821 5.32471C9.55639 5.36832 9.49757 5.43061 9.45819 5.50483L8.10199 7.91592C8.06824 7.91267 8.0345 7.91104 7.99988 7.91104C7.41948 7.91104 6.94987 8.38 6.94987 8.95616C6.94987 9.53243 7.41948 9.99639 7.99988 9.99639C8.58029 9.99639 9.04989 9.53243 9.04989 8.95616C9.04989 8.75684 8.99195 8.57011 8.8943 8.41178L10.2748 5.96174C10.3316 5.86615 10.3524 5.75352 10.3334 5.64394C10.3144 5.53446 10.2569 5.43529 10.1714 5.36433C10.0858 5.29337 9.97771 5.25529 9.86649 5.25691L9.86649 5.25689Z" fill="#2D3E50"/>
</svg>
