<svg width="12" height="12" viewBox="0 0 12 12" fill="none" xmlns="http://www.w3.org/2000/svg">
<path d="M5.99991 1C2.96819 1 0.5 3.44702 0.5 6.46172C0.5 8.32212 1.44053 9.9714 2.87194 10.9572C2.93256 10.9991 3.00443 11.0218 3.07817 11.0222H8.92183C8.99557 11.0218 9.06744 10.9991 9.12806 10.9572C10.5594 9.97144 11.5 8.3223 11.5 6.46172C11.5 3.44702 9.03181 1 6.00009 1H5.99991ZM5.63323 1.74862V2.71115C5.63186 2.80928 5.66989 2.90391 5.73877 2.97373C5.80765 3.04363 5.90178 3.08302 5.99991 3.08302C6.09804 3.08302 6.19215 3.04363 6.26104 2.97373C6.32993 2.9039 6.36795 2.80927 6.36659 2.71115V1.74862C6.9759 1.7944 7.55444 1.95229 8.07762 2.20311L7.88666 2.52016C7.82826 2.60337 7.80703 2.70703 7.828 2.80644C7.84897 2.90593 7.91027 2.9922 7.99732 3.04472C8.08436 3.09724 8.18922 3.11131 8.287 3.08351C8.38479 3.0558 8.46663 2.98871 8.513 2.89825L8.7078 2.57361C9.18514 2.90081 9.60128 3.31003 9.93 3.78439L8.99042 4.34962C8.90329 4.39745 8.83934 4.47861 8.81317 4.57453C8.787 4.67044 8.8009 4.77283 8.85162 4.85834C8.90243 4.94376 8.98573 5.00498 9.0824 5.02791C9.17916 5.05084 9.28104 5.03345 9.36477 4.97983L10.3005 4.41833C10.5535 4.94257 10.7126 5.52305 10.755 6.1333H10.2776C10.2649 6.13262 10.2521 6.13262 10.2394 6.1333C10.1421 6.13833 10.0509 6.18181 9.98567 6.25411C9.92045 6.32649 9.88669 6.4218 9.89172 6.519C9.89684 6.61627 9.94032 6.70758 10.0127 6.77271C10.0851 6.83793 10.1803 6.87169 10.2776 6.86658H10.7473C10.6988 7.43462 10.5489 7.97463 10.3158 8.46688L9.36478 7.89397C9.30169 7.85544 9.22854 7.83676 9.15471 7.84052C9.04874 7.84614 8.95036 7.8973 8.88498 7.98093C8.81967 8.06456 8.79375 8.17241 8.81396 8.27659C8.83425 8.38077 8.89862 8.47106 8.99044 8.52418L9.95296 9.10092C9.63966 9.56113 9.24791 9.96234 8.79573 10.2888H3.20416C2.75197 9.96234 2.36023 9.56113 2.04693 9.10092L3.00946 8.52418C3.1069 8.4685 3.17349 8.37115 3.19011 8.26005C3.20674 8.14896 3.17153 8.03643 3.09454 7.95459C3.01764 7.87283 2.90741 7.8308 2.79556 7.84052C2.73861 7.84563 2.68371 7.86396 2.63511 7.89397L1.68411 8.46688C1.45093 7.97461 1.30106 7.43462 1.25256 6.86658H1.7223C1.82043 6.86794 1.91506 6.83 1.98497 6.76103C2.05479 6.69215 2.09418 6.59811 2.09418 6.4999C2.09418 6.40177 2.05479 6.30773 1.98497 6.23885C1.91506 6.16988 1.82043 6.13186 1.7223 6.1333H1.24488C1.28725 5.52305 1.44642 4.94255 1.69936 4.41834L2.63511 4.97983C2.71883 5.03345 2.82071 5.05085 2.91748 5.02791C3.01416 5.00498 3.09746 4.94377 3.14826 4.85834C3.19899 4.77283 3.21288 4.67044 3.18671 4.57453C3.16054 4.47862 3.0966 4.39746 3.00947 4.34962L2.06988 3.7844C2.39861 3.31005 2.81475 2.90083 3.29208 2.57361L3.48689 2.89826C3.53326 2.98871 3.61511 3.05581 3.71288 3.08352C3.81067 3.11131 3.91553 3.09724 4.00257 3.04473C4.0896 2.99221 4.15091 2.90593 4.17188 2.80644C4.19286 2.70703 4.17163 2.60337 4.11323 2.52016L3.92226 2.20311C4.44547 1.9523 5.02399 1.79439 5.6333 1.74862L5.63323 1.74862ZM7.46653 3.55899C7.40046 3.55958 7.33583 3.578 7.27931 3.61227C7.22287 3.64654 7.17667 3.69548 7.14572 3.75379L6.08013 5.64823C6.05362 5.64567 6.0271 5.64439 5.99991 5.64439C5.54387 5.64439 5.1749 6.01286 5.1749 6.46556C5.1749 6.91834 5.54387 7.28288 5.99991 7.28288C6.45594 7.28288 6.82492 6.91834 6.82492 6.46556C6.82492 6.30894 6.77939 6.16223 6.70266 6.03783L7.78734 4.1128C7.83193 4.03769 7.8483 3.94919 7.83338 3.8631C7.81846 3.77707 7.77328 3.69915 7.7061 3.64341C7.63883 3.58765 7.55392 3.55772 7.46652 3.559L7.46653 3.55899Z" fill="#2D3E50"/>
</svg>
