<svg width="24" height="24" viewBox="0 0 24 24" fill="none" xmlns="http://www.w3.org/2000/svg">
<path d="M11.9998 2C5.93639 2 1 6.89405 1 12.9234C1 16.6442 2.88106 19.9428 5.74389 21.9145C5.86512 21.9982 6.00886 22.0435 6.15635 22.0444H17.8437C17.9911 22.0435 18.1349 21.9982 18.2561 21.9145C21.1188 19.9429 23 16.6446 23 12.9234C23 6.89405 18.0636 2 12.0002 2H11.9998ZM11.2665 3.49724V5.4223C11.2637 5.61855 11.3398 5.80781 11.4775 5.94745C11.6153 6.08727 11.8036 6.16604 11.9998 6.16604C12.1961 6.16604 12.3843 6.08727 12.5221 5.94745C12.6599 5.80781 12.7359 5.61854 12.7332 5.4223V3.49724C13.9518 3.58881 15.1089 3.90458 16.1552 4.40621L15.7733 5.04031C15.6565 5.20673 15.6141 5.41407 15.656 5.61287C15.6979 5.81186 15.8205 5.98441 15.9946 6.08944C16.1687 6.19448 16.3784 6.22261 16.574 6.16702C16.7696 6.11161 16.9333 5.97742 17.026 5.79651L17.4156 5.14721C18.3703 5.80162 19.2026 6.62005 19.86 7.56879L17.9808 8.69924C17.8066 8.79489 17.6787 8.95722 17.6263 9.14905C17.574 9.34087 17.6018 9.54565 17.7032 9.71668C17.8049 9.88753 17.9715 10.01 18.1648 10.0558C18.3583 10.1017 18.5621 10.0669 18.7295 9.95965L20.601 8.83667C21.1069 9.88514 21.4253 11.0461 21.51 12.2666H20.5552C20.5298 12.2652 20.5042 12.2652 20.4788 12.2666C20.2842 12.2767 20.1018 12.3636 19.9713 12.5082C19.8409 12.653 19.7734 12.8436 19.7834 13.038C19.7937 13.2325 19.8806 13.4152 20.0254 13.5454C20.1702 13.6759 20.3606 13.7434 20.5552 13.7332H21.4947C21.3976 14.8692 21.0979 15.9493 20.6316 16.9338L18.7296 15.7879C18.6034 15.7109 18.4571 15.6735 18.3094 15.681C18.0975 15.6923 17.9007 15.7946 17.77 15.9619C17.6393 16.1291 17.5875 16.3448 17.6279 16.5532C17.6685 16.7615 17.7972 16.9421 17.9809 17.0484L19.9059 18.2018C19.2793 19.1223 18.4958 19.9247 17.5915 20.5775H6.40832C5.50394 19.9247 4.72046 19.1223 4.09386 18.2018L6.01892 17.0484C6.21381 16.937 6.34698 16.7423 6.38022 16.5201C6.41347 16.2979 6.34305 16.0729 6.18908 15.9092C6.03529 15.7457 5.81482 15.6616 5.59112 15.681C5.47722 15.6913 5.36742 15.7279 5.27022 15.7879L3.36822 16.9338C2.90186 15.9492 2.60211 14.8692 2.50512 13.7332H3.4446C3.64086 13.7359 3.83012 13.66 3.96993 13.5221C4.10958 13.3843 4.18835 13.1962 4.18835 12.9998C4.18835 12.8035 4.10958 12.6155 3.96993 12.4777C3.83012 12.3398 3.64085 12.2637 3.4446 12.2666H2.48976C2.5745 11.0461 2.89284 9.88511 3.39873 8.83667L5.27022 9.95966C5.43766 10.0669 5.64142 10.1017 5.83497 10.0558C6.02833 10.01 6.19491 9.88753 6.29653 9.71669C6.39798 9.54567 6.42577 9.34089 6.37342 9.14906C6.32108 8.95724 6.1932 8.79491 6.01894 8.69925L4.13976 7.5688C4.79722 6.62011 5.62949 5.80167 6.58416 5.14722L6.97377 5.79652C7.06653 5.97743 7.23022 6.11162 7.42577 6.16703C7.62134 6.22262 7.83107 6.19448 8.00514 6.08945C8.17921 5.98442 8.30182 5.81186 8.34377 5.61288C8.38571 5.41407 8.34325 5.20673 8.22646 5.04032L7.84452 4.40622C8.89094 3.90459 10.048 3.58878 11.2666 3.49725L11.2665 3.49724ZM14.9331 7.11797C14.8009 7.11916 14.6717 7.15599 14.5586 7.22454C14.4457 7.29308 14.3533 7.39095 14.2914 7.50758L12.1603 11.2965C12.1072 11.2913 12.0542 11.2888 11.9998 11.2888C11.0877 11.2888 10.3498 12.0257 10.3498 12.9311C10.3498 13.8367 11.0877 14.5658 11.9998 14.5658C12.9119 14.5658 13.6498 13.8367 13.6498 12.9311C13.6498 12.6179 13.5588 12.3245 13.4053 12.0757L15.5747 8.22559C15.6639 8.07537 15.6966 7.89839 15.6668 7.72619C15.6369 7.55415 15.5466 7.39831 15.4122 7.28681C15.2777 7.1753 15.1078 7.11545 14.933 7.11801L14.9331 7.11797Z" fill="#2D3E50"/>
</svg>
