<svg width="12" height="12" viewBox="0 0 12 12" fill="none" xmlns="http://www.w3.org/2000/svg">
<path fill-rule="evenodd" clip-rule="evenodd" d="M4.849 6.99972L5.2135 4.99972H7.151L6.7865 6.99972H4.849ZM10 6.99973H7.849L8.2135 4.99973H10C10.275 4.99973 10.5 4.77473 10.5 4.49973C10.5 4.22473 10.275 3.99973 10 3.99973H8.395L8.742 2.09423C8.792 1.82023 8.601 1.55573 8.3175 1.50772C8.034 1.45922 7.7615 1.64422 7.7115 1.91873L7.3325 3.99973H5.395L5.742 2.09423C5.792 1.82023 5.601 1.55573 5.3175 1.50772C5.034 1.45922 4.7615 1.64422 4.7115 1.91873L4.3325 3.99973H2C1.725 3.99973 1.5 4.22473 1.5 4.49973C1.5 4.77473 1.725 4.99973 2 4.99973H4.151L3.7865 6.99973H2C1.725 6.99973 1.5 7.22473 1.5 7.49973C1.5 7.77473 1.725 7.99973 2 7.99973H3.6045L3.2575 9.90523C3.208 10.1792 3.399 10.4437 3.6825 10.4917C3.9655 10.5402 4.2385 10.3552 4.288 10.0807L4.667 7.99973H6.6045L6.2575 9.90523C6.208 10.1792 6.399 10.4437 6.6825 10.4917C6.9655 10.5402 7.2385 10.3552 7.288 10.0807L7.667 7.99973H10C10.275 7.99973 10.5 7.77473 10.5 7.49973C10.5 7.22473 10.275 6.99973 10 6.99973V6.99973Z" fill="#2D3E50"/>
</svg>
