<svg width="24" height="24" viewBox="0 0 24 24" fill="none" xmlns="http://www.w3.org/2000/svg">
<path fill-rule="evenodd" clip-rule="evenodd" d="M9.698 13.9995L10.427 9.99945H14.302L13.573 13.9995H9.698ZM20 13.9994H15.698L16.427 9.99945H20C20.55 9.99945 21 9.54945 21 8.99945C21 8.44945 20.55 7.99945 20 7.99945H16.79L17.484 4.18845C17.584 3.64045 17.202 3.11145 16.635 3.01545C16.068 2.91845 15.523 3.28845 15.423 3.83745L14.665 7.99945H10.79L11.484 4.18845C11.584 3.64045 11.202 3.11145 10.635 3.01545C10.068 2.91845 9.523 3.28845 9.423 3.83745L8.665 7.99945H4C3.45 7.99945 3 8.44945 3 8.99945C3 9.54945 3.45 9.99945 4 9.99945H8.302L7.573 13.9994H4C3.45 13.9994 3 14.4494 3 14.9994C3 15.5494 3.45 15.9994 4 15.9994H7.209L6.515 19.8104C6.416 20.3584 6.798 20.8874 7.365 20.9834C7.931 21.0804 8.477 20.7104 8.576 20.1614L9.334 15.9994H13.209L12.515 19.8104C12.416 20.3584 12.798 20.8874 13.365 20.9834C13.931 21.0804 14.477 20.7104 14.576 20.1614L15.334 15.9994H20C20.55 15.9994 21 15.5494 21 14.9994C21 14.4494 20.55 13.9994 20 13.9994V13.9994Z" fill="#2D3E50"/>
</svg>
