<svg width="24" height="24" viewBox="0 0 24 24" fill="none" xmlns="http://www.w3.org/2000/svg">
<path d="M18.2 22.4H17.6C17.5 22.4 17.4 22.4 17.3 22.4C15.8 22.3 14.6 21.1 14.5 19.6C14.5 19.5 14.5 19.5 14.5 19.3V16.4C14.5 15 13.3 13.8 11.9 13.8C10.5 13.8 9.30001 15 9.30001 16.4V19.3C9.30001 19.4 9.30001 19.5 9.30001 19.6C9.20001 21.1 8.00001 22.3 6.50001 22.4C6.40001 22.4 6.40001 22.4 6.20001 22.4H5.80001C5.00001 22.4 4.60001 22.4 4.20001 22.3C3.30001 22 2.50001 21.3 2.30001 20.4C2.20001 20 2.20001 19.6 2.20001 18.8V12.2C2.20001 11 2.20001 10.4 2.40001 9.7C2.40001 9.1 2.70001 8.5 3.10001 8C3.50001 7.5 4.00001 7.1 4.90001 6.4L7.50001 4.4C9.00001 3.2 9.80001 2.6 10.7 2.4C11.5 2.2 12.4 2.2 13.3 2.4C14.2 2.7 15 3.2 16.5 4.4L19.1 6.4C20 7.1 20.5 7.5 20.9 8C21.3 8.5 21.5 9 21.7 9.6C21.9 10.2 21.9 10.9 21.9 12.1V18.7C21.9 19.5 21.9 19.9 21.8 20.3C21.5 21.2 20.8 22 19.9 22.2C19.4 22.4 19 22.4 18.2 22.4ZM12 12.1C14.4 12.1 16.4 14.1 16.4 16.5V19.6C16.4 20.2 16.9 20.6 17.4 20.6H18.2C18.8 20.6 19.1 20.6 19.3 20.6C19.7 20.5 19.9 20.2 20 19.9C20 19.7 20 19.4 20 18.8V12.2C20 11.1 20 10.6 19.9 10.2C19.8 9.8 19.6 9.5 19.4 9.2C19.1 8.9 18.7 8.5 17.9 7.9L15.3 5.9C14 4.9 13.3 4.4 12.7 4.2C12.2 4.1 11.6 4.1 11.1 4.2C10.5 4.4 9.80001 4.9 8.50001 5.9L6.00001 7.8C5.20001 8.5 4.70001 8.8 4.50001 9.1C4.30001 9.4 4.10001 9.7 4.00001 10.1C3.90001 10.5 3.90001 11 3.90001 12.1V18.7C3.90001 19.3 3.90001 19.6 3.90001 19.8C4.00001 20.2 4.30001 20.4 4.60001 20.5C4.80001 20.5 5.10001 20.5 5.70001 20.5H6.50001C7.10001 20.5 7.50001 20 7.50001 19.5V16.4C7.60001 14.1 9.60001 12.1 12 12.1Z" fill="#2D3E50"/>
</svg>
