<svg width="16" height="16" viewBox="0 0 16 16" fill="none" xmlns="http://www.w3.org/2000/svg">
<path d="M12.2 15.1C10.8 15.1 9.60001 13.9 9.60001 12.5V11C9.60001 10.7 9.60001 10.6 9.60001 10.5C9.50001 9.9 9.10001 9.5 8.50001 9.4C8.40001 9.4 8.30001 9.4 8.00001 9.4C7.70001 9.4 7.60001 9.4 7.50001 9.4C6.90001 9.5 6.50001 9.9 6.40001 10.5C6.40001 10.6 6.40001 10.7 6.40001 11V12.5C6.40001 13.9 5.20001 15.1 3.80001 15.1C2.40001 15.1 1.20001 13.9 1.20001 12.5V7.6C1.20001 7 1.20001 6.6 1.30001 6.3C1.40001 6 1.50001 5.7 1.70001 5.4C2.00001 5 2.30001 4.8 2.80001 4.5L5.60001 2.3C6.40001 1.7 6.80001 1.4 7.30001 1.2C7.80001 1.1 8.30001 1.1 8.70001 1.2C9.20001 1.3 9.60001 1.7 10.4 2.3L13.2 4.5C13.7 4.9 14 5.1 14.2 5.4C14.4 5.7 14.5 6 14.6 6.3C14.7 6.7 14.7 7 14.7 7.6V12.5C14.8 13.9 13.6 15.1 12.2 15.1ZM8.00001 7.9C8.40001 7.9 8.50001 7.9 8.70001 7.9C9.90001 8.1 10.9 9 11.1 10.3C11.1 10.5 11.1 10.6 11.1 11V12.5C11.1 13.1 11.6 13.6 12.2 13.6C12.8 13.6 13.3 13.1 13.3 12.5V7.6C13.3 7.1 13.3 6.8 13.3 6.7C13.3 6.6 13.2 6.4 13.1 6.3C13 6.2 12.8 6 12.4 5.7L9.50001 3.5C8.90001 3 8.60001 2.7 8.30001 2.7C8.10001 2.6 7.90001 2.6 7.60001 2.7C7.40001 2.7 7.10001 3 6.50001 3.4L3.70001 5.6C3.30001 5.9 3.10001 6.1 3.00001 6.2C2.90001 6.4 2.80001 6.5 2.80001 6.6C2.80001 6.8 2.80001 7 2.80001 7.5V12.4C2.80001 13 3.30001 13.5 3.90001 13.5C4.50001 13.5 5.00001 13 5.00001 12.4V11C5.00001 10.6 5.00001 10.5 5.00001 10.3C5.20001 9.1 6.10001 8.1 7.40001 7.9C7.50001 7.9 7.60001 7.9 8.00001 7.9Z" fill="#2D3E50"/>
</svg>
