<svg width="12" height="12" viewBox="0 0 12 12" fill="none" xmlns="http://www.w3.org/2000/svg">
<path d="M9.10003 11.3C8.00003 11.3 7.10002 10.4 7.10002 9.3V8.2C7.10002 8 7.10002 7.9 7.10002 7.8C7.10002 7.5 6.80002 7.2 6.40002 7.1C6.30002 7.1 6.20002 7.1 6.00002 7.1C5.80002 7.1 5.70002 7.1 5.60002 7.1C5.20002 7.2 4.90002 7.5 4.90002 7.9C4.90002 8 4.90002 8.1 4.90002 8.3V9.4C4.90002 10.5 4.00002 11.4 2.90002 11.4C1.80002 11.4 0.900024 10.5 0.900024 9.4V5.7C0.900024 5.2 0.900024 5 1.00002 4.7C1.00002 4.4 1.20002 4.2 1.30002 4C1.50002 3.8 1.70002 3.6 2.00002 3.3L4.10002 1.7C4.70002 1.2 5.00002 1 5.50002 0.900001C5.90002 0.800001 6.20002 0.800001 6.60002 0.900001C7.00002 1 7.30002 1.2 7.80002 1.7L9.90002 3.3C10.3 3.6 10.5 3.7 10.6 4C10.8 4.2 11 4.4 11 4.7C11.1 5 11.1 5.2 11.1 5.7V9.4C11.1 10.5 10.2 11.3 9.10003 11.3ZM6.00002 5.9C6.30002 5.9 6.40002 5.9 6.50002 5.9C7.50002 6 8.20002 6.8 8.30002 7.7C8.30002 7.8 8.30002 7.9 8.30002 8.2V9.3C8.30002 9.7 8.60003 10.1 9.10003 10.1C9.60003 10.1 9.90002 9.8 9.90002 9.3V5.7C9.90002 5.3 9.90002 5.1 9.90002 5C9.90002 4.9 9.80002 4.8 9.80002 4.7C9.70002 4.6 9.50002 4.5 9.20002 4.3L7.10002 2.6C6.70002 2.3 6.40002 2.1 6.20002 2C6.10002 2 5.90002 2 5.80002 2C5.60002 2 5.40002 2.2 4.90002 2.6L2.80002 4.3C2.50002 4.5 2.30002 4.6 2.30002 4.7C2.20002 4.8 2.20002 4.9 2.10002 5C2.10002 5.1 2.10002 5.3 2.10002 5.7V9.4C2.10002 9.8 2.40002 10.2 2.90002 10.2C3.40002 10.2 3.70002 9.9 3.70002 9.4V8.2C3.70002 7.9 3.70002 7.8 3.70002 7.7C3.80002 6.8 4.50002 6 5.50002 5.9C5.60002 5.9 5.70002 5.9 6.00002 5.9Z" fill="#2D3E50"/>
</svg>
