<svg width="12" height="12" viewBox="0 0 12 12" fill="none" xmlns="http://www.w3.org/2000/svg">
<path fill-rule="evenodd" clip-rule="evenodd" d="M6 12C9.31371 12 12 9.31371 12 6C12 2.68629 9.31371 0 6 0C2.68629 0 0 2.68629 0 6C0 9.31371 2.68629 12 6 12ZM6.92383 2.86719C6.9668 2.75977 6.99186 2.64339 6.99902 2.51807C7.00619 2.39274 6.99186 2.27458 6.95605 2.16357C6.92025 2.05257 6.86654 1.95589 6.79492 1.87354C6.72689 1.79118 6.64274 1.72673 6.54248 1.68018C6.44222 1.63363 6.33301 1.61035 6.21484 1.61035C6.10384 1.61035 5.99642 1.63363 5.89258 1.68018C5.78874 1.72673 5.69564 1.79118 5.61328 1.87354C5.53451 1.95589 5.46826 2.05257 5.41455 2.16357C5.36442 2.27458 5.33577 2.39274 5.32861 2.51807C5.32145 2.64339 5.33577 2.75977 5.37158 2.86719C5.41097 2.97461 5.46647 3.0695 5.53809 3.15186C5.6097 3.23421 5.69564 3.29867 5.7959 3.34521C5.89974 3.39176 6.01432 3.41504 6.13965 3.41504C6.26139 3.41504 6.37419 3.39176 6.47803 3.34521C6.58187 3.29867 6.67139 3.23421 6.74658 3.15186C6.82178 3.0695 6.88086 2.97461 6.92383 2.86719ZM6.81641 6.10596C6.83431 5.92334 6.84326 5.77295 6.84326 5.65479C6.84326 5.46143 6.82536 5.28597 6.78955 5.12842C6.75732 4.97087 6.70003 4.83659 6.61768 4.72559C6.5389 4.61458 6.43506 4.52865 6.30615 4.46777C6.17725 4.4069 6.0179 4.37646 5.82812 4.37646C5.58105 4.37646 5.35905 4.43734 5.16211 4.55908C4.96517 4.67725 4.79508 4.82406 4.65186 4.99951C4.50863 5.17497 4.39404 5.36296 4.30811 5.56348C4.22217 5.76042 4.16309 5.93766 4.13086 6.09521L4.72705 6.27246C4.82015 5.94303 4.91146 5.71566 5.00098 5.59033C5.09049 5.46143 5.17643 5.39697 5.25879 5.39697C5.29818 5.39697 5.33577 5.41488 5.37158 5.45068C5.40739 5.48649 5.42529 5.56527 5.42529 5.68701C5.42529 5.8016 5.41634 5.94124 5.39844 6.10596C5.38053 6.26709 5.35905 6.44255 5.33398 6.63232C5.30892 6.8221 5.28027 7.01904 5.24805 7.22314C5.21582 7.42367 5.18717 7.62419 5.16211 7.82471C5.13704 8.02165 5.11556 8.21143 5.09766 8.39404C5.07975 8.57666 5.0708 8.73958 5.0708 8.88281C5.0708 9.07617 5.08691 9.24984 5.11914 9.40381C5.15495 9.55778 5.21224 9.68848 5.29102 9.7959C5.37337 9.90332 5.48079 9.98389 5.61328 10.0376C5.74935 10.0949 5.91943 10.1235 6.12354 10.1235C6.37061 10.1235 6.59082 10.0645 6.78418 9.94629C6.97754 9.82454 7.14404 9.67594 7.28369 9.50049C7.42334 9.32503 7.53434 9.13883 7.6167 8.94189C7.70264 8.74137 7.76172 8.56234 7.79395 8.40479L7.19775 8.22754C7.10465 8.55697 7.01335 8.78613 6.92383 8.91504C6.83431 9.04036 6.74837 9.10303 6.66602 9.10303C6.62663 9.10303 6.58903 9.08512 6.55322 9.04932C6.51742 9.01351 6.49951 8.93473 6.49951 8.81299C6.49951 8.73063 6.50667 8.61247 6.521 8.4585C6.5389 8.30452 6.56038 8.13086 6.58545 7.9375C6.6141 7.74414 6.64274 7.54004 6.67139 7.3252C6.70003 7.10677 6.72689 6.89372 6.75195 6.68604C6.7806 6.47835 6.80208 6.28499 6.81641 6.10596Z" fill="#2D3E50"/>
</svg>
