<svg width="16" height="16" viewBox="0 0 16 16" fill="none" xmlns="http://www.w3.org/2000/svg">
<path d="M10.9576 7.63681L10.0891 8.29761C9.6457 8.63488 9.20229 8.9719 8.75888 9.30865C8.74033 9.32056 8.72533 9.33724 8.71545 9.35695C8.70557 9.37665 8.70117 9.39865 8.70272 9.42064C8.70528 9.73505 8.704 10.0493 8.704 10.3714C8.7368 10.3731 8.7648 10.3757 8.7928 10.376C9.08192 10.3803 9.29424 10.5866 9.29776 10.8739C9.30106 11.1486 9.30106 11.4233 9.29776 11.6979C9.2944 11.9798 9.08128 12.1912 8.79776 12.1928C8.36048 12.1952 7.9232 12.1928 7.48576 12.1928H7.392C7.3904 12.2269 7.38768 12.255 7.38768 12.2832C7.38768 12.4698 7.38848 12.6565 7.38768 12.8432C7.3856 13.1485 7.17328 13.3594 6.868 13.3608C6.804 13.3608 6.74 13.3608 6.676 13.3608C6.36496 13.3598 6.1552 13.1542 6.15008 12.8413C6.14704 12.652 6.15008 12.4626 6.15008 12.2733C6.15008 12.2498 6.14784 12.2262 6.14624 12.1933H6.056C5.62933 12.1933 5.20266 12.1933 4.776 12.1933C4.44176 12.1933 4.23888 11.989 4.23872 11.6554C4.23872 11.402 4.23872 11.1487 4.23872 10.8954C4.23872 10.5877 4.44672 10.3787 4.75456 10.3763C4.79392 10.3763 4.83312 10.3763 4.876 10.3763V5.74433C4.82096 5.74433 4.76848 5.74577 4.716 5.74433C4.58939 5.74049 4.46917 5.68787 4.38046 5.59747C4.29175 5.50706 4.24142 5.38586 4.24 5.25921C4.23808 4.55521 4.23808 3.8512 4.24 3.1472C4.23978 3.01775 4.29076 2.89346 4.38182 2.80144C4.47288 2.70942 4.59663 2.65715 4.72608 2.656C4.84816 2.65345 4.9704 2.656 5.10288 2.656C5.10288 2.5536 5.10288 2.45856 5.10288 2.36353C5.10288 2.05392 5.31472 1.84304 5.62608 1.84176C5.79632 1.84176 5.96656 1.84176 6.1488 1.84176V1.75136C6.1488 1.53808 6.148 1.3248 6.1488 1.11136C6.1504 0.777765 6.356 0.572005 6.68688 0.571045C6.74016 0.571045 6.7936 0.571045 6.84688 0.571045C7.17984 0.571045 7.38624 0.777125 7.38704 1.10864C7.38704 1.34331 7.38736 1.57798 7.388 1.81264C7.38904 1.82064 7.39065 1.82855 7.3928 1.83633C7.41344 1.83776 7.43632 1.84064 7.4592 1.8408C7.61104 1.8408 7.7632 1.8408 7.91504 1.8408C8.22144 1.84256 8.4304 2.05088 8.43424 2.35872C8.43552 2.45472 8.43424 2.54928 8.43424 2.6544C8.54848 2.6544 8.65424 2.6544 8.76 2.6544C9.0944 2.65568 9.29792 2.85873 9.29824 3.19233C9.29824 3.85633 9.29824 4.52027 9.29824 5.18417C9.29824 5.54481 9.11232 5.73489 8.7504 5.74417C8.7376 5.74417 8.7248 5.74609 8.708 5.74737V6.00337L9.392 5.48337C9.26928 5.26097 9.28288 5.05488 9.44432 4.86368C9.46927 4.83596 9.49711 4.81097 9.52736 4.78912C9.94069 4.47425 10.3543 4.15958 10.7682 3.84513C11.0099 3.66177 11.3141 3.70497 11.4923 3.94913C11.9918 4.63361 12.4907 5.31851 12.9888 6.00385C13.1747 6.25984 13.1312 6.55072 12.8792 6.74305C12.483 7.04545 12.0864 7.34721 11.6894 7.64833C11.4195 7.85425 11.2238 7.85232 10.9576 7.63681ZM5.47728 5.74881V10.3712H8.11312V10.2811C8.11312 9.90529 8.11552 9.52913 8.11104 9.15345C8.11024 9.07793 8.13536 9.03393 8.19392 8.9896C8.9776 8.396 9.76021 7.80102 10.5418 7.20464C10.5643 7.18752 10.5859 7.16928 10.6093 7.15072L9.744 5.96384L8.11024 7.20625V5.74913L5.47728 5.74881ZM4.83088 5.14161H8.704V3.25984H4.832L4.83088 5.14161ZM12.4752 6.30368C12.0021 5.65408 11.5354 5.01297 11.0651 4.36769L9.93936 5.22417L11.3494 7.16113L12.4752 6.30368ZM8.70496 10.9794H4.832V11.5883H8.704L8.70496 10.9794ZM7.84 2.65248V2.44864H5.696V2.65248H7.84ZM6.76608 1.16448L6.73936 1.17552C6.73936 1.38512 6.73936 1.59488 6.74064 1.80448C6.74064 1.81648 6.76 1.82816 6.77024 1.84C6.77936 1.824 6.79616 1.808 6.79632 1.792C6.79824 1.6 6.79824 1.40848 6.79632 1.21744C6.79568 1.2 6.77616 1.18224 6.76576 1.16432L6.76608 1.16448ZM6.76256 12.1885L6.7392 12.2058C6.7392 12.3781 6.7392 12.5504 6.74032 12.7227C6.74032 12.7366 6.75632 12.7504 6.76496 12.7642C6.77584 12.7501 6.79584 12.736 6.796 12.7218C6.79824 12.5597 6.79824 12.3978 6.796 12.2358C6.79536 12.2194 6.77392 12.2037 6.76224 12.188L6.76256 12.1885Z" fill="#2D3E50"/>
<path d="M6.44912 14.496C6.44912 14.304 6.44912 14.112 6.44912 13.92C6.44912 13.7192 6.584 13.573 6.76752 13.5715C6.95104 13.5701 7.08752 13.7168 7.08752 13.9181C7.08848 14.3049 7.08848 14.6915 7.08752 15.0779C7.08752 15.2874 6.95472 15.4299 6.76512 15.4279C6.57808 15.4256 6.44928 15.2839 6.44896 15.0799C6.4488 14.8853 6.44912 14.6906 6.44912 14.496Z" fill="#2D3E50"/>
<path d="M7.19583 13.5778C7.19967 13.4427 7.26335 13.3437 7.38367 13.2853C7.4409 13.2584 7.50503 13.2499 7.56729 13.2609C7.62955 13.2718 7.68691 13.3018 7.73151 13.3466C8.01631 13.6346 8.29951 13.924 8.58111 14.2149C8.70815 14.3469 8.69759 14.5493 8.56511 14.6741C8.43967 14.793 8.24735 14.7899 8.11951 14.6607C7.84047 14.3783 7.56415 14.0931 7.28751 13.809C7.25712 13.7788 7.23329 13.7427 7.21752 13.703C7.20174 13.6632 7.19436 13.6206 7.19583 13.5778Z" fill="#2D3E50"/>
<path d="M6.36111 13.5928C6.32447 13.664 6.30175 13.7481 6.24911 13.804C5.97711 14.092 5.69807 14.3752 5.41903 14.6574C5.28495 14.7929 5.08895 14.7939 4.96223 14.6661C4.93195 14.6358 4.90795 14.5998 4.89163 14.5602C4.8753 14.5207 4.86696 14.4782 4.8671 14.4354C4.86723 14.3926 4.87583 14.3503 4.89241 14.3108C4.90898 14.2713 4.9332 14.2355 4.96367 14.2054C5.24186 13.9185 5.5217 13.6332 5.80319 13.3496C5.84756 13.3048 5.90448 13.2744 5.96644 13.2626C6.02841 13.2508 6.09249 13.2581 6.15023 13.2835C6.2076 13.3094 6.25618 13.3514 6.29 13.4045C6.32382 13.4575 6.34142 13.5193 6.34063 13.5822L6.36111 13.5928Z" fill="#2D3E50"/>
<path d="M5.72798 8.02383C5.72798 7.46149 5.72798 6.89914 5.72798 6.3368C5.72798 6.21616 5.78606 6.13056 5.88798 6.09472C5.98607 6.06016 6.09199 6.08512 6.15215 6.1712C6.18426 6.21631 6.20281 6.26966 6.20559 6.32496C6.20847 7.46309 6.209 8.60116 6.20719 9.73918C6.20808 9.77127 6.20246 9.80322 6.19069 9.83309C6.17891 9.86296 6.16121 9.89014 6.13865 9.91299C6.1161 9.93585 6.08915 9.9539 6.05944 9.96607C6.02972 9.97825 5.99785 9.98428 5.96575 9.98381C5.83198 9.98269 5.72846 9.87693 5.7283 9.73502C5.72745 9.16467 5.72734 8.59428 5.72798 8.02383Z" fill="#2D3E50"/>
<path d="M5.11198 4.20674C5.11198 4.07617 5.1107 3.94577 5.11198 3.81521C5.11374 3.65905 5.21119 3.55297 5.35087 3.55201C5.49055 3.55105 5.59087 3.65889 5.59087 3.81377C5.59237 4.07745 5.59237 4.34108 5.59087 4.60466C5.58975 4.75906 5.48751 4.86578 5.34815 4.86386C5.21247 4.8621 5.11374 4.75602 5.11166 4.6061C5.11054 4.47298 5.11198 4.33986 5.11198 4.20674Z" fill="#2D3E50"/>
</svg>
