<svg width="24" height="24" viewBox="0 0 24 24" fill="none" xmlns="http://www.w3.org/2000/svg">
<path d="M16.4364 11.4552L15.1337 12.4464C14.4686 12.9523 13.8034 13.4578 13.1383 13.963C13.1105 13.9808 13.088 14.0059 13.0732 14.0354C13.0584 14.065 13.0518 14.098 13.0541 14.131C13.0579 14.6026 13.056 15.0739 13.056 15.557C13.1052 15.5597 13.1472 15.5635 13.1892 15.564C13.6229 15.5705 13.9414 15.8798 13.9466 16.3109C13.9516 16.7229 13.9516 17.1349 13.9466 17.5469C13.9416 17.9698 13.6219 18.2868 13.1966 18.2892C12.5407 18.2928 11.8848 18.2892 11.2286 18.2892H11.088C11.0856 18.3403 11.0815 18.3826 11.0815 18.4248C11.0815 18.7046 11.0827 18.9847 11.0815 19.2648C11.0784 19.7227 10.7599 20.039 10.302 20.0412C10.206 20.0412 10.11 20.0412 10.014 20.0412C9.54745 20.0398 9.23281 19.7314 9.22513 19.2619C9.22057 18.978 9.22513 18.6938 9.22513 18.4099C9.22513 18.3746 9.22177 18.3394 9.21937 18.2899H9.08401C8.44401 18.2899 7.80401 18.2899 7.16401 18.2899C6.66265 18.2899 6.35833 17.9834 6.35809 17.483C6.35809 17.103 6.35809 16.723 6.35809 16.343C6.35809 15.8815 6.67009 15.5681 7.13185 15.5645C7.19089 15.5645 7.24969 15.5645 7.31401 15.5645V8.61649C7.23145 8.61649 7.15273 8.61865 7.07401 8.61649C6.8841 8.61074 6.70377 8.53181 6.57071 8.3962C6.43765 8.26058 6.36215 8.07879 6.36001 7.88881C6.35713 6.83281 6.35713 5.77681 6.36001 4.72081C6.35968 4.52662 6.43616 4.34019 6.57274 4.20216C6.70933 4.06414 6.89495 3.98572 7.08913 3.98401C7.27225 3.98017 7.45561 3.98401 7.65433 3.98401C7.65433 3.83041 7.65433 3.68785 7.65433 3.54529C7.65433 3.08089 7.97209 2.76457 8.43913 2.76265C8.69449 2.76265 8.94985 2.76265 9.22321 2.76265V2.62705C9.22321 2.30713 9.22201 1.98721 9.22321 1.66705C9.22561 1.16665 9.53401 0.858007 10.0303 0.856567C10.1102 0.856567 10.1904 0.856567 10.2703 0.856567C10.7698 0.856567 11.0794 1.16569 11.0806 1.66297C11.0806 2.01497 11.081 2.36697 11.082 2.71897C11.0836 2.73096 11.086 2.74283 11.0892 2.75449C11.1202 2.75665 11.1545 2.76097 11.1888 2.76121C11.4166 2.76121 11.6448 2.76121 11.8726 2.76121C12.3322 2.76385 12.6456 3.07633 12.6514 3.53809C12.6533 3.68209 12.6514 3.82393 12.6514 3.98161C12.8227 3.98161 12.9814 3.98161 13.14 3.98161C13.6416 3.98353 13.9469 4.28809 13.9474 4.78849C13.9474 5.78449 13.9474 6.78041 13.9474 7.77625C13.9474 8.31721 13.6685 8.60233 13.1256 8.61625C13.1064 8.61625 13.0872 8.61913 13.062 8.62105V9.00505L14.088 8.22505C13.9039 7.89145 13.9243 7.58233 14.1665 7.29553C14.2039 7.25394 14.2457 7.21645 14.291 7.18369C14.911 6.71137 15.5314 6.23937 16.1522 5.76769C16.5149 5.49265 16.9711 5.55745 17.2385 5.92369C17.9878 6.95041 18.736 7.97777 19.4832 9.00577C19.7621 9.38977 19.6968 9.82609 19.3188 10.1146C18.7246 10.5682 18.1297 11.0208 17.5342 11.4725C17.1293 11.7814 16.8358 11.7785 16.4364 11.4552ZM8.21593 8.62321V15.5568H12.1697V15.4217C12.1697 14.8579 12.1733 14.2937 12.1666 13.7302C12.1654 13.6169 12.203 13.5509 12.2909 13.4844C13.4664 12.594 14.6403 11.7015 15.8126 10.807C15.8465 10.7813 15.8789 10.7539 15.9139 10.7261L14.616 8.94577L12.1654 10.8094V8.62369L8.21593 8.62321ZM7.24633 7.71241H13.056V4.88977H7.24801L7.24633 7.71241ZM18.7128 9.45553C18.0031 8.48113 17.303 7.51945 16.5977 6.55153L14.909 7.83625L17.0242 10.7417L18.7128 9.45553ZM13.0574 16.469H7.24801V17.3825H13.056L13.0574 16.469ZM11.76 3.97873V3.67297H8.54401V3.97873H11.76ZM10.1491 1.74673L10.109 1.76329C10.109 2.07769 10.109 2.39233 10.111 2.70673C10.111 2.72473 10.14 2.74225 10.1554 2.76001C10.169 2.73601 10.1942 2.71201 10.1945 2.68801C10.1974 2.40001 10.1974 2.11273 10.1945 1.82617C10.1935 1.80001 10.1642 1.77337 10.1486 1.74649L10.1491 1.74673ZM10.1438 18.2827L10.1088 18.3086C10.1088 18.5671 10.1088 18.8256 10.1105 19.0841C10.1105 19.105 10.1345 19.1256 10.1474 19.1462C10.1638 19.1251 10.1938 19.104 10.194 19.0826C10.1974 18.8396 10.1974 18.5966 10.194 18.3538C10.193 18.329 10.1609 18.3055 10.1434 18.282L10.1438 18.2827Z" fill="#2D3E50"/>
<path d="M9.67368 21.744C9.67368 21.456 9.67368 21.168 9.67368 20.88C9.67368 20.5788 9.876 20.3595 10.1513 20.3573C10.4266 20.3552 10.6313 20.5752 10.6313 20.8772C10.6327 21.4573 10.6327 22.0372 10.6313 22.6169C10.6313 22.9311 10.4321 23.1449 10.1477 23.1418C9.86712 23.1384 9.67392 22.9258 9.67344 22.6198C9.6732 22.3279 9.67368 22.0359 9.67368 21.744Z" fill="#2D3E50"/>
<path d="M10.7938 20.3667C10.7995 20.1641 10.895 20.0155 11.0755 19.9279C11.1614 19.8877 11.2576 19.8749 11.351 19.8913C11.4443 19.9078 11.5304 19.9527 11.5973 20.0199C12.0245 20.4519 12.4493 20.886 12.8717 21.3224C13.0622 21.5204 13.0464 21.824 12.8477 22.0112C12.6595 22.1895 12.371 22.1849 12.1793 21.991C11.7607 21.5674 11.3462 21.1397 10.9313 20.7135C10.8857 20.6683 10.85 20.6141 10.8263 20.5544C10.8026 20.4948 10.7916 20.4308 10.7938 20.3667Z" fill="#2D3E50"/>
<path d="M9.54168 20.3892C9.48672 20.496 9.45264 20.6223 9.37368 20.706C8.96568 21.138 8.54712 21.5628 8.12856 21.9861C7.92744 22.1894 7.63344 22.1909 7.44336 21.9991C7.39794 21.9537 7.36195 21.8998 7.33746 21.8404C7.31297 21.781 7.30046 21.7174 7.30066 21.6532C7.30086 21.589 7.31376 21.5254 7.33863 21.4662C7.36349 21.407 7.39982 21.3533 7.44552 21.3082C7.8628 20.8778 8.28256 20.4499 8.7048 20.0244C8.77135 19.9572 8.85674 19.9117 8.94968 19.894C9.04263 19.8763 9.13875 19.8872 9.22536 19.9253C9.31142 19.9641 9.38428 20.0271 9.43502 20.1067C9.48575 20.1863 9.51214 20.279 9.51096 20.3734L9.54168 20.3892Z" fill="#2D3E50"/>
<path d="M8.59199 12.0357C8.59199 11.1922 8.59199 10.3487 8.59199 9.5052C8.59199 9.32424 8.67911 9.19584 8.83199 9.14208C8.97911 9.09025 9.138 9.12768 9.22824 9.2568C9.27641 9.32446 9.30423 9.40449 9.3084 9.48744C9.31272 11.1946 9.31352 12.9017 9.3108 14.6088C9.31213 14.6569 9.30371 14.7048 9.28604 14.7496C9.26838 14.7944 9.24183 14.8352 9.20799 14.8695C9.17416 14.9038 9.13374 14.9309 9.08917 14.9491C9.0446 14.9674 8.99679 14.9764 8.94863 14.9757C8.74799 14.974 8.59271 14.8154 8.59247 14.6025C8.59119 13.747 8.59103 12.8914 8.59199 12.0357Z" fill="#2D3E50"/>
<path d="M7.66799 6.3101C7.66799 6.11426 7.66607 5.91866 7.66799 5.72282C7.67063 5.48857 7.81679 5.32945 8.02632 5.32801C8.23584 5.32657 8.38633 5.48833 8.38633 5.72066C8.38857 6.11618 8.38857 6.51163 8.38633 6.90699C8.38465 7.13859 8.23128 7.29868 8.02224 7.2958C7.81871 7.29316 7.67063 7.13403 7.66751 6.90915C7.66583 6.70947 7.66799 6.50979 7.66799 6.3101Z" fill="#2D3E50"/>
</svg>
