<svg width="12" height="12" viewBox="0 0 12 12" fill="none" xmlns="http://www.w3.org/2000/svg">
<path d="M8.2182 5.7276L7.56684 6.2232C7.23428 6.47616 6.90172 6.72892 6.56916 6.98148C6.55525 6.99042 6.544 7.00293 6.53659 7.01771C6.52918 7.03249 6.52589 7.04899 6.52704 7.06548C6.52896 7.30128 6.528 7.53696 6.528 7.77852C6.5526 7.77984 6.5736 7.78176 6.5946 7.782C6.81144 7.78524 6.97068 7.93992 6.97332 8.15544C6.9758 8.36144 6.9758 8.56744 6.97332 8.77344C6.9708 8.98488 6.81096 9.1434 6.59832 9.1446C6.27036 9.1464 5.9424 9.1446 5.61432 9.1446H5.544C5.5428 9.17016 5.54076 9.19128 5.54076 9.2124C5.54076 9.35232 5.54136 9.49236 5.54076 9.6324C5.5392 9.86136 5.37996 10.0195 5.151 10.0206C5.103 10.0206 5.055 10.0206 5.007 10.0206C4.77372 10.0199 4.6164 9.86568 4.61256 9.63096C4.61028 9.489 4.61256 9.34692 4.61256 9.20496C4.61256 9.18732 4.61088 9.16968 4.60968 9.14496H4.542C4.222 9.14496 3.902 9.14496 3.582 9.14496C3.33132 9.14496 3.17916 8.99172 3.17904 8.74152C3.17904 8.55152 3.17904 8.36152 3.17904 8.17152C3.17904 7.94076 3.33504 7.78404 3.56592 7.78224C3.59544 7.78224 3.62484 7.78224 3.657 7.78224V4.30824C3.61572 4.30824 3.57636 4.30932 3.537 4.30824C3.44205 4.30537 3.35189 4.26591 3.28535 4.1981C3.21882 4.13029 3.18108 4.03939 3.18 3.9444C3.17856 3.4164 3.17856 2.8884 3.18 2.3604C3.17984 2.26331 3.21808 2.17009 3.28637 2.10108C3.35466 2.03207 3.44748 1.99286 3.54456 1.992C3.63612 1.99008 3.7278 1.992 3.82716 1.992C3.82716 1.9152 3.82716 1.84392 3.82716 1.77264C3.82716 1.54044 3.98604 1.38228 4.21956 1.38132C4.34724 1.38132 4.47492 1.38132 4.6116 1.38132V1.31352C4.6116 1.15356 4.611 0.993604 4.6116 0.833524C4.6128 0.583324 4.767 0.429004 5.01516 0.428284C5.05512 0.428284 5.0952 0.428284 5.13516 0.428284C5.38488 0.428284 5.53968 0.582844 5.54028 0.831484C5.54028 1.00748 5.54052 1.18348 5.541 1.35948C5.54179 1.36548 5.54299 1.37141 5.5446 1.37724C5.56008 1.37832 5.57724 1.38048 5.5944 1.3806C5.70828 1.3806 5.8224 1.3806 5.93628 1.3806C6.16608 1.38192 6.3228 1.53816 6.32568 1.76904C6.32664 1.84104 6.32568 1.91196 6.32568 1.9908C6.41136 1.9908 6.49068 1.9908 6.57 1.9908C6.8208 1.99176 6.97344 2.14404 6.97368 2.39424C6.97368 2.89224 6.97368 3.3902 6.97368 3.88812C6.97368 4.1586 6.83424 4.30116 6.5628 4.30812C6.5532 4.30812 6.5436 4.30956 6.531 4.31052V4.50252L7.044 4.11252C6.95196 3.94572 6.96216 3.79116 7.08324 3.64776C7.10196 3.62697 7.12284 3.60822 7.14552 3.59184C7.45552 3.35568 7.76572 3.11968 8.07612 2.88384C8.25744 2.74632 8.48556 2.77872 8.61924 2.96184C8.99388 3.4752 9.368 3.98888 9.7416 4.50288C9.88104 4.69488 9.8484 4.91304 9.6594 5.05728C9.36228 5.28408 9.06484 5.5104 8.76708 5.73624C8.56464 5.89068 8.41788 5.88924 8.2182 5.7276ZM4.10796 4.3116V7.7784H6.08484V7.71084C6.08484 7.42896 6.08664 7.14684 6.08328 6.86508C6.08268 6.80844 6.10152 6.77544 6.14544 6.7422C6.7332 6.297 7.32016 5.85076 7.90632 5.40348C7.92324 5.39064 7.93944 5.37696 7.95696 5.36304L7.308 4.47288L6.08268 5.40468V4.31184L4.10796 4.3116ZM3.62316 3.8562H6.528V2.44488H3.624L3.62316 3.8562ZM9.3564 4.72776C9.00156 4.24056 8.65152 3.75972 8.29884 3.27576L7.45452 3.91812L8.51208 5.37084L9.3564 4.72776ZM6.52872 8.23452H3.624V8.69124H6.528L6.52872 8.23452ZM5.88 1.98936V1.83648H4.272V1.98936H5.88ZM5.07456 0.873364L5.05452 0.881644C5.05452 1.03884 5.05452 1.19616 5.05548 1.35336C5.05548 1.36236 5.07 1.37112 5.07768 1.38C5.08452 1.368 5.09712 1.356 5.09724 1.344C5.09868 1.2 5.09868 1.05636 5.09724 0.913084C5.09676 0.900004 5.08212 0.886684 5.07432 0.873244L5.07456 0.873364ZM5.07192 9.14136L5.0544 9.15432C5.0544 9.28356 5.0544 9.4128 5.05524 9.54204C5.05524 9.55248 5.06724 9.5628 5.07372 9.57312C5.08188 9.56256 5.09688 9.552 5.097 9.54132C5.09868 9.4198 5.09868 9.29832 5.097 9.17688C5.09652 9.16452 5.08044 9.15276 5.07168 9.141L5.07192 9.14136Z" fill="#2D3E50"/>
<path d="M4.83682 10.872C4.83682 10.728 4.83682 10.584 4.83682 10.44C4.83682 10.2894 4.93798 10.1797 5.07563 10.1787C5.21327 10.1776 5.31563 10.2876 5.31563 10.4386C5.31635 10.7287 5.31635 11.0186 5.31563 11.3085C5.31563 11.4655 5.21603 11.5725 5.07383 11.5709C4.93354 11.5692 4.83694 11.4629 4.8367 11.3099C4.83658 11.164 4.83682 11.0179 4.83682 10.872Z" fill="#2D3E50"/>
<path d="M5.39687 10.1833C5.39975 10.082 5.44751 10.0077 5.53775 9.96394C5.58067 9.9438 5.62877 9.9374 5.67546 9.94563C5.72216 9.95386 5.76517 9.9763 5.79863 10.0099C6.01223 10.2259 6.22463 10.443 6.43583 10.6611C6.53111 10.7601 6.52319 10.9119 6.42383 11.0055C6.32975 11.0947 6.18551 11.0924 6.08963 10.9955C5.88035 10.7837 5.67311 10.5698 5.46563 10.3567C5.44284 10.3341 5.42496 10.307 5.41313 10.2772C5.4013 10.2473 5.39576 10.2154 5.39687 10.1833Z" fill="#2D3E50"/>
<path d="M4.77084 10.1946C4.74336 10.248 4.72632 10.3111 4.68684 10.353C4.48284 10.569 4.27356 10.7814 4.06428 10.9931C3.96372 11.0947 3.81672 11.0954 3.72168 10.9996C3.69897 10.9769 3.68097 10.9499 3.66873 10.9202C3.65648 10.8905 3.65023 10.8587 3.65033 10.8266C3.65043 10.7945 3.65688 10.7627 3.66931 10.7331C3.68174 10.7035 3.69991 10.6766 3.72276 10.6541C3.9314 10.4389 4.14128 10.2249 4.3524 10.0122C4.38567 9.97859 4.42837 9.95585 4.47484 9.947C4.52131 9.93815 4.56938 9.94361 4.61268 9.96265C4.65571 9.98204 4.69214 10.0136 4.71751 10.0534C4.74288 10.0932 4.75607 10.1395 4.75548 10.1867L4.77084 10.1946Z" fill="#2D3E50"/>
<path d="M4.29599 6.0179C4.29599 5.59615 4.29599 5.17439 4.29599 4.75263C4.29599 4.66215 4.33955 4.59795 4.416 4.57107C4.48956 4.54515 4.569 4.56387 4.61412 4.62843C4.63821 4.66226 4.65211 4.70228 4.6542 4.74375C4.65636 5.59735 4.65676 6.4509 4.6554 7.30441C4.65607 7.32849 4.65186 7.35244 4.64302 7.37485C4.63419 7.39725 4.62091 7.41764 4.604 7.43478C4.58708 7.45192 4.56687 7.46546 4.54458 7.47459C4.5223 7.48371 4.4984 7.48824 4.47432 7.48789C4.37399 7.48705 4.29635 7.40773 4.29623 7.30129C4.29559 6.87354 4.29551 6.44574 4.29599 6.0179Z" fill="#2D3E50"/>
<path d="M3.83399 3.15505C3.83399 3.05713 3.83303 2.95933 3.83399 2.86141C3.83531 2.74429 3.9084 2.66473 4.01316 2.66401C4.11792 2.66329 4.19316 2.74417 4.19316 2.86033C4.19428 3.05809 4.19428 3.25581 4.19316 3.4535C4.19232 3.5693 4.11564 3.64934 4.01112 3.6479C3.90936 3.64658 3.83531 3.56702 3.83375 3.45458C3.83291 3.35473 3.83399 3.25489 3.83399 3.15505Z" fill="#2D3E50"/>
</svg>
