<svg width="16" height="16" viewBox="0 0 16 16" fill="none" xmlns="http://www.w3.org/2000/svg">
<path d="M6.24652 8.57987C6.38602 8.81796 6.55789 9.04231 6.76212 9.24654C8.05079 10.5352 10.1401 10.5352 11.4288 9.24654L13.2621 7.41315C14.5508 6.12449 14.5508 4.03515 13.2621 2.74648C11.9735 1.45782 9.88413 1.45782 8.59546 2.74648L8.00003 3.34193M9.76212 7.4131C9.62262 7.17501 9.45075 6.95067 9.24651 6.74643C7.95785 5.45776 5.86851 5.45776 4.57985 6.74643L2.74653 8.57982C1.45786 9.86848 1.45786 11.9578 2.74653 13.2465C4.03519 14.5351 6.12453 14.5351 7.41319 13.2465L8.00003 12.6596" stroke="#2D3E50" stroke-width="1.5" stroke-linecap="round" stroke-linejoin="round"/>
</svg>
