<svg width="12" height="12" viewBox="0 0 12 12" fill="none" xmlns="http://www.w3.org/2000/svg">
<path d="M4.68483 6.43491C4.78945 6.61348 4.91835 6.78174 5.07153 6.93491C6.03803 7.90141 7.60503 7.90141 8.57153 6.93491L9.94654 5.55987C10.913 4.59337 10.913 3.02637 9.94654 2.05987C8.98004 1.09337 7.41304 1.09337 6.44654 2.05987L5.99996 2.50646M7.32153 5.55983C7.2169 5.38127 7.088 5.21301 6.93482 5.05983C5.96833 4.09333 4.40132 4.09333 3.43483 5.05983L2.05983 6.43487C1.09334 7.40137 1.09334 8.96837 2.05983 9.93487C3.02633 10.9014 4.59333 10.9014 5.55983 9.93487L5.99996 9.49472" stroke="#2D3E50" stroke-width="1.5" stroke-linecap="round" stroke-linejoin="round"/>
</svg>
