<svg width="24" height="24" viewBox="0 0 24 24" fill="none" xmlns="http://www.w3.org/2000/svg">
<path d="M13.5 17.5L11.5 19.5C9.56698 21.433 6.43298 21.433 4.49998 19.5C2.56698 17.567 2.56698 14.433 4.49998 12.5L6.49998 10.5C8.43298 8.567 11.567 8.567 13.5 10.5C13.8063 10.8064 14.0641 11.1429 14.2734 11.5M10.5 6.5L12.5 4.49999C14.433 2.567 17.567 2.567 19.5 4.5C21.433 6.43299 21.433 9.567 19.5 11.5L17.5 13.5C15.567 15.433 12.433 15.433 10.5 13.5C10.1936 13.1936 9.93583 12.8571 9.72658 12.5" stroke="#2D3E50" stroke-width="1.8" stroke-linecap="round" stroke-linejoin="round"/>
</svg>
