<svg width="16" height="16" viewBox="0 0 16 16" fill="none" xmlns="http://www.w3.org/2000/svg">
<path d="M14.6667 4.26667C15 4.26667 15.2667 4 15.2667 3.66667C15.2667 3.33333 15 3.06667 14.6667 3.06667V4.26667ZM6.00002 3.06667C5.66669 3.06667 5.40002 3.33333 5.40002 3.66667C5.40002 4 5.66669 4.26667 6.00002 4.26667V3.06667ZM14.6667 3.06667H6.00002V4.26667H14.6667V3.06667Z" fill="#262F56"/>
<path d="M14.6667 8.6C15 8.6 15.2667 8.33333 15.2667 8C15.2667 7.66667 15 7.4 14.6667 7.4V8.6ZM6.00002 7.4C5.66669 7.4 5.40002 7.66667 5.40002 8C5.40002 8.33333 5.66669 8.6 6.00002 8.6V7.4ZM14.6667 7.4H6.00002V8.6H14.6667V7.4Z" fill="#262F56"/>
<path d="M14.6667 12.9333C15 12.9333 15.2667 12.6667 15.2667 12.3333C15.2667 12 15 11.7333 14.6667 11.7333V12.9333ZM6.00002 11.7333C5.66669 11.7333 5.40002 12 5.40002 12.3333C5.40002 12.6667 5.66669 12.9333 6.00002 12.9333V11.7333ZM14.6667 11.7333H6.00002V12.9333H14.6667V11.7333Z" fill="#262F56"/>
<path d="M2.33332 5.33333C3.2538 5.33333 3.99999 4.58714 3.99999 3.66667C3.99999 2.74619 3.2538 2 2.33332 2C1.41285 2 0.666656 2.74619 0.666656 3.66667C0.666656 4.58714 1.41285 5.33333 2.33332 5.33333Z" fill="#262F56"/>
<path d="M2.33332 9.66667C3.2538 9.66667 3.99999 8.92048 3.99999 8C3.99999 7.07953 3.2538 6.33334 2.33332 6.33334C1.41285 6.33334 0.666656 7.07953 0.666656 8C0.666656 8.92048 1.41285 9.66667 2.33332 9.66667Z" fill="#262F56"/>
<path d="M2.33332 14C3.2538 14 3.99999 13.2538 3.99999 12.3333C3.99999 11.4129 3.2538 10.6667 2.33332 10.6667C1.41285 10.6667 0.666656 11.4129 0.666656 12.3333C0.666656 13.2538 1.41285 14 2.33332 14Z" fill="#262F56"/>
</svg>
