<svg width="12" height="12" viewBox="0 0 12 12" fill="none" xmlns="http://www.w3.org/2000/svg">
<path d="M6.28897 4.09271C5.99987 4.09271 5.76552 4.32707 5.76552 4.61616C5.76552 4.90525 5.99987 5.13961 6.28897 5.13961H8.38276C8.67185 5.13961 8.90621 4.90525 8.90621 4.61616C8.90621 4.32707 8.67185 4.09271 8.38276 4.09271H6.28897Z" fill="#2D3E50"/>
<path d="M6.28897 8.80375C5.99987 8.80375 5.76552 9.03811 5.76552 9.3272C5.76552 9.61629 5.99987 9.85065 6.28897 9.85065H8.38276C8.67185 9.85065 8.90621 9.61629 8.90621 9.3272C8.90621 9.03811 8.67185 8.80375 8.38276 8.80375H6.28897Z" fill="#2D3E50"/>
<path d="M6.28897 2.52234C5.99987 2.52234 5.76552 2.75669 5.76552 3.04579C5.76552 3.33488 5.99987 3.56924 6.28897 3.56924H10.4766C10.7657 3.56924 11 3.33488 11 3.04579C11 2.75669 10.7657 2.52234 10.4766 2.52234H6.28897Z" fill="#2D3E50"/>
<path d="M6.28897 7.23338C5.99987 7.23338 5.76552 7.46773 5.76552 7.75683C5.76552 8.04592 5.99987 8.28028 6.28897 8.28028H10.4766C10.7657 8.28028 11 8.04592 11 7.75683C11 7.46773 10.7657 7.23338 10.4766 7.23338H6.28897Z" fill="#2D3E50"/>
<path d="M1.52345 2C1.23436 2 1 2.23436 1 2.52345V5.14069C1 5.42979 1.23436 5.66414 1.52345 5.66414H4.14069C4.42979 5.66414 4.66414 5.42979 4.66414 5.14069V2.52345C4.66414 2.23436 4.42979 2 4.14069 2H1.52345Z" fill="#2D3E50"/>
<path d="M1.52345 6.70887C1.23436 6.70887 1 6.94322 1 7.23232V9.84956C1 10.1387 1.23436 10.373 1.52345 10.373H4.14069C4.42979 10.373 4.66414 10.1387 4.66414 9.84956V7.23232C4.66414 6.94322 4.42979 6.70887 4.14069 6.70887H1.52345Z" fill="#2D3E50"/>
</svg>
