<svg width="16" height="16" viewBox="0 0 16 16" fill="none" xmlns="http://www.w3.org/2000/svg">
<path d="M8.40455 4.92978C7.99982 4.92978 7.67172 5.25788 7.67172 5.66261C7.67172 6.06734 7.99982 6.39544 8.40455 6.39544H11.3359C11.7406 6.39544 12.0687 6.06734 12.0687 5.66261C12.0687 5.25788 11.7406 4.92978 11.3359 4.92978H8.40455Z" fill="#2D3E50"/>
<path d="M8.40455 11.5252C7.99982 11.5252 7.67172 11.8533 7.67172 12.2581C7.67172 12.6628 7.99982 12.9909 8.40455 12.9909H11.3359C11.7406 12.9909 12.0687 12.6628 12.0687 12.2581C12.0687 11.8533 11.7406 11.5252 11.3359 11.5252H8.40455Z" fill="#2D3E50"/>
<path d="M8.40455 2.73129C7.99982 2.73129 7.67172 3.05939 7.67172 3.46412C7.67172 3.86885 7.99982 4.19695 8.40455 4.19695H14.2672C14.6719 4.19695 15 3.86885 15 3.46412C15 3.05939 14.6719 2.73129 14.2672 2.73129H8.40455Z" fill="#2D3E50"/>
<path d="M8.40455 9.32675C7.99982 9.32675 7.67172 9.65485 7.67172 10.0596C7.67172 10.4643 7.99982 10.7924 8.40455 10.7924H14.2672C14.6719 10.7924 15 10.4643 15 10.0596C15 9.65485 14.6719 9.32675 14.2672 9.32675H8.40455Z" fill="#2D3E50"/>
<path d="M1.73283 2C1.3281 2 1 2.3281 1 2.73283V6.39697C1 6.8017 1.3281 7.1298 1.73283 7.1298H5.39697C5.8017 7.1298 6.1298 6.8017 6.1298 6.39697V2.73283C6.1298 2.3281 5.8017 2 5.39697 2H1.73283Z" fill="#2D3E50"/>
<path d="M1.73283 8.59241C1.3281 8.59241 1 8.92051 1 9.32524V12.9894C1 13.3941 1.3281 13.7222 1.73283 13.7222H5.39697C5.8017 13.7222 6.1298 13.3941 6.1298 12.9894V9.32524C6.1298 8.92051 5.8017 8.59241 5.39697 8.59241H1.73283Z" fill="#2D3E50"/>
</svg>
