<svg width="24" height="24" viewBox="0 0 24 24" fill="none" xmlns="http://www.w3.org/2000/svg">
<path d="M22 6.4C22.5 6.4 22.9 6 22.9 5.5C22.9 5 22.5 4.6 22 4.6V6.4ZM9.00001 4.6C8.50001 4.6 8.10001 5 8.10001 5.5C8.10001 6 8.50001 6.4 9.00001 6.4V4.6ZM22 4.6H9.00001V6.4H22V4.6Z" fill="#262F56"/>
<path d="M22 12.9C22.5 12.9 22.9 12.5 22.9 12C22.9 11.5 22.5 11.1 22 11.1V12.9ZM9.00001 11.1C8.50001 11.1 8.10001 11.5 8.10001 12C8.10001 12.5 8.50001 12.9 9.00001 12.9V11.1ZM22 11.1H9.00001V12.9H22V11.1Z" fill="#262F56"/>
<path d="M22 19.4C22.5 19.4 22.9 19 22.9 18.5C22.9 18 22.5 17.6 22 17.6V19.4ZM9.00001 17.6C8.50001 17.6 8.10001 18 8.10001 18.5C8.10001 19 8.50001 19.4 9.00001 19.4V17.6ZM22 17.6H9.00001V19.4H22V17.6Z" fill="#262F56"/>
<path d="M3.5 8C4.88071 8 6 6.88071 6 5.5C6 4.11929 4.88071 3 3.5 3C2.11929 3 1 4.11929 1 5.5C1 6.88071 2.11929 8 3.5 8Z" fill="#262F56"/>
<path d="M3.5 14.5C4.88071 14.5 6 13.3807 6 12C6 10.6193 4.88071 9.5 3.5 9.5C2.11929 9.5 1 10.6193 1 12C1 13.3807 2.11929 14.5 3.5 14.5Z" fill="#262F56"/>
<path d="M3.5 21C4.88071 21 6 19.8807 6 18.5C6 17.1193 4.88071 16 3.5 16C2.11929 16 1 17.1193 1 18.5C1 19.8807 2.11929 21 3.5 21Z" fill="#262F56"/>
</svg>
