<svg width="24" height="24" viewBox="0 0 24 24" fill="none" xmlns="http://www.w3.org/2000/svg">
<path d="M12.1041 7.99792C11.5518 7.99792 11.1041 8.44564 11.1041 8.99792C11.1041 9.55021 11.5518 9.99792 12.1041 9.99792H16.1041C16.6563 9.99792 17.1041 9.55021 17.1041 8.99792C17.1041 8.44564 16.6563 7.99792 16.1041 7.99792H12.1041Z" fill="#2D3E50"/>
<path d="M12.1041 16.9979C11.5518 16.9979 11.1041 17.4456 11.1041 17.9979C11.1041 18.5502 11.5518 18.9979 12.1041 18.9979H16.1041C16.6563 18.9979 17.1041 18.5502 17.1041 17.9979C17.1041 17.4456 16.6563 16.9979 16.1041 16.9979H12.1041Z" fill="#2D3E50"/>
<path d="M12.1041 4.99792C11.5518 4.99792 11.1041 5.44564 11.1041 5.99792C11.1041 6.55021 11.5518 6.99792 12.1041 6.99792H20.1041C20.6564 6.99792 21.1041 6.55021 21.1041 5.99792C21.1041 5.44564 20.6564 4.99792 20.1041 4.99792H12.1041Z" fill="#2D3E50"/>
<path d="M12.1041 13.9979C11.5518 13.9979 11.1041 14.4456 11.1041 14.9979C11.1041 15.5502 11.5518 15.9979 12.1041 15.9979H20.1041C20.6564 15.9979 21.1041 15.5502 21.1041 14.9979C21.1041 14.4456 20.6564 13.9979 20.1041 13.9979H12.1041Z" fill="#2D3E50"/>
<path d="M3 4C2.44772 4 2 4.44772 2 5V10C2 10.5523 2.44772 11 3 11H8C8.55228 11 9 10.5523 9 10V5C9 4.44772 8.55228 4 8 4H3Z" fill="#2D3E50"/>
<path d="M3 12.9958C2.44772 12.9958 2 13.4436 2 13.9958V18.9958C2 19.5481 2.44772 19.9958 3 19.9958H8C8.55228 19.9958 9 19.5481 9 18.9958V13.9958C9 13.4436 8.55228 12.9958 8 12.9958H3Z" fill="#2D3E50"/>
</svg>
