<svg width="12" height="12" viewBox="0 0 12 12" fill="none" xmlns="http://www.w3.org/2000/svg">
<path d="M11 3.2C11.25 3.2 11.45 3 11.45 2.75C11.45 2.5 11.25 2.3 11 2.3V3.2ZM4.49999 2.3C4.24999 2.3 4.04999 2.5 4.04999 2.75C4.04999 3 4.24999 3.2 4.49999 3.2V2.3ZM11 2.3H4.49999V3.2H11V2.3Z" fill="#2D3E50"/>
<path d="M11 6.45C11.25 6.45 11.45 6.25 11.45 6C11.45 5.75 11.25 5.55 11 5.55V6.45ZM4.49999 5.55C4.24999 5.55 4.04999 5.75 4.04999 6C4.04999 6.25 4.24999 6.45 4.49999 6.45V5.55ZM11 5.55H4.49999V6.45H11V5.55Z" fill="#2D3E50"/>
<path d="M11 9.7C11.25 9.7 11.45 9.5 11.45 9.25C11.45 9 11.25 8.8 11 8.8V9.7ZM4.49999 8.8C4.24999 8.8 4.04999 9 4.04999 9.25C4.04999 9.5 4.24999 9.7 4.49999 9.7V8.8ZM11 8.8H4.49999V9.7H11V8.8Z" fill="#2D3E50"/>
<path d="M1.75 4C2.44036 4 3 3.44036 3 2.75C3 2.05964 2.44036 1.5 1.75 1.5C1.05964 1.5 0.5 2.05964 0.5 2.75C0.5 3.44036 1.05964 4 1.75 4Z" fill="#2D3E50"/>
<path d="M1.75 7.25C2.44036 7.25 3 6.69036 3 6C3 5.30964 2.44036 4.75 1.75 4.75C1.05964 4.75 0.5 5.30964 0.5 6C0.5 6.69036 1.05964 7.25 1.75 7.25Z" fill="#2D3E50"/>
<path d="M1.75 10.5C2.44036 10.5 3 9.94036 3 9.25C3 8.55964 2.44036 8 1.75 8C1.05964 8 0.5 8.55964 0.5 9.25C0.5 9.94036 1.05964 10.5 1.75 10.5Z" fill="#2D3E50"/>
</svg>
