<svg width="16" height="16" viewBox="0 0 16 16" fill="none" xmlns="http://www.w3.org/2000/svg">
<path fill-rule="evenodd" clip-rule="evenodd" d="M4.33334 4.26667C4.33334 2.27844 5.94512 0.666667 7.93334 0.666667C9.92154 0.666667 11.5333 2.27844 11.5333 4.26667V5.67099C11.7402 5.67484 11.9271 5.68213 12.0958 5.69591C12.4664 5.72619 12.8011 5.79077 13.1137 5.95005C13.6029 6.19932 14.0007 6.59707 14.2499 7.08627C14.4092 7.39887 14.4738 7.7336 14.5041 8.1042C14.5333 8.46227 14.5333 8.9028 14.5333 9.44153V9.46667V11.0667V11.0918C14.5333 11.6305 14.5333 12.0711 14.5041 12.4291C14.4738 12.7997 14.4092 13.1345 14.2499 13.4471C14.0007 13.9363 13.6029 14.334 13.1137 14.5833C12.8011 14.7425 12.4664 14.8071 12.0958 14.8374C11.7377 14.8667 11.2972 14.8667 10.7585 14.8667H10.7333H5.13334H5.1082C4.5695 14.8667 4.12894 14.8667 3.77088 14.8374C3.40028 14.8071 3.06556 14.7425 2.75296 14.5833C2.26374 14.334 1.866 13.9363 1.61672 13.4471C1.45745 13.1345 1.39286 12.7997 1.36258 12.4291C1.33333 12.0711 1.33334 11.6305 1.33334 11.0918V11.0667V9.46667V9.44153C1.33334 8.9028 1.33333 8.46227 1.36258 8.1042C1.39286 7.7336 1.45745 7.39887 1.61672 7.08627C1.866 6.59707 2.26374 6.19932 2.75296 5.95005C3.06556 5.79077 3.40028 5.72619 3.77088 5.69591C3.93952 5.68213 4.12646 5.67484 4.33334 5.67099V4.26667ZM10.3333 4.26667V5.66667H5.53334V4.26667C5.53334 2.94119 6.60787 1.86667 7.93334 1.86667C9.2588 1.86667 10.3333 2.94119 10.3333 4.26667ZM3.8686 6.89193C3.5722 6.91613 3.41298 6.96053 3.29776 7.01927C3.03433 7.15347 2.82016 7.36767 2.68593 7.63107C2.62722 7.74633 2.58282 7.90553 2.5586 8.20193C2.53381 8.50533 2.53334 8.89673 2.53334 9.46667V11.0667C2.53334 11.6366 2.53381 12.028 2.5586 12.3314C2.58282 12.6278 2.62722 12.787 2.68593 12.9023C2.82016 13.1657 3.03433 13.3799 3.29776 13.5141C3.41298 13.5728 3.5722 13.6172 3.8686 13.6414C4.17201 13.6662 4.56339 13.6667 5.13334 13.6667H10.7333C11.3033 13.6667 11.6947 13.6662 11.9981 13.6414C12.2945 13.6172 12.4537 13.5728 12.5689 13.5141C12.8323 13.3799 13.0465 13.1657 13.1807 12.9023C13.2395 12.787 13.2839 12.6278 13.3081 12.3314C13.3329 12.028 13.3333 11.6366 13.3333 11.0667V9.46667C13.3333 8.89673 13.3329 8.50533 13.3081 8.20193C13.2839 7.90553 13.2395 7.74633 13.1807 7.63107C13.0465 7.36767 12.8323 7.15347 12.5689 7.01927C12.4537 6.96053 12.2945 6.91613 11.9981 6.89193C11.6947 6.86713 11.3033 6.86667 10.7333 6.86667H5.13334C4.56339 6.86667 4.17201 6.86713 3.8686 6.89193ZM8.6 10.7549C8.99854 10.5244 9.26667 10.0935 9.26667 9.6C9.26667 8.8636 8.66974 8.26667 7.93334 8.26667C7.19694 8.26667 6.6 8.8636 6.6 9.6C6.6 10.0935 6.86814 10.5244 7.26667 10.7549V11.9333C7.26667 12.3015 7.56514 12.6 7.93334 12.6C8.30154 12.6 8.6 12.3015 8.6 11.9333V10.7549Z" fill="#2D3E50"/>
</svg>
