<svg width="12" height="12" viewBox="0 0 12 12" fill="none" xmlns="http://www.w3.org/2000/svg">
<path d="M4.50002 11.1H3.90002C3.00002 11.1 2.50002 11.1 2.00002 10.9C1.60002 10.7 1.30002 10.4 1.10002 10C0.900024 9.5 0.900024 9 0.900024 8.1V3.9C0.900024 3 0.900024 2.5 1.10002 2C1.30002 1.6 1.60002 1.3 2.00002 1.1C2.50002 0.900002 3.00002 0.900002 3.90002 0.900002H4.50002C5.30002 0.900002 5.70002 0.900002 6.10002 1.1C6.60002 1.3 7.00002 1.7 7.20002 2.2C7.30002 2.6 7.30002 3 7.30002 3.8C7.30002 4.1 7.00002 4.4 6.70002 4.4C6.40002 4.4 6.10002 4.1 6.10002 3.8C6.10002 3.2 6.10002 2.9 6.00002 2.7C6.00002 2.4 5.80002 2.3 5.60002 2.2C5.40002 2.1 5.10002 2.1 4.50002 2.1H3.90002C3.20002 2.1 2.80002 2.1 2.60002 2.2C2.40002 2.3 2.30002 2.4 2.20002 2.6C2.10002 2.8 2.10002 3.2 2.10002 3.9V8.1C2.10002 8.8 2.10002 9.2 2.20002 9.4C2.30002 9.6 2.40002 9.7 2.60002 9.8C2.80002 9.9 3.20002 9.9 3.90002 9.9H4.50002C5.10002 9.9 5.40002 9.9 5.60002 9.8C5.80002 9.7 6.00002 9.6 6.10002 9.3C6.20002 9.1 6.20002 8.8 6.20002 8.2C6.20002 7.9 6.50002 7.6 6.80002 7.6C7.10002 7.6 7.40002 7.9 7.40002 8.2C7.40002 9 7.40002 9.4 7.20002 9.8C7.00002 10.3 6.60002 10.7 6.10002 10.9C5.70002 11.1 5.30002 11.1 4.50002 11.1ZM9.00002 8.8C8.80002 8.8 8.70002 8.7 8.60002 8.6C8.40002 8.4 8.40002 8 8.60002 7.8L9.80002 6.6H4.50002C4.20002 6.6 3.90002 6.3 3.90002 6C3.90002 5.7 4.20002 5.4 4.50002 5.4H9.80002L8.60002 4.2C8.40002 4 8.40002 3.6 8.60002 3.4C8.80002 3.2 9.20002 3.2 9.40002 3.4L11.6 5.6C11.6 5.7 11.7 5.7 11.7 5.8C11.7 5.9 11.7 5.9 11.7 6C11.7 6.1 11.7 6.2 11.7 6.2C11.7 6.3 11.6 6.3 11.6 6.4L9.40002 8.7C9.30002 8.8 9.20002 8.8 9.00002 8.8Z" fill="#2D3E50"/>
</svg>
