<svg width="24" height="24" viewBox="0 0 24 24" fill="none" xmlns="http://www.w3.org/2000/svg">
<path d="M11.1 21.9H5.39998C4.39998 21.9 3.89998 21.9 3.39998 21.6C2.89998 21.4 2.59998 21 2.39998 20.5C2.09998 20 2.09998 19.5 2.09998 18.5V5.4C2.09998 4.4 2.09998 3.9 2.39998 3.4C2.59998 2.9 2.99998 2.6 3.39998 2.4C3.89998 2.1 4.39998 2.1 5.39998 2.1H11.1C12.1 2.1 12.6 2.1 13.1 2.4C13.6 2.6 13.9 3 14.1 3.4C14.4 3.9 14.4 4.4 14.4 5.4V7.5C14.4 8 14 8.4 13.5 8.4C13 8.4 12.6 8 12.6 7.5V5.4C12.6 4.8 12.6 4.4 12.5 4.2C12.5 4.1 12.4 4 12.3 4C12.2 3.9 11.7 3.9 11.1 3.9H5.39998C4.79998 3.9 4.39998 3.9 4.19998 4C4.09998 4 3.99998 4.1 3.99998 4.2C3.89998 4.4 3.89998 4.8 3.89998 5.4V18.6C3.89998 19.2 3.89998 19.6 3.99998 19.8C3.99998 19.9 4.09998 20 4.19998 20C4.29998 20.1 4.79998 20.1 5.39998 20.1H11.1C11.7 20.1 12.1 20.1 12.3 20C12.4 19.9 12.5 19.9 12.6 19.7C12.7 19.6 12.7 19.1 12.7 18.5V16.4C12.7 15.9 13.1 15.5 13.6 15.5C14.1 15.5 14.5 15.9 14.5 16.4V18.5C14.5 19.5 14.5 20 14.2 20.5C14 21 13.6 21.3 13.2 21.5C12.6 21.9 12.1 21.9 11.1 21.9ZM18 17.4C17.8 17.4 17.5 17.3 17.4 17.1C17 16.7 17 16.2 17.4 15.8L20.4 12.8H8.99998C8.49998 12.8 8.09998 12.4 8.09998 11.9C8.09998 11.4 8.49998 11 8.99998 11H20.3L17.3 8C16.9 7.6 16.9 7.1 17.3 6.7C17.7 6.3 18.2 6.3 18.6 6.7L23.1 11.2C23.2 11.3 23.3 11.4 23.3 11.5C23.3 11.6 23.4 11.7 23.4 11.8C23.4 11.9 23.4 12 23.3 12.1C23.3 12.2 23.2 12.3 23.1 12.4L18.6 16.9C18.5 17.3 18.2 17.4 18 17.4Z" fill="#2D3E50"/>
</svg>
