<svg width="16" height="16" viewBox="0 0 16 16" fill="none" xmlns="http://www.w3.org/2000/svg">
<path d="M6.59999 14.8H4.39999C3.49999 14.8 2.99999 14.8 2.49999 14.6C2.09999 14.4 1.69999 14 1.49999 13.6C1.29999 13.1 1.29999 12.6 1.29999 11.7V4.4C1.29999 3.5 1.29999 3 1.49999 2.5C1.69999 2.1 2.09999 1.7 2.49999 1.5C2.99999 1.3 3.49999 1.3 4.39999 1.3H6.59999C7.49999 1.3 7.99999 1.3 8.49999 1.5C8.89999 1.7 9.29999 2.1 9.49999 2.5C9.69999 3 9.69999 3.5 9.69999 4.4V5C9.69999 5.4 9.39999 5.8 8.89999 5.8C8.39999 5.8 8.19999 5.4 8.19999 5V4.4C8.19999 3.7 8.19999 3.3 8.09999 3.2C8.09999 3 7.99999 2.9 7.79999 2.8C7.69999 2.8 7.29999 2.8 6.59999 2.8H4.39999C3.69999 2.8 3.29999 2.8 3.19999 2.9C2.99999 2.9 2.89999 3 2.79999 3.2C2.79999 3.3 2.79999 3.7 2.79999 4.4V11.6C2.79999 12.3 2.79999 12.7 2.89999 12.8C2.89999 13 2.99999 13.1 3.19999 13.2C3.39999 13.3 3.79999 13.3 4.39999 13.3H6.59999C7.29999 13.3 7.69999 13.3 7.79999 13.2C7.99999 13.1 8.09999 13 8.19999 12.8C8.29999 12.6 8.29999 12.2 8.29999 11.6V11C8.29999 10.6 8.59999 10.2 9.09999 10.2C9.59999 10.2 9.89999 10.5 9.89999 11V11.6C9.89999 12.5 9.89999 13 9.69999 13.5C9.49999 13.9 9.09999 14.3 8.69999 14.5C7.99999 14.8 7.49999 14.8 6.59999 14.8ZM12 11.8C11.8 11.8 11.6 11.7 11.5 11.6C11.2 11.3 11.2 10.8 11.5 10.5L13.2 8.8H5.99999C5.59999 8.8 5.19999 8.4 5.19999 8C5.19999 7.6 5.59999 7.2 5.99999 7.2H13.2L11.5 5.5C11.2 5.2 11.2 4.7 11.5 4.4C11.8 4.1 12.3 4.1 12.6 4.4L15.6 7.4C15.7 7.5 15.7 7.6 15.8 7.6C15.8 7.7 15.9 7.8 15.9 7.9C15.9 8 15.9 8.1 15.8 8.2C15.8 8.3 15.7 8.4 15.6 8.4L12.6 11.4C12.4 11.7 12.2 11.8 12 11.8Z" fill="#2D3E50"/>
</svg>
