<svg width="12" height="12" viewBox="0 0 12 12" fill="none" xmlns="http://www.w3.org/2000/svg">
<path fill-rule="evenodd" clip-rule="evenodd" d="M5.4 10.6C5.55 10.75 5.75 10.8 5.95 10.8C6.15 10.8 6.35 10.7 6.5 10.6C7.55 9.75 9.9 7.6 9.9 4.95C9.9 2.75 8.15 1 5.95 1C3.75 1 2 2.75 2 4.95C2 7.6 4.4 9.8 5.4 10.6ZM4.70001 4.75C4.70001 4.03572 5.23572 3.5 5.95001 3.5C6.66429 3.5 7.20001 4.03572 7.20001 4.75C7.20001 5.46429 6.66429 6 5.95001 6C5.23572 6 4.70001 5.46429 4.70001 4.75Z" fill="#2D3E50"/>
<path d="M5.95001 3.5C5.23573 3.5 4.70001 4.03571 4.70001 4.75C4.70001 5.46429 5.23573 6 5.95001 6C6.6643 6 7.20001 5.46429 7.20001 4.75C7.20001 4.03571 6.6643 3.5 5.95001 3.5Z" fill="white"/>
</svg>
