<svg width="16" height="16" viewBox="0 0 16 16" fill="none" xmlns="http://www.w3.org/2000/svg">
<path fill-rule="evenodd" clip-rule="evenodd" d="M7.20002 14.1333C7.40002 14.3333 7.66669 14.4 7.93335 14.4C8.20002 14.4 8.46669 14.2667 8.66669 14.1333C10.0667 13 13.2 10.1333 13.2 6.6C13.2 3.66666 10.8667 1.33333 7.93335 1.33333C5.00002 1.33333 2.66669 3.66666 2.66669 6.6C2.66669 10.1333 5.86669 13.0667 7.20002 14.1333ZM6.26669 6.33333C6.26669 5.38095 6.98098 4.66666 7.93336 4.66666C8.88574 4.66666 9.60002 5.38095 9.60002 6.33333C9.60002 7.28571 8.88574 7.99999 7.93336 7.99999C6.98098 7.99999 6.26669 7.28571 6.26669 6.33333Z" fill="#2D3E50"/>
</svg>
