<svg width="16" height="16" viewBox="0 0 16 16" fill="none" xmlns="http://www.w3.org/2000/svg">
<path d="M1.40154 1.84243V0.872732C1.40154 0.812126 1.42635 0.775763 1.46355 0.727278C1.50076 0.690914 1.55038 0.666672 1.59999 0.666672H3.29921L3.44805 0.715157L8.11162 5.3697H8.16123L11.3736 3.91516C11.386 3.90304 11.3984 3.90303 11.4108 3.90303H11.4605C11.4977 3.90303 11.5225 3.91516 11.5473 3.92728C11.5721 3.9394 11.5969 3.96364 11.6093 3.98788H11.6217C11.6217 4 11.6217 4.01213 11.6341 4.02425C11.6341 4.03637 11.6465 4.06061 11.6465 4.06061C11.6465 4.1091 11.6341 4.14546 11.6093 4.18182C11.5845 4.21819 11.5597 4.24243 11.5225 4.25455L9.6496 5.10303V5.86667H13.6558C14.1147 5.86667 14.4992 6.02425 14.8217 6.3394C15.1442 6.65455 15.3178 7.04243 15.3178 7.50303V10.6909C15.3178 11.1636 15.1566 11.5515 14.8341 11.8788C14.5116 12.2061 14.1147 12.3636 13.6434 12.3636C13.1845 12.3636 12.8 12.2061 12.4775 11.8788C12.155 11.5515 11.9938 11.1636 11.9938 10.6909V8.01213C11.9938 7.79394 11.9194 7.6 11.7581 7.44243C11.5969 7.28485 11.4108 7.21213 11.1876 7.21213H9.74883L9.97208 7.33334C10.2946 7.50303 10.555 7.73334 10.7659 8.02425C10.9767 8.31516 11.0884 8.64243 11.1256 9.00606V9.01819V9.06667H11.1752H11.1876H11.2C11.2496 9.06667 11.2868 9.07879 11.324 9.11516C11.3612 9.15152 11.386 9.18788 11.386 9.23637V15.1515C11.386 15.2121 11.3612 15.2485 11.324 15.297C11.2868 15.3333 11.2372 15.3576 11.2 15.3576H4.78759C4.73797 15.3576 4.70076 15.3333 4.66355 15.297C4.62634 15.2606 4.60154 15.2121 4.60154 15.1515V9.23637C4.60154 9.18788 4.62634 9.15152 4.66355 9.11516C4.70076 9.07879 4.75038 9.06667 4.78759 9.06667H4.8372V9.01819C4.88681 8.59394 5.03565 8.21819 5.29611 7.90303C5.55658 7.57576 5.87906 7.35758 6.27596 7.21213H6.28836H6.33797V6.04849C6.33797 6 6.35038 5.96364 6.37518 5.9394C6.39999 5.91516 6.42479 5.89091 6.462 5.86667H6.56123L2.74107 2.03637H1.59999C1.55038 2.03637 1.50076 2.02425 1.46355 1.98788C1.43875 1.95152 1.41394 1.90304 1.40154 1.84243ZM7.26821 5.06667L6.78448 5.5394L7.10697 5.85455H8.062L7.26821 5.06667ZM9.30231 5.27273L8.38448 5.68485L8.57053 5.85455H9.30231V5.27273ZM9.30231 6.23031H6.69766V7.07879H9.30231V6.23031ZM11.2124 6.84849C11.5225 6.84849 11.7953 6.95758 12.0186 7.18788C12.2418 7.41819 12.3659 7.69697 12.3783 8.01213V10.7152C12.3783 11.0667 12.5023 11.3818 12.7504 11.6364C12.9984 11.8909 13.3085 12.0242 13.6558 12.0242C14.0031 12.0242 14.3132 11.8909 14.5736 11.6364C14.8341 11.3818 14.9581 11.0788 14.9581 10.7152V7.52728C14.9581 7.17576 14.8341 6.86061 14.5736 6.60607C14.3132 6.35152 14.0155 6.21819 13.6558 6.21819H9.6496V6.83637H11.2124V6.84849ZM4.97363 14.9818H11.0263V9.43031H4.97363V14.9818ZM5.2465 8.99394V9.06667H10.7535V8.99394C10.7039 8.54546 10.5054 8.18182 10.1705 7.89091C9.83565 7.6 9.45115 7.45455 9.00464 7.44243H6.99534C6.54883 7.45455 6.16433 7.6 5.82945 7.89091C5.49456 8.18182 5.29611 8.54546 5.2465 8.98182V8.99394ZM1.77363 1.66061H2.8279C2.8651 1.66061 2.88991 1.66061 2.91472 1.67273C2.93952 1.68485 2.96433 1.69697 2.97673 1.72122L6.52402 5.26061L7.00774 4.78788L3.2496 1.03031H1.77363V1.66061ZM0.744175 4.48485L1.41394 2.99394C1.42635 2.9697 1.43875 2.95758 1.45115 2.93334C1.46355 2.92122 1.48836 2.89697 1.51317 2.89697H1.662L1.76123 2.99394L2.41859 4.48485C2.4558 4.54546 2.46821 4.59394 2.48061 4.65455C2.49301 4.71516 2.49301 4.77576 2.49301 4.84849C2.49301 4.9697 2.46821 5.09091 2.41859 5.18788C2.36898 5.29697 2.30697 5.38182 2.23255 5.46667C2.14573 5.5394 2.0465 5.6 1.93487 5.64849C1.82324 5.69697 1.71162 5.72122 1.58759 5.72122C1.46355 5.72122 1.35193 5.69697 1.2403 5.64849C1.12867 5.6 1.02945 5.5394 0.942625 5.46667C0.868206 5.39394 0.80619 5.29697 0.756578 5.18788C0.706966 5.07879 0.682159 4.95758 0.682159 4.82425C0.682159 4.76364 0.682159 4.71516 0.694563 4.65455C0.694563 4.60607 0.719369 4.54546 0.744175 4.48485ZM1.20309 5.2C1.2527 5.24849 1.31472 5.28485 1.38914 5.32122C1.46355 5.35758 1.52557 5.3697 1.61239 5.3697C1.68681 5.3697 1.76123 5.35758 1.83565 5.32122C1.91007 5.28485 1.95968 5.24849 1.99689 5.2C2.0465 5.15152 2.08371 5.10303 2.10852 5.04243C2.13332 4.98182 2.14573 4.9091 2.14573 4.83637C2.14573 4.8 2.14573 4.77576 2.13332 4.7394C2.13332 4.71516 2.12092 4.67879 2.10852 4.64243V4.65455L1.61239 3.51516L1.09146 4.65455C1.07906 4.67879 1.06666 4.70303 1.05425 4.7394C1.04185 4.77576 1.04185 4.81213 1.04185 4.86061C1.04185 4.93334 1.05425 4.99394 1.09146 5.04243C1.11627 5.11516 1.15348 5.16364 1.20309 5.2Z" fill="#2D3E50"/>
<mask id="mask0" mask-type="alpha" maskUnits="userSpaceOnUse" x="0" y="0" width="16" height="16">
<path d="M15.6744 0.678802H0.666656V15.5879H15.6744V0.678802Z" fill="white"/>
<path d="M1.62169 1.96363V0.993933C1.62169 0.933327 1.6465 0.896963 1.68371 0.848478C1.72092 0.812115 1.77053 0.787872 1.82014 0.787872H3.51937L3.6682 0.836357L8.33177 5.4909H8.38138L11.5938 4.03636C11.6062 4.02424 11.6186 4.02424 11.631 4.02424H11.6806C11.7178 4.02424 11.7426 4.03636 11.7674 4.04848C11.7922 4.0606 11.817 4.08484 11.8294 4.10908H11.8418C11.8418 4.12121 11.8418 4.13333 11.8543 4.14545C11.8543 4.15757 11.8667 4.18181 11.8667 4.18181C11.8667 4.2303 11.8542 4.26666 11.8294 4.30302C11.8046 4.33939 11.7798 4.36363 11.7426 4.37575L9.86975 5.22424V5.98787H13.876C14.3349 5.98787 14.7194 6.14545 15.0418 6.4606C15.3643 6.77575 15.538 7.16363 15.538 7.62424V10.8121C15.538 11.2848 15.3767 11.6727 15.0542 12C14.7318 12.3273 14.3349 12.4848 13.8636 12.4848C13.4046 12.4848 13.0201 12.3273 12.6977 12C12.3752 11.6727 12.2139 11.2848 12.2139 10.8121V8.13333C12.2139 7.91514 12.1395 7.7212 11.9783 7.56363C11.817 7.40605 11.631 7.33333 11.4077 7.33333H9.96898L10.1922 7.45454C10.5147 7.62424 10.7752 7.85454 10.986 8.14545C11.1969 8.43636 11.3085 8.76363 11.3457 9.12726V9.13939V9.18787H11.3953H11.4077H11.4201C11.4698 9.18787 11.507 9.19999 11.5442 9.23636C11.5814 9.27272 11.6062 9.30908 11.6062 9.35757V15.2727C11.6062 15.3333 11.5814 15.3697 11.5442 15.4182C11.507 15.4545 11.4574 15.4788 11.4201 15.4788H5.00774C4.95813 15.4788 4.92092 15.4545 4.88371 15.4182C4.8465 15.3818 4.82169 15.3333 4.82169 15.2727V9.35757C4.82169 9.30908 4.8465 9.27272 4.88371 9.23636C4.92092 9.19999 4.97053 9.18787 5.00774 9.18787H5.05735V9.13939C5.10696 8.71514 5.2558 8.33939 5.51627 8.02423C5.77673 7.69696 6.09921 7.47878 6.49611 7.33333H6.50851H6.55813V6.16969C6.55813 6.1212 6.57053 6.08484 6.59534 6.0606C6.62014 6.03636 6.64495 6.01211 6.68216 5.98787H6.78138L2.96123 2.15757H1.82014C1.77053 2.15757 1.72092 2.14545 1.68371 2.10908C1.6589 2.07272 1.6341 2.02424 1.62169 1.96363ZM7.48836 5.18787L7.00464 5.6606L7.32712 5.97575H8.28216L7.48836 5.18787ZM9.52247 5.39393L8.60464 5.80605L8.79068 5.97575H9.52247V5.39393ZM9.52247 6.35151H6.91782V7.19999H9.52247V6.35151ZM11.4325 6.96969C11.7426 6.96969 12.0155 7.07878 12.2387 7.30908C12.462 7.53939 12.586 7.81817 12.5984 8.13333V10.8364C12.5984 11.1879 12.7225 11.503 12.9705 11.7576C13.2186 12.0121 13.5287 12.1454 13.876 12.1454C14.2232 12.1454 14.5333 12.0121 14.7938 11.7576C15.0543 11.503 15.1783 11.2 15.1783 10.8364V7.64848C15.1783 7.29696 15.0543 6.98181 14.7938 6.72727C14.5333 6.47272 14.2356 6.33939 13.876 6.33939H9.86975V6.95757H11.4325V6.96969ZM5.19379 15.103H11.2465V9.55151H5.19379V15.103ZM5.46665 9.11514V9.18787H10.9736V9.11514C10.924 8.66666 10.7256 8.30302 10.3907 8.01211C10.0558 7.7212 9.6713 7.57575 9.22479 7.56363H7.21549C6.76898 7.57575 6.38448 7.7212 6.0496 8.01211C5.71472 8.30302 5.51627 8.66666 5.46665 9.10302V9.11514ZM1.99379 1.78181H3.04805C3.08526 1.78181 3.11006 1.78181 3.13487 1.79393C3.15968 1.80605 3.18448 1.81818 3.19689 1.84242L6.74417 5.38181L7.22789 4.90908L3.46975 1.15151H1.99379V1.78181ZM0.964329 4.60605L1.6341 3.11514C1.6465 3.0909 1.6589 3.07878 1.67131 3.05454C1.68371 3.04242 1.70851 3.01818 1.73332 3.01818H1.88216L1.98138 3.11514L2.63875 4.60605C2.67596 4.66666 2.68836 4.71514 2.70076 4.77575C2.71317 4.83636 2.71317 4.89696 2.71317 4.96969C2.71317 5.0909 2.68836 5.21211 2.63875 5.30908C2.58913 5.41817 2.52712 5.50302 2.4527 5.58787C2.36588 5.6606 2.26665 5.72121 2.15503 5.76969C2.0434 5.81817 1.93177 5.84242 1.80774 5.84242C1.68371 5.84242 1.57208 5.81817 1.46045 5.76969C1.34882 5.72121 1.2496 5.6606 1.16278 5.58787C1.08836 5.51514 1.02634 5.41817 0.976732 5.30908C0.927119 5.19999 0.902313 5.07878 0.902313 4.94545C0.902313 4.88484 0.902313 4.83636 0.914716 4.77575C0.914716 4.72727 0.939523 4.66666 0.964329 4.60605ZM1.42324 5.32121C1.47286 5.36969 1.53487 5.40605 1.60929 5.44242C1.68371 5.47878 1.74572 5.4909 1.83255 5.4909C1.90696 5.4909 1.98138 5.47878 2.0558 5.44242C2.13022 5.40605 2.17983 5.36969 2.21704 5.32121C2.26665 5.27272 2.30386 5.22424 2.32867 5.16363C2.35348 5.10302 2.36588 5.0303 2.36588 4.95757C2.36588 4.92121 2.36588 4.89696 2.35348 4.8606C2.35348 4.83636 2.34107 4.79999 2.32867 4.76363V4.77575L1.83255 3.63636L1.31162 4.77575C1.29921 4.79999 1.28681 4.82424 1.27441 4.8606C1.262 4.89696 1.262 4.93333 1.262 4.98181C1.262 5.05454 1.27441 5.11514 1.31162 5.16363C1.33642 5.23636 1.37363 5.28484 1.42324 5.32121Z" fill="black"/>
</mask>
<g mask="url(#mask0)">
<path d="M11.2124 15.4667H4.78758C4.73796 15.4667 4.65114 15.4546 4.57672 15.3697C4.51471 15.3091 4.4775 15.2243 4.4775 15.1394V9.23639C4.4775 9.15154 4.51471 9.07881 4.57672 9.03033C4.61393 8.99397 4.66354 8.96972 4.71316 8.9576C4.76277 8.53336 4.92401 8.1576 5.19688 7.83033C5.46975 7.49094 5.80463 7.24851 6.21393 7.11518V6.06063C6.21393 5.98791 6.23874 5.9273 6.27595 5.87881C6.28835 5.85457 6.31316 5.84245 6.32556 5.81821L2.69145 2.1576H1.61238C1.52556 2.1576 1.45114 2.13336 1.38913 2.07275C1.33951 2.02427 1.3023 1.95154 1.2899 1.87881V1.85457V0.884875C1.2899 0.800026 1.32711 0.715178 1.38913 0.654572C1.45114 0.593966 1.52556 0.557602 1.62479 0.557602H3.34882L3.52246 0.618208L3.54727 0.64245L8.16122 5.26063L11.3116 3.83033C11.3488 3.80609 11.386 3.79397 11.4108 3.79397H11.4604C11.5225 3.79397 11.5721 3.80609 11.6217 3.84245C11.6465 3.85457 11.6589 3.86669 11.6713 3.87881H11.7457V4.00003C11.7581 4.03639 11.7581 4.06063 11.7581 4.08487C11.7581 4.1576 11.7457 4.21821 11.7085 4.26669C11.6713 4.31518 11.6217 4.36366 11.5721 4.37578L9.77362 5.18791V5.7576H13.6558C14.1395 5.7576 14.5736 5.9273 14.9085 6.26669C15.2558 6.60609 15.4294 7.01821 15.4418 7.51518V10.7031C15.4418 11.2 15.2682 11.6243 14.9209 11.9758C14.5736 12.3273 14.1519 12.497 13.6434 12.497C13.1597 12.497 12.7256 12.3273 12.3907 11.9758C12.0434 11.6364 11.8697 11.2 11.8697 10.7031V8.01215C11.8697 7.81821 11.8077 7.66063 11.6713 7.5273C11.5349 7.39397 11.386 7.33336 11.1876 7.33336H10.2077C10.4558 7.49094 10.679 7.70912 10.8527 7.95154C11.0635 8.25457 11.1876 8.58184 11.2248 8.94548C11.2868 8.9576 11.3488 8.98184 11.3984 9.01821C11.4604 9.07881 11.4977 9.15154 11.4977 9.22427V15.1394C11.4977 15.2243 11.4604 15.3091 11.3984 15.3697C11.3488 15.4546 11.262 15.4667 11.2124 15.4667ZM4.78758 9.18791C4.78758 9.18791 4.76277 9.18791 4.73796 9.21215C4.72556 9.22427 4.72556 9.23639 4.72556 9.23639V15.1515C4.72556 15.1758 4.73796 15.1879 4.75037 15.2121C4.76277 15.2243 4.77517 15.2364 4.78758 15.2364H11.2C11.2124 15.2364 11.2248 15.2243 11.2372 15.2121C11.2496 15.2 11.262 15.1758 11.262 15.1515V9.23639C11.262 9.23639 11.262 9.22427 11.2496 9.21215C11.2248 9.18791 11.2124 9.18791 11.2 9.18791H10.9891V8.99397C10.9643 8.66669 10.8403 8.36366 10.6542 8.08487C10.4558 7.80609 10.2077 7.58791 9.91006 7.43033L9.6868 7.30912L9.74882 7.07881H11.2C11.4604 7.07881 11.6713 7.17578 11.8573 7.34548C12.031 7.5273 12.1302 7.74548 12.1302 8.00003V10.7031C12.1302 11.1394 12.279 11.5031 12.5767 11.8061C12.8744 12.1091 13.2341 12.2546 13.6558 12.2546C14.0899 12.2546 14.4496 12.1091 14.7473 11.8061C15.0449 11.5031 15.1938 11.1394 15.1938 10.7031V7.5273C15.1814 7.10306 15.0325 6.75154 14.7349 6.44851C14.4372 6.1576 14.0775 6.01215 13.6558 6.01215H9.52556V5.04245L11.4852 4.1576C11.4852 4.1576 11.4977 4.1576 11.5101 4.13336C11.5101 4.12124 11.5225 4.10912 11.5225 4.097L11.4977 4.06063C11.4977 4.06063 11.4977 4.06063 11.4852 4.04851C11.4728 4.04851 11.4728 4.03639 11.4604 4.03639H11.4232L8.19843 5.51518H8.0744L3.38603 0.83639L3.2868 0.800026H1.59998C1.57517 0.800026 1.56277 0.812147 1.55037 0.824269C1.53796 0.83639 1.52556 0.860632 1.52556 0.884875V1.83033C1.53796 1.85457 1.53796 1.87881 1.56277 1.89094C1.56277 1.89094 1.57517 1.90306 1.61238 1.90306H2.80308L6.8713 5.97578H6.52401C6.51161 5.98791 6.4992 6.00003 6.4992 6.00003C6.4992 6.00003 6.4868 6.01215 6.4868 6.03639V7.32124H6.31316C5.95347 7.44245 5.65579 7.66063 5.40773 7.96366C5.15967 8.26669 5.02323 8.61821 4.97362 9.01821V9.18791H4.78758ZM11.1504 15.1031H4.84959V9.30912H11.1504V15.1031ZM5.09765 14.8606H10.9023V9.55154H5.09765V14.8606ZM13.6682 12.1455C13.2837 12.1455 12.9364 12 12.6635 11.7212C12.3907 11.4425 12.2542 11.1031 12.2542 10.7152V8.01215C12.2418 7.72124 12.1426 7.47881 11.9318 7.27275C11.7209 7.06669 11.4852 6.96972 11.2124 6.96972H9.52556V6.10912H13.6558C14.0403 6.10912 14.3876 6.25457 14.6604 6.53336C14.9333 6.81215 15.0821 7.15154 15.0821 7.53942V10.7273C15.0821 11.1152 14.9457 11.4546 14.6604 11.7334C14.3876 12 14.0527 12.1455 13.6682 12.1455ZM9.77362 6.7273H11.2C11.5473 6.7273 11.8449 6.86063 12.093 7.10306C12.3411 7.3576 12.4775 7.66063 12.4899 8.01215V10.7273C12.4899 11.0546 12.6015 11.3334 12.8372 11.5637C13.0604 11.794 13.3333 11.9152 13.6558 11.9152C13.9783 11.9152 14.2511 11.8061 14.4868 11.5637C14.7225 11.3334 14.8341 11.0546 14.8341 10.7273V7.5273C14.8341 7.20003 14.7225 6.93336 14.4868 6.69094C14.2511 6.46063 13.9783 6.33942 13.6558 6.33942H9.77362V6.7273ZM10.8775 9.18791H5.12246V8.96972C5.18447 8.50912 5.39533 8.12124 5.74261 7.80609C6.1023 7.50306 6.51161 7.33336 6.99533 7.32124H9.00463C9.47595 7.33336 9.89765 7.49094 10.2573 7.80609C10.617 8.10912 10.8279 8.50912 10.8775 8.98184V8.99397V9.18791ZM5.37052 8.94548H10.617C10.555 8.5576 10.3814 8.24245 10.0837 7.98791C9.77362 7.72124 9.41393 7.57578 8.99223 7.56366H6.99533C6.58603 7.57578 6.21393 7.72124 5.90385 7.98791C5.60618 8.24245 5.43254 8.5576 5.37052 8.94548ZM9.42633 7.20003H6.57362V6.10912H9.42633V7.20003ZM6.82168 6.9576H9.17827V6.35154H6.82168V6.9576ZM9.42633 5.97578H8.52091L8.16122 5.64851L9.42633 5.07881V5.97578ZM8.62013 5.73336H9.17827V5.46669L8.60773 5.73336H8.62013ZM8.34727 5.97578H7.04494L6.61083 5.53942L7.2682 4.897L8.34727 5.97578ZM7.14416 5.73336H7.75192L7.25579 5.23639L6.94571 5.53942L7.14416 5.73336ZM1.58758 5.84245C1.45114 5.84245 1.31471 5.81821 1.19068 5.76972C1.06665 5.72124 0.955018 5.64851 0.855793 5.56366C0.756568 5.46669 0.694553 5.36972 0.632537 5.24851C0.570522 5.1273 0.545715 4.99397 0.545715 4.83639C0.545715 4.77578 0.558118 4.70306 0.570522 4.64245C0.582925 4.56972 0.607731 4.497 0.64494 4.43639L1.31471 2.9576C1.33951 2.92124 1.35192 2.88487 1.37672 2.86063C1.40153 2.83639 1.43874 2.81215 1.46354 2.80003L1.48835 2.7879H1.72401L1.87285 2.94548L2.53021 4.44851C2.56742 4.50912 2.59223 4.58184 2.60463 4.65457C2.61703 4.7273 2.62944 4.80003 2.62944 4.87275C2.62944 5.01821 2.60463 5.13942 2.54261 5.26063C2.4806 5.38184 2.41858 5.47881 2.33176 5.57578C2.23254 5.67275 2.10851 5.73336 1.98448 5.78184C1.86044 5.81821 1.72401 5.84245 1.58758 5.84245ZM1.55037 3.01821C1.55037 3.01821 1.55037 3.03033 1.55037 3.01821C1.53796 3.03033 1.52556 3.04245 1.52556 3.05457L0.855793 4.54548C0.830987 4.59397 0.818584 4.63033 0.80618 4.67881C0.793777 4.7273 0.793777 4.78791 0.793777 4.83639C0.793777 4.9576 0.818584 5.05457 0.855793 5.13942C0.905405 5.23639 0.955018 5.30912 1.02944 5.38184C1.10385 5.44245 1.19068 5.50306 1.2899 5.53942C1.47595 5.61215 1.71161 5.61215 1.89765 5.53942C1.99688 5.50306 2.0837 5.44245 2.15812 5.38184C2.22013 5.32124 2.28215 5.23639 2.31936 5.15154C2.35657 5.06669 2.38137 4.96972 2.38137 4.86063C2.38137 4.80003 2.38137 4.73942 2.36897 4.69094C2.35657 4.64245 2.34416 4.59397 2.31936 4.5576L2.30696 4.54548L1.66199 3.07881L1.61238 3.01821H1.55037ZM1.59998 5.49094C1.50075 5.49094 1.41393 5.46669 1.32711 5.43033C1.25269 5.39397 1.17827 5.34548 1.11626 5.297V5.28487C1.06665 5.23639 1.01703 5.17578 0.979824 5.11518C0.930211 5.04245 0.917808 4.9576 0.917808 4.87275C0.917808 4.81215 0.930211 4.76366 0.942614 4.71518C0.955018 4.67881 0.967421 4.64245 0.979824 4.61821L1.61238 3.23639L2.22013 4.61821H2.23254C2.24494 4.65457 2.25734 4.69094 2.25734 4.7273C2.26975 4.76366 2.26975 4.80003 2.26975 4.83639C2.26975 4.93336 2.25734 5.01821 2.22013 5.09094C2.18292 5.16366 2.14572 5.23639 2.0837 5.28487C2.03409 5.33336 1.95967 5.38184 1.88525 5.43033C1.78603 5.46669 1.6992 5.49094 1.59998 5.49094ZM1.2899 5.11518C1.33951 5.15154 1.38913 5.18791 1.45114 5.21215C1.55037 5.26063 1.6744 5.26063 1.77362 5.21215C1.82323 5.18791 1.87285 5.15154 1.91006 5.11518C1.94727 5.07881 1.97207 5.04245 1.99688 4.99397C2.02168 4.94548 2.03409 4.897 2.03409 4.83639C2.03409 4.81215 2.03409 4.78791 2.03409 4.76366C2.03409 4.75154 2.02168 4.7273 2.02168 4.71518L1.63719 3.83033L1.24029 4.71518C1.22789 4.73942 1.21548 4.76366 1.21548 4.78791C1.20308 4.81215 1.20308 4.83639 1.20308 4.87275C1.20308 4.92124 1.21548 4.9576 1.24029 4.99397C1.21548 5.04245 1.25269 5.07881 1.2899 5.11518ZM6.51161 5.44245L2.8775 1.81821C2.8651 1.80609 2.85269 1.79397 2.84029 1.79397C2.84029 1.79397 2.82789 1.79397 2.81548 1.79397H1.63719V0.921238H3.2868L7.16897 4.80003L6.51161 5.44245ZM1.89765 1.53942H2.82789C2.8775 1.53942 2.92711 1.55154 2.96432 1.56366C3.00153 1.57578 3.02634 1.60003 3.06354 1.63639L6.51161 5.10306L6.82168 4.80003L3.18758 1.16366H1.89765V1.53942Z" fill="#2D3E50"/>
</g>
</svg>
