<svg width="12" height="12" viewBox="0 0 12 12" fill="none" xmlns="http://www.w3.org/2000/svg">
<path d="M8.77087 2.95782C8.77791 3.01412 8.78593 3.06534 8.79042 3.11696C8.80059 3.23191 8.73177 3.33397 8.6086 3.39066C8.20919 3.57248 7.81036 3.75587 7.40997 3.93534C7.34975 3.96232 7.3302 3.99673 7.3302 4.06105C7.3302 4.32009 7.32805 4.32009 7.58162 4.32009C8.43206 4.32009 9.28251 4.31775 10.1328 4.32009C10.6385 4.32205 11.0252 4.54668 11.2976 4.96995C11.4265 5.17161 11.4944 5.40625 11.4931 5.64561C11.497 6.43415 11.497 7.22268 11.4931 8.01122C11.4901 8.34022 11.3659 8.65658 11.1443 8.89977C10.9227 9.14295 10.6192 9.29589 10.2919 9.32931C9.60275 9.39774 8.98104 8.9559 8.83461 8.28786C8.8143 8.18578 8.8048 8.08185 8.80626 7.97779C8.80372 7.33927 8.80509 6.70056 8.80489 6.06184C8.80489 5.7246 8.62209 5.5418 8.28602 5.54141C8.15249 5.54141 8.01877 5.54141 7.88524 5.54141C7.85454 5.54141 7.82404 5.54552 7.79335 5.54786L7.77478 5.57758C7.80209 5.59312 7.82822 5.61063 7.85298 5.62997C8.13607 5.88413 8.31926 6.19361 8.39199 6.5684C8.40488 6.61251 8.4331 6.65057 8.47156 6.67573C8.5564 6.7334 8.60489 6.8032 8.60469 6.90897C8.60391 8.34267 8.60352 9.77637 8.60352 11.2101C8.60352 11.3917 8.4915 11.5 8.3089 11.5C6.76793 11.5 5.2269 11.5 3.6858 11.5C3.4989 11.5 3.38805 11.3907 3.38805 11.203C3.38726 9.77611 3.38674 8.34892 3.38648 6.92148C3.38446 6.87434 3.3946 6.82748 3.41593 6.7854C3.43726 6.74332 3.46907 6.70743 3.50828 6.6812C3.54274 6.65483 3.56721 6.61754 3.57769 6.57543C3.70183 5.98697 4.04357 5.57699 4.58942 5.33378C4.6424 5.31032 4.66156 5.28139 4.66098 5.2245C4.65824 5.01609 4.65746 4.80749 4.66098 4.59888C4.66215 4.53906 4.68581 4.47982 4.69226 4.4198C4.69604 4.39077 4.68909 4.36136 4.67271 4.3371C4.61699 4.27356 4.5554 4.21589 4.4946 4.15606C3.71832 3.37978 2.9423 2.60304 2.16653 1.82585C2.1429 1.79963 2.11373 1.779 2.08112 1.76548C2.04852 1.75195 2.01332 1.74586 1.97807 1.74764C1.76634 1.75195 1.5546 1.75038 1.34268 1.74764C1.14033 1.74628 1.0418 1.64774 1.04101 1.44813C1.04101 1.22662 1.03964 1.00512 1.04101 0.783415C1.04238 0.615673 1.15382 0.502671 1.32332 0.501693C1.72411 0.499738 2.12489 0.499152 2.52568 0.501693C2.57773 0.501288 2.62933 0.511478 2.67732 0.531644C2.72532 0.55181 2.76871 0.58153 2.80486 0.618996C3.883 1.7004 4.96068 2.78049 6.03791 3.85929C6.10204 3.92381 6.14877 3.93026 6.23029 3.89272C6.95379 3.56062 7.67937 3.23211 8.40704 2.90718C8.47077 2.87883 8.55777 2.89506 8.63265 2.90327C8.67879 2.90835 8.72317 2.93768 8.77087 2.95782ZM8.078 10.9647C8.07996 10.9278 8.0827 10.8988 8.0827 10.8701C8.0827 9.67144 8.08152 8.47261 8.08524 7.27397C8.08524 7.17211 8.04086 7.16566 7.96227 7.16566C6.65278 7.1671 5.34335 7.16677 4.03399 7.16468C3.93624 7.16468 3.90731 7.18815 3.9077 7.28961C3.91141 8.47515 3.91004 9.66089 3.91004 10.8464C3.91004 10.9719 3.91004 10.9727 4.04005 10.9727C5.34342 10.9727 6.64633 10.9727 7.94878 10.9727C7.98983 10.9725 8.03128 10.9676 8.078 10.9647ZM10.9584 6.82353H10.9662C10.9662 6.43604 10.9689 6.04835 10.9662 5.66067C10.9621 5.19146 10.6143 4.82625 10.1527 4.82293C9.2438 4.81628 8.33451 4.82176 7.426 4.81941C7.3433 4.81941 7.33176 4.85636 7.33079 4.92635C7.32981 4.99634 7.35347 5.02176 7.42619 5.02098C7.71945 5.01746 8.01271 5.03075 8.30596 5.01726C8.86257 4.99126 9.34018 5.48862 9.33002 6.04386C9.31809 6.67573 9.3265 7.30779 9.32806 7.94025C9.32781 8.01505 9.33436 8.08971 9.34761 8.16332C9.4178 8.54025 9.78808 8.82804 10.176 8.81103C10.5744 8.79343 10.9384 8.47007 10.955 8.08434C10.9715 7.6642 10.9584 7.24347 10.9584 6.82353ZM7.86803 6.63702C7.8565 6.59205 7.84848 6.55451 7.83734 6.51815C7.68797 6.05246 7.22678 5.71756 6.72531 5.71521C6.24671 5.71287 5.76734 5.71209 5.28952 5.71521C4.86958 5.71795 4.53703 5.89742 4.29245 6.23545C4.20367 6.35269 4.14694 6.49101 4.12784 6.63682L7.86803 6.63702ZM5.06723 3.65049C5.0559 3.637 5.04495 3.62097 5.03126 3.60728C4.18903 2.76466 3.34614 1.92256 2.50261 1.08097C2.47331 1.05193 2.4348 1.03402 2.39371 1.03034C2.14307 1.02604 1.89224 1.03034 1.6416 1.02701C1.55324 1.02584 1.56633 1.08215 1.5634 1.13767C1.5591 1.20355 1.57963 1.23073 1.6506 1.22877C1.80993 1.22428 1.96986 1.23425 2.129 1.22526C2.26409 1.21783 2.3636 1.26631 2.45725 1.36055C3.24474 2.15208 4.03399 2.94205 4.825 3.73045C4.85179 3.75704 4.88014 3.78226 4.91122 3.81139L5.06723 3.65049ZM6.00566 4.82058H5.43009C5.16577 4.82058 5.16987 4.82058 5.16812 5.08197C5.16812 5.17562 5.20291 5.19498 5.28815 5.19419C5.71416 5.19067 6.14036 5.19263 6.56636 5.19263C6.82482 5.19263 6.82169 5.19263 6.82326 4.93632C6.82326 4.84971 6.80058 4.81628 6.7083 4.81902C6.47487 4.82449 6.24026 4.82058 6.00566 4.82058ZM5.29676 4.1936C5.40487 4.3588 5.55365 4.27884 5.70184 4.29624L5.44515 4.04209L5.29676 4.1936Z" fill="#2D3E50"/>
<path d="M2.12198 3.65499C2.11826 4.09038 1.78121 4.4331 1.31923 4.45656C0.869573 4.47885 0.48482 4.10915 0.500461 3.6632C0.503999 3.56896 0.524876 3.47617 0.562045 3.38949C0.718448 3.02898 0.884236 2.67219 1.0465 2.31422C1.11513 2.1627 1.21386 2.09095 1.37007 2.13827C1.45179 2.1629 1.53409 2.25557 1.57359 2.33905C1.72412 2.65498 1.86098 2.97874 1.99783 3.30171C2.04553 3.41647 2.08072 3.5371 2.12198 3.65499ZM1.32217 3.06848L1.29577 3.07356L1.08639 3.53143C1.07153 3.56388 1.05022 3.59517 1.04416 3.62918C1.03634 3.67239 1.02793 3.72244 1.0424 3.76095C1.10907 3.93808 1.3466 3.99341 1.48756 3.86946C1.573 3.79419 1.59763 3.6935 1.55208 3.58813C1.47642 3.41413 1.399 3.2413 1.32217 3.06789V3.06848Z" fill="#2D3E50"/>
</svg>
