<svg width="24" height="24" viewBox="0 0 24 24" fill="none" xmlns="http://www.w3.org/2000/svg">
<path d="M17.5418 5.91563C17.5559 6.02825 17.5719 6.13069 17.5809 6.23392C17.6012 6.46383 17.4636 6.66794 17.2172 6.78133C16.4184 7.14497 15.6207 7.51173 14.82 7.87068C14.6995 7.92464 14.6604 7.99346 14.6604 8.1221C14.6604 8.64019 14.6561 8.64019 15.1633 8.64019C16.8642 8.64019 18.565 8.63549 20.2655 8.64019C21.2771 8.6441 22.0505 9.09337 22.5952 9.9399C22.8531 10.3432 22.9889 10.8125 22.9862 11.2912C22.994 12.8683 22.994 14.4454 22.9862 16.0224C22.9803 16.6804 22.7319 17.3132 22.2887 17.7995C21.8455 18.2859 21.2385 18.5918 20.5838 18.6586C19.2055 18.7955 17.9621 17.9118 17.6692 16.5757C17.6286 16.3716 17.6096 16.1637 17.6125 15.9556C17.6075 14.6785 17.6102 13.4011 17.6098 12.1237C17.6098 11.4492 17.2442 11.0836 16.5721 11.0828C16.305 11.0828 16.0376 11.0828 15.7705 11.0828C15.7091 11.0828 15.6481 11.091 15.5867 11.0957L15.5496 11.1552C15.6042 11.1862 15.6565 11.2213 15.706 11.2599C16.2722 11.7683 16.6385 12.3872 16.784 13.1368C16.8098 13.225 16.8662 13.3011 16.9431 13.3515C17.1128 13.4668 17.2098 13.6064 17.2094 13.8179C17.2079 16.6853 17.2071 19.5527 17.2071 22.4201C17.2071 22.7834 16.983 23 16.6178 23C13.5359 23 10.4538 23 7.37163 23C6.99782 23 6.77612 22.7814 6.77612 22.4061C6.77456 19.5522 6.77352 16.6978 6.77299 13.843C6.76894 13.7487 6.78923 13.655 6.83189 13.5708C6.87455 13.4866 6.93816 13.4149 7.01659 13.3624C7.0855 13.3097 7.13445 13.2351 7.1554 13.1509C7.40369 11.9739 8.08718 11.154 9.17887 10.6676C9.28484 10.6206 9.32316 10.5628 9.32198 10.449C9.31651 10.0322 9.31495 9.61497 9.32198 9.19777C9.32433 9.07812 9.37164 8.95964 9.38454 8.8396C9.39211 8.78155 9.37821 8.72272 9.34544 8.6742C9.23401 8.54713 9.11084 8.43178 8.98923 8.31213C7.43667 6.75956 5.88462 5.20608 4.3331 3.65169C4.28584 3.59925 4.22748 3.55801 4.16228 3.53095C4.09708 3.5039 4.02667 3.49172 3.95616 3.49529C3.5327 3.50389 3.10924 3.50076 2.68538 3.49529C2.28069 3.49255 2.08362 3.29548 2.08206 2.89626C2.08206 2.45325 2.07932 2.01024 2.08206 1.56683C2.08479 1.23135 2.30767 1.00534 2.64667 1.00339C3.44824 0.999477 4.24981 0.998304 5.05138 1.00339C5.1555 1.00258 5.25869 1.02296 5.35468 1.06329C5.45067 1.10362 5.53745 1.16306 5.60974 1.23799C7.76603 3.40079 9.9214 5.56099 12.0759 7.71858C12.2041 7.84761 12.2976 7.86051 12.4606 7.78544C13.9076 7.12125 15.3588 6.46422 16.8141 5.81436C16.9416 5.75767 17.1156 5.79012 17.2653 5.80654C17.3576 5.81671 17.4464 5.87536 17.5418 5.91563ZM16.156 21.9294C16.16 21.8555 16.1654 21.7976 16.1654 21.7402C16.1654 19.3429 16.1631 16.9452 16.1705 14.5479C16.1705 14.3442 16.0817 14.3313 15.9246 14.3313C13.3056 14.3342 10.6867 14.3335 8.06802 14.3294C7.87251 14.3294 7.81464 14.3763 7.81542 14.5792C7.82285 16.9503 7.82012 19.3218 7.82012 21.6929C7.82012 21.9439 7.82012 21.9454 8.08014 21.9454C10.6869 21.9454 13.2927 21.9454 15.8976 21.9454C15.9797 21.9451 16.0626 21.9353 16.156 21.9294ZM21.9168 13.6471H21.9324C21.9324 12.8721 21.9379 12.0967 21.9324 11.3213C21.9242 10.3829 21.2286 9.65251 20.3054 9.64586C18.4876 9.63257 16.669 9.64352 14.852 9.63882C14.6866 9.63882 14.6636 9.71272 14.6616 9.85271C14.6596 9.99269 14.707 10.0435 14.8524 10.042C15.4389 10.0349 16.0254 10.0615 16.612 10.0345C17.7252 9.98252 18.6804 10.9772 18.6601 12.0877C18.6362 13.3515 18.653 14.6156 18.6562 15.8805C18.6557 16.0301 18.6687 16.1794 18.6953 16.3266C18.8356 17.0805 19.5762 17.6561 20.352 17.6221C21.1488 17.5869 21.8769 16.9401 21.9101 16.1687C21.943 15.3284 21.9168 14.4869 21.9168 13.6471ZM15.7361 13.274C15.713 13.1841 15.697 13.109 15.6747 13.0363C15.376 12.1049 14.4536 11.4351 13.4506 11.4304C12.4935 11.4257 11.5347 11.4242 10.5791 11.4304C9.73919 11.4359 9.07408 11.7948 8.58493 12.4709C8.40737 12.7054 8.29391 12.982 8.2557 13.2736L15.7361 13.274ZM10.1345 7.30098C10.1118 7.274 10.0899 7.24194 10.0626 7.21457C8.37809 5.52932 6.69232 3.84511 5.00524 2.16195C4.94665 2.10386 4.86962 2.06804 4.78745 2.06068C4.28618 2.05207 3.78451 2.06068 3.28324 2.05403C3.1065 2.05168 3.1327 2.16429 3.12683 2.27534C3.11823 2.40711 3.15929 2.46146 3.30122 2.45755C3.6199 2.44856 3.93974 2.4685 4.25802 2.45051C4.52821 2.43565 4.72723 2.53262 4.91453 2.72109C6.48951 4.30416 8.06802 5.88409 9.65004 7.4609C9.70361 7.51408 9.7603 7.56452 9.82248 7.62278L10.1345 7.30098ZM12.0113 9.64117H10.8602C10.3316 9.64117 10.3398 9.64117 10.3363 10.1639C10.3363 10.3512 10.4059 10.39 10.5763 10.3884C11.4283 10.3813 12.2807 10.3853 13.1328 10.3853C13.6497 10.3853 13.6434 10.3853 13.6465 9.87265C13.6465 9.69943 13.6012 9.63257 13.4166 9.63804C12.9498 9.64899 12.4806 9.64117 12.0113 9.64117ZM10.5935 8.3872C10.8098 8.71761 11.1073 8.55768 11.4037 8.59248L10.8903 8.08417L10.5935 8.3872Z" fill="#2D3E50"/>
<path d="M4.24395 7.30998C4.23652 8.18076 3.56242 8.8662 2.63847 8.91312C1.73915 8.95769 0.969641 8.21829 1.00092 7.3264C1.008 7.13791 1.04975 6.95234 1.12409 6.77899C1.4369 6.05797 1.76847 5.34438 2.09301 4.62844C2.23025 4.32541 2.42771 4.18191 2.74013 4.27653C2.90357 4.3258 3.06819 4.51114 3.14717 4.6781C3.44825 5.30997 3.72195 5.95748 3.99566 6.60343C4.09107 6.83295 4.16145 7.0742 4.24395 7.30998ZM2.64433 6.13695L2.59155 6.14712L2.17278 7.06286C2.14306 7.12777 2.10044 7.19033 2.08832 7.25837C2.07268 7.34478 2.05586 7.44488 2.0848 7.52191C2.21813 7.87616 2.69321 7.98682 2.97513 7.73892C3.146 7.58838 3.19526 7.38701 3.10416 7.17625C2.95284 6.82826 2.798 6.4826 2.64433 6.13578V6.13695Z" fill="#2D3E50"/>
</svg>
