<svg width="12" height="12" viewBox="0 0 12 12" fill="none" xmlns="http://www.w3.org/2000/svg">
<path d="M1.05113 1.38182V0.654545C1.05113 0.609091 1.06974 0.581818 1.09764 0.545455C1.12555 0.518182 1.16276 0.5 1.19997 0.5H2.47439L2.58601 0.536364L6.08369 4.02727H6.1209L8.5302 2.93636C8.5395 2.92727 8.54881 2.92727 8.55811 2.92727H8.59532C8.62322 2.92727 8.64183 2.93636 8.66043 2.94545C8.67904 2.95455 8.69764 2.97273 8.70694 2.99091H8.71625C8.71625 3 8.71625 3.00909 8.72555 3.01818C8.72555 3.02727 8.73485 3.04545 8.73485 3.04545C8.73485 3.08182 8.72555 3.10909 8.70694 3.13636C8.68834 3.16364 8.66974 3.18182 8.64183 3.19091L7.23718 3.82727V4.4H10.2418C10.586 4.4 10.8744 4.51818 11.1162 4.75455C11.3581 4.99091 11.4883 5.28182 11.4883 5.62727V8.01818C11.4883 8.37273 11.3674 8.66364 11.1255 8.90909C10.8837 9.15454 10.586 9.27273 10.2325 9.27273C9.88834 9.27273 9.59997 9.15454 9.35811 8.90909C9.11625 8.66364 8.99532 8.37273 8.99532 8.01818V6.00909C8.99532 5.84545 8.9395 5.7 8.81857 5.58182C8.69764 5.46364 8.55811 5.40909 8.39067 5.40909H7.3116L7.47904 5.5C7.7209 5.62727 7.91625 5.8 8.07439 6.01818C8.23253 6.23636 8.31625 6.48182 8.34415 6.75454V6.76364V6.8H8.38136H8.39067H8.39997C8.43718 6.8 8.46508 6.80909 8.49299 6.83636C8.5209 6.86364 8.5395 6.89091 8.5395 6.92727V11.3636C8.5395 11.4091 8.5209 11.4364 8.49299 11.4727C8.46508 11.5 8.42788 11.5182 8.39997 11.5182H3.59067C3.55346 11.5182 3.52555 11.5 3.49764 11.4727C3.46974 11.4455 3.45113 11.4091 3.45113 11.3636V6.92727C3.45113 6.89091 3.46974 6.86364 3.49764 6.83636C3.52555 6.80909 3.56276 6.8 3.59067 6.8H3.62788V6.76364C3.66508 6.44545 3.77671 6.16364 3.97206 5.92727C4.16741 5.68182 4.40927 5.51818 4.70694 5.40909H4.71625H4.75346V4.53636C4.75346 4.5 4.76276 4.47273 4.78136 4.45455C4.79997 4.43636 4.81857 4.41818 4.84648 4.4H4.9209L2.05578 1.52727H1.19997C1.16276 1.52727 1.12555 1.51818 1.09764 1.49091C1.07904 1.46364 1.06043 1.42727 1.05113 1.38182ZM5.45113 3.8L5.08834 4.15455L5.3302 4.39091H6.04648L5.45113 3.8ZM6.97671 3.95455L6.28834 4.26364L6.42788 4.39091H6.97671V3.95455ZM6.97671 4.67273H5.02322V5.30909H6.97671V4.67273ZM8.40927 5.13636C8.64183 5.13636 8.84648 5.21818 9.01392 5.39091C9.18136 5.56364 9.27439 5.77273 9.28369 6.00909V8.03636C9.28369 8.3 9.37671 8.53636 9.56276 8.72727C9.74881 8.91818 9.98136 9.01818 10.2418 9.01818C10.5023 9.01818 10.7349 8.91818 10.9302 8.72727C11.1255 8.53636 11.2186 8.30909 11.2186 8.03636V5.64545C11.2186 5.38182 11.1255 5.14545 10.9302 4.95455C10.7349 4.76364 10.5116 4.66364 10.2418 4.66364H7.23718V5.12727H8.40927V5.13636ZM3.7302 11.2364H8.26974V7.07273H3.7302V11.2364ZM3.93485 6.74545V6.8H8.06508V6.74545C8.02787 6.40909 7.87904 6.13636 7.62788 5.91818C7.37671 5.7 7.08834 5.59091 6.75346 5.58182H5.24648C4.9116 5.59091 4.62322 5.7 4.37206 5.91818C4.1209 6.13636 3.97206 6.40909 3.93485 6.73636V6.74545ZM1.3302 1.24545H2.1209C2.14881 1.24545 2.16741 1.24545 2.18602 1.25455C2.20462 1.26364 2.22322 1.27273 2.23253 1.29091L4.89299 3.94545L5.25578 3.59091L2.43718 0.772727H1.3302V1.24545ZM0.558108 3.36364L1.06043 2.24545C1.06974 2.22727 1.07904 2.21818 1.08834 2.2C1.09764 2.19091 1.11625 2.17273 1.13485 2.17273H1.24648L1.3209 2.24545L1.81392 3.36364C1.84183 3.40909 1.85113 3.44545 1.86043 3.49091C1.86974 3.53636 1.86974 3.58182 1.86974 3.63636C1.86974 3.72727 1.85113 3.81818 1.81392 3.89091C1.77671 3.97273 1.7302 4.03636 1.67439 4.1C1.60927 4.15455 1.53485 4.2 1.45113 4.23636C1.36741 4.27273 1.28369 4.29091 1.19067 4.29091C1.09764 4.29091 1.01392 4.27273 0.930201 4.23636C0.84648 4.2 0.772062 4.15455 0.706945 4.1C0.651132 4.04545 0.60462 3.97273 0.567411 3.89091C0.530201 3.80909 0.511597 3.71818 0.511597 3.61818C0.511597 3.57273 0.511597 3.53636 0.520899 3.49091C0.520899 3.45455 0.539504 3.40909 0.558108 3.36364ZM0.902294 3.9C0.939504 3.93636 0.986015 3.96364 1.04183 3.99091C1.09764 4.01818 1.14415 4.02727 1.20927 4.02727C1.26508 4.02727 1.3209 4.01818 1.37671 3.99091C1.43253 3.96364 1.46974 3.93636 1.49764 3.9C1.53485 3.86364 1.56276 3.82727 1.58136 3.78182C1.59997 3.73636 1.60927 3.68182 1.60927 3.62727C1.60927 3.6 1.60927 3.58182 1.59997 3.55455C1.59997 3.53636 1.59067 3.50909 1.58136 3.48182V3.49091L1.20927 2.63636L0.818573 3.49091C0.809271 3.50909 0.799969 3.52727 0.790666 3.55455C0.781364 3.58182 0.781364 3.60909 0.781364 3.64545C0.781364 3.7 0.790666 3.74545 0.818573 3.78182C0.837178 3.83636 0.865085 3.87273 0.902294 3.9Z" fill="#2D3E50"/>
<mask id="mask0" mask-type="alpha" maskUnits="userSpaceOnUse" x="0" y="0" width="12" height="12">
<path d="M11.7558 0.509094H0.5V11.6909H11.7558V0.509094Z" fill="white"/>
<path d="M1.21629 1.47271V0.745442C1.21629 0.699987 1.2349 0.672715 1.2628 0.636351C1.29071 0.609078 1.32792 0.590897 1.36513 0.590897H2.63955L2.75118 0.62726L6.24885 4.11817H6.28606L8.69536 3.02726C8.70466 3.01817 8.71397 3.01817 8.72327 3.01817H8.76048C8.78839 3.01817 8.80699 3.02726 8.82559 3.03635C8.8442 3.04544 8.8628 3.06362 8.87211 3.08181H8.88141C8.88141 3.0909 8.88141 3.09999 8.89071 3.10908C8.89071 3.11817 8.90001 3.13635 8.90001 3.13635C8.90001 3.17271 8.89071 3.19999 8.87211 3.22726C8.8535 3.25453 8.8349 3.27271 8.80699 3.28181L7.40234 3.91817V4.4909H10.407C10.7512 4.4909 11.0395 4.60908 11.2814 4.84544C11.5233 5.08181 11.6535 5.37271 11.6535 5.71817V8.10908C11.6535 8.46362 11.5326 8.75453 11.2907 8.99999C11.0489 9.24544 10.7512 9.36362 10.3977 9.36362C10.0535 9.36362 9.76513 9.24544 9.52327 8.99999C9.28141 8.75453 9.16048 8.46362 9.16048 8.10908V6.09999C9.16048 5.93635 9.10466 5.7909 8.98373 5.67271C8.8628 5.55453 8.72327 5.49999 8.55583 5.49999H7.47676L7.6442 5.5909C7.88606 5.71817 8.08141 5.8909 8.23955 6.10908C8.39769 6.32726 8.48141 6.57271 8.50932 6.84544V6.85453V6.8909H8.54652H8.55583H8.56513C8.60234 6.8909 8.63025 6.89999 8.65815 6.92726C8.68606 6.95453 8.70466 6.9818 8.70466 7.01817V11.4545C8.70466 11.5 8.68606 11.5273 8.65815 11.5636C8.63025 11.5909 8.59304 11.6091 8.56513 11.6091H3.75583C3.71862 11.6091 3.69071 11.5909 3.6628 11.5636C3.6349 11.5364 3.61629 11.5 3.61629 11.4545V7.01817C3.61629 6.9818 3.6349 6.95453 3.6628 6.92726C3.69071 6.89999 3.72792 6.8909 3.75583 6.8909H3.79304V6.85453C3.83025 6.53635 3.94187 6.25453 4.13722 6.01817C4.33257 5.77271 4.57443 5.60908 4.87211 5.49999H4.88141H4.91862V4.62726C4.91862 4.5909 4.92792 4.56362 4.94653 4.54544C4.96513 4.52726 4.98373 4.50908 5.01164 4.4909H5.08606L2.22094 1.61817H1.36513C1.32792 1.61817 1.29071 1.60908 1.2628 1.58181C1.2442 1.55453 1.22559 1.51817 1.21629 1.47271ZM5.61629 3.8909L5.2535 4.24544L5.49536 4.48181H6.21164L5.61629 3.8909ZM7.14187 4.04544L6.4535 4.35453L6.59304 4.48181H7.14187V4.04544ZM7.14187 4.76362H5.18839V5.39999H7.14187V4.76362ZM8.57443 5.22726C8.80699 5.22726 9.01164 5.30908 9.17908 5.48181C9.34652 5.65453 9.43955 5.86362 9.44885 6.09999V8.12726C9.44885 8.3909 9.54187 8.62726 9.72792 8.81817C9.91397 9.00908 10.1465 9.10908 10.407 9.10908C10.6675 9.10908 10.9 9.00908 11.0954 8.81817C11.2907 8.62726 11.3837 8.39999 11.3837 8.12726V5.73635C11.3837 5.47271 11.2907 5.23635 11.0954 5.04544C10.9 4.85453 10.6768 4.75453 10.407 4.75453H7.40234V5.21817H8.57443V5.22726ZM3.89536 11.3273H8.4349V7.16362H3.89536V11.3273ZM4.10001 6.83635V6.8909H8.23025V6.83635C8.19304 6.49999 8.0442 6.22726 7.79304 6.00908C7.54187 5.7909 7.2535 5.68181 6.91862 5.67271H5.41164C5.07676 5.68181 4.78839 5.7909 4.53722 6.00908C4.28606 6.22726 4.13722 6.49999 4.10001 6.82726V6.83635ZM1.49536 1.33635H2.28606C2.31397 1.33635 2.33257 1.33635 2.35118 1.34544C2.36978 1.35453 2.38839 1.36362 2.39769 1.38181L5.05815 4.03635L5.42094 3.68181L2.60234 0.863624H1.49536V1.33635ZM0.723269 3.45453L1.22559 2.33635C1.2349 2.31817 1.2442 2.30908 1.2535 2.2909C1.2628 2.28181 1.28141 2.26362 1.30001 2.26362H1.41164L1.48606 2.33635L1.97908 3.45453C2.00699 3.49999 2.01629 3.53635 2.02559 3.58181C2.0349 3.62726 2.0349 3.67271 2.0349 3.72726C2.0349 3.81817 2.01629 3.90908 1.97908 3.98181C1.94187 4.06362 1.89536 4.12726 1.83955 4.1909C1.77443 4.24544 1.70001 4.2909 1.61629 4.32726C1.53257 4.36362 1.44885 4.38181 1.35583 4.38181C1.2628 4.38181 1.17908 4.36362 1.09536 4.32726C1.01164 4.2909 0.937223 4.24544 0.872107 4.1909C0.816293 4.13635 0.769781 4.06362 0.732572 3.98181C0.695362 3.89999 0.676758 3.80908 0.676758 3.70908C0.676758 3.66362 0.676758 3.62726 0.68606 3.58181C0.68606 3.54544 0.704665 3.49999 0.723269 3.45453ZM1.06746 3.9909C1.10466 4.02726 1.15118 4.05453 1.20699 4.08181C1.2628 4.10908 1.30932 4.11817 1.37443 4.11817C1.43025 4.11817 1.48606 4.10908 1.54187 4.08181C1.59769 4.05453 1.6349 4.02726 1.6628 3.9909C1.70001 3.95453 1.72792 3.91817 1.74653 3.87271C1.76513 3.82726 1.77443 3.77271 1.77443 3.71817C1.77443 3.6909 1.77443 3.67271 1.76513 3.64544C1.76513 3.62726 1.75583 3.59999 1.74653 3.57271V3.58181L1.37443 2.72726L0.983735 3.58181C0.974432 3.59999 0.96513 3.61817 0.955828 3.64544C0.946525 3.67271 0.946525 3.69999 0.946525 3.73635C0.946525 3.7909 0.955828 3.83635 0.983735 3.87271C1.00234 3.92726 1.03025 3.96362 1.06746 3.9909Z" fill="black"/>
</mask>
<g mask="url(#mask0)">
<path d="M8.4093 11.6H3.5907C3.55349 11.6 3.48837 11.5909 3.43256 11.5273C3.38605 11.4818 3.35814 11.4182 3.35814 11.3546V6.92729C3.35814 6.86365 3.38605 6.80911 3.43256 6.77274C3.46046 6.74547 3.49767 6.72729 3.53488 6.7182C3.57209 6.40002 3.69302 6.1182 3.89767 5.87274C4.10232 5.6182 4.35349 5.43638 4.66046 5.33638V4.54547C4.66046 4.49092 4.67907 4.44547 4.70698 4.40911C4.71628 4.39092 4.73488 4.38183 4.74419 4.36365L2.0186 1.6182H1.2093C1.14419 1.6182 1.08837 1.60002 1.04186 1.55456C1.00465 1.5182 0.976744 1.46365 0.967441 1.40911V1.39092V0.663652C0.967441 0.600016 0.995348 0.536379 1.04186 0.490925C1.08837 0.44547 1.14419 0.418198 1.2186 0.418198H2.51163L2.64186 0.463652L2.66046 0.481834L6.12093 3.94547L8.48372 2.87274C8.51163 2.85456 8.53953 2.84547 8.55814 2.84547H8.59535C8.64186 2.84547 8.67907 2.85456 8.71628 2.88183C8.73488 2.89092 8.74419 2.90002 8.75349 2.90911H8.8093V3.00002C8.8186 3.02729 8.8186 3.04547 8.8186 3.06365C8.8186 3.1182 8.8093 3.16365 8.78139 3.20002C8.75349 3.23638 8.71628 3.27274 8.67907 3.28183L7.33023 3.89092V4.3182H10.2419C10.6047 4.3182 10.9302 4.44547 11.1814 4.70002C11.4419 4.95456 11.5721 5.26365 11.5814 5.63638V8.02729C11.5814 8.40001 11.4512 8.7182 11.1907 8.98183C10.9302 9.24547 10.614 9.37274 10.2326 9.37274C9.86977 9.37274 9.54419 9.24547 9.29302 8.98183C9.03256 8.72729 8.90232 8.40001 8.90232 8.02729V6.00911C8.90232 5.86365 8.85581 5.74547 8.75349 5.64547C8.65116 5.54547 8.53953 5.50002 8.3907 5.50002H7.65581C7.84186 5.6182 8.0093 5.78183 8.13953 5.96365C8.29767 6.19092 8.3907 6.43638 8.4186 6.70911C8.46512 6.7182 8.51163 6.73638 8.54884 6.76365C8.59535 6.80911 8.62325 6.86365 8.62325 6.9182V11.3546C8.62325 11.4182 8.59535 11.4818 8.54884 11.5273C8.51163 11.5909 8.44651 11.6 8.4093 11.6ZM3.5907 6.89092C3.5907 6.89092 3.57209 6.89092 3.55349 6.90911C3.54419 6.9182 3.54419 6.92729 3.54419 6.92729V11.3637C3.54419 11.3818 3.55349 11.3909 3.56279 11.4091C3.57209 11.4182 3.58139 11.4273 3.5907 11.4273H8.4C8.4093 11.4273 8.4186 11.4182 8.42791 11.4091C8.43721 11.4 8.44651 11.3818 8.44651 11.3637V6.92729C8.44651 6.92729 8.44651 6.9182 8.43721 6.90911C8.4186 6.89092 8.4093 6.89092 8.4 6.89092H8.24186V6.74547C8.22326 6.50002 8.13023 6.27274 7.9907 6.06365C7.84186 5.85456 7.65581 5.69092 7.43256 5.57274L7.26512 5.48183L7.31163 5.30911H8.4C8.59535 5.30911 8.75349 5.38183 8.89302 5.50911C9.02326 5.64547 9.09767 5.80911 9.09767 6.00002V8.02729C9.09767 8.35456 9.2093 8.62729 9.43256 8.85456C9.65581 9.08183 9.92558 9.19092 10.2419 9.19092C10.5674 9.19092 10.8372 9.08183 11.0605 8.85456C11.2837 8.62729 11.3953 8.35456 11.3953 8.02729V5.64547C11.386 5.32729 11.2744 5.06365 11.0512 4.83638C10.8279 4.6182 10.5581 4.50911 10.2419 4.50911H7.14419V3.78183L8.61395 3.1182C8.61395 3.1182 8.62326 3.1182 8.63256 3.10002C8.63256 3.09092 8.64186 3.08183 8.64186 3.07274L8.62325 3.04547C8.62325 3.04547 8.62325 3.04547 8.61395 3.03638C8.60465 3.03638 8.60465 3.02729 8.59535 3.02729H8.56744L6.14884 4.13638H6.05581L2.53953 0.627289L2.46512 0.600016H1.2C1.18139 0.600016 1.17209 0.609107 1.16279 0.618198C1.15349 0.627289 1.14419 0.64547 1.14419 0.663652V1.37274C1.15349 1.39092 1.15349 1.40911 1.17209 1.4182C1.17209 1.4182 1.18139 1.42729 1.2093 1.42729H2.10233L5.15349 4.48183H4.89302C4.88372 4.49092 4.87442 4.50002 4.87442 4.50002C4.87442 4.50002 4.86512 4.50911 4.86512 4.52729V5.49092H4.73488C4.46512 5.58183 4.24186 5.74547 4.05581 5.97274C3.86977 6.20002 3.76744 6.46365 3.73023 6.76365V6.89092H3.5907ZM8.36279 11.3273H3.63721V6.98183H8.36279V11.3273ZM3.82326 11.1455H8.17674V7.16365H3.82326V11.1455ZM10.2512 9.10911C9.96279 9.10911 9.70232 9.00002 9.49767 8.79092C9.29302 8.58183 9.1907 8.32729 9.1907 8.03638V6.00911C9.18139 5.79092 9.10698 5.60911 8.94884 5.45456C8.7907 5.30002 8.61395 5.22729 8.4093 5.22729H7.14419V4.58183H10.2419C10.5302 4.58183 10.7907 4.69092 10.9953 4.90002C11.2 5.10911 11.3116 5.36365 11.3116 5.65456V8.04547C11.3116 8.33638 11.2093 8.59092 10.9953 8.80002C10.7907 9.00002 10.5395 9.10911 10.2512 9.10911ZM7.33023 5.04547H8.4C8.66046 5.04547 8.88372 5.14547 9.06977 5.32729C9.25581 5.5182 9.35814 5.74547 9.36744 6.00911V8.04547C9.36744 8.29092 9.45116 8.50002 9.62791 8.67274C9.79535 8.84547 10 8.93638 10.2419 8.93638C10.4837 8.93638 10.6884 8.85456 10.8651 8.67274C11.0419 8.50002 11.1256 8.29092 11.1256 8.04547V5.64547C11.1256 5.40002 11.0419 5.20002 10.8651 5.0182C10.6884 4.84547 10.4837 4.75456 10.2419 4.75456H7.33023V5.04547ZM8.15814 6.89092H3.84186V6.72729C3.88837 6.38183 4.04651 6.09092 4.30698 5.85456C4.57674 5.62729 4.88372 5.50002 5.24651 5.49092H6.75349C7.10698 5.50002 7.42325 5.6182 7.69302 5.85456C7.96279 6.08183 8.12093 6.38183 8.15814 6.73638V6.74547V6.89092ZM4.02791 6.70911H7.96279C7.91628 6.4182 7.78605 6.18183 7.56279 5.99092C7.33023 5.79093 7.06046 5.68183 6.74419 5.67274H5.24651C4.93953 5.68183 4.66046 5.79093 4.42791 5.99092C4.20465 6.18183 4.07442 6.4182 4.02791 6.70911ZM7.06977 5.40002H4.93023V4.58183H7.06977V5.40002ZM5.11628 5.2182H6.88372V4.76365H5.11628V5.2182ZM7.06977 4.48183H6.3907L6.12093 4.23638L7.06977 3.80911V4.48183ZM6.46512 4.30002H6.88372V4.10002L6.45581 4.30002H6.46512ZM6.26046 4.48183H5.28372L4.95814 4.15456L5.45116 3.67274L6.26046 4.48183ZM5.35814 4.30002H5.81395L5.44186 3.92729L5.2093 4.15456L5.35814 4.30002ZM1.1907 4.38183C1.08837 4.38183 0.986046 4.36365 0.893023 4.32729C0.799999 4.29092 0.716278 4.23638 0.64186 4.17274C0.567441 4.10002 0.52093 4.02729 0.474418 3.93638C0.427906 3.84547 0.409302 3.74547 0.409302 3.62729C0.409302 3.58183 0.418604 3.52729 0.427906 3.48183C0.437209 3.42729 0.455813 3.37274 0.48372 3.32729L0.986046 2.2182C1.00465 2.19092 1.01395 2.16365 1.03256 2.14547C1.05116 2.12729 1.07907 2.10911 1.09767 2.10002L1.11628 2.09092H1.29302L1.40465 2.20911L1.89767 3.33638C1.92558 3.38183 1.94419 3.43638 1.95349 3.49092C1.96279 3.54547 1.97209 3.60002 1.97209 3.65456C1.97209 3.76365 1.95349 3.85456 1.90698 3.94547C1.86046 4.03638 1.81395 4.10911 1.74884 4.18183C1.67442 4.25456 1.58139 4.30002 1.48837 4.33638C1.39535 4.36365 1.29302 4.38183 1.1907 4.38183ZM1.16279 2.26365C1.16279 2.26365 1.16279 2.27274 1.16279 2.26365C1.15349 2.27274 1.14419 2.28183 1.14419 2.29092L0.64186 3.40911C0.623255 3.44547 0.613953 3.47274 0.604651 3.50911C0.595348 3.54547 0.595348 3.59092 0.595348 3.62729C0.595348 3.7182 0.613953 3.79092 0.64186 3.85456C0.679069 3.92729 0.716278 3.98183 0.772092 4.03638C0.827906 4.08183 0.893023 4.12729 0.967441 4.15456C1.10698 4.20911 1.28372 4.20911 1.42326 4.15456C1.49767 4.12729 1.56279 4.08183 1.6186 4.03638C1.66512 3.99092 1.71163 3.92729 1.73953 3.86365C1.76744 3.80002 1.78605 3.72729 1.78605 3.64547C1.78605 3.60002 1.78605 3.55456 1.77674 3.5182C1.76744 3.48183 1.75814 3.44547 1.73953 3.4182L1.73023 3.40911L1.24651 2.30911L1.2093 2.26365H1.16279ZM1.2 4.1182C1.12558 4.1182 1.06046 4.10002 0.995348 4.07274C0.939534 4.04547 0.88372 4.00911 0.837209 3.97274V3.96365C0.799999 3.92729 0.76279 3.88183 0.734883 3.83638C0.697674 3.78183 0.688372 3.7182 0.688372 3.65456C0.688372 3.60911 0.697674 3.57274 0.706976 3.53638C0.716278 3.50911 0.725581 3.48183 0.734883 3.46365L1.2093 2.42729L1.66512 3.46365H1.67442C1.68372 3.49092 1.69302 3.5182 1.69302 3.54547C1.70233 3.57274 1.70232 3.60002 1.70232 3.62729C1.70232 3.70002 1.69302 3.76365 1.66512 3.8182C1.63721 3.87274 1.6093 3.92729 1.56279 3.96365C1.52558 4.00002 1.46977 4.03638 1.41395 4.07274C1.33953 4.10002 1.27442 4.1182 1.2 4.1182ZM0.967441 3.83638C1.00465 3.86365 1.04186 3.89092 1.08837 3.90911C1.16279 3.94547 1.25581 3.94547 1.33023 3.90911C1.36744 3.89092 1.40465 3.86365 1.43256 3.83638C1.46046 3.80911 1.47907 3.78183 1.49767 3.74547C1.51628 3.70911 1.52558 3.67274 1.52558 3.62729C1.52558 3.60911 1.52558 3.59092 1.52558 3.57274C1.52558 3.56365 1.51628 3.54547 1.51628 3.53638L1.22791 2.87274L0.930232 3.53638C0.92093 3.55456 0.911627 3.57274 0.911627 3.59092C0.902325 3.60911 0.902325 3.62729 0.902325 3.65456C0.902325 3.69092 0.911627 3.7182 0.930232 3.74547C0.911627 3.78183 0.939534 3.80911 0.967441 3.83638ZM4.88372 4.08183L2.15814 1.36365C2.14884 1.35456 2.13953 1.34547 2.13023 1.34547C2.13023 1.34547 2.12093 1.34547 2.11163 1.34547H1.22791V0.690925H2.46512L5.37674 3.60002L4.88372 4.08183ZM1.42326 1.15456H2.12093C2.15814 1.15456 2.19535 1.16365 2.22326 1.17274C2.25116 1.18183 2.26977 1.20002 2.29767 1.22729L4.88372 3.82729L5.11628 3.60002L2.3907 0.872743H1.42326V1.15456Z" fill="#2D3E50"/>
</g>
</svg>
