<svg width="24" height="24" viewBox="0 0 24 24" fill="none" xmlns="http://www.w3.org/2000/svg">
<path d="M2.10232 2.76364V1.30909C2.10232 1.21818 2.13953 1.16364 2.19535 1.09091C2.25116 1.03636 2.32558 1 2.4 1H4.94884L5.17209 1.07273L12.1674 8.05454H12.2419L17.0605 5.87273C17.0791 5.85455 17.0977 5.85455 17.1163 5.85455H17.1907C17.2465 5.85455 17.2837 5.87273 17.3209 5.89091C17.3581 5.90909 17.3953 5.94545 17.4139 5.98182H17.4326C17.4326 6 17.4326 6.01818 17.4512 6.03636C17.4512 6.05454 17.4698 6.09091 17.4698 6.09091C17.4698 6.16364 17.4512 6.21818 17.4139 6.27273C17.3767 6.32727 17.3395 6.36364 17.2837 6.38182L14.4744 7.65454V8.8H20.4837C21.1721 8.8 21.7488 9.03636 22.2326 9.50909C22.7163 9.98182 22.9767 10.5636 22.9767 11.2545V16.0364C22.9767 16.7455 22.7349 17.3273 22.2512 17.8182C21.7674 18.3091 21.1721 18.5455 20.4651 18.5455C19.7767 18.5455 19.2 18.3091 18.7163 17.8182C18.2326 17.3273 17.9907 16.7455 17.9907 16.0364V12.0182C17.9907 11.6909 17.8791 11.4 17.6372 11.1636C17.3953 10.9273 17.1163 10.8182 16.7814 10.8182H14.6233L14.9581 11C15.4419 11.2545 15.8326 11.6 16.1488 12.0364C16.4651 12.4727 16.6326 12.9636 16.6884 13.5091V13.5273V13.6H16.7628H16.7814H16.8C16.8744 13.6 16.9302 13.6182 16.986 13.6727C17.0419 13.7273 17.0791 13.7818 17.0791 13.8545V22.7273C17.0791 22.8182 17.0419 22.8727 16.986 22.9455C16.9302 23 16.8558 23.0364 16.8 23.0364H7.18139C7.10697 23.0364 7.05116 23 6.99535 22.9455C6.93953 22.8909 6.90232 22.8182 6.90232 22.7273V13.8545C6.90232 13.7818 6.93953 13.7273 6.99535 13.6727C7.05116 13.6182 7.12558 13.6 7.18139 13.6H7.25581V13.5273C7.33023 12.8909 7.55349 12.3273 7.94418 11.8545C8.33488 11.3636 8.8186 11.0364 9.41395 10.8182H9.43256H9.50697V9.07273C9.50697 9 9.52558 8.94545 9.56279 8.90909C9.6 8.87273 9.63721 8.83636 9.69302 8.8H9.84186L4.11163 3.05455H2.4C2.32558 3.05455 2.25116 3.03636 2.19535 2.98182C2.15814 2.92727 2.12093 2.85455 2.10232 2.76364ZM10.9023 7.6L10.1767 8.30909L10.6605 8.78182H12.093L10.9023 7.6ZM13.9535 7.90909L12.5767 8.52727L12.8558 8.78182H13.9535V7.90909ZM13.9535 9.34545H10.0465V10.6182H13.9535V9.34545ZM16.8186 10.2727C17.2837 10.2727 17.693 10.4364 18.0279 10.7818C18.3628 11.1273 18.5488 11.5455 18.5674 12.0182V16.0727C18.5674 16.6 18.7535 17.0727 19.1256 17.4545C19.4977 17.8364 19.9628 18.0364 20.4837 18.0364C21.0046 18.0364 21.4698 17.8364 21.8605 17.4545C22.2512 17.0727 22.4372 16.6182 22.4372 16.0727V11.2909C22.4372 10.7636 22.2512 10.2909 21.8605 9.90909C21.4698 9.52727 21.0233 9.32727 20.4837 9.32727H14.4744V10.2545H16.8186V10.2727ZM7.46046 22.4727H16.5395V14.1455H7.46046V22.4727ZM7.86977 13.4909V13.6H16.1302V13.4909C16.0558 12.8182 15.7581 12.2727 15.2558 11.8364C14.7535 11.4 14.1767 11.1818 13.507 11.1636H10.493C9.82325 11.1818 9.24651 11.4 8.74418 11.8364C8.24186 12.2727 7.94418 12.8182 7.86977 13.4727V13.4909ZM2.66046 2.49091H4.24186C4.29767 2.49091 4.33488 2.49091 4.37209 2.50909C4.4093 2.52727 4.44651 2.54545 4.46511 2.58182L9.78604 7.89091L10.5116 7.18182L4.87442 1.54545H2.66046V2.49091ZM1.11628 6.72727L2.12093 4.49091C2.13953 4.45455 2.15814 4.43636 2.17674 4.4C2.19535 4.38182 2.23256 4.34545 2.26977 4.34545H2.49302L2.64186 4.49091L3.62791 6.72727C3.68372 6.81818 3.70232 6.89091 3.72093 6.98182C3.73953 7.07273 3.73953 7.16364 3.73953 7.27273C3.73953 7.45455 3.70232 7.63636 3.62791 7.78182C3.55349 7.94545 3.46046 8.07273 3.34884 8.2C3.2186 8.30909 3.06977 8.4 2.90232 8.47273C2.73488 8.54545 2.56744 8.58182 2.38139 8.58182C2.19535 8.58182 2.02791 8.54545 1.86046 8.47273C1.69302 8.4 1.54418 8.30909 1.41395 8.2C1.30232 8.09091 1.2093 7.94545 1.13488 7.78182C1.06046 7.61818 1.02325 7.43636 1.02325 7.23636C1.02325 7.14545 1.02325 7.07273 1.04186 6.98182C1.04186 6.90909 1.07907 6.81818 1.11628 6.72727ZM1.80465 7.8C1.87907 7.87273 1.97209 7.92727 2.08372 7.98182C2.19535 8.03636 2.28837 8.05454 2.4186 8.05454C2.53023 8.05454 2.64186 8.03636 2.75349 7.98182C2.86511 7.92727 2.93953 7.87273 2.99535 7.8C3.06977 7.72727 3.12558 7.65454 3.16279 7.56364C3.2 7.47273 3.2186 7.36364 3.2186 7.25454C3.2186 7.2 3.2186 7.16364 3.2 7.10909C3.2 7.07273 3.18139 7.01818 3.16279 6.96364V6.98182L2.4186 5.27273L1.63721 6.98182C1.6186 7.01818 1.6 7.05454 1.58139 7.10909C1.56279 7.16364 1.56279 7.21818 1.56279 7.29091C1.56279 7.4 1.58139 7.49091 1.63721 7.56364C1.67442 7.67273 1.73023 7.74545 1.80465 7.8Z" fill="#2D3E50"/>
<mask id="mask0" mask-type="alpha" maskUnits="userSpaceOnUse" x="1" y="1" width="23" height="23">
<path d="M23.5116 1.0182H1V23.3818H23.5116V1.0182Z" fill="white"/>
<path d="M2.43252 2.94546V1.49091C2.43252 1.40001 2.46973 1.34546 2.52555 1.27273C2.58136 1.21819 2.65578 1.18182 2.7302 1.18182H5.27904L5.50229 1.25455L12.4976 8.23637H12.5721L17.3907 6.05455C17.4093 6.03637 17.4279 6.03637 17.4465 6.03637H17.5209C17.5767 6.03637 17.6139 6.05455 17.6511 6.07273C17.6883 6.09091 17.7255 6.12728 17.7442 6.16364H17.7628C17.7628 6.18182 17.7628 6.20001 17.7814 6.21819C17.7814 6.23637 17.8 6.27273 17.8 6.27273C17.8 6.34546 17.7814 6.40001 17.7442 6.45455C17.7069 6.5091 17.6697 6.54546 17.6139 6.56364L14.8046 7.83637V8.98182H20.8139C21.5023 8.98182 22.079 9.21819 22.5628 9.69091C23.0465 10.1636 23.3069 10.7455 23.3069 11.4364V16.2182C23.3069 16.9273 23.0651 17.5091 22.5814 18C22.0976 18.4909 21.5023 18.7273 20.7953 18.7273C20.1069 18.7273 19.5302 18.4909 19.0465 18C18.5628 17.5091 18.3209 16.9273 18.3209 16.2182V12.2C18.3209 11.8727 18.2093 11.5818 17.9674 11.3455C17.7255 11.1091 17.4465 11 17.1116 11H14.9535L15.2883 11.1818C15.7721 11.4364 16.1628 11.7818 16.479 12.2182C16.7953 12.6545 16.9628 13.1455 17.0186 13.6909V13.7091V13.7818H17.093H17.1116H17.1302C17.2046 13.7818 17.2604 13.8 17.3162 13.8545C17.3721 13.9091 17.4093 13.9636 17.4093 14.0364V22.9091C17.4093 23 17.3721 23.0546 17.3162 23.1273C17.2604 23.1818 17.186 23.2182 17.1302 23.2182H7.51159C7.43717 23.2182 7.38136 23.1818 7.32555 23.1273C7.26973 23.0727 7.23252 23 7.23252 22.9091V14.0364C7.23252 13.9636 7.26973 13.9091 7.32555 13.8545C7.38136 13.8 7.45578 13.7818 7.51159 13.7818H7.58601V13.7091C7.66043 13.0727 7.88369 12.5091 8.27438 12.0364C8.66508 11.5455 9.1488 11.2182 9.74415 11H9.76276H9.83717V9.25455C9.83717 9.18182 9.85578 9.12728 9.89299 9.09091C9.9302 9.05455 9.96741 9.01819 10.0232 8.98182H10.1721L4.44183 3.23637H2.7302C2.65578 3.23637 2.58136 3.21819 2.52555 3.16364C2.48834 3.1091 2.45113 3.03637 2.43252 2.94546ZM11.2325 7.78182L10.5069 8.49091L10.9907 8.96364H12.4232L11.2325 7.78182ZM14.2837 8.09091L12.9069 8.7091L13.186 8.96364H14.2837V8.09091ZM14.2837 9.52728H10.3767V10.8H14.2837V9.52728ZM17.1488 10.4546C17.6139 10.4546 18.0232 10.6182 18.3581 10.9636C18.693 11.3091 18.879 11.7273 18.8976 12.2V16.2546C18.8976 16.7818 19.0837 17.2546 19.4558 17.6364C19.8279 18.0182 20.293 18.2182 20.8139 18.2182C21.3348 18.2182 21.8 18.0182 22.1907 17.6364C22.5814 17.2546 22.7674 16.8 22.7674 16.2546V11.4727C22.7674 10.9455 22.5814 10.4727 22.1907 10.0909C21.8 9.7091 21.3535 9.5091 20.8139 9.5091H14.8046V10.4364H17.1488V10.4546ZM7.79066 22.6546H16.8697V14.3273H7.79066V22.6546ZM8.19997 13.6727V13.7818H16.4604V13.6727C16.386 13 16.0883 12.4545 15.586 12.0182C15.0837 11.5818 14.5069 11.3636 13.8372 11.3455H10.8232C10.1535 11.3636 9.57671 11.5818 9.07438 12.0182C8.57206 12.4545 8.27438 13 8.19997 13.6545V13.6727ZM2.99066 2.67273H4.57206C4.62787 2.67273 4.66508 2.67273 4.70229 2.69091C4.7395 2.7091 4.77671 2.72728 4.79531 2.76364L10.1162 8.07273L10.8418 7.36364L5.20462 1.72728H2.99066V2.67273ZM1.44648 6.9091L2.45113 4.67273C2.46973 4.63637 2.48834 4.61819 2.50694 4.58182C2.52555 4.56364 2.56276 4.52728 2.59997 4.52728H2.82322L2.97206 4.67273L3.95811 6.9091C4.01392 7.00001 4.03252 7.07273 4.05113 7.16364C4.06973 7.25455 4.06973 7.34546 4.06973 7.45455C4.06973 7.63637 4.03252 7.81819 3.95811 7.96364C3.88369 8.12728 3.79066 8.25455 3.67904 8.38182C3.5488 8.49091 3.39997 8.58182 3.23252 8.65455C3.06508 8.72728 2.89764 8.76364 2.71159 8.76364C2.52555 8.76364 2.35811 8.72728 2.19066 8.65455C2.02322 8.58182 1.87438 8.49091 1.74415 8.38182C1.63252 8.27273 1.5395 8.12728 1.46508 7.96364C1.39066 7.8 1.35345 7.61819 1.35345 7.41819C1.35345 7.32728 1.35345 7.25455 1.37206 7.16364C1.37206 7.09091 1.40927 7.00001 1.44648 6.9091ZM2.13485 7.98182C2.20927 8.05455 2.30229 8.1091 2.41392 8.16364C2.52555 8.21819 2.61857 8.23637 2.7488 8.23637C2.86043 8.23637 2.97206 8.21819 3.08369 8.16364C3.19531 8.1091 3.26973 8.05455 3.32555 7.98182C3.39997 7.9091 3.45578 7.83637 3.49299 7.74546C3.5302 7.65455 3.5488 7.54546 3.5488 7.43637C3.5488 7.38182 3.5488 7.34546 3.5302 7.29091C3.5302 7.25455 3.51159 7.20001 3.49299 7.14546V7.16364L2.7488 5.45455L1.96741 7.16364C1.9488 7.20001 1.9302 7.23637 1.91159 7.29091C1.89299 7.34546 1.89299 7.4 1.89299 7.47273C1.89299 7.58182 1.91159 7.67273 1.96741 7.74546C2.00462 7.85455 2.06043 7.92728 2.13485 7.98182Z" fill="black"/>
</mask>
<g mask="url(#mask0)">
<path d="M16.8186 23.2H7.18136C7.10694 23.2 6.97671 23.1818 6.86508 23.0546C6.77206 22.9637 6.71625 22.8364 6.71625 22.7091V13.8546C6.71625 13.7273 6.77206 13.6182 6.86508 13.5455C6.9209 13.4909 6.99532 13.4546 7.06974 13.4364C7.14415 12.8 7.38601 12.2364 7.79532 11.7455C8.20462 11.2364 8.70694 10.8728 9.3209 10.6728V9.09093C9.3209 8.98184 9.35811 8.89093 9.41392 8.81821C9.43253 8.78184 9.46974 8.76366 9.48834 8.7273L4.03718 3.23639H2.41857C2.28834 3.23639 2.17671 3.20002 2.08369 3.10911C2.00927 3.03639 1.95346 2.9273 1.93485 2.81821V2.78184V1.3273C1.93485 1.20002 1.99067 1.07275 2.08369 0.981842C2.17671 0.890933 2.28834 0.836388 2.43718 0.836388H5.02322L5.28369 0.927297L5.3209 0.96366L12.2418 7.89093L16.9674 5.74548C17.0232 5.70911 17.079 5.69093 17.1162 5.69093H17.1907C17.2837 5.69093 17.3581 5.70911 17.4325 5.76366C17.4697 5.78184 17.4883 5.80002 17.5069 5.81821H17.6186V6.00002C17.6372 6.05457 17.6372 6.09093 17.6372 6.1273C17.6372 6.23639 17.6186 6.3273 17.5628 6.40002C17.5069 6.47275 17.4325 6.54548 17.3581 6.56366L14.6604 7.78184V8.63639H20.4837C21.2093 8.63639 21.8604 8.89093 22.3628 9.40002C22.8837 9.90911 23.1442 10.5273 23.1628 11.2728V16.0546C23.1628 16.8 22.9023 17.4364 22.3814 17.9637C21.8604 18.4909 21.2279 18.7455 20.4651 18.7455C19.7395 18.7455 19.0883 18.4909 18.586 17.9637C18.0651 17.4546 17.8046 16.8 17.8046 16.0546V12.0182C17.8046 11.7273 17.7116 11.4909 17.5069 11.2909C17.3023 11.0909 17.079 11 16.7814 11H15.3116C15.6837 11.2364 16.0186 11.5637 16.279 11.9273C16.5953 12.3818 16.7814 12.8728 16.8372 13.4182C16.9302 13.4364 17.0232 13.4728 17.0976 13.5273C17.1907 13.6182 17.2465 13.7273 17.2465 13.8364V22.7091C17.2465 22.8364 17.1907 22.9637 17.0976 23.0546C17.0232 23.1818 16.893 23.2 16.8186 23.2ZM7.18136 13.7818C7.18136 13.7818 7.14415 13.7818 7.10695 13.8182C7.08834 13.8364 7.08834 13.8546 7.08834 13.8546V22.7273C7.08834 22.7637 7.10694 22.7818 7.12555 22.8182C7.14415 22.8364 7.16276 22.8546 7.18136 22.8546H16.8C16.8186 22.8546 16.8372 22.8364 16.8558 22.8182C16.8744 22.8 16.893 22.7637 16.893 22.7273V13.8546C16.893 13.8546 16.893 13.8364 16.8744 13.8182C16.8372 13.7818 16.8186 13.7818 16.8 13.7818H16.4837V13.4909C16.4465 13 16.2604 12.5455 15.9814 12.1273C15.6837 11.7091 15.3116 11.3818 14.8651 11.1455L14.5302 10.9637L14.6232 10.6182H16.8C17.1907 10.6182 17.5069 10.7637 17.786 11.0182C18.0465 11.2909 18.1953 11.6182 18.1953 12V16.0546C18.1953 16.7091 18.4186 17.2546 18.8651 17.7091C19.3116 18.1637 19.8511 18.3818 20.4837 18.3818C21.1349 18.3818 21.6744 18.1637 22.1209 17.7091C22.5674 17.2546 22.7907 16.7091 22.7907 16.0546V11.2909C22.7721 10.6546 22.5488 10.1273 22.1023 9.67275C21.6558 9.23639 21.1162 9.01821 20.4837 9.01821H14.2883V7.56366L17.2279 6.23639C17.2279 6.23639 17.2465 6.23639 17.2651 6.20002C17.2651 6.18184 17.2837 6.16366 17.2837 6.14548L17.2465 6.09093C17.2465 6.09093 17.2465 6.09093 17.2279 6.07275C17.2093 6.07275 17.2093 6.05457 17.1907 6.05457H17.1349L12.2976 8.27275H12.1116L5.07904 1.25457L4.9302 1.20002H2.39997C2.36276 1.20002 2.34415 1.21821 2.32555 1.23639C2.30695 1.25457 2.28834 1.29093 2.28834 1.3273V2.74548C2.30695 2.78184 2.30695 2.81821 2.34415 2.83639C2.34415 2.83639 2.36276 2.85457 2.41857 2.85457H4.20462L10.3069 8.96366H9.78601C9.76741 8.98184 9.74881 9.00002 9.74881 9.00002C9.74881 9.00002 9.7302 9.01821 9.7302 9.05457V10.9818H9.46974C8.9302 11.1637 8.48369 11.4909 8.1116 11.9455C7.7395 12.4 7.53485 12.9273 7.46043 13.5273V13.7818H7.18136ZM16.7255 22.6546H7.27439V13.9637H16.7255V22.6546ZM7.64648 22.2909H16.3535V14.3273H7.64648V22.2909ZM20.5023 18.2182C19.9255 18.2182 19.4046 18 18.9953 17.5818C18.586 17.1637 18.3814 16.6546 18.3814 16.0728V12.0182C18.3628 11.5818 18.2139 11.2182 17.8976 10.9091C17.5814 10.6 17.2279 10.4546 16.8186 10.4546H14.2883V9.16366H20.4837C21.0604 9.16366 21.5814 9.38184 21.9907 9.80002C22.4 10.2182 22.6232 10.7273 22.6232 11.3091V16.0909C22.6232 16.6728 22.4186 17.1818 21.9907 17.6C21.5814 18 21.079 18.2182 20.5023 18.2182ZM14.6604 10.0909H16.8C17.3209 10.0909 17.7674 10.2909 18.1395 10.6546C18.5116 11.0364 18.7162 11.4909 18.7349 12.0182V16.0909C18.7349 16.5818 18.9023 17 19.2558 17.3455C19.5907 17.6909 20 17.8727 20.4837 17.8727C20.9674 17.8727 21.3767 17.7091 21.7302 17.3455C22.0837 17 22.2511 16.5818 22.2511 16.0909V11.2909C22.2511 10.8 22.0837 10.4 21.7302 10.0364C21.3767 9.69093 20.9674 9.50911 20.4837 9.50911H14.6604V10.0909ZM16.3162 13.7818H7.68369V13.4546C7.77671 12.7637 8.09299 12.1818 8.61392 11.7091C9.15346 11.2546 9.76741 11 10.493 10.9818H13.5069C14.2139 11 14.8465 11.2364 15.386 11.7091C15.9255 12.1637 16.2418 12.7637 16.3162 13.4728V13.4909V13.7818ZM8.05578 13.4182H15.9255C15.8325 12.8364 15.5721 12.3637 15.1256 11.9818C14.6604 11.5818 14.1209 11.3637 13.4883 11.3455H10.493C9.87904 11.3637 9.3209 11.5818 8.85578 11.9818C8.40927 12.3637 8.14881 12.8364 8.05578 13.4182ZM14.1395 10.8H9.86043V9.16366H14.1395V10.8ZM10.2325 10.4364H13.7674V9.5273H10.2325V10.4364ZM14.1395 8.96366H12.7814L12.2418 8.47275L14.1395 7.61821V8.96366ZM12.9302 8.60002H13.7674V8.20002L12.9116 8.60002H12.9302ZM12.5209 8.96366H10.5674L9.91625 8.30911L10.9023 7.34548L12.5209 8.96366ZM10.7162 8.60002H11.6279L10.8837 7.85457L10.4186 8.30911L10.7162 8.60002ZM2.38136 8.76366C2.17671 8.76366 1.97206 8.7273 1.78601 8.65457C1.59997 8.58184 1.43253 8.47275 1.28369 8.34548C1.13485 8.20002 1.04183 8.05457 0.948806 7.87275C0.855782 7.69093 0.818573 7.49093 0.818573 7.25457C0.818573 7.16366 0.837178 7.05457 0.855782 6.96366C0.874387 6.85457 0.911596 6.74548 0.96741 6.65457L1.97206 4.43639C2.00927 4.38184 2.02788 4.3273 2.06508 4.29093C2.10229 4.25457 2.15811 4.21821 2.19532 4.20002L2.23253 4.18184H2.58601L2.80927 4.41821L3.79532 6.67275C3.85113 6.76366 3.88834 6.87275 3.90695 6.98184C3.92555 7.09093 3.94415 7.20002 3.94415 7.30911C3.94415 7.5273 3.90695 7.70911 3.81392 7.89093C3.7209 8.07275 3.62788 8.21821 3.49764 8.36366C3.34881 8.50911 3.16276 8.60002 2.97671 8.67275C2.79067 8.7273 2.58601 8.76366 2.38136 8.76366ZM2.32555 4.5273C2.32555 4.5273 2.32555 4.54548 2.32555 4.5273C2.30695 4.54548 2.28834 4.56366 2.28834 4.58184L1.28369 6.81821C1.24648 6.89093 1.22788 6.94548 1.20927 7.01821C1.19067 7.09093 1.19067 7.18184 1.19067 7.25457C1.19067 7.43639 1.22788 7.58184 1.28369 7.70911C1.35811 7.85457 1.43253 7.96366 1.54415 8.07275C1.65578 8.16366 1.78601 8.25457 1.93485 8.30911C2.21392 8.41821 2.56741 8.41821 2.84648 8.30911C2.99532 8.25457 3.12555 8.16366 3.23718 8.07275C3.3302 7.98184 3.42322 7.85457 3.47904 7.7273C3.53485 7.60002 3.57206 7.45457 3.57206 7.29093C3.57206 7.20002 3.57206 7.10911 3.55346 7.03639C3.53485 6.96366 3.51625 6.89093 3.47904 6.83639L3.46043 6.81821L2.49299 4.61821L2.41857 4.5273H2.32555ZM2.39997 8.23639C2.25113 8.23639 2.1209 8.20002 1.99067 8.14548C1.87904 8.09093 1.76741 8.01821 1.67439 7.94548V7.9273C1.59997 7.85457 1.52555 7.76366 1.46974 7.67275C1.39532 7.56366 1.37671 7.43639 1.37671 7.30911C1.37671 7.2182 1.39532 7.14548 1.41392 7.07275C1.43253 7.01821 1.45113 6.96366 1.46974 6.9273L2.41857 4.85457L3.3302 6.9273H3.34881C3.36741 6.98184 3.38602 7.03639 3.38602 7.09093C3.40462 7.14548 3.40462 7.20002 3.40462 7.25457C3.40462 7.40002 3.38601 7.5273 3.3302 7.63639C3.27439 7.74548 3.21857 7.85457 3.12555 7.9273C3.05113 8.00002 2.9395 8.07275 2.82788 8.14548C2.67904 8.20002 2.54881 8.23639 2.39997 8.23639ZM1.93485 7.67275C2.00927 7.7273 2.08369 7.78184 2.17671 7.81821C2.32555 7.89093 2.5116 7.89093 2.66043 7.81821C2.73485 7.78184 2.80927 7.7273 2.86508 7.67275C2.9209 7.61821 2.95811 7.56366 2.99532 7.49093C3.03253 7.41821 3.05113 7.34548 3.05113 7.25457C3.05113 7.21821 3.05113 7.18184 3.05113 7.14548C3.05113 7.1273 3.03253 7.09093 3.03253 7.07275L2.45578 5.74548L1.86043 7.07275C1.84183 7.10911 1.82322 7.14548 1.82322 7.18184C1.80462 7.21821 1.80462 7.25457 1.80462 7.30911C1.80462 7.38184 1.82322 7.43639 1.86043 7.49093C1.82322 7.56366 1.87904 7.61821 1.93485 7.67275ZM9.76741 8.16366L4.31625 2.7273C4.29764 2.70911 4.27904 2.69093 4.26043 2.69093C4.26043 2.69093 4.24183 2.69093 4.22322 2.69093H2.45578V1.38184H4.9302L10.7535 7.20002L9.76741 8.16366ZM2.84648 2.30911H4.24183C4.31625 2.30911 4.39067 2.3273 4.44648 2.34548C4.50229 2.36366 4.5395 2.40002 4.59532 2.45457L9.76741 7.65457L10.2325 7.20002L4.78136 1.74548H2.84648V2.30911Z" fill="#2D3E50"/>
</g>
</svg>
