<svg width="16" height="16" viewBox="0 0 16 16" fill="none" xmlns="http://www.w3.org/2000/svg">
<path d="M11.6945 3.94375C11.7039 4.01882 11.7146 4.08712 11.7206 4.15593C11.7341 4.30921 11.6424 4.44528 11.4781 4.52088C10.9456 4.7633 10.4138 5.00781 9.87995 5.24711C9.79967 5.28308 9.7736 5.32896 9.7736 5.41472C9.7736 5.76011 9.77073 5.76011 10.1088 5.76011C11.2428 5.76011 12.3767 5.75699 13.5103 5.76011C14.1847 5.76272 14.7003 6.06223 15.0634 6.62659C15.2354 6.89546 15.3259 7.20833 15.3241 7.52748C15.3293 8.57886 15.3293 9.63024 15.3241 10.6816C15.3202 11.1203 15.1546 11.5421 14.8591 11.8663C14.5636 12.1906 14.159 12.3945 13.7225 12.4391C12.8037 12.5303 11.9747 11.9412 11.7795 11.0505C11.7524 10.9144 11.7397 10.7758 11.7417 10.637C11.7383 9.78568 11.7401 8.93407 11.7399 8.08245C11.7399 7.63279 11.4961 7.38906 11.048 7.38854C10.87 7.38854 10.6917 7.38854 10.5137 7.38854C10.4727 7.38854 10.4321 7.39401 10.3911 7.39714L10.3664 7.43676C10.4028 7.45748 10.4376 7.48083 10.4706 7.50662C10.8481 7.8455 11.0923 8.25814 11.1893 8.75785C11.2065 8.81667 11.2441 8.86741 11.2954 8.90096C11.4085 8.97786 11.4732 9.07092 11.4729 9.21194C11.4719 11.1235 11.4714 13.0351 11.4714 14.9467C11.4714 15.1889 11.322 15.3333 11.0785 15.3333C9.02391 15.3333 6.9692 15.3333 4.9144 15.3333C4.6652 15.3333 4.51739 15.1876 4.51739 14.9374C4.51635 13.0348 4.51566 11.1319 4.51531 9.22863C4.51261 9.16578 4.52613 9.10329 4.55457 9.04718C4.58302 8.99108 4.62542 8.94323 4.67771 8.90826C4.72365 8.8731 4.75628 8.82337 4.77025 8.76723C4.93577 7.98261 5.39143 7.43598 6.11923 7.1117C6.18987 7.08042 6.21542 7.04184 6.21464 6.96599C6.21099 6.68811 6.20994 6.40997 6.21464 6.13183C6.2162 6.05207 6.24774 5.97308 6.25634 5.89306C6.26139 5.85435 6.25212 5.81514 6.23028 5.78279C6.15598 5.69807 6.07387 5.62118 5.9928 5.54141C4.95776 4.50637 3.92306 3.47071 2.88871 2.43445C2.8572 2.39949 2.8183 2.372 2.77483 2.35396C2.73137 2.33592 2.68442 2.3278 2.63742 2.33018C2.35511 2.33592 2.07281 2.33383 1.79024 2.33018C1.52044 2.32836 1.38906 2.19698 1.38802 1.93083C1.38802 1.63549 1.38619 1.34015 1.38802 1.04454C1.38984 0.820887 1.53843 0.670218 1.76443 0.668914C2.29881 0.666308 2.83319 0.665526 3.36757 0.668914C3.43698 0.668374 3.50577 0.681961 3.56977 0.708849C3.63376 0.735737 3.69161 0.775364 3.73981 0.825318C5.17733 2.26719 6.61425 3.70732 8.05055 5.14571C8.13605 5.23173 8.19835 5.24033 8.30705 5.19028C9.27172 4.74749 10.2392 4.30947 11.2094 3.87623C11.2944 3.83843 11.4104 3.86007 11.5102 3.87102C11.5717 3.8778 11.6309 3.9169 11.6945 3.94375ZM10.7707 14.6196C10.7733 14.5703 10.7769 14.5318 10.7769 14.4934C10.7769 12.8952 10.7754 11.2968 10.7803 9.69862C10.7803 9.56281 10.7211 9.55421 10.6164 9.55421C8.87037 9.55612 7.12447 9.55568 5.37866 9.5529C5.24832 9.5529 5.20974 9.58418 5.21026 9.71947C5.21522 11.3002 5.21339 12.8812 5.21339 14.4619C5.21339 14.6292 5.21339 14.6303 5.38674 14.6303C7.12456 14.6303 8.86177 14.6303 10.5984 14.6303C10.6531 14.63 10.7084 14.6235 10.7707 14.6196ZM14.6112 9.09803H14.6216C14.6216 8.58138 14.6252 8.06446 14.6216 7.54755C14.6161 6.92193 14.1524 6.435 13.5369 6.43056C12.3251 6.4217 11.1127 6.429 9.90133 6.42587C9.79107 6.42587 9.77569 6.47514 9.77438 6.56846C9.77308 6.66178 9.80462 6.69567 9.90159 6.69463C10.2926 6.68993 10.6836 6.70766 11.0746 6.68967C11.8168 6.655 12.4536 7.31816 12.44 8.05847C12.4241 8.90096 12.4353 9.74372 12.4374 10.587C12.4371 10.6867 12.4458 10.7863 12.4635 10.8844C12.5571 11.387 13.0508 11.7707 13.568 11.748C14.0992 11.7246 14.5846 11.2934 14.6067 10.7791C14.6286 10.2189 14.6112 9.65795 14.6112 9.09803ZM10.4907 8.84935C10.4753 8.78939 10.4646 8.73934 10.4498 8.69086C10.2506 8.06993 9.6357 7.6234 8.96708 7.62027C8.32895 7.61715 7.68978 7.6161 7.0527 7.62027C6.49277 7.62392 6.04937 7.86322 5.72327 8.31392C5.60489 8.47024 5.52925 8.65467 5.50378 8.84909L10.4907 8.84935ZM6.75631 4.86731C6.74119 4.84932 6.7266 4.82795 6.70835 4.8097C5.58537 3.6862 4.46152 2.5634 3.33681 1.44129C3.29775 1.40256 3.2464 1.37868 3.19161 1.37377C2.85743 1.36804 2.52299 1.37377 2.1888 1.36934C2.07098 1.36778 2.08845 1.44285 2.08454 1.51688C2.0788 1.60473 2.10617 1.64096 2.2008 1.63836C2.41324 1.63236 2.62647 1.64565 2.83866 1.63366C3.01879 1.62376 3.15147 1.68841 3.27633 1.81405C4.32632 2.86943 5.37866 3.92272 6.43334 4.97392C6.46905 5.00938 6.50685 5.043 6.5483 5.08184L6.75631 4.86731ZM8.00754 6.42744H7.24012C6.88769 6.42744 6.89317 6.42744 6.89082 6.77596C6.89082 6.90082 6.93722 6.92662 7.05087 6.92558C7.61888 6.92089 8.18715 6.9235 8.75515 6.9235C9.09976 6.9235 9.09559 6.9235 9.09768 6.58175C9.09768 6.46628 9.06744 6.4217 8.9444 6.42535C8.63316 6.43265 8.32035 6.42744 8.00754 6.42744ZM7.06234 5.59146C7.20649 5.81173 7.40487 5.70511 7.60246 5.72831L7.26019 5.38944L7.06234 5.59146Z" fill="#2D3E50"/>
<path d="M2.82929 4.8733C2.82434 5.45382 2.37494 5.91078 1.75897 5.94206C1.15942 5.97178 0.646417 5.47885 0.667271 4.88425C0.671988 4.75859 0.699824 4.63488 0.749383 4.51931C0.957921 4.03863 1.17897 3.5629 1.39533 3.08561C1.48683 2.88359 1.61847 2.78792 1.82674 2.85101C1.9357 2.88385 2.04545 3.00741 2.0981 3.11872C2.29882 3.53996 2.48129 3.97164 2.66376 4.40227C2.72737 4.55528 2.77429 4.71612 2.82929 4.8733ZM1.76288 4.09129L1.72769 4.09806L1.44851 4.70856C1.4287 4.75183 1.40028 4.79354 1.3922 4.8389C1.38177 4.8965 1.37057 4.96324 1.38986 5.01459C1.47875 5.25076 1.79546 5.32453 1.98341 5.15926C2.09732 5.0589 2.13017 4.92466 2.06943 4.78415C1.96855 4.55216 1.86532 4.32172 1.76288 4.0905V4.09129Z" fill="#2D3E50"/>
</svg>
