<svg width="24" height="24" viewBox="0 0 24 24" fill="none" xmlns="http://www.w3.org/2000/svg">
<path d="M20.3229 1.82868V2.1639C20.2948 2.28457 20.2609 2.40441 20.2391 2.52635C19.9598 4.09067 19.6822 5.655 19.4065 7.21932C19.3441 7.56836 19.1166 7.73387 18.7638 7.69281C18.6045 7.67437 18.4478 7.63834 18.2899 7.60901C17.5549 7.47995 16.8199 7.35257 16.0858 7.22184C15.7049 7.15396 15.5562 6.93481 15.6203 6.54848C15.632 6.47976 15.6442 6.41104 15.6559 6.34232L15.9023 4.89211H12.7681V17.256C12.7681 17.3327 12.7731 17.4098 12.7681 17.4865C12.7597 17.5937 12.802 17.6407 12.9072 17.6796C13.6195 17.9449 14.0934 18.4456 14.3268 19.1676C14.3624 19.2778 14.4135 19.3046 14.5187 19.3037C14.9796 19.2991 15.4405 19.3037 15.9015 19.3004C15.9393 19.2972 15.9767 19.2906 16.0133 19.2807C16.0188 19.2635 16.0228 19.2458 16.0251 19.2279C16.0251 18.5788 16.0251 17.9289 16.0301 17.2803C16.033 16.8546 16.2258 16.6656 16.6469 16.6652C17.5198 16.6652 18.3925 16.6652 19.2649 16.6652C19.7086 16.6652 19.898 16.8567 19.898 17.3042C19.898 18.966 19.8926 20.6274 19.9031 22.2905C19.9052 22.6085 19.8193 22.8453 19.528 22.9902H16.3842C16.0934 22.8306 16.0138 22.5783 16.0234 22.2595C16.0393 21.7018 16.028 21.1432 16.0272 20.5834C16.0272 20.5097 16.0196 20.4363 16.0154 20.3567H14.3846C14.0339 21.4411 13.3145 22.0948 12.1542 22.0977C10.994 22.1007 10.2825 21.4273 9.92127 20.3643H8.4522C8.4522 21.0075 8.44047 21.6351 8.45723 22.2624C8.46561 22.5846 8.38474 22.8348 8.08766 22.9886H4.94504C4.71039 22.8561 4.57757 22.6705 4.57798 22.3856C4.58259 20.6823 4.57799 18.9786 4.58134 17.2736C4.58134 16.8575 4.7854 16.6639 5.20525 16.6635C6.07792 16.6635 6.95073 16.6635 7.82368 16.6635C8.25317 16.6635 8.4522 16.8596 8.4522 17.2883C8.4522 17.8749 8.4522 18.4615 8.4522 19.0481C8.4522 19.1219 8.45933 19.1956 8.46352 19.287C8.93659 19.287 9.38954 19.2907 9.84166 19.2811C9.88356 19.2811 9.94055 19.2048 9.96737 19.1525C10.1115 18.8923 10.2188 18.6048 10.3952 18.3697C10.7208 17.9382 11.1787 17.688 11.7042 17.5711V4.86403H8.223C8.20522 4.91126 8.19038 4.95953 8.17859 5.00859C8.05037 5.72986 7.92299 6.45085 7.79645 7.17155C7.72563 7.58051 7.48009 7.75818 7.0682 7.68652C6.24441 7.54113 5.42314 7.38106 4.596 7.24991C4.31903 7.20801 4.1112 7.10493 3.98047 6.85687V6.52166C3.99504 6.49866 4.00659 6.47387 4.01483 6.44791C4.29808 4.8456 4.58469 3.24328 4.85789 1.63929C4.90482 1.36483 4.99155 1.13647 5.23752 0.990653H5.57273C5.6172 1.00746 5.66268 1.02145 5.70891 1.03255C6.55323 1.18466 7.39754 1.33383 8.24144 1.48761C8.57204 1.54794 8.73965 1.78972 8.68685 2.12451C8.64914 2.36544 8.60305 2.60512 8.56115 2.84605C8.5071 3.16618 8.45472 3.48715 8.39941 3.82194H16.0821C16.1 3.77013 16.1151 3.7174 16.1273 3.66397C16.253 2.96422 16.3854 2.26488 16.496 1.56261C16.538 1.29863 16.6477 1.10672 16.887 0.990234H17.2222C17.2579 1.00776 17.2952 1.02179 17.3337 1.03214C18.1256 1.16999 18.9167 1.31707 19.7116 1.4369C19.9877 1.47881 20.193 1.58188 20.3229 1.82868ZM7.38539 21.9343V17.7224H5.6427V21.9343H7.38539ZM17.0927 17.7249V21.9264H18.8367V17.7249H17.0927ZM5.82875 2.1266C5.5853 3.51816 5.34478 4.8942 5.10092 6.28701L6.83732 6.5908C7.0816 5.1917 7.3217 3.81775 7.56347 2.43207L5.82875 2.1266ZM18.4793 6.56566C18.7227 5.17452 18.962 3.80518 19.205 2.4174L17.469 2.11152C17.2222 3.50936 16.9829 4.88205 16.7408 6.26899C17.2918 6.36746 17.8122 6.4609 18.333 6.55309C18.3724 6.56021 18.4139 6.56021 18.4793 6.56566ZM12.1521 21.0636C12.3961 21.0636 12.6347 20.9913 12.8376 20.8558C13.0406 20.7204 13.1989 20.5278 13.2925 20.3025C13.3861 20.0771 13.4108 19.8291 13.3636 19.5897C13.3163 19.3503 13.1992 19.1303 13.027 18.9574C12.8548 18.7845 12.6353 18.6665 12.3961 18.6183C12.1569 18.5701 11.9088 18.5938 11.683 18.6865C11.4573 18.7792 11.2641 18.9367 11.1278 19.1391C10.9915 19.3415 10.9183 19.5797 10.9173 19.8237C10.9186 20.1511 11.049 20.4647 11.2802 20.6965C11.5114 20.9282 11.8248 21.0594 12.1521 21.0615V21.0636Z" fill="#2D3E50"/>
</svg>
