<svg width="12" height="12" viewBox="0 0 12 12" fill="none" xmlns="http://www.w3.org/2000/svg">
<path d="M10.1615 0.914342V1.08195C10.1474 1.14229 10.1305 1.20221 10.1196 1.26317C9.97989 2.04534 9.84112 2.8275 9.70327 3.60966C9.67205 3.78418 9.55829 3.86694 9.38188 3.8464C9.30227 3.83719 9.22391 3.81917 9.14493 3.8045C8.77745 3.73997 8.40998 3.67628 8.04292 3.61092C7.85247 3.57698 7.7781 3.4674 7.81015 3.27424C7.81602 3.23988 7.8221 3.20552 7.82796 3.17116L7.95115 2.44605H6.38403V8.628C6.38403 8.66634 6.38655 8.70489 6.38403 8.74323C6.37984 8.79687 6.401 8.82033 6.45359 8.83981C6.80975 8.97243 7.04671 9.2228 7.1634 9.58378C7.18121 9.63888 7.20677 9.65229 7.25936 9.65187C7.48982 9.64956 7.72027 9.65187 7.95073 9.65019C7.96964 9.64862 7.98836 9.64532 8.00667 9.64034C8.00942 9.63174 8.01139 9.62291 8.01254 9.61395C8.01254 9.28942 8.01254 8.96447 8.01505 8.64015C8.01652 8.42729 8.11289 8.33281 8.32345 8.3326C8.75992 8.3326 9.19626 8.3326 9.63245 8.3326C9.85432 8.3326 9.94902 8.42834 9.94902 8.65209C9.94902 9.483 9.9463 10.3137 9.95153 11.1452C9.95258 11.3043 9.90963 11.4226 9.76402 11.4951H8.19209C8.04669 11.4153 8.00688 11.2892 8.0117 11.1297C8.01966 10.8509 8.01401 10.5716 8.01359 10.2917C8.01359 10.2548 8.00982 10.2182 8.00772 10.1784H7.19232C7.01696 10.7206 6.65723 11.0474 6.0771 11.0489C5.49698 11.0503 5.14123 10.7137 4.96064 10.1821H4.2261C4.2261 10.5037 4.22024 10.8176 4.22862 11.1312C4.23281 11.2923 4.19237 11.4174 4.04383 11.4943H2.47252C2.3552 11.4281 2.28878 11.3353 2.28899 11.1928C2.2913 10.3411 2.28899 9.48929 2.29067 8.6368C2.29067 8.42876 2.3927 8.33197 2.60263 8.33176C3.03896 8.33176 3.47537 8.33176 3.91184 8.33176C4.12659 8.33176 4.2261 8.42981 4.2261 8.64413C4.2261 8.93745 4.2261 9.23076 4.2261 9.52407C4.2261 9.56094 4.22966 9.59781 4.23176 9.64349C4.46829 9.64349 4.69477 9.64537 4.92083 9.64055C4.94178 9.64055 4.97027 9.60242 4.98368 9.57623C5.05575 9.44613 5.10939 9.30241 5.19759 9.18487C5.36038 8.96908 5.58937 8.84401 5.85209 8.78555V2.43202H4.1115C4.10261 2.45563 4.09519 2.47977 4.08929 2.5043C4.02518 2.86493 3.96149 3.22542 3.89822 3.58578C3.86282 3.79026 3.74004 3.87909 3.5341 3.84326C3.12221 3.77056 2.71157 3.69053 2.298 3.62495C2.15952 3.604 2.0556 3.55247 1.99023 3.42844V3.26083C1.99752 3.24933 2.0033 3.23694 2.00741 3.22396C2.14904 2.4228 2.29234 1.62164 2.42894 0.819645C2.45241 0.682417 2.49578 0.568235 2.61876 0.495327H2.78636C2.8086 0.503729 2.83134 0.510726 2.85445 0.516277C3.27661 0.592329 3.69877 0.666914 4.12072 0.743803C4.28602 0.773972 4.36982 0.894858 4.34343 1.06225C4.32457 1.18272 4.30153 1.30256 4.28057 1.42303C4.25355 1.58309 4.22736 1.74357 4.1997 1.91097H8.04103C8.04998 1.88507 8.05753 1.8587 8.06366 1.83199C8.12651 1.48211 8.19272 1.13244 8.24803 0.781305C8.26898 0.649315 8.32387 0.55336 8.4435 0.495117H8.6111C8.62896 0.503879 8.64762 0.510896 8.66683 0.516068C9.0628 0.584996 9.45835 0.658533 9.85579 0.718452C9.99385 0.739403 10.0965 0.790942 10.1615 0.914342ZM3.6927 10.9672V8.86119H2.82135V10.9672H3.6927ZM8.54636 8.86244V10.9632H9.41834V8.86244H8.54636ZM2.91437 1.0633C2.79265 1.75908 2.67239 2.4471 2.55046 3.14351L3.41866 3.2954C3.5408 2.59585 3.66085 1.90888 3.78174 1.21603L2.91437 1.0633ZM9.23963 3.28283C9.36135 2.58726 9.48098 1.90259 9.60249 1.2087L8.7345 1.05576C8.6111 1.75468 8.49147 2.44103 8.37038 3.1345C8.64588 3.18373 8.90609 3.23045 9.16651 3.27654C9.1862 3.28011 9.20694 3.2801 9.23963 3.28283ZM6.07606 10.5318C6.19806 10.5318 6.31734 10.4957 6.41881 10.4279C6.52029 10.3602 6.59943 10.2639 6.64623 10.1512C6.69304 10.0386 6.70541 9.91455 6.68179 9.79485C6.65817 9.67515 6.59962 9.56513 6.51352 9.47869C6.42742 9.39224 6.31764 9.33324 6.19804 9.30913C6.07844 9.28503 5.95438 9.2969 5.84152 9.34324C5.72866 9.38959 5.63206 9.46833 5.56391 9.56953C5.49577 9.67074 5.45913 9.78986 5.45864 9.91187C5.4593 10.0755 5.52451 10.2324 5.64012 10.3482C5.75572 10.4641 5.91238 10.5297 6.07606 10.5308V10.5318Z" fill="#2D3E50"/>
</svg>
