<svg width="16" height="16" viewBox="0 0 16 16" fill="none" xmlns="http://www.w3.org/2000/svg">
<path d="M13.5486 1.21912V1.4426C13.5299 1.52305 13.5073 1.60294 13.4927 1.68423C13.3065 2.72711 13.1215 3.77 12.9377 4.81288C12.896 5.04558 12.7444 5.15592 12.5092 5.12854C12.403 5.11625 12.2985 5.09223 12.1932 5.07267C11.7032 4.98663 11.2133 4.90171 10.7239 4.81456C10.4699 4.7693 10.3708 4.62321 10.4135 4.36565C10.4213 4.31984 10.4294 4.27403 10.4373 4.22821L10.6015 3.26141H8.51202V11.504C8.51202 11.5551 8.51538 11.6065 8.51202 11.6576C8.50644 11.7292 8.53465 11.7604 8.60477 11.7864C9.07965 11.9632 9.39559 12.2971 9.55118 12.7784C9.57493 12.8518 9.60901 12.8697 9.67912 12.8692C9.9864 12.8661 10.2937 12.8692 10.601 12.8669C10.6262 12.8648 10.6511 12.8604 10.6755 12.8538C10.6792 12.8423 10.6818 12.8305 10.6834 12.8186C10.6834 12.3859 10.6834 11.9526 10.6867 11.5202C10.6887 11.2364 10.8172 11.1104 11.0979 11.1101C11.6799 11.1101 12.2617 11.1101 12.8433 11.1101C13.1391 11.1101 13.2653 11.2378 13.2653 11.5361C13.2653 12.644 13.2617 13.7516 13.2687 14.8603C13.2701 15.0723 13.2128 15.2302 13.0187 15.3268H10.9228C10.7289 15.2204 10.6758 15.0522 10.6822 14.8396C10.6929 14.4678 10.6853 14.0955 10.6848 13.7223C10.6848 13.6731 10.6797 13.6242 10.6769 13.5711H9.58973C9.35592 14.2941 8.87629 14.7299 8.10279 14.7318C7.32928 14.7338 6.85496 14.2849 6.61416 13.5762H5.63478C5.63478 14.005 5.62696 14.4234 5.63814 14.8416C5.64372 15.0564 5.58981 15.2232 5.39175 15.3257H3.29667C3.14024 15.2374 3.05169 15.1137 3.05197 14.9237C3.05504 13.7882 3.05197 12.6524 3.0542 11.5157C3.0542 11.2383 3.19025 11.1093 3.47015 11.109C4.05193 11.109 4.6338 11.109 5.21577 11.109C5.50209 11.109 5.63478 11.2397 5.63478 11.5255C5.63478 11.9166 5.63478 12.3077 5.63478 12.6988C5.63478 12.7479 5.63953 12.7971 5.64233 12.858C5.9577 12.858 6.25968 12.8605 6.56109 12.8541C6.58902 12.8541 6.62701 12.8032 6.64489 12.7683C6.74098 12.5948 6.8125 12.4032 6.9301 12.2465C7.14715 11.9588 7.45247 11.792 7.80277 11.7141V3.24269H5.48198C5.47013 3.27417 5.46024 3.30636 5.45237 3.33906C5.36689 3.81991 5.28197 4.30056 5.19761 4.78104C5.1504 5.05368 4.98671 5.17212 4.71211 5.12435C4.16292 5.02742 3.61541 4.92071 3.06398 4.83327C2.87934 4.80534 2.74078 4.73662 2.65363 4.57125V4.34777C2.66334 4.33244 2.67104 4.31591 2.67653 4.29861C2.86537 3.2304 3.05644 2.16219 3.23857 1.09286C3.26986 0.909889 3.32768 0.757647 3.49166 0.660435H3.71513C3.74478 0.671638 3.7751 0.680968 3.80592 0.68837C4.3688 0.789772 4.93167 0.889218 5.49427 0.991737C5.71468 1.03196 5.82641 1.19314 5.79122 1.41634C5.76607 1.57696 5.73535 1.73675 5.70741 1.89737C5.67138 2.11079 5.63646 2.32477 5.59959 2.54796H10.7214C10.7333 2.51342 10.7434 2.47827 10.7515 2.44265C10.8353 1.97614 10.9236 1.50992 10.9973 1.04174C11.0253 0.865753 11.0985 0.737814 11.258 0.660156H11.4814C11.5053 0.671839 11.5301 0.681194 11.5558 0.688091C12.0837 0.779995 12.6111 0.878044 13.141 0.957936C13.3251 0.985871 13.462 1.05459 13.5486 1.21912ZM4.92357 14.6229V11.8149H3.76178V14.6229H4.92357ZM11.3951 11.8166V14.6176H12.5578V11.8166H11.3951ZM3.88581 1.41774C3.72351 2.34544 3.56317 3.2628 3.40059 4.19134L4.55819 4.39387C4.72105 3.46114 4.88111 2.54517 5.04229 1.62138L3.88581 1.41774ZM12.3195 4.3771C12.4818 3.44968 12.6413 2.53679 12.8033 1.6116L11.646 1.40768C11.4814 2.33957 11.3219 3.2547 11.1605 4.17933C11.5278 4.24497 11.8748 4.30727 12.222 4.36873C12.2482 4.37347 12.2759 4.37347 12.3195 4.3771ZM8.10139 14.0424C8.26406 14.0424 8.42309 13.9942 8.5584 13.9039C8.6937 13.8136 8.79922 13.6852 8.86162 13.535C8.92403 13.3847 8.94053 13.2194 8.90903 13.0598C8.87754 12.9002 8.79947 12.7535 8.68467 12.6383C8.56988 12.523 8.42351 12.4443 8.26404 12.4122C8.10457 12.38 7.93915 12.3959 7.78867 12.4577C7.63819 12.5194 7.50939 12.6244 7.41853 12.7594C7.32767 12.8943 7.27882 13.0531 7.27816 13.2158C7.27904 13.4341 7.36599 13.6431 7.52013 13.7977C7.67427 13.9522 7.88315 14.0396 8.10139 14.041V14.0424Z" fill="#2D3E50"/>
</svg>
