<svg width="16" height="16" viewBox="0 0 16 16" fill="none" xmlns="http://www.w3.org/2000/svg">
<path d="M10.7446 10.4535L10.3322 11.0721C10.2498 11.1956 10.141 11.301 9.99751 11.3389C9.52756 11.4631 8.27991 11.5191 6.38039 9.61962C4.48087 7.7201 4.53694 6.47244 4.66112 6.00249C4.69903 5.85901 4.80438 5.75015 4.92786 5.66783L5.54645 5.25543C6.00701 4.94839 6.13147 4.32613 5.82443 3.86557L4.6561 2.11308C4.3881 1.71108 3.87145 1.5575 3.42738 1.74781L2.90034 1.97369C2.49997 2.14527 2.17338 2.45322 1.97858 2.84282C1.81583 3.16832 1.68969 3.51109 1.6726 3.8746C1.61874 5.02019 1.86994 7.84256 5.01369 10.9863C8.15745 14.1301 10.9798 14.3813 12.1254 14.3274C12.4889 14.3103 12.8317 14.1842 13.1572 14.0214C13.5468 13.8266 13.8547 13.5 14.0263 13.0997L14.2522 12.5726C14.4425 12.1285 14.2889 11.6119 13.8869 11.3439L12.1344 10.1756C11.6739 9.86853 11.0516 9.99298 10.7446 10.4535Z" fill="#2D3E50"/>
</svg>
