<svg width="12" height="12" viewBox="0 0 12 12" fill="none" xmlns="http://www.w3.org/2000/svg">
<path fill-rule="evenodd" clip-rule="evenodd" d="M3.3 2C2.583 2 2 2.583 2 3.3C2 6.99401 5.00549 10 8.7 10C9.4165 10 10 9.41701 10 8.70001C10 8.64451 9.9965 8.59001 9.9895 8.53601L7.6795 8.00601C7.6335 8.09401 7.583 8.18951 7.537 8.27851C7.309 8.71351 7.144 9.02951 6.723 8.86001C5.06999 8.28001 3.7205 6.93001 3.133 5.257C2.9545 4.8645 3.2945 4.6865 3.7255 4.4615C3.813 4.4155 3.9075 4.366 3.994 4.321L3.464 2.0105C3.4085 2.0035 3.3545 2 3.3 2ZM8.7 11C4.454 11 1 7.54601 1 3.3C1 2.0315 2.0315 1 3.3 1C3.43 1 3.5585 1.011 3.683 1.0325C3.8045 1.052 3.9265 1.083 4.0455 1.124C4.208 1.1805 4.3305 1.317 4.369 1.485L5.05349 4.467C5.09149 4.631 5.04399 4.803 4.927 4.925C4.859 4.996 4.8575 4.9975 4.2375 5.322C4.7395 6.40901 5.61199 7.27851 6.677 7.76351C7.002 7.14301 7.004 7.14101 7.075 7.07301C7.197 6.95601 7.37 6.91051 7.533 6.94651L10.5155 7.63101C10.683 7.66951 10.8195 7.79151 10.8755 7.95401C10.9165 8.07201 10.9475 8.19401 10.968 8.31951C10.989 8.44301 11 8.57101 11 8.70001C11 9.96851 9.968 11 8.7 11Z" fill="#2D3E50"/>
</svg>
