<svg width="12" height="12" viewBox="0 0 12 12" fill="none" xmlns="http://www.w3.org/2000/svg">
<path d="M8.05843 7.84015L7.74913 8.3041C7.68739 8.3967 7.60574 8.47572 7.49814 8.50416C7.14568 8.59729 6.20994 8.63935 4.7853 7.21471C3.36066 5.79007 3.40271 4.85432 3.49584 4.50186C3.52428 4.39426 3.60329 4.31261 3.6959 4.25087L4.15985 3.94157C4.50527 3.71129 4.59861 3.24459 4.36833 2.89917L3.49208 1.5848C3.29108 1.28331 2.9036 1.16812 2.57054 1.31086L2.17526 1.48026C1.87499 1.60895 1.63004 1.83991 1.48394 2.13211C1.36188 2.37623 1.26728 2.63331 1.25446 2.90595C1.21406 3.76514 1.40246 5.88192 3.76028 8.23974C6.11809 10.5976 8.23486 10.7859 9.09405 10.7455C9.36669 10.7327 9.62377 10.6381 9.86789 10.5161C10.1601 10.37 10.391 10.125 10.5197 9.82474L10.6891 9.42946C10.8319 9.0964 10.7167 8.70891 10.4152 8.50792L9.10083 7.63167C8.75541 7.40139 8.28871 7.49473 8.05843 7.84015Z" fill="#2D3E50"/>
</svg>
