<svg width="12" height="12" viewBox="0 0 12 12" fill="none" xmlns="http://www.w3.org/2000/svg">
<path d="M4.24223 4.7155C4.26623 4.64242 4.29023 4.5697 4.31207 4.49602C4.31771 4.4767 4.32131 4.44934 4.31207 4.4341C4.19919 4.24802 4.08431 4.06306 3.96743 3.87922C3.95687 3.86266 3.92771 3.84994 3.90659 3.84898C3.72119 3.84046 3.57059 3.77566 3.47459 3.60622C3.39179 3.4603 3.29951 3.31978 3.21731 3.1735C3.12023 3.00058 3.08699 2.82262 3.19691 2.6395C3.20471 2.62666 3.19691 2.59858 3.18827 2.58274C3.10055 2.43286 3.01055 2.2843 2.92187 2.13478C2.83907 1.99582 2.80991 1.8505 2.86571 1.6933C2.87255 1.6741 2.86211 1.6435 2.85023 1.62394C2.74055 1.4425 2.62884 1.26274 2.51784 1.08238C2.46532 1.00104 2.44334 0.903719 2.4558 0.807703C2.4798 0.623864 2.59224 0.499544 2.77091 0.459704C2.85378 0.442663 2.93988 0.451465 3.01759 0.48492C3.0953 0.518376 3.16086 0.574874 3.20543 0.646784C3.31343 0.819703 3.41819 0.994783 3.52775 1.16602C3.54601 1.19251 3.57318 1.21155 3.60431 1.21966C3.67415 1.23359 3.74028 1.26207 3.79838 1.30326C3.85648 1.34445 3.90525 1.39741 3.94151 1.4587C4.03175 1.60474 4.11743 1.75378 4.20299 1.9027C4.22123 1.9345 4.24163 1.94446 4.27835 1.94422C4.46375 1.94314 4.60895 2.0107 4.70243 2.18206C4.79423 2.35006 4.89815 2.51146 4.99559 2.67658C5.05199 2.77198 5.08139 2.87614 5.06459 2.98642C5.05607 3.04222 5.02751 3.09442 5.01119 3.1495C5.00543 3.16894 5.00039 3.1963 5.00951 3.2113C5.12151 3.39578 5.23523 3.57906 5.35067 3.76114C5.35784 3.7705 5.36687 3.77826 5.3772 3.78394C5.38753 3.78962 5.39893 3.7931 5.41067 3.79414C5.60267 3.8005 5.75087 3.87298 5.84651 4.04926C5.93303 4.20886 6.03311 4.36126 6.12503 4.51726C6.21695 4.67326 6.22547 4.83538 6.12611 4.99282C6.10475 5.02642 6.12203 5.04394 6.13583 5.06638C6.42767 5.54126 6.71967 6.01594 7.01183 6.49042C7.47647 7.24586 7.94094 8.00129 8.40526 8.75673C8.49406 8.90073 8.5303 9.05313 8.47066 9.21993C8.46394 9.23853 8.47738 9.26877 8.4895 9.28869C8.81878 9.82949 9.1487 10.3699 9.47926 10.9099C9.5797 11.0744 9.56902 11.2591 9.45334 11.4019C9.28138 11.6138 8.94634 11.5931 8.80366 11.3601C8.47278 10.8202 8.14282 10.2798 7.81378 9.73893C7.78558 9.69237 7.75379 9.66849 7.70003 9.65937C7.56311 9.63621 7.45907 9.56337 7.38503 9.44337C6.66679 8.27665 5.94775 7.11038 5.22791 5.94454C5.18279 5.87146 5.13935 5.79718 5.09075 5.7265C5.08321 5.71635 5.07368 5.70783 5.06275 5.70148C5.05182 5.69513 5.0397 5.69106 5.02715 5.68954C4.83371 5.6839 4.68563 5.60314 4.58819 5.43442C4.50119 5.28406 4.41539 5.13298 4.32839 4.98262C4.28044 4.9035 4.25551 4.81257 4.25639 4.72006L4.24223 4.7155ZM5.41715 5.50414C5.42771 5.52346 5.43551 5.5393 5.44475 5.55418C5.59139 5.78986 5.73811 6.02554 5.88491 6.26122C6.49843 7.24618 7.11187 8.23121 7.72522 9.21633C7.77322 9.29229 7.80922 9.30165 7.88542 9.25233C7.94758 9.21225 8.00902 9.17121 8.07058 9.13029C8.15086 9.07677 8.15842 9.04053 8.10658 8.95689C7.35995 7.75369 6.61323 6.55046 5.86643 5.34718C5.84891 5.31898 5.83043 5.29138 5.81027 5.25982L5.41715 5.50414ZM4.31807 2.33014C4.28665 2.34272 4.25599 2.35714 4.22627 2.37334C4.00823 2.5105 3.79103 2.64934 3.57335 2.78662C3.48935 2.8399 3.48059 2.87674 3.53543 2.96134C3.63143 3.1087 3.72743 3.25594 3.82187 3.40402C3.86207 3.46666 3.90311 3.48046 3.96467 3.4417C4.18787 3.30154 4.41047 3.16038 4.63247 3.01822C4.69463 2.97838 4.70579 2.92714 4.66847 2.86414C4.57247 2.7007 4.47527 2.53762 4.37639 2.37574C4.36487 2.35678 4.33943 2.34634 4.31807 2.33014ZM5.44415 4.17094C5.41163 4.18654 5.38739 4.19494 5.36579 4.20898C5.14691 4.34498 4.92827 4.48122 4.70987 4.6177C4.62323 4.67182 4.61291 4.7137 4.66451 4.8001C4.75031 4.9441 4.83683 5.0881 4.92227 5.2321C4.97231 5.3161 5.00531 5.32546 5.09027 5.2717C5.31155 5.13214 5.53199 4.99126 5.75327 4.8517C5.82527 4.80634 5.83727 4.7677 5.79347 4.69402C5.70011 4.53574 5.60639 4.3777 5.50979 4.22134C5.49599 4.19926 5.46623 4.18738 5.44415 4.17094ZM4.64015 4.22386L5.02583 3.9781L4.68983 3.4189L4.29383 3.66526L4.64015 4.22386ZM3.90539 2.1373C3.80639 1.9789 3.71039 1.8253 3.61427 1.6717C3.57527 1.6093 3.52619 1.5973 3.46355 1.63738C3.39443 1.6813 3.32723 1.7281 3.25847 1.77238C3.19331 1.81426 3.18191 1.8595 3.22343 1.92646C3.30767 2.06206 3.39219 2.19746 3.47699 2.33266C3.48719 2.34874 3.49907 2.36386 3.51167 2.38162L3.90539 2.1373ZM9.17998 11.1153C8.8503 10.5768 8.52138 10.0394 8.19322 9.50325L8.13514 9.52449C8.45914 10.0579 8.78062 10.5867 9.10186 11.1158C9.12538 11.1555 9.14914 11.1509 9.17998 11.1153ZM2.87999 0.817303C2.84051 0.836383 2.80655 0.853303 2.83199 0.895423C2.93423 1.06174 3.03887 1.22662 3.14531 1.39642C3.16787 1.38058 3.18623 1.3675 3.20531 1.35358L2.87999 0.817303Z" fill="#2D3E50"/>
</svg>
