<svg width="24" height="24" viewBox="0 0 24 24" fill="none" xmlns="http://www.w3.org/2000/svg">
<path d="M8.48448 9.43106C8.53248 9.2849 8.58048 9.13946 8.62416 8.9921C8.63544 8.95346 8.64264 8.89874 8.62416 8.86826C8.3984 8.4961 8.16864 8.12618 7.93488 7.7585C7.91376 7.72538 7.85544 7.69994 7.8132 7.69802C7.4424 7.68098 7.1412 7.55138 6.9492 7.2125C6.7836 6.92066 6.59904 6.63962 6.43464 6.34706C6.24048 6.00122 6.174 5.6453 6.39384 5.27906C6.40944 5.25338 6.39384 5.19722 6.37656 5.16554C6.20112 4.86578 6.02112 4.56866 5.84376 4.26962C5.67816 3.9917 5.61984 3.70107 5.73144 3.38667C5.74512 3.34827 5.72424 3.28707 5.70048 3.24795C5.48113 2.88507 5.25769 2.52555 5.03569 2.16483C4.93066 2.00215 4.88669 1.8075 4.91161 1.61547C4.95961 1.24779 5.18449 0.999148 5.54185 0.919468C5.70758 0.885387 5.87978 0.90299 6.0352 0.969902C6.19061 1.03681 6.32174 1.14981 6.41088 1.29363C6.62688 1.63947 6.8364 1.98963 7.05552 2.33211C7.09203 2.38508 7.14638 2.42316 7.20864 2.43939C7.34833 2.46724 7.48057 2.52421 7.59677 2.60658C7.71297 2.68895 7.81051 2.79488 7.88304 2.91747C8.06352 3.20955 8.23488 3.50763 8.406 3.80546C8.44248 3.86906 8.48328 3.88898 8.55672 3.8885C8.92752 3.88634 9.21792 4.02146 9.40488 4.36418C9.58848 4.70018 9.79632 5.02298 9.9912 5.35322C10.104 5.54402 10.1628 5.75234 10.1292 5.9729C10.1122 6.0845 10.055 6.1889 10.0224 6.29906C10.0109 6.33794 10.0008 6.39266 10.019 6.42266C10.243 6.79162 10.4705 7.15818 10.7014 7.52234C10.7157 7.54105 10.7338 7.55658 10.7544 7.56795C10.7751 7.57931 10.7979 7.58625 10.8214 7.58834C11.2054 7.60106 11.5018 7.74602 11.693 8.09858C11.8661 8.41778 12.0662 8.72258 12.2501 9.03458C12.4339 9.34658 12.451 9.67082 12.2522 9.9857C12.2095 10.0529 12.2441 10.0879 12.2717 10.1328C12.8553 11.0826 13.4393 12.0319 14.0237 12.9809C14.9529 14.4918 15.8819 16.0027 16.8105 17.5135C16.9881 17.8015 17.0606 18.1063 16.9413 18.4399C16.9279 18.4771 16.9548 18.5376 16.979 18.5774C17.6376 19.659 18.2974 20.7398 18.9585 21.8198C19.1594 22.1489 19.1381 22.5182 18.9067 22.8038C18.5628 23.2277 17.8927 23.1862 17.6073 22.7203C16.9456 21.6405 16.2857 20.5597 15.6276 19.4779C15.5712 19.3848 15.5076 19.337 15.4001 19.3188C15.1262 19.2725 14.9181 19.1268 14.7701 18.8868C13.3336 16.5534 11.8955 14.2208 10.4558 11.8891C10.3656 11.743 10.2787 11.5944 10.1815 11.4531C10.1664 11.4328 10.1474 11.4157 10.1255 11.403C10.1036 11.3903 10.0794 11.3822 10.0543 11.3791C9.66744 11.3679 9.37128 11.2063 9.1764 10.8689C9.0024 10.5682 8.8308 10.266 8.6568 9.9653C8.5609 9.80706 8.51103 9.6252 8.5128 9.44018L8.48448 9.43106ZM10.8343 11.0083C10.8554 11.047 10.871 11.0787 10.8895 11.1084C11.1828 11.5798 11.4762 12.0511 11.7698 12.5225C12.9969 14.4924 14.2237 16.4625 15.4505 18.4327C15.5465 18.5846 15.6185 18.6034 15.7709 18.5047C15.8952 18.4246 16.0181 18.3425 16.1412 18.2606C16.3017 18.1536 16.3169 18.0811 16.2132 17.9138C14.7199 15.5075 13.2265 13.101 11.7329 10.6944C11.6978 10.638 11.6609 10.5828 11.6206 10.5197L10.8343 11.0083ZM8.63616 4.66034C8.57331 4.68549 8.512 4.71434 8.45256 4.74674C8.01648 5.02106 7.58208 5.29874 7.14672 5.5733C6.97872 5.67986 6.9612 5.75354 7.07088 5.92274C7.26288 6.21746 7.45488 6.51194 7.64376 6.8081C7.72416 6.93338 7.80624 6.96098 7.92936 6.88346C8.37576 6.60314 8.82096 6.32082 9.26496 6.0365C9.38928 5.95682 9.4116 5.85434 9.33696 5.72834C9.14496 5.40146 8.95056 5.0753 8.7528 4.75154C8.72976 4.71362 8.67888 4.69274 8.63616 4.66034ZM10.8883 8.34194C10.8233 8.37314 10.7748 8.38994 10.7316 8.41802C10.2938 8.69002 9.85656 8.9625 9.41976 9.23546C9.24648 9.3437 9.22584 9.42746 9.32904 9.60026C9.50064 9.88826 9.67368 10.1763 9.84456 10.4643C9.94464 10.6323 10.0106 10.651 10.1806 10.5435C10.6231 10.2643 11.064 9.98258 11.5066 9.70346C11.6506 9.61274 11.6746 9.53546 11.587 9.3881C11.4002 9.07154 11.2128 8.75546 11.0196 8.44274C10.992 8.39858 10.9325 8.37482 10.8883 8.34194ZM9.28032 8.44778L10.0517 7.95626L9.37968 6.83786L8.58768 7.33058L9.28032 8.44778ZM7.8108 4.27466C7.6128 3.95786 7.4208 3.65067 7.22856 3.34347C7.15056 3.21867 7.0524 3.19467 6.92712 3.27483C6.78888 3.36267 6.65448 3.45627 6.51696 3.54483C6.38664 3.62858 6.36384 3.71906 6.44688 3.85298C6.61536 4.12418 6.7844 4.39498 6.954 4.66538C6.9744 4.69754 6.99816 4.72778 7.02336 4.7633L7.8108 4.27466ZM18.36 22.2307C17.7006 21.1536 17.0428 20.0789 16.3865 19.0066L16.2703 19.049C16.9183 20.1158 17.5613 21.1735 18.2037 22.2317C18.2508 22.3111 18.2983 22.3018 18.36 22.2307ZM5.76 1.63467C5.68104 1.67283 5.61312 1.70667 5.664 1.79091C5.86848 2.12355 6.07776 2.45331 6.29064 2.79291C6.33576 2.76123 6.37248 2.73507 6.41064 2.70723L5.76 1.63467Z" fill="#2D3E50"/>
</svg>
