<svg width="16" height="16" viewBox="0 0 16 16" fill="none" xmlns="http://www.w3.org/2000/svg">
<path d="M5.65632 6.28737C5.68832 6.18993 5.72032 6.09297 5.74944 5.99473C5.75696 5.96897 5.76176 5.93249 5.74944 5.91217C5.59893 5.66407 5.44576 5.41745 5.28992 5.17233C5.27584 5.15025 5.23696 5.13329 5.2088 5.13201C4.9616 5.12065 4.7608 5.03425 4.6328 4.80833C4.5224 4.61377 4.39936 4.42641 4.28976 4.23137C4.16032 4.00081 4.116 3.76354 4.26256 3.51938C4.27296 3.50226 4.26256 3.46482 4.25104 3.4437C4.13408 3.24386 4.01408 3.04578 3.89584 2.84642C3.78544 2.66114 3.74656 2.46738 3.82096 2.25778C3.83008 2.23218 3.81616 2.19138 3.80032 2.1653C3.65408 1.92338 3.50512 1.6837 3.35712 1.44322C3.2871 1.33476 3.25779 1.205 3.2744 1.07698C3.3064 0.831859 3.45632 0.666099 3.69456 0.612979C3.80505 0.590258 3.91986 0.601994 4.02346 0.646601C4.12707 0.691209 4.21449 0.76654 4.27392 0.862419C4.41792 1.09298 4.5576 1.32642 4.70368 1.55474C4.72802 1.59006 4.76425 1.61544 4.80576 1.62626C4.89888 1.64483 4.98705 1.68281 5.06451 1.73772C5.14198 1.79264 5.20701 1.86325 5.25536 1.94498C5.37568 2.1397 5.48992 2.33842 5.604 2.53698C5.62832 2.57938 5.65552 2.59266 5.70448 2.59234C5.95168 2.5909 6.14528 2.68098 6.26992 2.90946C6.39232 3.13346 6.53088 3.34866 6.6608 3.56882C6.736 3.69602 6.7752 3.83489 6.7528 3.98193C6.74144 4.05633 6.70336 4.12593 6.6816 4.19937C6.67392 4.22529 6.6672 4.26177 6.67936 4.28177C6.82869 4.52775 6.98032 4.77212 7.13424 5.01489C7.1438 5.02737 7.15584 5.03772 7.16961 5.0453C7.18339 5.05287 7.19858 5.0575 7.21424 5.05889C7.47024 5.06737 7.66784 5.16401 7.79535 5.39905C7.91071 5.61185 8.04415 5.81505 8.16671 6.02305C8.28927 6.23105 8.30063 6.44721 8.16815 6.65713C8.13967 6.70193 8.16271 6.72529 8.18111 6.75521C8.57023 7.38838 8.95957 8.02129 9.34911 8.65393C9.96863 9.66118 10.5879 10.6684 11.207 11.6757C11.3254 11.8677 11.3737 12.0709 11.2942 12.2933C11.2853 12.3181 11.3032 12.3584 11.3193 12.385C11.7584 13.106 12.1983 13.8266 12.639 14.5466C12.7729 14.7659 12.7587 15.0122 12.6045 15.2026C12.3752 15.4851 11.9285 15.4574 11.7382 15.1469C11.2971 14.427 10.8571 13.7065 10.4184 12.9853C10.3808 12.9232 10.3384 12.8914 10.2667 12.8792C10.0842 12.8483 9.94543 12.7512 9.84671 12.5912C8.88906 11.0356 7.93034 9.48054 6.97056 7.92609C6.9104 7.82865 6.85248 7.72961 6.78768 7.63537C6.77762 7.62183 6.76492 7.61049 6.75034 7.60201C6.73576 7.59354 6.71961 7.58812 6.70288 7.58609C6.44496 7.57857 6.24752 7.47089 6.1176 7.24593C6.0016 7.04545 5.8872 6.84401 5.7712 6.64353C5.70726 6.53804 5.67402 6.4168 5.6752 6.29345L5.65632 6.28737ZM7.22288 7.33889C7.23696 7.36465 7.24736 7.38577 7.25968 7.40561C7.4552 7.71985 7.65082 8.03409 7.84655 8.34833C8.66458 9.66161 9.4825 10.975 10.3003 12.2885C10.3643 12.3898 10.4123 12.4022 10.5139 12.3365C10.5968 12.283 10.6787 12.2283 10.7608 12.1738C10.8678 12.1024 10.8779 12.0541 10.8088 11.9426C9.81327 10.3383 8.81765 8.73398 7.82191 7.12961C7.79855 7.09201 7.77391 7.05521 7.74704 7.01313L7.22288 7.33889ZM5.75744 3.1069C5.71554 3.12366 5.67467 3.1429 5.63504 3.1645C5.34432 3.34738 5.05472 3.5325 4.76448 3.71554C4.65248 3.78658 4.6408 3.8357 4.71392 3.94849C4.84192 4.14497 4.96992 4.34129 5.09584 4.53873C5.14944 4.62225 5.20416 4.64065 5.28624 4.58897C5.58384 4.40209 5.88064 4.21388 6.17664 4.02433C6.25952 3.97122 6.2744 3.9029 6.22464 3.8189C6.09664 3.60098 5.96704 3.38354 5.8352 3.1677C5.81984 3.14242 5.78592 3.1285 5.75744 3.1069ZM7.25888 5.56129C7.21552 5.58209 7.1832 5.59329 7.1544 5.61201C6.86256 5.79335 6.57104 5.975 6.27984 6.15697C6.16432 6.22913 6.15056 6.28497 6.21936 6.40017C6.33376 6.59217 6.44912 6.78417 6.56304 6.97617C6.62976 7.08817 6.67376 7.10065 6.78704 7.02897C7.08208 6.84289 7.376 6.65505 7.67104 6.46897C7.76704 6.40849 7.78304 6.35697 7.72464 6.25873C7.60016 6.04769 7.4752 5.83697 7.3464 5.62849C7.328 5.59905 7.28832 5.58321 7.25888 5.56129ZM6.18688 5.63185L6.70112 5.30417L6.25312 4.55857L5.72512 4.88705L6.18688 5.63185ZM5.2072 2.84978C5.0752 2.63858 4.9472 2.43378 4.81904 2.22898C4.76704 2.14578 4.7016 2.12978 4.61808 2.18322C4.52592 2.24178 4.43632 2.30418 4.34464 2.36322C4.25776 2.41906 4.24256 2.47938 4.29792 2.56866C4.41024 2.74946 4.52294 2.92999 4.636 3.11026C4.6496 3.1317 4.66544 3.15186 4.68224 3.17554L5.2072 2.84978ZM12.24 14.8205C11.8004 14.1024 11.3619 13.3859 10.9243 12.671L10.8469 12.6994C11.2789 13.4106 11.7075 14.1157 12.1358 14.8211C12.1672 14.8741 12.1989 14.8678 12.24 14.8205ZM3.84 1.08978C3.78736 1.11522 3.74208 1.13778 3.776 1.19394C3.91232 1.4157 4.05184 1.63554 4.19376 1.86194C4.22384 1.84082 4.24832 1.82338 4.27376 1.80482L3.84 1.08978Z" fill="#2D3E50"/>
</svg>
