<svg width="16" height="16" viewBox="0 0 16 16" fill="none" xmlns="http://www.w3.org/2000/svg">
<path d="M8.00001 14.8C7.60001 14.8 7.20001 14.5 7.20001 14V8.80001H2.00001C1.60001 8.80001 1.20001 8.40001 1.20001 8.00001C1.20001 7.60001 1.60001 7.20001 2.00001 7.20001H7.20001V2.00001C7.20001 1.60001 7.50001 1.20001 8.00001 1.20001C8.50001 1.20001 8.80001 1.60001 8.80001 2.00001V7.20001H14C14.4 7.20001 14.8 7.50001 14.8 8.00001C14.8 8.50001 14.4 8.80001 14 8.80001H8.80001V14C8.80001 14.4 8.40001 14.8 8.00001 14.8Z" fill="#2D3E50"/>
</svg>
