<svg width="12" height="12" viewBox="0 0 12 12" fill="none" xmlns="http://www.w3.org/2000/svg">
<path d="M6.00001 11.8C5.60001 11.8 5.20001 11.5 5.20001 11V6.80001H1.00001C0.600012 6.80001 0.200012 6.40001 0.200012 6.00001C0.200012 5.60001 0.600012 5.20001 1.00001 5.20001H5.20001V1.00001C5.20001 0.600012 5.50001 0.200012 6.00001 0.200012C6.50001 0.200012 6.80001 0.600012 6.80001 1.00001V5.20001H11C11.4 5.20001 11.8 5.50001 11.8 6.00001C11.8 6.50001 11.4 6.80001 11 6.80001H6.80001V11C6.80001 11.4 6.40001 11.8 6.00001 11.8Z" fill="#2D3E50"/>
</svg>
