<svg width="16" height="16" viewBox="0 0 16 16" fill="none" xmlns="http://www.w3.org/2000/svg">
<path fill-rule="evenodd" clip-rule="evenodd" d="M0.666656 8C0.666656 3.952 3.95199 0.666672 7.99999 0.666672C12.048 0.666672 15.3333 3.952 15.3333 8C15.3333 12.048 12.048 15.3333 7.99999 15.3333C3.95199 15.3333 0.666656 12.048 0.666656 8ZM8.73332 10.9333V12.4H7.26666V10.9333H8.73332ZM7.99999 13.8667C4.76599 13.8667 2.13332 11.234 2.13332 8C2.13332 4.76601 4.76599 2.13334 7.99999 2.13334C11.234 2.13334 13.8667 4.76601 13.8667 8C13.8667 11.234 11.234 13.8667 7.99999 13.8667ZM5.06666 6.53334C5.06666 4.91267 6.37932 3.6 7.99999 3.6C9.62066 3.6 10.9333 4.91267 10.9333 6.53334C10.9333 7.47414 10.354 7.98044 9.78988 8.4734C9.25474 8.94106 8.73332 9.39673 8.73332 10.2H7.26666C7.26666 8.8644 7.95754 8.33484 8.56498 7.86923C9.04149 7.50398 9.46666 7.1781 9.46666 6.53334C9.46666 5.72667 8.80666 5.06667 7.99999 5.06667C7.19332 5.06667 6.53332 5.72667 6.53332 6.53334H5.06666Z" fill="#2D3E50"/>
</svg>
