<svg width="16" height="16" viewBox="0 0 16 16" fill="none" xmlns="http://www.w3.org/2000/svg">
<path fill-rule="evenodd" clip-rule="evenodd" d="M7.99999 0.666672C3.95199 0.666672 0.666656 3.952 0.666656 8C0.666656 12.048 3.95199 15.3333 7.99999 15.3333C12.048 15.3333 15.3333 12.048 15.3333 8C15.3333 3.952 12.048 0.666672 7.99999 0.666672ZM7.26666 13.1333V11.6667H8.73332V13.1333H7.26666ZM9.59132 8.12467L10.2513 7.45C10.6693 7.032 10.9333 6.44534 10.9333 5.8C10.9333 4.17934 9.62066 2.86667 7.99999 2.86667C6.37932 2.86667 5.06666 4.17934 5.06666 5.8H6.53332C6.53332 4.99334 7.19332 4.33334 7.99999 4.33334C8.80666 4.33334 9.46666 4.99334 9.46666 5.8C9.46666 6.20334 9.30532 6.57 9.03399 6.834L8.12466 7.758C7.59666 8.29334 7.26666 9.02667 7.26666 9.83334V10.2H8.73332C8.73332 9.1 9.06332 8.66 9.59132 8.12467Z" fill="#2D3E50"/>
</svg>
