<svg width="16" height="16" viewBox="0 0 16 16" fill="none" xmlns="http://www.w3.org/2000/svg">
<path d="M15 15.8C14.8 15.8 14.6 15.7 14.5 15.6L11.2 12.3C10 13.3 8.50001 13.8 7.00001 13.8C3.30001 13.8 0.200012 10.8 0.200012 7C0.200012 3.3 3.20001 0.199997 7.00001 0.199997C10.7 0.199997 13.8 3.2 13.8 7C13.8 8.6 13.3 10 12.3 11.2L15.6 14.5C15.9 14.8 15.9 15.3 15.6 15.6C15.4 15.7 15.2 15.8 15 15.8ZM7.00001 1.8C4.10001 1.8 1.80001 4.1 1.80001 7C1.80001 9.9 4.20001 12.2 7.00001 12.2C8.40001 12.2 9.70001 11.7 10.7 10.7C11.7 9.7 12.2 8.4 12.2 7C12.2 4.1 9.90001 1.8 7.00001 1.8Z" fill="#2D3E50"/>
</svg>
