<svg width="12" height="12" viewBox="0 0 12 12" fill="none" xmlns="http://www.w3.org/2000/svg">
<path d="M2.23386 3.48514L1.79536 3.15315L2.23386 3.48514ZM5.52428 11.2636L5.45742 11.8095L5.52428 11.2636ZM6.72164 11.2636L6.78849 11.8095L6.72164 11.2636ZM10.6132 8.32668L10.1068 8.11196L10.6132 8.32668ZM10.6132 4.52333L10.1068 4.73805L10.6132 4.52333ZM10.0122 9.36484L10.4507 9.69682L10.0122 9.36484ZM9.01102 2.60245C8.56564 2.72465 8.10626 2.45942 7.9894 2.01261L6.92519 2.29095C7.19707 3.33048 8.26587 3.94755 9.30208 3.66324L9.01102 2.60245ZM9.57371 3.81719C9.78733 4.09936 9.96701 4.40834 10.1068 4.73805L11.1195 4.30861C10.9439 3.89444 10.7184 3.50682 10.4507 3.15323L9.57371 3.81719ZM10.8774 7.01484C10.5489 6.69024 10.5489 6.15979 10.8774 5.83518L10.1043 5.05272C9.33997 5.80794 9.33997 7.04208 10.1043 7.79731L10.8774 7.01484ZM10.1068 8.11196C9.967 8.44168 9.78731 8.75067 9.57368 9.03285L10.4507 9.69682C10.7184 9.34322 10.9439 8.95558 11.1195 8.54139L10.1068 8.11196ZM7.9894 10.8374C8.10626 10.3906 8.56564 10.1254 9.01102 10.2476L9.30208 9.18678C8.26587 8.90247 7.19707 9.51954 6.92519 10.5591L7.9894 10.8374ZM6.65479 10.7177C6.48074 10.739 6.30328 10.75 6.12301 10.75V11.85C6.34808 11.85 6.57018 11.8363 6.78849 11.8095L6.65479 10.7177ZM6.12301 10.75C5.94271 10.75 5.76522 10.739 5.59114 10.7177L5.45742 11.8095C5.67576 11.8363 5.89791 11.85 6.12301 11.85V10.75ZM3.23494 10.2476C3.68032 10.1254 4.1397 10.3906 4.25656 10.8374L5.32076 10.5591C5.04888 9.51954 3.98009 8.90247 2.94388 9.18678L3.23494 10.2476ZM2.6724 9.03292C2.45871 8.75067 2.27898 8.4416 2.13914 8.1118L1.12642 8.5412C1.30208 8.95549 1.52763 9.34322 1.7954 9.6969L2.6724 9.03292ZM1.36852 5.83518C1.69704 6.15979 1.69704 6.69024 1.36852 7.01484L2.14167 7.79731C2.90599 7.04208 2.90599 5.80794 2.14167 5.05272L1.36852 5.83518ZM2.13914 4.7382C2.27897 4.40842 2.45869 4.09936 2.67236 3.81713L1.79536 3.15315C1.5276 3.50682 1.30206 3.89454 1.12641 4.30881L2.13914 4.7382ZM4.25656 2.01261C4.1397 2.45942 3.68032 2.72465 3.23494 2.60245L2.94388 3.66324C3.98009 3.94755 5.04888 3.33048 5.32076 2.29095L4.25656 2.01261ZM5.59119 2.13232C5.76525 2.111 5.94273 2.1 6.12301 2.1V1C5.89793 1 5.67581 1.01374 5.45748 1.04047L5.59119 2.13232ZM6.12301 2.1C6.30327 2.1 6.48071 2.111 6.65474 2.1323L6.78842 1.04046C6.57014 1.01373 6.34806 1 6.12301 1V2.1ZM6.12303 8.84998C7.46232 8.84998 8.54803 7.76427 8.54803 6.42498H7.44803C7.44803 7.15675 6.85481 7.74998 6.12303 7.74998V8.84998ZM3.69803 6.42498C3.69803 7.76427 4.78374 8.84998 6.12303 8.84998V7.74998C5.39125 7.74998 4.79803 7.15675 4.79803 6.42498H3.69803ZM6.12303 3.99998C4.78374 3.99998 3.69803 5.08569 3.69803 6.42498H4.79803C4.79803 5.6932 5.39125 5.09998 6.12303 5.09998V3.99998ZM8.54803 6.42498C8.54803 5.08569 7.46232 3.99998 6.12303 3.99998V5.09998C6.85481 5.09998 7.44803 5.6932 7.44803 6.42498H8.54803ZM2.67236 3.81713C2.72508 3.74749 2.78661 3.70071 2.8392 3.67736C2.88796 3.65571 2.92048 3.65682 2.94388 3.66324L3.23494 2.60245C2.6208 2.43394 2.08327 2.77287 1.79536 3.15315L2.67236 3.81713ZM2.14167 5.05272C2.12407 5.03533 2.10667 5.00728 2.10104 4.95378C2.09496 4.89611 2.10489 4.81898 2.13914 4.7382L1.12641 4.30881C0.939557 4.74951 0.914364 5.38643 1.36852 5.83518L2.14167 5.05272ZM2.13914 8.1118C2.10489 8.03103 2.09497 7.9539 2.10104 7.89623C2.10667 7.84274 2.12407 7.81469 2.14167 7.79731L1.36852 7.01484C0.914369 7.46359 0.939561 8.1005 1.12642 8.5412L2.13914 8.1118ZM2.94388 9.18678C2.92049 9.1932 2.88797 9.19431 2.83922 9.17267C2.78663 9.14932 2.72511 9.10254 2.6724 9.03292L1.7954 9.6969C2.08331 10.0772 2.62082 10.4161 3.23494 10.2476L2.94388 9.18678ZM5.59114 10.7177C5.50418 10.707 5.43256 10.6772 5.38579 10.6432C5.34242 10.6117 5.32697 10.5828 5.32076 10.5591L4.25656 10.8374C4.41812 11.4551 4.98251 11.7514 5.45742 11.8095L5.59114 10.7177ZM6.92519 10.5591C6.91899 10.5828 6.90353 10.6117 6.86016 10.6432C6.81338 10.6772 6.74176 10.707 6.65479 10.7177L6.78849 11.8095C7.26341 11.7514 7.82783 11.4552 7.9894 10.8374L6.92519 10.5591ZM10.1043 7.79731C10.1219 7.81471 10.1393 7.84277 10.1449 7.89629C10.151 7.954 10.1411 8.03115 10.1068 8.11196L11.1195 8.54139C11.3064 8.10065 11.3316 7.46365 10.8774 7.01485L10.1043 7.79731ZM10.1068 4.73805C10.1411 4.81886 10.151 4.89601 10.1449 4.95372C10.1393 5.00725 10.1219 5.03531 10.1043 5.05272L10.8774 5.83518C11.3316 5.38636 11.3064 4.74936 11.1195 4.30861L10.1068 4.73805ZM9.57368 9.03285C9.52094 9.1025 9.4594 9.1493 9.4068 9.17266C9.35803 9.19432 9.32549 9.19321 9.30208 9.18678L9.01102 10.2476C9.6252 10.4161 10.1627 10.0771 10.4507 9.69682L9.57368 9.03285ZM9.30208 3.66324C9.32549 3.65682 9.35804 3.65571 9.40681 3.67737C9.45943 3.70073 9.52097 3.74753 9.57371 3.81719L10.4507 3.15323C10.1628 2.77291 9.62522 2.43392 9.01102 2.60245L9.30208 3.66324ZM5.32076 2.29095C5.32697 2.26721 5.34243 2.2383 5.3858 2.20681C5.43259 2.17284 5.50422 2.14297 5.59119 2.13232L5.45748 1.04047C4.98256 1.09863 4.41813 1.39485 4.25656 2.01261L5.32076 2.29095ZM7.9894 2.01261C7.82782 1.39483 7.26337 1.09861 6.78842 1.04046L6.65474 2.1323C6.74172 2.14295 6.81336 2.17283 6.86015 2.2068C6.90352 2.23829 6.91898 2.26721 6.92519 2.29095L7.9894 2.01261Z" fill="#2D3E50"/>
</svg>
