<svg width="16" height="16" viewBox="0 0 16 16" fill="none" xmlns="http://www.w3.org/2000/svg">
<path d="M1.81042 5.66468L1.16595 5.39143L1.81042 5.66468ZM1.81042 10.7353L1.16596 11.0086L1.81042 10.7353ZM2.61192 12.1199L2.05383 12.5424L2.61192 12.1199ZM6.99909 14.6515L6.91399 15.3463L6.99909 14.6515ZM12.9829 12.1198L12.4248 11.6973L12.9829 12.1198ZM6.99916 1.74853L6.91408 1.05372L6.99916 1.74853ZM8.59549 1.74851L8.51042 2.44332L8.59549 1.74851ZM11.6568 3.13541C11.0451 3.30325 10.4141 2.93896 10.2536 2.32525L8.89922 2.67949C9.25703 4.04758 10.6636 4.85968 12.0273 4.48551L11.6568 3.13541ZM12.4249 4.7028C12.7113 5.08119 12.9523 5.49555 13.1398 5.93771L14.4287 5.39115C14.1956 4.84149 13.8963 4.32705 13.5411 3.85776L12.4249 4.7028ZM14.1132 9.01017C13.6619 8.56431 13.6619 7.83572 14.1132 7.38986L13.1292 6.394C12.1233 7.38792 12.1233 9.01211 13.1292 10.006L14.1132 9.01017ZM13.1398 10.4623C12.9523 10.9045 12.7113 11.3189 12.4248 11.6973L13.541 12.5423C13.8963 12.073 14.1956 11.5585 14.4287 11.0089L13.1398 10.4623ZM10.2536 14.0748C10.4141 13.4611 11.0451 13.0968 11.6568 13.2646L12.0273 11.9145C10.6636 11.5404 9.25703 12.3525 8.89922 13.7205L10.2536 14.0748ZM8.51049 13.9567C8.27708 13.9853 8.03912 14 7.7974 14V15.4C8.09613 15.4 8.39091 15.3818 8.68064 15.3463L8.51049 13.9567ZM7.7974 14C7.55564 14 7.31763 13.9852 7.08418 13.9567L6.91399 15.3463C7.20378 15.3818 7.49862 15.4 7.7974 15.4V14ZM3.9378 13.2646C4.54954 13.0968 5.18053 13.4611 5.34104 14.0748L6.69548 13.7205C6.33768 12.3525 4.93108 11.5404 3.56737 11.9145L3.9378 13.2646ZM3.17001 11.6973C2.88345 11.3189 2.64242 10.9044 2.45488 10.4621L1.16596 11.0086C1.39909 11.5584 1.69843 12.073 2.05383 12.5424L3.17001 11.6973ZM1.4815 7.38986C1.93273 7.83572 1.93273 8.56431 1.4815 9.01017L2.46551 10.006C3.4714 9.01211 3.4714 7.38792 2.46551 6.394L1.4815 7.38986ZM2.45488 5.93793C2.64241 5.49565 2.88341 5.08119 3.16996 4.70271L2.05378 3.85765C1.6984 4.32705 1.39907 4.84162 1.16595 5.39143L2.45488 5.93793ZM5.34104 2.32525C5.18053 2.93896 4.54954 3.30325 3.9378 3.13541L3.56737 4.48551C4.93108 4.85968 6.33768 4.04758 6.69548 2.67949L5.34104 2.32525ZM7.08424 2.44334C7.31767 2.41475 7.55566 2.4 7.7974 2.4V1C7.49865 1 7.20383 1.01823 6.91408 1.05372L7.08424 2.44334ZM7.7974 2.4C8.0391 2.4 8.27704 2.41475 8.51042 2.44332L8.68056 1.0537C8.39086 1.01823 8.0961 1 7.7974 1V2.4ZM7.79743 11.4C9.56474 11.4 10.9974 9.96728 10.9974 8.19997H9.59743C9.59743 9.19408 8.79155 9.99997 7.79743 9.99997V11.4ZM4.59743 8.19997C4.59743 9.96728 6.03012 11.4 7.79743 11.4V9.99997C6.80332 9.99997 5.99743 9.19408 5.99743 8.19997H4.59743ZM7.79743 4.99997C6.03012 4.99997 4.59743 6.43266 4.59743 8.19997H5.99743C5.99743 7.20586 6.80332 6.39997 7.79743 6.39997V4.99997ZM10.9974 8.19997C10.9974 6.43266 9.56474 4.99997 7.79743 4.99997V6.39997C8.79155 6.39997 9.59743 7.20586 9.59743 8.19997H10.9974ZM3.16996 4.70271C3.24323 4.60594 3.32957 4.53971 3.40546 4.50601C3.47647 4.47448 3.52774 4.47463 3.56737 4.48551L3.9378 3.13541C3.13647 2.91553 2.43254 3.35736 2.05378 3.85765L3.16996 4.70271ZM2.46551 6.394C2.43581 6.36466 2.40981 6.31974 2.40161 6.24187C2.39285 6.15869 2.40729 6.05019 2.45488 5.93793L1.16595 5.39143C0.920115 5.97122 0.888885 6.8043 1.4815 7.38986L2.46551 6.394ZM2.45488 10.4621C2.40729 10.3498 2.39286 10.2413 2.40162 10.1581C2.40982 10.0803 2.43581 10.0354 2.46551 10.006L1.4815 9.01017C0.888895 9.59572 0.920125 10.4288 1.16596 11.0086L2.45488 10.4621ZM3.56737 11.9145C3.52775 11.9254 3.47648 11.9255 3.40548 11.894C3.3296 11.8603 3.24327 11.7941 3.17001 11.6973L2.05383 12.5424C2.43259 13.0427 3.13649 13.4845 3.9378 13.2646L3.56737 11.9145ZM7.08418 13.9567C6.96333 13.9419 6.86233 13.9002 6.79485 13.8512C6.7317 13.8054 6.70598 13.7607 6.69548 13.7205L5.34104 14.0748C5.55185 14.8808 6.28921 15.2698 6.91399 15.3463L7.08418 13.9567ZM8.89922 13.7205C8.88873 13.7607 8.863 13.8054 8.79985 13.8512C8.73236 13.9002 8.63135 13.9419 8.51049 13.9567L8.68064 15.3463C9.30544 15.2698 10.0428 14.8809 10.2536 14.0748L8.89922 13.7205ZM13.1292 10.006C13.1589 10.0354 13.1849 10.0803 13.1931 10.1582C13.2018 10.2415 13.1874 10.35 13.1398 10.4623L14.4287 11.0089C14.6746 10.429 14.7059 9.59581 14.1132 9.01017L13.1292 10.006ZM13.1398 5.93771C13.1874 6.05 13.2018 6.15855 13.1931 6.24178C13.1849 6.31969 13.1589 6.36464 13.1292 6.394L14.1132 7.38986C14.7059 6.80421 14.6746 5.971 14.4287 5.39115L13.1398 5.93771ZM12.4248 11.6973C12.3515 11.7941 12.2652 11.8603 12.1893 11.894C12.1182 11.9256 12.0669 11.9254 12.0273 11.9145L11.6568 13.2646C12.4582 13.4845 13.1622 13.0426 13.541 12.5423L12.4248 11.6973ZM12.0273 4.48551C12.0669 4.47463 12.1182 4.47448 12.1893 4.50602C12.2652 4.53973 12.3516 4.60599 12.4249 4.7028L13.5411 3.85776C13.1623 3.35742 12.4583 2.91551 11.6568 3.13541L12.0273 4.48551ZM6.69548 2.67949C6.70598 2.63936 6.73171 2.59463 6.79487 2.54877C6.86236 2.49977 6.96338 2.45814 7.08424 2.44334L6.91408 1.05372C6.28927 1.13023 5.55186 1.51917 5.34104 2.32525L6.69548 2.67949ZM10.2536 2.32525C10.0428 1.51914 9.30539 1.1302 8.68056 1.0537L8.51042 2.44332C8.6313 2.45812 8.73232 2.49975 8.79983 2.54876C8.86299 2.59462 8.88872 2.63936 8.89922 2.67949L10.2536 2.32525Z" fill="#2D3E50"/>
</svg>
