<svg width="12" height="12" viewBox="0 0 12 12" fill="none" xmlns="http://www.w3.org/2000/svg">
<path d="M1.82467 2.96803L1.3539 2.61161L1.82467 2.96803ZM5.35724 11.3189L5.28546 11.905L5.35724 11.3189ZM6.64271 11.3189L6.71448 11.905L6.64271 11.3189ZM10.8207 8.16587L10.277 7.93535L10.8207 8.16587ZM10.8207 4.08262L10.277 4.31314L10.8207 4.08262ZM10.1754 9.28043L10.6462 9.63684L10.1754 9.28043ZM9.10058 2.02038C8.62242 2.15157 8.12923 1.86682 8.00377 1.38713L6.86124 1.68595C7.15313 2.80199 8.30059 3.46447 9.41306 3.15923L9.10058 2.02038ZM9.70468 3.32451C9.93402 3.62745 10.1269 3.95917 10.277 4.31314L11.3642 3.8521C11.1757 3.40745 10.9336 2.9913 10.6462 2.61169L9.70468 3.32451ZM11.1043 6.75749C10.7517 6.409 10.7517 5.83951 11.1043 5.49101L10.2743 4.65097C9.45373 5.46177 9.45373 6.78673 10.2743 7.59754L11.1043 6.75749ZM10.277 7.93535C10.1269 8.28933 9.934 8.62106 9.70464 8.92401L10.6462 9.63684C10.9336 9.25722 11.1757 8.84105 11.3642 8.39638L10.277 7.93535ZM8.00377 10.8614C8.12923 10.3817 8.62242 10.0969 9.10058 10.2281L9.41306 9.08927C8.30059 8.78403 7.15313 9.44652 6.86124 10.5626L8.00377 10.8614ZM6.57095 10.7329C6.38409 10.7557 6.19357 10.7675 6.00003 10.7675V11.9485C6.24166 11.9485 6.48011 11.9338 6.71448 11.905L6.57095 10.7329ZM6.00003 10.7675C5.80646 10.7675 5.61591 10.7557 5.42902 10.7329L5.28546 11.905C5.51987 11.9338 5.75836 11.9485 6.00003 11.9485V10.7675ZM2.89942 10.2281C3.37758 10.0969 3.87076 10.3817 3.99622 10.8614L5.13874 10.5626C4.84685 9.44652 3.69941 8.78403 2.58694 9.08927L2.89942 10.2281ZM2.29548 8.92408C2.06606 8.62106 1.87311 8.28925 1.72298 7.93518L0.635727 8.39618C0.824315 8.84096 1.06646 9.25722 1.35394 9.63693L2.29548 8.92408ZM0.895644 5.49101C1.24834 5.83951 1.24834 6.409 0.895644 6.75749L1.72569 7.59754C2.54626 6.78673 2.54626 5.46177 1.72569 4.65097L0.895644 5.49101ZM1.72298 4.3133C1.8731 3.95925 2.06604 3.62745 2.29544 3.32445L1.3539 2.61161C1.06643 2.9913 0.824293 3.40756 0.635717 3.85231L1.72298 4.3133ZM3.99622 1.38713C3.87076 1.86682 3.37758 2.15157 2.89942 2.02038L2.58694 3.15923C3.69941 3.46447 4.84685 2.80199 5.13874 1.68595L3.99622 1.38713ZM5.42907 1.51565C5.61594 1.49276 5.80648 1.48095 6.00003 1.48095V0.3C5.75839 0.3 5.51992 0.314749 5.28552 0.34345L5.42907 1.51565ZM6.00003 1.48095C6.19356 1.48095 6.38405 1.49276 6.57089 1.51563L6.71441 0.343435C6.48007 0.314744 6.24164 0.3 6.00003 0.3V1.48095ZM6.00005 8.72768C7.4379 8.72768 8.60351 7.56207 8.60351 6.12422H7.42256C7.42256 6.90984 6.78569 7.54673 6.00005 7.54673V8.72768ZM3.39659 6.12422C3.39659 7.56207 4.5622 8.72768 6.00005 8.72768V7.54673C5.21442 7.54673 4.57754 6.90984 4.57754 6.12422H3.39659ZM6.00005 3.52076C4.5622 3.52076 3.39659 4.68637 3.39659 6.12422H4.57754C4.57754 5.33859 5.21442 4.70171 6.00005 4.70171V3.52076ZM8.60351 6.12422C8.60351 4.68637 7.4379 3.52076 6.00005 3.52076V4.70171C6.78569 4.70171 7.42256 5.33859 7.42256 6.12422H8.60351ZM2.29544 3.32445C2.35204 3.24968 2.4181 3.19946 2.47456 3.17439C2.5269 3.15115 2.56182 3.15234 2.58694 3.15923L2.89942 2.02038C2.24008 1.83947 1.66299 2.20334 1.3539 2.61161L2.29544 3.32445ZM1.72569 4.65097C1.7068 4.6323 1.68812 4.60219 1.68207 4.54475C1.67554 4.48284 1.68621 4.40003 1.72298 4.3133L0.635717 3.85231C0.435108 4.32545 0.408061 5.00924 0.895644 5.49101L1.72569 4.65097ZM1.72298 7.93518C1.68621 7.84846 1.67556 7.76566 1.68207 7.70374C1.68812 7.64632 1.7068 7.6162 1.72569 7.59754L0.895644 6.75749C0.408067 7.23926 0.435113 7.92305 0.635727 8.39618L1.72298 7.93518ZM2.58694 9.08927C2.56183 9.09616 2.52691 9.09735 2.47458 9.07412C2.41812 9.04905 2.35207 8.99883 2.29548 8.92408L1.35394 9.63693C1.66304 10.0452 2.2401 10.409 2.89942 10.2281L2.58694 9.08927ZM5.42902 10.7329C5.33566 10.7214 5.25877 10.6894 5.20856 10.6529C5.16199 10.6191 5.14541 10.588 5.13874 10.5626L3.99622 10.8614C4.16967 11.5245 4.7756 11.8426 5.28546 11.905L5.42902 10.7329ZM6.86124 10.5626C6.85459 10.588 6.83799 10.6191 6.79143 10.6529C6.74121 10.6894 6.66432 10.7214 6.57095 10.7329L6.71448 11.905C7.22435 11.8426 7.83031 11.5246 8.00377 10.8614L6.86124 10.5626ZM10.2743 7.59754C10.2932 7.61622 10.3119 7.64635 10.3179 7.70381C10.3245 7.76576 10.3138 7.84859 10.277 7.93535L11.3642 8.39638C11.5649 7.92321 11.592 7.23933 11.1043 6.7575L10.2743 7.59754ZM10.277 4.31314C10.3138 4.3999 10.3245 4.48273 10.3179 4.54468C10.3119 4.60215 10.2932 4.63228 10.2743 4.65097L11.1043 5.49101C11.592 5.00916 11.5649 4.32529 11.3642 3.8521L10.277 4.31314ZM9.70464 8.92401C9.64802 8.99878 9.58195 9.04903 9.52548 9.07411C9.47312 9.09736 9.43819 9.09617 9.41306 9.08927L9.10058 10.2281C9.75996 10.4091 10.337 10.0451 10.6462 9.63684L9.70464 8.92401ZM9.41306 3.15923C9.43819 3.15234 9.47313 3.15115 9.52549 3.1744C9.58199 3.19948 9.64806 3.24973 9.70468 3.32451L10.6462 2.61169C10.3371 2.20338 9.75998 1.83945 9.10058 2.02038L9.41306 3.15923ZM5.13874 1.68595C5.14541 1.66047 5.162 1.62943 5.20857 1.59562C5.2588 1.55915 5.3357 1.52708 5.42907 1.51565L5.28552 0.34345C4.77565 0.405888 4.16968 0.723911 3.99622 1.38713L5.13874 1.68595ZM8.00377 1.38713C7.8303 0.723885 7.22431 0.405864 6.71441 0.343435L6.57089 1.51563C6.66427 1.52706 6.74118 1.55914 6.79142 1.59561C6.83798 1.62942 6.85458 1.66047 6.86124 1.68595L8.00377 1.38713Z" fill="#2D3E50"/>
</svg>
