<svg width="24" height="24" viewBox="0 0 24 24" fill="none" xmlns="http://www.w3.org/2000/svg">
<path d="M9.0388 4.83149L9.90955 5.05921L9.0388 4.83149ZM6.57468 6.25415L6.81282 5.38622L6.57468 6.25415ZM3.84684 10.9789L4.47941 10.3387L3.84684 10.9789ZM3.84684 13.8242L4.47941 14.4644L3.84684 13.8242ZM6.57468 18.549L6.33654 17.6811L6.57468 18.549ZM9.0388 19.9716L8.16808 20.1994L9.0388 19.9716ZM14.4944 19.9716L15.3651 20.1994L14.4944 19.9716ZM16.9585 18.549L17.1967 17.6811L16.9585 18.549ZM19.6864 13.8242L19.0538 14.4644L19.6864 13.8242ZM19.6864 10.9789L19.0538 10.3387L19.6864 10.9789ZM16.9585 6.25415L16.7204 5.38622L16.9585 6.25415ZM14.4944 4.83149L15.3651 4.60376L14.4944 4.83149ZM19.3716 6.70563L20.0916 6.16564L19.3716 6.70563ZM17.4584 6.11699L17.2203 5.24907L17.4584 6.11699ZM20.0571 10.6126L20.6897 11.2528L20.0571 10.6126ZM20.5033 8.66279L21.3306 8.30844L20.5033 8.66279ZM20.5022 16.1399L19.675 15.7853L20.5022 16.1399ZM20.0561 14.1896L19.4236 14.8298L20.0561 14.1896ZM19.3692 18.0975L20.089 18.6378L19.3692 18.0975ZM12.8957 21.8336L12.7899 20.9398L12.8957 21.8336ZM14.3637 20.4716L13.4929 20.2439L14.3637 20.4716ZM4.16411 18.0975L3.44433 18.6378L4.16411 18.0975ZM3.47718 14.1895L2.8446 13.5493L3.47718 14.1895ZM6.0749 6.11702L5.83676 6.98494L6.0749 6.11702ZM4.16176 6.70566L4.88177 7.24564L4.16176 6.70566ZM9.16956 20.4716L8.29885 20.6994L9.16956 20.4716ZM9.17041 4.32827L10.0411 4.556L9.17041 4.32827ZM3.47622 10.6127L2.84365 11.2529L3.47622 10.6127ZM14.3628 4.32826L15.2335 4.10053L14.3628 4.32826ZM11.7666 3.8C12.1129 3.8 12.454 3.82042 12.7889 3.86004L13.0004 2.07251C12.5955 2.0246 12.1838 2 11.7666 2V3.8ZM10.7442 3.86006C11.0792 3.82042 11.4203 3.8 11.7666 3.8V2C11.3495 2 10.9377 2.02461 10.5327 2.07253L10.7442 3.86006ZM8.29969 4.10055L8.16808 4.60376L9.90955 5.05921L10.0411 4.556L8.29969 4.10055ZM8.16808 4.60376C8.01306 5.19649 7.40365 5.54833 6.81282 5.38622L6.33654 7.12207C7.89418 7.54945 9.50081 6.62186 9.90955 5.05921L8.16808 4.60376ZM6.81282 5.38622L6.31304 5.24909L5.83676 6.98494L6.33654 7.12207L6.81282 5.38622ZM3.85728 9.01723C4.12838 8.38428 4.47343 7.79011 4.88177 7.24564L3.44174 6.16567C2.94834 6.82358 2.53089 7.54221 2.20266 8.30855L3.85728 9.01723ZM2.84365 11.2529L3.21426 11.6191L4.47941 10.3387L4.10879 9.97251L2.84365 11.2529ZM3.21426 11.6191C3.65007 12.0497 3.65007 12.7534 3.21426 13.184L4.47941 14.4644C5.62835 13.3292 5.62835 11.474 4.47941 10.3387L3.21426 11.6191ZM3.21426 13.184L2.8446 13.5493L4.10975 14.8297L4.47941 14.4644L3.21426 13.184ZM4.8839 17.5572C4.47516 17.0127 4.12973 16.4183 3.85832 15.7852L2.20392 16.4944C2.53253 17.261 2.95042 17.9798 3.44433 18.6378L4.8839 17.5572ZM6.31497 19.5535L6.81282 19.4169L6.33654 17.6811L5.83869 17.8177L6.31497 19.5535ZM6.81282 19.4169C7.40365 19.2548 8.01306 19.6066 8.16808 20.1994L9.90955 19.7439C9.50081 18.1813 7.89418 17.2537 6.33654 17.6811L6.81282 19.4169ZM8.16808 20.1994L8.29885 20.6994L10.0402 20.2439L9.90955 19.7439L8.16808 20.1994ZM11.7666 21C11.42 21 11.0785 20.9795 10.7433 20.9398L10.5316 22.7273C10.9369 22.7753 11.3491 22.8 11.7666 22.8V21ZM12.7899 20.9398C12.4547 20.9795 12.1132 21 11.7666 21V22.8C12.1841 22.8 12.5962 22.7754 13.0015 22.7274L12.7899 20.9398ZM15.2344 20.6994L15.3651 20.1994L13.6237 19.7439L13.4929 20.2439L15.2344 20.6994ZM15.3651 20.1994C15.5202 19.6066 16.1296 19.2548 16.7204 19.4169L17.1967 17.6811C15.639 17.2537 14.0324 18.1813 13.6237 19.7439L15.3651 20.1994ZM16.7204 19.4169L17.2184 19.5535L17.6946 17.8177L17.1967 17.6811L16.7204 19.4169ZM19.675 15.7853C19.4036 16.4184 19.0582 17.0127 18.6494 17.5572L20.089 18.6378C20.5829 17.9798 21.0008 17.261 21.3294 16.4945L19.675 15.7853ZM20.6887 13.5494L20.319 13.184L19.0538 14.4644L19.4236 14.8298L20.6887 13.5494ZM20.319 13.184C19.8832 12.7534 19.8832 12.0497 20.319 11.6191L19.0538 10.3387C17.9049 11.474 17.9049 13.3292 19.0538 14.4644L20.319 13.184ZM20.319 11.6191L20.6897 11.2528L19.4245 9.97242L19.0538 10.3387L20.319 11.6191ZM18.6516 7.24561C19.0599 7.79006 19.4049 8.38421 19.676 9.01714L21.3306 8.30844C21.0024 7.54212 20.585 6.82352 20.0916 6.16564L18.6516 7.24561ZM17.2203 5.24907L16.7204 5.38622L17.1967 7.12207L17.6966 6.98491L17.2203 5.24907ZM16.7204 5.38622C16.1296 5.54833 15.5202 5.19649 15.3651 4.60376L13.6237 5.05921C14.0324 6.62186 15.639 7.54945 17.1967 7.12207L16.7204 5.38622ZM15.3651 4.60376L15.2335 4.10053L13.4921 4.55599L13.6237 5.05921L15.3651 4.60376ZM11.7666 16.8C14.1967 16.8 16.1666 14.83 16.1666 12.4H14.3666C14.3666 13.8359 13.2026 15 11.7666 15V16.8ZM7.36667 12.4C7.36667 14.83 9.33662 16.8 11.7666 16.8V15C10.3307 15 9.16667 13.8359 9.16667 12.4H7.36667ZM11.7666 7.99999C9.33662 7.99999 7.36667 9.96994 7.36667 12.4H9.16667C9.16667 10.964 10.3307 9.79999 11.7666 9.79999V7.99999ZM16.1666 12.4C16.1666 9.96994 14.1967 7.99999 11.7666 7.99999V9.79999C13.2026 9.79999 14.3666 10.964 14.3666 12.4H16.1666ZM20.0916 6.16564C19.3932 5.23448 18.2173 4.9755 17.2203 5.24907L17.6966 6.98491C18.1103 6.87139 18.4722 7.00641 18.6516 7.24561L20.0916 6.16564ZM20.6897 11.2528C21.4245 10.5267 21.7892 9.37895 21.3306 8.30844L19.676 9.01714C19.7932 9.29069 19.7298 9.67081 19.4245 9.97242L20.6897 11.2528ZM21.3294 16.4945C21.7884 15.4238 21.4237 14.2756 20.6887 13.5494L19.4236 14.8298C19.7289 15.1315 19.7923 15.5117 19.675 15.7853L21.3294 16.4945ZM17.2184 19.5535C18.2151 19.827 19.3905 19.5683 20.089 18.6378L18.6494 17.5572C18.47 17.7963 18.1082 17.9312 17.6946 17.8177L17.2184 19.5535ZM13.0015 22.7274C14.1592 22.5903 14.9726 21.7002 15.2344 20.6994L13.4929 20.2439C13.3843 20.6595 13.0862 20.9048 12.7899 20.9398L13.0015 22.7274ZM3.44433 18.6378C4.1428 19.5683 5.31825 19.827 6.31497 19.5535L5.83869 17.8177C5.4251 17.9311 5.06334 17.7963 4.8839 17.5572L3.44433 18.6378ZM2.8446 13.5493C2.1096 14.2755 1.74496 15.4237 2.20392 16.4944L3.85832 15.7852C3.74105 15.5116 3.80442 15.1314 4.10975 14.8297L2.8446 13.5493ZM6.31304 5.24909C5.31598 4.97552 4.14009 5.2345 3.44174 6.16567L4.88177 7.24564C5.06116 7.00644 5.42302 6.87142 5.83676 6.98494L6.31304 5.24909ZM8.29885 20.6994C8.56061 21.7002 9.37404 22.5902 10.5316 22.7273L10.7433 20.9398C10.447 20.9047 10.1489 20.6595 10.0402 20.2439L8.29885 20.6994ZM10.5327 2.07253C9.37504 2.20951 8.56148 3.0996 8.29969 4.10055L10.0411 4.556C10.1498 4.1404 10.4479 3.89512 10.7442 3.86006L10.5327 2.07253ZM2.20266 8.30855C1.74416 9.37906 2.10883 10.5268 2.84365 11.2529L4.10879 9.97251C3.80354 9.67089 3.74012 9.29078 3.85728 9.01723L2.20266 8.30855ZM12.7889 3.86004C13.0853 3.8951 13.3834 4.14038 13.4921 4.55599L15.2335 4.10053C14.9717 3.09957 14.1582 2.20948 13.0004 2.07251L12.7889 3.86004Z" fill="#2D3E50"/>
</svg>
