<svg width="24" height="24" viewBox="0 0 24 24" fill="none" xmlns="http://www.w3.org/2000/svg">
<path d="M3.38525 1L4.03368 1.73296C4.22318 1.63135 4.38308 1.50013 4.56153 1.46523C4.68477 1.44137 4.86631 1.51559 4.96614 1.60705C5.32834 1.93885 5.66493 2.29937 6.01653 2.64354C6.20824 2.83131 6.20647 3.12379 5.99754 3.35574C5.93373 3.4273 5.86589 3.49515 5.79435 3.55897C5.72324 3.62171 5.64505 3.67605 5.55936 3.74232L9.27328 7.40494C9.76579 6.91453 10.2892 6.39717 10.8074 5.87494C11.1461 5.53387 11.4076 5.52768 11.7482 5.86832C12.0291 6.14931 12.3089 6.43148 12.5875 6.71483C12.8821 7.01482 12.8803 7.29581 12.5795 7.59845C12.3145 7.86354 12.045 8.12465 11.7601 8.40475L12.0693 8.65924C12.4956 8.32655 12.9934 8.16662 13.5557 8.24438C14.0274 8.30976 14.4148 8.53907 14.7311 8.88633C14.8963 9.06747 14.8636 9.38867 14.6847 9.56893C14.5846 9.66337 14.4528 9.71692 14.3152 9.71905C14.1777 9.72118 14.0443 9.67172 13.9413 9.58041C13.6617 9.33565 13.3503 9.2685 12.9978 9.35951C12.9421 9.37991 12.888 9.40458 12.8361 9.43329L14.1538 10.654C14.6975 10.2122 15.3764 10.1296 16.0863 10.4305C16.3221 10.5308 16.5377 10.7066 16.725 10.8869C16.9317 11.0861 16.9043 11.3609 16.7082 11.554C16.4931 11.7652 16.2104 11.7846 15.9931 11.603C15.6618 11.326 15.1847 11.2783 14.8362 11.4983C14.9338 11.592 15.0292 11.6821 15.1238 11.7736C15.4553 12.0976 15.7862 12.4202 16.1163 12.7416C17.0545 12.0166 18.0709 12.271 18.7922 12.9457C19.1305 13.2625 19.4508 13.5987 19.7746 13.9309C20.0365 14.1995 20.0334 14.4752 19.7688 14.7439C19.495 15.0209 19.2162 15.2935 18.9216 15.5833C19.3426 16.0203 19.7512 16.4488 20.1677 16.8703C20.2119 16.9145 20.3002 16.9299 20.3691 16.9388C21.9924 17.1464 23.1029 18.5156 22.9924 20.1768C22.9419 20.9419 22.6025 21.6592 22.043 22.1834C21.4835 22.7076 20.7457 22.9995 19.9791 23C18.3655 23.004 17.1777 21.9927 16.9123 20.3968C16.8925 20.2922 16.8431 20.1955 16.77 20.1181C16.3826 19.7164 15.9851 19.3228 15.5739 18.9119C15.2801 19.2075 14.9966 19.4933 14.7121 19.7779C14.3954 20.0951 14.2293 20.0942 13.9258 19.7814C13.6083 19.454 13.288 19.1288 12.9687 18.8028C12.758 18.5876 12.7655 18.2726 12.9793 18.0592C13.2787 17.7579 13.5729 17.4513 13.8826 17.1341L13.5826 16.8403C13.2456 17.1031 12.8874 17.29 12.4607 17.3218C11.8308 17.3691 11.3065 17.1531 10.874 16.7033C10.7035 16.5266 10.7287 16.2071 10.9182 16.0225C11.1077 15.8378 11.4712 15.8457 11.6815 16.041C12.0269 16.3653 12.3971 16.3945 12.7911 16.1378C12.3644 15.7119 11.9364 15.2842 11.4898 14.8375C11.0945 15.1963 10.59 15.3262 10.0321 15.2762C9.58027 15.2365 9.19952 15.0439 8.87972 14.7319C8.82837 14.6842 8.78701 14.6267 8.75803 14.5628C8.72905 14.499 8.71303 14.43 8.71089 14.3599C8.70876 14.2898 8.72055 14.2199 8.74558 14.1544C8.77062 14.0889 8.8084 14.029 8.85675 13.9782C9.05728 13.7714 9.34263 13.7706 9.58601 13.9782C9.92127 14.2601 10.3705 14.2923 10.7698 14.0524C10.3246 13.6362 9.88284 13.2231 9.427 12.7977C9.22177 12.9638 8.98445 13.0858 8.7299 13.156C8.47535 13.2262 8.20906 13.243 7.9477 13.2055C7.53649 13.1497 7.15518 12.9597 6.86285 12.6651C6.53157 12.3411 6.20205 12.0148 5.8743 11.6861C5.60927 11.4188 5.60927 11.0808 5.87872 10.8095C6.34988 10.3327 6.82207 9.85773 7.29529 9.38469C7.35882 9.33151 7.42714 9.28433 7.49936 9.24376L3.78279 5.5807C3.71653 5.64609 3.61141 5.74594 3.50981 5.84932C3.22402 6.14091 2.92543 6.14312 2.63036 5.85462C2.3353 5.56612 2.04907 5.29043 1.7593 5.00678C1.44304 4.69752 1.43509 4.46778 1.72794 4.13421C1.7518 4.10682 1.77211 4.07633 1.78272 4.06175L1 3.12069V2.85561C1.07509 2.76724 1.144 2.67005 1.22616 2.58743C1.75268 2.05637 2.28097 1.52723 2.81102 1H3.38525ZM14.0809 12.3236L12.3162 13.9817L13.6228 15.3248L15.3406 13.5576L14.0809 12.3236ZM12.0755 10.2829L10.3064 11.9419L11.5821 13.2196L13.2584 11.5036L12.0755 10.2829ZM18.2153 20.9305C18.429 21.3059 18.7589 21.6017 19.1553 21.7732C19.5516 21.9448 19.993 21.9829 20.4128 21.8818C21.2198 21.6825 21.8957 20.8687 21.9314 20.0527C21.9641 19.3082 21.5101 18.4621 20.9897 18.289C21.3047 19.1505 21.2371 19.9528 20.559 20.6244C19.881 21.2959 19.0877 21.3282 18.2162 20.9305H18.2153ZM19.3753 20.1388C19.836 20.1627 20.2384 19.8711 20.3395 19.4319C20.446 18.9685 20.23 18.5041 19.7922 18.3588C19.601 18.2943 19.3766 18.3106 19.1685 18.319C18.7586 18.3358 18.4101 18.653 18.3606 19.0316C18.2953 19.5304 18.5161 19.9343 18.9428 20.0681C19.0815 20.1114 19.2317 20.1163 19.3753 20.1388ZM14.3031 18.6331L18.6804 14.3184L18.4693 14.0825C17.0081 15.5219 15.554 16.9542 14.0888 18.3981L14.3031 18.6331ZM11.359 6.91453L6.98168 11.2164L7.16587 11.4298L11.5569 7.10937L11.359 6.91453ZM18.0912 16.4135L16.3809 18.1913L16.9838 18.7772C17.2237 18.4498 17.4326 18.0778 17.7246 17.7906C18.0165 17.5034 18.3977 17.294 18.7321 17.0563L18.0912 16.4135ZM4.60349 4.76909L8.23658 8.40255L8.47069 8.15292L8.39339 8.19975L4.81905 4.5526L4.60349 4.76909ZM14.6003 16.3445L16.3778 14.5817L16.0858 14.3109L14.3631 16.0887L14.6003 16.3445ZM4.59201 2.70716L2.79424 4.5557L3.05131 4.82918L3.012 4.76511L4.87559 2.9718C4.78371 2.88653 4.6989 2.80701 4.59201 2.70716ZM9.51092 11.2513L11.2336 9.47968L11.0233 9.23227L9.24943 10.9659L9.51092 11.2513ZM2.55571 3.19183C2.82074 2.94353 3.08179 2.70141 3.31899 2.48007L3.14982 2.24944L2.40156 2.99699L2.55571 3.19183ZM8.50912 11.7718L8.09479 12.1646C8.33155 12.1995 8.54755 12.173 8.73748 11.9839L8.50912 11.7718ZM17.1592 13.7732L17.5201 13.4198L17.5148 13.3778L16.8738 13.5081L17.1592 13.7732Z" fill="#2D3E50"/>
</svg>
