<svg width="16" height="16" viewBox="0 0 16 16" fill="none" xmlns="http://www.w3.org/2000/svg">
<path d="M2.25682 0.666672L2.68911 1.15531C2.81544 1.08757 2.92204 1.00009 3.04101 0.976823C3.12317 0.960918 3.2442 1.0104 3.31075 1.07137C3.55222 1.29257 3.77661 1.53292 4.01101 1.76236C4.13881 1.88754 4.13764 2.08253 3.99835 2.23716C3.95581 2.28487 3.91059 2.33011 3.86289 2.37265C3.81548 2.41448 3.76336 2.45071 3.70623 2.49489L6.18218 4.93663C6.51052 4.60969 6.85947 4.26478 7.20489 3.91663C7.43075 3.68925 7.60508 3.68513 7.83212 3.91222C8.01941 4.09954 8.20591 4.28766 8.39162 4.47656C8.58804 4.67655 8.58686 4.86388 8.38632 5.06564C8.20964 5.24236 8.03001 5.41644 7.84007 5.60317L8.04621 5.77283C8.33037 5.55104 8.66225 5.44442 9.03711 5.49626C9.35161 5.53985 9.60987 5.69272 9.82071 5.92422C9.93085 6.04499 9.90906 6.25912 9.78979 6.37929C9.72307 6.44225 9.6352 6.47795 9.54348 6.47937C9.45176 6.48079 9.36283 6.44782 9.29419 6.38695C9.10779 6.22377 8.90018 6.179 8.66519 6.23968C8.62806 6.25328 8.59202 6.26972 8.55741 6.28887L9.43583 7.10268C9.79833 6.80814 10.2509 6.75306 10.7242 6.95364C10.8814 7.02051 11.0251 7.13773 11.15 7.25791C11.2878 7.39074 11.2695 7.57395 11.1388 7.70266C10.9954 7.84345 10.8069 7.85641 10.662 7.73536C10.4412 7.55068 10.1231 7.51887 9.8908 7.66555C9.95588 7.72799 10.0195 7.78808 10.0825 7.84905C10.3036 8.06504 10.5241 8.28016 10.7442 8.49439C11.3697 8.01105 12.0472 8.1807 12.5281 8.63047C12.7537 8.84165 12.9672 9.0658 13.183 9.28729C13.3577 9.46637 13.3556 9.65017 13.1792 9.82925C12.9966 10.0139 12.8108 10.1957 12.6144 10.3889C12.895 10.6802 13.1674 10.9659 13.4451 11.2469C13.4746 11.2763 13.5335 11.2866 13.5794 11.2925C14.6616 11.431 15.4019 12.3437 15.3283 13.4512C15.2946 13.9613 15.0683 14.4395 14.6953 14.789C14.3223 15.1384 13.8305 15.333 13.3194 15.3333C12.2437 15.336 11.4518 14.6618 11.2748 13.5979C11.2616 13.5281 11.2287 13.4636 11.18 13.412C10.9218 13.1443 10.6567 12.8819 10.3826 12.6079C10.1867 12.805 9.99769 12.9956 9.80805 13.1852C9.59691 13.3967 9.48619 13.3961 9.28389 13.1876C9.07216 12.9693 8.85866 12.7526 8.64576 12.5352C8.50529 12.3918 8.5103 12.1817 8.65282 12.0395C8.85248 11.8386 9.0486 11.6342 9.25503 11.4227L9.05508 11.2268C8.83039 11.4021 8.59157 11.5267 8.30711 11.5479C7.88719 11.5794 7.53765 11.4354 7.24936 11.1355C7.13569 11.0177 7.15247 10.8048 7.2788 10.6816C7.40513 10.5585 7.64749 10.5638 7.78766 10.694C8.01794 10.9102 8.26471 10.9297 8.52738 10.7585C8.24292 10.4746 7.95757 10.1895 7.65985 9.89169C7.3963 10.1309 7.06001 10.2175 6.68809 10.1842C6.38684 10.1577 6.133 10.0292 5.9198 9.82129C5.88557 9.78945 5.858 9.75113 5.83868 9.70855C5.81936 9.66597 5.80868 9.61998 5.80725 9.57325C5.80583 9.52651 5.81369 9.47996 5.83038 9.43628C5.84707 9.39261 5.87226 9.35268 5.90449 9.31881C6.03818 9.18096 6.22841 9.18037 6.39067 9.31881C6.61417 9.50672 6.91365 9.52823 7.17986 9.36829C6.88303 9.09083 6.58855 8.81544 6.28465 8.53179C6.14783 8.64257 5.98962 8.72389 5.81992 8.77067C5.65022 8.81745 5.4727 8.82868 5.29846 8.80366C5.02432 8.76645 4.77011 8.63983 4.57523 8.44343C4.35437 8.22744 4.13469 8.00987 3.91619 7.79073C3.73951 7.61253 3.73951 7.38721 3.91914 7.20636C4.23324 6.88845 4.54804 6.57182 4.86352 6.25647C4.90587 6.22101 4.95141 6.18956 4.99956 6.16251L2.52185 3.72047C2.47768 3.76406 2.40759 3.83063 2.33986 3.89955C2.14934 4.09395 1.95027 4.09542 1.75356 3.90309C1.55686 3.71075 1.36604 3.52696 1.17286 3.33786C0.962015 3.13168 0.956715 2.97852 1.15195 2.75614C1.16785 2.73788 1.1814 2.71756 1.18847 2.70784L0.666656 2.08047V1.90374C0.716717 1.84483 0.762655 1.78004 0.817428 1.72496C1.16844 1.37092 1.52063 1.01816 1.874 0.666672H2.25682ZM9.38725 8.21575L8.21082 9.32116L9.08187 10.2166L10.2271 9.0384L9.38725 8.21575ZM8.05033 6.85527L6.87095 7.96127L7.7214 8.81308L8.83893 7.66908L8.05033 6.85527ZM12.1435 13.9537C12.286 14.204 12.5059 14.4011 12.7702 14.5155C13.0344 14.6299 13.3286 14.6553 13.6085 14.5878C14.1466 14.455 14.5971 13.9125 14.621 13.3684C14.6427 12.8721 14.34 12.3081 13.9931 12.1926C14.2031 12.767 14.158 13.3019 13.706 13.7496C13.254 14.1973 12.7251 14.2188 12.1441 13.9537H12.1435ZM12.9168 13.4259C13.224 13.4418 13.4922 13.2474 13.5597 12.9546C13.6306 12.6456 13.4866 12.3361 13.1948 12.2392C13.0673 12.1962 12.9177 12.2071 12.779 12.2127C12.5057 12.2239 12.2734 12.4353 12.2404 12.6878C12.1968 13.0203 12.3441 13.2895 12.6285 13.3788C12.721 13.4076 12.8211 13.4109 12.9168 13.4259ZM9.53537 12.4221L12.4536 9.5456L12.3129 9.38832C11.3387 10.3479 10.3693 11.3028 9.39255 12.2654L9.53537 12.4221ZM7.57269 4.60969L4.65444 7.47763L4.77724 7.6199L7.70461 4.73958L7.57269 4.60969ZM12.0608 10.9423L10.9206 12.1275L11.3225 12.5181C11.4824 12.2999 11.6217 12.0518 11.8164 11.8604C12.011 11.6689 12.2652 11.5293 12.4881 11.3709L12.0608 10.9423ZM3.06899 3.1794L5.49104 5.6017L5.64712 5.43529L5.59558 5.46651L3.21269 3.03507L3.06899 3.1794ZM9.73355 10.8964L10.9185 9.72115L10.7239 9.5406L9.57542 10.7258L9.73355 10.8964ZM3.06133 1.80478L1.86281 3.03714L2.0342 3.21946L2.00799 3.17675L3.25038 1.98121C3.18913 1.92436 3.13259 1.87134 3.06133 1.80478ZM6.3406 7.5009L7.48906 6.31979L7.34889 6.15485L6.16628 7.31063L6.3406 7.5009ZM1.7038 2.12789C1.88048 1.96236 2.05452 1.80095 2.21265 1.65338L2.09987 1.49963L1.60103 1.998L1.7038 2.12789ZM5.67274 7.84787L5.39652 8.10972C5.55436 8.13299 5.69835 8.11531 5.82498 7.98925L5.67274 7.84787ZM11.4394 9.18214L11.68 8.94651L11.6765 8.91853L11.2492 9.00541L11.4394 9.18214Z" fill="#2D3E50"/>
</svg>
