<svg width="24" height="24" viewBox="0 0 24 24" fill="none" xmlns="http://www.w3.org/2000/svg">
<path d="M2.25457 3.65455L3.69093 2.25455C3.70911 2.20001 3.7273 2.18182 3.76366 2.18182H3.85457H4.03639L4.78184 3.00001L5.1273 2.67273C5.14548 2.61819 5.16366 2.60001 5.20002 2.60001H5.29093C5.30911 2.58182 5.30911 2.58182 5.3273 2.58182H5.34548C5.38184 2.58182 5.40002 2.58182 5.4182 2.60001C5.43639 2.61819 5.45457 2.63637 5.45457 2.67273H5.47275L6.38184 3.61819C6.4182 3.61819 6.43639 3.63637 6.45457 3.67273C6.47275 3.7091 6.49093 3.72728 6.49093 3.76364V3.78182V3.80001C6.49093 3.83637 6.49093 3.85455 6.47275 3.89091C6.45457 3.92728 6.43639 3.94546 6.4182 3.96364L5.85457 4.52728L9.6182 8.3091L11.3455 6.56364C11.3818 6.52728 11.4 6.5091 11.4364 6.5091C11.4727 6.5091 11.4909 6.49091 11.5273 6.49091C11.5637 6.49091 11.5818 6.49091 11.6182 6.5091C11.6546 6.52728 11.6727 6.54546 11.6909 6.56364L12.6182 7.5091C12.6364 7.54546 12.6546 7.56364 12.6727 7.58182C12.6909 7.60001 12.6909 7.63637 12.6909 7.69091C12.6909 7.72728 12.6909 7.74546 12.6727 7.76364C12.6546 7.78182 12.6364 7.81819 12.6182 7.83637L11.6182 8.83637L12.2182 9.43637L12.2909 9.36364C12.4364 9.21819 12.6182 9.1091 12.8 9.03637C12.9818 8.96364 13.1818 8.9091 13.4182 8.9091C13.6364 8.9091 13.8364 8.96364 14.0364 9.05455C14.2364 9.14546 14.4 9.27273 14.5455 9.41819C14.5818 9.43637 14.6 9.45455 14.6 9.49091C14.6 9.52728 14.6182 9.54546 14.6182 9.58182C14.6182 9.61819 14.6182 9.63637 14.6 9.67273C14.6 9.7091 14.5818 9.72728 14.5455 9.74546C14.5273 9.78182 14.5091 9.80001 14.4727 9.80001C14.4364 9.80001 14.4 9.81819 14.3637 9.81819C14.3273 9.81819 14.3091 9.81819 14.2727 9.80001C14.2364 9.80001 14.2182 9.78182 14.1818 9.74546C14.0909 9.65455 13.9818 9.58182 13.8364 9.52728C13.6909 9.47273 13.5637 9.45455 13.4182 9.45455C13.2727 9.45455 13.1273 9.47273 13 9.52728C12.8727 9.58182 12.7637 9.63637 12.6546 9.72728L12.6 9.80001L14.1273 11.3636L14.2 11.3091C14.3273 11.1636 14.4727 11.0364 14.6546 10.9455C14.8364 10.8546 15.0364 10.8182 15.2546 10.8182H15.2727H15.2909H15.3091C15.5273 10.8182 15.7273 10.8546 15.9091 10.9455C16.0909 11.0364 16.2546 11.1455 16.4 11.2727C16.4364 11.3091 16.4546 11.3273 16.4546 11.3455C16.4546 11.3636 16.4727 11.4 16.4727 11.4182V11.4364V11.4546V11.5455C16.4727 11.5455 16.4546 11.5636 16.4 11.6182C16.3637 11.6364 16.3455 11.6546 16.3273 11.6727C16.3091 11.6909 16.2727 11.6909 16.2546 11.6909C16.2182 11.6909 16.2 11.6909 16.1637 11.6727C16.1273 11.6727 16.1091 11.6546 16.0909 11.6182C15.9818 11.5273 15.8727 11.4546 15.7455 11.4182C15.6182 11.3636 15.4727 11.3455 15.3273 11.3455C15.1818 11.3455 15.0364 11.3636 14.9091 11.4182C14.7818 11.4727 14.6546 11.5273 14.5637 11.6182L14.4909 11.6909L16.1091 13.2727V13.2C16.2546 13.0546 16.4 12.9273 16.6 12.8364C16.7818 12.7455 17 12.7091 17.2182 12.7091C17.4546 12.7273 17.6546 12.7818 17.8364 12.8727C18.0182 12.9636 18.2 13.0727 18.3455 13.2182L19.3273 14.2C19.3455 14.2182 19.3637 14.2364 19.3637 14.2727C19.3818 14.3091 19.3818 14.3273 19.3818 14.3636C19.3818 14.4 19.3818 14.4182 19.3637 14.4546C19.3455 14.4909 19.3273 14.5091 19.3273 14.5273L18.3273 15.5273L19.7637 17.0182H19.7818C20.1091 17.0364 20.4182 17.1091 20.7091 17.2364C21 17.3636 21.2546 17.5455 21.4909 17.7455C21.7273 17.9818 21.8909 18.2727 22.0182 18.5818C22.1455 18.8909 22.2182 19.2182 22.2182 19.5818C22.2182 19.9455 22.1455 20.2909 22.0182 20.6182C21.8727 20.9455 21.6909 21.2182 21.4546 21.4727C21.2182 21.7091 20.9637 21.8727 20.6546 22.0182C20.3455 22.1455 20.0182 22.2182 19.6727 22.2182H19.6546H19.6364H19.6182H19.6C19.2364 22.2182 18.8909 22.1455 18.5818 22.0182C18.2727 21.8909 18 21.7091 17.7455 21.4727C17.5273 21.2364 17.3637 20.9818 17.2364 20.6909C17.1091 20.4 17.0364 20.0909 17.0182 19.7818L15.5455 18.2909L14.5455 19.2909L14.4727 19.3636C14.4727 19.3636 14.4546 19.3818 14.4 19.4C14.3455 19.4182 14.3273 19.4182 14.3273 19.3818C14.3273 19.3455 14.3091 19.3273 14.2727 19.3273L13.3091 18.3455C13.2727 18.3273 13.2546 18.3091 13.2546 18.2727C13.2546 18.2364 13.2364 18.2182 13.2364 18.1818C13.2364 18.1455 13.2364 18.1273 13.2546 18.0909C13.2546 18.0546 13.2727 18.0364 13.3091 18.0182L14.3273 16.9636L13.6364 16.3273L13.5455 16.4364C13.4 16.5818 13.2546 16.6909 13.0727 16.7636C12.8909 16.8545 12.7091 16.8909 12.5091 16.8909H12.4909H12.4727H12.4546C12.2364 16.8909 12.0546 16.8546 11.8727 16.7818C11.6909 16.7091 11.5455 16.6 11.4 16.4545H11.3455C11.3273 16.4364 11.3091 16.4182 11.2909 16.3818C11.2727 16.3455 11.2727 16.3273 11.2727 16.2727C11.2727 16.2364 11.2727 16.2182 11.2909 16.1818L11.3455 16.0909C11.3818 16.0727 11.4 16.0727 11.4364 16.0546C11.4727 16.0546 11.4909 16.0364 11.5273 16.0364C11.5637 16.0364 11.5818 16.0364 11.6182 16.0546C11.6546 16.0546 11.6727 16.0727 11.6909 16.0909C11.7818 16.2 11.8909 16.2727 12.0182 16.3455C12.1455 16.4 12.2727 16.4364 12.4 16.4364H12.4182H12.4727C12.6182 16.4364 12.7455 16.4182 12.8727 16.3636C13 16.3091 13.1091 16.2364 13.2 16.1455L13.2182 16.1273C13.2182 16.1273 13.2182 16.1091 13.2364 16.0909L13.3455 16.0182L11.7455 14.4364L11.6727 14.5091C11.5273 14.6546 11.3818 14.7818 11.2 14.8727C11.0182 14.9636 10.8182 15 10.6 15H10.5273H10.5091H10.4909C10.2909 15 10.1091 14.9636 9.92729 14.8909C9.74548 14.8182 9.60002 14.7091 9.45457 14.6H9.47275L9.40002 14.5273C9.36366 14.5091 9.34548 14.4909 9.34548 14.4546C9.34548 14.4182 9.32729 14.4 9.32729 14.3636C9.32729 14.3091 9.34548 14.2545 9.40002 14.2C9.45457 14.1455 9.49093 14.1273 9.56366 14.1273C9.60002 14.1273 9.6182 14.1273 9.65457 14.1455C9.69093 14.1455 9.70911 14.1636 9.72729 14.2C9.83639 14.2909 9.96366 14.3636 10.0909 14.4182C10.2364 14.4727 10.3637 14.4909 10.5273 14.4909C10.6909 14.4909 10.8182 14.4727 10.9455 14.4182C11.0727 14.3636 11.2 14.2909 11.2909 14.2L11.3637 14.0909L9.83639 12.5273L9.72729 12.6182C9.58184 12.7636 9.43639 12.8727 9.23639 12.9455C9.05457 13.0364 8.85457 13.0727 8.63639 13.0727C8.4182 13.0727 8.2182 13.0364 8.03639 12.9636C7.85457 12.8909 7.69093 12.7818 7.56366 12.6364H7.54548V12.6182L6.56366 11.6546C6.54548 11.6182 6.54548 11.6 6.5273 11.5636C6.5273 11.5273 6.50911 11.5091 6.50911 11.4727C6.50911 11.4364 6.50911 11.4182 6.5273 11.3818C6.5273 11.3455 6.54548 11.3273 6.56366 11.3091L8.29093 9.56364L4.56366 5.80001L4.03639 6.34546L3.85457 6.41819L3.69093 6.34546L2.7273 5.40001C2.69093 5.36364 2.67275 5.34546 2.67275 5.32728C2.67275 5.3091 2.65457 5.27273 2.65457 5.25455C2.65457 5.21819 2.65457 5.20001 2.67275 5.16364C2.67275 5.12728 2.69093 5.1091 2.7273 5.09091L3.0182 4.74546L2.23639 3.98182L2.18184 3.89091C2.18184 3.89091 2.18184 3.85455 2.16366 3.80001C2.14548 3.74546 2.16366 3.7091 2.18184 3.7091C2.20002 3.7091 2.25457 3.69091 2.25457 3.65455ZM15.8727 17.9091L17.0182 19.0727V18.9273C17.0364 18.8727 17.0364 18.8364 17.0546 18.8C17.0546 18.7636 17.0727 18.7273 17.0909 18.6727C17.1455 18.4909 17.2364 18.3091 17.3455 18.1636C17.4546 18 17.5637 17.8546 17.6909 17.7455C17.8546 17.6 18.0364 17.4546 18.2182 17.3455C18.4 17.2364 18.6182 17.1455 18.8364 17.0909H18.8546H19.0182L17.8727 15.9455L15.8727 17.9091ZM18.0909 21.0546C18.2727 21.2364 18.4909 21.3818 18.7455 21.5091C19 21.6182 19.2727 21.6727 19.5455 21.6727H19.6182C19.9091 21.6727 20.1637 21.6182 20.4182 21.5091C20.6546 21.4 20.8727 21.2546 21.0546 21.0546C21.2546 20.8727 21.4 20.6545 21.5273 20.4C21.6364 20.1455 21.6909 19.8909 21.6909 19.6182C21.6909 19.3273 21.6364 19.0546 21.5455 18.8C21.4546 18.5455 21.3091 18.3273 21.1273 18.1273C21.1273 18.1091 21.1273 18.1091 21.1091 18.1091C21.0909 18.1091 21.0727 18.0909 21.0546 18.0546C20.9091 17.9091 20.7273 17.8 20.5455 17.6909C20.3637 17.5818 20.1818 17.5091 19.9818 17.4545H19.9637L19.6 17.3818L19.9273 17.6545L20.0727 17.7455C20.2182 17.8909 20.3091 18.0364 20.4 18.2182C20.4727 18.4 20.5091 18.5818 20.5091 18.8V18.8545V18.9091C20.5091 19.1273 20.4727 19.3273 20.3818 19.5091C20.2909 19.6909 20.1818 19.8727 20.0546 20C19.9091 20.1455 19.7637 20.2727 19.5637 20.3636C19.3818 20.4545 19.1637 20.4909 18.9637 20.4909H18.9091C18.6909 20.4909 18.4909 20.4545 18.2909 20.3636C18.0909 20.2727 17.9273 20.1636 17.7818 20L17.7091 19.9091L17.4364 19.5636L17.5091 19.9818C17.5637 20.2 17.6182 20.3818 17.7091 20.5636C17.8182 20.7455 17.9273 20.9091 18.0909 21.0546ZM18.1455 19.6909H18.1818C18.2727 19.7818 18.3818 19.8545 18.5091 19.9091C18.6364 19.9636 18.7637 19.9818 18.9091 19.9818H18.9273H18.9091C18.9455 19.9818 19 19.9818 19.0182 20C19.0546 20 19.0909 20.0182 19.1273 20.0182C19.4364 20.0182 19.6909 19.9091 19.9091 19.6909C20.1273 19.4727 20.2364 19.2 20.2364 18.9091C20.2364 18.6 20.1273 18.3455 19.9091 18.1273C19.6909 17.9091 19.4364 17.8 19.1273 17.8H19.0364C19.0364 17.8 19 17.8 18.9455 17.8182H18.9091C18.7637 17.8182 18.6364 17.8364 18.5091 17.8909C18.3818 17.9455 18.2727 18.0182 18.1818 18.1091C18.0909 18.2 18.0182 18.3091 17.9455 18.4364C17.8909 18.5636 17.8546 18.6909 17.8546 18.8182V18.8364V18.8909V18.9455C17.8546 19.0909 17.8727 19.2364 17.9273 19.3636C17.9818 19.4727 18.0546 19.5818 18.1455 19.6909ZM17.8182 13.4182L17.7273 13.3455C17.6546 13.3091 17.5637 13.2909 17.4909 13.2727C17.4 13.2545 17.3273 13.2364 17.2364 13.2364C17.0909 13.2364 16.9455 13.2545 16.8182 13.3091C16.6909 13.3636 16.5637 13.4364 16.4727 13.5273L16.4 13.5818L17.0364 14.2182L17.8182 13.4182ZM14 15.9636L14.6182 16.6L16.6182 14.5818L15.9818 13.9818L14 15.9636ZM13.7818 18.1273L14.3455 18.7455L18.7455 14.3273L18.1818 13.7091L13.7818 18.1273ZM12.0909 14.0546L13.6909 15.6364L15.6546 13.6182L14.0909 12.0364L12.0909 14.0546ZM10.2364 12.1636L11.7637 13.6909L13.7637 11.7273L12.1818 10.1636L10.2364 12.1636ZM4.9273 5.47273L8.65457 9.20001L9.25457 8.58182L5.50911 4.89091L4.9273 5.47273ZM7.1273 11.4546L7.72729 12.0546L12.1091 7.63637L11.5091 7.03637L7.1273 11.4546ZM8.89093 11.5818L8.07275 12.4L8.16366 12.4727C8.23639 12.5091 8.32729 12.5273 8.40002 12.5455C8.49093 12.5636 8.56366 12.5818 8.65457 12.5818H8.67275H8.70911C8.85457 12.5818 8.98184 12.5455 9.10911 12.4909C9.23639 12.4364 9.34548 12.3455 9.43639 12.2364L9.5273 12.1636L8.89093 11.5818ZM9.25457 11.2182L9.89093 11.8182L11.8546 9.80001L11.2546 9.20001L9.25457 11.2182ZM2.8182 3.78182L3.4182 4.38182L4.49093 3.3091L3.89093 2.7091L2.8182 3.78182ZM3.25457 5.25455L3.85457 5.87273L5.90911 3.78182L5.29093 3.16364L3.25457 5.25455Z" fill="#2D3E50"/>
<mask id="mask0" mask-type="alpha" maskUnits="userSpaceOnUse" x="2" y="2" width="21" height="21">
<path d="M22.3636 2H2V22.3636H22.3636V2Z" fill="white"/>
<path d="M2.25454 3.65455L3.6909 2.25455C3.70908 2.20001 3.72726 2.18182 3.76363 2.18182H3.85454H4.03636L4.78181 3.00001L5.12726 2.67273C5.14545 2.61819 5.16363 2.60001 5.19999 2.60001H5.2909C5.30908 2.58182 5.30908 2.58182 5.32726 2.58182H5.34545C5.38181 2.58182 5.39999 2.58182 5.41817 2.60001C5.43636 2.61819 5.45454 2.63637 5.45454 2.67273H5.47272L6.38181 3.61819C6.41817 3.61819 6.43636 3.63637 6.45454 3.67273C6.47272 3.7091 6.4909 3.72728 6.4909 3.76364V3.78182V3.80001C6.4909 3.83637 6.4909 3.85455 6.47272 3.89091C6.45454 3.92728 6.43636 3.94546 6.41817 3.96364L5.85454 4.52728L9.61817 8.3091L11.3454 6.56364C11.3818 6.52728 11.4 6.5091 11.4364 6.5091C11.4727 6.5091 11.4909 6.49091 11.5273 6.49091C11.5636 6.49091 11.5818 6.49091 11.6182 6.5091C11.6545 6.52728 11.6727 6.54546 11.6909 6.56364L12.6182 7.5091C12.6364 7.54546 12.6545 7.56364 12.6727 7.58182C12.6909 7.60001 12.6909 7.63637 12.6909 7.69091C12.6909 7.72728 12.6909 7.74546 12.6727 7.76364C12.6545 7.78182 12.6364 7.81819 12.6182 7.83637L11.6182 8.83637L12.2182 9.43637L12.2909 9.36364C12.4364 9.21819 12.6182 9.1091 12.8 9.03637C12.9818 8.96364 13.1818 8.9091 13.4182 8.9091C13.6364 8.9091 13.8364 8.96364 14.0364 9.05455C14.2364 9.14546 14.4 9.27273 14.5454 9.41819C14.5818 9.43637 14.6 9.45455 14.6 9.49091C14.6 9.52728 14.6182 9.54546 14.6182 9.58182C14.6182 9.61819 14.6182 9.63637 14.6 9.67273C14.6 9.7091 14.5818 9.72728 14.5454 9.74546C14.5273 9.78182 14.5091 9.80001 14.4727 9.80001C14.4364 9.80001 14.4 9.81819 14.3636 9.81819C14.3273 9.81819 14.3091 9.81819 14.2727 9.80001C14.2364 9.80001 14.2182 9.78182 14.1818 9.74546C14.0909 9.65455 13.9818 9.58182 13.8364 9.52728C13.6909 9.47273 13.5636 9.45455 13.4182 9.45455C13.2727 9.45455 13.1273 9.47273 13 9.52728C12.8727 9.58182 12.7636 9.63637 12.6545 9.72728L12.6 9.80001L14.1273 11.3636L14.2 11.3091C14.3273 11.1636 14.4727 11.0364 14.6545 10.9455C14.8364 10.8546 15.0364 10.8182 15.2545 10.8182H15.2727H15.2909H15.3091C15.5273 10.8182 15.7273 10.8546 15.9091 10.9455C16.0909 11.0364 16.2545 11.1455 16.4 11.2727C16.4364 11.3091 16.4545 11.3273 16.4545 11.3455C16.4545 11.3636 16.4727 11.4 16.4727 11.4182V11.4364V11.4546V11.5455C16.4727 11.5455 16.4545 11.5636 16.4 11.6182C16.3636 11.6364 16.3454 11.6546 16.3273 11.6727C16.3091 11.6909 16.2727 11.6909 16.2545 11.6909C16.2182 11.6909 16.2 11.6909 16.1636 11.6727C16.1273 11.6727 16.1091 11.6546 16.0909 11.6182C15.9818 11.5273 15.8727 11.4546 15.7454 11.4182C15.6182 11.3636 15.4727 11.3455 15.3273 11.3455C15.1818 11.3455 15.0364 11.3636 14.9091 11.4182C14.7818 11.4727 14.6545 11.5273 14.5636 11.6182L14.4909 11.6909L16.1091 13.2727V13.2C16.2545 13.0546 16.4 12.9273 16.6 12.8364C16.7818 12.7455 17 12.7091 17.2182 12.7091C17.4545 12.7273 17.6545 12.7818 17.8364 12.8727C18.0182 12.9636 18.2 13.0727 18.3454 13.2182L19.3273 14.2C19.3454 14.2182 19.3636 14.2364 19.3636 14.2727C19.3818 14.3091 19.3818 14.3273 19.3818 14.3636C19.3818 14.4 19.3818 14.4182 19.3636 14.4546C19.3454 14.4909 19.3273 14.5091 19.3273 14.5273L18.3273 15.5273L19.7636 17.0182H19.7818C20.1091 17.0364 20.4182 17.1091 20.7091 17.2364C21 17.3636 21.2545 17.5455 21.4909 17.7455C21.7273 17.9818 21.8909 18.2727 22.0182 18.5818C22.1454 18.8909 22.2182 19.2182 22.2182 19.5818C22.2182 19.9455 22.1454 20.2909 22.0182 20.6182C21.8727 20.9455 21.6909 21.2182 21.4545 21.4727C21.2182 21.7091 20.9636 21.8727 20.6545 22.0182C20.3454 22.1455 20.0182 22.2182 19.6727 22.2182H19.6545H19.6364H19.6182H19.6C19.2364 22.2182 18.8909 22.1455 18.5818 22.0182C18.2727 21.8909 18 21.7091 17.7454 21.4727C17.5273 21.2364 17.3636 20.9818 17.2364 20.6909C17.1091 20.4 17.0364 20.0909 17.0182 19.7818L15.5454 18.2909L14.5454 19.2909L14.4727 19.3636C14.4727 19.3636 14.4545 19.3818 14.4 19.4C14.3454 19.4182 14.3273 19.4182 14.3273 19.3818C14.3273 19.3455 14.3091 19.3273 14.2727 19.3273L13.3091 18.3455C13.2727 18.3273 13.2545 18.3091 13.2545 18.2727C13.2545 18.2364 13.2364 18.2182 13.2364 18.1818C13.2364 18.1455 13.2364 18.1273 13.2545 18.0909C13.2545 18.0546 13.2727 18.0364 13.3091 18.0182L14.3273 16.9636L13.6364 16.3273L13.5454 16.4364C13.4 16.5818 13.2545 16.6909 13.0727 16.7636C12.8909 16.8545 12.7091 16.8909 12.5091 16.8909H12.4909H12.4727H12.4545C12.2364 16.8909 12.0545 16.8546 11.8727 16.7818C11.6909 16.7091 11.5454 16.6 11.4 16.4545H11.3454C11.3273 16.4364 11.3091 16.4182 11.2909 16.3818C11.2727 16.3455 11.2727 16.3273 11.2727 16.2727C11.2727 16.2364 11.2727 16.2182 11.2909 16.1818L11.3454 16.0909C11.3818 16.0727 11.4 16.0727 11.4364 16.0546C11.4727 16.0546 11.4909 16.0364 11.5273 16.0364C11.5636 16.0364 11.5818 16.0364 11.6182 16.0546C11.6545 16.0546 11.6727 16.0727 11.6909 16.0909C11.7818 16.2 11.8909 16.2727 12.0182 16.3455C12.1454 16.4 12.2727 16.4364 12.4 16.4364H12.4182H12.4727C12.6182 16.4364 12.7454 16.4182 12.8727 16.3636C13 16.3091 13.1091 16.2364 13.2 16.1455L13.2182 16.1273C13.2182 16.1273 13.2182 16.1091 13.2364 16.0909L13.3454 16.0182L11.7454 14.4364L11.6727 14.5091C11.5273 14.6546 11.3818 14.7818 11.2 14.8727C11.0182 14.9636 10.8182 15 10.6 15H10.5273H10.5091H10.4909C10.2909 15 10.1091 14.9636 9.92726 14.8909C9.74545 14.8182 9.59999 14.7091 9.45454 14.6H9.47272L9.39999 14.5273C9.36363 14.5091 9.34545 14.4909 9.34545 14.4546C9.34545 14.4182 9.32726 14.4 9.32726 14.3636C9.32726 14.3091 9.34545 14.2545 9.39999 14.2C9.45454 14.1455 9.4909 14.1273 9.56363 14.1273C9.59999 14.1273 9.61817 14.1273 9.65454 14.1455C9.6909 14.1455 9.70908 14.1636 9.72726 14.2C9.83636 14.2909 9.96363 14.3636 10.0909 14.4182C10.2364 14.4727 10.3636 14.4909 10.5273 14.4909C10.6909 14.4909 10.8182 14.4727 10.9454 14.4182C11.0727 14.3636 11.2 14.2909 11.2909 14.2L11.3636 14.0909L9.83635 12.5273L9.72726 12.6182C9.58181 12.7636 9.43636 12.8727 9.23635 12.9455C9.05454 13.0364 8.85454 13.0727 8.63635 13.0727C8.41817 13.0727 8.21817 13.0364 8.03636 12.9636C7.85454 12.8909 7.6909 12.7818 7.56363 12.6364H7.54545V12.6182L6.56363 11.6546C6.54545 11.6182 6.54545 11.6 6.52726 11.5636C6.52726 11.5273 6.50908 11.5091 6.50908 11.4727C6.50908 11.4364 6.50908 11.4182 6.52726 11.3818C6.52726 11.3455 6.54545 11.3273 6.56363 11.3091L8.2909 9.56364L4.56363 5.80001L4.03636 6.34546L3.85454 6.41819L3.6909 6.34546L2.72726 5.40001C2.6909 5.36364 2.67272 5.34546 2.67272 5.32728C2.67272 5.3091 2.65454 5.27273 2.65454 5.25455C2.65454 5.21819 2.65454 5.20001 2.67272 5.16364C2.67272 5.12728 2.6909 5.1091 2.72726 5.09091L3.01817 4.74546L2.23636 3.98182L2.18181 3.89091C2.18181 3.89091 2.18181 3.85455 2.16363 3.80001C2.14545 3.74546 2.16363 3.7091 2.18181 3.7091C2.19999 3.7091 2.25454 3.69091 2.25454 3.65455ZM15.8727 17.9091L17.0182 19.0727V18.9273C17.0364 18.8727 17.0364 18.8364 17.0545 18.8C17.0545 18.7636 17.0727 18.7273 17.0909 18.6727C17.1454 18.4909 17.2364 18.3091 17.3454 18.1636C17.4545 18 17.5636 17.8546 17.6909 17.7455C17.8545 17.6 18.0364 17.4546 18.2182 17.3455C18.4 17.2364 18.6182 17.1455 18.8364 17.0909H18.8545H19.0182L17.8727 15.9455L15.8727 17.9091ZM18.0909 21.0546C18.2727 21.2364 18.4909 21.3818 18.7454 21.5091C19 21.6182 19.2727 21.6727 19.5454 21.6727H19.6182C19.9091 21.6727 20.1636 21.6182 20.4182 21.5091C20.6545 21.4 20.8727 21.2546 21.0545 21.0546C21.2545 20.8727 21.4 20.6545 21.5273 20.4C21.6364 20.1455 21.6909 19.8909 21.6909 19.6182C21.6909 19.3273 21.6364 19.0546 21.5454 18.8C21.4545 18.5455 21.3091 18.3273 21.1273 18.1273C21.1273 18.1091 21.1273 18.1091 21.1091 18.1091C21.0909 18.1091 21.0727 18.0909 21.0545 18.0546C20.9091 17.9091 20.7273 17.8 20.5454 17.6909C20.3636 17.5818 20.1818 17.5091 19.9818 17.4545H19.9636L19.6 17.3818L19.9273 17.6545L20.0727 17.7455C20.2182 17.8909 20.3091 18.0364 20.4 18.2182C20.4727 18.4 20.5091 18.5818 20.5091 18.8V18.8545V18.9091C20.5091 19.1273 20.4727 19.3273 20.3818 19.5091C20.2909 19.6909 20.1818 19.8727 20.0545 20C19.9091 20.1455 19.7636 20.2727 19.5636 20.3636C19.3818 20.4545 19.1636 20.4909 18.9636 20.4909H18.9091C18.6909 20.4909 18.4909 20.4545 18.2909 20.3636C18.0909 20.2727 17.9273 20.1636 17.7818 20L17.7091 19.9091L17.4364 19.5636L17.5091 19.9818C17.5636 20.2 17.6182 20.3818 17.7091 20.5636C17.8182 20.7455 17.9273 20.9091 18.0909 21.0546ZM18.1454 19.6909H18.1818C18.2727 19.7818 18.3818 19.8545 18.5091 19.9091C18.6364 19.9636 18.7636 19.9818 18.9091 19.9818H18.9273H18.9091C18.9454 19.9818 19 19.9818 19.0182 20C19.0545 20 19.0909 20.0182 19.1273 20.0182C19.4364 20.0182 19.6909 19.9091 19.9091 19.6909C20.1273 19.4727 20.2364 19.2 20.2364 18.9091C20.2364 18.6 20.1273 18.3455 19.9091 18.1273C19.6909 17.9091 19.4364 17.8 19.1273 17.8H19.0364C19.0364 17.8 19 17.8 18.9454 17.8182H18.9091C18.7636 17.8182 18.6364 17.8364 18.5091 17.8909C18.3818 17.9455 18.2727 18.0182 18.1818 18.1091C18.0909 18.2 18.0182 18.3091 17.9454 18.4364C17.8909 18.5636 17.8545 18.6909 17.8545 18.8182V18.8364V18.8909V18.9455C17.8545 19.0909 17.8727 19.2364 17.9273 19.3636C17.9818 19.4727 18.0545 19.5818 18.1454 19.6909ZM17.8182 13.4182L17.7273 13.3455C17.6545 13.3091 17.5636 13.2909 17.4909 13.2727C17.4 13.2545 17.3273 13.2364 17.2364 13.2364C17.0909 13.2364 16.9454 13.2545 16.8182 13.3091C16.6909 13.3636 16.5636 13.4364 16.4727 13.5273L16.4 13.5818L17.0364 14.2182L17.8182 13.4182ZM14 15.9636L14.6182 16.6L16.6182 14.5818L15.9818 13.9818L14 15.9636ZM13.7818 18.1273L14.3454 18.7455L18.7454 14.3273L18.1818 13.7091L13.7818 18.1273ZM12.0909 14.0546L13.6909 15.6364L15.6545 13.6182L14.0909 12.0364L12.0909 14.0546ZM10.2364 12.1636L11.7636 13.6909L13.7636 11.7273L12.1818 10.1636L10.2364 12.1636ZM4.92726 5.47273L8.65454 9.20001L9.25454 8.58182L5.50908 4.89091L4.92726 5.47273ZM7.12726 11.4546L7.72726 12.0546L12.1091 7.63637L11.5091 7.03637L7.12726 11.4546ZM8.8909 11.5818L8.07272 12.4L8.16363 12.4727C8.23636 12.5091 8.32726 12.5273 8.39999 12.5455C8.4909 12.5636 8.56363 12.5818 8.65454 12.5818H8.67272H8.70908C8.85454 12.5818 8.98181 12.5455 9.10908 12.4909C9.23635 12.4364 9.34545 12.3455 9.43636 12.2364L9.52726 12.1636L8.8909 11.5818ZM9.25454 11.2182L9.8909 11.8182L11.8545 9.80001L11.2545 9.20001L9.25454 11.2182ZM2.81817 3.78182L3.41817 4.38182L4.4909 3.3091L3.8909 2.7091L2.81817 3.78182ZM3.25454 5.25455L3.85454 5.87273L5.90908 3.78182L5.2909 3.16364L3.25454 5.25455Z" fill="black"/>
</mask>
<g mask="url(#mask0)">
<path d="M19.6 22.3636H19.5637C19.1819 22.3636 18.8182 22.2909 18.4728 22.1636C18.1455 22.0182 17.8364 21.8364 17.5819 21.5818C17.3455 21.3273 17.1637 21.0545 17.0364 20.7455C16.9091 20.4545 16.8364 20.1455 16.8 19.8364L15.4909 18.5273L14.5091 19.5091L14.4 19.5636C14.2909 19.6182 14.2 19.5818 14.1637 19.5636C14.1455 19.5455 14.1273 19.5273 14.1091 19.5091L13.1273 18.5091C13.0728 18.4727 13.0182 18.4182 13 18.3455C12.9819 18.3091 12.9819 18.2545 12.9819 18.2182C12.9819 18.1818 12.9819 18.1273 13 18.0909C13.0182 18.0182 13.0546 17.9636 13.1273 17.9273L14.0182 17.0182L13.6546 16.6364C13.5091 16.7818 13.3455 16.8909 13.1455 16.9818C12.9455 17.0727 12.7273 17.1273 12.5091 17.1273H12.4364C12.2 17.1273 11.9819 17.0909 11.7819 17C11.6182 16.9273 11.4546 16.8182 11.3091 16.6909H11.2728L11.2182 16.6364C11.1819 16.6 11.1637 16.5636 11.1455 16.5273C11.1091 16.4727 11.1091 16.4 11.1091 16.3273C11.1091 16.2727 11.1273 16.2182 11.1455 16.1636L11.2182 16.0182L11.2728 15.9818C11.3091 15.9636 11.3637 15.9455 11.4 15.9273C11.4909 15.9091 11.5819 15.9091 11.6728 15.9273C11.7273 15.9455 11.7819 15.9636 11.8182 16.0182C11.9091 16.1091 11.9819 16.1818 12.0909 16.2364C12.1819 16.2909 12.2909 16.3091 12.4 16.3091H12.4728C12.5819 16.3091 12.6909 16.2909 12.8 16.2364C12.8909 16.2 12.9819 16.1455 13.0546 16.0727V16.0545L11.7455 14.7455C11.6182 14.8727 11.4546 15 11.2728 15.0727C11.0728 15.1636 10.8364 15.2182 10.6 15.2182H10.5091C10.2909 15.2182 10.0728 15.1818 9.87276 15.0909C9.67276 15 9.50912 14.8909 9.36367 14.7636L9.00003 14.4545H9.18185C9.18185 14.4364 9.18185 14.4182 9.18185 14.4C9.18185 14.2909 9.21822 14.2 9.30912 14.1091C9.41822 14 9.58185 13.9636 9.72731 14C9.80003 14.0182 9.85458 14.0545 9.89094 14.1091C9.98185 14.1818 10.0728 14.2364 10.1819 14.2727C10.4182 14.3636 10.6909 14.3636 10.9091 14.2727C11 14.2364 11.0909 14.1818 11.1637 14.1273L9.85458 12.8C9.70912 12.9455 9.52731 13.0545 9.34549 13.1455C8.92731 13.3273 8.41822 13.3273 8.00003 13.1636C7.81822 13.0909 7.65458 12.9818 7.52731 12.8545H7.40003V12.7273L6.45458 11.8L6.4364 11.7636C6.41822 11.7273 6.40003 11.6727 6.38185 11.6364C6.36367 11.5636 6.36367 11.5091 6.36367 11.4727C6.36367 11.4364 6.36367 11.3818 6.38185 11.3455C6.40003 11.2909 6.41822 11.2364 6.45458 11.2L8.05458 9.58182L4.56367 6.05454L4.14549 6.49091L3.85458 6.6L3.60003 6.49091L2.61822 5.52727C2.56367 5.47273 2.52731 5.41818 2.50912 5.38182C2.49094 5.34545 2.49094 5.29091 2.49094 5.23636C2.49094 5.2 2.49094 5.14545 2.50912 5.10909C2.52731 5.03636 2.56367 4.98182 2.61822 4.94545L2.78185 4.74545L2.10912 4.09091L2.0364 3.92727L2.01822 3.83636C2.00003 3.8 1.98185 3.69091 2.05458 3.6C2.07276 3.58182 2.07276 3.58182 2.09094 3.56364L2.14549 3.50909L3.54549 2.14545C3.61822 2.01818 3.72731 2 3.76367 2H4.10912L4.78185 2.74545L4.96367 2.58182C5.0364 2.45455 5.14549 2.43636 5.18185 2.43636H5.21822C5.2364 2.41818 5.27276 2.41818 5.30912 2.41818C5.38185 2.41818 5.45458 2.43636 5.50912 2.47273C5.54549 2.49091 5.56367 2.52727 5.60003 2.56364L6.47276 3.47273C6.52731 3.49091 6.56367 3.52727 6.60003 3.58182C6.65458 3.63636 6.67276 3.70909 6.67276 3.78182V3.8C6.67276 3.85455 6.65458 3.90909 6.6364 3.96364C6.61822 4.01818 6.58185 4.05455 6.56367 4.07273L6.12731 4.50909L9.6364 8.01818L11.2364 6.4C11.2909 6.34545 11.3455 6.30909 11.4182 6.29091C11.5273 6.27273 11.6364 6.27273 11.7273 6.30909C11.7819 6.32727 11.8182 6.36364 11.8364 6.38182L12.7819 7.34545L12.8 7.36364C12.8182 7.38182 12.8182 7.4 12.8364 7.41818C12.8728 7.47273 12.8909 7.54545 12.8909 7.61818C12.8909 7.69091 12.8728 7.74545 12.8364 7.8C12.8182 7.81818 12.8182 7.83636 12.8 7.85455L12.7819 7.87273L11.8909 8.76364L12.2364 9.10909C12.3819 8.98182 12.5455 8.87273 12.7273 8.8C13.1273 8.61818 13.6546 8.6 14.1091 8.81818C14.3273 8.90909 14.5091 9.05454 14.6546 9.2C14.7091 9.23636 14.7455 9.29091 14.7637 9.36364C14.7819 9.4 14.7819 9.45455 14.7819 9.49091C14.7819 9.52727 14.7819 9.58182 14.7637 9.61818C14.7455 9.67273 14.7091 9.72727 14.6546 9.78182C14.6182 9.83636 14.5637 9.87273 14.4909 9.89091C14.4182 9.90909 14.3091 9.90909 14.2 9.89091C14.1455 9.87273 14.0728 9.83636 14.0182 9.78182C13.9455 9.70909 13.8546 9.65454 13.7455 9.6C13.4909 9.50909 13.2364 9.52727 13.0546 9.58182C12.9819 9.6 12.9273 9.63636 12.8546 9.69091L14.1273 11C14.2546 10.8727 14.4 10.7636 14.5637 10.6909C14.7637 10.6 15 10.5455 15.2364 10.5455H15.2728C15.5091 10.5455 15.7455 10.6 15.9455 10.6909C16.1637 10.7818 16.3455 10.9091 16.4909 11.0545C16.5455 11.1091 16.5819 11.1636 16.6 11.2C16.6182 11.2364 16.6182 11.2909 16.6182 11.3455V11.5273L16.4728 11.6727L16.4546 11.6909C16.4364 11.7091 16.4182 11.7091 16.4 11.7273C16.3091 11.7818 16.2 11.8 16.0909 11.7636C16.0182 11.7455 15.9637 11.7091 15.9273 11.6545C15.8364 11.5818 15.7455 11.5273 15.6546 11.4909C15.4364 11.4182 15.1455 11.4182 14.9273 11.4909C14.8546 11.5091 14.7819 11.5636 14.7091 11.6L16.0182 12.8727C16.1455 12.7455 16.3091 12.6545 16.4728 12.5818C16.6909 12.4909 16.9273 12.4364 17.1637 12.4364C17.4182 12.4545 17.6546 12.5091 17.8728 12.6182C18.0728 12.7091 18.2728 12.8364 18.4364 12.9818L19.4182 13.9636C19.4546 14 19.4728 14.0364 19.4909 14.0727C19.5273 14.1273 19.5273 14.1818 19.5273 14.2364C19.5273 14.2909 19.5091 14.3455 19.4909 14.4182C19.4728 14.4727 19.4364 14.5091 19.4182 14.5273L18.5455 15.4L19.8 16.7091C20.1455 16.7273 20.4546 16.8 20.7455 16.9455C21.0546 17.0909 21.3273 17.2727 21.5637 17.4909C21.8182 17.7636 22 18.0545 22.1455 18.3818C22.2909 18.7091 22.3455 19.0727 22.3455 19.4545C22.3455 19.8364 22.2728 20.2182 22.1273 20.5636C21.9819 20.9091 21.7819 21.2 21.5273 21.4727C21.2909 21.7091 21 21.9091 20.6546 22.0545C20.3455 22.2909 19.9819 22.3636 19.6 22.3636ZM15.5091 18.0182L17.1637 19.6909V19.7636C17.1819 20.0545 17.2364 20.3455 17.3637 20.6182C17.4909 20.8909 17.6364 21.1273 17.8364 21.3455C18.0546 21.5455 18.3091 21.7273 18.6 21.8364C18.8909 21.9636 19.2 22.0182 19.5455 22.0182H19.5819C19.9091 22.0182 20.2182 21.9636 20.5091 21.8364C20.8 21.7091 21.0546 21.5455 21.2546 21.3455C21.4728 21.1273 21.6546 20.8545 21.7819 20.5636C21.9091 20.2727 21.9637 19.9455 21.9637 19.6C21.9637 19.2727 21.9091 18.9636 21.7819 18.6727C21.6546 18.3818 21.4909 18.1273 21.2909 17.8909C21.0909 17.7091 20.8364 17.5455 20.5819 17.4182C20.3091 17.2909 20.0182 17.2364 19.7091 17.2182H19.6182L18 15.5455L19.1273 14.4182C19.1273 14.4182 19.1273 14.4182 19.1455 14.4V14.3818C19.1455 14.3636 19.1273 14.3636 19.1273 14.3636L18.1819 13.3455C18.0546 13.2182 17.8909 13.1273 17.7273 13.0364C17.5637 12.9636 17.3637 12.9091 17.1637 12.8909C16.9819 12.8909 16.7819 12.9273 16.6182 13C16.4728 13.0727 16.3455 13.1455 16.2364 13.2545V13.4364L16.3273 13.3636C16.4546 13.2545 16.5819 13.1818 16.7273 13.1273C16.9637 13.0182 17.2728 13 17.5273 13.0727C17.6182 13.0909 17.7091 13.1273 17.7819 13.1636L17.8182 13.1818L18.0728 13.3818L17 14.4545L16.0728 13.5273L14.1819 11.6727L14.3819 11.4727C14.5091 11.3636 14.6546 11.2727 14.8 11.2182C15.0909 11.1091 15.4728 11.1091 15.7637 11.2182C15.9091 11.2727 16.0546 11.3455 16.1819 11.4545L16.2182 11.4727C16.2364 11.4545 16.2546 11.4545 16.2728 11.4364V11.4V11.3818C16.2728 11.3818 16.2728 11.3818 16.2546 11.3636C16.1273 11.2364 15.9819 11.1455 15.8182 11.0727C15.6546 11 15.4728 10.9636 15.2909 10.9636H15.2546C15.0728 10.9636 14.8909 11 14.7455 11.0727C14.5819 11.1455 14.4546 11.2545 14.3637 11.3818L14.3273 11.4182L14.1273 11.5455L12.3637 9.8L12.5273 9.56364C12.6546 9.45455 12.7819 9.38182 12.9273 9.32727C13.2 9.21818 13.5455 9.21818 13.8728 9.34545C14.0364 9.4 14.1637 9.49091 14.2728 9.6C14.3091 9.61818 14.3455 9.61818 14.3637 9.61818L14.3819 9.6L14.4 9.58182V9.56364V9.54545L14.3637 9.52727C14.2364 9.4 14.0909 9.29091 13.9273 9.2C13.5637 9.03636 13.1455 9.05454 12.8546 9.18182C12.6909 9.25455 12.5455 9.36364 12.4 9.49091L12.2182 9.69091L11.3637 8.83636L12.4728 7.72727C12.4909 7.70909 12.4909 7.69091 12.5091 7.67273C12.4909 7.65455 12.4909 7.63636 12.4728 7.61818L11.5637 6.70909C11.5637 6.70909 11.5637 6.70909 11.5455 6.69091C11.5273 6.69091 11.5091 6.69091 11.4909 6.69091L9.61822 8.54545L5.60003 4.50909L6.29094 3.8C6.29094 3.8 6.29094 3.8 6.29094 3.78182L5.38185 2.83636H5.27276V2.76364L5.25458 2.78182L4.78185 3.27273L3.96367 2.36364H3.8364L3.81822 2.38182L2.41822 3.72727C2.40003 3.76364 2.40003 3.8 2.36367 3.81818V3.83636L2.38185 3.89091L3.27276 4.72727L2.8364 5.23636V5.25455V5.27273C2.8364 5.27273 2.8364 5.27273 2.85458 5.29091L3.78185 6.2L3.8364 6.21818L3.90912 6.18182L4.52731 5.52727L8.54549 9.56364L6.72731 11.4364C6.72731 11.4545 6.72731 11.4727 6.72731 11.4727C6.72731 11.4909 6.72731 11.5091 6.72731 11.5273C6.72731 11.5455 6.72731 11.5455 6.74549 11.5636L7.76367 12.5455C7.87276 12.6545 8.00003 12.7273 8.14549 12.8C8.45458 12.9273 8.87276 12.9455 9.20003 12.7818C9.36367 12.7091 9.50912 12.6 9.6364 12.4909L9.65458 12.4727L9.89094 12.2727L11.6364 14.0545L11.4546 14.3091L11.4364 14.3273C11.3091 14.4364 11.1819 14.5091 11.0364 14.5818C10.7273 14.7091 10.3637 14.7091 10.0546 14.5818C9.89094 14.5273 9.76367 14.4364 9.6364 14.3273L9.60003 14.3091C9.58185 14.3091 9.58185 14.2909 9.56367 14.3273C9.54549 14.3455 9.54549 14.3455 9.54549 14.3636V14.3818L9.70912 14.5455C9.80003 14.6182 9.90912 14.6727 10.0182 14.7091C10.1637 14.7818 10.3273 14.8 10.5091 14.8H10.6C10.7819 14.8 10.9637 14.7636 11.1091 14.6909C11.2728 14.6182 11.4 14.5091 11.5273 14.3818L11.7273 14.1818L13.6182 16.0545L13.3637 16.2182L13.3273 16.2545C13.2 16.3818 13.0728 16.4545 12.9273 16.5273C12.7819 16.5818 12.6182 16.6182 12.4546 16.6182H12.3819C12.2182 16.6182 12.0546 16.5818 11.9091 16.5091C11.7819 16.4364 11.6546 16.3455 11.5455 16.2364C11.5091 16.2364 11.4909 16.2364 11.4546 16.2364V16.2727C11.4546 16.2727 11.4546 16.2727 11.4546 16.2909L11.5091 16.3455C11.6364 16.4727 11.7637 16.5636 11.9273 16.6364C12.0728 16.7091 12.2546 16.7273 12.4364 16.7273H12.5091C12.6728 16.7273 12.8364 16.6909 13 16.6182C13.1637 16.5455 13.2909 16.4545 13.4182 16.3273L13.6364 16.0545L14.5455 16.9636L13.3819 18.1636V18.1818V18.2L14.3091 19.1455C14.3273 19.1455 14.3455 19.1636 14.3637 19.1636L15.5091 18.0182ZM16.6546 13.6L17.0182 13.9636L17.5091 13.4727C17.4909 13.4727 17.4546 13.4545 17.4364 13.4545C17.2546 13.4 17.0364 13.4182 16.8728 13.4909C16.8 13.5091 16.7273 13.5455 16.6546 13.6ZM19.6 21.8545H19.5273C19.2182 21.8545 18.9091 21.8 18.6364 21.6727C18.3637 21.5455 18.1273 21.3818 17.9273 21.1818C17.7637 21.0182 17.6364 20.8364 17.5273 20.6364C17.4364 20.4545 17.3637 20.2364 17.3091 20L17.1637 19.1455V19.4909L15.5819 17.8727L17.8364 15.6545L19.3273 17.1455L19.9819 17.2545C20.2 17.3091 20.4 17.3818 20.6 17.5091C20.8 17.6182 20.9637 17.7455 21.1273 17.8909L21.1455 17.9091C21.1819 17.9273 21.2 17.9636 21.2182 18C21.4 18.2 21.5455 18.4364 21.6546 18.7091C21.7637 18.9818 21.8182 19.2727 21.8182 19.5818C21.8182 19.8727 21.7637 20.1636 21.6364 20.4545C21.5091 20.7273 21.3455 20.9636 21.1273 21.1636C20.9273 21.3636 20.7091 21.5273 20.4364 21.6364C20.2182 21.8 19.9273 21.8545 19.6 21.8545ZM17.7819 20.2545C17.8182 20.3273 17.8364 20.4182 17.8909 20.4909C17.9819 20.6545 18.0909 20.8 18.2182 20.9455C18.3819 21.1091 18.5819 21.2545 18.8182 21.3455C19.0364 21.4545 19.2909 21.5091 19.5455 21.5091H19.6182C19.8728 21.5091 20.1273 21.4545 20.3455 21.3636C20.5637 21.2545 20.7637 21.1273 20.9273 20.9455C21.1091 20.7818 21.2546 20.5818 21.3637 20.3455C21.4728 20.1273 21.5273 19.8727 21.5273 19.6364C21.5273 19.3636 21.4728 19.1273 21.4 18.8909C21.3091 18.6727 21.1819 18.4545 21.0182 18.2727C20.9819 18.2545 20.9637 18.2364 20.9273 18.1818C20.7819 18.0545 20.6364 17.9455 20.4728 17.8545C20.4182 17.8182 20.3637 17.8 20.3091 17.7636C20.4 17.8909 20.4909 18.0182 20.5455 18.1636C20.6364 18.3636 20.6728 18.5818 20.6728 18.8182V18.9091C20.6728 19.1455 20.6182 19.3818 20.5273 19.5818C20.4364 19.8 20.3091 19.9818 20.1637 20.1273C20.0182 20.2909 19.8364 20.4182 19.6182 20.5273C19.4 20.6182 19.1819 20.6727 18.9455 20.6727H18.9091C18.6728 20.6727 18.4364 20.6182 18.2182 20.5273C18.0546 20.4545 17.9091 20.3636 17.7819 20.2545ZM17.2 18.9636L17.9455 19.8909C18.0546 20.0182 18.2 20.1091 18.3637 20.1818C18.5455 20.2545 18.7273 20.2909 18.9091 20.2909H18.9273C19.1091 20.2909 19.2909 20.2545 19.4546 20.1818C19.5455 20.1455 19.6182 20.0909 19.6909 20.0545C19.5273 20.1455 19.3273 20.1818 19.1273 20.1818C19.0728 20.1818 19.0182 20.1818 18.9637 20.1636C18.9455 20.1636 18.9273 20.1636 18.8909 20.1636C18.7273 20.1636 18.5819 20.1273 18.4182 20.0727C18.2909 20.0182 18.1819 19.9455 18.0909 19.8727H18.0546L18 19.8C17.8909 19.6727 17.8182 19.5455 17.7637 19.4182C17.7091 19.2727 17.6728 19.1091 17.6728 18.9273V18.8182C17.6728 18.6545 17.7091 18.4909 17.7819 18.3455C17.8546 18.2 17.9455 18.0909 18.0364 17.9818C18.1455 17.8727 18.2728 17.7818 18.4182 17.7273C18.5637 17.6727 18.7273 17.6364 18.8909 17.6364H18.9091L19.0182 17.6182H19.1091C19.3091 17.6182 19.5091 17.6545 19.6728 17.7455L19.1273 17.2727H18.8364C18.6364 17.3273 18.4546 17.4 18.2728 17.5091C18.0909 17.6182 17.9273 17.7455 17.7637 17.8909C17.6546 18 17.5455 18.1273 17.4546 18.2727C17.3637 18.4182 17.2728 18.5818 17.2182 18.7455C17.2 18.7818 17.2 18.8182 17.1819 18.8545C17.2182 18.8727 17.2 18.9091 17.2 18.9636ZM18.9273 19.8C18.9819 19.8 19.0182 19.8 19.0546 19.8182C19.0546 19.8182 19.0909 19.8182 19.1273 19.8182C19.3819 19.8182 19.6 19.7273 19.7637 19.5455C19.9455 19.3636 20.0364 19.1455 20.0364 18.8909C20.0364 18.6364 19.9455 18.4182 19.7637 18.2364C19.5819 18.0545 19.3819 17.9636 19.1273 17.9636H19.0546L18.9455 17.9818H18.9091C18.8 17.9818 18.6909 18 18.5819 18.0545C18.4728 18.0909 18.3819 18.1636 18.3091 18.2364C18.2364 18.3091 18.1637 18.4 18.1091 18.5091C18.0546 18.6 18.0364 18.7091 18.0364 18.8182V18.9273C18.0364 19.0545 18.0546 19.1636 18.1091 19.2727C18.1455 19.3455 18.1819 19.4364 18.2546 19.5091H18.2728L18.3273 19.5636C18.4 19.6364 18.4909 19.6909 18.6 19.7455C18.7091 19.7818 18.8182 19.8182 18.9273 19.8182V19.8ZM16.1273 17.9091L16.8909 18.6909C16.8909 18.6727 16.9091 18.6545 16.9091 18.6364C16.9819 18.4364 17.0728 18.2545 17.1819 18.0727C17.2909 17.9091 17.4182 17.7455 17.5455 17.6182C17.7273 17.4545 17.9091 17.3091 18.1091 17.1818C18.2728 17.0909 18.4364 17 18.6182 16.9455L17.8728 16.1818L16.1273 17.9091ZM14.3455 19.0182L13.5273 18.1273L18.1819 13.4545L19 14.3455L14.3455 19.0182ZM14.0364 18.1273L14.3637 18.4727L18.5091 14.3091L18.1819 13.9636L14.0364 18.1273ZM14.6182 16.8545L13.7455 15.9455L15.9819 13.7273L16.8909 14.5636L14.6182 16.8545ZM14.2546 15.9636L14.6182 16.3455L16.3637 14.6L16 14.2545L14.2546 15.9636ZM13.6909 15.8909L11.8364 14.0545L14.0728 11.7818L15.8909 13.6182L13.6909 15.8909ZM12.3455 14.0545L13.6728 15.3818L15.3819 13.6364L14.0728 12.3091L12.3455 14.0545ZM11.7455 13.9455L9.96367 12.1636L12.1819 9.90909L14.0182 11.7273L11.7455 13.9455ZM10.4909 12.1636L11.7637 13.4364L13.5091 11.7273L12.1819 10.4182L10.4909 12.1636ZM8.70912 12.7818H8.67276C8.56367 12.7818 8.45458 12.7636 8.34549 12.7455C8.25458 12.7273 8.16367 12.6909 8.09094 12.6545L8.05458 12.6364L7.80003 12.4364L8.89094 11.3455L9.81822 12.2L9.56367 12.3818C9.45458 12.5091 9.32731 12.6 9.18185 12.6727C9.01822 12.7455 8.87276 12.7818 8.70912 12.7818ZM8.36367 12.3636C8.38185 12.3636 8.41822 12.3818 8.4364 12.3818C8.50912 12.4 8.58185 12.4182 8.65458 12.4182H8.70912C8.81822 12.4182 8.92731 12.4 9.0364 12.3455C9.12731 12.3091 9.20003 12.2545 9.27276 12.1818L8.90912 11.8364L8.36367 12.3636ZM7.72731 12.3091L6.87276 11.4545L11.5273 6.78182L12.3819 7.63636L7.72731 12.3091ZM7.38185 11.4545L7.70913 11.8L11.8546 7.63636L11.5273 7.29091L7.38185 11.4545ZM9.89094 12.0727L8.98185 11.2364L11.2546 8.96364L12.1091 9.81818L9.89094 12.0727ZM9.50912 11.2182L9.87276 11.5636L11.5819 9.8L11.2364 9.45455L9.50912 11.2182ZM8.65458 9.47273L4.65458 5.49091L5.50912 4.63636L9.49094 8.6L8.65458 9.47273ZM5.18185 5.47273L8.65458 8.94545L9.00003 8.58182L5.52731 5.12727L5.18185 5.47273ZM3.85458 6.12727L3.01822 5.25455L5.29094 2.90909L6.16367 3.78182L3.85458 6.12727ZM3.50912 5.25455L3.85458 5.61818L5.65458 3.8L5.29094 3.43636L3.50912 5.25455ZM3.41822 4.63636L2.56367 3.78182L3.89094 2.45455L4.74549 3.30909L3.41822 4.63636ZM3.09094 3.78182L3.41822 4.12727L4.2364 3.30909L3.90912 2.96364L3.09094 3.78182Z" fill="#2D3E50"/>
</g>
</svg>
