<svg width="12" height="12" viewBox="0 0 12 12" fill="none" xmlns="http://www.w3.org/2000/svg">
<path d="M1.69262 0.5L2.01684 0.866482C2.11159 0.815674 2.19154 0.750065 2.28077 0.732614C2.34238 0.720685 2.43316 0.757797 2.48307 0.803524C2.66417 0.969424 2.83246 1.14968 3.00827 1.32177C3.10412 1.41565 3.10323 1.56189 2.99877 1.67787C2.96687 1.71365 2.93295 1.74758 2.89718 1.77949C2.86162 1.81085 2.82253 1.83803 2.77968 1.87116L4.63664 3.70247C4.8829 3.45726 5.14461 3.19858 5.40368 2.93747C5.57307 2.76693 5.70382 2.76384 5.8741 2.93416C6.01456 3.07465 6.15444 3.21574 6.29373 3.35741C6.44104 3.50741 6.44015 3.6479 6.28975 3.79922C6.15724 3.93177 6.02251 4.06232 5.88006 4.20238L6.03466 4.32962C6.24779 4.16328 6.49669 4.08331 6.77784 4.12219C7.01372 4.15488 7.20741 4.26953 7.36554 4.44316C7.44814 4.53374 7.4318 4.69433 7.34235 4.78446C7.29231 4.83169 7.22641 4.85846 7.15762 4.85952C7.08883 4.86059 7.02213 4.83586 6.97065 4.79021C6.83085 4.66783 6.67515 4.63425 6.4989 4.67975C6.47105 4.68995 6.44402 4.70229 6.41807 4.71665L7.07688 5.32701C7.34876 5.1061 7.68821 5.06479 8.04313 5.21523C8.16107 5.26538 8.26885 5.3533 8.36249 5.44343C8.46585 5.54305 8.45216 5.68046 8.3541 5.77699C8.24654 5.88259 8.10519 5.89231 7.99653 5.80151C7.83089 5.66301 7.59236 5.63915 7.41811 5.74916C7.46692 5.79599 7.51462 5.84105 7.56188 5.88678C7.72767 6.04878 7.8931 6.21011 8.05815 6.37079C8.52725 6.00828 9.03544 6.13552 9.3961 6.47285C9.56527 6.63123 9.72539 6.79934 9.88728 6.96546C10.0182 7.09977 10.0167 7.23762 9.88441 7.37193C9.74748 7.51044 9.60812 7.64674 9.46081 7.79165C9.67128 8.01013 9.87558 8.2244 10.0838 8.43515C10.1059 8.45724 10.1501 8.46497 10.1846 8.46939C10.9962 8.57322 11.5514 9.2578 11.4962 10.0884C11.471 10.471 11.3013 10.8296 11.0215 11.0917C10.7417 11.3538 10.3728 11.4998 9.98954 11.5C9.18275 11.502 8.58887 10.9963 8.45613 10.1984C8.44624 10.1461 8.42156 10.0977 8.38502 10.059C8.19132 9.85822 7.99255 9.6614 7.78694 9.45595C7.64007 9.60374 7.49828 9.74667 7.35605 9.88893C7.19769 10.0475 7.11465 10.0471 6.96292 9.8907C6.80413 9.72701 6.644 9.56442 6.48433 9.40139C6.37898 9.29381 6.38273 9.1363 6.48963 9.02961C6.63937 8.87895 6.78646 8.72564 6.94128 8.56703L6.79132 8.42013C6.6228 8.55157 6.44369 8.64501 6.23034 8.66091C5.9154 8.68455 5.65324 8.57653 5.43702 8.35165C5.35177 8.26328 5.36436 8.10357 5.45911 8.01123C5.55386 7.91889 5.73562 7.92287 5.84075 8.02051C6.01346 8.18265 6.19854 8.19723 6.39554 8.06889C6.18219 7.85594 5.96818 7.6421 5.7449 7.41876C5.54723 7.59814 5.29501 7.66308 5.01607 7.63812C4.79014 7.61824 4.59976 7.52193 4.43986 7.36597C4.41418 7.34208 4.3935 7.31334 4.37901 7.28141C4.36453 7.24948 4.35651 7.21498 4.35545 7.17993C4.35438 7.14488 4.36027 7.10996 4.37279 7.07721C4.38531 7.04445 4.4042 7.0145 4.42837 6.9891C4.52864 6.88572 4.67132 6.88528 4.79301 6.9891C4.96064 7.13004 5.18525 7.14616 5.3849 7.02621C5.16228 6.81812 4.94142 6.61157 4.7135 6.39884C4.61088 6.48192 4.49222 6.54292 4.36495 6.578C4.23768 6.61309 4.10453 6.62151 3.97385 6.60274C3.76825 6.57483 3.57759 6.47987 3.43143 6.33257C3.26578 6.17057 3.10103 6.0074 2.93715 5.84304C2.80464 5.7094 2.80464 5.5404 2.93936 5.40477C3.17494 5.16634 3.41104 4.92886 3.64765 4.69235C3.67941 4.66576 3.71357 4.64217 3.74968 4.62188L1.8914 2.79035C1.85827 2.82304 1.8057 2.87297 1.75491 2.92466C1.61201 3.07046 1.46271 3.07156 1.31518 2.92731C1.16765 2.78306 1.02453 2.64521 0.879652 2.50339C0.721519 2.34876 0.717544 2.23389 0.863971 2.0671C0.875898 2.05341 0.886057 2.03817 0.891358 2.03088L0.5 1.56035V1.4278C0.537546 1.38362 0.571999 1.33502 0.613078 1.29371C0.876339 1.02819 1.14048 0.763614 1.40551 0.5H1.69262ZM7.04044 6.16181L6.15812 6.99087L6.81141 7.66242L7.67032 6.7788L7.04044 6.16181ZM6.03775 5.14145L5.15322 5.97095L5.79106 6.60981L6.62921 5.75181L6.03775 5.14145ZM9.10766 10.4653C9.21451 10.653 9.37945 10.8008 9.57763 10.8866C9.7758 10.9724 9.99648 10.9914 10.2064 10.9409C10.6099 10.8413 10.9478 10.4343 10.9657 10.0263C10.9821 9.65411 10.755 9.23107 10.4949 9.14448C10.6523 9.57524 10.6185 9.97641 10.2795 10.3122C9.94051 10.648 9.54385 10.6641 9.1081 10.4653H9.10766ZM9.68763 10.0694C9.91798 10.0813 10.1192 9.93554 10.1698 9.71596C10.223 9.48423 10.115 9.25206 9.89612 9.17938C9.80048 9.14713 9.68829 9.1553 9.58427 9.1595C9.37931 9.16789 9.20506 9.3265 9.18032 9.51582C9.14763 9.76522 9.25806 9.96713 9.47141 10.0341C9.54076 10.0557 9.61585 10.0581 9.68763 10.0694ZM7.15153 9.31656L9.34022 7.1592L9.23465 7.04123C8.50406 7.76095 7.777 8.47712 7.04442 9.19904L7.15153 9.31656ZM5.67952 3.45726L3.49084 5.60822L3.58293 5.71492L5.77847 3.55468L5.67952 3.45726ZM9.0456 8.20673L8.19044 9.09566L8.49191 9.38858C8.61184 9.22489 8.7163 9.03888 8.86229 8.8953C9.00827 8.75171 9.19887 8.647 9.36606 8.52815L9.0456 8.20673ZM2.30175 2.38455L4.11829 4.20127L4.23534 4.07646L4.19669 4.09988L2.40952 2.2763L2.30175 2.38455ZM7.30017 8.17227L8.1889 7.29086L8.04291 7.15544L7.18157 8.04437L7.30017 8.17227ZM2.296 1.35358L1.39712 2.27785L1.52566 2.41459L1.506 2.38256L2.43779 1.4859C2.39186 1.44327 2.34945 1.4035 2.296 1.35358ZM4.75546 5.62567L5.6168 4.73984L5.51167 4.61613L4.62471 5.48297L4.75546 5.62567ZM1.27786 1.59591C1.41037 1.47176 1.5409 1.35071 1.6595 1.24003L1.57491 1.12472L1.20078 1.49849L1.27786 1.59591ZM4.25456 5.8859L4.0474 6.08228C4.16577 6.09974 4.27377 6.08648 4.36874 5.99193L4.25456 5.8859ZM8.57959 6.8866L8.76003 6.70988L8.75738 6.68889L8.43692 6.75406L8.57959 6.8866Z" fill="#2D3E50"/>
</svg>
