<svg width="16" height="16" viewBox="0 0 16 16" fill="none" xmlns="http://www.w3.org/2000/svg">
<path d="M1.50307 2.43635L2.46064 1.50301C2.47276 1.46665 2.48488 1.45453 2.50913 1.45453H2.56973H2.69094L3.18791 1.99998L3.41822 1.7818C3.43034 1.74544 3.44246 1.73332 3.4667 1.73332H3.52731C3.53943 1.7212 3.53943 1.7212 3.55155 1.7212H3.56367C3.58791 1.7212 3.60004 1.7212 3.61216 1.73332C3.62428 1.74544 3.6364 1.75756 3.6364 1.7818H3.64852L4.25458 2.4121C4.27882 2.4121 4.29094 2.42423 4.30307 2.44847C4.31519 2.47271 4.32731 2.48483 4.32731 2.50907V2.5212V2.53332C4.32731 2.55756 4.32731 2.56968 4.31519 2.59392C4.30307 2.61817 4.29094 2.63029 4.27882 2.64241L3.90307 3.01816L6.41216 5.53938L7.56367 4.37574C7.58791 4.3515 7.60003 4.33938 7.62428 4.33938C7.64852 4.33938 7.66064 4.32726 7.68488 4.32726C7.70913 4.32726 7.72125 4.32726 7.74549 4.33938C7.76973 4.3515 7.78185 4.36362 7.79397 4.37574L8.41216 5.00604C8.42428 5.03029 8.4364 5.04241 8.44852 5.05453C8.46064 5.06665 8.46064 5.09089 8.46064 5.12726C8.46064 5.1515 8.46064 5.16362 8.44852 5.17574C8.4364 5.18786 8.42428 5.2121 8.41216 5.22423L7.74549 5.89089L8.14549 6.29089L8.19397 6.24241C8.29094 6.14544 8.41216 6.07271 8.53337 6.02423C8.65458 5.97574 8.78791 5.93938 8.94549 5.93938C9.09094 5.93938 9.22428 5.97574 9.35761 6.03635C9.49094 6.09695 9.60003 6.1818 9.697 6.27877C9.72125 6.29089 9.73337 6.30301 9.73337 6.32726C9.73337 6.3515 9.74549 6.36362 9.74549 6.38786C9.74549 6.4121 9.74549 6.42423 9.73337 6.44847C9.73337 6.47271 9.72125 6.48483 9.697 6.49695C9.68488 6.52119 9.67276 6.53332 9.64852 6.53332C9.62428 6.53332 9.60003 6.54544 9.57579 6.54544C9.55155 6.54544 9.53943 6.54544 9.51519 6.53332C9.49094 6.53332 9.47882 6.52119 9.45458 6.49695C9.39397 6.43635 9.32125 6.38786 9.22428 6.3515C9.12731 6.31513 9.04246 6.30301 8.94549 6.30301C8.84852 6.30301 8.75155 6.31513 8.6667 6.3515C8.58185 6.38786 8.50913 6.42423 8.4364 6.48483L8.40003 6.53332L9.41822 7.57574L9.4667 7.53938C9.55155 7.44241 9.64852 7.35756 9.76973 7.29695C9.89094 7.23635 10.0243 7.2121 10.1697 7.2121H10.1819H10.194H10.2061C10.3515 7.2121 10.4849 7.23635 10.6061 7.29695C10.7273 7.35756 10.8364 7.43029 10.9334 7.51513C10.9576 7.53938 10.9697 7.5515 10.9697 7.56362C10.9697 7.57574 10.9819 7.59998 10.9819 7.6121V7.62423V7.63635V7.69695C10.9819 7.69695 10.9697 7.70907 10.9334 7.74544C10.9091 7.75756 10.897 7.76968 10.8849 7.7818C10.8728 7.79392 10.8485 7.79392 10.8364 7.79392C10.8122 7.79392 10.8 7.79392 10.7758 7.7818C10.7515 7.7818 10.7394 7.76968 10.7273 7.74544C10.6546 7.68483 10.5819 7.63635 10.497 7.6121C10.4122 7.57574 10.3152 7.56362 10.2182 7.56362C10.1212 7.56362 10.0243 7.57574 9.93943 7.6121C9.85458 7.64847 9.76973 7.68483 9.70912 7.74544L9.66064 7.79392L10.7394 8.84847V8.79998C10.8364 8.70301 10.9334 8.61816 11.0667 8.55756C11.1879 8.49695 11.3334 8.47271 11.4788 8.47271C11.6364 8.48483 11.7697 8.5212 11.8909 8.5818C12.0122 8.64241 12.1334 8.71513 12.2303 8.8121L12.8849 9.46665C12.897 9.47877 12.9091 9.49089 12.9091 9.51513C12.9212 9.53938 12.9212 9.5515 12.9212 9.57574C12.9212 9.59998 12.9212 9.6121 12.9091 9.63635C12.897 9.66059 12.8849 9.67271 12.8849 9.68483L12.2182 10.3515L13.1758 11.3454H13.1879C13.4061 11.3576 13.6122 11.406 13.8061 11.4909C14 11.5757 14.1697 11.697 14.3273 11.8303C14.4849 11.9879 14.594 12.1818 14.6788 12.3879C14.7637 12.5939 14.8122 12.8121 14.8122 13.0545C14.8122 13.297 14.7637 13.5273 14.6788 13.7454C14.5819 13.9636 14.4606 14.1454 14.3031 14.3151C14.1455 14.4727 13.9758 14.5818 13.7697 14.6788C13.5637 14.7636 13.3455 14.8121 13.1152 14.8121H13.1031H13.0909H13.0788H13.0667C12.8243 14.8121 12.594 14.7636 12.3879 14.6788C12.1819 14.5939 12 14.4727 11.8303 14.3151C11.6849 14.1576 11.5758 13.9879 11.4909 13.7939C11.4061 13.6 11.3576 13.3939 11.3455 13.1879L10.3637 12.1939L9.697 12.8606L9.64852 12.9091C9.64852 12.9091 9.6364 12.9212 9.60003 12.9333C9.56367 12.9454 9.55155 12.9454 9.55155 12.9212C9.55155 12.897 9.53943 12.8848 9.51519 12.8848L8.87276 12.2303C8.84852 12.2182 8.8364 12.206 8.8364 12.1818C8.8364 12.1576 8.82428 12.1454 8.82428 12.1212C8.82428 12.097 8.82428 12.0848 8.8364 12.0606C8.8364 12.0363 8.84852 12.0242 8.87276 12.0121L9.55155 11.3091L9.09094 10.8848L9.03034 10.9576C8.93337 11.0545 8.8364 11.1273 8.71519 11.1757C8.59397 11.2363 8.47276 11.2606 8.33943 11.2606H8.32731H8.31519H8.30306C8.15761 11.2606 8.0364 11.2363 7.91519 11.1879C7.79397 11.1394 7.697 11.0666 7.60003 10.9697H7.56367C7.55155 10.9576 7.53943 10.9454 7.52731 10.9212C7.51519 10.897 7.51519 10.8848 7.51519 10.8485C7.51519 10.8242 7.51519 10.8121 7.52731 10.7879L7.56367 10.7273C7.58791 10.7151 7.60003 10.7151 7.62428 10.703C7.64852 10.703 7.66064 10.6909 7.68488 10.6909C7.70913 10.6909 7.72125 10.6909 7.74549 10.703C7.76973 10.703 7.78185 10.7151 7.79397 10.7273C7.85458 10.8 7.92731 10.8485 8.01216 10.897C8.097 10.9333 8.18185 10.9576 8.2667 10.9576H8.27882H8.31519C8.41216 10.9576 8.497 10.9454 8.58185 10.9091C8.6667 10.8727 8.73943 10.8242 8.80003 10.7636L8.81216 10.7515C8.81216 10.7515 8.81216 10.7394 8.82428 10.7273L8.897 10.6788L7.83034 9.62423L7.78185 9.67271C7.68488 9.76968 7.58791 9.85453 7.4667 9.91513C7.34549 9.97574 7.21216 9.99998 7.0667 9.99998H7.01822H7.0061H6.99397C6.86064 9.99998 6.73943 9.97574 6.61822 9.92726C6.497 9.87877 6.40003 9.80604 6.30307 9.73332H6.31519L6.2667 9.68483C6.24246 9.67271 6.23034 9.66059 6.23034 9.63635C6.23034 9.6121 6.21822 9.59998 6.21822 9.57574C6.21822 9.53938 6.23034 9.50301 6.2667 9.46665C6.30307 9.43029 6.32731 9.41816 6.37579 9.41816C6.40003 9.41816 6.41216 9.41816 6.4364 9.43029C6.46064 9.43029 6.47276 9.44241 6.48488 9.46665C6.55761 9.52726 6.64246 9.57574 6.72731 9.6121C6.82428 9.64847 6.90913 9.66059 7.01822 9.66059C7.12731 9.66059 7.21216 9.64847 7.297 9.6121C7.38185 9.57574 7.4667 9.52726 7.52731 9.46665L7.57579 9.39392L6.55761 8.3515L6.48488 8.4121C6.38791 8.50907 6.29094 8.5818 6.15761 8.63029C6.0364 8.69089 5.90307 8.71513 5.75761 8.71513C5.61216 8.71513 5.47882 8.69089 5.35761 8.64241C5.2364 8.59392 5.12731 8.52119 5.04246 8.42423H5.03034V8.4121L4.37579 7.76968C4.36367 7.74544 4.36367 7.73332 4.35155 7.70907C4.35155 7.68483 4.33943 7.67271 4.33943 7.64847C4.33943 7.62423 4.33943 7.6121 4.35155 7.58786C4.35155 7.56362 4.36367 7.5515 4.37579 7.53938L5.52731 6.37574L3.04246 3.86665L2.69094 4.23029L2.56973 4.27877L2.46064 4.23029L1.81822 3.59998C1.79397 3.57574 1.78185 3.56362 1.78185 3.5515C1.78185 3.53938 1.76973 3.51513 1.76973 3.50301C1.76973 3.47877 1.76973 3.46665 1.78185 3.44241C1.78185 3.41816 1.79397 3.40604 1.81822 3.39392L2.01216 3.16362L1.49094 2.65453L1.45458 2.59392C1.45458 2.59392 1.45458 2.56968 1.44246 2.53332C1.43034 2.49695 1.44246 2.47271 1.45458 2.47271C1.4667 2.47271 1.50307 2.46059 1.50307 2.43635ZM10.5819 11.9394L11.3455 12.7151V12.6182C11.3576 12.5818 11.3576 12.5576 11.3697 12.5333C11.3697 12.5091 11.3819 12.4848 11.394 12.4485C11.4303 12.3273 11.4909 12.206 11.5637 12.1091C11.6364 12 11.7091 11.903 11.794 11.8303C11.9031 11.7333 12.0243 11.6363 12.1455 11.5636C12.2667 11.4909 12.4122 11.4303 12.5576 11.3939H12.5697H12.6788L11.9152 10.6303L10.5819 11.9394ZM12.0606 14.0363C12.1819 14.1576 12.3273 14.2545 12.497 14.3394C12.6667 14.4121 12.8485 14.4485 13.0303 14.4485H13.0788C13.2728 14.4485 13.4425 14.4121 13.6122 14.3394C13.7697 14.2666 13.9152 14.1697 14.0364 14.0363C14.1697 13.9151 14.2667 13.7697 14.3515 13.6C14.4243 13.4303 14.4606 13.2606 14.4606 13.0788C14.4606 12.8848 14.4243 12.703 14.3637 12.5333C14.3031 12.3636 14.2061 12.2182 14.0849 12.0848C14.0849 12.0727 14.0849 12.0727 14.0728 12.0727C14.0606 12.0727 14.0485 12.0606 14.0364 12.0363C13.9394 11.9394 13.8182 11.8666 13.697 11.7939C13.5758 11.7212 13.4546 11.6727 13.3212 11.6363H13.3091L13.0667 11.5879L13.2849 11.7697L13.3819 11.8303C13.4788 11.9273 13.5394 12.0242 13.6 12.1454C13.6485 12.2666 13.6728 12.3879 13.6728 12.5333V12.5697V12.606C13.6728 12.7515 13.6485 12.8848 13.5879 13.006C13.5273 13.1273 13.4546 13.2485 13.3697 13.3333C13.2728 13.4303 13.1758 13.5151 13.0425 13.5757C12.9212 13.6363 12.7758 13.6606 12.6425 13.6606H12.6061C12.4606 13.6606 12.3273 13.6363 12.194 13.5757C12.0606 13.5151 11.9515 13.4424 11.8546 13.3333L11.8061 13.2727L11.6243 13.0424L11.6728 13.3212C11.7091 13.4666 11.7455 13.5879 11.8061 13.7091C11.8788 13.8303 11.9515 13.9394 12.0606 14.0363ZM12.097 13.1273H12.1212C12.1819 13.1879 12.2546 13.2363 12.3394 13.2727C12.4243 13.3091 12.5091 13.3212 12.6061 13.3212H12.6182H12.6061C12.6303 13.3212 12.6667 13.3212 12.6788 13.3333C12.7031 13.3333 12.7273 13.3454 12.7515 13.3454C12.9576 13.3454 13.1273 13.2727 13.2728 13.1273C13.4182 12.9818 13.4909 12.8 13.4909 12.606C13.4909 12.4 13.4182 12.2303 13.2728 12.0848C13.1273 11.9394 12.9576 11.8666 12.7515 11.8666H12.6909C12.6909 11.8666 12.6667 11.8666 12.6303 11.8788H12.6061C12.5091 11.8788 12.4243 11.8909 12.3394 11.9273C12.2546 11.9636 12.1819 12.0121 12.1212 12.0727C12.0606 12.1333 12.0122 12.206 11.9637 12.2909C11.9273 12.3757 11.9031 12.4606 11.9031 12.5454V12.5576V12.5939V12.6303C11.9031 12.7273 11.9152 12.8242 11.9515 12.9091C11.9879 12.9818 12.0364 13.0545 12.097 13.1273ZM11.8788 8.94544L11.8182 8.89695C11.7697 8.87271 11.7091 8.86059 11.6606 8.84847C11.6 8.83635 11.5515 8.82423 11.4909 8.82423C11.394 8.82423 11.297 8.83635 11.2122 8.87271C11.1273 8.90907 11.0425 8.95756 10.9819 9.01816L10.9334 9.05453L11.3576 9.47877L11.8788 8.94544ZM9.33337 10.6424L9.74549 11.0666L11.0788 9.72119L10.6546 9.3212L9.33337 10.6424ZM9.18791 12.0848L9.56367 12.497L12.497 9.5515L12.1212 9.13938L9.18791 12.0848ZM8.06064 9.36968L9.12731 10.4242L10.4364 9.07877L9.39397 8.02422L8.06064 9.36968ZM6.82428 8.10907L7.84246 9.12726L9.17579 7.81816L8.12125 6.77574L6.82428 8.10907ZM3.28488 3.64847L5.76973 6.13332L6.16973 5.7212L3.67276 3.26059L3.28488 3.64847ZM4.75155 7.63635L5.15155 8.03635L8.07276 5.09089L7.67276 4.69089L4.75155 7.63635ZM5.92731 7.7212L5.38185 8.26665L5.44246 8.31513C5.49094 8.33938 5.55155 8.3515 5.60004 8.36362C5.66064 8.37574 5.70913 8.38786 5.76973 8.38786H5.78185H5.8061C5.90307 8.38786 5.98791 8.36362 6.07276 8.32726C6.15761 8.29089 6.23034 8.23029 6.29094 8.15756L6.35155 8.10907L5.92731 7.7212ZM6.16973 7.47877L6.59397 7.87877L7.90306 6.53332L7.50307 6.13332L6.16973 7.47877ZM1.87882 2.5212L2.27882 2.9212L2.99397 2.20604L2.59397 1.80604L1.87882 2.5212ZM2.16973 3.50301L2.56973 3.91513L3.93943 2.5212L3.52731 2.10907L2.16973 3.50301Z" fill="#2D3E50"/>
<mask id="mask0" mask-type="alpha" maskUnits="userSpaceOnUse" x="1" y="1" width="14" height="14">
<path d="M14.9091 1.33333H1.33334V14.9091H14.9091V1.33333Z" fill="white"/>
<path d="M1.50304 2.43636L2.46061 1.50303C2.47273 1.46667 2.48485 1.45454 2.5091 1.45454H2.5697H2.69091L3.18788 2L3.41819 1.78182C3.43031 1.74545 3.44243 1.73333 3.46667 1.73333H3.52728C3.5394 1.72121 3.5394 1.72121 3.55152 1.72121H3.56364C3.58788 1.72121 3.6 1.72121 3.61213 1.73333C3.62425 1.74545 3.63637 1.75757 3.63637 1.78182H3.64849L4.25455 2.41212C4.27879 2.41212 4.29091 2.42424 4.30304 2.44848C4.31516 2.47273 4.32728 2.48485 4.32728 2.50909V2.52121V2.53333C4.32728 2.55757 4.32728 2.5697 4.31516 2.59394C4.30304 2.61818 4.29091 2.6303 4.27879 2.64242L3.90304 3.01818L6.41213 5.53939L7.56364 4.37576C7.58788 4.35151 7.6 4.33939 7.62425 4.33939C7.64849 4.33939 7.66061 4.32727 7.68485 4.32727C7.7091 4.32727 7.72122 4.32727 7.74546 4.33939C7.7697 4.35151 7.78182 4.36363 7.79394 4.37576L8.41213 5.00606C8.42425 5.0303 8.43637 5.04242 8.44849 5.05454C8.46061 5.06666 8.46061 5.09091 8.46061 5.12727C8.46061 5.15151 8.46061 5.16363 8.44849 5.17576C8.43637 5.18788 8.42425 5.21212 8.41213 5.22424L7.74546 5.89091L8.14546 6.29091L8.19394 6.24242C8.29091 6.14545 8.41213 6.07273 8.53334 6.02424C8.65455 5.97576 8.78788 5.93939 8.94546 5.93939C9.09091 5.93939 9.22425 5.97576 9.35758 6.03636C9.49091 6.09697 9.6 6.18182 9.69697 6.27879C9.72122 6.29091 9.73334 6.30303 9.73334 6.32727C9.73334 6.35151 9.74546 6.36363 9.74546 6.38788C9.74546 6.41212 9.74546 6.42424 9.73334 6.44848C9.73334 6.47273 9.72122 6.48485 9.69697 6.49697C9.68485 6.52121 9.67273 6.53333 9.64849 6.53333C9.62425 6.53333 9.6 6.54545 9.57576 6.54545C9.55152 6.54545 9.5394 6.54545 9.51516 6.53333C9.49091 6.53333 9.47879 6.52121 9.45455 6.49697C9.39394 6.43636 9.32122 6.38788 9.22425 6.35151C9.12728 6.31515 9.04243 6.30303 8.94546 6.30303C8.84849 6.30303 8.75152 6.31515 8.66667 6.35151C8.58182 6.38788 8.5091 6.42424 8.43637 6.48485L8.4 6.53333L9.41819 7.57576L9.46667 7.53939C9.55152 7.44242 9.64849 7.35757 9.7697 7.29697C9.89091 7.23636 10.0242 7.21212 10.1697 7.21212H10.1818H10.1939H10.2061C10.3515 7.21212 10.4849 7.23636 10.6061 7.29697C10.7273 7.35757 10.8364 7.4303 10.9333 7.51515C10.9576 7.53939 10.9697 7.55151 10.9697 7.56363C10.9697 7.57576 10.9818 7.6 10.9818 7.61212V7.62424V7.63636V7.69697C10.9818 7.69697 10.9697 7.70909 10.9333 7.74545C10.9091 7.75757 10.897 7.7697 10.8849 7.78182C10.8727 7.79394 10.8485 7.79394 10.8364 7.79394C10.8121 7.79394 10.8 7.79394 10.7758 7.78182C10.7515 7.78182 10.7394 7.7697 10.7273 7.74545C10.6545 7.68485 10.5818 7.63636 10.497 7.61212C10.4121 7.57576 10.3152 7.56363 10.2182 7.56363C10.1212 7.56363 10.0242 7.57576 9.9394 7.61212C9.85455 7.64848 9.7697 7.68485 9.7091 7.74545L9.66061 7.79394L10.7394 8.84848V8.8C10.8364 8.70303 10.9333 8.61818 11.0667 8.55757C11.1879 8.49697 11.3333 8.47273 11.4788 8.47273C11.6364 8.48485 11.7697 8.52121 11.8909 8.58182C12.0121 8.64242 12.1333 8.71515 12.2303 8.81212L12.8849 9.46666C12.897 9.47879 12.9091 9.49091 12.9091 9.51515C12.9212 9.53939 12.9212 9.55151 12.9212 9.57576C12.9212 9.6 12.9212 9.61212 12.9091 9.63636C12.897 9.6606 12.8849 9.67273 12.8849 9.68485L12.2182 10.3515L13.1758 11.3455H13.1879C13.4061 11.3576 13.6121 11.4061 13.8061 11.4909C14 11.5758 14.1697 11.697 14.3273 11.8303C14.4849 11.9879 14.5939 12.1818 14.6788 12.3879C14.7636 12.5939 14.8121 12.8121 14.8121 13.0545C14.8121 13.297 14.7636 13.5273 14.6788 13.7455C14.5818 13.9636 14.4606 14.1455 14.303 14.3151C14.1455 14.4727 13.9758 14.5818 13.7697 14.6788C13.5636 14.7636 13.3455 14.8121 13.1152 14.8121H13.103H13.0909H13.0788H13.0667C12.8242 14.8121 12.5939 14.7636 12.3879 14.6788C12.1818 14.5939 12 14.4727 11.8303 14.3151C11.6849 14.1576 11.5758 13.9879 11.4909 13.7939C11.4061 13.6 11.3576 13.3939 11.3455 13.1879L10.3636 12.1939L9.69697 12.8606L9.64849 12.9091C9.64849 12.9091 9.63637 12.9212 9.6 12.9333C9.56364 12.9455 9.55152 12.9455 9.55152 12.9212C9.55152 12.897 9.5394 12.8848 9.51516 12.8848L8.87273 12.2303C8.84849 12.2182 8.83637 12.2061 8.83637 12.1818C8.83637 12.1576 8.82425 12.1455 8.82425 12.1212C8.82425 12.097 8.82425 12.0848 8.83637 12.0606C8.83637 12.0364 8.84849 12.0242 8.87273 12.0121L9.55152 11.3091L9.09091 10.8848L9.03031 10.9576C8.93334 11.0545 8.83637 11.1273 8.71516 11.1758C8.59394 11.2364 8.47273 11.2606 8.3394 11.2606H8.32728H8.31516H8.30303C8.15758 11.2606 8.03637 11.2364 7.91516 11.1879C7.79394 11.1394 7.69697 11.0667 7.6 10.9697H7.56364C7.55152 10.9576 7.5394 10.9455 7.52728 10.9212C7.51516 10.897 7.51516 10.8848 7.51516 10.8485C7.51516 10.8242 7.51516 10.8121 7.52728 10.7879L7.56364 10.7273C7.58788 10.7151 7.6 10.7151 7.62425 10.703C7.64849 10.703 7.66061 10.6909 7.68485 10.6909C7.7091 10.6909 7.72122 10.6909 7.74546 10.703C7.7697 10.703 7.78182 10.7151 7.79394 10.7273C7.85455 10.8 7.92728 10.8485 8.01213 10.897C8.09697 10.9333 8.18182 10.9576 8.26667 10.9576H8.27879H8.31516C8.41213 10.9576 8.49697 10.9455 8.58182 10.9091C8.66667 10.8727 8.7394 10.8242 8.8 10.7636L8.81213 10.7515C8.81213 10.7515 8.81213 10.7394 8.82425 10.7273L8.89697 10.6788L7.83031 9.62424L7.78182 9.67273C7.68485 9.7697 7.58788 9.85454 7.46667 9.91515C7.34546 9.97576 7.21213 10 7.06667 10H7.01819H7.00606H6.99394C6.86061 10 6.7394 9.97576 6.61819 9.92727C6.49697 9.87879 6.4 9.80606 6.30303 9.73333H6.31516L6.26667 9.68485C6.24243 9.67273 6.23031 9.6606 6.23031 9.63636C6.23031 9.61212 6.21819 9.6 6.21819 9.57576C6.21819 9.53939 6.23031 9.50303 6.26667 9.46666C6.30304 9.4303 6.32728 9.41818 6.37576 9.41818C6.4 9.41818 6.41213 9.41818 6.43637 9.4303C6.46061 9.4303 6.47273 9.44242 6.48485 9.46666C6.55758 9.52727 6.64243 9.57576 6.72728 9.61212C6.82425 9.64848 6.9091 9.6606 7.01819 9.6606C7.12728 9.6606 7.21213 9.64848 7.29697 9.61212C7.38182 9.57576 7.46667 9.52727 7.52728 9.46666L7.57576 9.39394L6.55758 8.35151L6.48485 8.41212C6.38788 8.50909 6.29091 8.58182 6.15758 8.6303C6.03637 8.69091 5.90304 8.71515 5.75758 8.71515C5.61213 8.71515 5.47879 8.69091 5.35758 8.64242C5.23637 8.59394 5.12728 8.52121 5.04243 8.42424H5.03031V8.41212L4.37576 7.76969C4.36364 7.74545 4.36364 7.73333 4.35152 7.70909C4.35152 7.68485 4.3394 7.67273 4.3394 7.64848C4.3394 7.62424 4.3394 7.61212 4.35152 7.58788C4.35152 7.56363 4.36364 7.55151 4.37576 7.53939L5.52728 6.37576L3.04243 3.86667L2.69091 4.2303L2.5697 4.27879L2.46061 4.2303L1.81819 3.6C1.79394 3.57576 1.78182 3.56363 1.78182 3.55151C1.78182 3.53939 1.7697 3.51515 1.7697 3.50303C1.7697 3.47879 1.7697 3.46667 1.78182 3.44242C1.78182 3.41818 1.79394 3.40606 1.81819 3.39394L2.01213 3.16363L1.49091 2.65454L1.45455 2.59394C1.45455 2.59394 1.45455 2.5697 1.44243 2.53333C1.43031 2.49697 1.44243 2.47273 1.45455 2.47273C1.46667 2.47273 1.50304 2.4606 1.50304 2.43636ZM10.5818 11.9394L11.3455 12.7151V12.6182C11.3576 12.5818 11.3576 12.5576 11.3697 12.5333C11.3697 12.5091 11.3818 12.4848 11.3939 12.4485C11.4303 12.3273 11.4909 12.2061 11.5636 12.1091C11.6364 12 11.7091 11.903 11.7939 11.8303C11.903 11.7333 12.0242 11.6364 12.1455 11.5636C12.2667 11.4909 12.4121 11.4303 12.5576 11.3939H12.5697H12.6788L11.9152 10.6303L10.5818 11.9394ZM12.0606 14.0364C12.1818 14.1576 12.3273 14.2545 12.497 14.3394C12.6667 14.4121 12.8485 14.4485 13.0303 14.4485H13.0788C13.2727 14.4485 13.4424 14.4121 13.6121 14.3394C13.7697 14.2667 13.9152 14.1697 14.0364 14.0364C14.1697 13.9151 14.2667 13.7697 14.3515 13.6C14.4242 13.4303 14.4606 13.2606 14.4606 13.0788C14.4606 12.8848 14.4242 12.703 14.3636 12.5333C14.303 12.3636 14.2061 12.2182 14.0849 12.0848C14.0849 12.0727 14.0849 12.0727 14.0727 12.0727C14.0606 12.0727 14.0485 12.0606 14.0364 12.0364C13.9394 11.9394 13.8182 11.8667 13.697 11.7939C13.5758 11.7212 13.4545 11.6727 13.3212 11.6364H13.3091L13.0667 11.5879L13.2849 11.7697L13.3818 11.8303C13.4788 11.9273 13.5394 12.0242 13.6 12.1455C13.6485 12.2667 13.6727 12.3879 13.6727 12.5333V12.5697V12.6061C13.6727 12.7515 13.6485 12.8848 13.5879 13.0061C13.5273 13.1273 13.4545 13.2485 13.3697 13.3333C13.2727 13.4303 13.1758 13.5151 13.0424 13.5758C12.9212 13.6364 12.7758 13.6606 12.6424 13.6606H12.6061C12.4606 13.6606 12.3273 13.6364 12.1939 13.5758C12.0606 13.5151 11.9515 13.4424 11.8545 13.3333L11.8061 13.2727L11.6242 13.0424L11.6727 13.3212C11.7091 13.4667 11.7455 13.5879 11.8061 13.7091C11.8788 13.8303 11.9515 13.9394 12.0606 14.0364ZM12.097 13.1273H12.1212C12.1818 13.1879 12.2545 13.2364 12.3394 13.2727C12.4242 13.3091 12.5091 13.3212 12.6061 13.3212H12.6182H12.6061C12.6303 13.3212 12.6667 13.3212 12.6788 13.3333C12.703 13.3333 12.7273 13.3455 12.7515 13.3455C12.9576 13.3455 13.1273 13.2727 13.2727 13.1273C13.4182 12.9818 13.4909 12.8 13.4909 12.6061C13.4909 12.4 13.4182 12.2303 13.2727 12.0848C13.1273 11.9394 12.9576 11.8667 12.7515 11.8667H12.6909C12.6909 11.8667 12.6667 11.8667 12.6303 11.8788H12.6061C12.5091 11.8788 12.4242 11.8909 12.3394 11.9273C12.2545 11.9636 12.1818 12.0121 12.1212 12.0727C12.0606 12.1333 12.0121 12.2061 11.9636 12.2909C11.9273 12.3758 11.903 12.4606 11.903 12.5455V12.5576V12.5939V12.6303C11.903 12.7273 11.9152 12.8242 11.9515 12.9091C11.9879 12.9818 12.0364 13.0545 12.097 13.1273ZM11.8788 8.94545L11.8182 8.89697C11.7697 8.87273 11.7091 8.8606 11.6606 8.84848C11.6 8.83636 11.5515 8.82424 11.4909 8.82424C11.3939 8.82424 11.297 8.83636 11.2121 8.87273C11.1273 8.90909 11.0424 8.95757 10.9818 9.01818L10.9333 9.05454L11.3576 9.47879L11.8788 8.94545ZM9.33334 10.6424L9.74546 11.0667L11.0788 9.72121L10.6545 9.32121L9.33334 10.6424ZM9.18788 12.0848L9.56364 12.497L12.497 9.55151L12.1212 9.13939L9.18788 12.0848ZM8.06061 9.3697L9.12728 10.4242L10.4364 9.07879L9.39394 8.02424L8.06061 9.3697ZM6.82425 8.10909L7.84243 9.12727L9.17576 7.81818L8.12122 6.77576L6.82425 8.10909ZM3.28485 3.64848L5.7697 6.13333L6.1697 5.72121L3.67273 3.2606L3.28485 3.64848ZM4.75152 7.63636L5.15152 8.03636L8.07273 5.09091L7.67273 4.69091L4.75152 7.63636ZM5.92728 7.72121L5.38182 8.26666L5.44243 8.31515C5.49091 8.33939 5.55152 8.35151 5.6 8.36363C5.66061 8.37576 5.7091 8.38788 5.7697 8.38788H5.78182H5.80607C5.90304 8.38788 5.98788 8.36363 6.07273 8.32727C6.15758 8.29091 6.23031 8.2303 6.29091 8.15757L6.35152 8.10909L5.92728 7.72121ZM6.1697 7.47879L6.59394 7.87879L7.90303 6.53333L7.50304 6.13333L6.1697 7.47879ZM1.87879 2.52121L2.27879 2.92121L2.99394 2.20606L2.59394 1.80606L1.87879 2.52121ZM2.1697 3.50303L2.5697 3.91515L3.9394 2.52121L3.52728 2.10909L2.1697 3.50303Z" fill="black"/>
</mask>
<g mask="url(#mask0)">
<path d="M13.0667 14.9091H13.0425C12.7879 14.9091 12.5455 14.8606 12.3152 14.7758C12.097 14.6788 11.891 14.5576 11.7213 14.3879C11.5637 14.2182 11.4425 14.0364 11.3576 13.8303C11.2728 13.6364 11.2243 13.4303 11.2 13.2242L10.3273 12.3515L9.67277 13.0061L9.60004 13.0424C9.52732 13.0788 9.46671 13.0545 9.44247 13.0424C9.43035 13.0303 9.41822 13.0182 9.4061 13.0061L8.75156 12.3394C8.71519 12.3151 8.67883 12.2788 8.66671 12.2303C8.65459 12.2061 8.65459 12.1697 8.65459 12.1454C8.65459 12.1212 8.65459 12.0848 8.66671 12.0606C8.67883 12.0121 8.70307 11.9758 8.75156 11.9515L9.3455 11.3454L9.10307 11.0909C9.0061 11.1879 8.89701 11.2606 8.76368 11.3212C8.63035 11.3818 8.48489 11.4182 8.33944 11.4182H8.29095C8.13338 11.4182 7.98792 11.3939 7.85459 11.3333C7.7455 11.2848 7.63641 11.2121 7.53944 11.1273H7.51519L7.47883 11.0909C7.45459 11.0667 7.44247 11.0424 7.43035 11.0182C7.4061 10.9818 7.4061 10.9333 7.4061 10.8848C7.4061 10.8485 7.41822 10.8121 7.43035 10.7758L7.47883 10.6788L7.51519 10.6545C7.53944 10.6424 7.5758 10.6303 7.60004 10.6182C7.66065 10.6061 7.72125 10.6061 7.78186 10.6182C7.81822 10.6303 7.85459 10.6424 7.87883 10.6788C7.93944 10.7394 7.98792 10.7879 8.06065 10.8242C8.12125 10.8606 8.19398 10.8727 8.26671 10.8727H8.31519C8.38792 10.8727 8.46065 10.8606 8.53338 10.8242C8.59398 10.8 8.65459 10.7636 8.70307 10.7151V10.703L7.83035 9.8303C7.7455 9.91515 7.63641 10 7.51519 10.0485C7.38186 10.1091 7.22429 10.1454 7.06671 10.1454H7.0061C6.86065 10.1454 6.71519 10.1212 6.58186 10.0606C6.44853 10 6.33944 9.92727 6.24247 9.84242L6.00004 9.63636H6.12125C6.12125 9.62424 6.12125 9.61212 6.12125 9.59999C6.12125 9.52727 6.1455 9.46666 6.2061 9.40606C6.27883 9.33333 6.38792 9.30909 6.48489 9.33333C6.53338 9.34545 6.56974 9.36969 6.59398 9.40606C6.65459 9.45454 6.71519 9.4909 6.78792 9.51515C6.9455 9.57575 7.12732 9.57575 7.27277 9.51515C7.33338 9.4909 7.39398 9.45454 7.44247 9.41818L6.56974 8.53333C6.47277 8.6303 6.35156 8.70303 6.23035 8.76363C5.95156 8.88484 5.61216 8.88484 5.33338 8.77575C5.21216 8.72727 5.10307 8.65454 5.01822 8.56969H4.93338V8.48484L4.30307 7.86666L4.29095 7.84242C4.27883 7.81818 4.26671 7.78181 4.25459 7.75757C4.24247 7.70909 4.24247 7.67272 4.24247 7.64848C4.24247 7.62424 4.24247 7.58787 4.25459 7.56363C4.26671 7.52727 4.27883 7.4909 4.30307 7.46666L5.36974 6.38787L3.04247 4.03636L2.76368 4.32727L2.56974 4.39999L2.40004 4.32727L1.7455 3.68484C1.70913 3.64848 1.68489 3.61212 1.67277 3.58787C1.66065 3.56363 1.66065 3.52727 1.66065 3.4909C1.66065 3.46666 1.66065 3.4303 1.67277 3.40606C1.68489 3.35757 1.70913 3.32121 1.7455 3.29696L1.85459 3.16363L1.4061 2.72727L1.35762 2.61818L1.3455 2.55757C1.33338 2.53333 1.32125 2.4606 1.36974 2.39999C1.38186 2.38787 1.38186 2.38787 1.39398 2.37575L1.43035 2.33939L2.36368 1.4303C2.41216 1.34545 2.48489 1.33333 2.50913 1.33333H2.73944L3.18792 1.8303L3.30913 1.72121C3.35762 1.63636 3.43035 1.62424 3.45459 1.62424H3.47883C3.49095 1.61212 3.51519 1.61212 3.53944 1.61212C3.58792 1.61212 3.63641 1.62424 3.67277 1.64848C3.69701 1.6606 3.70913 1.68484 3.73338 1.70909L4.31519 2.31515C4.35156 2.32727 4.3758 2.35151 4.40004 2.38787C4.43641 2.42424 4.44853 2.47272 4.44853 2.52121V2.53333C4.44853 2.56969 4.43641 2.60606 4.42429 2.64242C4.41216 2.67878 4.38792 2.70303 4.3758 2.71515L4.08489 3.00606L6.42428 5.34545L7.49095 4.26666C7.52732 4.2303 7.56368 4.20606 7.61216 4.19393C7.68489 4.18181 7.75762 4.18181 7.81822 4.20606C7.85459 4.21818 7.87883 4.24242 7.89095 4.25454L8.52126 4.89696L8.53338 4.90909C8.5455 4.92121 8.5455 4.93333 8.55762 4.94545C8.58186 4.98181 8.59398 5.0303 8.59398 5.07878C8.59398 5.12727 8.58186 5.16363 8.55762 5.2C8.5455 5.21212 8.5455 5.22424 8.53338 5.23636L8.52126 5.24848L7.92732 5.84242L8.15762 6.07272C8.25459 5.98787 8.36368 5.91515 8.48489 5.86666C8.75156 5.74545 9.10307 5.73333 9.4061 5.87878C9.55156 5.93939 9.67277 6.03636 9.76974 6.13333C9.8061 6.15757 9.83035 6.19393 9.84247 6.24242C9.85459 6.26666 9.85459 6.30303 9.85459 6.32727C9.85459 6.35151 9.85459 6.38787 9.84247 6.41212C9.83035 6.44848 9.8061 6.48484 9.76974 6.52121C9.7455 6.55757 9.70913 6.58181 9.66065 6.59393C9.61216 6.60606 9.53944 6.60606 9.46671 6.59393C9.43035 6.58181 9.38186 6.55757 9.3455 6.52121C9.29701 6.47272 9.23641 6.43636 9.16368 6.39999C8.99398 6.33939 8.82429 6.35151 8.70307 6.38787C8.65459 6.4 8.61822 6.42424 8.56974 6.4606L9.41822 7.33333C9.50307 7.24848 9.60004 7.17575 9.70913 7.12727C9.84247 7.06666 10 7.0303 10.1576 7.0303H10.1819C10.3394 7.0303 10.497 7.06666 10.6303 7.12727C10.7758 7.18787 10.897 7.27272 10.994 7.36969C11.0303 7.40606 11.0546 7.44242 11.0667 7.46666C11.0788 7.4909 11.0788 7.52727 11.0788 7.56363V7.68484L10.9819 7.78181L10.9697 7.79393C10.9576 7.80606 10.9455 7.80606 10.9334 7.81818C10.8728 7.85454 10.8 7.86666 10.7273 7.84242C10.6788 7.8303 10.6425 7.80606 10.6182 7.76969C10.5576 7.72121 10.497 7.68484 10.4364 7.6606C10.291 7.61212 10.097 7.61212 9.95156 7.6606C9.90307 7.67272 9.85459 7.70909 9.8061 7.73333L10.6788 8.58181C10.7637 8.49697 10.8728 8.43636 10.9819 8.38787C11.1273 8.32727 11.2849 8.2909 11.4425 8.2909C11.6122 8.30303 11.7697 8.33939 11.9152 8.41212C12.0485 8.47272 12.1819 8.55757 12.291 8.65454L12.9455 9.30909C12.9697 9.33333 12.9819 9.35757 12.994 9.38181C13.0182 9.41818 13.0182 9.45454 13.0182 9.4909C13.0182 9.52727 13.0061 9.56363 12.994 9.61212C12.9819 9.64848 12.9576 9.67272 12.9455 9.68484L12.3637 10.2667L13.2 11.1394C13.4303 11.1515 13.6364 11.2 13.8303 11.297C14.0364 11.3939 14.2182 11.5151 14.3758 11.6606C14.5455 11.8424 14.6667 12.0364 14.7637 12.2545C14.8606 12.4727 14.897 12.7151 14.897 12.9697C14.897 13.2242 14.8485 13.4788 14.7516 13.7091C14.6546 13.9394 14.5213 14.1333 14.3516 14.3151C14.194 14.4727 14 14.6061 13.7697 14.703C13.5637 14.8606 13.3213 14.9091 13.0667 14.9091ZM10.3394 12.0121L11.4425 13.1273V13.1758C11.4546 13.3697 11.491 13.5636 11.5758 13.7455C11.6606 13.9273 11.7576 14.0848 11.891 14.2303C12.0364 14.3636 12.2061 14.4848 12.4 14.5576C12.594 14.6424 12.8 14.6788 13.0303 14.6788H13.0546C13.2728 14.6788 13.4788 14.6424 13.6728 14.5576C13.8667 14.4727 14.0364 14.3636 14.1697 14.2303C14.3152 14.0848 14.4364 13.903 14.5213 13.7091C14.6061 13.5151 14.6425 13.297 14.6425 13.0667C14.6425 12.8485 14.6061 12.6424 14.5213 12.4485C14.4364 12.2545 14.3273 12.0848 14.194 11.9273C14.0606 11.8061 13.891 11.697 13.7213 11.6121C13.5394 11.5273 13.3455 11.4909 13.1394 11.4788H13.0788L12 10.3636L12.7516 9.61212C12.7516 9.61212 12.7516 9.61212 12.7637 9.59999V9.58787C12.7637 9.57575 12.7516 9.57575 12.7516 9.57575L12.1213 8.89697C12.0364 8.81212 11.9273 8.75151 11.8182 8.6909C11.7091 8.64242 11.5758 8.60606 11.4425 8.59393C11.3213 8.59393 11.1879 8.61818 11.0788 8.66666C10.9819 8.71515 10.897 8.76363 10.8243 8.83636V8.95757L10.8849 8.90909C10.9697 8.83636 11.0546 8.78787 11.1516 8.75151C11.3091 8.67878 11.5152 8.66666 11.6849 8.71515C11.7455 8.72727 11.8061 8.75151 11.8546 8.77575L11.8788 8.78787L12.0485 8.92121L11.3334 9.63636L10.7152 9.01818L9.45459 7.78181L9.58792 7.64848C9.67277 7.57575 9.76974 7.51515 9.86671 7.47878C10.0606 7.40606 10.3152 7.40606 10.5091 7.47878C10.6061 7.51515 10.7031 7.56363 10.7879 7.63636L10.8122 7.64848C10.8243 7.63636 10.8364 7.63636 10.8485 7.62424V7.6V7.58787C10.8485 7.58787 10.8485 7.58787 10.8364 7.57575C10.7516 7.4909 10.6546 7.4303 10.5455 7.38181C10.4364 7.33333 10.3152 7.30909 10.194 7.30909H10.1697C10.0485 7.30909 9.92732 7.33333 9.83035 7.38181C9.72125 7.4303 9.63641 7.50303 9.5758 7.58787L9.55156 7.61212L9.41822 7.69696L8.24247 6.53333L8.35156 6.37575C8.43641 6.30303 8.52125 6.25454 8.61822 6.21818C8.80004 6.14545 9.03035 6.14545 9.24853 6.2303C9.35762 6.26666 9.44247 6.32727 9.51519 6.39999C9.53944 6.41212 9.56368 6.41212 9.5758 6.41212L9.58792 6.39999L9.60004 6.38787V6.37575V6.36363L9.5758 6.35151C9.49095 6.26666 9.39398 6.19393 9.28489 6.13333C9.04247 6.02424 8.76368 6.03636 8.56974 6.12121C8.46065 6.16969 8.36368 6.24242 8.26671 6.32727L8.1455 6.4606L7.5758 5.8909L8.31519 5.15151C8.32732 5.13939 8.32732 5.12727 8.33944 5.11515C8.32732 5.10303 8.32732 5.0909 8.31519 5.07878L7.70913 4.47272C7.70913 4.47272 7.70913 4.47272 7.69701 4.4606C7.68489 4.4606 7.67277 4.4606 7.66065 4.4606L6.41216 5.69696L3.73338 3.00606L4.19398 2.53333C4.19398 2.53333 4.19398 2.53333 4.19398 2.52121L3.58792 1.8909H3.51519V1.84242L3.50307 1.85454L3.18792 2.18181L2.64247 1.57575H2.55762L2.5455 1.58787L1.61216 2.48484C1.60004 2.50909 1.60004 2.53333 1.5758 2.54545V2.55757L1.58792 2.59393L2.18186 3.15151L1.89095 3.4909V3.50303V3.51515C1.89095 3.51515 1.89095 3.51515 1.90307 3.52727L2.52125 4.13333L2.55762 4.14545L2.6061 4.12121L3.01822 3.68484L5.69701 6.37575L4.48489 7.62424C4.48489 7.63636 4.48489 7.64848 4.48489 7.64848C4.48489 7.6606 4.48489 7.67272 4.48489 7.68484C4.48489 7.69697 4.48489 7.69696 4.49701 7.70909L5.1758 8.36363C5.24853 8.43636 5.33338 8.48484 5.43035 8.53333C5.63641 8.61818 5.91519 8.6303 6.13338 8.52121C6.24247 8.47272 6.33944 8.39999 6.42428 8.32727L6.43641 8.31515L6.59398 8.18181L7.75762 9.36969L7.63641 9.53939L7.62429 9.55151C7.53944 9.62424 7.45459 9.67272 7.35762 9.72121C7.15156 9.80606 6.90913 9.80606 6.70307 9.72121C6.59398 9.68484 6.50913 9.62424 6.42428 9.55151L6.40004 9.53939C6.38792 9.53939 6.38792 9.52727 6.3758 9.55151C6.36368 9.56363 6.36368 9.56363 6.36368 9.57575V9.58787L6.47277 9.69697C6.53338 9.74545 6.6061 9.78181 6.67883 9.80606C6.7758 9.85454 6.88489 9.86666 7.0061 9.86666H7.06671C7.18792 9.86666 7.30913 9.84242 7.4061 9.79393C7.51519 9.74545 7.60004 9.67272 7.68489 9.58787L7.81822 9.45454L9.07883 10.703L8.90913 10.8121L8.88489 10.8364C8.80004 10.9212 8.71519 10.9697 8.61822 11.0182C8.52125 11.0545 8.41216 11.0788 8.30307 11.0788H8.25459C8.1455 11.0788 8.03641 11.0545 7.93944 11.0061C7.85459 10.9576 7.76974 10.897 7.69701 10.8242C7.67277 10.8242 7.66065 10.8242 7.63641 10.8242V10.8485C7.63641 10.8485 7.63641 10.8485 7.63641 10.8606L7.67277 10.897C7.75762 10.9818 7.84247 11.0424 7.95156 11.0909C8.04853 11.1394 8.16974 11.1515 8.29095 11.1515H8.33944C8.44853 11.1515 8.55762 11.1273 8.66671 11.0788C8.7758 11.0303 8.86065 10.9697 8.9455 10.8848L9.09095 10.703L9.69701 11.3091L8.92125 12.1091V12.1212V12.1333L9.53944 12.7636C9.55156 12.7636 9.56368 12.7758 9.5758 12.7758L10.3394 12.0121ZM11.1031 9.06666L11.3455 9.30909L11.6728 8.98181C11.6606 8.98181 11.6364 8.96969 11.6243 8.96969C11.5031 8.93333 11.3576 8.94545 11.2485 8.99393C11.2 9.00606 11.1516 9.0303 11.1031 9.06666ZM13.0667 14.5697H13.0182C12.8122 14.5697 12.6061 14.5333 12.4243 14.4485C12.2425 14.3636 12.0849 14.2545 11.9516 14.1212C11.8425 14.0121 11.7576 13.8909 11.6849 13.7576C11.6243 13.6364 11.5758 13.4909 11.5394 13.3333L11.4425 12.7636V12.9939L10.3879 11.9151L11.891 10.4364L12.8849 11.4303L13.3213 11.503C13.4667 11.5394 13.6 11.5879 13.7334 11.6727C13.8667 11.7455 13.9758 11.8303 14.0849 11.9273L14.097 11.9394C14.1213 11.9515 14.1334 11.9758 14.1455 12C14.2667 12.1333 14.3637 12.2909 14.4364 12.4727C14.5091 12.6545 14.5455 12.8485 14.5455 13.0545C14.5455 13.2485 14.5091 13.4424 14.4243 13.6364C14.3394 13.8182 14.2303 13.9758 14.0849 14.1091C13.9516 14.2424 13.8061 14.3515 13.6243 14.4242C13.4788 14.5333 13.2849 14.5697 13.0667 14.5697ZM11.8546 13.503C11.8788 13.5515 11.891 13.6121 11.9273 13.6606C11.9879 13.7697 12.0606 13.8667 12.1455 13.9636C12.2546 14.0727 12.3879 14.1697 12.5455 14.2303C12.691 14.303 12.8606 14.3394 13.0303 14.3394H13.0788C13.2485 14.3394 13.4182 14.303 13.5637 14.2424C13.7091 14.1697 13.8425 14.0848 13.9516 13.9636C14.0728 13.8545 14.1697 13.7212 14.2425 13.5636C14.3152 13.4182 14.3516 13.2485 14.3516 13.0909C14.3516 12.9091 14.3152 12.7515 14.2667 12.5939C14.2061 12.4485 14.1213 12.303 14.0122 12.1818C13.9879 12.1697 13.9758 12.1576 13.9516 12.1212C13.8546 12.0364 13.7576 11.9636 13.6485 11.903C13.6122 11.8788 13.5758 11.8667 13.5394 11.8424C13.6 11.9273 13.6606 12.0121 13.697 12.1091C13.7576 12.2424 13.7819 12.3879 13.7819 12.5455V12.6061C13.7819 12.7636 13.7455 12.9212 13.6849 13.0545C13.6243 13.2 13.5394 13.3212 13.4425 13.4182C13.3455 13.5273 13.2243 13.6121 13.0788 13.6848C12.9334 13.7455 12.7879 13.7818 12.6303 13.7818H12.6061C12.4485 13.7818 12.291 13.7455 12.1455 13.6848C12.0364 13.6364 11.9394 13.5758 11.8546 13.503ZM11.4667 12.6424L11.9637 13.2606C12.0364 13.3455 12.1334 13.4061 12.2425 13.4545C12.3637 13.503 12.4849 13.5273 12.6061 13.5273H12.6182C12.7394 13.5273 12.8606 13.503 12.9697 13.4545C13.0303 13.4303 13.0788 13.3939 13.1273 13.3697C13.0182 13.4303 12.8849 13.4545 12.7516 13.4545C12.7152 13.4545 12.6788 13.4545 12.6425 13.4424C12.6303 13.4424 12.6182 13.4424 12.594 13.4424C12.4849 13.4424 12.3879 13.4182 12.2788 13.3818C12.194 13.3455 12.1213 13.297 12.0606 13.2485H12.0364L12 13.2C11.9273 13.1151 11.8788 13.0303 11.8425 12.9454C11.8061 12.8485 11.7819 12.7394 11.7819 12.6182V12.5455C11.7819 12.4364 11.8061 12.3273 11.8546 12.2303C11.9031 12.1333 11.9637 12.0606 12.0243 11.9879C12.097 11.9151 12.1819 11.8545 12.2788 11.8182C12.3758 11.7818 12.4849 11.7576 12.594 11.7576H12.6061L12.6788 11.7455H12.7394C12.8728 11.7455 13.0061 11.7697 13.1152 11.8303L12.7516 11.5151H12.5576C12.4243 11.5515 12.3031 11.6 12.1819 11.6727C12.0606 11.7455 11.9516 11.8303 11.8425 11.9273C11.7697 12 11.697 12.0848 11.6364 12.1818C11.5758 12.2788 11.5152 12.3879 11.4788 12.497C11.4667 12.5212 11.4667 12.5454 11.4546 12.5697C11.4788 12.5818 11.4667 12.6061 11.4667 12.6424ZM12.6182 13.2C12.6546 13.2 12.6788 13.2 12.7031 13.2121C12.7031 13.2121 12.7273 13.2121 12.7516 13.2121C12.9213 13.2121 13.0667 13.1515 13.1758 13.0303C13.297 12.9091 13.3576 12.7636 13.3576 12.5939C13.3576 12.4242 13.297 12.2788 13.1758 12.1576C13.0546 12.0364 12.9213 11.9758 12.7516 11.9758H12.7031L12.6303 11.9879H12.6061C12.5334 11.9879 12.4606 12 12.3879 12.0364C12.3152 12.0606 12.2546 12.1091 12.2061 12.1576C12.1576 12.2061 12.1091 12.2667 12.0728 12.3394C12.0364 12.4 12.0243 12.4727 12.0243 12.5455V12.6182C12.0243 12.703 12.0364 12.7758 12.0728 12.8485C12.097 12.897 12.1213 12.9576 12.1697 13.0061H12.1819L12.2182 13.0424C12.2667 13.0909 12.3273 13.1273 12.4 13.1636C12.4728 13.1879 12.5455 13.2121 12.6182 13.2121V13.2ZM10.7516 11.9394L11.2606 12.4606C11.2606 12.4485 11.2728 12.4364 11.2728 12.4242C11.3213 12.2909 11.3819 12.1697 11.4546 12.0485C11.5273 11.9394 11.6122 11.8303 11.697 11.7455C11.8182 11.6364 11.9394 11.5394 12.0728 11.4545C12.1819 11.3939 12.291 11.3333 12.4122 11.297L11.9152 10.7879L10.7516 11.9394ZM9.56368 12.6788L9.01822 12.0848L12.1213 8.96969L12.6667 9.56363L9.56368 12.6788ZM9.35762 12.0848L9.5758 12.3151L12.3394 9.53939L12.1213 9.30909L9.35762 12.0848ZM9.7455 11.2364L9.16368 10.6303L10.6546 9.15151L11.2606 9.70909L9.7455 11.2364ZM9.50307 10.6424L9.7455 10.897L10.9091 9.73333L10.6667 9.50303L9.50307 10.6424ZM9.12732 10.5939L7.89095 9.36969L9.38186 7.85454L10.594 9.07878L9.12732 10.5939ZM8.23035 9.36969L9.11519 10.2545L10.2546 9.0909L9.38186 8.20606L8.23035 9.36969ZM7.83035 9.29696L6.64247 8.10909L8.12125 6.60606L9.3455 7.81818L7.83035 9.29696ZM6.99398 8.10909L7.84247 8.95757L9.0061 7.81818L8.12125 6.94545L6.99398 8.10909ZM5.8061 8.52121H5.78186C5.70913 8.52121 5.63641 8.50909 5.56368 8.49696C5.50307 8.48484 5.44247 8.4606 5.39398 8.43636L5.36974 8.42424L5.20004 8.2909L5.92732 7.56363L6.5455 8.13333L6.3758 8.25454C6.30307 8.33939 6.21822 8.39999 6.12125 8.44848C6.01216 8.49696 5.91519 8.52121 5.8061 8.52121ZM5.5758 8.24242C5.58792 8.24242 5.61216 8.25454 5.62429 8.25454C5.67277 8.26666 5.72125 8.27878 5.76974 8.27878H5.8061C5.87883 8.27878 5.95156 8.26666 6.02429 8.2303C6.08489 8.20606 6.13338 8.16969 6.18186 8.12121L5.93944 7.8909L5.5758 8.24242ZM5.15156 8.20606L4.58186 7.63636L7.68489 4.52121L8.25459 5.0909L5.15156 8.20606ZM4.92125 7.63636L5.13944 7.86666L7.90307 5.0909L7.68489 4.8606L4.92125 7.63636ZM6.59398 8.04848L5.98792 7.4909L7.50307 5.97575L8.07277 6.54545L6.59398 8.04848ZM6.33944 7.47878L6.58186 7.70909L7.72125 6.53333L7.49095 6.30303L6.33944 7.47878ZM5.76974 6.31515L3.10307 3.6606L3.67277 3.0909L6.32732 5.73333L5.76974 6.31515ZM3.45459 3.64848L5.76974 5.96363L6.00004 5.72121L3.68489 3.41818L3.45459 3.64848ZM2.56974 4.08484L2.01216 3.50303L3.52732 1.93939L4.10913 2.52121L2.56974 4.08484ZM2.33944 3.50303L2.56974 3.74545L3.76974 2.53333L3.52732 2.2909L2.33944 3.50303ZM2.27883 3.0909L1.70913 2.52121L2.59398 1.63636L3.16368 2.20606L2.27883 3.0909ZM2.06065 2.52121L2.27883 2.75151L2.82429 2.20606L2.6061 1.97575L2.06065 2.52121Z" fill="#2D3E50"/>
</g>
</svg>
