<svg width="12" height="12" viewBox="0 0 12 12" fill="none" xmlns="http://www.w3.org/2000/svg">
<path d="M1.12728 1.82728L1.84547 1.12728C1.85456 1.1 1.86365 1.09091 1.88183 1.09091H1.92728H2.01819L2.39092 1.5L2.56365 1.33637C2.57274 1.30909 2.58183 1.3 2.60001 1.3H2.64547C2.65456 1.29091 2.65456 1.29091 2.66365 1.29091H2.67274C2.69092 1.29091 2.70001 1.29091 2.7091 1.3C2.71819 1.30909 2.72728 1.31818 2.72728 1.33637H2.73637L3.19092 1.80909C3.2091 1.80909 3.21819 1.81818 3.22728 1.83637C3.23637 1.85455 3.24547 1.86364 3.24547 1.88182V1.89091V1.9C3.24547 1.91818 3.24547 1.92728 3.23637 1.94546C3.22728 1.96364 3.21819 1.97273 3.2091 1.98182L2.92728 2.26364L4.8091 4.15455L5.67274 3.28182C5.69092 3.26364 5.70001 3.25455 5.71819 3.25455C5.73637 3.25455 5.74547 3.24546 5.76365 3.24546C5.78183 3.24546 5.79092 3.24546 5.8091 3.25455C5.82728 3.26364 5.83637 3.27273 5.84547 3.28182L6.3091 3.75455C6.31819 3.77273 6.32728 3.78182 6.33637 3.79091C6.34547 3.8 6.34547 3.81818 6.34547 3.84546C6.34547 3.86364 6.34547 3.87273 6.33637 3.88182C6.32728 3.89091 6.31819 3.90909 6.3091 3.91818L5.8091 4.41818L6.1091 4.71818L6.14547 4.68182C6.21819 4.60909 6.3091 4.55455 6.40001 4.51818C6.49092 4.48182 6.59092 4.45455 6.7091 4.45455C6.81819 4.45455 6.91819 4.48182 7.01819 4.52728C7.11819 4.57273 7.20001 4.63637 7.27274 4.70909C7.29092 4.71818 7.30001 4.72728 7.30001 4.74546C7.30001 4.76364 7.3091 4.77273 7.3091 4.79091C7.3091 4.80909 7.3091 4.81818 7.30001 4.83637C7.30001 4.85455 7.29092 4.86364 7.27274 4.87273C7.26365 4.89091 7.25456 4.9 7.23637 4.9C7.21819 4.9 7.20001 4.90909 7.18183 4.90909C7.16365 4.90909 7.15456 4.90909 7.13637 4.9C7.11819 4.9 7.1091 4.89091 7.09092 4.87273C7.04546 4.82728 6.99092 4.79091 6.91819 4.76364C6.84546 4.73637 6.78183 4.72728 6.7091 4.72728C6.63637 4.72728 6.56365 4.73637 6.50001 4.76364C6.43637 4.79091 6.38183 4.81818 6.32728 4.86364L6.30001 4.9L7.06365 5.68182L7.10001 5.65455C7.16365 5.58182 7.23637 5.51818 7.32728 5.47273C7.41819 5.42728 7.51819 5.40909 7.62728 5.40909H7.63637H7.64546H7.65456C7.76365 5.40909 7.86365 5.42728 7.95456 5.47273C8.04546 5.51818 8.12728 5.57273 8.20001 5.63637C8.21819 5.65455 8.22728 5.66364 8.22728 5.67273C8.22728 5.68182 8.23637 5.7 8.23637 5.70909V5.71818V5.72728V5.77273C8.23637 5.77273 8.22728 5.78182 8.20001 5.80909C8.18183 5.81818 8.17274 5.82728 8.16365 5.83637C8.15456 5.84546 8.13637 5.84546 8.12728 5.84546C8.1091 5.84546 8.10001 5.84546 8.08183 5.83637C8.06365 5.83637 8.05456 5.82728 8.04546 5.80909C7.99092 5.76364 7.93637 5.72728 7.87274 5.70909C7.8091 5.68182 7.73637 5.67273 7.66365 5.67273C7.59092 5.67273 7.51819 5.68182 7.45456 5.70909C7.39092 5.73637 7.32728 5.76364 7.28183 5.80909L7.24546 5.84546L8.05456 6.63637V6.6C8.12728 6.52728 8.20001 6.46364 8.30001 6.41818C8.39092 6.37273 8.50001 6.35455 8.6091 6.35455C8.72728 6.36364 8.82728 6.39091 8.91819 6.43637C9.0091 6.48182 9.10001 6.53637 9.17274 6.60909L9.66365 7.1C9.67274 7.10909 9.68183 7.11818 9.68183 7.13637C9.69092 7.15455 9.69092 7.16364 9.69092 7.18182C9.69092 7.2 9.69092 7.20909 9.68183 7.22728C9.67274 7.24546 9.66365 7.25455 9.66365 7.26364L9.16365 7.76364L9.88183 8.50909H9.89092C10.0546 8.51818 10.2091 8.55455 10.3546 8.61818C10.5 8.68182 10.6273 8.77273 10.7455 8.87273C10.8636 8.99091 10.9455 9.13637 11.0091 9.29091C11.0727 9.44546 11.1091 9.60909 11.1091 9.79091C11.1091 9.97273 11.0727 10.1455 11.0091 10.3091C10.9364 10.4727 10.8455 10.6091 10.7273 10.7364C10.6091 10.8545 10.4818 10.9364 10.3273 11.0091C10.1727 11.0727 10.0091 11.1091 9.83637 11.1091H9.82728H9.81819H9.8091H9.80001C9.61819 11.1091 9.44546 11.0727 9.29092 11.0091C9.13637 10.9455 9.00001 10.8545 8.87274 10.7364C8.76365 10.6182 8.68183 10.4909 8.61819 10.3455C8.55456 10.2 8.51819 10.0455 8.5091 9.89091L7.77274 9.14546L7.27274 9.64546L7.23637 9.68182C7.23637 9.68182 7.22728 9.69091 7.20001 9.7C7.17274 9.70909 7.16365 9.70909 7.16365 9.69091C7.16365 9.67273 7.15456 9.66364 7.13637 9.66364L6.65456 9.17273C6.63637 9.16364 6.62728 9.15455 6.62728 9.13637C6.62728 9.11818 6.61819 9.10909 6.61819 9.09091C6.61819 9.07273 6.61819 9.06364 6.62728 9.04546C6.62728 9.02728 6.63637 9.01818 6.65456 9.00909L7.16365 8.48182L6.81819 8.16364L6.77274 8.21818C6.70001 8.29091 6.62728 8.34546 6.53637 8.38182C6.44547 8.42727 6.35456 8.44546 6.25456 8.44546H6.24546H6.23637H6.22728C6.11819 8.44546 6.02728 8.42728 5.93637 8.39091C5.84547 8.35455 5.77274 8.3 5.70001 8.22727H5.67274C5.66365 8.21818 5.65456 8.20909 5.64547 8.19091C5.63637 8.17273 5.63637 8.16364 5.63637 8.13637C5.63637 8.11818 5.63637 8.10909 5.64547 8.09091L5.67274 8.04546C5.69092 8.03637 5.70001 8.03637 5.71819 8.02728C5.73637 8.02728 5.74547 8.01818 5.76365 8.01818C5.78183 8.01818 5.79092 8.01818 5.8091 8.02728C5.82728 8.02728 5.83637 8.03637 5.84547 8.04546C5.89092 8.1 5.94547 8.13637 6.0091 8.17273C6.07274 8.2 6.13637 8.21818 6.20001 8.21818H6.2091H6.23637C6.3091 8.21818 6.37274 8.20909 6.43637 8.18182C6.50001 8.15455 6.55456 8.11818 6.60001 8.07273L6.6091 8.06364C6.6091 8.06364 6.6091 8.05455 6.61819 8.04546L6.67274 8.00909L5.87274 7.21818L5.83637 7.25455C5.76365 7.32728 5.69092 7.39091 5.60001 7.43637C5.5091 7.48182 5.4091 7.5 5.30001 7.5H5.26365H5.25456H5.24547C5.14547 7.5 5.05456 7.48182 4.96365 7.44546C4.87274 7.40909 4.80001 7.35455 4.72728 7.3H4.73637L4.70001 7.26364C4.68183 7.25455 4.67274 7.24546 4.67274 7.22728C4.67274 7.20909 4.66365 7.2 4.66365 7.18182C4.66365 7.15455 4.67274 7.12727 4.70001 7.1C4.72728 7.07273 4.74547 7.06364 4.78183 7.06364C4.80001 7.06364 4.8091 7.06364 4.82728 7.07273C4.84547 7.07273 4.85456 7.08182 4.86365 7.1C4.91819 7.14546 4.98183 7.18182 5.04547 7.20909C5.11819 7.23637 5.18183 7.24546 5.26365 7.24546C5.34547 7.24546 5.4091 7.23637 5.47274 7.20909C5.53637 7.18182 5.60001 7.14546 5.64547 7.1L5.68183 7.04546L4.91819 6.26364L4.86365 6.30909C4.79092 6.38182 4.71819 6.43637 4.61819 6.47273C4.52728 6.51818 4.42728 6.53637 4.31819 6.53637C4.2091 6.53637 4.1091 6.51818 4.01819 6.48182C3.92728 6.44546 3.84547 6.39091 3.78183 6.31818H3.77274V6.30909L3.28183 5.82728C3.27274 5.80909 3.27274 5.8 3.26365 5.78182C3.26365 5.76364 3.25456 5.75455 3.25456 5.73637C3.25456 5.71818 3.25456 5.70909 3.26365 5.69091C3.26365 5.67273 3.27274 5.66364 3.28183 5.65455L4.14547 4.78182L2.28183 2.9L2.01819 3.17273L1.92728 3.20909L1.84547 3.17273L1.36365 2.7C1.34547 2.68182 1.33637 2.67273 1.33637 2.66364C1.33637 2.65455 1.32728 2.63637 1.32728 2.62728C1.32728 2.60909 1.32728 2.6 1.33637 2.58182C1.33637 2.56364 1.34547 2.55455 1.36365 2.54546L1.5091 2.37273L1.11819 1.99091L1.09092 1.94546C1.09092 1.94546 1.09092 1.92728 1.08183 1.9C1.07274 1.87273 1.08183 1.85455 1.09092 1.85455C1.10001 1.85455 1.12728 1.84546 1.12728 1.82728ZM7.93637 8.95455L8.5091 9.53637V9.46364C8.51819 9.43637 8.51819 9.41818 8.52728 9.4C8.52728 9.38182 8.53637 9.36364 8.54546 9.33637C8.57274 9.24546 8.61819 9.15455 8.67274 9.08182C8.72728 9 8.78183 8.92728 8.84546 8.87273C8.92728 8.8 9.01819 8.72728 9.1091 8.67273C9.20001 8.61818 9.3091 8.57273 9.41819 8.54546H9.42728H9.5091L8.93637 7.97273L7.93637 8.95455ZM9.04546 10.5273C9.13637 10.6182 9.24546 10.6909 9.37274 10.7545C9.50001 10.8091 9.63637 10.8364 9.77274 10.8364H9.8091C9.95456 10.8364 10.0818 10.8091 10.2091 10.7545C10.3273 10.7 10.4364 10.6273 10.5273 10.5273C10.6273 10.4364 10.7 10.3273 10.7636 10.2C10.8182 10.0727 10.8455 9.94546 10.8455 9.80909C10.8455 9.66364 10.8182 9.52728 10.7727 9.4C10.7273 9.27273 10.6546 9.16364 10.5636 9.06364C10.5636 9.05455 10.5636 9.05455 10.5546 9.05455C10.5455 9.05455 10.5364 9.04546 10.5273 9.02728C10.4546 8.95455 10.3636 8.9 10.2727 8.84546C10.1818 8.79091 10.0909 8.75455 9.99092 8.72727H9.98183L9.80001 8.69091L9.96365 8.82727L10.0364 8.87273C10.1091 8.94546 10.1546 9.01818 10.2 9.10909C10.2364 9.2 10.2546 9.29091 10.2546 9.4V9.42727V9.45455C10.2546 9.56364 10.2364 9.66364 10.1909 9.75455C10.1455 9.84546 10.0909 9.93637 10.0273 10C9.95456 10.0727 9.88183 10.1364 9.78183 10.1818C9.69092 10.2273 9.58183 10.2455 9.48183 10.2455H9.45456C9.34546 10.2455 9.24546 10.2273 9.14546 10.1818C9.04546 10.1364 8.96365 10.0818 8.89092 10L8.85456 9.95455L8.71819 9.78182L8.75456 9.99091C8.78183 10.1 8.8091 10.1909 8.85456 10.2818C8.9091 10.3727 8.96365 10.4545 9.04546 10.5273ZM9.07274 9.84546H9.09092C9.13637 9.89091 9.19092 9.92727 9.25456 9.95455C9.31819 9.98182 9.38183 9.99091 9.45456 9.99091H9.46365H9.45456C9.47274 9.99091 9.50001 9.99091 9.5091 10C9.52728 10 9.54546 10.0091 9.56365 10.0091C9.71819 10.0091 9.84546 9.95455 9.95456 9.84546C10.0636 9.73637 10.1182 9.6 10.1182 9.45455C10.1182 9.3 10.0636 9.17273 9.95456 9.06364C9.84546 8.95455 9.71819 8.9 9.56365 8.9H9.51819C9.51819 8.9 9.50001 8.9 9.47274 8.90909H9.45456C9.38183 8.90909 9.31819 8.91818 9.25456 8.94546C9.19092 8.97273 9.13637 9.00909 9.09092 9.05455C9.04546 9.1 9.0091 9.15455 8.97274 9.21818C8.94546 9.28182 8.92728 9.34546 8.92728 9.40909V9.41818V9.44546V9.47273C8.92728 9.54546 8.93637 9.61818 8.96365 9.68182C8.99092 9.73637 9.02728 9.79091 9.07274 9.84546ZM8.9091 6.70909L8.86365 6.67273C8.82728 6.65455 8.78183 6.64546 8.74546 6.63637C8.70001 6.62727 8.66365 6.61818 8.61819 6.61818C8.54546 6.61818 8.47274 6.62727 8.4091 6.65455C8.34546 6.68182 8.28183 6.71818 8.23637 6.76364L8.20001 6.79091L8.51819 7.10909L8.9091 6.70909ZM7.00001 7.98182L7.3091 8.3L8.3091 7.29091L7.99092 6.99091L7.00001 7.98182ZM6.89092 9.06364L7.17274 9.37273L9.37274 7.16364L9.09092 6.85455L6.89092 9.06364ZM6.04547 7.02728L6.84547 7.81818L7.82728 6.80909L7.04546 6.01818L6.04547 7.02728ZM5.11819 6.08182L5.88183 6.84546L6.88183 5.86364L6.09092 5.08182L5.11819 6.08182ZM2.46365 2.73637L4.32728 4.6L4.62728 4.29091L2.75456 2.44546L2.46365 2.73637ZM3.56365 5.72728L3.86365 6.02728L6.05456 3.81818L5.75456 3.51818L3.56365 5.72728ZM4.44547 5.79091L4.03637 6.2L4.08183 6.23637C4.11819 6.25455 4.16365 6.26364 4.20001 6.27273C4.24547 6.28182 4.28183 6.29091 4.32728 6.29091H4.33637H4.35456C4.42728 6.29091 4.49092 6.27273 4.55456 6.24546C4.61819 6.21818 4.67274 6.17273 4.71819 6.11818L4.76365 6.08182L4.44547 5.79091ZM4.62728 5.60909L4.94547 5.90909L5.92728 4.9L5.62728 4.6L4.62728 5.60909ZM1.4091 1.89091L1.7091 2.19091L2.24547 1.65455L1.94547 1.35455L1.4091 1.89091ZM1.62728 2.62728L1.92728 2.93637L2.95456 1.89091L2.64547 1.58182L1.62728 2.62728Z" fill="#2D3E50"/>
<mask id="mask0" mask-type="alpha" maskUnits="userSpaceOnUse" x="1" y="1" width="11" height="11">
<path d="M11.1818 1H1V11.1818H11.1818V1Z" fill="white"/>
<path d="M1.12728 1.82728L1.84547 1.12728C1.85456 1.1 1.86365 1.09091 1.88183 1.09091H1.92728H2.01819L2.39092 1.5L2.56365 1.33637C2.57274 1.30909 2.58183 1.3 2.60001 1.3H2.64547C2.65456 1.29091 2.65456 1.29091 2.66365 1.29091H2.67274C2.69092 1.29091 2.70001 1.29091 2.7091 1.3C2.71819 1.30909 2.72728 1.31818 2.72728 1.33637H2.73637L3.19092 1.80909C3.2091 1.80909 3.21819 1.81818 3.22728 1.83637C3.23637 1.85455 3.24547 1.86364 3.24547 1.88182V1.89091V1.9C3.24547 1.91818 3.24547 1.92728 3.23637 1.94546C3.22728 1.96364 3.21819 1.97273 3.2091 1.98182L2.92728 2.26364L4.8091 4.15455L5.67274 3.28182C5.69092 3.26364 5.70001 3.25455 5.71819 3.25455C5.73637 3.25455 5.74547 3.24546 5.76365 3.24546C5.78183 3.24546 5.79092 3.24546 5.8091 3.25455C5.82728 3.26364 5.83637 3.27273 5.84547 3.28182L6.3091 3.75455C6.31819 3.77273 6.32728 3.78182 6.33637 3.79091C6.34547 3.8 6.34547 3.81818 6.34547 3.84546C6.34547 3.86364 6.34547 3.87273 6.33637 3.88182C6.32728 3.89091 6.31819 3.90909 6.3091 3.91818L5.8091 4.41818L6.1091 4.71818L6.14547 4.68182C6.21819 4.60909 6.3091 4.55455 6.40001 4.51818C6.49092 4.48182 6.59092 4.45455 6.7091 4.45455C6.81819 4.45455 6.91819 4.48182 7.01819 4.52728C7.11819 4.57273 7.20001 4.63637 7.27274 4.70909C7.29092 4.71818 7.30001 4.72728 7.30001 4.74546C7.30001 4.76364 7.3091 4.77273 7.3091 4.79091C7.3091 4.80909 7.3091 4.81818 7.30001 4.83637C7.30001 4.85455 7.29092 4.86364 7.27274 4.87273C7.26365 4.89091 7.25456 4.9 7.23637 4.9C7.21819 4.9 7.20001 4.90909 7.18183 4.90909C7.16365 4.90909 7.15456 4.90909 7.13637 4.9C7.11819 4.9 7.1091 4.89091 7.09092 4.87273C7.04546 4.82728 6.99092 4.79091 6.91819 4.76364C6.84546 4.73637 6.78183 4.72728 6.7091 4.72728C6.63637 4.72728 6.56365 4.73637 6.50001 4.76364C6.43637 4.79091 6.38183 4.81818 6.32728 4.86364L6.30001 4.9L7.06365 5.68182L7.10001 5.65455C7.16365 5.58182 7.23637 5.51818 7.32728 5.47273C7.41819 5.42728 7.51819 5.40909 7.62728 5.40909H7.63637H7.64546H7.65456C7.76365 5.40909 7.86365 5.42728 7.95456 5.47273C8.04546 5.51818 8.12728 5.57273 8.20001 5.63637C8.21819 5.65455 8.22728 5.66364 8.22728 5.67273C8.22728 5.68182 8.23637 5.7 8.23637 5.70909V5.71818V5.72728V5.77273C8.23637 5.77273 8.22728 5.78182 8.20001 5.80909C8.18183 5.81818 8.17274 5.82728 8.16365 5.83637C8.15456 5.84546 8.13637 5.84546 8.12728 5.84546C8.1091 5.84546 8.10001 5.84546 8.08183 5.83637C8.06365 5.83637 8.05456 5.82728 8.04546 5.80909C7.99092 5.76364 7.93637 5.72728 7.87274 5.70909C7.8091 5.68182 7.73637 5.67273 7.66365 5.67273C7.59092 5.67273 7.51819 5.68182 7.45456 5.70909C7.39092 5.73637 7.32728 5.76364 7.28183 5.80909L7.24546 5.84546L8.05456 6.63637V6.6C8.12728 6.52728 8.20001 6.46364 8.30001 6.41818C8.39092 6.37273 8.50001 6.35455 8.6091 6.35455C8.72728 6.36364 8.82728 6.39091 8.91819 6.43637C9.0091 6.48182 9.10001 6.53637 9.17274 6.60909L9.66365 7.1C9.67274 7.10909 9.68183 7.11818 9.68183 7.13637C9.69092 7.15455 9.69092 7.16364 9.69092 7.18182C9.69092 7.2 9.69092 7.20909 9.68183 7.22728C9.67274 7.24546 9.66365 7.25455 9.66365 7.26364L9.16365 7.76364L9.88183 8.50909H9.89092C10.0546 8.51818 10.2091 8.55455 10.3546 8.61818C10.5 8.68182 10.6273 8.77273 10.7455 8.87273C10.8636 8.99091 10.9455 9.13637 11.0091 9.29091C11.0727 9.44546 11.1091 9.60909 11.1091 9.79091C11.1091 9.97273 11.0727 10.1455 11.0091 10.3091C10.9364 10.4727 10.8455 10.6091 10.7273 10.7364C10.6091 10.8545 10.4818 10.9364 10.3273 11.0091C10.1727 11.0727 10.0091 11.1091 9.83637 11.1091H9.82728H9.81819H9.8091H9.80001C9.61819 11.1091 9.44546 11.0727 9.29092 11.0091C9.13637 10.9455 9.00001 10.8545 8.87274 10.7364C8.76365 10.6182 8.68183 10.4909 8.61819 10.3455C8.55456 10.2 8.51819 10.0455 8.5091 9.89091L7.77274 9.14546L7.27274 9.64546L7.23637 9.68182C7.23637 9.68182 7.22728 9.69091 7.20001 9.7C7.17274 9.70909 7.16365 9.70909 7.16365 9.69091C7.16365 9.67273 7.15456 9.66364 7.13637 9.66364L6.65456 9.17273C6.63637 9.16364 6.62728 9.15455 6.62728 9.13637C6.62728 9.11818 6.61819 9.10909 6.61819 9.09091C6.61819 9.07273 6.61819 9.06364 6.62728 9.04546C6.62728 9.02728 6.63637 9.01818 6.65456 9.00909L7.16365 8.48182L6.81819 8.16364L6.77274 8.21818C6.70001 8.29091 6.62728 8.34546 6.53637 8.38182C6.44547 8.42727 6.35456 8.44546 6.25456 8.44546H6.24546H6.23637H6.22728C6.11819 8.44546 6.02728 8.42728 5.93637 8.39091C5.84547 8.35455 5.77274 8.3 5.70001 8.22727H5.67274C5.66365 8.21818 5.65456 8.20909 5.64547 8.19091C5.63637 8.17273 5.63637 8.16364 5.63637 8.13637C5.63637 8.11818 5.63637 8.10909 5.64547 8.09091L5.67274 8.04546C5.69092 8.03637 5.70001 8.03637 5.71819 8.02728C5.73637 8.02728 5.74547 8.01818 5.76365 8.01818C5.78183 8.01818 5.79092 8.01818 5.8091 8.02728C5.82728 8.02728 5.83637 8.03637 5.84547 8.04546C5.89092 8.1 5.94547 8.13637 6.0091 8.17273C6.07274 8.2 6.13637 8.21818 6.20001 8.21818H6.2091H6.23637C6.3091 8.21818 6.37274 8.20909 6.43637 8.18182C6.50001 8.15455 6.55456 8.11818 6.60001 8.07273L6.6091 8.06364C6.6091 8.06364 6.6091 8.05455 6.61819 8.04546L6.67274 8.00909L5.87274 7.21818L5.83637 7.25455C5.76365 7.32728 5.69092 7.39091 5.60001 7.43637C5.5091 7.48182 5.4091 7.5 5.30001 7.5H5.26365H5.25456H5.24547C5.14547 7.5 5.05456 7.48182 4.96365 7.44546C4.87274 7.40909 4.80001 7.35455 4.72728 7.3H4.73637L4.70001 7.26364C4.68183 7.25455 4.67274 7.24546 4.67274 7.22728C4.67274 7.20909 4.66365 7.2 4.66365 7.18182C4.66365 7.15455 4.67274 7.12727 4.70001 7.1C4.72728 7.07273 4.74547 7.06364 4.78183 7.06364C4.80001 7.06364 4.8091 7.06364 4.82728 7.07273C4.84547 7.07273 4.85456 7.08182 4.86365 7.1C4.91819 7.14546 4.98183 7.18182 5.04547 7.20909C5.11819 7.23637 5.18183 7.24546 5.26365 7.24546C5.34547 7.24546 5.4091 7.23637 5.47274 7.20909C5.53637 7.18182 5.60001 7.14546 5.64547 7.1L5.68183 7.04546L4.91819 6.26364L4.86365 6.30909C4.79092 6.38182 4.71819 6.43637 4.61819 6.47273C4.52728 6.51818 4.42728 6.53637 4.31819 6.53637C4.2091 6.53637 4.1091 6.51818 4.01819 6.48182C3.92728 6.44546 3.84547 6.39091 3.78183 6.31818H3.77274V6.30909L3.28183 5.82728C3.27274 5.80909 3.27274 5.8 3.26365 5.78182C3.26365 5.76364 3.25456 5.75455 3.25456 5.73637C3.25456 5.71818 3.25456 5.70909 3.26365 5.69091C3.26365 5.67273 3.27274 5.66364 3.28183 5.65455L4.14547 4.78182L2.28183 2.9L2.01819 3.17273L1.92728 3.20909L1.84547 3.17273L1.36365 2.7C1.34547 2.68182 1.33637 2.67273 1.33637 2.66364C1.33637 2.65455 1.32728 2.63637 1.32728 2.62728C1.32728 2.60909 1.32728 2.6 1.33637 2.58182C1.33637 2.56364 1.34547 2.55455 1.36365 2.54546L1.5091 2.37273L1.11819 1.99091L1.09092 1.94546C1.09092 1.94546 1.09092 1.92728 1.08183 1.9C1.07274 1.87273 1.08183 1.85455 1.09092 1.85455C1.10001 1.85455 1.12728 1.84546 1.12728 1.82728ZM7.93637 8.95455L8.5091 9.53637V9.46364C8.51819 9.43637 8.51819 9.41818 8.52728 9.4C8.52728 9.38182 8.53637 9.36364 8.54546 9.33637C8.57274 9.24546 8.61819 9.15455 8.67274 9.08182C8.72728 9 8.78183 8.92728 8.84546 8.87273C8.92728 8.8 9.01819 8.72728 9.1091 8.67273C9.20001 8.61818 9.3091 8.57273 9.41819 8.54546H9.42728H9.5091L8.93637 7.97273L7.93637 8.95455ZM9.04546 10.5273C9.13637 10.6182 9.24546 10.6909 9.37274 10.7545C9.50001 10.8091 9.63637 10.8364 9.77274 10.8364H9.8091C9.95456 10.8364 10.0818 10.8091 10.2091 10.7545C10.3273 10.7 10.4364 10.6273 10.5273 10.5273C10.6273 10.4364 10.7 10.3273 10.7636 10.2C10.8182 10.0727 10.8455 9.94546 10.8455 9.80909C10.8455 9.66364 10.8182 9.52728 10.7727 9.4C10.7273 9.27273 10.6546 9.16364 10.5636 9.06364C10.5636 9.05455 10.5636 9.05455 10.5546 9.05455C10.5455 9.05455 10.5364 9.04546 10.5273 9.02728C10.4546 8.95455 10.3636 8.9 10.2727 8.84546C10.1818 8.79091 10.0909 8.75455 9.99092 8.72727H9.98183L9.80001 8.69091L9.96365 8.82727L10.0364 8.87273C10.1091 8.94546 10.1546 9.01818 10.2 9.10909C10.2364 9.2 10.2546 9.29091 10.2546 9.4V9.42727V9.45455C10.2546 9.56364 10.2364 9.66364 10.1909 9.75455C10.1455 9.84546 10.0909 9.93637 10.0273 10C9.95456 10.0727 9.88183 10.1364 9.78183 10.1818C9.69092 10.2273 9.58183 10.2455 9.48183 10.2455H9.45456C9.34546 10.2455 9.24546 10.2273 9.14546 10.1818C9.04546 10.1364 8.96365 10.0818 8.89092 10L8.85456 9.95455L8.71819 9.78182L8.75456 9.99091C8.78183 10.1 8.8091 10.1909 8.85456 10.2818C8.9091 10.3727 8.96365 10.4545 9.04546 10.5273ZM9.07274 9.84546H9.09092C9.13637 9.89091 9.19092 9.92727 9.25456 9.95455C9.31819 9.98182 9.38183 9.99091 9.45456 9.99091H9.46365H9.45456C9.47274 9.99091 9.50001 9.99091 9.5091 10C9.52728 10 9.54546 10.0091 9.56365 10.0091C9.71819 10.0091 9.84546 9.95455 9.95456 9.84546C10.0636 9.73637 10.1182 9.6 10.1182 9.45455C10.1182 9.3 10.0636 9.17273 9.95456 9.06364C9.84546 8.95455 9.71819 8.9 9.56365 8.9H9.51819C9.51819 8.9 9.50001 8.9 9.47274 8.90909H9.45456C9.38183 8.90909 9.31819 8.91818 9.25456 8.94546C9.19092 8.97273 9.13637 9.00909 9.09092 9.05455C9.04546 9.1 9.0091 9.15455 8.97274 9.21818C8.94546 9.28182 8.92728 9.34546 8.92728 9.40909V9.41818V9.44546V9.47273C8.92728 9.54546 8.93637 9.61818 8.96365 9.68182C8.99092 9.73637 9.02728 9.79091 9.07274 9.84546ZM8.9091 6.70909L8.86365 6.67273C8.82728 6.65455 8.78183 6.64546 8.74546 6.63637C8.70001 6.62727 8.66365 6.61818 8.61819 6.61818C8.54546 6.61818 8.47274 6.62727 8.4091 6.65455C8.34546 6.68182 8.28183 6.71818 8.23637 6.76364L8.20001 6.79091L8.51819 7.10909L8.9091 6.70909ZM7.00001 7.98182L7.3091 8.3L8.3091 7.29091L7.99092 6.99091L7.00001 7.98182ZM6.89092 9.06364L7.17274 9.37273L9.37274 7.16364L9.09092 6.85455L6.89092 9.06364ZM6.04547 7.02728L6.84547 7.81818L7.82728 6.80909L7.04546 6.01818L6.04547 7.02728ZM5.11819 6.08182L5.88183 6.84546L6.88183 5.86364L6.09092 5.08182L5.11819 6.08182ZM2.46365 2.73637L4.32728 4.6L4.62728 4.29091L2.75456 2.44546L2.46365 2.73637ZM3.56365 5.72728L3.86365 6.02728L6.05456 3.81818L5.75456 3.51818L3.56365 5.72728ZM4.44547 5.79091L4.03637 6.2L4.08183 6.23637C4.11819 6.25455 4.16365 6.26364 4.20001 6.27273C4.24547 6.28182 4.28183 6.29091 4.32728 6.29091H4.33637H4.35456C4.42728 6.29091 4.49092 6.27273 4.55456 6.24546C4.61819 6.21818 4.67274 6.17273 4.71819 6.11818L4.76365 6.08182L4.44547 5.79091ZM4.62728 5.60909L4.94547 5.90909L5.92728 4.9L5.62728 4.6L4.62728 5.60909ZM1.4091 1.89091L1.7091 2.19091L2.24547 1.65455L1.94547 1.35455L1.4091 1.89091ZM1.62728 2.62728L1.92728 2.93637L2.95456 1.89091L2.64547 1.58182L1.62728 2.62728Z" fill="black"/>
</mask>
<g mask="url(#mask0)">
<path d="M9.80002 11.1818H9.78183C9.59093 11.1818 9.40911 11.1455 9.23638 11.0818C9.07274 11.0091 8.9182 10.9182 8.79093 10.7909C8.67274 10.6636 8.58183 10.5273 8.5182 10.3727C8.45456 10.2273 8.4182 10.0727 8.40002 9.91818L7.74547 9.26364L7.25456 9.75455L7.20002 9.78182C7.14547 9.80909 7.10002 9.79091 7.08184 9.78182C7.07274 9.77273 7.06365 9.76364 7.05456 9.75455L6.56365 9.25455C6.53638 9.23636 6.50911 9.20909 6.50002 9.17273C6.49093 9.15454 6.49093 9.12727 6.49093 9.10909C6.49093 9.09091 6.49093 9.06364 6.50002 9.04545C6.50911 9.00909 6.52729 8.98182 6.56365 8.96364L7.00911 8.50909L6.82729 8.31818C6.75456 8.39091 6.67274 8.44545 6.57274 8.49091C6.47274 8.53636 6.36365 8.56364 6.25456 8.56364H6.2182C6.10002 8.56364 5.99093 8.54545 5.89093 8.5C5.80911 8.46364 5.72729 8.40909 5.65456 8.34545H5.63638L5.60911 8.31818C5.59093 8.3 5.58183 8.28182 5.57274 8.26364C5.55456 8.23636 5.55456 8.2 5.55456 8.16364C5.55456 8.13636 5.56365 8.10909 5.57274 8.08182L5.60911 8.00909L5.63638 7.99091C5.65456 7.98182 5.68184 7.97273 5.70002 7.96364C5.74547 7.95455 5.79093 7.95455 5.83638 7.96364C5.86365 7.97273 5.89093 7.98182 5.90911 8.00909C5.95456 8.05454 5.99093 8.09091 6.04547 8.11818C6.09093 8.14545 6.14547 8.15454 6.20002 8.15454H6.23638C6.29093 8.15454 6.34547 8.14545 6.40002 8.11818C6.44547 8.1 6.49093 8.07273 6.52729 8.03636V8.02727L5.87274 7.37273C5.80911 7.43636 5.72729 7.5 5.63638 7.53636C5.53638 7.58182 5.4182 7.60909 5.30002 7.60909H5.25456C5.14547 7.60909 5.03638 7.59091 4.93638 7.54545C4.83638 7.5 4.75456 7.44545 4.68183 7.38182L4.50002 7.22727H4.59093C4.59093 7.21818 4.59093 7.20909 4.59093 7.2C4.59093 7.14545 4.60911 7.1 4.65456 7.05454C4.70911 7 4.79093 6.98182 4.86365 7C4.90002 7.00909 4.92729 7.02727 4.94547 7.05454C4.99093 7.09091 5.03638 7.11818 5.09093 7.13636C5.20911 7.18182 5.34547 7.18182 5.45456 7.13636C5.50002 7.11818 5.54547 7.09091 5.58184 7.06364L4.92729 6.4C4.85456 6.47273 4.76365 6.52727 4.67274 6.57273C4.46365 6.66364 4.20911 6.66364 4.00002 6.58182C3.90911 6.54545 3.82729 6.49091 3.76365 6.42727H3.70002V6.36364L3.22729 5.9L3.2182 5.88182C3.20911 5.86364 3.20002 5.83636 3.19093 5.81818C3.18183 5.78182 3.18184 5.75455 3.18184 5.73636C3.18184 5.71818 3.18183 5.69091 3.19093 5.67273C3.20002 5.64545 3.20911 5.61818 3.22729 5.6L4.02729 4.79091L2.28184 3.02727L2.07274 3.24545L1.92729 3.3L1.80002 3.24545L1.30911 2.76364C1.28183 2.73636 1.26365 2.70909 1.25456 2.69091C1.24547 2.67273 1.24547 2.64545 1.24547 2.61818C1.24547 2.6 1.24547 2.57273 1.25456 2.55455C1.26365 2.51818 1.28183 2.49091 1.30911 2.47273L1.39093 2.37273L1.05456 2.04545L1.0182 1.96364L1.00911 1.91818C1.00002 1.9 0.990926 1.84545 1.02729 1.8C1.03638 1.79091 1.03638 1.79091 1.04547 1.78182L1.07274 1.75455L1.77274 1.07273C1.80911 1.00909 1.86365 1 1.88184 1H2.05456L2.39093 1.37273L2.48184 1.29091C2.5182 1.22727 2.57274 1.21818 2.59093 1.21818H2.60911C2.6182 1.20909 2.63638 1.20909 2.65456 1.20909C2.69093 1.20909 2.72729 1.21818 2.75456 1.23636C2.77274 1.24545 2.78183 1.26364 2.80002 1.28182L3.23638 1.73636C3.26365 1.74545 3.28184 1.76364 3.30002 1.79091C3.32729 1.81818 3.33638 1.85455 3.33638 1.89091V1.9C3.33638 1.92727 3.32729 1.95455 3.3182 1.98182C3.30911 2.00909 3.29093 2.02727 3.28183 2.03636L3.06365 2.25455L4.8182 4.00909L5.6182 3.2C5.64547 3.17273 5.67274 3.15455 5.70911 3.14545C5.76365 3.13636 5.8182 3.13636 5.86365 3.15455C5.89093 3.16364 5.90911 3.18182 5.9182 3.19091L6.39093 3.67273L6.40002 3.68182C6.40911 3.69091 6.40911 3.7 6.4182 3.70909C6.43638 3.73636 6.44547 3.77273 6.44547 3.80909C6.44547 3.84545 6.43638 3.87273 6.4182 3.9C6.40911 3.90909 6.40911 3.91818 6.40002 3.92727L6.39093 3.93636L5.94547 4.38182L6.1182 4.55455C6.19093 4.49091 6.27274 4.43636 6.36365 4.4C6.56365 4.30909 6.82729 4.3 7.05456 4.40909C7.16365 4.45455 7.25456 4.52727 7.32729 4.6C7.35456 4.61818 7.37274 4.64545 7.38183 4.68182C7.39093 4.7 7.39093 4.72727 7.39093 4.74545C7.39093 4.76364 7.39093 4.79091 7.38183 4.80909C7.37274 4.83636 7.35456 4.86364 7.32729 4.89091C7.30911 4.91818 7.28183 4.93636 7.24547 4.94545C7.20911 4.95455 7.15456 4.95455 7.10002 4.94545C7.07274 4.93636 7.03638 4.91818 7.00911 4.89091C6.97274 4.85455 6.92729 4.82727 6.87274 4.8C6.74547 4.75455 6.6182 4.76364 6.52729 4.79091C6.49093 4.8 6.46365 4.81818 6.42729 4.84545L7.06365 5.5C7.12729 5.43636 7.20002 5.38182 7.28184 5.34545C7.38183 5.3 7.50002 5.27273 7.6182 5.27273H7.63638C7.75456 5.27273 7.87274 5.3 7.97274 5.34545C8.08183 5.39091 8.17274 5.45455 8.24547 5.52727C8.27274 5.55454 8.29093 5.58182 8.30002 5.6C8.30911 5.61818 8.30911 5.64545 8.30911 5.67273V5.76364L8.23638 5.83636L8.22729 5.84545C8.2182 5.85455 8.20911 5.85455 8.20002 5.86364C8.15456 5.89091 8.10002 5.9 8.04547 5.88182C8.00911 5.87273 7.98183 5.85455 7.96365 5.82727C7.9182 5.79091 7.87274 5.76364 7.82729 5.74545C7.7182 5.70909 7.57274 5.70909 7.46365 5.74545C7.42729 5.75455 7.39093 5.78182 7.35456 5.8L8.00911 6.43636C8.07274 6.37273 8.15456 6.32727 8.23638 6.29091C8.34547 6.24545 8.46365 6.21818 8.58184 6.21818C8.70911 6.22727 8.82729 6.25455 8.93638 6.30909C9.03638 6.35455 9.13638 6.41818 9.2182 6.49091L9.70911 6.98182C9.72729 7 9.73638 7.01818 9.74547 7.03636C9.76365 7.06364 9.76365 7.09091 9.76365 7.11818C9.76365 7.14545 9.75456 7.17273 9.74547 7.20909C9.73638 7.23636 9.7182 7.25455 9.70911 7.26364L9.27274 7.7L9.90002 8.35455C10.0727 8.36364 10.2273 8.4 10.3727 8.47273C10.5273 8.54545 10.6637 8.63636 10.7818 8.74545C10.9091 8.88182 11 9.02727 11.0727 9.19091C11.1455 9.35454 11.1727 9.53636 11.1727 9.72727C11.1727 9.91818 11.1364 10.1091 11.0637 10.2818C10.9909 10.4545 10.8909 10.6 10.7637 10.7364C10.6455 10.8545 10.5 10.9545 10.3273 11.0273C10.1727 11.1455 9.99093 11.1818 9.80002 11.1818ZM7.75456 9.00909L8.58184 9.84545V9.88182C8.59093 10.0273 8.6182 10.1727 8.68184 10.3091C8.74547 10.4455 8.8182 10.5636 8.9182 10.6727C9.02729 10.7727 9.15456 10.8636 9.30002 10.9182C9.44547 10.9818 9.60002 11.0091 9.77274 11.0091H9.79093C9.95456 11.0091 10.1091 10.9818 10.2546 10.9182C10.4 10.8545 10.5273 10.7727 10.6273 10.6727C10.7364 10.5636 10.8273 10.4273 10.8909 10.2818C10.9546 10.1364 10.9818 9.97273 10.9818 9.8C10.9818 9.63636 10.9546 9.48182 10.8909 9.33636C10.8273 9.19091 10.7455 9.06364 10.6455 8.94545C10.5455 8.85455 10.4182 8.77273 10.2909 8.70909C10.1546 8.64545 10.0091 8.61818 9.85456 8.60909H9.80911L9.00002 7.77273L9.56365 7.20909C9.56365 7.20909 9.56365 7.20909 9.57274 7.2V7.19091C9.57274 7.18182 9.56365 7.18182 9.56365 7.18182L9.09093 6.67273C9.02729 6.60909 8.94547 6.56364 8.86365 6.51818C8.78184 6.48182 8.68184 6.45455 8.58184 6.44545C8.49093 6.44545 8.39093 6.46364 8.30911 6.5C8.23638 6.53636 8.17274 6.57273 8.1182 6.62727V6.71818L8.16365 6.68182C8.22729 6.62727 8.29093 6.59091 8.36365 6.56364C8.48183 6.50909 8.63638 6.5 8.76365 6.53636C8.80911 6.54545 8.85456 6.56364 8.89093 6.58182L8.90911 6.59091L9.03638 6.69091L8.50002 7.22727L8.03638 6.76364L7.09093 5.83636L7.19093 5.73636C7.25456 5.68182 7.32729 5.63636 7.40002 5.60909C7.54547 5.55455 7.73638 5.55455 7.88183 5.60909C7.95456 5.63636 8.02729 5.67273 8.09093 5.72727L8.10911 5.73636C8.1182 5.72727 8.12729 5.72727 8.13638 5.71818V5.7V5.69091C8.13638 5.69091 8.13638 5.69091 8.12729 5.68182C8.06365 5.61818 7.99093 5.57273 7.90911 5.53636C7.82729 5.5 7.73638 5.48182 7.64547 5.48182H7.62729C7.53638 5.48182 7.44547 5.5 7.37274 5.53636C7.29093 5.57273 7.22729 5.62727 7.18184 5.69091L7.16365 5.70909L7.06365 5.77273L6.18184 4.9L6.26365 4.78182C6.32729 4.72727 6.39093 4.69091 6.46365 4.66364C6.60002 4.60909 6.77274 4.60909 6.93638 4.67273C7.0182 4.7 7.08183 4.74545 7.13638 4.8C7.15456 4.80909 7.17274 4.80909 7.18184 4.80909L7.19093 4.8L7.20002 4.79091V4.78182V4.77273L7.18184 4.76364C7.1182 4.7 7.04547 4.64545 6.96365 4.6C6.78184 4.51818 6.57274 4.52727 6.42729 4.59091C6.34547 4.62727 6.27274 4.68182 6.20002 4.74545L6.10911 4.84545L5.68184 4.41818L6.23638 3.86364C6.24547 3.85455 6.24547 3.84545 6.25456 3.83636C6.24547 3.82727 6.24547 3.81818 6.23638 3.80909L5.78183 3.35455C5.78183 3.35455 5.78184 3.35455 5.77274 3.34545C5.76365 3.34545 5.75456 3.34545 5.74547 3.34545L4.80911 4.27273L2.80002 2.25455L3.14547 1.9C3.14547 1.9 3.14547 1.9 3.14547 1.89091L2.69093 1.41818H2.63638V1.38182L2.62729 1.39091L2.39093 1.63636L1.98183 1.18182H1.9182L1.90911 1.19091L1.20911 1.86364C1.20002 1.88182 1.20002 1.9 1.18183 1.90909V1.91818L1.19093 1.94545L1.63638 2.36364L1.4182 2.61818V2.62727V2.63636C1.4182 2.63636 1.4182 2.63636 1.42729 2.64545L1.89093 3.1L1.9182 3.10909L1.95456 3.09091L2.26365 2.76364L4.27274 4.78182L3.36365 5.71818C3.36365 5.72727 3.36365 5.73636 3.36365 5.73636C3.36365 5.74545 3.36365 5.75455 3.36365 5.76364C3.36365 5.77273 3.36365 5.77273 3.37274 5.78182L3.88184 6.27273C3.93638 6.32727 4.00002 6.36364 4.07274 6.4C4.22729 6.46364 4.43638 6.47273 4.60002 6.39091C4.68183 6.35455 4.75456 6.3 4.8182 6.24545L4.82729 6.23636L4.94547 6.13636L5.8182 7.02727L5.72729 7.15454L5.7182 7.16364C5.65456 7.21818 5.59093 7.25454 5.5182 7.29091C5.36365 7.35454 5.18183 7.35454 5.02729 7.29091C4.94547 7.26364 4.88183 7.21818 4.8182 7.16364L4.80002 7.15454C4.79093 7.15454 4.79093 7.14545 4.78183 7.16364C4.77274 7.17273 4.77274 7.17273 4.77274 7.18182V7.19091L4.85456 7.27273C4.90002 7.30909 4.95456 7.33636 5.00911 7.35455C5.08183 7.39091 5.16365 7.4 5.25456 7.4H5.30002C5.39093 7.4 5.48183 7.38182 5.55456 7.34545C5.63638 7.30909 5.70002 7.25455 5.76365 7.19091L5.86365 7.09091L6.80911 8.02727L6.68184 8.10909L6.66365 8.12727C6.60002 8.19091 6.53638 8.22727 6.46365 8.26364C6.39093 8.29091 6.30911 8.30909 6.22729 8.30909H6.19093C6.10911 8.30909 6.02729 8.29091 5.95456 8.25455C5.89093 8.21818 5.82729 8.17273 5.77274 8.11818C5.75456 8.11818 5.74547 8.11818 5.72729 8.11818V8.13636C5.72729 8.13636 5.72729 8.13636 5.72729 8.14545L5.75456 8.17273C5.8182 8.23636 5.88183 8.28182 5.96365 8.31818C6.03638 8.35455 6.12729 8.36364 6.2182 8.36364H6.25456C6.33638 8.36364 6.4182 8.34545 6.50002 8.30909C6.58183 8.27273 6.64547 8.22727 6.70911 8.16364L6.8182 8.02727L7.27274 8.48182L6.69093 9.08182V9.09091V9.1L7.15456 9.57273C7.16365 9.57273 7.17274 9.58182 7.18184 9.58182L7.75456 9.00909ZM8.32729 6.8L8.50911 6.98182L8.75456 6.73636C8.74547 6.73636 8.72729 6.72727 8.7182 6.72727C8.62729 6.7 8.5182 6.70909 8.43638 6.74545C8.40002 6.75454 8.36365 6.77273 8.32729 6.8ZM9.80002 10.9273H9.76365C9.60911 10.9273 9.45456 10.9 9.3182 10.8364C9.18184 10.7727 9.06365 10.6909 8.96365 10.5909C8.88183 10.5091 8.8182 10.4182 8.76365 10.3182C8.7182 10.2273 8.68183 10.1182 8.65456 10L8.58184 9.57273V9.74545L7.79093 8.93636L8.9182 7.82727L9.66365 8.57273L9.99093 8.62727C10.1 8.65455 10.2 8.69091 10.3 8.75455C10.4 8.80909 10.4818 8.87273 10.5637 8.94545L10.5727 8.95455C10.5909 8.96364 10.6 8.98182 10.6091 9C10.7 9.1 10.7727 9.21818 10.8273 9.35455C10.8818 9.49091 10.9091 9.63636 10.9091 9.79091C10.9091 9.93636 10.8818 10.0818 10.8182 10.2273C10.7546 10.3636 10.6727 10.4818 10.5637 10.5818C10.4637 10.6818 10.3546 10.7636 10.2182 10.8182C10.1091 10.9 9.96365 10.9273 9.80002 10.9273ZM8.89093 10.1273C8.90911 10.1636 8.9182 10.2091 8.94547 10.2455C8.99093 10.3273 9.04547 10.4 9.10911 10.4727C9.19093 10.5545 9.29093 10.6273 9.40911 10.6727C9.5182 10.7273 9.64547 10.7545 9.77274 10.7545H9.80911C9.93638 10.7545 10.0637 10.7273 10.1727 10.6818C10.2818 10.6273 10.3818 10.5636 10.4637 10.4727C10.5546 10.3909 10.6273 10.2909 10.6818 10.1727C10.7364 10.0636 10.7637 9.93636 10.7637 9.81818C10.7637 9.68182 10.7364 9.56364 10.7 9.44545C10.6546 9.33636 10.5909 9.22727 10.5091 9.13636C10.4909 9.12727 10.4818 9.11818 10.4637 9.09091C10.3909 9.02727 10.3182 8.97273 10.2364 8.92727C10.2091 8.90909 10.1818 8.9 10.1546 8.88182C10.2 8.94545 10.2455 9.00909 10.2727 9.08182C10.3182 9.18182 10.3364 9.29091 10.3364 9.40909V9.45455C10.3364 9.57273 10.3091 9.69091 10.2637 9.79091C10.2182 9.9 10.1546 9.99091 10.0818 10.0636C10.0091 10.1455 9.9182 10.2091 9.80911 10.2636C9.70002 10.3091 9.59093 10.3364 9.47274 10.3364H9.45456C9.33638 10.3364 9.2182 10.3091 9.10911 10.2636C9.02729 10.2273 8.95456 10.1818 8.89093 10.1273ZM8.60002 9.48182L8.97274 9.94545C9.02729 10.0091 9.10002 10.0545 9.18184 10.0909C9.27274 10.1273 9.36365 10.1455 9.45456 10.1455H9.46365C9.55456 10.1455 9.64547 10.1273 9.72729 10.0909C9.77274 10.0727 9.80911 10.0455 9.84547 10.0273C9.76365 10.0727 9.66365 10.0909 9.56365 10.0909C9.53638 10.0909 9.50911 10.0909 9.48184 10.0818C9.47274 10.0818 9.46365 10.0818 9.44547 10.0818C9.36365 10.0818 9.29093 10.0636 9.20911 10.0364C9.14547 10.0091 9.09093 9.97273 9.04547 9.93636H9.02729L9.00002 9.9C8.94547 9.83636 8.90911 9.77273 8.88183 9.70909C8.85456 9.63636 8.83638 9.55454 8.83638 9.46364V9.40909C8.83638 9.32727 8.85456 9.24545 8.89093 9.17273C8.92729 9.1 8.97274 9.04545 9.0182 8.99091C9.07274 8.93636 9.13638 8.89091 9.20911 8.86364C9.28184 8.83636 9.36365 8.81818 9.44547 8.81818H9.45456L9.50911 8.80909H9.55456C9.65456 8.80909 9.75456 8.82727 9.83638 8.87273L9.56365 8.63636H9.4182C9.3182 8.66364 9.22729 8.7 9.13638 8.75455C9.04547 8.80909 8.96365 8.87273 8.88183 8.94545C8.82729 9 8.77274 9.06364 8.72729 9.13636C8.68184 9.20909 8.63638 9.29091 8.60911 9.37273C8.60002 9.39091 8.60002 9.40909 8.59093 9.42727C8.60911 9.43636 8.60002 9.45455 8.60002 9.48182ZM9.46365 9.9C9.49093 9.9 9.50911 9.9 9.52729 9.90909C9.52729 9.90909 9.54547 9.90909 9.56365 9.90909C9.69093 9.90909 9.80002 9.86364 9.88183 9.77273C9.97274 9.68182 10.0182 9.57273 10.0182 9.44545C10.0182 9.31818 9.97274 9.20909 9.88183 9.11818C9.79093 9.02727 9.69093 8.98182 9.56365 8.98182H9.52729L9.47274 8.99091H9.45456C9.40002 8.99091 9.34547 9 9.29093 9.02727C9.23638 9.04545 9.19093 9.08182 9.15456 9.11818C9.1182 9.15455 9.08183 9.2 9.05456 9.25455C9.02729 9.3 9.0182 9.35454 9.0182 9.40909V9.46364C9.0182 9.52727 9.02729 9.58182 9.05456 9.63636C9.07274 9.67273 9.09093 9.71818 9.12729 9.75455H9.13638L9.16365 9.78182C9.20002 9.81818 9.24547 9.84545 9.30002 9.87273C9.35456 9.89091 9.40911 9.90909 9.46365 9.90909V9.9ZM8.06365 8.95455L8.44547 9.34545C8.44547 9.33636 8.45456 9.32727 8.45456 9.31818C8.49093 9.21818 8.53638 9.12727 8.59093 9.03636C8.64547 8.95455 8.70911 8.87273 8.77274 8.80909C8.86365 8.72727 8.95456 8.65454 9.05456 8.59091C9.13638 8.54545 9.2182 8.5 9.30911 8.47273L8.93638 8.09091L8.06365 8.95455ZM7.17274 9.50909L6.76365 9.06364L9.09093 6.72727L9.50002 7.17273L7.17274 9.50909ZM7.0182 9.06364L7.18184 9.23636L9.25456 7.15454L9.09093 6.98182L7.0182 9.06364ZM7.30911 8.42727L6.87274 7.97273L7.99093 6.86364L8.44547 7.28182L7.30911 8.42727ZM7.12729 7.98182L7.30911 8.17273L8.18184 7.3L8.00002 7.12727L7.12729 7.98182ZM6.84547 7.94545L5.9182 7.02727L7.03638 5.89091L7.94547 6.80909L6.84547 7.94545ZM6.17274 7.02727L6.83638 7.69091L7.69093 6.81818L7.03638 6.15454L6.17274 7.02727ZM5.87274 6.97273L4.98183 6.08182L6.09093 4.95455L7.00911 5.86364L5.87274 6.97273ZM5.24547 6.08182L5.88183 6.71818L6.75456 5.86364L6.09093 5.20909L5.24547 6.08182ZM4.35456 6.39091H4.33638C4.28184 6.39091 4.22729 6.38182 4.17274 6.37273C4.12729 6.36364 4.08184 6.34545 4.04547 6.32727L4.02729 6.31818L3.90002 6.21818L4.44547 5.67273L4.90911 6.1L4.78183 6.19091C4.72729 6.25455 4.66365 6.3 4.59093 6.33636C4.50911 6.37273 4.43638 6.39091 4.35456 6.39091ZM4.18183 6.18182C4.19093 6.18182 4.20911 6.19091 4.2182 6.19091C4.25456 6.2 4.29093 6.20909 4.32729 6.20909H4.35456C4.40911 6.20909 4.46365 6.2 4.5182 6.17273C4.56365 6.15455 4.60002 6.12727 4.63638 6.09091L4.45456 5.91818L4.18183 6.18182ZM3.86365 6.15454L3.43638 5.72727L5.76365 3.39091L6.19093 3.81818L3.86365 6.15454ZM3.69093 5.72727L3.85456 5.9L5.92729 3.81818L5.76365 3.64545L3.69093 5.72727ZM4.94547 6.03636L4.49093 5.61818L5.62729 4.48182L6.05456 4.90909L4.94547 6.03636ZM4.75456 5.60909L4.93638 5.78182L5.79093 4.9L5.6182 4.72727L4.75456 5.60909ZM4.32729 4.73636L2.32729 2.74545L2.75456 2.31818L4.74547 4.3L4.32729 4.73636ZM2.59093 2.73636L4.32729 4.47273L4.50002 4.29091L2.76365 2.56364L2.59093 2.73636ZM1.92729 3.06364L1.50911 2.62727L2.64547 1.45455L3.08184 1.89091L1.92729 3.06364ZM1.75456 2.62727L1.92729 2.80909L2.82729 1.9L2.64547 1.71818L1.75456 2.62727ZM1.70911 2.31818L1.28183 1.89091L1.94547 1.22727L2.37274 1.65455L1.70911 2.31818ZM1.54547 1.89091L1.70911 2.06364L2.1182 1.65455L1.95456 1.48182L1.54547 1.89091Z" fill="#2D3E50"/>
</g>
</svg>
