<svg width="12" height="12" viewBox="0 0 12 12" fill="none" xmlns="http://www.w3.org/2000/svg">
<g clip-path="url(#clip0)">
<path d="M5.31191 1.0868C5.57303 0.484639 6.42697 0.484639 6.68809 1.0868L7.72474 3.4774C7.83342 3.72802 8.06975 3.89973 8.34169 3.92564L10.9356 4.17282C11.589 4.23507 11.8529 5.04723 11.3609 5.48164L9.40763 7.20629C9.20287 7.38709 9.11259 7.66493 9.17198 7.93156L9.73848 10.4749C9.88117 11.1156 9.19031 11.6175 8.62512 11.2838L6.38129 9.95911C6.14607 9.82023 5.85393 9.82023 5.61871 9.95911L3.37488 11.2838C2.80969 11.6175 2.11883 11.1156 2.26152 10.4749L2.82802 7.93155C2.88741 7.66493 2.79713 7.38709 2.59237 7.20629L0.639107 5.48164C0.147109 5.04723 0.410994 4.23507 1.06437 4.17282L3.65831 3.92564C3.93025 3.89973 4.16658 3.72802 4.27526 3.4774L5.31191 1.0868Z" fill="#2D3E50"/>
</g>
<defs>
<clipPath id="clip0">
<rect width="12" height="12" fill="white"/>
</clipPath>
</defs>
</svg>
