<svg width="16" height="16" viewBox="0 0 16 16" fill="none" xmlns="http://www.w3.org/2000/svg">
<path d="M8.39889 1.30118L9.89808 5.95392L14.5823 6.00992C14.986 6.01575 15.1528 6.5536 14.8297 6.8056L11.0718 9.73865L12.4671 14.4264C12.5873 14.8301 12.1509 15.1626 11.8219 14.9187L7.99988 12.0767L4.17781 14.9164C3.84998 15.1614 3.41247 14.8277 3.53264 14.4252L4.92799 9.73748L1.17127 6.8056C0.846926 6.5536 1.01376 6.01459 1.41627 6.00992L6.10168 5.95275L7.60087 1.30001C7.62587 1.21351 7.67831 1.13748 7.75027 1.08337C7.82224 1.02926 7.90984 1 7.99988 1C8.08992 1 8.17752 1.02926 8.24948 1.08337C8.32145 1.13748 8.37388 1.21351 8.39889 1.30001V1.30118Z" fill="#2D3E50"/>
</svg>
