<svg width="24" height="24" viewBox="0 0 24 24" fill="none" xmlns="http://www.w3.org/2000/svg">
<path d="M12.6268 1.47328L14.9827 8.78473L22.3436 8.87273C22.978 8.8819 23.2402 9.72708 22.7323 10.1231L16.8271 14.7322L19.0198 22.0986C19.2086 22.733 18.5229 23.2555 18.0059 22.8723L11.9998 18.4062L5.99371 22.8686C5.47853 23.2536 4.79102 22.7293 4.97986 22.0968L7.17256 14.7303L1.26913 10.1231C0.759456 9.72708 1.02163 8.88007 1.65414 8.87273L9.01693 8.7829L11.3728 1.47144C11.4121 1.33552 11.4945 1.21604 11.6076 1.13101C11.7207 1.04598 11.8583 1 11.9998 1C12.1413 1 12.279 1.04598 12.392 1.13101C12.5051 1.21604 12.5875 1.33552 12.6268 1.47144V1.47328Z" fill="#2D3E50"/>
</svg>
