<svg width="12" height="12" viewBox="0 0 12 12" fill="none" xmlns="http://www.w3.org/2000/svg">
<path d="M6.28492 1.21513L7.35577 4.53851L10.7017 4.57852C10.99 4.58268 11.1092 4.96685 10.8783 5.14686L8.19412 7.24189L9.1908 10.5903C9.27664 10.8786 8.96496 11.1161 8.72996 10.942L5.99991 8.91192L3.26987 10.9403C3.0357 11.1153 2.72319 10.877 2.80903 10.5894L3.80571 7.24106L1.12233 5.14686C0.890662 4.96685 1.00983 4.58185 1.29734 4.57852L4.64406 4.53768L5.71491 1.21429C5.73277 1.15251 5.77022 1.0982 5.82162 1.05955C5.87303 1.0209 5.9356 1 5.99991 1C6.06423 1 6.1268 1.0209 6.1782 1.05955C6.22961 1.0982 6.26706 1.15251 6.28492 1.21429V1.21513Z" fill="#2D3E50"/>
</svg>
