<svg width="24" height="24" viewBox="0 0 24 24" fill="none" xmlns="http://www.w3.org/2000/svg">
<path d="M12.0043 22.9988C5.86677 23.0043 0.992577 18.1434 1.00001 12.0109C1.0094 5.79793 5.89102 1.00431 11.9957 1C18.1273 0.99531 22.9886 5.82022 23 12.0019C23.0129 18.1406 18.1481 22.9937 12.0043 22.9988ZM12.0023 21.9302C17.5274 21.9064 21.96 17.4499 21.9177 11.9218C21.8786 6.3322 17.3416 2.04665 11.9511 2.08577C6.43625 2.12488 2.03375 6.55436 2.08186 12.0825C2.12997 17.647 6.60951 21.8837 12.0023 21.9302V21.9302Z" fill="#2D3E50"/>
<path d="M12.0563 9.02235C10.622 9.03722 9.35519 9.41348 8.16187 10.0557C7.28497 10.5278 6.41393 11.0104 5.5339 11.4767C5.3689 11.5667 5.18773 11.6232 5.0008 11.6429C4.35623 11.698 3.89626 11.1864 4.01986 10.5516C4.50133 8.0774 5.81903 6.18826 8.00346 4.91946C8.86206 4.42279 9.80934 4.09848 10.7922 3.96472C15.1012 3.35418 19.0758 6.11943 19.9445 10.3659C20.0075 10.6717 20.0305 10.9737 19.8498 11.2533C19.5729 11.6816 19.0578 11.8009 18.5568 11.5338C17.9247 11.1982 17.2981 10.8516 16.6708 10.5067C15.7751 10.0139 14.8771 9.52886 13.8758 9.27502C13.2808 9.1223 12.6704 9.03754 12.0563 9.02235V9.02235ZM18.811 10.4269C18.3417 7.60335 15.5189 5.01137 12.1197 4.94723C8.62222 4.88074 5.68605 7.51574 5.18658 10.432C5.25542 10.3975 5.31174 10.3713 5.3665 10.3416C6.16792 9.90747 6.96737 9.46941 7.77074 9.03917C8.89679 8.43606 10.0913 8.04493 11.3691 7.95067C12.7161 7.85133 14.0287 8.04728 15.2596 8.60424C16.2245 9.04074 17.1526 9.55859 18.096 10.0424C18.3299 10.1629 18.5603 10.2919 18.811 10.4269Z" fill="#2D3E50"/>
<path d="M17.4566 13.2934C17.8669 13.2934 18.2779 13.2739 18.6874 13.2977C19.4525 13.3423 19.8749 13.9627 19.6402 14.6976C19.3336 15.659 18.8247 16.5089 18.1629 17.27C17.1214 18.47 15.8498 19.3183 14.3205 19.7658C13.9134 19.8851 13.5066 19.9097 13.1507 19.6234C12.7947 19.3371 12.7287 18.9421 12.7807 18.5282C12.8811 17.7283 12.995 16.9301 13.1225 16.1338C13.3388 14.7676 14.5497 13.5492 15.9163 13.3513C16.4224 13.2778 16.9407 13.288 17.4538 13.2602L17.4566 13.2934ZM18.6147 14.3346C18.2138 14.3346 17.8512 14.3287 17.4886 14.3346C17.0584 14.3436 16.6282 14.3303 16.2038 14.3862C15.2029 14.5184 14.3655 15.3116 14.1821 16.2981C14.0585 16.9684 13.9834 17.6478 13.8891 18.3233C13.8692 18.4665 13.8606 18.6108 13.8437 18.7844C15.1039 18.4043 16.1811 17.8011 17.0643 16.8765C17.7546 16.1569 18.2552 15.3136 18.6147 14.3346Z" fill="#2D3E50"/>
<path d="M11.24 18.61C11.2463 19.5405 10.6021 20.018 9.77488 19.7881C7.95145 19.2772 6.49256 18.2462 5.39819 16.695C4.98151 16.0956 4.64121 15.4466 4.38518 14.7629C4.0977 14.017 4.5299 13.32 5.32623 13.304C6.05411 13.2895 6.78317 13.3412 7.51144 13.3677C7.68041 13.374 7.84937 13.3932 8.01755 13.4104C9.43655 13.5578 10.3197 14.3765 10.7476 15.6863C10.9275 16.237 10.9756 16.8315 11.0707 17.4073C11.1415 17.8446 11.1931 18.2838 11.24 18.61ZM5.41227 14.3346C5.65829 16.0274 8.44857 18.6174 10.1449 18.7512C10.1498 18.6749 10.1498 18.5983 10.1449 18.522C10.0979 18.1676 10.0514 17.8129 9.9943 17.4601C9.92194 17.0115 9.87931 16.5527 9.75258 16.1197C9.44711 15.0754 8.60385 14.4128 7.5748 14.3776C6.96973 14.3569 6.36232 14.3483 5.75881 14.335C5.64695 14.3327 5.53548 14.3346 5.40993 14.3346H5.41227Z" fill="#2D3E50"/>
<path d="M14.4559 12.0215C14.4465 13.4358 13.3862 14.4734 11.9632 14.4609C10.5861 14.4492 9.51481 13.3724 9.52811 12.014C9.5418 10.5786 10.61 9.52884 12.043 9.54174C13.4276 9.55426 14.4653 10.6209 14.4559 12.0215ZM13.3998 12.0215C13.3998 11.2783 12.7228 10.5872 12.0008 10.5943C11.2788 10.6013 10.5963 11.2756 10.5896 11.9964C10.583 12.7173 11.2584 13.4182 11.9734 13.4217C12.7138 13.4233 13.3991 12.7509 13.4006 12.0195L13.3998 12.0215Z" fill="#2D3E50"/>
</svg>
