<svg width="12" height="12" viewBox="0 0 12 12" fill="none" xmlns="http://www.w3.org/2000/svg">
<path d="M6.00215 11.4994C2.93339 11.5021 0.496289 9.07169 0.500004 6.00547C0.504698 2.89896 2.94551 0.502153 5.99785 0.500002C9.06367 0.497655 11.4943 2.91011 11.5 6.00097C11.5064 9.07032 9.07404 11.4969 6.00215 11.4994ZM6.00117 10.9651C8.76368 10.9532 10.98 8.72496 10.9589 5.96088C10.9393 3.1661 8.67079 1.02333 5.97555 1.04288C3.21812 1.06244 1.01688 3.27718 1.04093 6.04126C1.06498 8.82352 3.30476 10.9419 6.00117 10.9651Z" fill="#2D3E50"/>
<path d="M6.02816 4.51117C5.31104 4.5186 4.67761 4.70673 4.08095 5.02785C3.6425 5.26389 3.20698 5.50521 2.76697 5.73832C2.68447 5.78334 2.59388 5.81158 2.50042 5.82144C2.17813 5.84901 1.94815 5.59322 2.00995 5.27582C2.25068 4.03869 2.90953 3.09412 4.00175 2.45972C4.43104 2.21139 4.90469 2.04923 5.3961 1.98235C7.55061 1.67708 9.53792 3.05971 9.97226 5.18293C10.0037 5.33586 10.0153 5.48683 9.92493 5.62666C9.78648 5.8408 9.52892 5.90044 9.27841 5.76687C8.96238 5.59908 8.64909 5.42581 8.33541 5.25333C7.88757 5.00692 7.43856 4.76442 6.93792 4.6375C6.64042 4.56114 6.33521 4.51876 6.02816 4.51117ZM9.40552 5.21343C9.17085 3.80167 7.75947 2.50568 6.05984 2.47361C4.31113 2.44036 2.84304 3.75786 2.59331 5.21598C2.62773 5.19877 2.65589 5.18566 2.68327 5.1708C3.08397 4.95373 3.4837 4.7347 3.88539 4.51958C4.44841 4.21802 5.04566 4.02246 5.68456 3.97533C6.35808 3.92566 7.01438 4.02363 7.62982 4.30211C8.11227 4.52036 8.57634 4.77929 9.04803 5.0212C9.16498 5.08143 9.28017 5.14596 9.40552 5.21343Z" fill="#2D3E50"/>
<path d="M8.7283 6.64672C8.93344 6.64672 9.13898 6.63694 9.34373 6.64887C9.72625 6.67116 9.93746 6.98133 9.82012 7.34879C9.6668 7.82948 9.41237 8.25444 9.08148 8.635C8.5607 9.23499 7.92493 9.65916 7.16028 9.88288C6.9567 9.94253 6.75331 9.95485 6.57535 9.8117C6.39739 9.66855 6.36434 9.47103 6.39035 9.26412C6.44054 8.86413 6.49752 8.46506 6.56127 8.06689C6.66942 7.38379 7.27488 6.77462 7.95817 6.67566C8.21123 6.6389 8.47035 6.64398 8.72693 6.6301L8.7283 6.64672ZM9.30736 7.16731C9.1069 7.16731 8.92562 7.16437 8.74433 7.16731C8.52921 7.1718 8.3141 7.16515 8.10191 7.19312C7.60147 7.25922 7.18277 7.65582 7.09105 8.14903C7.02925 8.48422 6.9917 8.82391 6.94457 9.16165C6.9346 9.23323 6.9303 9.30539 6.92189 9.39222C7.55199 9.20213 8.09057 8.90057 8.53215 8.43827C8.87731 8.07843 9.12763 7.6568 9.30736 7.16731Z" fill="#2D3E50"/>
<path d="M5.62003 9.30499C5.62316 9.77024 5.30107 10.009 4.88745 9.89403C3.97574 9.63862 3.2463 9.12312 2.69911 8.34752C2.49077 8.04781 2.32062 7.72328 2.19261 7.38144C2.04887 7.00851 2.26496 6.66002 2.66313 6.652C3.02707 6.64476 3.3916 6.67058 3.75573 6.68387C3.84022 6.687 3.9247 6.69659 4.00879 6.70519C4.71829 6.77892 5.15987 7.18823 5.37382 7.84317C5.46378 8.11852 5.48783 8.41577 5.53535 8.70364C5.57075 8.92228 5.59656 9.1419 5.62003 9.30499ZM2.70615 7.1673C2.82916 8.0137 4.2243 9.30871 5.07246 9.37559C5.0749 9.33743 5.0749 9.29915 5.07246 9.26099C5.04899 9.08381 5.02572 8.90644 4.99716 8.73004C4.96098 8.50573 4.93967 8.27634 4.87631 8.05985C4.72357 7.5377 4.30194 7.20642 3.78742 7.18882C3.48488 7.17845 3.18117 7.17415 2.87942 7.1675C2.82349 7.16633 2.76775 7.1673 2.70498 7.1673H2.70615Z" fill="#2D3E50"/>
<path d="M7.22793 6.01074C7.22323 6.71789 6.69306 7.23672 5.98161 7.23046C5.29303 7.22459 4.75739 6.68621 4.76404 6.00702C4.77088 5.28931 5.30496 4.76442 6.0215 4.77087C6.71379 4.77713 7.23262 5.31043 7.22793 6.01074ZM6.69991 6.01074C6.69991 5.63917 6.36139 5.29361 6.00038 5.29713C5.63938 5.30065 5.29812 5.6378 5.29479 5.99822C5.29147 6.35864 5.62921 6.70909 5.98669 6.71085C6.35689 6.71163 6.69952 6.37546 6.7003 6.00976L6.69991 6.01074Z" fill="#2D3E50"/>
</svg>
