<svg width="16" height="16" viewBox="0 0 16 16" fill="none" xmlns="http://www.w3.org/2000/svg">
<path d="M8.00285 15.3325C3.91117 15.3362 0.661708 12.0956 0.666662 8.0073C0.67292 3.86529 3.92734 0.669542 7.99712 0.666674C12.0849 0.663545 15.3257 3.88015 15.3333 8.0013C15.3419 12.0938 12.0987 15.3291 8.00285 15.3325ZM8.00155 14.6202C11.6849 14.6043 14.64 11.6333 14.6118 7.94785C14.5857 4.22147 11.561 1.36444 7.96739 1.39052C4.29082 1.41659 1.35582 4.36958 1.3879 8.05501C1.41997 11.7647 4.40633 14.5891 8.00155 14.6202Z" fill="#2D3E50"/>
<path d="M8.03752 6.01491C7.08135 6.02482 6.23678 6.27566 5.44124 6.70381C4.85663 7.01854 4.27594 7.3403 3.68926 7.65112C3.57926 7.71114 3.45847 7.7488 3.33386 7.76194C2.90414 7.7987 2.5975 7.45764 2.6799 7.03444C3.00088 5.38494 3.87934 4.12552 5.33563 3.27965C5.90803 2.94854 6.53955 2.73233 7.19478 2.64316C10.0675 2.23613 12.7172 4.07963 13.2963 6.91059C13.3383 7.11449 13.3537 7.31579 13.2332 7.50223C13.0486 7.78775 12.7052 7.86728 12.3712 7.68919C11.9498 7.46546 11.5321 7.23444 11.1138 7.00446C10.5167 6.67591 9.91805 6.35258 9.25053 6.18336C8.85386 6.08155 8.44692 6.02504 8.03752 6.01491ZM12.5407 6.95126C12.2278 5.06891 10.3459 3.34092 8.07976 3.29816C5.74814 3.25383 3.79069 5.0105 3.45771 6.95465C3.5036 6.93171 3.54115 6.91424 3.57766 6.89442C4.11193 6.60499 4.64491 6.31295 5.18049 6.02612C5.93118 5.62405 6.72751 5.3633 7.57938 5.30046C8.4774 5.23423 9.35248 5.36486 10.1731 5.73617C10.8163 6.02717 11.4351 6.3724 12.064 6.69495C12.2199 6.77526 12.3735 6.86131 12.5407 6.95126Z" fill="#2D3E50"/>
<path d="M11.6377 8.86228C11.9112 8.86228 12.1853 8.84924 12.4583 8.86515C12.9683 8.89488 13.2499 9.30842 13.0935 9.79837C12.889 10.4393 12.5498 11.0059 12.1086 11.5133C11.4142 12.3133 10.5665 12.8789 9.54701 13.1772C9.27557 13.2567 9.00439 13.2731 8.76711 13.0823C8.52982 12.8914 8.48576 12.628 8.52044 12.3522C8.58736 11.8188 8.66333 11.2867 8.74833 10.7558C8.89253 9.84505 9.69981 9.03281 10.6109 8.90087C10.9483 8.85185 11.2938 8.85863 11.6359 8.84012L11.6377 8.86228ZM12.4098 9.5564C12.1425 9.5564 11.9008 9.55249 11.6591 9.5564C11.3723 9.56239 11.0854 9.55353 10.8025 9.59082C10.1353 9.67895 9.57699 10.2077 9.4547 10.8654C9.3723 11.3123 9.32224 11.7652 9.2594 12.2155C9.2461 12.311 9.24037 12.4072 9.22915 12.5229C10.0693 12.2695 10.7874 11.8674 11.3762 11.251C11.8364 10.7712 12.1701 10.2091 12.4098 9.5564Z" fill="#2D3E50"/>
<path d="M7.49334 12.4067C7.49751 13.027 7.06806 13.3454 6.51657 13.192C5.30096 12.8515 4.32836 12.1642 3.59879 11.13C3.32099 10.7304 3.09413 10.2977 2.92344 9.84193C2.73179 9.34468 3.01992 8.88003 3.55081 8.86934C4.03606 8.85969 4.5221 8.89411 5.00762 8.91184C5.12026 8.91601 5.2329 8.92879 5.34503 8.94026C6.29103 9.03856 6.8798 9.58431 7.16506 10.4576C7.285 10.8247 7.31708 11.221 7.38044 11.6049C7.42763 11.8964 7.46205 12.1892 7.49334 12.4067ZM3.60817 9.55641C3.77218 10.6849 5.63237 12.4116 6.76324 12.5008C6.76651 12.4499 6.76651 12.3989 6.76324 12.348C6.73195 12.1118 6.70092 11.8753 6.66285 11.6401C6.61462 11.341 6.58619 11.0351 6.50171 10.7465C6.29807 10.0503 5.73589 9.60856 5.04986 9.58509C4.64648 9.57127 4.24153 9.56554 3.8392 9.55667C3.76462 9.55511 3.69031 9.55641 3.60661 9.55641H3.60817Z" fill="#2D3E50"/>
<path d="M9.63723 8.01433C9.63097 8.9572 8.92408 9.64897 7.97547 9.64063C7.05737 9.6328 6.34318 8.91496 6.35204 8.00938C6.36117 7.05242 7.07327 6.35257 8.02866 6.36118C8.95171 6.36952 9.64348 7.08059 9.63723 8.01433ZM8.9332 8.01433C8.9332 7.51891 8.48184 7.05816 8.0005 7.06286C7.51916 7.06755 7.06415 7.51708 7.05972 7.99764C7.05528 8.4782 7.5056 8.94547 7.98225 8.94781C8.47585 8.94886 8.93268 8.50063 8.93372 8.01303L8.9332 8.01433Z" fill="#2D3E50"/>
</svg>
