<svg width="12" height="12" viewBox="0 0 12 12" fill="none" xmlns="http://www.w3.org/2000/svg">
<path d="M3.99538 5.22728H4.00468H4.01398C4.0791 5.22728 4.12561 5.24546 4.17212 5.29091C4.20933 5.33637 4.23724 5.38182 4.23724 5.44546C4.23724 5.50909 4.21863 5.56364 4.17212 5.60909C4.12561 5.65455 4.06979 5.68182 4.00468 5.68182C3.93956 5.68182 3.89305 5.66364 3.84654 5.61818C3.80933 5.57273 3.78142 5.52728 3.78142 5.46364V5.45455V5.44546C3.78142 5.38182 3.80003 5.33637 3.84654 5.29091C3.88375 5.25455 3.93026 5.22728 3.99538 5.22728ZM3.99538 2.67273C3.93026 2.67273 3.88375 2.65455 3.83724 2.60909C3.80003 2.56364 3.77212 2.51818 3.77212 2.45455V2.44546C3.77212 2.38182 3.79073 2.33637 3.83724 2.29091C3.87445 2.24546 3.93026 2.22728 3.99538 2.22728H4.00468H4.01398C4.0791 2.22728 4.12561 2.24546 4.17212 2.29091C4.20933 2.33637 4.23724 2.38182 4.23724 2.44546C4.23724 2.50909 4.21863 2.56364 4.17212 2.60909C4.11631 2.65455 4.06049 2.67273 3.99538 2.67273ZM2.94421 4.8C2.97212 4.8 3.00003 4.80909 3.02793 4.81818C3.05584 4.82728 3.07445 4.84546 3.09305 4.87273C3.11166 4.89091 3.13026 4.90909 3.14886 4.93637C3.15817 4.96364 3.16747 4.99091 3.16747 5.01818C3.16747 5.04546 3.15817 5.07273 3.14886 5.1C3.13956 5.12728 3.12096 5.14546 3.09305 5.16364C3.07445 5.19091 3.05584 5.20909 3.02793 5.21818C3.00003 5.23637 2.97212 5.24546 2.93491 5.24546C2.907 5.24546 2.8791 5.23637 2.85119 5.21818C2.82328 5.2 2.80468 5.18182 2.78607 5.16364C2.76747 5.14546 2.74886 5.12728 2.73026 5.1C2.72096 5.07273 2.71166 5.04546 2.71166 5.01818C2.71166 4.99091 2.72096 4.96364 2.73026 4.93637C2.73956 4.90909 2.75817 4.89091 2.78607 4.87273C2.80468 4.84546 2.82328 4.83637 2.85119 4.81818C2.8791 4.8 2.907 4.8 2.93491 4.8H2.94421ZM2.37677 2.31818C2.59073 2.10909 2.83259 1.94546 3.11166 1.81818C3.39072 1.69091 3.6884 1.62728 4.00468 1.62728C4.32096 1.62728 4.62793 1.69091 4.907 1.80909C5.18607 1.92728 5.42793 2.1 5.63259 2.30909L5.79072 2.49091H5.80933L5.85584 2.52728L10.321 8.41818C10.4047 8.52728 10.4698 8.64546 10.5163 8.78182C10.5628 8.91818 10.5907 9.06364 10.5907 9.21819C10.5907 9.4 10.5535 9.57273 10.4884 9.72728C10.4233 9.89091 10.321 10.0273 10.2 10.1455L10.1163 10.2273C10.0047 10.3273 9.87444 10.4 9.72561 10.4545C9.57677 10.5091 9.42793 10.5364 9.26049 10.5364C9.11165 10.5364 8.96282 10.5091 8.82328 10.4636C8.68375 10.4182 8.56282 10.3455 8.46049 10.2636L2.60933 5.80909L2.55352 5.76364L2.36747 5.59091C2.16282 5.38182 1.99538 5.14546 1.87445 4.86364C1.75352 4.58182 1.6884 4.28182 1.6884 3.96364C1.6884 3.65455 1.75352 3.35455 1.87445 3.07273C1.99538 2.79091 2.16282 2.54546 2.37677 2.34546V2.31818ZM8.73026 9.98182C8.81398 10.0636 8.907 10.1273 9.01863 10.1727C9.13026 10.2182 9.25119 10.2455 9.38142 10.2455C9.50235 10.2455 9.62328 10.2273 9.73491 10.1727C9.84654 10.1273 9.94886 10.0636 10.0326 9.98182C10.1163 9.9 10.1814 9.8 10.2279 9.69091C10.2744 9.58182 10.293 9.46364 10.293 9.34546V9.33637V9.32728C10.293 9.20909 10.2744 9.09091 10.2279 8.98182C10.1814 8.87273 10.1163 8.77273 10.0326 8.69091C9.94886 8.60909 9.85584 8.53637 9.74421 8.49091C9.63258 8.44546 9.51165 8.41818 9.38142 8.41818C9.12096 8.41818 8.907 8.50909 8.73026 8.68182C8.55352 8.86364 8.46049 9.08182 8.46049 9.33637C8.46049 9.46364 8.4884 9.58182 8.53491 9.7C8.58142 9.8 8.64654 9.9 8.73026 9.98182ZM8.31166 9.83637L8.27445 9.74546C8.25584 9.68182 8.23724 9.61819 8.21863 9.55455C8.20933 9.48182 8.20003 9.41818 8.20003 9.33637C8.20003 9.25455 8.20933 9.17273 8.22793 9.08182C8.24654 9 8.27445 8.91819 8.30235 8.84546C8.36747 8.70909 8.46049 8.59091 8.57212 8.48182C8.68375 8.37273 8.81398 8.3 8.95351 8.24546V8.23637C9.01863 8.20909 9.08375 8.2 9.14886 8.18182C9.22328 8.17273 9.2977 8.16364 9.37212 8.16364C9.44654 8.16364 9.52096 8.17273 9.58607 8.18182C9.65119 8.19091 9.72561 8.20909 9.79072 8.23637L9.88375 8.27273L6.25584 3.50909V3.62728C6.26514 3.68182 6.26514 3.73637 6.27445 3.79091C6.27445 3.84546 6.28375 3.9 6.28375 3.96364C6.28375 4.21818 6.24654 4.47273 6.16282 4.70909C6.0791 4.94546 5.96747 5.15455 5.82793 5.34546C5.65119 5.58182 5.43724 5.78182 5.17677 5.93637C4.91631 6.1 4.62793 6.2 4.33026 6.24546H4.32096C4.27445 6.25455 4.22793 6.25455 4.16282 6.26364C4.107 6.26364 4.05119 6.27273 3.99538 6.27273C3.93026 6.27273 3.87445 6.27273 3.81863 6.26364C3.76282 6.26364 3.707 6.25455 3.65119 6.24546H3.66049H3.54886L8.31166 9.83637ZM2.55352 5.4C2.73956 5.58182 2.96282 5.72728 3.20468 5.83637C3.45584 5.94546 3.71631 6 3.99538 6C4.27445 6 4.54421 5.94546 4.78607 5.83637C5.03724 5.72728 5.25119 5.58182 5.43724 5.4C5.62328 5.20909 5.76282 4.99091 5.87445 4.73637C5.98607 4.48182 6.04189 4.21818 6.04189 3.93637C6.04189 3.36364 5.84654 2.88182 5.44654 2.48182C5.04654 2.08182 4.56282 1.88182 3.99538 1.88182C3.42793 1.88182 2.94421 2.08182 2.54421 2.48182C2.14421 2.88182 1.94886 3.36364 1.94886 3.93637C1.94886 4.21818 2.00468 4.48182 2.11631 4.73637C2.22793 4.99091 2.37677 5.20909 2.55352 5.4ZM5.06514 4.8H5.07445C5.10235 4.8 5.13026 4.80909 5.15817 4.81818C5.17677 4.82728 5.19538 4.84546 5.21398 4.87273C5.23259 4.89091 5.25119 4.90909 5.26979 4.93637C5.2884 4.96364 5.2884 4.99091 5.2884 5.01818C5.2884 5.04546 5.2791 5.07273 5.26979 5.1C5.25119 5.12728 5.23259 5.14546 5.21398 5.16364C5.19538 5.19091 5.17677 5.2 5.15817 5.21818C5.13956 5.22728 5.11166 5.23637 5.07445 5.23637H5.06514H5.05584C4.99072 5.22728 4.94421 5.20909 4.8977 5.16364C4.86049 5.12728 4.83259 5.07273 4.83259 5.01818C4.83259 4.95455 4.85119 4.90909 4.8977 4.86364C4.95352 4.81818 5.00003 4.8 5.06514 4.8ZM5.49305 3.72728H5.50235C5.56747 3.72728 5.61398 3.74546 5.66049 3.79091C5.6977 3.83637 5.72561 3.88182 5.72561 3.94546C5.72561 4.01818 5.707 4.07273 5.66049 4.11818C5.61398 4.16364 5.55817 4.19091 5.50235 4.19091C5.44654 4.19091 5.39073 4.17273 5.34421 4.12728C5.307 4.08182 5.2791 4.03637 5.2791 3.97273V3.96364V3.95455C5.2791 3.89091 5.2977 3.84546 5.34421 3.8C5.38142 3.74546 5.43724 3.72728 5.49305 3.72728ZM2.73026 3.94546C2.73026 4.01818 2.71166 4.07273 2.66514 4.11818C2.60933 4.15455 2.56282 4.18182 2.4977 4.18182C2.43259 4.18182 2.38607 4.16364 2.33956 4.11818C2.30235 4.07273 2.27445 4.02728 2.27445 3.96364V3.95455V3.94546C2.27445 3.88182 2.29305 3.83637 2.33956 3.79091C2.37677 3.74546 2.43259 3.72728 2.4977 3.72728H2.507H2.51631C2.58142 3.72728 2.62793 3.74546 2.67445 3.79091C2.70235 3.82728 2.73026 3.88182 2.73026 3.94546ZM4.91631 3.03637C4.8977 3.01818 4.8791 3 4.86049 2.98182C4.85119 2.95455 4.84189 2.93637 4.84189 2.9V2.89091V2.88182V2.87273V2.86364C4.84189 2.8 4.86049 2.75455 4.907 2.70909C4.94421 2.66364 5.00003 2.64546 5.06514 2.64546C5.09305 2.64546 5.12096 2.65455 5.14886 2.66364C5.17677 2.67273 5.19538 2.69091 5.21398 2.7V2.70909C5.23259 2.72728 5.25119 2.74546 5.26979 2.77273C5.2791 2.8 5.2884 2.82728 5.2884 2.85455V2.86364V2.87273V2.88182V2.89091C5.2884 2.91818 5.2791 2.94546 5.26979 2.97273C5.26049 3 5.24189 3.01818 5.21398 3.02728C5.19538 3.05455 5.17677 3.06364 5.14886 3.08182C5.12096 3.09091 5.09305 3.1 5.06514 3.1C5.03724 3.1 5.00003 3.1 4.98142 3.09091C4.95352 3.08182 4.92561 3.06364 4.91631 3.03637ZM3.307 3.29091H3.32561C3.40933 3.20909 3.51166 3.13637 3.62328 3.09091C3.74421 3.04546 3.86514 3.01818 3.99538 3.01818C4.12561 3.01818 4.24654 3.04546 4.36747 3.09091C4.4884 3.13637 4.58142 3.20909 4.66514 3.29091C4.75817 3.37273 4.82328 3.47273 4.8791 3.59091C4.92561 3.70909 4.95352 3.83637 4.95352 3.96364C4.95352 4.22728 4.86049 4.45455 4.66514 4.64546C4.46979 4.83637 4.24654 4.92728 3.98607 4.92728C3.72561 4.91818 3.51166 4.82728 3.32561 4.64546C3.13956 4.46364 3.04654 4.23637 3.03724 3.97273V3.96364V3.95455C3.03724 3.82728 3.05584 3.7 3.10235 3.59091C3.15817 3.48182 3.22328 3.38182 3.307 3.29091ZM3.49305 4.44546H3.51166C3.57677 4.50909 3.64189 4.55455 3.72561 4.59091C3.80933 4.62728 3.89305 4.64546 3.98607 4.64546C4.0884 4.64546 4.17212 4.62728 4.25584 4.59091C4.33956 4.55455 4.41398 4.5 4.46979 4.44546C4.53491 4.38182 4.58142 4.30909 4.60933 4.22728C4.64654 4.14546 4.66514 4.05455 4.66514 3.95455V3.94546V3.93637C4.66514 3.83637 4.64654 3.74546 4.60933 3.67273C4.57212 3.59091 4.52561 3.51818 4.46979 3.46364C4.40468 3.4 4.32096 3.35455 4.24654 3.31818C4.16282 3.28182 4.0791 3.26364 3.98607 3.26364C3.88375 3.26364 3.80003 3.28182 3.71631 3.31818C3.63259 3.35455 3.55817 3.40909 3.49305 3.46364C3.43724 3.52728 3.40003 3.6 3.36282 3.68182C3.32561 3.77273 3.307 3.85455 3.307 3.94546C3.307 4.03637 3.32561 4.12728 3.36282 4.20909C3.39072 4.30909 3.43724 4.38182 3.49305 4.44546ZM9.10235 9.06364H9.12096C9.14886 9.03637 9.18607 9.00909 9.23258 8.99091C9.26979 8.97273 9.32561 8.96364 9.37212 8.96364C9.41863 8.96364 9.46514 8.97273 9.50235 8.99091C9.53956 9.00909 9.58607 9.02728 9.62328 9.06364C9.65119 9.1 9.6791 9.14546 9.6977 9.18182C9.71631 9.22728 9.72561 9.26364 9.72561 9.30909C9.72561 9.40909 9.6884 9.49091 9.62328 9.56364C9.55817 9.63637 9.47445 9.66364 9.37212 9.66364C9.26979 9.66364 9.18607 9.62728 9.12096 9.56364C9.05584 9.49091 9.01863 9.40909 9.01863 9.30909C9.01863 9.26364 9.02793 9.21818 9.04654 9.18182C9.06514 9.13637 9.09305 9.1 9.12096 9.06364H9.10235ZM3.99538 3.57273H4.00468C4.06049 3.57273 4.107 3.58182 4.14421 3.6C4.18142 3.61818 4.22793 3.64546 4.26514 3.67273C4.29305 3.7 4.32096 3.74546 4.34886 3.79091C4.36747 3.83637 4.38607 3.88182 4.38607 3.93637C4.38607 4.04546 4.34886 4.13637 4.27445 4.20909C4.20003 4.28182 4.107 4.32728 4.00468 4.32728C3.90235 4.32728 3.81863 4.29091 3.74421 4.21818C3.66979 4.14546 3.63259 4.06364 3.63259 3.96364V3.95455V3.94546C3.63259 3.9 3.64189 3.85455 3.66049 3.80909C3.6791 3.76364 3.707 3.71818 3.73491 3.68182C3.77212 3.65455 3.81863 3.62728 3.85584 3.60909C3.90235 3.58182 3.94886 3.57273 3.99538 3.57273ZM2.94421 3.10909H2.93491C2.907 3.10909 2.8791 3.1 2.85119 3.09091C2.82328 3.08182 2.80468 3.06364 2.78607 3.03637C2.76747 3.01818 2.74886 3 2.73026 2.97273C2.72096 2.94546 2.71166 2.91818 2.71166 2.89091C2.71166 2.86364 2.72096 2.82728 2.73026 2.8C2.73956 2.77273 2.75817 2.74546 2.78607 2.71818V2.72728C2.80468 2.7 2.82328 2.69091 2.85119 2.67273C2.8791 2.66364 2.91631 2.65455 2.94421 2.65455C2.97212 2.65455 3.00003 2.66364 3.02793 2.67273C3.05584 2.68182 3.07445 2.7 3.09305 2.72728C3.11166 2.74546 3.13026 2.76364 3.14886 2.79091C3.15817 2.81818 3.16747 2.84546 3.16747 2.87273V2.88182V2.89091C3.16747 2.95455 3.14886 3 3.10235 3.04546C3.05584 3.09091 3.00003 3.10909 2.94421 3.10909ZM1.72561 2.22728L1.97677 1.91818H1.99538C2.25584 1.66364 2.55352 1.45455 2.8977 1.30909C3.24189 1.16364 3.61398 1.09091 4.00468 1.09091C4.39538 1.09091 4.76747 1.16364 5.11166 1.30909C5.45584 1.45455 5.76282 1.66364 6.01398 1.91818L6.27445 2.22728L10.7396 8.1C10.8605 8.25455 10.9535 8.42728 11.0279 8.61819C11.0931 8.80909 11.1303 9.01818 11.1303 9.22728C11.1303 9.27273 11.1303 9.31818 11.121 9.35455C11.1117 9.39091 11.1117 9.43637 11.1024 9.48182V9.47273C11.0744 9.72728 10.9907 9.95455 10.8605 10.1727C10.7303 10.3818 10.5721 10.5636 10.3675 10.7091C10.2186 10.8273 10.0419 10.9273 9.84654 10.9909C9.65119 11.0545 9.44654 11.0909 9.23258 11.0909C9.01863 11.0909 8.82328 11.0545 8.62793 10.9909C8.44189 10.9273 8.26514 10.8364 8.107 10.7091H8.14421L2.28375 6.24546C1.97677 6.02728 1.73491 5.75455 1.53956 5.42728C1.34421 5.1 1.23259 4.74546 1.17677 4.36364V4.33637C1.16747 4.27273 1.15817 4.20909 1.15817 4.13637C1.14886 4.06364 1.14886 3.99091 1.14886 3.92728C1.14886 3.6 1.20468 3.29091 1.307 3C1.40933 2.70909 1.55817 2.44546 1.74421 2.20909L1.72561 2.22728ZM1.93026 5.54546L2.14421 5.77273V5.80909L2.40468 6.02728L8.29305 10.5182C8.42328 10.6182 8.57212 10.7 8.73956 10.7545C8.907 10.8182 9.08375 10.8455 9.26979 10.8455C9.71631 10.8455 10.0977 10.6909 10.414 10.3727C10.7303 10.0545 10.8884 9.67273 10.8884 9.22728C10.8884 9.04546 10.8605 8.86364 10.7954 8.7C10.7303 8.53637 10.6465 8.37273 10.5442 8.23637L10.5535 8.24546L6.0791 2.38182C5.83724 2.10909 5.54886 1.89091 5.20468 1.73637C4.86979 1.57273 4.507 1.5 4.11631 1.5C3.75352 1.5 3.40933 1.57273 3.09305 1.70909C2.78607 1.84546 2.507 2.03637 2.26514 2.26364C2.02328 2.49091 1.83724 2.77273 1.6977 3.1C1.55817 3.41818 1.49305 3.76364 1.49305 4.12728C1.49305 4.39091 1.53026 4.64546 1.60468 4.89091C1.6791 5.13637 1.79073 5.36364 1.92096 5.57273V5.54546H1.93026Z" fill="#2D3E50"/>
<mask id="mask0" mask-type="alpha" maskUnits="userSpaceOnUse" x="1" y="1" width="11" height="11">
<path d="M11.2326 1H1V11.1818H11.2326V1Z" fill="white"/>
<path d="M3.99538 5.22728H4.00468H4.01398C4.0791 5.22728 4.12561 5.24546 4.17212 5.29091C4.20933 5.33637 4.23724 5.38182 4.23724 5.44546C4.23724 5.50909 4.21863 5.56364 4.17212 5.60909C4.12561 5.65455 4.06979 5.68182 4.00468 5.68182C3.93956 5.68182 3.89305 5.66364 3.84654 5.61818C3.80933 5.57273 3.78142 5.52728 3.78142 5.46364V5.45455V5.44546C3.78142 5.38182 3.80003 5.33637 3.84654 5.29091C3.88375 5.25455 3.93026 5.22728 3.99538 5.22728ZM3.99538 2.67273C3.93026 2.67273 3.88375 2.65455 3.83724 2.60909C3.80003 2.56364 3.77212 2.51818 3.77212 2.45455V2.44546C3.77212 2.38182 3.79073 2.33637 3.83724 2.29091C3.87445 2.24546 3.93026 2.22728 3.99538 2.22728H4.00468H4.01398C4.0791 2.22728 4.12561 2.24546 4.17212 2.29091C4.20933 2.33637 4.23724 2.38182 4.23724 2.44546C4.23724 2.50909 4.21863 2.56364 4.17212 2.60909C4.11631 2.65455 4.06049 2.67273 3.99538 2.67273ZM2.94421 4.8C2.97212 4.8 3.00003 4.80909 3.02793 4.81818C3.05584 4.82728 3.07445 4.84546 3.09305 4.87273C3.11166 4.89091 3.13026 4.90909 3.14886 4.93637C3.15817 4.96364 3.16747 4.99091 3.16747 5.01818C3.16747 5.04546 3.15817 5.07273 3.14886 5.1C3.13956 5.12728 3.12096 5.14546 3.09305 5.16364C3.07445 5.19091 3.05584 5.20909 3.02793 5.21818C3.00003 5.23637 2.97212 5.24546 2.93491 5.24546C2.907 5.24546 2.8791 5.23637 2.85119 5.21818C2.82328 5.2 2.80468 5.18182 2.78607 5.16364C2.76747 5.14546 2.74886 5.12728 2.73026 5.1C2.72096 5.07273 2.71166 5.04546 2.71166 5.01818C2.71166 4.99091 2.72096 4.96364 2.73026 4.93637C2.73956 4.90909 2.75817 4.89091 2.78607 4.87273C2.80468 4.84546 2.82328 4.83637 2.85119 4.81818C2.8791 4.8 2.907 4.8 2.93491 4.8H2.94421ZM2.37677 2.31818C2.59073 2.10909 2.83259 1.94546 3.11166 1.81818C3.39072 1.69091 3.6884 1.62728 4.00468 1.62728C4.32096 1.62728 4.62793 1.69091 4.907 1.80909C5.18607 1.92728 5.42793 2.1 5.63259 2.30909L5.79072 2.49091H5.80933L5.85584 2.52728L10.321 8.41818C10.4047 8.52728 10.4698 8.64546 10.5163 8.78182C10.5628 8.91818 10.5907 9.06364 10.5907 9.21819C10.5907 9.4 10.5535 9.57273 10.4884 9.72728C10.4233 9.89091 10.321 10.0273 10.2 10.1455L10.1163 10.2273C10.0047 10.3273 9.87444 10.4 9.72561 10.4545C9.57677 10.5091 9.42793 10.5364 9.26049 10.5364C9.11165 10.5364 8.96282 10.5091 8.82328 10.4636C8.68375 10.4182 8.56282 10.3455 8.46049 10.2636L2.60933 5.80909L2.55352 5.76364L2.36747 5.59091C2.16282 5.38182 1.99538 5.14546 1.87445 4.86364C1.75352 4.58182 1.6884 4.28182 1.6884 3.96364C1.6884 3.65455 1.75352 3.35455 1.87445 3.07273C1.99538 2.79091 2.16282 2.54546 2.37677 2.34546V2.31818ZM8.73026 9.98182C8.81398 10.0636 8.907 10.1273 9.01863 10.1727C9.13026 10.2182 9.25119 10.2455 9.38142 10.2455C9.50235 10.2455 9.62328 10.2273 9.73491 10.1727C9.84654 10.1273 9.94886 10.0636 10.0326 9.98182C10.1163 9.9 10.1814 9.8 10.2279 9.69091C10.2744 9.58182 10.293 9.46364 10.293 9.34546V9.33637V9.32728C10.293 9.20909 10.2744 9.09091 10.2279 8.98182C10.1814 8.87273 10.1163 8.77273 10.0326 8.69091C9.94886 8.60909 9.85584 8.53637 9.74421 8.49091C9.63258 8.44546 9.51165 8.41818 9.38142 8.41818C9.12096 8.41818 8.907 8.50909 8.73026 8.68182C8.55352 8.86364 8.46049 9.08182 8.46049 9.33637C8.46049 9.46364 8.4884 9.58182 8.53491 9.7C8.58142 9.8 8.64654 9.9 8.73026 9.98182ZM8.31166 9.83637L8.27445 9.74546C8.25584 9.68182 8.23724 9.61819 8.21863 9.55455C8.20933 9.48182 8.20003 9.41818 8.20003 9.33637C8.20003 9.25455 8.20933 9.17273 8.22793 9.08182C8.24654 9 8.27445 8.91819 8.30235 8.84546C8.36747 8.70909 8.46049 8.59091 8.57212 8.48182C8.68375 8.37273 8.81398 8.3 8.95351 8.24546V8.23637C9.01863 8.20909 9.08375 8.2 9.14886 8.18182C9.22328 8.17273 9.2977 8.16364 9.37212 8.16364C9.44654 8.16364 9.52096 8.17273 9.58607 8.18182C9.65119 8.19091 9.72561 8.20909 9.79072 8.23637L9.88375 8.27273L6.25584 3.50909V3.62728C6.26514 3.68182 6.26514 3.73637 6.27445 3.79091C6.27445 3.84546 6.28375 3.9 6.28375 3.96364C6.28375 4.21818 6.24654 4.47273 6.16282 4.70909C6.0791 4.94546 5.96747 5.15455 5.82793 5.34546C5.65119 5.58182 5.43724 5.78182 5.17677 5.93637C4.91631 6.1 4.62793 6.2 4.33026 6.24546H4.32096C4.27445 6.25455 4.22793 6.25455 4.16282 6.26364C4.107 6.26364 4.05119 6.27273 3.99538 6.27273C3.93026 6.27273 3.87445 6.27273 3.81863 6.26364C3.76282 6.26364 3.707 6.25455 3.65119 6.24546H3.66049H3.54886L8.31166 9.83637ZM2.55352 5.4C2.73956 5.58182 2.96282 5.72728 3.20468 5.83637C3.45584 5.94546 3.71631 6 3.99538 6C4.27445 6 4.54421 5.94546 4.78607 5.83637C5.03724 5.72728 5.25119 5.58182 5.43724 5.4C5.62328 5.20909 5.76282 4.99091 5.87445 4.73637C5.98607 4.48182 6.04189 4.21818 6.04189 3.93637C6.04189 3.36364 5.84654 2.88182 5.44654 2.48182C5.04654 2.08182 4.56282 1.88182 3.99538 1.88182C3.42793 1.88182 2.94421 2.08182 2.54421 2.48182C2.14421 2.88182 1.94886 3.36364 1.94886 3.93637C1.94886 4.21818 2.00468 4.48182 2.11631 4.73637C2.22793 4.99091 2.37677 5.20909 2.55352 5.4ZM5.06514 4.8H5.07445C5.10235 4.8 5.13026 4.80909 5.15817 4.81818C5.17677 4.82728 5.19538 4.84546 5.21398 4.87273C5.23259 4.89091 5.25119 4.90909 5.26979 4.93637C5.2884 4.96364 5.2884 4.99091 5.2884 5.01818C5.2884 5.04546 5.2791 5.07273 5.26979 5.1C5.25119 5.12728 5.23259 5.14546 5.21398 5.16364C5.19538 5.19091 5.17677 5.2 5.15817 5.21818C5.13956 5.22728 5.11166 5.23637 5.07445 5.23637H5.06514H5.05584C4.99072 5.22728 4.94421 5.20909 4.8977 5.16364C4.86049 5.12728 4.83259 5.07273 4.83259 5.01818C4.83259 4.95455 4.85119 4.90909 4.8977 4.86364C4.95352 4.81818 5.00003 4.8 5.06514 4.8ZM5.49305 3.72728H5.50235C5.56747 3.72728 5.61398 3.74546 5.66049 3.79091C5.6977 3.83637 5.72561 3.88182 5.72561 3.94546C5.72561 4.01818 5.707 4.07273 5.66049 4.11818C5.61398 4.16364 5.55817 4.19091 5.50235 4.19091C5.44654 4.19091 5.39073 4.17273 5.34421 4.12728C5.307 4.08182 5.2791 4.03637 5.2791 3.97273V3.96364V3.95455C5.2791 3.89091 5.2977 3.84546 5.34421 3.8C5.38142 3.74546 5.43724 3.72728 5.49305 3.72728ZM2.73026 3.94546C2.73026 4.01818 2.71166 4.07273 2.66514 4.11818C2.60933 4.15455 2.56282 4.18182 2.4977 4.18182C2.43259 4.18182 2.38607 4.16364 2.33956 4.11818C2.30235 4.07273 2.27445 4.02728 2.27445 3.96364V3.95455V3.94546C2.27445 3.88182 2.29305 3.83637 2.33956 3.79091C2.37677 3.74546 2.43259 3.72728 2.4977 3.72728H2.507H2.51631C2.58142 3.72728 2.62793 3.74546 2.67445 3.79091C2.70235 3.82728 2.73026 3.88182 2.73026 3.94546ZM4.91631 3.03637C4.8977 3.01818 4.8791 3 4.86049 2.98182C4.85119 2.95455 4.84189 2.93637 4.84189 2.9V2.89091V2.88182V2.87273V2.86364C4.84189 2.8 4.86049 2.75455 4.907 2.70909C4.94421 2.66364 5.00003 2.64546 5.06514 2.64546C5.09305 2.64546 5.12096 2.65455 5.14886 2.66364C5.17677 2.67273 5.19538 2.69091 5.21398 2.7V2.70909C5.23259 2.72728 5.25119 2.74546 5.26979 2.77273C5.2791 2.8 5.2884 2.82728 5.2884 2.85455V2.86364V2.87273V2.88182V2.89091C5.2884 2.91818 5.2791 2.94546 5.26979 2.97273C5.26049 3 5.24189 3.01818 5.21398 3.02728C5.19538 3.05455 5.17677 3.06364 5.14886 3.08182C5.12096 3.09091 5.09305 3.1 5.06514 3.1C5.03724 3.1 5.00003 3.1 4.98142 3.09091C4.95352 3.08182 4.92561 3.06364 4.91631 3.03637ZM3.307 3.29091H3.32561C3.40933 3.20909 3.51166 3.13637 3.62328 3.09091C3.74421 3.04546 3.86514 3.01818 3.99538 3.01818C4.12561 3.01818 4.24654 3.04546 4.36747 3.09091C4.4884 3.13637 4.58142 3.20909 4.66514 3.29091C4.75817 3.37273 4.82328 3.47273 4.8791 3.59091C4.92561 3.70909 4.95352 3.83637 4.95352 3.96364C4.95352 4.22728 4.86049 4.45455 4.66514 4.64546C4.46979 4.83637 4.24654 4.92728 3.98607 4.92728C3.72561 4.91818 3.51166 4.82728 3.32561 4.64546C3.13956 4.46364 3.04654 4.23637 3.03724 3.97273V3.96364V3.95455C3.03724 3.82728 3.05584 3.7 3.10235 3.59091C3.15817 3.48182 3.22328 3.38182 3.307 3.29091ZM3.49305 4.44546H3.51166C3.57677 4.50909 3.64189 4.55455 3.72561 4.59091C3.80933 4.62728 3.89305 4.64546 3.98607 4.64546C4.0884 4.64546 4.17212 4.62728 4.25584 4.59091C4.33956 4.55455 4.41398 4.5 4.46979 4.44546C4.53491 4.38182 4.58142 4.30909 4.60933 4.22728C4.64654 4.14546 4.66514 4.05455 4.66514 3.95455V3.94546V3.93637C4.66514 3.83637 4.64654 3.74546 4.60933 3.67273C4.57212 3.59091 4.52561 3.51818 4.46979 3.46364C4.40468 3.4 4.32096 3.35455 4.24654 3.31818C4.16282 3.28182 4.0791 3.26364 3.98607 3.26364C3.88375 3.26364 3.80003 3.28182 3.71631 3.31818C3.63259 3.35455 3.55817 3.40909 3.49305 3.46364C3.43724 3.52728 3.40003 3.6 3.36282 3.68182C3.32561 3.77273 3.307 3.85455 3.307 3.94546C3.307 4.03637 3.32561 4.12728 3.36282 4.20909C3.39072 4.30909 3.43724 4.38182 3.49305 4.44546ZM9.10235 9.06364H9.12096C9.14886 9.03637 9.18607 9.00909 9.23258 8.99091C9.26979 8.97273 9.32561 8.96364 9.37212 8.96364C9.41863 8.96364 9.46514 8.97273 9.50235 8.99091C9.53956 9.00909 9.58607 9.02728 9.62328 9.06364C9.65119 9.1 9.6791 9.14546 9.6977 9.18182C9.71631 9.22728 9.72561 9.26364 9.72561 9.30909C9.72561 9.40909 9.6884 9.49091 9.62328 9.56364C9.55817 9.63637 9.47445 9.66364 9.37212 9.66364C9.26979 9.66364 9.18607 9.62728 9.12096 9.56364C9.05584 9.49091 9.01863 9.40909 9.01863 9.30909C9.01863 9.26364 9.02793 9.21818 9.04654 9.18182C9.06514 9.13637 9.09305 9.1 9.12096 9.06364H9.10235ZM3.99538 3.57273H4.00468C4.06049 3.57273 4.107 3.58182 4.14421 3.6C4.18142 3.61818 4.22793 3.64546 4.26514 3.67273C4.29305 3.7 4.32096 3.74546 4.34886 3.79091C4.36747 3.83637 4.38607 3.88182 4.38607 3.93637C4.38607 4.04546 4.34886 4.13637 4.27445 4.20909C4.20003 4.28182 4.107 4.32728 4.00468 4.32728C3.90235 4.32728 3.81863 4.29091 3.74421 4.21818C3.66979 4.14546 3.63259 4.06364 3.63259 3.96364V3.95455V3.94546C3.63259 3.9 3.64189 3.85455 3.66049 3.80909C3.6791 3.76364 3.707 3.71818 3.73491 3.68182C3.77212 3.65455 3.81863 3.62728 3.85584 3.60909C3.90235 3.58182 3.94886 3.57273 3.99538 3.57273ZM2.94421 3.10909H2.93491C2.907 3.10909 2.8791 3.1 2.85119 3.09091C2.82328 3.08182 2.80468 3.06364 2.78607 3.03637C2.76747 3.01818 2.74886 3 2.73026 2.97273C2.72096 2.94546 2.71166 2.91818 2.71166 2.89091C2.71166 2.86364 2.72096 2.82728 2.73026 2.8C2.73956 2.77273 2.75817 2.74546 2.78607 2.71818V2.72728C2.80468 2.7 2.82328 2.69091 2.85119 2.67273C2.8791 2.66364 2.91631 2.65455 2.94421 2.65455C2.97212 2.65455 3.00003 2.66364 3.02793 2.67273C3.05584 2.68182 3.07445 2.7 3.09305 2.72728C3.11166 2.74546 3.13026 2.76364 3.14886 2.79091C3.15817 2.81818 3.16747 2.84546 3.16747 2.87273V2.88182V2.89091C3.16747 2.95455 3.14886 3 3.10235 3.04546C3.05584 3.09091 3.00003 3.10909 2.94421 3.10909ZM1.72561 2.22728L1.97677 1.91818H1.99538C2.25584 1.66364 2.55352 1.45455 2.8977 1.30909C3.24189 1.16364 3.61398 1.09091 4.00468 1.09091C4.39538 1.09091 4.76747 1.16364 5.11166 1.30909C5.45584 1.45455 5.76282 1.66364 6.01398 1.91818L6.27445 2.22728L10.7396 8.1C10.8605 8.25455 10.9535 8.42728 11.0279 8.61819C11.0931 8.80909 11.1303 9.01818 11.1303 9.22728C11.1303 9.27273 11.1303 9.31818 11.121 9.35455C11.1117 9.39091 11.1117 9.43637 11.1024 9.48182V9.47273C11.0744 9.72728 10.9907 9.95455 10.8605 10.1727C10.7303 10.3818 10.5721 10.5636 10.3675 10.7091C10.2186 10.8273 10.0419 10.9273 9.84654 10.9909C9.65119 11.0545 9.44654 11.0909 9.23258 11.0909C9.01863 11.0909 8.82328 11.0545 8.62793 10.9909C8.44189 10.9273 8.26514 10.8364 8.107 10.7091H8.14421L2.28375 6.24546C1.97677 6.02728 1.73491 5.75455 1.53956 5.42728C1.34421 5.1 1.23259 4.74546 1.17677 4.36364V4.33637C1.16747 4.27273 1.15817 4.20909 1.15817 4.13637C1.14886 4.06364 1.14886 3.99091 1.14886 3.92728C1.14886 3.6 1.20468 3.29091 1.307 3C1.40933 2.70909 1.55817 2.44546 1.74421 2.20909L1.72561 2.22728ZM1.93026 5.54546L2.14421 5.77273V5.80909L2.40468 6.02728L8.29305 10.5182C8.42328 10.6182 8.57212 10.7 8.73956 10.7545C8.907 10.8182 9.08375 10.8455 9.26979 10.8455C9.71631 10.8455 10.0977 10.6909 10.414 10.3727C10.7303 10.0545 10.8884 9.67273 10.8884 9.22728C10.8884 9.04546 10.8605 8.86364 10.7954 8.7C10.7303 8.53637 10.6465 8.37273 10.5442 8.23637L10.5535 8.24546L6.0791 2.38182C5.83724 2.10909 5.54886 1.89091 5.20468 1.73637C4.86979 1.57273 4.507 1.5 4.11631 1.5C3.75352 1.5 3.40933 1.57273 3.09305 1.70909C2.78607 1.84546 2.507 2.03637 2.26514 2.26364C2.02328 2.49091 1.83724 2.77273 1.6977 3.1C1.55817 3.41818 1.49305 3.76364 1.49305 4.12728C1.49305 4.39091 1.53026 4.64546 1.60468 4.89091C1.6791 5.13637 1.79073 5.36364 1.92096 5.57273V5.54546H1.93026Z" fill="black"/>
</mask>
<g mask="url(#mask0)">
<path d="M9.26045 11.1636C9.03719 11.1636 8.83254 11.1273 8.62789 11.0636C8.43254 11 8.24649 10.9 8.07905 10.7727L7.91161 10.6454H7.92091L2.23719 6.29998C1.93022 6.07271 1.66975 5.79089 1.4744 5.45452C1.27905 5.11816 1.15812 4.75453 1.10231 4.36362V4.32725C1.09301 4.27271 1.0837 4.20907 1.0837 4.13634C1.0744 4.07271 1.0744 3.99998 1.0744 3.92725C1.0744 3.59089 1.13022 3.27271 1.24184 2.9818C1.34417 2.69089 1.49301 2.42725 1.67905 2.19089L1.94882 1.85452H1.97673C2.23719 1.59998 2.54417 1.39998 2.87905 1.25452C3.23254 1.09998 3.61394 1.02725 4.02324 1.02725C4.42324 1.02725 4.81394 1.09998 5.16742 1.25452C5.52091 1.40907 5.83719 1.61816 6.09766 1.8818L6.36742 2.19089L10.8325 8.06362C10.9535 8.21816 11.0558 8.39998 11.1302 8.59998C11.2046 8.79998 11.2325 9.01816 11.2325 9.23634C11.2325 9.2818 11.2325 9.32725 11.2232 9.37271C11.2232 9.41816 11.2139 9.46362 11.2046 9.50907C11.1674 9.76362 11.093 9.99998 10.9535 10.2182C10.8232 10.4363 10.6465 10.6273 10.4418 10.7727C10.2837 10.9 10.107 10.9909 9.90231 11.0636C9.69766 11.1273 9.4837 11.1636 9.26045 11.1636ZM8.31161 10.7454C8.43254 10.8182 8.55347 10.8818 8.6837 10.9273C9.04649 11.0545 9.4744 11.0545 9.84649 10.9273C10.0325 10.8636 10.2 10.7727 10.3395 10.6636C10.5349 10.5273 10.693 10.3545 10.8139 10.1454C10.9349 9.94543 11.0186 9.71816 11.0465 9.4818C11.0558 9.43634 11.0558 9.39998 11.0651 9.36362C11.0651 9.32725 11.0744 9.2818 11.0744 9.23634C11.0744 9.03634 11.0372 8.83634 10.9721 8.65452C10.907 8.47271 10.8139 8.29998 10.7023 8.15452L6.22789 2.27271L5.96742 1.96362C5.72556 1.71816 5.42789 1.51816 5.09301 1.37271C4.75812 1.22725 4.39533 1.15452 4.01394 1.15452C3.63254 1.15452 3.26975 1.22725 2.93487 1.37271C2.59998 1.51816 2.30231 1.71816 2.05115 1.96362L2.03254 1.99998H2.01394L1.79998 2.26362C1.62324 2.49089 1.4837 2.75452 1.38138 3.02725C1.27905 3.30907 1.22324 3.60907 1.22324 3.92725C1.22324 3.99089 1.22324 4.06362 1.23254 4.12725C1.24184 4.19998 1.25115 4.26362 1.25115 4.32725V4.35453C1.30696 4.71816 1.41859 5.07271 1.60463 5.3818C1.79068 5.69998 2.03254 5.96362 2.32091 6.1818L8.31161 10.7454ZM9.27905 10.9273C9.09301 10.9273 8.89766 10.8909 8.72091 10.8273C8.54417 10.7636 8.38603 10.6818 8.24649 10.5727L2.35812 6.0818L2.06975 5.84543V5.80907L2.00463 5.73634V5.81816L1.8651 5.59998C1.72556 5.3818 1.61394 5.14543 1.53952 4.89998C1.4651 4.65453 1.41859 4.39089 1.41859 4.11816C1.41859 3.74543 1.49301 3.39089 1.63254 3.06362C1.77208 2.73634 1.96743 2.44543 2.20929 2.20907C2.45115 1.97271 2.73952 1.77271 3.0558 1.63634C3.38138 1.49998 3.73487 1.42725 4.10696 1.42725C4.50696 1.42725 4.87905 1.50907 5.22324 1.67271C5.56742 1.83634 5.8744 2.06362 6.11626 2.33634L10.6093 8.20907C10.7116 8.34543 10.7953 8.50907 10.8604 8.6818C10.9256 8.86362 10.9535 9.04543 10.9535 9.23634C10.9535 9.69998 10.786 10.1091 10.4604 10.4363C10.1442 10.7545 9.74417 10.9273 9.27905 10.9273ZM2.21859 5.7818L2.45115 5.97271L8.33952 10.4636C8.46045 10.5545 8.60928 10.6363 8.76742 10.6909C8.92556 10.7454 9.10231 10.7818 9.26975 10.7818C9.69766 10.7818 10.0604 10.6273 10.3581 10.3273C10.6558 10.0273 10.8139 9.65452 10.8139 9.23634C10.8139 9.06362 10.786 8.89089 10.7302 8.72725C10.6744 8.56362 10.5907 8.41816 10.4884 8.2818L6.01394 2.42725C5.78138 2.16362 5.49301 1.95452 5.16742 1.79998C4.84184 1.64543 4.48836 1.56362 4.11626 1.56362C4.07905 1.56362 4.03254 1.56362 3.99533 1.56362C4.33022 1.56362 4.64649 1.62725 4.93487 1.75452C5.22324 1.8818 5.4744 2.05452 5.68835 2.27271L5.82789 2.43634H5.83719L5.92091 2.49998L10.386 8.39089C10.4697 8.49998 10.5442 8.62725 10.6 8.77271C10.6558 8.91816 10.6744 9.07271 10.6744 9.22725C10.6744 9.41816 10.6372 9.59998 10.5628 9.77271C10.4884 9.93634 10.386 10.0909 10.2651 10.2182L10.1814 10.3C10.0604 10.4091 9.92091 10.4909 9.76277 10.5454C9.4744 10.6545 9.11161 10.6636 8.81394 10.5545C8.6744 10.5 8.54417 10.4273 8.43254 10.3454L2.57208 5.87271L2.50696 5.81816L2.32091 5.64543C2.10696 5.43634 1.93952 5.1818 1.80929 4.89089C1.67905 4.59998 1.61394 4.29089 1.61394 3.96362C1.61394 3.64543 1.67905 3.33634 1.79998 3.04543C1.81859 2.99998 1.83719 2.96362 1.8558 2.91816C1.81859 2.9818 1.79068 3.04543 1.76277 3.10907C1.63254 3.41816 1.56743 3.75453 1.56743 4.10907C1.56743 4.36362 1.60463 4.61816 1.67905 4.85453C1.74417 5.07271 1.84649 5.2818 1.96743 5.4818L2.21859 5.74543V5.7818ZM2.45115 2.35452V2.37271L2.43254 2.39089C2.22789 2.59089 2.06045 2.82725 1.94882 3.09998C1.82789 3.37271 1.77208 3.66362 1.77208 3.96362C1.77208 4.27271 1.83719 4.56362 1.95812 4.83634C2.07905 5.10907 2.23719 5.34543 2.44184 5.54543L2.61859 5.71816L2.6744 5.76362L8.53487 10.2363C8.63719 10.3182 8.74882 10.3818 8.87905 10.4273C9.14882 10.5273 9.4651 10.5182 9.72556 10.4182C9.8651 10.3727 9.98603 10.3 10.0884 10.2L10.1628 10.1273C10.2744 10.0091 10.3674 9.8818 10.4325 9.72725C10.4977 9.5818 10.5256 9.41816 10.5256 9.24543C10.5256 9.09998 10.4977 8.96362 10.4511 8.83634C10.4046 8.70907 10.3395 8.59089 10.2651 8.49089L5.80929 2.59089L5.79068 2.5818H5.76277L5.57673 2.37271C5.38138 2.17271 5.14882 2.00907 4.86975 1.89089C4.59998 1.77271 4.31161 1.71816 4.00463 1.71816C3.69766 1.71816 3.40929 1.7818 3.13952 1.89998C2.87905 2.00907 2.64649 2.16362 2.45115 2.35452ZM9.38138 10.3182C9.24184 10.3182 9.11161 10.2909 8.99068 10.2454C8.86975 10.2 8.76742 10.1273 8.6744 10.0363C8.58138 9.94543 8.51626 9.84543 8.46045 9.72725C8.40463 9.60907 8.37673 9.4818 8.37673 9.33634C8.37673 9.06362 8.46975 8.81816 8.6651 8.62725C8.86045 8.43634 9.09301 8.33634 9.37208 8.33634C9.51161 8.33634 9.64184 8.36362 9.76277 8.41816C9.8837 8.47271 9.98603 8.54543 10.0791 8.63634C10.1721 8.72725 10.2372 8.83634 10.293 8.95452C10.3395 9.07271 10.3674 9.19998 10.3674 9.32725V9.35452C10.3674 9.4818 10.3395 9.60907 10.293 9.72725C10.2465 9.84543 10.1721 9.95452 10.0791 10.0454C9.98603 10.1363 9.8837 10.2091 9.75347 10.2545C9.64184 10.2909 9.51161 10.3182 9.38138 10.3182ZM8.78603 9.93634C8.86045 10.0091 8.95347 10.0727 9.0558 10.1182C9.25115 10.2 9.49301 10.2 9.70696 10.1182C9.80929 10.0727 9.90231 10.0182 9.97673 9.93634C10.0511 9.86362 10.1163 9.77271 10.1535 9.67271C10.1907 9.57271 10.2186 9.46362 10.2186 9.35452V9.32725C10.2186 9.21816 10.2 9.10907 10.1535 9.00907C10.1163 8.90907 10.0511 8.81816 9.97673 8.74543C9.90231 8.67271 9.80929 8.60907 9.70696 8.56362C9.60463 8.51816 9.49301 8.49998 9.38138 8.49998C9.13952 8.49998 8.94417 8.5818 8.77673 8.74543C8.60929 8.90907 8.52556 9.10907 8.52556 9.35452C8.52556 9.47271 8.54417 9.5818 8.59068 9.6818C8.64649 9.76362 8.70231 9.85453 8.78603 9.93634ZM8.46975 10.0454L3.32556 6.16362H3.66045C3.70696 6.17271 3.76277 6.17271 3.81859 6.1818C3.92091 6.19089 4.03254 6.19089 4.15347 6.1818C4.20929 6.1818 4.2558 6.17271 4.30231 6.16362H4.32091C4.60929 6.11816 4.88836 6.01816 5.13952 5.86362C5.39068 5.70907 5.60463 5.51816 5.77208 5.29089C5.91161 5.10907 6.02324 4.89998 6.09766 4.67271C6.17208 4.44543 6.20928 4.19998 6.20928 3.95452C6.20928 3.89998 6.20928 3.83634 6.19998 3.79089C6.19998 3.73634 6.19068 3.69089 6.18138 3.63634V3.62725V3.29089L10.107 8.41816L9.77208 8.29089C9.70696 8.27271 9.64184 8.25452 9.57673 8.24543C9.44649 8.22725 9.29766 8.22725 9.15812 8.24543C9.11161 8.25452 9.0651 8.26362 9.01859 8.27271V8.2818L8.98138 8.30907C8.85115 8.35453 8.73022 8.43634 8.62789 8.53634C8.52556 8.63634 8.44184 8.75452 8.37673 8.8818C8.34882 8.94543 8.33022 9.02725 8.31161 9.10907C8.29301 9.19089 8.2837 9.26362 8.2837 9.34543C8.2837 9.41816 8.29301 9.4818 8.30231 9.55452C8.31161 9.61816 8.33021 9.6818 8.34882 9.73634L8.46975 10.0454ZM3.78138 6.31816L8.16277 9.63634C8.15347 9.60907 8.15347 9.59089 8.14417 9.56362C8.13487 9.49089 8.12556 9.41816 8.12556 9.33634C8.12556 9.24543 8.13487 9.15452 8.15347 9.07271C8.17208 8.9818 8.19998 8.89998 8.22789 8.81816C8.30231 8.67271 8.39533 8.53634 8.51626 8.42725C8.61859 8.32725 8.73952 8.24543 8.87905 8.19089V8.1818L8.92556 8.16362C8.99068 8.13634 9.0651 8.11816 9.13952 8.10907C9.28835 8.0818 9.4558 8.0818 9.60463 8.10907C9.63254 8.11816 9.66045 8.11816 9.68835 8.12725L6.34882 3.74543C6.34882 3.75453 6.34882 3.76362 6.34882 3.77271C6.34882 3.82725 6.35812 3.8818 6.35812 3.94543C6.35812 4.20907 6.32091 4.46362 6.23719 4.70907C6.15347 4.95452 6.04184 5.17271 5.89301 5.36362C5.71626 5.60907 5.4837 5.80907 5.21394 5.97271C4.94417 6.13634 4.64649 6.24543 4.33952 6.29089H4.32091C4.2744 6.29998 4.21859 6.29998 4.16277 6.30907C4.03254 6.31816 3.92091 6.31816 3.80929 6.30907C3.79998 6.31816 3.79068 6.31816 3.78138 6.31816ZM9.38138 9.73634C9.26045 9.73634 9.15812 9.69089 9.0744 9.60907C8.99068 9.52725 8.95347 9.42725 8.95347 9.30907C8.95347 9.25453 8.96277 9.19998 8.99068 9.14543C9.00928 9.09998 9.03719 9.05452 9.0744 9.00907L9.11161 9.03634L9.0744 9.00907C9.11161 8.97271 9.15812 8.94543 9.21394 8.92725C9.30696 8.89089 9.43719 8.89089 9.53952 8.92725C9.58603 8.94543 9.63254 8.97271 9.67905 9.00907L9.68835 9.01816C9.72556 9.06362 9.75347 9.10907 9.77208 9.15452C9.79068 9.20907 9.80929 9.26362 9.80929 9.31816C9.80929 9.43634 9.77208 9.53634 9.68835 9.61816C9.60463 9.69998 9.50231 9.73634 9.38138 9.73634ZM9.18603 9.10907C9.15812 9.14543 9.13952 9.17271 9.12091 9.20907C9.10231 9.24543 9.10231 9.27271 9.10231 9.30907C9.10231 9.39089 9.13021 9.45452 9.18603 9.50907C9.24184 9.56362 9.30696 9.59089 9.38138 9.59089C9.4558 9.59089 9.52091 9.56362 9.57673 9.50907C9.63254 9.45452 9.66045 9.39089 9.66045 9.30907C9.66045 9.27271 9.65114 9.23634 9.64184 9.20907C9.62324 9.17271 9.60463 9.14543 9.58603 9.10907C9.55812 9.09089 9.52091 9.07271 9.49301 9.05452C9.41859 9.02725 9.33487 9.03634 9.26975 9.05452C9.23254 9.07271 9.20463 9.09089 9.18603 9.10907ZM4.00463 6.06362C3.71626 6.06362 3.43719 6.00907 3.18603 5.89998C2.93487 5.79089 2.70231 5.63634 2.50696 5.45452C2.32091 5.26362 2.16277 5.02725 2.05115 4.77271C1.93952 4.51816 1.8837 4.23634 1.8837 3.94543C1.8837 3.35453 2.08836 2.85452 2.50696 2.43634C2.91626 2.02725 3.42789 1.81816 4.01394 1.81816C4.59998 1.81816 5.11161 2.02725 5.52091 2.43634C5.93022 2.84543 6.14417 3.35453 6.14417 3.94543C6.14417 4.23634 6.08836 4.50907 5.97673 4.77271C5.8651 5.02725 5.70696 5.26362 5.52091 5.45452C5.32556 5.64543 5.09301 5.79089 4.84184 5.90907C4.57208 6.00907 4.29301 6.06362 4.00463 6.06362ZM2.60929 5.35453C2.79533 5.52725 2.99998 5.67271 3.24184 5.77271C3.4744 5.87271 3.73487 5.92725 4.00463 5.92725C4.2744 5.92725 4.52556 5.87271 4.76742 5.77271C5.00929 5.67271 5.21394 5.52725 5.39998 5.35453C5.57673 5.17271 5.71626 4.95453 5.81859 4.71816C5.92091 4.4818 5.97673 4.21816 5.97673 3.94543C5.97673 3.39998 5.78138 2.92725 5.39998 2.54543C5.01859 2.16362 4.54417 1.97271 4.00463 1.97271C3.4558 1.97271 2.99068 2.16362 2.60929 2.54543C2.22789 2.92725 2.03254 3.39998 2.03254 3.94543C2.03254 4.21816 2.08836 4.47271 2.19068 4.71816C2.29301 4.95453 2.43254 5.16362 2.60929 5.35453ZM3.99533 5.74543C3.91161 5.74543 3.84649 5.71816 3.79068 5.66362C3.73487 5.60907 3.70696 5.53634 3.70696 5.45452V5.44543C3.70696 5.36362 3.73487 5.29998 3.79068 5.23634C3.84649 5.1818 3.92091 5.15453 3.99533 5.15453H4.01394C4.09766 5.15453 4.16277 5.1818 4.21859 5.23634C4.2744 5.29089 4.30231 5.36362 4.30231 5.44543C4.30231 5.52725 4.2744 5.59998 4.20929 5.65453C4.15347 5.71816 4.07905 5.74543 3.99533 5.74543ZM3.99533 5.29998C3.95812 5.29998 3.92091 5.30907 3.89301 5.33634C3.8651 5.36362 3.8558 5.39998 3.8558 5.43634V5.45452C3.8558 5.49998 3.8651 5.52725 3.89301 5.55452C3.92091 5.5818 3.94882 5.59089 3.99533 5.59089C4.04184 5.59089 4.07905 5.57271 4.11626 5.54543C4.14417 5.50907 4.16277 5.4818 4.16277 5.43634C4.16277 5.39089 4.15347 5.36362 4.12556 5.33634C4.09766 5.30907 4.06975 5.29998 4.02324 5.29998H3.99533ZM2.93487 5.31816C2.88836 5.31816 2.85115 5.30907 2.81394 5.2818C2.78603 5.26362 2.75812 5.23634 2.73022 5.20907C2.70231 5.19089 2.6837 5.15453 2.6651 5.12725C2.64649 5.09089 2.64649 5.05453 2.64649 5.01816C2.64649 4.9818 2.6558 4.93634 2.6651 4.90907C2.6837 4.87271 2.70231 4.84543 2.73022 4.82725C2.74882 4.79998 2.78603 4.77271 2.81394 4.76362C2.85115 4.74543 2.88836 4.73634 2.92556 4.73634H2.93487C2.97208 4.73634 3.01859 4.74543 3.04649 4.76362C3.0837 4.7818 3.11161 4.79998 3.13022 4.82725C3.15812 4.84543 3.17673 4.8818 3.19533 4.90907C3.21394 4.94543 3.21394 4.9818 3.21394 5.01816C3.21394 5.05453 3.22324 5.09089 3.21394 5.12725C3.19533 5.16362 3.17673 5.19089 3.14882 5.20907C3.13022 5.23634 3.10231 5.26362 3.0651 5.2818C3.02789 5.29998 2.98138 5.31816 2.93487 5.31816ZM2.93487 4.87271C2.90696 4.87271 2.88836 4.87271 2.86975 4.8818C2.86045 4.89089 2.85115 4.89089 2.84184 4.90907V4.91816L2.83254 4.92725C2.82324 4.93634 2.81394 4.94543 2.80463 4.95452C2.79533 4.97271 2.79533 4.99089 2.79533 5.00907C2.79533 5.02725 2.79533 5.04543 2.80463 5.06362C2.81394 5.0818 2.81394 5.09089 2.83254 5.09089L2.84184 5.09998L2.85115 5.10907C2.86045 5.11816 2.86975 5.13634 2.88836 5.14543C2.92556 5.16362 2.97208 5.16362 2.99998 5.14543C3.01859 5.13634 3.02789 5.12725 3.03719 5.10907L3.04649 5.09998L3.0558 5.09089C3.0651 5.0818 3.0744 5.07271 3.0837 5.06362C3.09301 5.04543 3.09301 5.02725 3.09301 5.00907C3.09301 4.99089 3.09301 4.97271 3.0837 4.95452C3.0744 4.93634 3.0744 4.92725 3.0558 4.92725L3.04649 4.91816L3.02789 4.90907C3.01859 4.89998 3.00929 4.89089 2.99998 4.8818C2.98138 4.87271 2.96277 4.87271 2.93487 4.87271ZM5.0744 5.29998H5.0558C4.98138 5.29089 4.91626 5.26362 4.86045 5.20907C4.80463 5.15453 4.77673 5.09089 4.77673 5.00907C4.77673 4.92725 4.80463 4.86362 4.86045 4.79998C4.91626 4.74543 4.99068 4.71816 5.0651 4.71816H5.0744C5.12091 4.71816 5.15812 4.72725 5.19533 4.74543C5.22324 4.76362 5.25115 4.7818 5.26975 4.80907C5.29766 4.82725 5.31626 4.85453 5.33487 4.89089C5.35347 4.92725 5.36277 4.97271 5.36277 5.00907C5.36277 5.05452 5.35347 5.09089 5.33487 5.12725C5.31626 5.15453 5.29766 5.1818 5.26975 5.20907C5.25115 5.23634 5.22324 5.25453 5.19533 5.27271C5.15812 5.29089 5.11161 5.29998 5.0744 5.29998ZM5.0651 5.15453C5.09301 5.15453 5.10231 5.15452 5.12091 5.14543C5.13022 5.13634 5.13952 5.12725 5.14882 5.11816L5.15812 5.10907L5.16742 5.09998C5.17673 5.09089 5.19533 5.0818 5.20463 5.06362C5.21394 5.04543 5.21394 5.02725 5.21394 5.00907C5.21394 4.99089 5.21394 4.97271 5.20463 4.96362C5.19533 4.94543 5.18603 4.93634 5.16742 4.92725L5.15812 4.91816L5.14882 4.90907C5.13952 4.89998 5.13022 4.89089 5.12091 4.8818C5.11161 4.87271 5.09301 4.87271 5.0744 4.87271H5.0651C5.02789 4.87271 4.99068 4.8818 4.96277 4.90907C4.93487 4.93634 4.92556 4.97271 4.92556 5.00907C4.92556 5.04543 4.93487 5.0818 4.96277 5.09998C4.99068 5.13634 5.02789 5.15453 5.0651 5.15453ZM3.99533 5.00907C3.71626 4.99998 3.4744 4.89998 3.27905 4.69998C3.0837 4.50907 2.98138 4.26362 2.97208 3.9818V3.97271C2.97208 3.83634 2.99998 3.69998 3.04649 3.5818C3.09301 3.46362 3.16743 3.34543 3.25115 3.25452L3.26975 3.22725H3.29766C3.38138 3.14543 3.4837 3.0818 3.60463 3.03634C3.8558 2.92725 4.15347 2.92725 4.40463 3.03634C4.53487 3.09089 4.63719 3.16362 4.73022 3.25452C4.82324 3.34543 4.90696 3.45453 4.95347 3.5818C5.00929 3.70907 5.03719 3.84543 5.03719 3.9818C5.03719 4.26362 4.93487 4.50907 4.73022 4.71816C4.52556 4.89998 4.2744 5.00907 3.99533 5.00907ZM3.12091 3.97271C3.13022 4.21816 3.21394 4.42725 3.38138 4.59998C3.54882 4.77271 3.75347 4.85453 3.99533 4.86362C4.23719 4.86362 4.44184 4.7818 4.61859 4.59998C4.79533 4.41816 4.87905 4.21816 4.87905 3.96362C4.87905 3.84543 4.86045 3.72725 4.81394 3.61816C4.76742 3.50907 4.70231 3.41816 4.61859 3.34543C4.54417 3.26362 4.45115 3.20907 4.33952 3.16362C4.12556 3.07271 3.8744 3.07271 3.66045 3.16362C3.54882 3.20907 3.4558 3.27271 3.38138 3.34543L3.36277 3.36362H3.34417C3.27905 3.44543 3.22324 3.52725 3.18603 3.62725C3.13952 3.72725 3.12091 3.84543 3.12091 3.96362L3.04649 3.97271H3.12091ZM3.99533 4.71816C3.89301 4.71816 3.79068 4.69998 3.69766 4.65453C3.61394 4.61816 3.54882 4.57271 3.4837 4.50907H3.4558L3.43719 4.4818C3.38138 4.41816 3.33487 4.33634 3.29766 4.23634C3.26045 4.14543 3.24184 4.04543 3.24184 3.94543C3.24184 3.84543 3.26045 3.74543 3.29766 3.65453C3.33487 3.56362 3.38138 3.4818 3.43719 3.40907L3.44649 3.39998C3.52091 3.33634 3.60463 3.2818 3.68835 3.23634C3.8651 3.15452 4.09766 3.14543 4.2837 3.23634C4.37673 3.2818 4.46045 3.32725 4.52556 3.39998C4.59998 3.47271 4.64649 3.54543 4.6837 3.63634C4.72091 3.72725 4.73952 3.82725 4.73952 3.93634V3.94543C4.73952 4.05453 4.72091 4.15453 4.6837 4.24543C4.64649 4.33634 4.59068 4.41816 4.52556 4.4818C4.46045 4.54543 4.37673 4.59998 4.2837 4.64543C4.19998 4.69998 4.09766 4.71816 3.99533 4.71816ZM3.53022 4.37271H3.54882L3.56742 4.39089C3.62324 4.44543 3.68836 4.49089 3.76277 4.52725C3.91161 4.59998 4.09766 4.59089 4.23719 4.52725C4.31161 4.49089 4.37673 4.44543 4.43254 4.39089C4.48835 4.33634 4.52556 4.27271 4.56277 4.19998C4.59068 4.12725 4.60929 4.04543 4.60929 3.95452V3.94543C4.60929 3.85453 4.59068 3.77271 4.56277 3.70907C4.53487 3.63634 4.48835 3.57271 4.43254 3.51816C4.37673 3.46362 4.30231 3.41816 4.22789 3.3818C4.06975 3.30907 3.89301 3.31816 3.75347 3.3818C3.67905 3.41816 3.61394 3.46362 3.54882 3.51816C3.50231 3.57271 3.4651 3.63634 3.43719 3.71816C3.40929 3.79998 3.39068 3.8818 3.39068 3.96362C3.39068 4.04543 3.40929 4.12725 3.43719 4.20907C3.4558 4.26362 3.4837 4.31816 3.53022 4.37271ZM3.99533 4.39998C3.8744 4.39998 3.77208 4.35453 3.68835 4.27271C3.60463 4.19089 3.55812 4.0818 3.55812 3.96362V3.93634C3.55812 3.8818 3.56742 3.82725 3.59533 3.77271C3.61394 3.71816 3.64184 3.67271 3.67905 3.62725L3.68835 3.61816C3.73487 3.5818 3.78138 3.55453 3.82789 3.53634C3.8837 3.50907 3.93952 3.49998 3.99533 3.49998H4.00463C4.06975 3.49998 4.13487 3.50907 4.18138 3.53634C4.22789 3.55453 4.2744 3.5818 4.32091 3.61816C4.36742 3.66362 4.39533 3.69998 4.42324 3.75452C4.45115 3.80907 4.46045 3.87271 4.46045 3.93634C4.46045 4.06362 4.41394 4.17271 4.32091 4.26362C4.22789 4.35453 4.11626 4.39998 3.99533 4.39998ZM3.78138 3.72725C3.75347 3.75453 3.73487 3.79089 3.72556 3.82725C3.70696 3.86362 3.70696 3.89998 3.70696 3.93634V3.96362C3.70696 4.04543 3.73487 4.10907 3.79068 4.17271C3.84649 4.22725 3.91161 4.26362 3.99533 4.26362C4.07905 4.26362 4.15347 4.23634 4.21859 4.17271C4.2837 4.10907 4.31161 4.03634 4.31161 3.94543C4.31161 3.89998 4.30231 3.86362 4.2837 3.82725C4.2651 3.79089 4.24649 3.75452 4.21859 3.73634C4.19068 3.71816 4.15347 3.69089 4.11626 3.6818C4.08836 3.66362 4.05115 3.66362 4.00463 3.66362H3.99533C3.95812 3.66362 3.92091 3.67271 3.8837 3.6818C3.84649 3.69089 3.80929 3.70907 3.78138 3.72725ZM5.49301 4.25452C5.40929 4.25452 5.34417 4.22725 5.28835 4.17271C5.23254 4.11816 5.20463 4.04543 5.20463 3.96362V3.93634C5.20463 3.85453 5.23254 3.79089 5.28835 3.72725C5.34417 3.67271 5.41859 3.64543 5.49301 3.64543H5.50231C5.58603 3.64543 5.66045 3.67271 5.71626 3.72725C5.77208 3.7818 5.79998 3.85453 5.79998 3.93634C5.79998 4.02725 5.77208 4.09998 5.70696 4.15453C5.65115 4.22725 5.57673 4.25452 5.49301 4.25452ZM5.49301 3.79998C5.4558 3.79998 5.41859 3.80907 5.39068 3.83634C5.36277 3.86362 5.35347 3.89998 5.35347 3.93634V3.96362C5.35347 4.00907 5.36277 4.03634 5.39068 4.06362C5.44649 4.11816 5.53022 4.11816 5.59533 4.05452C5.62324 4.02725 5.64184 3.9818 5.64184 3.93634C5.64184 3.89089 5.63254 3.86362 5.60463 3.83634C5.57673 3.80907 5.54882 3.79998 5.50231 3.79998H5.49301ZM2.49766 4.25452C2.41394 4.25452 2.34882 4.22725 2.29301 4.17271C2.23719 4.11816 2.20929 4.04543 2.20929 3.96362V3.93634C2.20929 3.85453 2.23719 3.79089 2.29301 3.72725C2.34882 3.67271 2.42324 3.64543 2.49766 3.64543H2.50696C2.59068 3.64543 2.6558 3.67271 2.71161 3.72725C2.76743 3.7818 2.79533 3.85453 2.79533 3.93634C2.79533 4.02725 2.76742 4.09998 2.70231 4.15453C2.6558 4.22725 2.58138 4.25452 2.49766 4.25452ZM2.49766 3.79998C2.46045 3.79998 2.42324 3.80907 2.39533 3.83634C2.36743 3.86362 2.35812 3.89998 2.35812 3.93634V3.96362C2.35812 4.00907 2.36743 4.03634 2.39533 4.06362C2.45115 4.11816 2.53487 4.11816 2.59998 4.05452C2.62789 4.02725 2.64649 3.9818 2.64649 3.93634C2.64649 3.89089 2.63719 3.86362 2.60929 3.83634C2.58138 3.80907 2.55347 3.79998 2.50696 3.79998H2.49766ZM5.0651 3.1818C5.02789 3.1818 4.98138 3.17271 4.95347 3.15453C4.91626 3.13634 4.88836 3.11816 4.86975 3.09089C4.84184 3.07271 4.82324 3.04543 4.80463 3.01816C4.78603 2.9818 4.77673 2.94543 4.77673 2.90907V2.8818C4.77673 2.79998 4.80463 2.73634 4.86045 2.67271C4.91626 2.61816 4.99068 2.59089 5.0651 2.59089C5.10231 2.59089 5.14882 2.59998 5.17673 2.61816C5.21394 2.63634 5.24184 2.65452 5.26045 2.67271L5.27905 2.69089V2.69998C5.29766 2.71816 5.31626 2.74543 5.32556 2.76362C5.34417 2.79998 5.34417 2.83634 5.34417 2.87271V2.89998C5.34417 2.94543 5.33487 2.9818 5.31626 3.00907C5.29766 3.03634 5.27905 3.06362 5.25115 3.0818C5.23254 3.10907 5.19533 3.13634 5.16742 3.14543C5.13952 3.17271 5.10231 3.1818 5.0651 3.1818ZM5.0651 2.73634C5.02789 2.73634 4.99068 2.74543 4.96277 2.77271C4.93487 2.79998 4.92556 2.83634 4.92556 2.87271V2.89998C4.92556 2.91816 4.92556 2.93634 4.93487 2.94543C4.94417 2.95452 4.95347 2.96362 4.96277 2.97271L4.97208 2.9818L4.98138 2.99089C4.99068 2.99998 4.99998 3.00907 5.00929 3.01816C5.04649 3.03634 5.0837 3.03634 5.12091 3.01816C5.13022 3.00907 5.13952 3.00907 5.14882 2.99089L5.15812 2.9818L5.16742 2.97271C5.17673 2.96362 5.18603 2.95452 5.19533 2.94543C5.20463 2.93634 5.20463 2.91816 5.20463 2.89998V2.87271C5.20463 2.85452 5.20463 2.83634 5.19533 2.81816C5.18603 2.80907 5.18603 2.79089 5.16742 2.79089L5.13952 2.77271V2.75452C5.13022 2.75452 5.13022 2.74543 5.12091 2.74543C5.10231 2.73634 5.0837 2.73634 5.0651 2.73634ZM2.94417 3.1818C2.88836 3.1818 2.85115 3.17271 2.81394 3.15453C2.77673 3.13634 2.74882 3.11816 2.73022 3.09089C2.70231 3.07271 2.6837 3.03634 2.6651 3.00907C2.64649 2.97271 2.64649 2.93634 2.64649 2.89998C2.64649 2.86362 2.6558 2.81816 2.6651 2.7818C2.6837 2.74543 2.70231 2.70907 2.73022 2.67271L2.86045 2.54543V2.60907C2.92556 2.59089 2.99998 2.59089 3.0651 2.61816C3.10231 2.63634 3.13022 2.65453 3.14882 2.6818C3.17673 2.69998 3.19533 2.73634 3.21394 2.76362C3.23254 2.79998 3.23254 2.83634 3.23254 2.87271V2.8818C3.23254 2.96362 3.20463 3.02725 3.14882 3.09089C3.09301 3.15453 3.02789 3.1818 2.94417 3.1818ZM2.79533 2.84543C2.79533 2.86362 2.78603 2.87271 2.78603 2.89089C2.78603 2.90907 2.78603 2.92725 2.79533 2.94543C2.80463 2.96362 2.80463 2.97271 2.82324 2.97271L2.83254 2.9818L2.84184 2.99089C2.85115 2.99998 2.86045 3.00907 2.86975 3.01816C2.88836 3.02725 2.90696 3.02725 2.92556 3.02725H2.93487C2.97208 3.02725 3.00929 3.01816 3.03719 2.99089C3.0651 2.96362 3.0744 2.92725 3.0744 2.89089V2.8818C3.0744 2.86362 3.0744 2.84543 3.0651 2.82725C3.0558 2.80907 3.0558 2.79998 3.03719 2.79998L3.02789 2.79089V2.77271C3.01859 2.76362 3.00929 2.75453 2.99998 2.74543C2.96277 2.72725 2.92556 2.72725 2.87905 2.74543C2.86045 2.75453 2.85115 2.75453 2.84184 2.77271L2.79533 2.84543ZM3.99533 2.74543C3.91161 2.74543 3.84649 2.71816 3.79068 2.66362C3.73487 2.60907 3.70696 2.53634 3.70696 2.45452V2.44543C3.70696 2.36362 3.73487 2.29998 3.79068 2.23634C3.84649 2.1818 3.92091 2.15453 3.99533 2.15453H4.01394C4.09766 2.15453 4.16277 2.1818 4.21859 2.23634C4.2744 2.29089 4.30231 2.36362 4.30231 2.44543C4.30231 2.52725 4.2744 2.59998 4.20929 2.65453C4.15347 2.71816 4.07905 2.74543 3.99533 2.74543ZM3.99533 2.29998C3.95812 2.29998 3.92091 2.30907 3.89301 2.33634C3.8651 2.36362 3.8558 2.39998 3.8558 2.43634V2.44543C3.8558 2.49089 3.8651 2.51816 3.89301 2.54543C3.92091 2.57271 3.94882 2.5818 3.99533 2.5818C4.04184 2.5818 4.07905 2.56362 4.11626 2.53634C4.14417 2.49998 4.16277 2.47271 4.16277 2.42725C4.16277 2.3818 4.15347 2.35452 4.12556 2.32725C4.09766 2.29998 4.06975 2.29089 4.02324 2.29089H3.99533V2.29998Z" fill="#2D3E50"/>
</g>
</svg>
