<svg width="16" height="16" viewBox="0 0 16 16" fill="none" xmlns="http://www.w3.org/2000/svg">
<path d="M12.9089 15.3929C12.591 15.2848 12.2504 15.2193 11.961 15.0586C11.5497 14.8296 11.1735 14.536 10.7886 14.2612C9.44166 13.2995 8.08068 12.3587 6.75981 11.3638C5.21595 10.2009 3.69385 9.00942 2.19349 7.78942C1.35541 7.1028 0.882492 6.16235 0.693625 5.08902C0.68682 5.06091 0.677813 5.03339 0.666687 5.0067V4.28835C0.678154 4.26195 0.686977 4.23448 0.693027 4.20634C0.812752 3.15874 1.25424 2.27637 2.06448 1.59004C2.51345 1.21021 2.99056 0.881564 3.5829 0.769022C3.79691 0.728315 4.01331 0.700479 4.22852 0.666656H5.00673C5.23421 0.716043 5.46438 0.756451 5.68917 0.816313C6.5491 1.04529 7.24081 1.52958 7.77419 2.23536C10.1288 5.35241 12.4812 8.47106 14.8314 11.5913C15.0847 11.9267 15.2494 12.3206 15.3103 12.7365C15.3158 12.7549 15.3236 12.7726 15.3334 12.7892V13.4476C15.321 13.4786 15.3104 13.5101 15.3016 13.5422C15.122 14.3405 14.6967 14.9397 13.9125 15.2372C13.7162 15.3118 13.5034 15.3423 13.298 15.3932L12.9089 15.3929ZM13.5734 11.2357L8.4213 4.48769C8.42909 5.60503 8.07649 6.56852 7.29499 7.35332C6.51348 8.13812 5.55897 8.50658 4.40541 8.47874L11.1768 13.6084C11.087 12.8963 11.2522 12.2953 11.7353 11.7954C12.2304 11.2833 12.8377 11.1289 13.5734 11.2357ZM4.54848 1.54365C2.88969 1.55682 1.43083 3.0046 1.535 4.80557C1.62928 6.4494 2.99385 7.84599 4.79392 7.7571C6.57065 7.6694 7.8107 6.13901 7.73647 4.47093C7.66673 2.93276 6.33629 1.48049 4.54848 1.54365ZM11.8469 13.1932C11.8317 13.9062 12.4088 14.5015 13.1298 14.5159C13.8712 14.5306 14.4468 13.9753 14.46 13.2333C14.4663 12.8852 14.3341 12.5488 14.0925 12.2981C13.8509 12.0473 13.5196 11.9028 13.1714 11.8963C12.4444 11.8867 11.8628 12.456 11.8469 13.1932Z" fill="#2D3E50"/>
<path d="M6.29888 4.68374C6.30666 5.60233 5.55718 6.37037 4.64517 6.37845C3.73885 6.38654 2.97441 5.62418 2.96902 4.70529C2.96423 3.71756 3.66343 3.06625 4.60926 3.03991C5.54371 3.01447 6.2914 3.75707 6.29888 4.68374ZM5.5479 4.66339C5.5494 4.1345 5.14204 3.72025 4.61794 3.71756C4.08366 3.71486 3.69396 4.12163 3.68288 4.66967C3.67091 5.24795 4.16388 5.62089 4.62033 5.62538C5.13994 5.63047 5.54581 5.20634 5.5479 4.66339Z" fill="#2D3E50"/>
<path d="M7.00703 4.16353C7.29916 4.16353 7.51287 4.37065 7.51197 4.6547C7.51197 4.94593 7.2782 5.18568 6.99745 5.18389C6.71669 5.18209 6.50568 4.9591 6.50568 4.67506C6.50598 4.37275 6.71101 4.16443 7.00703 4.16353Z" fill="#2D3E50"/>
<path d="M4.62186 2.79178C4.33691 2.79357 4.1262 2.58226 4.1241 2.29282C4.122 1.998 4.33182 1.78998 4.63293 1.78908C4.92387 1.78908 5.14177 1.99351 5.14745 2.27486C5.15314 2.55622 4.91429 2.78998 4.62186 2.79178Z" fill="#2D3E50"/>
<path d="M4.62395 7.55415C4.33781 7.55624 4.12619 7.34463 4.1241 7.05699C4.1223 6.76186 4.33032 6.55384 4.63053 6.54995C4.91788 6.54666 5.13937 6.75588 5.14655 7.03544C5.15373 7.315 4.91458 7.55085 4.62395 7.55415Z" fill="#2D3E50"/>
<path d="M2.25935 4.16353C2.5461 4.16353 2.7613 4.37514 2.76011 4.65799C2.75861 4.94713 2.52335 5.18658 2.24319 5.18389C2.17721 5.18273 2.11212 5.16849 2.05169 5.14198C1.99126 5.11548 1.93668 5.07725 1.89114 5.0295C1.84559 4.98176 1.80997 4.92544 1.78635 4.86383C1.76272 4.80222 1.75156 4.73652 1.75351 4.67057C1.75621 4.37065 1.96154 4.16473 2.25935 4.16353Z" fill="#2D3E50"/>
<path d="M2.94353 3.48019C2.81241 3.48108 2.68622 3.43023 2.59236 3.33866C2.4985 3.2471 2.44454 3.12222 2.44218 2.99112C2.43888 2.69749 2.65409 2.47959 2.94891 2.47779C3.01518 2.4768 3.08097 2.48921 3.14232 2.51427C3.20367 2.53933 3.25933 2.57653 3.30596 2.62363C3.35258 2.67073 3.38921 2.72676 3.41365 2.78837C3.43809 2.84997 3.44983 2.91588 3.44817 2.98214C3.44398 3.27127 3.23147 3.48079 2.94353 3.48019Z" fill="#2D3E50"/>
<path d="M2.94173 6.86578C2.68013 6.86578 2.44008 6.62124 2.44098 6.35485C2.44317 6.22417 2.49635 6.09952 2.58919 6.00752C2.68202 5.91553 2.80715 5.86347 2.93784 5.86248C3.21471 5.86008 3.44668 6.08756 3.44668 6.35844C3.44668 6.62932 3.20722 6.86578 2.94173 6.86578Z" fill="#2D3E50"/>
<path d="M6.80497 2.99205C6.80415 3.05671 6.79059 3.12058 6.76509 3.18C6.73958 3.23942 6.70262 3.29323 6.65632 3.33837C6.5628 3.42953 6.4369 3.47981 6.30632 3.47814C6.17573 3.47647 6.05116 3.423 5.96 3.32948C5.86884 3.23597 5.81856 3.11007 5.82023 2.97948C5.82023 2.69005 6.03484 2.47484 6.31889 2.47753C6.60294 2.48023 6.80647 2.69843 6.80497 2.99205Z" fill="#2D3E50"/>
<path d="M6.32098 5.86094C6.57181 5.86094 6.82413 6.10638 6.82712 6.35301C6.83012 6.58887 6.57749 6.84419 6.33894 6.84718C6.0513 6.85047 5.81664 6.62329 5.82023 6.34523C5.82128 6.28055 5.83507 6.2167 5.86081 6.15734C5.88655 6.09799 5.92374 6.04429 5.97024 5.99931C6.01675 5.95434 6.07166 5.91897 6.13184 5.89522C6.19203 5.87148 6.2563 5.85983 6.32098 5.86094Z" fill="#2D3E50"/>
<path d="M13.1552 12.4881C13.5659 12.4881 13.8694 12.7874 13.8688 13.1893C13.8702 13.2834 13.8529 13.3767 13.8178 13.464C13.7827 13.5512 13.7306 13.6306 13.6645 13.6974C13.5983 13.7643 13.5195 13.8173 13.4327 13.8533C13.3458 13.8893 13.2526 13.9076 13.1586 13.9072C13.0645 13.9068 12.9715 13.8876 12.885 13.8507C12.7985 13.8139 12.7202 13.7602 12.6547 13.6927C12.5892 13.6253 12.5378 13.5454 12.5035 13.4579C12.4692 13.3703 12.4528 13.2768 12.4551 13.1828C12.4545 12.779 12.7478 12.4878 13.1552 12.4881Z" fill="#2D3E50"/>
<path d="M3.89062 4.67629C3.89062 4.23989 4.19742 3.92801 4.62604 3.92801C5.04508 3.92801 5.37432 4.24827 5.37642 4.65414C5.37654 4.75499 5.35674 4.85488 5.31818 4.94806C5.27961 5.04125 5.22303 5.12591 5.15167 5.19718C5.08032 5.26845 4.9956 5.32493 4.90237 5.36339C4.80914 5.40185 4.70923 5.42152 4.60838 5.42128C4.21029 5.4153 3.89092 5.08426 3.89062 4.67629Z" fill="#2D3E50"/>
</svg>
