<svg width="16" height="16" viewBox="0 0 16 16" fill="none" xmlns="http://www.w3.org/2000/svg">
<path d="M5.32709 6.96968H5.33949H5.35189C5.43871 6.96968 5.50073 6.99392 5.56275 7.05453C5.61236 7.11514 5.64957 7.17574 5.64957 7.26059C5.64957 7.34544 5.62476 7.41817 5.56275 7.47877C5.50073 7.53938 5.42631 7.57574 5.33949 7.57574C5.25267 7.57574 5.19065 7.5515 5.12864 7.49089C5.07902 7.43029 5.04182 7.36968 5.04182 7.28483V7.27271V7.26059C5.04182 7.17574 5.06662 7.11514 5.12864 7.05453C5.17825 7.00604 5.24027 6.96968 5.32709 6.96968ZM5.32709 3.56362C5.24027 3.56362 5.17825 3.53938 5.11623 3.47877C5.06662 3.41817 5.02941 3.35756 5.02941 3.27271V3.26059C5.02941 3.17574 5.05422 3.11513 5.11623 3.05453C5.16585 2.99392 5.24027 2.96968 5.32709 2.96968H5.33949H5.35189C5.43871 2.96968 5.50073 2.99392 5.56275 3.05453C5.61236 3.11513 5.64957 3.17574 5.64957 3.26059C5.64957 3.34544 5.62476 3.41817 5.56275 3.47877C5.48833 3.53938 5.41391 3.56362 5.32709 3.56362ZM3.92554 6.39998C3.96275 6.39998 3.99996 6.4121 4.03716 6.42423C4.07437 6.43635 4.09918 6.46059 4.12399 6.49695C4.14879 6.5212 4.1736 6.54544 4.1984 6.5818C4.21081 6.61817 4.22321 6.65453 4.22321 6.69089C4.22321 6.72726 4.21081 6.76362 4.1984 6.79998C4.186 6.83635 4.1612 6.86059 4.12399 6.88483C4.09918 6.9212 4.07437 6.94544 4.03716 6.95756C3.99996 6.9818 3.96275 6.99392 3.91313 6.99392C3.87592 6.99392 3.83871 6.9818 3.80151 6.95756C3.7643 6.93332 3.73949 6.90907 3.71468 6.88483C3.68988 6.86059 3.66507 6.83635 3.64027 6.79998C3.62786 6.76362 3.61546 6.72726 3.61546 6.69089C3.61546 6.65453 3.62786 6.61817 3.64027 6.5818C3.65267 6.54544 3.67747 6.5212 3.71468 6.49695C3.73949 6.46059 3.7643 6.44847 3.80151 6.42423C3.83871 6.39998 3.87592 6.39998 3.91313 6.39998H3.92554ZM3.16895 3.09089C3.45422 2.8121 3.7767 2.59392 4.14879 2.42423C4.52088 2.25453 4.91778 2.16968 5.33949 2.16968C5.7612 2.16968 6.1705 2.25453 6.54259 2.4121C6.91468 2.56968 7.23716 2.79998 7.51003 3.07877L7.72088 3.3212H7.74569L7.80771 3.36968L13.7612 11.2242C13.8728 11.3697 13.9596 11.5273 14.0217 11.7091C14.0837 11.8909 14.1209 12.0848 14.1209 12.2909C14.1209 12.5333 14.0713 12.7636 13.9844 12.9697C13.8976 13.1879 13.7612 13.3697 13.6 13.5273L13.4883 13.6363C13.3395 13.7697 13.1658 13.8667 12.9674 13.9394C12.7689 14.0121 12.5705 14.0485 12.3472 14.0485C12.1488 14.0485 11.9503 14.0121 11.7643 13.9515C11.5782 13.8909 11.417 13.7939 11.2806 13.6848L3.47902 7.74544L3.40461 7.68483L3.15654 7.45453C2.88368 7.17574 2.66042 6.86059 2.49918 6.48483C2.33794 6.10907 2.25112 5.70907 2.25112 5.28483C2.25112 4.87271 2.33794 4.47271 2.49918 4.09695C2.66042 3.7212 2.88368 3.39392 3.16895 3.12726V3.09089ZM11.6403 13.3091C11.7519 13.4182 11.8759 13.503 12.0248 13.5636C12.1736 13.6242 12.3348 13.6606 12.5085 13.6606C12.6697 13.6606 12.831 13.6363 12.9798 13.5636C13.1286 13.503 13.2651 13.4182 13.3767 13.3091C13.4883 13.2 13.5751 13.0667 13.6372 12.9212C13.6992 12.7757 13.724 12.6182 13.724 12.4606V12.4485V12.4363C13.724 12.2788 13.6992 12.1212 13.6372 11.9757C13.5751 11.8303 13.4883 11.697 13.3767 11.5879C13.2651 11.4788 13.141 11.3818 12.9922 11.3212C12.8434 11.2606 12.6821 11.2242 12.5085 11.2242C12.1612 11.2242 11.8759 11.3454 11.6403 11.5757C11.4046 11.8182 11.2806 12.1091 11.2806 12.4485C11.2806 12.6182 11.3178 12.7757 11.3798 12.9333C11.4418 13.0667 11.5286 13.2 11.6403 13.3091ZM11.0821 13.1151L11.0325 12.9939C11.0077 12.9091 10.9829 12.8242 10.9581 12.7394C10.9457 12.6424 10.9333 12.5576 10.9333 12.4485C10.9333 12.3394 10.9457 12.2303 10.9705 12.1091C10.9953 12 11.0325 11.8909 11.0697 11.7939C11.1565 11.6121 11.2806 11.4545 11.4294 11.3091C11.5782 11.1636 11.7519 11.0667 11.9379 10.9939V10.9818C12.0248 10.9454 12.1116 10.9333 12.1984 10.9091C12.2976 10.897 12.3969 10.8848 12.4961 10.8848C12.5953 10.8848 12.6945 10.897 12.7813 10.9091C12.8682 10.9212 12.9674 10.9454 13.0542 10.9818L13.1782 11.0303L8.34104 4.67877V4.83635C8.35344 4.90907 8.35344 4.9818 8.36585 5.05453C8.36585 5.12726 8.37825 5.19998 8.37825 5.28483C8.37825 5.62423 8.32864 5.96362 8.21701 6.27877C8.10538 6.59392 7.95654 6.87271 7.7705 7.12726C7.53484 7.44241 7.24957 7.70907 6.90228 7.91514C6.55499 8.13332 6.1705 8.26665 5.7736 8.32726H5.7612C5.69918 8.33938 5.63716 8.33938 5.55034 8.3515C5.47592 8.3515 5.40151 8.36362 5.32709 8.36362C5.24027 8.36362 5.16585 8.36362 5.09143 8.3515C5.01701 8.3515 4.94259 8.33938 4.86817 8.32726H4.88058H4.73174L11.0821 13.1151ZM3.40461 7.19998C3.65267 7.44241 3.95034 7.63635 4.27282 7.7818C4.60771 7.92726 4.95499 7.99998 5.32709 7.99998C5.69918 7.99998 6.05887 7.92726 6.38135 7.7818C6.71623 7.63635 7.00151 7.44241 7.24957 7.19998C7.49763 6.94544 7.68368 6.65453 7.83251 6.31514C7.98135 5.97574 8.05577 5.62423 8.05577 5.24847C8.05577 4.48483 7.7953 3.84241 7.26197 3.30907C6.72864 2.77574 6.08368 2.50907 5.32709 2.50907C4.5705 2.50907 3.92554 2.77574 3.3922 3.30907C2.85887 3.84241 2.5984 4.48483 2.5984 5.24847C2.5984 5.62423 2.67282 5.97574 2.82166 6.31514C2.9705 6.65453 3.16895 6.94544 3.40461 7.19998ZM6.75344 6.39998H6.76585C6.80306 6.39998 6.84027 6.4121 6.87747 6.42423C6.90228 6.43635 6.92709 6.46059 6.95189 6.49695C6.9767 6.5212 7.0015 6.54544 7.02631 6.5818C7.05112 6.61817 7.05112 6.65453 7.05112 6.69089C7.05112 6.72726 7.03871 6.76362 7.02631 6.79998C7.0015 6.83635 6.9767 6.86059 6.95189 6.88483C6.92709 6.9212 6.90228 6.93332 6.87747 6.95756C6.85267 6.96968 6.81546 6.9818 6.76585 6.9818H6.75344H6.74104C6.65422 6.96968 6.5922 6.94544 6.53019 6.88483C6.48057 6.83635 6.44337 6.76362 6.44337 6.69089C6.44337 6.60604 6.46817 6.54544 6.53019 6.48483C6.60461 6.42423 6.66662 6.39998 6.75344 6.39998ZM7.32399 4.96968H7.33639C7.42321 4.96968 7.48523 4.99392 7.54724 5.05453C7.59685 5.11513 7.63406 5.17574 7.63406 5.26059C7.63406 5.35756 7.60926 5.43029 7.54724 5.49089C7.48523 5.5515 7.41081 5.58786 7.33639 5.58786C7.26197 5.58786 7.18755 5.56362 7.12554 5.50301C7.07592 5.44241 7.03871 5.3818 7.03871 5.29695V5.28483V5.27271C7.03871 5.18786 7.06352 5.12726 7.12554 5.06665C7.17515 4.99392 7.24957 4.96968 7.32399 4.96968ZM3.64027 5.26059C3.64027 5.35756 3.61546 5.43029 3.55344 5.49089C3.47902 5.53938 3.41701 5.57574 3.33019 5.57574C3.24337 5.57574 3.18135 5.5515 3.11934 5.49089C3.06972 5.43029 3.03251 5.36968 3.03251 5.28483V5.27271V5.26059C3.03251 5.17574 3.05732 5.11513 3.11934 5.05453C3.16895 4.99392 3.24337 4.96968 3.33019 4.96968H3.34259H3.35499C3.44182 4.96968 3.50383 4.99392 3.56585 5.05453C3.60306 5.10301 3.64027 5.17574 3.64027 5.26059ZM6.55499 4.04847C6.53019 4.02423 6.50538 3.99998 6.48058 3.97574C6.46817 3.93938 6.45577 3.91513 6.45577 3.86665V3.85453V3.84241V3.83029V3.81817C6.45577 3.73332 6.48058 3.67271 6.54259 3.6121C6.5922 3.5515 6.66662 3.52726 6.75344 3.52726C6.79065 3.52726 6.82786 3.53938 6.86507 3.5515C6.90228 3.56362 6.92709 3.58786 6.95189 3.59998V3.6121C6.9767 3.63635 7.0015 3.66059 7.02631 3.69695C7.03871 3.73332 7.05112 3.76968 7.05112 3.80604V3.81817V3.83029V3.84241V3.85453C7.05112 3.89089 7.03871 3.92726 7.02631 3.96362C7.01391 3.99998 6.9891 4.02423 6.95189 4.03635C6.92709 4.07271 6.90228 4.08483 6.86507 4.10907C6.82786 4.1212 6.79065 4.13332 6.75344 4.13332C6.71623 4.13332 6.66662 4.13332 6.64182 4.1212C6.60461 4.10907 6.5674 4.08483 6.55499 4.04847ZM4.40926 4.38786H4.43406C4.54569 4.27877 4.68213 4.1818 4.83096 4.1212C4.9922 4.06059 5.15344 4.02423 5.32709 4.02423C5.50073 4.02423 5.66197 4.06059 5.82321 4.1212C5.98445 4.1818 6.10848 4.27877 6.22011 4.38786C6.34414 4.49695 6.43096 4.63029 6.50538 4.78786C6.5674 4.94544 6.60461 5.11513 6.60461 5.28483C6.60461 5.63635 6.48057 5.93938 6.22011 6.19392C5.95964 6.44847 5.66197 6.56968 5.31468 6.56968C4.9674 6.55756 4.68213 6.43635 4.43406 6.19392C4.186 5.9515 4.06197 5.64847 4.04957 5.29695V5.28483V5.27271C4.04957 5.10301 4.07437 4.93332 4.13639 4.78786C4.21081 4.64241 4.29763 4.50907 4.40926 4.38786ZM4.65732 5.92726H4.68213C4.76895 6.0121 4.85577 6.07271 4.9674 6.1212C5.07902 6.16968 5.19065 6.19392 5.31468 6.19392C5.45112 6.19392 5.56275 6.16968 5.67437 6.1212C5.786 6.07271 5.88523 5.99998 5.95964 5.92726C6.04647 5.84241 6.10848 5.74544 6.14569 5.63635C6.1953 5.52726 6.22011 5.40604 6.22011 5.27271V5.26059V5.24847C6.22011 5.11513 6.1953 4.99392 6.14569 4.89695C6.09608 4.78786 6.03406 4.69089 5.95964 4.61817C5.87282 4.53332 5.7612 4.47271 5.66197 4.42423C5.55034 4.37574 5.43871 4.3515 5.31468 4.3515C5.17825 4.3515 5.06662 4.37574 4.95499 4.42423C4.84337 4.47271 4.74414 4.54544 4.65732 4.61817C4.5829 4.70301 4.53329 4.79998 4.48368 4.90907C4.43406 5.03029 4.40926 5.13938 4.40926 5.26059C4.40926 5.3818 4.43406 5.50301 4.48368 5.6121C4.52088 5.74544 4.5829 5.84241 4.65732 5.92726ZM12.1364 12.0848H12.1612C12.1984 12.0485 12.248 12.0121 12.31 11.9879C12.3596 11.9636 12.4341 11.9515 12.4961 11.9515C12.5581 11.9515 12.6201 11.9636 12.6697 11.9879C12.7193 12.0121 12.7813 12.0363 12.831 12.0848C12.8682 12.1333 12.9054 12.1939 12.9302 12.2424C12.955 12.303 12.9674 12.3515 12.9674 12.4121C12.9674 12.5454 12.9178 12.6545 12.831 12.7515C12.7441 12.8485 12.6325 12.8848 12.4961 12.8848C12.3596 12.8848 12.248 12.8363 12.1612 12.7515C12.0744 12.6545 12.0248 12.5454 12.0248 12.4121C12.0248 12.3515 12.0372 12.2909 12.062 12.2424C12.0868 12.1818 12.124 12.1333 12.1612 12.0848H12.1364ZM5.32709 4.76362H5.33949C5.41391 4.76362 5.47592 4.77574 5.52554 4.79998C5.57515 4.82423 5.63716 4.86059 5.68678 4.89695C5.72399 4.93332 5.7612 4.99392 5.7984 5.05453C5.82321 5.11513 5.84802 5.17574 5.84802 5.24847C5.84802 5.39392 5.7984 5.51513 5.69918 5.6121C5.59996 5.70907 5.47592 5.76968 5.33949 5.76968C5.20306 5.76968 5.09143 5.7212 4.9922 5.62423C4.89298 5.52726 4.84337 5.41817 4.84337 5.28483V5.27271V5.26059C4.84337 5.19998 4.85577 5.13938 4.88058 5.07877C4.90538 5.01817 4.94259 4.95756 4.9798 4.90907C5.02941 4.87271 5.09143 4.83635 5.14104 4.8121C5.20306 4.77574 5.26507 4.76362 5.32709 4.76362ZM3.92554 4.14544H3.91313C3.87592 4.14544 3.83871 4.13332 3.80151 4.1212C3.7643 4.10907 3.73949 4.08483 3.71468 4.04847C3.68988 4.02423 3.66507 3.99998 3.64027 3.96362C3.62786 3.92726 3.61546 3.89089 3.61546 3.85453C3.61546 3.81817 3.62786 3.76968 3.64027 3.73332C3.65267 3.69695 3.67747 3.66059 3.71468 3.62423V3.63635C3.73949 3.59998 3.7643 3.58786 3.80151 3.56362C3.83871 3.5515 3.88833 3.53938 3.92554 3.53938C3.96275 3.53938 3.99996 3.5515 4.03716 3.56362C4.07437 3.57574 4.09918 3.59998 4.12399 3.63635C4.14879 3.66059 4.1736 3.68483 4.1984 3.7212C4.21081 3.75756 4.22321 3.79392 4.22321 3.83029V3.84241V3.85453C4.22321 3.93938 4.1984 3.99998 4.13639 4.06059C4.07437 4.1212 3.99995 4.14544 3.92554 4.14544ZM2.30073 2.96968L2.63561 2.55756H2.66042C3.00771 2.21817 3.40461 1.93938 3.86352 1.74544C4.32244 1.5515 4.81856 1.45453 5.33949 1.45453C5.86042 1.45453 6.35654 1.5515 6.81546 1.74544C7.27437 1.93938 7.68368 2.21817 8.01856 2.55756L8.36585 2.96968L14.3193 10.8C14.4806 11.006 14.6046 11.2363 14.7038 11.4909C14.7907 11.7454 14.8403 12.0242 14.8403 12.303C14.8403 12.3636 14.8403 12.4242 14.8279 12.4727C14.8155 12.5212 14.8155 12.5818 14.8031 12.6424V12.6303C14.7658 12.9697 14.6542 13.2727 14.4806 13.5636C14.3069 13.8424 14.0961 14.0848 13.8232 14.2788C13.6248 14.4363 13.3891 14.5697 13.1286 14.6545C12.8682 14.7394 12.5953 14.7879 12.31 14.7879C12.0248 14.7879 11.7643 14.7394 11.5038 14.6545C11.2558 14.5697 11.0201 14.4485 10.8093 14.2788H10.8589L3.04492 8.32726C2.63561 8.03635 2.31313 7.67271 2.05267 7.23635C1.7922 6.79998 1.64337 6.32726 1.56895 5.81817V5.7818C1.55654 5.69695 1.54414 5.6121 1.54414 5.51513C1.53174 5.41817 1.53174 5.3212 1.53174 5.23635C1.53174 4.79998 1.60616 4.38786 1.74259 3.99998C1.87903 3.6121 2.07747 3.26059 2.32554 2.94544L2.30073 2.96968ZM2.5736 7.39392L2.85887 7.69695V7.74544L3.20616 8.03635L11.0573 14.0242C11.231 14.1576 11.4294 14.2667 11.6527 14.3394C11.8759 14.4242 12.1116 14.4606 12.3596 14.4606C12.955 14.4606 13.4635 14.2545 13.8852 13.8303C14.3069 13.406 14.5178 12.897 14.5178 12.303C14.5178 12.0606 14.4806 11.8182 14.3938 11.6C14.3069 11.3818 14.1953 11.1636 14.0589 10.9818L14.0713 10.9939L8.10538 3.17574C7.7829 2.8121 7.3984 2.5212 6.93949 2.31513C6.49298 2.09695 6.00926 1.99998 5.48833 1.99998C5.00461 1.99998 4.54569 2.09695 4.12399 2.27877C3.71468 2.46059 3.34259 2.71513 3.02011 3.01817C2.69763 3.3212 2.44957 3.69695 2.26352 4.13332C2.07747 4.55756 1.99065 5.01817 1.99065 5.50301C1.99065 5.85453 2.04027 6.19392 2.13949 6.5212C2.23871 6.84847 2.38755 7.1515 2.5612 7.43029V7.39392H2.5736Z" fill="#2D3E50"/>
<mask id="mask0" mask-type="alpha" maskUnits="userSpaceOnUse" x="1" y="1" width="14" height="14">
<path d="M14.9767 1.33333H1.33331V14.9091H14.9767V1.33333Z" fill="white"/>
<path d="M5.32709 6.9697H5.33949H5.35189C5.43871 6.9697 5.50073 6.99394 5.56275 7.05454C5.61236 7.11515 5.64957 7.17576 5.64957 7.2606C5.64957 7.34545 5.62476 7.41818 5.56275 7.47879C5.50073 7.53939 5.42631 7.57576 5.33949 7.57576C5.25267 7.57576 5.19065 7.55151 5.12864 7.49091C5.07902 7.4303 5.04182 7.3697 5.04182 7.28485V7.27273V7.2606C5.04182 7.17576 5.06662 7.11515 5.12864 7.05454C5.17825 7.00606 5.24027 6.9697 5.32709 6.9697ZM5.32709 3.56364C5.24027 3.56364 5.17825 3.53939 5.11623 3.47879C5.06662 3.41818 5.02941 3.35757 5.02941 3.27273V3.2606C5.02941 3.17576 5.05422 3.11515 5.11623 3.05454C5.16585 2.99394 5.24027 2.9697 5.32709 2.9697H5.33949H5.35189C5.43871 2.9697 5.50073 2.99394 5.56275 3.05454C5.61236 3.11515 5.64957 3.17576 5.64957 3.2606C5.64957 3.34545 5.62476 3.41818 5.56275 3.47879C5.48833 3.53939 5.41391 3.56364 5.32709 3.56364ZM3.92554 6.4C3.96275 6.4 3.99996 6.41212 4.03716 6.42424C4.07437 6.43636 4.09918 6.4606 4.12399 6.49697C4.14879 6.52121 4.1736 6.54545 4.1984 6.58182C4.21081 6.61818 4.22321 6.65454 4.22321 6.69091C4.22321 6.72727 4.21081 6.76364 4.1984 6.8C4.186 6.83636 4.1612 6.8606 4.12399 6.88485C4.09918 6.92121 4.07437 6.94545 4.03716 6.95757C3.99996 6.98182 3.96275 6.99394 3.91313 6.99394C3.87592 6.99394 3.83871 6.98182 3.80151 6.95757C3.7643 6.93333 3.73949 6.90909 3.71468 6.88485C3.68988 6.8606 3.66507 6.83636 3.64027 6.8C3.62786 6.76364 3.61546 6.72727 3.61546 6.69091C3.61546 6.65454 3.62786 6.61818 3.64027 6.58182C3.65267 6.54545 3.67747 6.52121 3.71468 6.49697C3.73949 6.4606 3.7643 6.44848 3.80151 6.42424C3.83871 6.4 3.87592 6.4 3.91313 6.4H3.92554ZM3.16895 3.09091C3.45422 2.81212 3.7767 2.59394 4.14879 2.42424C4.52088 2.25454 4.91778 2.1697 5.33949 2.1697C5.7612 2.1697 6.1705 2.25454 6.54259 2.41212C6.91468 2.5697 7.23716 2.8 7.51003 3.07879L7.72088 3.32121H7.74569L7.80771 3.3697L13.7612 11.2242C13.8728 11.3697 13.9596 11.5273 14.0217 11.7091C14.0837 11.8909 14.1209 12.0848 14.1209 12.2909C14.1209 12.5333 14.0713 12.7636 13.9844 12.9697C13.8976 13.1879 13.7612 13.3697 13.6 13.5273L13.4883 13.6364C13.3395 13.7697 13.1658 13.8667 12.9674 13.9394C12.7689 14.0121 12.5705 14.0485 12.3472 14.0485C12.1488 14.0485 11.9503 14.0121 11.7643 13.9515C11.5782 13.8909 11.417 13.7939 11.2806 13.6848L3.47902 7.74545L3.40461 7.68485L3.15654 7.45454C2.88368 7.17576 2.66042 6.8606 2.49918 6.48485C2.33794 6.10909 2.25112 5.70909 2.25112 5.28485C2.25112 4.87273 2.33794 4.47273 2.49918 4.09697C2.66042 3.72121 2.88368 3.39394 3.16895 3.12727V3.09091ZM11.6403 13.3091C11.7519 13.4182 11.8759 13.503 12.0248 13.5636C12.1736 13.6242 12.3348 13.6606 12.5085 13.6606C12.6697 13.6606 12.831 13.6364 12.9798 13.5636C13.1286 13.503 13.2651 13.4182 13.3767 13.3091C13.4883 13.2 13.5751 13.0667 13.6372 12.9212C13.6992 12.7758 13.724 12.6182 13.724 12.4606V12.4485V12.4364C13.724 12.2788 13.6992 12.1212 13.6372 11.9758C13.5751 11.8303 13.4883 11.697 13.3767 11.5879C13.2651 11.4788 13.141 11.3818 12.9922 11.3212C12.8434 11.2606 12.6821 11.2242 12.5085 11.2242C12.1612 11.2242 11.8759 11.3455 11.6403 11.5758C11.4046 11.8182 11.2806 12.1091 11.2806 12.4485C11.2806 12.6182 11.3178 12.7758 11.3798 12.9333C11.4418 13.0667 11.5286 13.2 11.6403 13.3091ZM11.0821 13.1152L11.0325 12.9939C11.0077 12.9091 10.9829 12.8242 10.9581 12.7394C10.9457 12.6424 10.9333 12.5576 10.9333 12.4485C10.9333 12.3394 10.9457 12.2303 10.9705 12.1091C10.9953 12 11.0325 11.8909 11.0697 11.7939C11.1565 11.6121 11.2806 11.4545 11.4294 11.3091C11.5782 11.1636 11.7519 11.0667 11.9379 10.9939V10.9818C12.0248 10.9455 12.1116 10.9333 12.1984 10.9091C12.2976 10.897 12.3969 10.8848 12.4961 10.8848C12.5953 10.8848 12.6945 10.897 12.7813 10.9091C12.8682 10.9212 12.9674 10.9455 13.0542 10.9818L13.1782 11.0303L8.34104 4.67879V4.83636C8.35344 4.90909 8.35344 4.98182 8.36585 5.05454C8.36585 5.12727 8.37825 5.2 8.37825 5.28485C8.37825 5.62424 8.32864 5.96363 8.21701 6.27879C8.10538 6.59394 7.95654 6.87273 7.7705 7.12727C7.53484 7.44242 7.24957 7.70909 6.90228 7.91515C6.55499 8.13333 6.1705 8.26666 5.7736 8.32727H5.7612C5.69918 8.33939 5.63716 8.33939 5.55034 8.35151C5.47592 8.35151 5.40151 8.36364 5.32709 8.36364C5.24027 8.36364 5.16585 8.36364 5.09143 8.35151C5.01701 8.35151 4.94259 8.33939 4.86817 8.32727H4.88058H4.73174L11.0821 13.1152ZM3.40461 7.2C3.65267 7.44242 3.95034 7.63636 4.27282 7.78182C4.60771 7.92727 4.95499 8 5.32709 8C5.69918 8 6.05887 7.92727 6.38135 7.78182C6.71623 7.63636 7.00151 7.44242 7.24957 7.2C7.49763 6.94545 7.68368 6.65454 7.83251 6.31515C7.98135 5.97576 8.05577 5.62424 8.05577 5.24848C8.05577 4.48485 7.7953 3.84242 7.26197 3.30909C6.72864 2.77576 6.08368 2.50909 5.32709 2.50909C4.5705 2.50909 3.92554 2.77576 3.3922 3.30909C2.85887 3.84242 2.5984 4.48485 2.5984 5.24848C2.5984 5.62424 2.67282 5.97576 2.82166 6.31515C2.9705 6.65454 3.16895 6.94545 3.40461 7.2ZM6.75344 6.4H6.76585C6.80306 6.4 6.84027 6.41212 6.87747 6.42424C6.90228 6.43636 6.92709 6.4606 6.95189 6.49697C6.9767 6.52121 7.0015 6.54545 7.02631 6.58182C7.05112 6.61818 7.05112 6.65454 7.05112 6.69091C7.05112 6.72727 7.03871 6.76364 7.02631 6.8C7.0015 6.83636 6.9767 6.8606 6.95189 6.88485C6.92709 6.92121 6.90228 6.93333 6.87747 6.95757C6.85267 6.9697 6.81546 6.98182 6.76585 6.98182H6.75344H6.74104C6.65422 6.9697 6.5922 6.94545 6.53019 6.88485C6.48057 6.83636 6.44337 6.76364 6.44337 6.69091C6.44337 6.60606 6.46817 6.54545 6.53019 6.48485C6.60461 6.42424 6.66662 6.4 6.75344 6.4ZM7.32399 4.9697H7.33639C7.42321 4.9697 7.48523 4.99394 7.54724 5.05454C7.59685 5.11515 7.63406 5.17576 7.63406 5.2606C7.63406 5.35757 7.60926 5.4303 7.54724 5.49091C7.48523 5.55151 7.41081 5.58788 7.33639 5.58788C7.26197 5.58788 7.18755 5.56364 7.12554 5.50303C7.07592 5.44242 7.03871 5.38182 7.03871 5.29697V5.28485V5.27273C7.03871 5.18788 7.06352 5.12727 7.12554 5.06667C7.17515 4.99394 7.24957 4.9697 7.32399 4.9697ZM3.64027 5.2606C3.64027 5.35757 3.61546 5.4303 3.55344 5.49091C3.47902 5.53939 3.41701 5.57576 3.33019 5.57576C3.24337 5.57576 3.18135 5.55151 3.11934 5.49091C3.06972 5.4303 3.03251 5.3697 3.03251 5.28485V5.27273V5.2606C3.03251 5.17576 3.05732 5.11515 3.11934 5.05454C3.16895 4.99394 3.24337 4.9697 3.33019 4.9697H3.34259H3.35499C3.44182 4.9697 3.50383 4.99394 3.56585 5.05454C3.60306 5.10303 3.64027 5.17576 3.64027 5.2606ZM6.55499 4.04848C6.53019 4.02424 6.50538 4 6.48058 3.97576C6.46817 3.93939 6.45577 3.91515 6.45577 3.86667V3.85454V3.84242V3.8303V3.81818C6.45577 3.73333 6.48058 3.67273 6.54259 3.61212C6.5922 3.55151 6.66662 3.52727 6.75344 3.52727C6.79065 3.52727 6.82786 3.53939 6.86507 3.55151C6.90228 3.56363 6.92709 3.58788 6.95189 3.6V3.61212C6.9767 3.63636 7.0015 3.6606 7.02631 3.69697C7.03871 3.73333 7.05112 3.7697 7.05112 3.80606V3.81818V3.8303V3.84242V3.85454C7.05112 3.89091 7.03871 3.92727 7.02631 3.96364C7.01391 4 6.9891 4.02424 6.95189 4.03636C6.92709 4.07273 6.90228 4.08485 6.86507 4.10909C6.82786 4.12121 6.79065 4.13333 6.75344 4.13333C6.71623 4.13333 6.66662 4.13333 6.64182 4.12121C6.60461 4.10909 6.5674 4.08485 6.55499 4.04848ZM4.40926 4.38788H4.43406C4.54569 4.27879 4.68213 4.18182 4.83096 4.12121C4.9922 4.0606 5.15344 4.02424 5.32709 4.02424C5.50073 4.02424 5.66197 4.0606 5.82321 4.12121C5.98445 4.18182 6.10848 4.27879 6.22011 4.38788C6.34414 4.49697 6.43096 4.6303 6.50538 4.78788C6.5674 4.94545 6.60461 5.11515 6.60461 5.28485C6.60461 5.63636 6.48057 5.93939 6.22011 6.19394C5.95964 6.44848 5.66197 6.5697 5.31468 6.5697C4.9674 6.55757 4.68213 6.43636 4.43406 6.19394C4.186 5.95151 4.06197 5.64848 4.04957 5.29697V5.28485V5.27273C4.04957 5.10303 4.07437 4.93333 4.13639 4.78788C4.21081 4.64242 4.29763 4.50909 4.40926 4.38788ZM4.65732 5.92727H4.68213C4.76895 6.01212 4.85577 6.07273 4.9674 6.12121C5.07902 6.1697 5.19065 6.19394 5.31468 6.19394C5.45112 6.19394 5.56275 6.1697 5.67437 6.12121C5.786 6.07273 5.88523 6 5.95964 5.92727C6.04647 5.84242 6.10848 5.74545 6.14569 5.63636C6.1953 5.52727 6.22011 5.40606 6.22011 5.27273V5.2606V5.24848C6.22011 5.11515 6.1953 4.99394 6.14569 4.89697C6.09608 4.78788 6.03406 4.69091 5.95964 4.61818C5.87282 4.53333 5.7612 4.47273 5.66197 4.42424C5.55034 4.37576 5.43871 4.35151 5.31468 4.35151C5.17825 4.35151 5.06662 4.37576 4.95499 4.42424C4.84337 4.47273 4.74414 4.54545 4.65732 4.61818C4.5829 4.70303 4.53329 4.8 4.48368 4.90909C4.43406 5.0303 4.40926 5.13939 4.40926 5.2606C4.40926 5.38182 4.43406 5.50303 4.48368 5.61212C4.52088 5.74545 4.5829 5.84242 4.65732 5.92727ZM12.1364 12.0848H12.1612C12.1984 12.0485 12.248 12.0121 12.31 11.9879C12.3596 11.9636 12.4341 11.9515 12.4961 11.9515C12.5581 11.9515 12.6201 11.9636 12.6697 11.9879C12.7193 12.0121 12.7813 12.0364 12.831 12.0848C12.8682 12.1333 12.9054 12.1939 12.9302 12.2424C12.955 12.303 12.9674 12.3515 12.9674 12.4121C12.9674 12.5455 12.9178 12.6545 12.831 12.7515C12.7441 12.8485 12.6325 12.8848 12.4961 12.8848C12.3596 12.8848 12.248 12.8364 12.1612 12.7515C12.0744 12.6545 12.0248 12.5455 12.0248 12.4121C12.0248 12.3515 12.0372 12.2909 12.062 12.2424C12.0868 12.1818 12.124 12.1333 12.1612 12.0848H12.1364ZM5.32709 4.76363H5.33949C5.41391 4.76363 5.47592 4.77576 5.52554 4.8C5.57515 4.82424 5.63716 4.86061 5.68678 4.89697C5.72399 4.93333 5.7612 4.99394 5.7984 5.05454C5.82321 5.11515 5.84802 5.17576 5.84802 5.24848C5.84802 5.39394 5.7984 5.51515 5.69918 5.61212C5.59996 5.70909 5.47592 5.7697 5.33949 5.7697C5.20306 5.7697 5.09143 5.72121 4.9922 5.62424C4.89298 5.52727 4.84337 5.41818 4.84337 5.28485V5.27273V5.2606C4.84337 5.2 4.85577 5.13939 4.88058 5.07879C4.90538 5.01818 4.94259 4.95757 4.9798 4.90909C5.02941 4.87273 5.09143 4.83636 5.14104 4.81212C5.20306 4.77576 5.26507 4.76363 5.32709 4.76363ZM3.92554 4.14545H3.91313C3.87592 4.14545 3.83871 4.13333 3.80151 4.12121C3.7643 4.10909 3.73949 4.08485 3.71468 4.04848C3.68988 4.02424 3.66507 4 3.64027 3.96364C3.62786 3.92727 3.61546 3.89091 3.61546 3.85454C3.61546 3.81818 3.62786 3.7697 3.64027 3.73333C3.65267 3.69697 3.67747 3.6606 3.71468 3.62424V3.63636C3.73949 3.6 3.7643 3.58788 3.80151 3.56364C3.83871 3.55151 3.88833 3.53939 3.92554 3.53939C3.96275 3.53939 3.99996 3.55151 4.03716 3.56364C4.07437 3.57576 4.09918 3.6 4.12399 3.63636C4.14879 3.6606 4.1736 3.68485 4.1984 3.72121C4.21081 3.75757 4.22321 3.79394 4.22321 3.8303V3.84242V3.85454C4.22321 3.93939 4.1984 4 4.13639 4.0606C4.07437 4.12121 3.99995 4.14545 3.92554 4.14545ZM2.30073 2.9697L2.63561 2.55757H2.66042C3.00771 2.21818 3.40461 1.93939 3.86352 1.74545C4.32244 1.55151 4.81856 1.45454 5.33949 1.45454C5.86042 1.45454 6.35654 1.55151 6.81546 1.74545C7.27437 1.93939 7.68368 2.21818 8.01856 2.55757L8.36585 2.9697L14.3193 10.8C14.4806 11.0061 14.6046 11.2364 14.7038 11.4909C14.7907 11.7455 14.8403 12.0242 14.8403 12.303C14.8403 12.3636 14.8403 12.4242 14.8279 12.4727C14.8155 12.5212 14.8155 12.5818 14.8031 12.6424V12.6303C14.7658 12.9697 14.6542 13.2727 14.4806 13.5636C14.3069 13.8424 14.0961 14.0848 13.8232 14.2788C13.6248 14.4364 13.3891 14.5697 13.1286 14.6545C12.8682 14.7394 12.5953 14.7879 12.31 14.7879C12.0248 14.7879 11.7643 14.7394 11.5038 14.6545C11.2558 14.5697 11.0201 14.4485 10.8093 14.2788H10.8589L3.04492 8.32727C2.63561 8.03636 2.31313 7.67273 2.05267 7.23636C1.7922 6.8 1.64337 6.32727 1.56895 5.81818V5.78182C1.55654 5.69697 1.54414 5.61212 1.54414 5.51515C1.53174 5.41818 1.53174 5.32121 1.53174 5.23636C1.53174 4.8 1.60616 4.38788 1.74259 4C1.87903 3.61212 2.07747 3.2606 2.32554 2.94545L2.30073 2.9697ZM2.5736 7.39394L2.85887 7.69697V7.74545L3.20616 8.03636L11.0573 14.0242C11.231 14.1576 11.4294 14.2667 11.6527 14.3394C11.8759 14.4242 12.1116 14.4606 12.3596 14.4606C12.955 14.4606 13.4635 14.2545 13.8852 13.8303C14.3069 13.4061 14.5178 12.897 14.5178 12.303C14.5178 12.0606 14.4806 11.8182 14.3938 11.6C14.3069 11.3818 14.1953 11.1636 14.0589 10.9818L14.0713 10.9939L8.10538 3.17576C7.7829 2.81212 7.3984 2.52121 6.93949 2.31515C6.49298 2.09697 6.00926 2 5.48833 2C5.00461 2 4.54569 2.09697 4.12399 2.27879C3.71468 2.4606 3.34259 2.71515 3.02011 3.01818C2.69763 3.32121 2.44957 3.69697 2.26352 4.13333C2.07747 4.55757 1.99065 5.01818 1.99065 5.50303C1.99065 5.85454 2.04027 6.19394 2.13949 6.52121C2.23871 6.84848 2.38755 7.15151 2.5612 7.4303V7.39394H2.5736Z" fill="black"/>
</mask>
<g mask="url(#mask0)">
<path d="M12.3473 14.8848C12.0496 14.8848 11.7767 14.8363 11.5039 14.7515C11.2434 14.6666 10.9953 14.5333 10.7721 14.3636L10.5488 14.1939H10.5612L2.98294 8.39996C2.57364 8.09693 2.22635 7.72117 1.96589 7.27269C1.70542 6.8242 1.54418 6.33936 1.46977 5.81814V5.76966C1.45736 5.69693 1.44496 5.61208 1.44496 5.51511C1.43256 5.43027 1.43256 5.3333 1.43256 5.23633C1.43256 4.78784 1.50697 4.3636 1.65581 3.97572C1.79225 3.58784 1.9907 3.23633 2.23876 2.92117L2.59845 2.47269H2.63566C2.98294 2.1333 3.39225 1.86663 3.83876 1.67269C4.31008 1.46663 4.8186 1.36966 5.36434 1.36966C5.89767 1.36966 6.4186 1.46663 6.88992 1.67269C7.36124 1.87875 7.78294 2.15754 8.13023 2.50905L8.48992 2.92117L14.4434 10.7515C14.6046 10.9575 14.7411 11.2 14.8403 11.4666C14.9395 11.7333 14.9767 12.0242 14.9767 12.3151C14.9767 12.3757 14.9767 12.4363 14.9643 12.4969C14.9643 12.5575 14.9519 12.6181 14.9395 12.6788C14.8899 13.0181 14.7907 13.3333 14.6046 13.6242C14.431 13.9151 14.1953 14.1697 13.9225 14.3636C13.7116 14.5333 13.476 14.6545 13.2031 14.7515C12.9302 14.8363 12.645 14.8848 12.3473 14.8848ZM11.0822 14.3272C11.2434 14.4242 11.4046 14.5091 11.5783 14.5697C12.062 14.7394 12.6326 14.7394 13.1287 14.5697C13.3767 14.4848 13.6 14.3636 13.786 14.2181C14.0465 14.0363 14.2574 13.806 14.4186 13.5272C14.5798 13.2606 14.6915 12.9575 14.7287 12.6424C14.7411 12.5818 14.7411 12.5333 14.7535 12.4848C14.7535 12.4363 14.7659 12.3757 14.7659 12.3151C14.7659 12.0484 14.7163 11.7818 14.6295 11.5394C14.5426 11.2969 14.4186 11.0666 14.2698 10.8727L8.30387 3.03027L7.95659 2.61814C7.63411 2.29087 7.23721 2.0242 6.7907 1.83027C6.34418 1.63633 5.86046 1.53936 5.35194 1.53936C4.84341 1.53936 4.35969 1.63633 3.91318 1.83027C3.46666 2.0242 3.06977 2.29087 2.73488 2.61814L2.71008 2.66663H2.68527L2.4 3.01814C2.16434 3.32117 1.97829 3.67269 1.84186 4.03633C1.70542 4.41208 1.63101 4.81208 1.63101 5.23633C1.63101 5.32117 1.63101 5.41814 1.64341 5.50299C1.65581 5.59996 1.66821 5.68481 1.66821 5.76966V5.80602C1.74263 6.29087 1.89147 6.7636 2.13953 7.17572C2.38759 7.59996 2.71008 7.95148 3.09457 8.24239L11.0822 14.3272ZM12.3721 14.5697C12.124 14.5697 11.8636 14.5212 11.6279 14.4363C11.3922 14.3515 11.1814 14.2424 10.9953 14.0969L3.14418 8.10905L2.75969 7.7939V7.74542L2.67287 7.64845V7.75754L2.48682 7.46663C2.30077 7.17572 2.15194 6.86057 2.05271 6.5333C1.95349 6.20602 1.89147 5.85451 1.89147 5.49087C1.89147 4.9939 1.9907 4.52117 2.17674 4.08481C2.36279 3.64845 2.62325 3.26057 2.94573 2.94542C3.26821 2.63027 3.65271 2.3636 4.07442 2.18178C4.50852 1.99996 4.97984 1.90299 5.47597 1.90299C6.0093 1.90299 6.50542 2.01208 6.96434 2.23027C7.42325 2.44845 7.83255 2.75148 8.15504 3.11511L14.1457 10.9454C14.2822 11.1272 14.3938 11.3454 14.4806 11.5757C14.5674 11.8181 14.6046 12.0606 14.6046 12.3151C14.6046 12.9333 14.3814 13.4788 13.9473 13.9151C13.5256 14.3394 12.9922 14.5697 12.3721 14.5697ZM2.95814 7.70905L3.26821 7.9636L11.1194 13.9515C11.2806 14.0727 11.4791 14.1818 11.6899 14.2545C11.9008 14.3272 12.1364 14.3757 12.3597 14.3757C12.9302 14.3757 13.4139 14.1697 13.8108 13.7697C14.2077 13.3697 14.4186 12.8727 14.4186 12.3151C14.4186 12.0848 14.3814 11.8545 14.307 11.6363C14.2326 11.4181 14.1209 11.2242 13.9845 11.0424L8.0186 3.23633C7.70852 2.88481 7.32403 2.60602 6.88992 2.39996C6.45581 2.1939 5.98449 2.08481 5.48837 2.08481C5.43876 2.08481 5.37674 2.08481 5.32713 2.08481C5.77364 2.08481 6.19535 2.16966 6.57984 2.33936C6.96434 2.50905 7.29922 2.73936 7.58449 3.03027L7.77054 3.24845H7.78294L7.89457 3.3333L13.8481 11.1878C13.9597 11.3333 14.0589 11.503 14.1333 11.6969C14.2077 11.8909 14.2326 12.0969 14.2326 12.303C14.2326 12.5575 14.1829 12.8 14.0837 13.0303C13.9845 13.2484 13.8481 13.4545 13.6868 13.6242L13.5752 13.7333C13.4139 13.8788 13.2279 13.9878 13.0171 14.0606C12.6326 14.206 12.1488 14.2181 11.7519 14.0727C11.5659 14 11.3922 13.903 11.2434 13.7939L3.42946 7.83027L3.34263 7.75754L3.09457 7.52724C2.8093 7.24845 2.58604 6.90905 2.4124 6.52117C2.23876 6.1333 2.15194 5.72117 2.15194 5.28481C2.15194 4.86057 2.23876 4.44845 2.4 4.06057C2.4248 3.99996 2.44961 3.95148 2.47442 3.89087C2.4248 3.97572 2.38759 4.06057 2.35039 4.14542C2.17674 4.55754 2.08992 5.00602 2.08992 5.47875C2.08992 5.81814 2.13953 6.15754 2.23876 6.47269C2.32558 6.7636 2.46201 7.04239 2.62325 7.30905L2.95814 7.66057V7.70905ZM3.26821 3.13936V3.1636L3.24341 3.18784C2.97054 3.45451 2.74728 3.76966 2.59845 4.1333C2.43721 4.49693 2.36279 4.88481 2.36279 5.28481C2.36279 5.69693 2.44961 6.08481 2.61085 6.44845C2.77209 6.81208 2.98294 7.12724 3.25581 7.3939L3.49147 7.62421L3.56589 7.68481L11.3798 13.6484C11.5163 13.7575 11.6651 13.8424 11.8388 13.903C12.1984 14.0363 12.6202 14.0242 12.9674 13.8909C13.1535 13.8303 13.3147 13.7333 13.4512 13.6L13.5504 13.503C13.6992 13.3454 13.8233 13.1757 13.9101 12.9697C13.9969 12.7757 14.0341 12.5575 14.0341 12.3272C14.0341 12.1333 13.9969 11.9515 13.9349 11.7818C13.8729 11.6121 13.786 11.4545 13.6868 11.3212L7.74573 3.45451L7.72093 3.44239H7.68372L7.43566 3.1636C7.17519 2.89693 6.86511 2.67875 6.49302 2.52117C6.13333 2.3636 5.74883 2.29087 5.33953 2.29087C4.93023 2.29087 4.54573 2.37572 4.18604 2.5333C3.83876 2.67875 3.52868 2.88481 3.26821 3.13936ZM12.5085 13.7575C12.3225 13.7575 12.1488 13.7212 11.9876 13.6606C11.8264 13.6 11.6899 13.503 11.5659 13.3818C11.4419 13.2606 11.355 13.1272 11.2806 12.9697C11.2062 12.8121 11.169 12.6424 11.169 12.4484C11.169 12.0848 11.293 11.7575 11.5535 11.503C11.8139 11.2484 12.124 11.1151 12.4961 11.1151C12.6822 11.1151 12.8558 11.1515 13.0171 11.2242C13.1783 11.2969 13.3147 11.3939 13.4388 11.5151C13.5628 11.6363 13.6496 11.7818 13.724 11.9394C13.786 12.0969 13.8233 12.2666 13.8233 12.4363V12.4727C13.8233 12.6424 13.786 12.8121 13.724 12.9697C13.662 13.1272 13.5628 13.2727 13.4388 13.3939C13.3147 13.5151 13.1783 13.6121 13.0046 13.6727C12.8558 13.7212 12.6822 13.7575 12.5085 13.7575ZM11.7147 13.2484C11.814 13.3454 11.938 13.4303 12.0744 13.4909C12.3349 13.6 12.6574 13.6 12.9426 13.4909C13.0791 13.4303 13.2031 13.3575 13.3023 13.2484C13.4015 13.1515 13.4884 13.0303 13.538 12.8969C13.5876 12.7636 13.6248 12.6181 13.6248 12.4727V12.4363C13.6248 12.2909 13.6 12.1454 13.538 12.0121C13.4884 11.8787 13.4015 11.7575 13.3023 11.6606C13.2031 11.5636 13.0791 11.4788 12.9426 11.4181C12.8062 11.3575 12.6574 11.3333 12.5085 11.3333C12.186 11.3333 11.9256 11.4424 11.7023 11.6606C11.4791 11.8787 11.3674 12.1454 11.3674 12.4727C11.3674 12.6303 11.3922 12.7757 11.4543 12.9091C11.5287 13.0181 11.6031 13.1394 11.7147 13.2484ZM11.293 13.3939L4.43411 8.21814H4.88062C4.94263 8.23027 5.01705 8.23027 5.09147 8.24239C5.2279 8.25451 5.37674 8.25451 5.53798 8.24239C5.6124 8.24239 5.67442 8.23027 5.73643 8.21814H5.76124C6.14573 8.15754 6.51783 8.02421 6.85271 7.81814C7.18759 7.61208 7.47287 7.35754 7.69612 7.05451C7.88217 6.81208 8.031 6.5333 8.13023 6.23027C8.22945 5.92724 8.27907 5.59996 8.27907 5.27269C8.27907 5.19996 8.27907 5.11511 8.26666 5.05451C8.26666 4.98178 8.25426 4.92117 8.24186 4.84845V4.83633V4.38784L13.476 11.2242L13.0295 11.0545C12.9426 11.0303 12.8558 11.006 12.769 10.9939C12.5953 10.9697 12.3969 10.9697 12.2108 10.9939C12.1488 11.006 12.0868 11.0181 12.0248 11.0303V11.0424L11.9752 11.0788C11.8015 11.1394 11.6403 11.2484 11.5039 11.3818C11.3674 11.5151 11.2558 11.6727 11.169 11.8424C11.1318 11.9272 11.107 12.0363 11.0822 12.1454C11.0574 12.2545 11.045 12.3515 11.045 12.4606C11.045 12.5575 11.0574 12.6424 11.0698 12.7394C11.0822 12.8242 11.107 12.9091 11.1318 12.9818L11.293 13.3939ZM5.04186 8.42421L10.8837 12.8484C10.8713 12.8121 10.8713 12.7878 10.8589 12.7515C10.8465 12.6545 10.8341 12.5575 10.8341 12.4484C10.8341 12.3272 10.8465 12.206 10.8713 12.0969C10.8961 11.9757 10.9333 11.8666 10.9705 11.7575C11.0698 11.5636 11.1938 11.3818 11.355 11.2363C11.4915 11.103 11.6527 10.9939 11.8388 10.9212V10.9091L11.9008 10.8848C11.9876 10.8484 12.0868 10.8242 12.186 10.8121C12.3845 10.7757 12.6077 10.7757 12.8062 10.8121C12.8434 10.8242 12.8806 10.8242 12.9178 10.8363L8.46511 4.9939C8.46511 5.00602 8.46511 5.01814 8.46511 5.03027C8.46511 5.10299 8.47752 5.17572 8.47752 5.26057C8.47752 5.61208 8.4279 5.95148 8.31628 6.27875C8.20465 6.60602 8.05581 6.89693 7.85736 7.15148C7.6217 7.47875 7.31163 7.74542 6.95194 7.9636C6.59225 8.18178 6.19535 8.32724 5.78604 8.38784H5.76124C5.69922 8.39996 5.6248 8.39996 5.55038 8.41208C5.37674 8.42421 5.2279 8.42421 5.07907 8.41208C5.06666 8.42421 5.05426 8.42421 5.04186 8.42421ZM12.5085 12.9818C12.3473 12.9818 12.2108 12.9212 12.0992 12.8121C11.9876 12.703 11.938 12.5697 11.938 12.4121C11.938 12.3394 11.9504 12.2666 11.9876 12.1939C12.0124 12.1333 12.0496 12.0727 12.0992 12.0121L12.1488 12.0484L12.0992 12.0121C12.1488 11.9636 12.2108 11.9272 12.2853 11.903C12.4093 11.8545 12.5829 11.8545 12.7194 11.903C12.7814 11.9272 12.8434 11.9636 12.9054 12.0121L12.9178 12.0242C12.9674 12.0848 13.0046 12.1454 13.0295 12.206C13.0543 12.2787 13.0791 12.3515 13.0791 12.4242C13.0791 12.5818 13.0295 12.7151 12.9178 12.8242C12.8062 12.9333 12.6698 12.9818 12.5085 12.9818ZM12.2481 12.1454C12.2108 12.1939 12.186 12.2303 12.1612 12.2788C12.1364 12.3272 12.1364 12.3636 12.1364 12.4121C12.1364 12.5212 12.1736 12.606 12.2481 12.6788C12.3225 12.7515 12.4093 12.7878 12.5085 12.7878C12.6077 12.7878 12.6946 12.7515 12.769 12.6788C12.8434 12.606 12.8806 12.5212 12.8806 12.4121C12.8806 12.3636 12.8682 12.3151 12.8558 12.2788C12.831 12.2303 12.8062 12.1939 12.7814 12.1454C12.7442 12.1212 12.6946 12.0969 12.6574 12.0727C12.5581 12.0363 12.4465 12.0484 12.3597 12.0727C12.3101 12.0969 12.2729 12.1212 12.2481 12.1454ZM5.33953 8.08481C4.95504 8.08481 4.58294 8.01208 4.24806 7.86663C3.91318 7.72118 3.6031 7.51511 3.34263 7.27269C3.09457 7.01814 2.88372 6.70299 2.73488 6.3636C2.58604 6.02421 2.51163 5.64845 2.51163 5.26057C2.51163 4.47269 2.78449 3.80602 3.34263 3.24845C3.88837 2.70299 4.57054 2.4242 5.35194 2.4242C6.13333 2.4242 6.8155 2.70299 7.36124 3.24845C7.90697 3.7939 8.19225 4.47269 8.19225 5.26057C8.19225 5.64845 8.11783 6.01208 7.96899 6.3636C7.82015 6.70299 7.6093 7.01814 7.36124 7.27269C7.10077 7.52724 6.7907 7.72117 6.45581 7.87875C6.09612 8.01208 5.72403 8.08481 5.33953 8.08481ZM3.47907 7.13936C3.72713 7.36966 4 7.5636 4.32248 7.69693C4.63256 7.83027 4.97984 7.90299 5.33953 7.90299C5.69922 7.90299 6.03411 7.83027 6.35659 7.69693C6.67907 7.5636 6.95194 7.36966 7.2 7.13936C7.43566 6.89693 7.6217 6.60602 7.75814 6.29087C7.89457 5.97572 7.96899 5.62421 7.96899 5.26057C7.96899 4.5333 7.70852 3.90299 7.2 3.3939C6.69147 2.88481 6.05891 2.63027 5.33953 2.63027C4.60775 2.63027 3.98759 2.88481 3.47907 3.3939C2.97054 3.90299 2.71008 4.5333 2.71008 5.26057C2.71008 5.62421 2.78449 5.9636 2.92093 6.29087C3.05736 6.60602 3.24341 6.88481 3.47907 7.13936ZM5.32713 7.66057C5.2155 7.66057 5.12868 7.62421 5.05426 7.55148C4.97984 7.47875 4.94263 7.38178 4.94263 7.27269V7.26057C4.94263 7.15148 4.97984 7.06663 5.05426 6.98178C5.12868 6.90905 5.2279 6.87269 5.32713 6.87269H5.35194C5.46356 6.87269 5.55038 6.90905 5.6248 6.98178C5.69922 7.05451 5.73643 7.15148 5.73643 7.26057C5.73643 7.36966 5.69922 7.46663 5.6124 7.53936C5.53798 7.62421 5.43876 7.66057 5.32713 7.66057ZM5.32713 7.06663C5.27752 7.06663 5.2279 7.07875 5.1907 7.11511C5.15349 7.15148 5.14108 7.19996 5.14108 7.24845V7.27269C5.14108 7.3333 5.15349 7.36966 5.1907 7.40602C5.2279 7.44239 5.26511 7.45451 5.32713 7.45451C5.38914 7.45451 5.43876 7.43027 5.48837 7.3939C5.52558 7.34542 5.55038 7.30905 5.55038 7.24845C5.55038 7.18784 5.53798 7.15148 5.50077 7.11511C5.46356 7.07875 5.42635 7.06663 5.36434 7.06663H5.32713ZM3.91318 7.09087C3.85116 7.09087 3.80155 7.07875 3.75194 7.04239C3.71473 7.01814 3.67752 6.98178 3.64031 6.94542C3.6031 6.92117 3.57829 6.87269 3.55349 6.83633C3.52868 6.78784 3.52868 6.73936 3.52868 6.69087C3.52868 6.64239 3.54108 6.58178 3.55349 6.54542C3.57829 6.49693 3.6031 6.46057 3.64031 6.43633C3.66511 6.39996 3.71473 6.3636 3.75194 6.35148C3.80155 6.32724 3.85116 6.31511 3.90077 6.31511H3.91318C3.96279 6.31511 4.0248 6.32724 4.06201 6.35148C4.11163 6.37572 4.14883 6.39996 4.17364 6.43633C4.21085 6.46057 4.23566 6.50905 4.26046 6.54542C4.28527 6.5939 4.28527 6.64239 4.28527 6.69087C4.28527 6.73936 4.29767 6.78784 4.28527 6.83633C4.26046 6.88481 4.23566 6.92117 4.19845 6.94542C4.17364 6.98178 4.13643 7.01814 4.08682 7.04239C4.03721 7.06663 3.97519 7.09087 3.91318 7.09087ZM3.91318 6.49693C3.87597 6.49693 3.85116 6.49693 3.82635 6.50905C3.81395 6.52117 3.80155 6.52117 3.78914 6.54542V6.55754L3.77674 6.56966C3.76434 6.58178 3.75194 6.5939 3.73953 6.60602C3.72713 6.63027 3.72713 6.65451 3.72713 6.67875C3.72713 6.70299 3.72713 6.72724 3.73953 6.75148C3.75194 6.77572 3.75194 6.78784 3.77674 6.78784L3.78914 6.79996L3.80155 6.81208C3.81395 6.82421 3.82635 6.84845 3.85116 6.86057C3.90077 6.88481 3.96279 6.88481 4 6.86057C4.0248 6.84845 4.03721 6.83633 4.04961 6.81208L4.06201 6.79996L4.07442 6.78784C4.08682 6.77572 4.09922 6.7636 4.11163 6.75148C4.12403 6.72724 4.12403 6.70299 4.12403 6.67875C4.12403 6.65451 4.12403 6.63027 4.11163 6.60602C4.09922 6.58178 4.09922 6.56966 4.07442 6.56966L4.06201 6.55754L4.03721 6.54542C4.0248 6.5333 4.0124 6.52117 4 6.50905C3.97519 6.49693 3.95039 6.49693 3.91318 6.49693ZM6.76589 7.06663H6.74108C6.64186 7.05451 6.55504 7.01814 6.48062 6.94542C6.4062 6.87269 6.36899 6.78784 6.36899 6.67875C6.36899 6.56966 6.4062 6.48481 6.48062 6.39996C6.55504 6.32724 6.65426 6.29087 6.75349 6.29087H6.76589C6.8279 6.29087 6.87752 6.30299 6.92713 6.32724C6.96434 6.35148 7.00155 6.37572 7.02635 6.41208C7.06356 6.43633 7.08837 6.47269 7.11318 6.52117C7.13798 6.56966 7.15038 6.63027 7.15038 6.67875C7.15038 6.73936 7.13798 6.78784 7.11318 6.83633C7.08837 6.87269 7.06356 6.90905 7.02635 6.94542C7.00155 6.98178 6.96434 7.00602 6.92713 7.03027C6.87752 7.05451 6.8155 7.06663 6.76589 7.06663ZM6.75349 6.87269C6.7907 6.87269 6.8031 6.87269 6.8279 6.86057C6.84031 6.84845 6.85271 6.83633 6.86511 6.8242L6.87752 6.81208L6.88992 6.79996C6.90232 6.78784 6.92713 6.77572 6.93953 6.75148C6.95194 6.72724 6.95194 6.70299 6.95194 6.67875C6.95194 6.65451 6.95194 6.63027 6.93953 6.61814C6.92713 6.5939 6.91473 6.58178 6.88992 6.56966L6.87752 6.55754L6.86511 6.54542C6.85271 6.5333 6.84031 6.52117 6.8279 6.50905C6.8155 6.49693 6.7907 6.49693 6.76589 6.49693H6.75349C6.70387 6.49693 6.65426 6.50905 6.61705 6.54542C6.57984 6.58178 6.56744 6.63027 6.56744 6.67875C6.56744 6.72724 6.57984 6.77572 6.61705 6.79996C6.65426 6.84845 6.70387 6.87269 6.75349 6.87269ZM5.32713 6.67875C4.95504 6.66663 4.63256 6.5333 4.37209 6.26663C4.11163 6.01208 3.97519 5.68481 3.96279 5.30905V5.29693C3.96279 5.11511 4 4.9333 4.06201 4.77572C4.12403 4.61814 4.22325 4.46057 4.33488 4.33936L4.35969 4.30299H4.3969C4.50852 4.1939 4.64496 4.10905 4.8062 4.04845C5.14108 3.90299 5.53798 3.90299 5.87287 4.04845C6.04651 4.12118 6.18294 4.21814 6.30697 4.33936C6.43101 4.46057 6.54263 4.60602 6.60465 4.77572C6.67907 4.94542 6.71628 5.12724 6.71628 5.30905C6.71628 5.68481 6.57984 6.01208 6.30697 6.29087C6.03411 6.5333 5.69922 6.67875 5.32713 6.67875ZM4.16124 5.29693C4.17364 5.62421 4.28527 5.90299 4.50852 6.1333C4.73178 6.3636 5.00465 6.47269 5.32713 6.48481C5.64961 6.48481 5.92248 6.37572 6.15814 6.1333C6.3938 5.89087 6.50542 5.62421 6.50542 5.28481C6.50542 5.12724 6.48062 4.96966 6.4186 4.8242C6.35659 4.67875 6.26976 4.55754 6.15814 4.46057C6.05891 4.35148 5.93488 4.27875 5.78604 4.21814C5.50077 4.09693 5.16589 4.09693 4.88062 4.21814C4.73178 4.27875 4.60775 4.3636 4.50852 4.46057L4.48372 4.48481H4.45891C4.37209 4.5939 4.29767 4.70299 4.24806 4.83633C4.18604 4.96966 4.16124 5.12724 4.16124 5.28481L4.06201 5.29693H4.16124ZM5.32713 6.29087C5.1907 6.29087 5.05426 6.26663 4.93023 6.20602C4.8186 6.15754 4.73178 6.09693 4.64496 6.01208H4.60775L4.58294 5.97572C4.50852 5.89087 4.44651 5.78178 4.3969 5.64845C4.34728 5.52724 4.32248 5.3939 4.32248 5.26057C4.32248 5.12724 4.34728 4.9939 4.3969 4.87269C4.44651 4.75148 4.50852 4.64239 4.58294 4.54542L4.59535 4.5333C4.69457 4.44845 4.8062 4.37572 4.91783 4.31511C5.15349 4.20602 5.46356 4.1939 5.71163 4.31511C5.83566 4.37572 5.94728 4.43633 6.03411 4.5333C6.13333 4.63027 6.19535 4.72724 6.24496 4.84845C6.29457 4.96966 6.31938 5.10299 6.31938 5.24845V5.26057C6.31938 5.40602 6.29457 5.53936 6.24496 5.66057C6.19535 5.78178 6.12093 5.89087 6.03411 5.97572C5.94728 6.06057 5.83566 6.1333 5.71163 6.1939C5.6 6.26663 5.46356 6.29087 5.32713 6.29087ZM4.70697 5.83027H4.73178L4.75659 5.85451C4.83101 5.92724 4.91783 5.98784 5.01705 6.03633C5.2155 6.1333 5.46356 6.12117 5.64961 6.03633C5.74883 5.98784 5.83566 5.92724 5.91007 5.85451C5.98449 5.78178 6.03411 5.69693 6.08372 5.59996C6.12093 5.50299 6.14573 5.3939 6.14573 5.27269V5.26057C6.14573 5.13936 6.12093 5.03027 6.08372 4.94542C6.04651 4.84845 5.98449 4.7636 5.91007 4.69087C5.83566 4.61814 5.73643 4.55754 5.63721 4.50905C5.42635 4.41208 5.1907 4.42421 5.00465 4.50905C4.90542 4.55754 4.8186 4.61814 4.73178 4.69087C4.66976 4.7636 4.62015 4.84845 4.58294 4.95754C4.54573 5.06663 4.52093 5.17572 4.52093 5.28481C4.52093 5.3939 4.54573 5.50299 4.58294 5.61208C4.60775 5.68481 4.64496 5.75754 4.70697 5.83027ZM5.32713 5.86663C5.16589 5.86663 5.02945 5.80602 4.91783 5.69693C4.8062 5.58784 4.74418 5.44239 4.74418 5.28481V5.24845C4.74418 5.17572 4.75659 5.10299 4.7938 5.03027C4.8186 4.95754 4.85581 4.89693 4.90542 4.83633L4.91783 4.8242C4.97984 4.77572 5.04186 4.73936 5.10387 4.71511C5.17829 4.67875 5.25271 4.66663 5.32713 4.66663H5.33953C5.42635 4.66663 5.51318 4.67875 5.57519 4.71511C5.63721 4.73936 5.69922 4.77572 5.76124 4.8242C5.82325 4.88481 5.86046 4.9333 5.89767 5.00602C5.93488 5.07875 5.94728 5.1636 5.94728 5.24845C5.94728 5.41814 5.88527 5.5636 5.76124 5.68481C5.63721 5.80602 5.48837 5.86663 5.32713 5.86663ZM5.04186 4.96966C5.00465 5.00602 4.97984 5.05451 4.96744 5.10299C4.94263 5.15148 4.94263 5.19996 4.94263 5.24845V5.28481C4.94263 5.3939 4.97984 5.47875 5.05426 5.5636C5.12868 5.63633 5.2155 5.68481 5.32713 5.68481C5.43876 5.68481 5.53798 5.64845 5.6248 5.5636C5.71163 5.47875 5.74883 5.38178 5.74883 5.26057C5.74883 5.19996 5.73643 5.15148 5.71163 5.10299C5.68682 5.05451 5.66201 5.00602 5.6248 4.98178C5.58759 4.95754 5.53798 4.92117 5.48837 4.90905C5.45116 4.88481 5.40155 4.88481 5.33953 4.88481H5.32713C5.27752 4.88481 5.2279 4.89693 5.17829 4.90905C5.12868 4.92117 5.07907 4.94542 5.04186 4.96966ZM7.32403 5.67269C7.2124 5.67269 7.12558 5.63633 7.05116 5.5636C6.97674 5.49087 6.93953 5.3939 6.93953 5.28481V5.24845C6.93953 5.13936 6.97674 5.05451 7.05116 4.96966C7.12558 4.89693 7.2248 4.86057 7.32403 4.86057H7.33643C7.44806 4.86057 7.54728 4.89693 7.6217 4.96966C7.69612 5.04239 7.73333 5.13936 7.73333 5.24845C7.73333 5.36966 7.69612 5.46663 7.6093 5.53936C7.53488 5.63633 7.43566 5.67269 7.32403 5.67269ZM7.32403 5.06663C7.27442 5.06663 7.2248 5.07875 7.18759 5.11511C7.15038 5.15148 7.13798 5.19996 7.13798 5.24845V5.28481C7.13798 5.34542 7.15038 5.38178 7.18759 5.41814C7.26201 5.49087 7.37364 5.49087 7.46046 5.40602C7.49767 5.36966 7.52248 5.30905 7.52248 5.24845C7.52248 5.18784 7.51008 5.15148 7.47287 5.11511C7.43566 5.07875 7.39845 5.06663 7.33643 5.06663H7.32403ZM3.33023 5.67269C3.2186 5.67269 3.13178 5.63633 3.05736 5.5636C2.98294 5.49087 2.94573 5.3939 2.94573 5.28481V5.24845C2.94573 5.13936 2.98294 5.05451 3.05736 4.96966C3.13178 4.89693 3.23101 4.86057 3.33023 4.86057H3.34263C3.45426 4.86057 3.54108 4.89693 3.6155 4.96966C3.68992 5.04239 3.72713 5.13936 3.72713 5.24845C3.72713 5.36966 3.68992 5.46663 3.6031 5.53936C3.54108 5.63633 3.44186 5.67269 3.33023 5.67269ZM3.33023 5.06663C3.28062 5.06663 3.23101 5.07875 3.1938 5.11511C3.15659 5.15148 3.14418 5.19996 3.14418 5.24845V5.28481C3.14418 5.34542 3.15659 5.38178 3.1938 5.41814C3.26821 5.49087 3.37984 5.49087 3.46666 5.40602C3.50387 5.36966 3.52868 5.30905 3.52868 5.24845C3.52868 5.18784 3.51628 5.15148 3.47907 5.11511C3.44186 5.07875 3.40465 5.06663 3.34263 5.06663H3.33023ZM6.75349 4.24239C6.70387 4.24239 6.64186 4.23027 6.60465 4.20602C6.55504 4.18178 6.51783 4.15754 6.49302 4.12117C6.45581 4.09693 6.43101 4.06057 6.4062 4.02421C6.38139 3.97572 6.36899 3.92724 6.36899 3.87875V3.84239C6.36899 3.7333 6.4062 3.64845 6.48062 3.5636C6.55504 3.49087 6.65426 3.45451 6.75349 3.45451C6.8031 3.45451 6.86511 3.46663 6.90232 3.49087C6.95194 3.51511 6.98914 3.53936 7.01395 3.5636L7.03876 3.58784V3.59996C7.06356 3.62421 7.08837 3.66057 7.10077 3.68481C7.12558 3.7333 7.12558 3.78178 7.12558 3.83027V3.86663C7.12558 3.92724 7.11318 3.97572 7.08837 4.01208C7.06356 4.04845 7.03876 4.08481 7.00155 4.10905C6.97674 4.14542 6.92713 4.18178 6.88992 4.1939C6.85271 4.23027 6.8031 4.24239 6.75349 4.24239ZM6.75349 3.64845C6.70387 3.64845 6.65426 3.66057 6.61705 3.69693C6.57984 3.7333 6.56744 3.78178 6.56744 3.83027V3.86663C6.56744 3.89087 6.56744 3.91511 6.57984 3.92724C6.59225 3.93936 6.60465 3.95148 6.61705 3.9636L6.62946 3.97572L6.64186 3.98784C6.65426 3.99996 6.66666 4.01208 6.67907 4.02421C6.72868 4.04845 6.77829 4.04845 6.8279 4.02421C6.84031 4.01208 6.85271 4.01208 6.86511 3.98784L6.87752 3.97572L6.88992 3.9636C6.90232 3.95148 6.91473 3.93936 6.92713 3.92724C6.93953 3.91511 6.93953 3.89087 6.93953 3.86663V3.83027C6.93953 3.80602 6.93953 3.78178 6.92713 3.75754C6.91473 3.74542 6.91473 3.72117 6.88992 3.72117L6.85271 3.69693V3.67269C6.84031 3.67269 6.84031 3.66057 6.8279 3.66057C6.8031 3.64845 6.77829 3.64845 6.75349 3.64845ZM3.92558 4.24239C3.85116 4.24239 3.80155 4.23027 3.75194 4.20602C3.70232 4.18178 3.66511 4.15754 3.64031 4.12117C3.6031 4.09693 3.57829 4.04845 3.55349 4.01208C3.52868 3.9636 3.52868 3.91511 3.52868 3.86663C3.52868 3.81814 3.54108 3.75754 3.55349 3.70905C3.57829 3.66057 3.6031 3.61208 3.64031 3.5636L3.81395 3.3939V3.47875C3.90077 3.45451 4 3.45451 4.08682 3.49087C4.13643 3.51511 4.17364 3.53936 4.19845 3.57572C4.23566 3.59996 4.26046 3.64845 4.28527 3.68481C4.31008 3.7333 4.31008 3.78178 4.31008 3.83027V3.84239C4.31008 3.95148 4.27287 4.03633 4.19845 4.12117C4.12403 4.20602 4.03721 4.24239 3.92558 4.24239ZM3.72713 3.7939C3.72713 3.81814 3.71473 3.83027 3.71473 3.85451C3.71473 3.87875 3.71473 3.90299 3.72713 3.92724C3.73953 3.95148 3.73953 3.9636 3.76434 3.9636L3.77674 3.97572L3.78914 3.98784C3.80155 3.99996 3.81395 4.01208 3.82635 4.02421C3.85116 4.03633 3.87597 4.03633 3.90077 4.03633H3.91318C3.96279 4.03633 4.0124 4.0242 4.04961 3.98784C4.08682 3.95148 4.09922 3.90299 4.09922 3.85451V3.84239C4.09922 3.81814 4.09922 3.7939 4.08682 3.76966C4.07442 3.74542 4.07442 3.7333 4.04961 3.7333L4.03721 3.72117V3.69693C4.0248 3.68481 4.0124 3.67269 4 3.66057C3.95039 3.63633 3.90077 3.63633 3.83876 3.66057C3.81395 3.67269 3.80155 3.67269 3.78914 3.69693L3.72713 3.7939ZM5.32713 3.66057C5.2155 3.66057 5.12868 3.6242 5.05426 3.55148C4.97984 3.47875 4.94263 3.38178 4.94263 3.27269V3.26057C4.94263 3.15148 4.97984 3.06663 5.05426 2.98178C5.12868 2.90905 5.2279 2.87269 5.32713 2.87269H5.35194C5.46356 2.87269 5.55038 2.90905 5.6248 2.98178C5.69922 3.05451 5.73643 3.15148 5.73643 3.26057C5.73643 3.36966 5.69922 3.46663 5.6124 3.53936C5.53798 3.62421 5.43876 3.66057 5.32713 3.66057ZM5.32713 3.06663C5.27752 3.06663 5.2279 3.07875 5.1907 3.11511C5.15349 3.15148 5.14108 3.19996 5.14108 3.24845V3.26057C5.14108 3.32117 5.15349 3.35754 5.1907 3.3939C5.2279 3.43027 5.26511 3.44239 5.32713 3.44239C5.38914 3.44239 5.43876 3.41814 5.48837 3.38178C5.52558 3.3333 5.55038 3.29693 5.55038 3.23633C5.55038 3.17572 5.53798 3.13936 5.50077 3.10299C5.46356 3.06663 5.42635 3.05451 5.36434 3.05451H5.32713V3.06663Z" fill="#2D3E50"/>
</g>
</svg>
