<svg width="12" height="12" viewBox="0 0 12 12" fill="none" xmlns="http://www.w3.org/2000/svg">
<path d="M9.68167 11.5447C9.44327 11.4636 9.1878 11.4145 8.97072 11.2939C8.66228 11.1222 8.3801 10.902 8.09142 10.6959C7.08123 9.97462 6.0605 9.26907 5.06985 8.52288C3.91195 7.65068 2.77037 6.75708 1.6451 5.84207C1.01654 5.3271 0.661854 4.62177 0.520204 3.81677C0.5151 3.79569 0.508345 3.77505 0.5 3.75504V3.21627C0.5086 3.19647 0.515217 3.17587 0.519755 3.15476C0.609549 2.36906 0.940664 1.70728 1.54835 1.19254C1.88507 0.907665 2.2429 0.66118 2.68716 0.576774C2.84767 0.546244 3.00997 0.525367 3.17137 0.5H3.75504C3.92564 0.53704 4.09827 0.567346 4.26686 0.612243C4.91181 0.783974 5.43059 1.14719 5.83063 1.67653C7.59658 4.01432 9.36088 6.3533 11.1235 8.69348C11.3135 8.94505 11.4371 9.24044 11.4827 9.55237C11.4869 9.56618 11.4927 9.57945 11.5 9.59187V10.0857C11.4908 10.1089 11.4828 10.1326 11.4762 10.1567C11.3415 10.7554 11.0225 11.2048 10.4344 11.4279C10.2871 11.4838 10.1275 11.5067 9.9735 11.5449L9.68167 11.5447ZM10.18 8.4268L6.31596 3.36578C6.3218 4.20378 6.05736 4.9264 5.47122 5.515C4.88509 6.1036 4.16921 6.37994 3.30404 6.35906L8.38257 10.2063C8.31523 9.67224 8.43914 9.22147 8.80146 8.84658C9.17276 8.46249 9.62824 8.34666 10.18 8.4268ZM3.41135 1.15774C2.16725 1.16762 1.07311 2.25345 1.15123 3.60418C1.22194 4.83705 2.24537 5.8845 3.59543 5.81783C4.92797 5.75206 5.85801 4.60426 5.80234 3.35321C5.75004 2.19958 4.7522 1.11038 3.41135 1.15774ZM8.8852 9.89493C8.87375 10.4297 9.30656 10.8762 9.84734 10.8869C10.4034 10.8979 10.8351 10.4815 10.845 9.92501C10.8497 9.6639 10.7506 9.41159 10.5693 9.22355C10.3881 9.03551 10.1396 8.92713 9.87854 8.92224C9.33327 8.91505 8.89709 9.34202 8.8852 9.89493Z" fill="#2D3E50"/>
<path d="M4.72416 3.51283C4.73 4.20177 4.16789 4.7778 3.48388 4.78386C2.80414 4.78993 2.2308 4.21816 2.22676 3.52899C2.22317 2.78819 2.74757 2.29971 3.45694 2.27996C4.15779 2.26087 4.71855 2.81782 4.72416 3.51283ZM4.16093 3.49756C4.16205 3.1009 3.85653 2.79021 3.46345 2.78819C3.06275 2.78617 2.77047 3.09125 2.76216 3.50228C2.75318 3.93598 3.12291 4.21569 3.46525 4.21906C3.85496 4.22288 4.15936 3.90478 4.16093 3.49756Z" fill="#2D3E50"/>
<path d="M5.25522 3.12265C5.47432 3.12265 5.6346 3.27799 5.63393 3.49103C5.63393 3.70945 5.45861 3.88927 5.24804 3.88792C5.03747 3.88657 4.87921 3.71933 4.87921 3.5063C4.87944 3.27957 5.03321 3.12332 5.25522 3.12265Z" fill="#2D3E50"/>
<path d="M3.46635 2.09384C3.25264 2.09518 3.0946 1.9367 3.09303 1.71962C3.09146 1.4985 3.24882 1.34249 3.47465 1.34181C3.69285 1.34181 3.85628 1.49514 3.86054 1.70615C3.86481 1.91717 3.68567 2.09249 3.46635 2.09384Z" fill="#2D3E50"/>
<path d="M3.46792 5.66562C3.25331 5.66719 3.0946 5.50848 3.09303 5.29275C3.09168 5.07141 3.2477 4.91539 3.47286 4.91247C3.68836 4.91 3.85448 5.06692 3.85987 5.27659C3.86526 5.48626 3.68589 5.66315 3.46792 5.66562Z" fill="#2D3E50"/>
<path d="M1.69448 3.12265C1.90954 3.12265 2.07095 3.28136 2.07005 3.4935C2.06893 3.71035 1.89248 3.88994 1.68236 3.88792C1.63288 3.88705 1.58406 3.87637 1.53874 3.85649C1.49341 3.83662 1.45248 3.80794 1.41832 3.77213C1.38416 3.73632 1.35745 3.69409 1.33973 3.64788C1.32201 3.60167 1.31364 3.5524 1.3151 3.50293C1.31713 3.27799 1.47112 3.12355 1.69448 3.12265Z" fill="#2D3E50"/>
<path d="M2.20764 2.61015C2.1093 2.61082 2.01467 2.57267 1.94427 2.504C1.87388 2.43533 1.8334 2.34167 1.83163 2.24334C1.82916 2.02312 1.99057 1.85969 2.21169 1.85835C2.26139 1.85761 2.31072 1.86691 2.35674 1.88571C2.40276 1.9045 2.4445 1.9324 2.47947 1.96773C2.51444 2.00305 2.54191 2.04508 2.56024 2.09128C2.57857 2.13748 2.58737 2.18692 2.58613 2.23661C2.58298 2.45346 2.4236 2.6106 2.20764 2.61015Z" fill="#2D3E50"/>
<path d="M2.20625 5.14934C2.01005 5.14934 1.83002 4.96593 1.83069 4.76614C1.83233 4.66813 1.87222 4.57465 1.94185 4.50565C2.01147 4.43665 2.10532 4.39761 2.20334 4.39686C2.41098 4.39507 2.58496 4.56568 2.58496 4.76884C2.58496 4.972 2.40537 5.14934 2.20625 5.14934Z" fill="#2D3E50"/>
<path d="M5.1037 2.24405C5.10308 2.29254 5.09291 2.34044 5.07378 2.38501C5.05466 2.42957 5.02693 2.46993 4.99221 2.50379C4.92207 2.57216 4.82765 2.60986 4.72971 2.60861C4.63177 2.60736 4.53834 2.56726 4.46997 2.49712C4.4016 2.42698 4.36389 2.33256 4.36514 2.23462C4.36514 2.01754 4.5261 1.85614 4.73913 1.85816C4.95217 1.86018 5.10482 2.02383 5.1037 2.24405Z" fill="#2D3E50"/>
<path d="M4.74071 4.39571C4.92883 4.39571 5.11807 4.57979 5.12031 4.76477C5.12256 4.94166 4.93309 5.13315 4.75418 5.13539C4.53845 5.13786 4.36245 4.96748 4.36514 4.75893C4.36593 4.71042 4.37627 4.66253 4.39558 4.61802C4.41489 4.5735 4.44277 4.53322 4.47765 4.49949C4.51253 4.46576 4.55372 4.43923 4.59885 4.42143C4.64399 4.40362 4.69219 4.39488 4.74071 4.39571V4.39571Z" fill="#2D3E50"/>
<path d="M9.86636 9.36604C10.1744 9.36604 10.402 9.59053 10.4015 9.89201C10.4026 9.96253 10.3896 10.0326 10.3633 10.098C10.337 10.1634 10.2979 10.2229 10.2483 10.2731C10.1987 10.3232 10.1396 10.363 10.0744 10.39C10.0093 10.417 9.93941 10.4307 9.86889 10.4304C9.79837 10.4301 9.72861 10.4157 9.66372 10.3881C9.59883 10.3604 9.5401 10.3202 9.49096 10.2696C9.44183 10.219 9.40329 10.1591 9.37759 10.0934C9.35189 10.0277 9.33955 9.95758 9.34129 9.88707C9.34084 9.58424 9.56083 9.36582 9.86636 9.36604Z" fill="#2D3E50"/>
<path d="M2.91797 3.50723C2.91797 3.17993 3.14807 2.94601 3.46953 2.94601C3.78381 2.94601 4.03074 3.18621 4.03231 3.49062C4.0324 3.56625 4.01756 3.64117 3.98863 3.71105C3.95971 3.78094 3.91727 3.84444 3.86376 3.89789C3.81024 3.95134 3.7467 3.99371 3.67678 4.02255C3.60685 4.05139 3.53192 4.06615 3.45628 4.06597C3.15772 4.06148 2.91819 3.8132 2.91797 3.50723Z" fill="#2D3E50"/>
</svg>
