<svg width="24" height="24" viewBox="0 0 24 24" fill="none" xmlns="http://www.w3.org/2000/svg">
<path d="M19.3633 23.0893C18.8865 22.9273 18.3756 22.8289 17.9414 22.5878C17.3246 22.2444 16.7602 21.8039 16.1828 21.3918C14.1625 19.9492 12.121 18.5381 10.1397 17.0458C7.8239 15.3014 5.54074 13.5142 3.2902 11.6841C2.03308 10.6542 1.32371 9.24355 1.04041 7.63354C1.0302 7.59139 1.01669 7.5501 1 7.51007V6.43254C1.0172 6.39294 1.03043 6.35173 1.03951 6.30952C1.2191 4.73813 1.88133 3.41456 3.09669 2.38507C3.77015 1.81533 4.48581 1.32236 5.37432 1.15355C5.69533 1.09249 6.01994 1.05073 6.34275 1H7.51007C7.85129 1.07408 8.19655 1.13469 8.53372 1.22449C9.82362 1.56795 10.8612 2.29438 11.6613 3.35305C15.1932 8.02863 18.7218 12.7066 22.2471 17.387C22.6271 17.8901 22.8741 18.4809 22.9654 19.1047C22.9737 19.1324 22.9853 19.1589 23 19.1837V20.1715C22.9815 20.2179 22.9656 20.2652 22.9524 20.3134C22.683 21.5108 22.045 22.4096 20.8687 22.8559C20.5742 22.9677 20.255 23.0135 19.947 23.0898L19.3633 23.0893ZM20.3601 16.8536L12.6319 6.73156C12.6436 8.40756 12.1147 9.8528 10.9424 11.03C9.77019 12.2072 8.33842 12.7599 6.60809 12.7181L16.7651 20.4126C16.6305 19.3445 16.8783 18.4429 17.6029 17.6932C18.3455 16.925 19.2565 16.6933 20.3601 16.8536ZM6.8227 2.31548C4.3345 2.33524 2.14622 4.50691 2.30246 7.20836C2.44389 9.67411 4.49075 11.769 7.19085 11.6357C9.85594 11.5041 11.716 9.20853 11.6047 6.70641C11.5001 4.39915 9.5044 2.22075 6.8227 2.31548ZM17.7704 19.7899C17.7475 20.8593 18.6131 21.7523 19.6947 21.7739C20.8068 21.7959 21.6702 20.963 21.6899 19.85C21.6994 19.3278 21.5011 18.8232 21.1387 18.4471C20.7762 18.071 20.2793 17.8543 19.7571 17.8445C18.6665 17.8301 17.7942 18.684 17.7704 19.7899Z" fill="#2D3E50"/>
<path d="M9.44832 7.02563C9.46 8.40352 8.33577 9.55558 6.96776 9.5677C5.60828 9.57982 4.46161 8.43629 4.45353 7.05795C4.44634 5.57635 5.49514 4.59939 6.91389 4.55988C8.31557 4.52172 9.4371 5.63562 9.44832 7.02563ZM8.32186 6.9951C8.3241 6.20177 7.71305 5.58039 6.92691 5.57635C6.12549 5.57231 5.54093 6.18246 5.52432 7.00453C5.50636 7.87194 6.24582 8.43135 6.9305 8.43809C7.70991 8.44572 8.31871 7.80953 8.32186 6.9951Z" fill="#2D3E50"/>
<path d="M10.5105 6.2453C10.9487 6.2453 11.2693 6.55599 11.2679 6.98206C11.2679 7.41891 10.9173 7.77853 10.4961 7.77584C10.075 7.77315 9.75848 7.43866 9.75848 7.01259C9.75893 6.55913 10.0665 6.24665 10.5105 6.2453Z" fill="#2D3E50"/>
<path d="M6.93276 4.18768C6.50534 4.19037 6.18926 3.8734 6.18612 3.43924C6.18298 2.99701 6.4977 2.68497 6.94937 2.68362C7.38577 2.68362 7.71262 2.99027 7.72115 3.4123C7.72968 3.83434 7.3714 4.18498 6.93276 4.18768Z" fill="#2D3E50"/>
<path d="M6.93589 11.3312C6.50668 11.3344 6.18926 11.017 6.18611 10.5855C6.18342 10.1428 6.49545 9.83078 6.94577 9.82495C7.37678 9.82001 7.70902 10.1338 7.7198 10.5532C7.73057 10.9725 7.37184 11.3263 6.93589 11.3312Z" fill="#2D3E50"/>
<path d="M3.38897 6.2453C3.81908 6.2453 4.14189 6.56272 4.1401 6.987C4.13785 7.4207 3.78496 7.77988 3.36473 7.77584C3.26576 7.7741 3.16812 7.75274 3.07747 7.71298C2.98682 7.67323 2.90497 7.61588 2.83664 7.54426C2.76832 7.47264 2.71489 7.38817 2.67946 7.29575C2.64402 7.20333 2.62728 7.1048 2.63021 7.00586C2.63425 6.55599 2.94224 6.2471 3.38897 6.2453Z" fill="#2D3E50"/>
<path d="M4.41523 5.2203C4.21855 5.22163 4.02927 5.14535 3.88848 5.008C3.74769 4.87066 3.66674 4.68333 3.6632 4.48668C3.65826 4.04624 3.98107 3.71939 4.42331 3.7167C4.52271 3.71521 4.62139 3.73383 4.71342 3.77142C4.80545 3.80901 4.88894 3.8648 4.95888 3.93545C5.02881 4.0061 5.08376 4.09015 5.12042 4.18256C5.15707 4.27497 5.17468 4.37383 5.17219 4.47321C5.16591 4.90692 4.84714 5.2212 4.41523 5.2203Z" fill="#2D3E50"/>
<path d="M4.41257 10.2987C4.02017 10.2987 3.66009 9.93187 3.66144 9.53228C3.66472 9.33627 3.7445 9.1493 3.88375 9.0113C4.02301 8.87331 4.21069 8.79523 4.40673 8.79373C4.82203 8.79014 5.16998 9.13135 5.16998 9.53767C5.16998 9.94399 4.81081 10.2987 4.41257 10.2987Z" fill="#2D3E50"/>
<path d="M10.2074 4.4881C10.2062 4.58508 10.1858 4.68088 10.1476 4.77001C10.1093 4.85914 10.0539 4.93987 9.98441 5.00757C9.84414 5.14431 9.65529 5.21972 9.45941 5.21722C9.26354 5.21472 9.07667 5.13451 8.93994 4.99424C8.8032 4.85396 8.72778 4.66512 8.73028 4.46924C8.73028 4.03508 9.0522 3.71227 9.47827 3.71632C9.90434 3.72036 10.2096 4.04766 10.2074 4.4881Z" fill="#2D3E50"/>
<path d="M9.48141 8.79141C9.85765 8.79141 10.2361 9.15957 10.2406 9.52952C10.2451 9.88331 9.86618 10.2663 9.50835 10.2708C9.07689 10.2757 8.7249 9.93494 8.73029 9.51785C8.73186 9.42082 8.75255 9.32505 8.79116 9.23602C8.82977 9.14698 8.88555 9.06643 8.95531 8.99897C9.02506 8.93151 9.10743 8.87845 9.1977 8.84284C9.28798 8.80722 9.38438 8.78975 9.48141 8.79141V8.79141Z" fill="#2D3E50"/>
<path d="M19.7327 18.7321C20.3487 18.7321 20.804 19.1811 20.8031 19.784C20.8052 19.9251 20.7792 20.0651 20.7266 20.196C20.674 20.3268 20.5958 20.4459 20.4966 20.5462C20.3974 20.6464 20.2792 20.7259 20.1489 20.7799C20.0186 20.834 19.8788 20.8615 19.7378 20.8608C19.5967 20.8601 19.4572 20.8313 19.3274 20.7761C19.1977 20.7209 19.0802 20.6403 18.9819 20.5391C18.8837 20.4379 18.8066 20.3181 18.7552 20.1868C18.7038 20.0554 18.6791 19.9152 18.6826 19.7741C18.6817 19.1685 19.1217 18.7316 19.7327 18.7321Z" fill="#2D3E50"/>
<path d="M5.83588 7.01447C5.83588 6.35987 6.29607 5.89204 6.939 5.89204C7.56756 5.89204 8.06142 6.37244 8.06457 6.98125C8.06474 7.13252 8.03506 7.28235 7.97721 7.42212C7.91936 7.5619 7.83448 7.68889 7.72745 7.79579C7.62042 7.9027 7.49334 7.98743 7.35349 8.04511C7.21364 8.1028 7.06378 8.13231 6.91251 8.13196C6.31538 8.12298 5.83633 7.62642 5.83588 7.01447Z" fill="#2D3E50"/>
</svg>
