<svg width="24" height="24" viewBox="0 0 24 24" fill="none" xmlns="http://www.w3.org/2000/svg">
<path d="M7.99069 10.4546H8.0093H8.0279C8.15813 10.4546 8.25116 10.4909 8.34418 10.5818C8.4186 10.6727 8.47441 10.7636 8.47441 10.8909C8.47441 11.0182 8.4372 11.1273 8.34418 11.2182C8.25116 11.3091 8.13953 11.3636 8.0093 11.3636C7.87906 11.3636 7.78604 11.3273 7.69302 11.2364C7.6186 11.1455 7.56278 11.0546 7.56278 10.9273V10.9091V10.8909C7.56278 10.7636 7.59999 10.6727 7.69302 10.5818C7.76744 10.5091 7.86046 10.4546 7.99069 10.4546ZM7.99069 5.34546C7.86046 5.34546 7.76744 5.3091 7.67441 5.21819C7.59999 5.12728 7.54418 5.03637 7.54418 4.9091V4.89091C7.54418 4.76364 7.58139 4.67273 7.67441 4.58182C7.74883 4.49091 7.86046 4.45455 7.99069 4.45455H8.0093H8.0279C8.15813 4.45455 8.25116 4.49091 8.34418 4.58182C8.4186 4.67273 8.47441 4.76364 8.47441 4.89091C8.47441 5.01819 8.4372 5.12728 8.34418 5.21819C8.23255 5.3091 8.12092 5.34546 7.99069 5.34546ZM5.88837 9.60001C5.94418 9.60001 5.99999 9.61819 6.05581 9.63637C6.11162 9.65455 6.14883 9.69091 6.18604 9.74546C6.22325 9.78182 6.26046 9.81819 6.29767 9.87273C6.31627 9.92728 6.33488 9.98182 6.33488 10.0364C6.33488 10.0909 6.31627 10.1455 6.29767 10.2C6.27906 10.2546 6.24185 10.2909 6.18604 10.3273C6.14883 10.3818 6.11162 10.4182 6.05581 10.4364C5.99999 10.4727 5.94418 10.4909 5.86976 10.4909C5.81395 10.4909 5.75813 10.4727 5.70232 10.4364C5.64651 10.4 5.6093 10.3636 5.57209 10.3273C5.53488 10.2909 5.49767 10.2546 5.46046 10.2C5.44185 10.1455 5.42325 10.0909 5.42325 10.0364C5.42325 9.98182 5.44185 9.92728 5.46046 9.87273C5.47906 9.81819 5.51627 9.78182 5.57209 9.74546C5.6093 9.69091 5.64651 9.67273 5.70232 9.63637C5.75813 9.60001 5.81395 9.60001 5.86976 9.60001H5.88837ZM4.75348 4.63637C5.18139 4.21819 5.66511 3.89091 6.22325 3.63637C6.78139 3.38182 7.37674 3.25455 8.0093 3.25455C8.64185 3.25455 9.25581 3.38182 9.81395 3.61819C10.3721 3.85455 10.8558 4.20001 11.2651 4.61819L11.5814 4.98182H11.6186L11.7116 5.05455L20.6419 16.8364C20.8093 17.0546 20.9395 17.2909 21.0326 17.5636C21.1256 17.8364 21.1814 18.1273 21.1814 18.4364C21.1814 18.8 21.107 19.1455 20.9767 19.4546C20.8465 19.7818 20.6419 20.0546 20.4 20.2909L20.2325 20.4546C20.0093 20.6546 19.7488 20.8 19.4512 20.9091C19.1535 21.0182 18.8558 21.0727 18.5209 21.0727C18.2232 21.0727 17.9256 21.0182 17.6465 20.9273C17.3674 20.8364 17.1256 20.6909 16.9209 20.5273L5.2186 11.6182L5.10697 11.5273L4.73488 11.1818C4.32558 10.7636 3.99069 10.2909 3.74883 9.72728C3.50697 9.16364 3.37674 8.56364 3.37674 7.92728C3.37674 7.3091 3.50697 6.7091 3.74883 6.14546C3.99069 5.58182 4.32558 5.09091 4.75348 4.69091V4.63637ZM17.4605 19.9636C17.6279 20.1273 17.8139 20.2546 18.0372 20.3455C18.2605 20.4364 18.5023 20.4909 18.7628 20.4909C19.0046 20.4909 19.2465 20.4546 19.4698 20.3455C19.693 20.2546 19.8977 20.1273 20.0651 19.9636C20.2326 19.8 20.3628 19.6 20.4558 19.3818C20.5488 19.1636 20.586 18.9273 20.586 18.6909V18.6727V18.6546C20.586 18.4182 20.5488 18.1818 20.4558 17.9636C20.3628 17.7455 20.2326 17.5455 20.0651 17.3818C19.8977 17.2182 19.7116 17.0727 19.4884 16.9818C19.2651 16.8909 19.0232 16.8364 18.7628 16.8364C18.2419 16.8364 17.8139 17.0182 17.4605 17.3636C17.107 17.7273 16.9209 18.1636 16.9209 18.6727C16.9209 18.9273 16.9767 19.1636 17.0698 19.4C17.1628 19.6 17.293 19.8 17.4605 19.9636ZM16.6232 19.6727L16.5488 19.4909C16.5116 19.3636 16.4744 19.2364 16.4372 19.1091C16.4186 18.9636 16.4 18.8364 16.4 18.6727C16.4 18.5091 16.4186 18.3455 16.4558 18.1636C16.493 18 16.5488 17.8364 16.6046 17.6909C16.7349 17.4182 16.9209 17.1818 17.1442 16.9636C17.3674 16.7455 17.6279 16.6 17.907 16.4909V16.4727C18.0372 16.4182 18.1674 16.4 18.2977 16.3636C18.4465 16.3455 18.5953 16.3273 18.7442 16.3273C18.893 16.3273 19.0419 16.3455 19.1721 16.3636C19.3023 16.3818 19.4512 16.4182 19.5814 16.4727L19.7674 16.5455L12.5116 7.01819V7.25455C12.5302 7.36364 12.5302 7.47273 12.5488 7.58182C12.5488 7.69092 12.5674 7.80001 12.5674 7.92728C12.5674 8.43637 12.493 8.94546 12.3256 9.41819C12.1581 9.89091 11.9349 10.3091 11.6558 10.6909C11.3023 11.1636 10.8744 11.5636 10.3535 11.8727C9.83255 12.2 9.25581 12.4 8.66046 12.4909H8.64185C8.54883 12.5091 8.45581 12.5091 8.32558 12.5273C8.21395 12.5273 8.10232 12.5455 7.99069 12.5455C7.86046 12.5455 7.74883 12.5455 7.6372 12.5273C7.52558 12.5273 7.41395 12.5091 7.30232 12.4909H7.32092H7.09767L16.6232 19.6727ZM5.10697 10.8C5.47906 11.1636 5.92558 11.4546 6.4093 11.6727C6.91162 11.8909 7.43255 12 7.99069 12C8.54883 12 9.08837 11.8909 9.57209 11.6727C10.0744 11.4546 10.5023 11.1636 10.8744 10.8C11.2465 10.4182 11.5256 9.98182 11.7488 9.47273C11.9721 8.96364 12.0837 8.43637 12.0837 7.87273C12.0837 6.72728 11.693 5.76364 10.893 4.96364C10.093 4.16364 9.12558 3.76364 7.99069 3.76364C6.85581 3.76364 5.88837 4.16364 5.08837 4.96364C4.28837 5.76364 3.89767 6.72728 3.89767 7.87273C3.89767 8.43637 4.0093 8.96364 4.23255 9.47273C4.45581 9.98182 4.75348 10.4182 5.10697 10.8ZM10.1302 9.60001H10.1488C10.2046 9.60001 10.2605 9.61819 10.3163 9.63637C10.3535 9.65455 10.3907 9.69091 10.4279 9.74546C10.4651 9.78182 10.5023 9.81819 10.5395 9.87273C10.5767 9.92728 10.5767 9.98182 10.5767 10.0364C10.5767 10.0909 10.5581 10.1455 10.5395 10.2C10.5023 10.2546 10.4651 10.2909 10.4279 10.3273C10.3907 10.3818 10.3535 10.4 10.3163 10.4364C10.2791 10.4546 10.2232 10.4727 10.1488 10.4727H10.1302H10.1116C9.98139 10.4546 9.88837 10.4182 9.79534 10.3273C9.72092 10.2546 9.66511 10.1455 9.66511 10.0364C9.66511 9.9091 9.70232 9.81819 9.79534 9.72728C9.90697 9.63637 9.99999 9.60001 10.1302 9.60001ZM10.986 7.45455H11.0046C11.1349 7.45455 11.2279 7.49091 11.3209 7.58182C11.3953 7.67273 11.4512 7.76364 11.4512 7.89091C11.4512 8.03637 11.4139 8.14546 11.3209 8.23637C11.2279 8.32728 11.1163 8.38182 11.0046 8.38182C10.893 8.38182 10.7814 8.34546 10.6884 8.25455C10.6139 8.16364 10.5581 8.07273 10.5581 7.94546V7.92728V7.9091C10.5581 7.78182 10.5953 7.69091 10.6884 7.60001C10.7628 7.49091 10.8744 7.45455 10.986 7.45455ZM5.46046 7.89091C5.46046 8.03637 5.42325 8.14546 5.33023 8.23637C5.2186 8.3091 5.12558 8.36364 4.99534 8.36364C4.86511 8.36364 4.77209 8.32728 4.67906 8.23637C4.60465 8.14546 4.54883 8.05455 4.54883 7.92728V7.9091V7.89091C4.54883 7.76364 4.58604 7.67273 4.67906 7.58182C4.75348 7.49091 4.86511 7.45455 4.99534 7.45455H5.01395H5.03255C5.16278 7.45455 5.25581 7.49091 5.34883 7.58182C5.40465 7.65455 5.46046 7.76364 5.46046 7.89091ZM9.83255 6.07273C9.79534 6.03637 9.75813 6.00001 9.72092 5.96364C9.70232 5.9091 9.68371 5.87273 9.68371 5.80001V5.78182V5.76364V5.74546V5.72728C9.68371 5.60001 9.72092 5.5091 9.81395 5.41819C9.88837 5.32728 9.99999 5.29091 10.1302 5.29091C10.186 5.29091 10.2419 5.3091 10.2977 5.32728C10.3535 5.34546 10.3907 5.38182 10.4279 5.40001V5.41819C10.4651 5.45455 10.5023 5.49091 10.5395 5.54546C10.5581 5.60001 10.5767 5.65455 10.5767 5.7091V5.72728V5.74546V5.76364V5.78182C10.5767 5.83637 10.5581 5.89091 10.5395 5.94546C10.5209 6.00001 10.4837 6.03637 10.4279 6.05455C10.3907 6.1091 10.3535 6.12728 10.2977 6.16364C10.2419 6.18182 10.186 6.20001 10.1302 6.20001C10.0744 6.20001 9.99999 6.20001 9.96278 6.18182C9.90697 6.16364 9.85116 6.12728 9.83255 6.07273ZM6.61395 6.58182H6.65116C6.8186 6.41819 7.02325 6.27273 7.24651 6.18182C7.48837 6.09091 7.73023 6.03637 7.99069 6.03637C8.25116 6.03637 8.49302 6.09091 8.73488 6.18182C8.97674 6.27273 9.16278 6.41819 9.33023 6.58182C9.51627 6.74546 9.64651 6.94546 9.75813 7.18182C9.85116 7.41819 9.90697 7.67273 9.90697 7.92728C9.90697 8.45455 9.72092 8.9091 9.33023 9.29091C8.93953 9.67273 8.49302 9.85455 7.97209 9.85455C7.45116 9.83637 7.02325 9.65455 6.65116 9.29091C6.27906 8.92728 6.09302 8.47273 6.07441 7.94546V7.92728V7.9091C6.07441 7.65455 6.11162 7.40001 6.20464 7.18182C6.31627 6.96364 6.44651 6.76364 6.61395 6.58182ZM6.98604 8.89091H7.02325C7.15348 9.01819 7.28371 9.1091 7.45116 9.18182C7.6186 9.25455 7.78604 9.29091 7.97209 9.29091C8.17674 9.29091 8.34418 9.25455 8.51162 9.18182C8.67906 9.1091 8.8279 9.00001 8.93953 8.89091C9.06976 8.76364 9.16278 8.61819 9.2186 8.45455C9.29302 8.29092 9.33023 8.1091 9.33023 7.9091V7.89091V7.87273C9.33023 7.67273 9.29302 7.49092 9.2186 7.34546C9.14418 7.18182 9.05116 7.03637 8.93953 6.92728C8.8093 6.80001 8.64185 6.7091 8.49302 6.63637C8.32557 6.56364 8.15813 6.52728 7.97209 6.52728C7.76744 6.52728 7.59999 6.56364 7.43255 6.63637C7.26511 6.7091 7.11627 6.81819 6.98604 6.92728C6.87441 7.05455 6.79999 7.20001 6.72557 7.36364C6.65116 7.54546 6.61395 7.7091 6.61395 7.89091C6.61395 8.07273 6.65116 8.25455 6.72557 8.41819C6.78139 8.61819 6.87441 8.76364 6.98604 8.89091ZM18.2046 18.1273H18.2419C18.2977 18.0727 18.3721 18.0182 18.4651 17.9818C18.5395 17.9455 18.6512 17.9273 18.7442 17.9273C18.8372 17.9273 18.9302 17.9455 19.0046 17.9818C19.0791 18.0182 19.1721 18.0546 19.2465 18.1273C19.3023 18.2 19.3581 18.2909 19.3953 18.3636C19.4326 18.4546 19.4512 18.5273 19.4512 18.6182C19.4512 18.8182 19.3767 18.9818 19.2465 19.1273C19.1163 19.2727 18.9488 19.3273 18.7442 19.3273C18.5395 19.3273 18.3721 19.2546 18.2419 19.1273C18.1116 18.9818 18.0372 18.8182 18.0372 18.6182C18.0372 18.5273 18.0558 18.4364 18.093 18.3636C18.1302 18.2727 18.186 18.2 18.2419 18.1273H18.2046ZM7.99069 7.14546H8.0093C8.12092 7.14546 8.21395 7.16364 8.28837 7.20001C8.36278 7.23637 8.45581 7.29092 8.53023 7.34546C8.58604 7.40001 8.64185 7.49091 8.69767 7.58182C8.73488 7.67273 8.77209 7.76364 8.77209 7.87273C8.77209 8.09091 8.69767 8.27273 8.54883 8.41819C8.39999 8.56364 8.21395 8.65455 8.0093 8.65455C7.80465 8.65455 7.6372 8.58182 7.48837 8.43637C7.33953 8.29092 7.26511 8.12728 7.26511 7.92728V7.9091V7.89091C7.26511 7.80001 7.28371 7.7091 7.32092 7.61819C7.35813 7.52728 7.41395 7.43637 7.46976 7.36364C7.54418 7.3091 7.6372 7.25455 7.71162 7.21819C7.80465 7.16364 7.89767 7.14546 7.99069 7.14546ZM5.88837 6.21819H5.86976C5.81395 6.21819 5.75813 6.20001 5.70232 6.18182C5.64651 6.16364 5.6093 6.12728 5.57209 6.07273C5.53488 6.03637 5.49767 6.00001 5.46046 5.94546C5.44185 5.89091 5.42325 5.83637 5.42325 5.78182C5.42325 5.72728 5.44185 5.65455 5.46046 5.60001C5.47906 5.54546 5.51627 5.49091 5.57209 5.43637V5.45455C5.6093 5.40001 5.64651 5.38182 5.70232 5.34546C5.75813 5.32728 5.83255 5.3091 5.88837 5.3091C5.94418 5.3091 5.99999 5.32728 6.05581 5.34546C6.11162 5.36364 6.14883 5.40001 6.18604 5.45455C6.22325 5.49091 6.26046 5.52728 6.29767 5.58182C6.31627 5.63637 6.33488 5.69091 6.33488 5.74546V5.76364V5.78182C6.33488 5.9091 6.29767 6.00001 6.20464 6.09091C6.11162 6.18182 5.99999 6.21819 5.88837 6.21819ZM3.45116 4.45455L3.95348 3.83637H3.99069C4.51162 3.32728 5.10697 2.9091 5.79534 2.61819C6.48371 2.32728 7.2279 2.18182 8.0093 2.18182C8.79069 2.18182 9.53488 2.32728 10.2232 2.61819C10.9116 2.9091 11.5256 3.32728 12.0279 3.83637L12.5488 4.45455L21.4791 16.2C21.7209 16.5091 21.907 16.8546 22.0558 17.2364C22.186 17.6182 22.2605 18.0364 22.2605 18.4546C22.2605 18.5455 22.2605 18.6364 22.2419 18.7091C22.2232 18.7818 22.2232 18.8727 22.2046 18.9636V18.9455C22.1488 19.4546 21.9814 19.9091 21.7209 20.3455C21.4605 20.7636 21.1442 21.1273 20.7349 21.4182C20.4372 21.6546 20.0837 21.8546 19.693 21.9818C19.3023 22.1091 18.893 22.1818 18.4651 22.1818C18.0372 22.1818 17.6465 22.1091 17.2558 21.9818C16.8837 21.8546 16.5302 21.6727 16.2139 21.4182H16.2884L4.56744 12.4909C3.95348 12.0546 3.46976 11.5091 3.07906 10.8546C2.68837 10.2 2.46511 9.49091 2.35348 8.72728V8.67273C2.33488 8.54546 2.31627 8.41819 2.31627 8.27273C2.29767 8.12728 2.29767 7.98182 2.29767 7.85455C2.29767 7.20001 2.4093 6.58182 2.61395 6.00001C2.8186 5.41819 3.11627 4.89091 3.48837 4.41819L3.45116 4.45455ZM3.86046 11.0909L4.28837 11.5455V11.6182L4.8093 12.0546L16.586 21.0364C16.8465 21.2364 17.1442 21.4 17.4791 21.5091C17.8139 21.6364 18.1674 21.6909 18.5395 21.6909C19.4326 21.6909 20.1953 21.3818 20.8279 20.7455C21.4605 20.1091 21.7767 19.3455 21.7767 18.4546C21.7767 18.0909 21.7209 17.7273 21.5907 17.4C21.4605 17.0727 21.293 16.7455 21.0884 16.4727L21.107 16.4909L12.1581 4.76364C11.6744 4.21819 11.0977 3.78182 10.4093 3.47273C9.73953 3.14546 9.01395 3.00001 8.23255 3.00001C7.50697 3.00001 6.8186 3.14546 6.18604 3.41819C5.57209 3.69091 5.01395 4.07273 4.53023 4.52728C4.04651 4.98182 3.67441 5.54546 3.39534 6.20001C3.11627 6.83637 2.98604 7.52728 2.98604 8.25455C2.98604 8.78182 3.06046 9.29091 3.2093 9.78182C3.35813 10.2727 3.58139 10.7273 3.84185 11.1455V11.0909H3.86046Z" fill="#2D3E50"/>
<mask id="mask0" mask-type="alpha" maskUnits="userSpaceOnUse" x="2" y="2" width="21" height="21">
<path d="M22.4651 2H2V22.3636H22.4651V2Z" fill="white"/>
<path d="M7.99069 10.4546H8.0093H8.0279C8.15813 10.4546 8.25116 10.4909 8.34418 10.5818C8.4186 10.6727 8.47441 10.7636 8.47441 10.8909C8.47441 11.0182 8.4372 11.1273 8.34418 11.2182C8.25116 11.3091 8.13953 11.3636 8.0093 11.3636C7.87906 11.3636 7.78604 11.3273 7.69302 11.2364C7.6186 11.1455 7.56278 11.0546 7.56278 10.9273V10.9091V10.8909C7.56278 10.7636 7.59999 10.6727 7.69302 10.5818C7.76744 10.5091 7.86046 10.4546 7.99069 10.4546ZM7.99069 5.34546C7.86046 5.34546 7.76744 5.3091 7.67441 5.21819C7.59999 5.12728 7.54418 5.03637 7.54418 4.9091V4.89091C7.54418 4.76364 7.58139 4.67273 7.67441 4.58182C7.74883 4.49091 7.86046 4.45455 7.99069 4.45455H8.0093H8.0279C8.15813 4.45455 8.25116 4.49091 8.34418 4.58182C8.4186 4.67273 8.47441 4.76364 8.47441 4.89091C8.47441 5.01819 8.4372 5.12728 8.34418 5.21819C8.23255 5.3091 8.12092 5.34546 7.99069 5.34546ZM5.88837 9.60001C5.94418 9.60001 5.99999 9.61819 6.05581 9.63637C6.11162 9.65455 6.14883 9.69091 6.18604 9.74546C6.22325 9.78182 6.26046 9.81819 6.29767 9.87273C6.31627 9.92728 6.33488 9.98182 6.33488 10.0364C6.33488 10.0909 6.31627 10.1455 6.29767 10.2C6.27906 10.2546 6.24185 10.2909 6.18604 10.3273C6.14883 10.3818 6.11162 10.4182 6.05581 10.4364C5.99999 10.4727 5.94418 10.4909 5.86976 10.4909C5.81395 10.4909 5.75813 10.4727 5.70232 10.4364C5.64651 10.4 5.6093 10.3636 5.57209 10.3273C5.53488 10.2909 5.49767 10.2546 5.46046 10.2C5.44185 10.1455 5.42325 10.0909 5.42325 10.0364C5.42325 9.98182 5.44185 9.92728 5.46046 9.87273C5.47906 9.81819 5.51627 9.78182 5.57209 9.74546C5.6093 9.69091 5.64651 9.67273 5.70232 9.63637C5.75813 9.60001 5.81395 9.60001 5.86976 9.60001H5.88837ZM4.75348 4.63637C5.18139 4.21819 5.66511 3.89091 6.22325 3.63637C6.78139 3.38182 7.37674 3.25455 8.0093 3.25455C8.64185 3.25455 9.25581 3.38182 9.81395 3.61819C10.3721 3.85455 10.8558 4.20001 11.2651 4.61819L11.5814 4.98182H11.6186L11.7116 5.05455L20.6419 16.8364C20.8093 17.0546 20.9395 17.2909 21.0326 17.5636C21.1256 17.8364 21.1814 18.1273 21.1814 18.4364C21.1814 18.8 21.107 19.1455 20.9767 19.4546C20.8465 19.7818 20.6419 20.0546 20.4 20.2909L20.2325 20.4546C20.0093 20.6546 19.7488 20.8 19.4512 20.9091C19.1535 21.0182 18.8558 21.0727 18.5209 21.0727C18.2232 21.0727 17.9256 21.0182 17.6465 20.9273C17.3674 20.8364 17.1256 20.6909 16.9209 20.5273L5.2186 11.6182L5.10697 11.5273L4.73488 11.1818C4.32558 10.7636 3.99069 10.2909 3.74883 9.72728C3.50697 9.16364 3.37674 8.56364 3.37674 7.92728C3.37674 7.3091 3.50697 6.7091 3.74883 6.14546C3.99069 5.58182 4.32558 5.09091 4.75348 4.69091V4.63637ZM17.4605 19.9636C17.6279 20.1273 17.8139 20.2546 18.0372 20.3455C18.2605 20.4364 18.5023 20.4909 18.7628 20.4909C19.0046 20.4909 19.2465 20.4546 19.4698 20.3455C19.693 20.2546 19.8977 20.1273 20.0651 19.9636C20.2326 19.8 20.3628 19.6 20.4558 19.3818C20.5488 19.1636 20.586 18.9273 20.586 18.6909V18.6727V18.6546C20.586 18.4182 20.5488 18.1818 20.4558 17.9636C20.3628 17.7455 20.2326 17.5455 20.0651 17.3818C19.8977 17.2182 19.7116 17.0727 19.4884 16.9818C19.2651 16.8909 19.0232 16.8364 18.7628 16.8364C18.2419 16.8364 17.8139 17.0182 17.4605 17.3636C17.107 17.7273 16.9209 18.1636 16.9209 18.6727C16.9209 18.9273 16.9767 19.1636 17.0698 19.4C17.1628 19.6 17.293 19.8 17.4605 19.9636ZM16.6232 19.6727L16.5488 19.4909C16.5116 19.3636 16.4744 19.2364 16.4372 19.1091C16.4186 18.9636 16.4 18.8364 16.4 18.6727C16.4 18.5091 16.4186 18.3455 16.4558 18.1636C16.493 18 16.5488 17.8364 16.6046 17.6909C16.7349 17.4182 16.9209 17.1818 17.1442 16.9636C17.3674 16.7455 17.6279 16.6 17.907 16.4909V16.4727C18.0372 16.4182 18.1674 16.4 18.2977 16.3636C18.4465 16.3455 18.5953 16.3273 18.7442 16.3273C18.893 16.3273 19.0419 16.3455 19.1721 16.3636C19.3023 16.3818 19.4512 16.4182 19.5814 16.4727L19.7674 16.5455L12.5116 7.01819V7.25455C12.5302 7.36364 12.5302 7.47273 12.5488 7.58182C12.5488 7.69092 12.5674 7.80001 12.5674 7.92728C12.5674 8.43637 12.493 8.94546 12.3256 9.41819C12.1581 9.89091 11.9349 10.3091 11.6558 10.6909C11.3023 11.1636 10.8744 11.5636 10.3535 11.8727C9.83255 12.2 9.25581 12.4 8.66046 12.4909H8.64185C8.54883 12.5091 8.45581 12.5091 8.32558 12.5273C8.21395 12.5273 8.10232 12.5455 7.99069 12.5455C7.86046 12.5455 7.74883 12.5455 7.6372 12.5273C7.52558 12.5273 7.41395 12.5091 7.30232 12.4909H7.32092H7.09767L16.6232 19.6727ZM5.10697 10.8C5.47906 11.1636 5.92558 11.4546 6.4093 11.6727C6.91162 11.8909 7.43255 12 7.99069 12C8.54883 12 9.08837 11.8909 9.57209 11.6727C10.0744 11.4546 10.5023 11.1636 10.8744 10.8C11.2465 10.4182 11.5256 9.98182 11.7488 9.47273C11.9721 8.96364 12.0837 8.43637 12.0837 7.87273C12.0837 6.72728 11.693 5.76364 10.893 4.96364C10.093 4.16364 9.12558 3.76364 7.99069 3.76364C6.85581 3.76364 5.88837 4.16364 5.08837 4.96364C4.28837 5.76364 3.89767 6.72728 3.89767 7.87273C3.89767 8.43637 4.0093 8.96364 4.23255 9.47273C4.45581 9.98182 4.75348 10.4182 5.10697 10.8ZM10.1302 9.60001H10.1488C10.2046 9.60001 10.2605 9.61819 10.3163 9.63637C10.3535 9.65455 10.3907 9.69091 10.4279 9.74546C10.4651 9.78182 10.5023 9.81819 10.5395 9.87273C10.5767 9.92728 10.5767 9.98182 10.5767 10.0364C10.5767 10.0909 10.5581 10.1455 10.5395 10.2C10.5023 10.2546 10.4651 10.2909 10.4279 10.3273C10.3907 10.3818 10.3535 10.4 10.3163 10.4364C10.2791 10.4546 10.2232 10.4727 10.1488 10.4727H10.1302H10.1116C9.98139 10.4546 9.88837 10.4182 9.79534 10.3273C9.72092 10.2546 9.66511 10.1455 9.66511 10.0364C9.66511 9.9091 9.70232 9.81819 9.79534 9.72728C9.90697 9.63637 9.99999 9.60001 10.1302 9.60001ZM10.986 7.45455H11.0046C11.1349 7.45455 11.2279 7.49091 11.3209 7.58182C11.3953 7.67273 11.4512 7.76364 11.4512 7.89091C11.4512 8.03637 11.4139 8.14546 11.3209 8.23637C11.2279 8.32728 11.1163 8.38182 11.0046 8.38182C10.893 8.38182 10.7814 8.34546 10.6884 8.25455C10.6139 8.16364 10.5581 8.07273 10.5581 7.94546V7.92728V7.9091C10.5581 7.78182 10.5953 7.69091 10.6884 7.60001C10.7628 7.49091 10.8744 7.45455 10.986 7.45455ZM5.46046 7.89091C5.46046 8.03637 5.42325 8.14546 5.33023 8.23637C5.2186 8.3091 5.12558 8.36364 4.99534 8.36364C4.86511 8.36364 4.77209 8.32728 4.67906 8.23637C4.60465 8.14546 4.54883 8.05455 4.54883 7.92728V7.9091V7.89091C4.54883 7.76364 4.58604 7.67273 4.67906 7.58182C4.75348 7.49091 4.86511 7.45455 4.99534 7.45455H5.01395H5.03255C5.16278 7.45455 5.25581 7.49091 5.34883 7.58182C5.40465 7.65455 5.46046 7.76364 5.46046 7.89091ZM9.83255 6.07273C9.79534 6.03637 9.75813 6.00001 9.72092 5.96364C9.70232 5.9091 9.68371 5.87273 9.68371 5.80001V5.78182V5.76364V5.74546V5.72728C9.68371 5.60001 9.72092 5.5091 9.81395 5.41819C9.88837 5.32728 9.99999 5.29091 10.1302 5.29091C10.186 5.29091 10.2419 5.3091 10.2977 5.32728C10.3535 5.34546 10.3907 5.38182 10.4279 5.40001V5.41819C10.4651 5.45455 10.5023 5.49091 10.5395 5.54546C10.5581 5.60001 10.5767 5.65455 10.5767 5.7091V5.72728V5.74546V5.76364V5.78182C10.5767 5.83637 10.5581 5.89091 10.5395 5.94546C10.5209 6.00001 10.4837 6.03637 10.4279 6.05455C10.3907 6.1091 10.3535 6.12728 10.2977 6.16364C10.2419 6.18182 10.186 6.20001 10.1302 6.20001C10.0744 6.20001 9.99999 6.20001 9.96278 6.18182C9.90697 6.16364 9.85116 6.12728 9.83255 6.07273ZM6.61395 6.58182H6.65116C6.8186 6.41819 7.02325 6.27273 7.24651 6.18182C7.48837 6.09091 7.73023 6.03637 7.99069 6.03637C8.25116 6.03637 8.49302 6.09091 8.73488 6.18182C8.97674 6.27273 9.16278 6.41819 9.33023 6.58182C9.51627 6.74546 9.64651 6.94546 9.75813 7.18182C9.85116 7.41819 9.90697 7.67273 9.90697 7.92728C9.90697 8.45455 9.72092 8.9091 9.33023 9.29091C8.93953 9.67273 8.49302 9.85455 7.97209 9.85455C7.45116 9.83637 7.02325 9.65455 6.65116 9.29091C6.27906 8.92728 6.09302 8.47273 6.07441 7.94546V7.92728V7.9091C6.07441 7.65455 6.11162 7.40001 6.20464 7.18182C6.31627 6.96364 6.44651 6.76364 6.61395 6.58182ZM6.98604 8.89091H7.02325C7.15348 9.01819 7.28371 9.1091 7.45116 9.18182C7.6186 9.25455 7.78604 9.29091 7.97209 9.29091C8.17674 9.29091 8.34418 9.25455 8.51162 9.18182C8.67906 9.1091 8.8279 9.00001 8.93953 8.89091C9.06976 8.76364 9.16278 8.61819 9.2186 8.45455C9.29302 8.29092 9.33023 8.1091 9.33023 7.9091V7.89091V7.87273C9.33023 7.67273 9.29302 7.49092 9.2186 7.34546C9.14418 7.18182 9.05116 7.03637 8.93953 6.92728C8.8093 6.80001 8.64185 6.7091 8.49302 6.63637C8.32557 6.56364 8.15813 6.52728 7.97209 6.52728C7.76744 6.52728 7.59999 6.56364 7.43255 6.63637C7.26511 6.7091 7.11627 6.81819 6.98604 6.92728C6.87441 7.05455 6.79999 7.20001 6.72557 7.36364C6.65116 7.54546 6.61395 7.7091 6.61395 7.89091C6.61395 8.07273 6.65116 8.25455 6.72557 8.41819C6.78139 8.61819 6.87441 8.76364 6.98604 8.89091ZM18.2046 18.1273H18.2419C18.2977 18.0727 18.3721 18.0182 18.4651 17.9818C18.5395 17.9455 18.6512 17.9273 18.7442 17.9273C18.8372 17.9273 18.9302 17.9455 19.0046 17.9818C19.0791 18.0182 19.1721 18.0546 19.2465 18.1273C19.3023 18.2 19.3581 18.2909 19.3953 18.3636C19.4326 18.4546 19.4512 18.5273 19.4512 18.6182C19.4512 18.8182 19.3767 18.9818 19.2465 19.1273C19.1163 19.2727 18.9488 19.3273 18.7442 19.3273C18.5395 19.3273 18.3721 19.2546 18.2419 19.1273C18.1116 18.9818 18.0372 18.8182 18.0372 18.6182C18.0372 18.5273 18.0558 18.4364 18.093 18.3636C18.1302 18.2727 18.186 18.2 18.2419 18.1273H18.2046ZM7.99069 7.14546H8.0093C8.12092 7.14546 8.21395 7.16364 8.28837 7.20001C8.36278 7.23637 8.45581 7.29092 8.53023 7.34546C8.58604 7.40001 8.64185 7.49091 8.69767 7.58182C8.73488 7.67273 8.77209 7.76364 8.77209 7.87273C8.77209 8.09091 8.69767 8.27273 8.54883 8.41819C8.39999 8.56364 8.21395 8.65455 8.0093 8.65455C7.80465 8.65455 7.6372 8.58182 7.48837 8.43637C7.33953 8.29092 7.26511 8.12728 7.26511 7.92728V7.9091V7.89091C7.26511 7.80001 7.28371 7.7091 7.32092 7.61819C7.35813 7.52728 7.41395 7.43637 7.46976 7.36364C7.54418 7.3091 7.6372 7.25455 7.71162 7.21819C7.80465 7.16364 7.89767 7.14546 7.99069 7.14546ZM5.88837 6.21819H5.86976C5.81395 6.21819 5.75813 6.20001 5.70232 6.18182C5.64651 6.16364 5.6093 6.12728 5.57209 6.07273C5.53488 6.03637 5.49767 6.00001 5.46046 5.94546C5.44185 5.89091 5.42325 5.83637 5.42325 5.78182C5.42325 5.72728 5.44185 5.65455 5.46046 5.60001C5.47906 5.54546 5.51627 5.49091 5.57209 5.43637V5.45455C5.6093 5.40001 5.64651 5.38182 5.70232 5.34546C5.75813 5.32728 5.83255 5.3091 5.88837 5.3091C5.94418 5.3091 5.99999 5.32728 6.05581 5.34546C6.11162 5.36364 6.14883 5.40001 6.18604 5.45455C6.22325 5.49091 6.26046 5.52728 6.29767 5.58182C6.31627 5.63637 6.33488 5.69091 6.33488 5.74546V5.76364V5.78182C6.33488 5.9091 6.29767 6.00001 6.20464 6.09091C6.11162 6.18182 5.99999 6.21819 5.88837 6.21819ZM3.45116 4.45455L3.95348 3.83637H3.99069C4.51162 3.32728 5.10697 2.9091 5.79534 2.61819C6.48371 2.32728 7.2279 2.18182 8.0093 2.18182C8.79069 2.18182 9.53488 2.32728 10.2232 2.61819C10.9116 2.9091 11.5256 3.32728 12.0279 3.83637L12.5488 4.45455L21.4791 16.2C21.7209 16.5091 21.907 16.8546 22.0558 17.2364C22.186 17.6182 22.2605 18.0364 22.2605 18.4546C22.2605 18.5455 22.2605 18.6364 22.2419 18.7091C22.2232 18.7818 22.2232 18.8727 22.2046 18.9636V18.9455C22.1488 19.4546 21.9814 19.9091 21.7209 20.3455C21.4605 20.7636 21.1442 21.1273 20.7349 21.4182C20.4372 21.6546 20.0837 21.8546 19.693 21.9818C19.3023 22.1091 18.893 22.1818 18.4651 22.1818C18.0372 22.1818 17.6465 22.1091 17.2558 21.9818C16.8837 21.8546 16.5302 21.6727 16.2139 21.4182H16.2884L4.56744 12.4909C3.95348 12.0546 3.46976 11.5091 3.07906 10.8546C2.68837 10.2 2.46511 9.49091 2.35348 8.72728V8.67273C2.33488 8.54546 2.31627 8.41819 2.31627 8.27273C2.29767 8.12728 2.29767 7.98182 2.29767 7.85455C2.29767 7.20001 2.4093 6.58182 2.61395 6.00001C2.8186 5.41819 3.11627 4.89091 3.48837 4.41819L3.45116 4.45455ZM3.86046 11.0909L4.28837 11.5455V11.6182L4.8093 12.0546L16.586 21.0364C16.8465 21.2364 17.1442 21.4 17.4791 21.5091C17.8139 21.6364 18.1674 21.6909 18.5395 21.6909C19.4326 21.6909 20.1953 21.3818 20.8279 20.7455C21.4605 20.1091 21.7767 19.3455 21.7767 18.4546C21.7767 18.0909 21.7209 17.7273 21.5907 17.4C21.4605 17.0727 21.293 16.7455 21.0884 16.4727L21.107 16.4909L12.1581 4.76364C11.6744 4.21819 11.0977 3.78182 10.4093 3.47273C9.73953 3.14546 9.01395 3.00001 8.23255 3.00001C7.50697 3.00001 6.8186 3.14546 6.18604 3.41819C5.57209 3.69091 5.01395 4.07273 4.53023 4.52728C4.04651 4.98182 3.67441 5.54546 3.39534 6.20001C3.11627 6.83637 2.98604 7.52728 2.98604 8.25455C2.98604 8.78182 3.06046 9.29091 3.2093 9.78182C3.35813 10.2727 3.58139 10.7273 3.84185 11.1455V11.0909H3.86046Z" fill="black"/>
</mask>
<g mask="url(#mask0)">
<path d="M18.5209 22.3272C18.0744 22.3272 17.6651 22.2545 17.2558 22.1272C16.8651 22 16.493 21.8 16.1581 21.5454L15.8232 21.2909H15.8418L4.47439 12.6C3.86043 12.1454 3.3395 11.5818 2.9488 10.909C2.55811 10.2363 2.31625 9.50905 2.20462 8.72723V8.6545C2.18601 8.54541 2.16741 8.41814 2.16741 8.27269C2.1488 8.14541 2.1488 7.99996 2.1488 7.85451C2.1488 7.18178 2.26043 6.54541 2.48369 5.9636C2.68834 5.38178 2.98601 4.8545 3.35811 4.38178L3.89764 3.70905H3.95345C4.47439 3.19996 5.08834 2.79996 5.75811 2.50905C6.46508 2.19996 7.22787 2.0545 8.04648 2.0545C8.84648 2.0545 9.62787 2.19996 10.3348 2.50905C11.0418 2.81814 11.6744 3.23632 12.1953 3.7636L12.7348 4.38178L21.6651 16.1272C21.9069 16.4363 22.1116 16.8 22.2604 17.2C22.4093 17.6 22.4651 18.0363 22.4651 18.4727C22.4651 18.5636 22.4651 18.6545 22.4465 18.7454C22.4465 18.8363 22.4279 18.9272 22.4093 19.0181C22.3348 19.5272 22.186 20 21.9069 20.4363C21.6465 20.8727 21.293 21.2545 20.8837 21.5454C20.5674 21.8 20.2139 21.9818 19.8046 22.1272C19.3953 22.2545 18.9674 22.3272 18.5209 22.3272ZM16.6232 21.4909C16.8651 21.6363 17.1069 21.7636 17.3674 21.8545C18.093 22.109 18.9488 22.109 19.693 21.8545C20.0651 21.7272 20.4 21.5454 20.679 21.3272C21.0697 21.0545 21.386 20.709 21.6279 20.2909C21.8697 19.8909 22.0372 19.4363 22.093 18.9636C22.1116 18.8727 22.1116 18.8 22.1302 18.7272C22.1302 18.6545 22.1488 18.5636 22.1488 18.4727C22.1488 18.0727 22.0744 17.6727 21.9442 17.309C21.8139 16.9454 21.6279 16.6 21.4046 16.309L12.4558 4.54541L11.9348 3.92723C11.4511 3.43632 10.8558 3.03632 10.186 2.74541C9.51624 2.4545 8.79066 2.30905 8.02787 2.30905C7.26508 2.30905 6.5395 2.4545 5.86973 2.74541C5.19997 3.03632 4.60462 3.43632 4.10229 3.92723L4.06508 3.99996H4.02787L3.59997 4.52723C3.24648 4.98178 2.96741 5.50905 2.76276 6.0545C2.55811 6.61814 2.44648 7.21814 2.44648 7.85451C2.44648 7.98178 2.44648 8.12723 2.46508 8.25451C2.48369 8.39996 2.50229 8.52723 2.50229 8.6545V8.70905C2.61392 9.43632 2.83718 10.1454 3.20927 10.7636C3.58136 11.4 4.06508 11.9272 4.64183 12.3636L16.6232 21.4909ZM18.5581 21.8545C18.186 21.8545 17.7953 21.7818 17.4418 21.6545C17.0883 21.5272 16.7721 21.3636 16.493 21.1454L4.71625 12.1636L4.1395 11.6909V11.6181L4.00927 11.4727V11.6363L3.7302 11.2C3.45113 10.7636 3.22787 10.2909 3.07904 9.79996C2.9302 9.30905 2.83718 8.78178 2.83718 8.23632C2.83718 7.49087 2.98601 6.78178 3.26508 6.12723C3.54415 5.47269 3.93485 4.89087 4.41857 4.41814C4.90229 3.94541 5.47904 3.54541 6.11159 3.27269C6.76276 2.99996 7.46973 2.8545 8.21392 2.8545C9.01392 2.8545 9.75811 3.01814 10.4465 3.34541C11.1348 3.67269 11.7488 4.12723 12.2325 4.67269L21.2186 16.4181C21.4232 16.6909 21.5907 17.0181 21.7209 17.3636C21.8511 17.7272 21.9069 18.0909 21.9069 18.4727C21.9069 19.4 21.5721 20.2181 20.9209 20.8727C20.2883 21.5091 19.4883 21.8545 18.5581 21.8545ZM4.43718 11.5636L4.90229 11.9454L16.679 20.9272C16.9209 21.109 17.2186 21.2727 17.5348 21.3818C17.8511 21.4909 18.2046 21.5636 18.5395 21.5636C19.3953 21.5636 20.1209 21.2545 20.7162 20.6545C21.3116 20.0545 21.6279 19.309 21.6279 18.4727C21.6279 18.1272 21.5721 17.7818 21.4604 17.4545C21.3488 17.1272 21.1814 16.8363 20.9767 16.5636L12.0279 4.8545C11.5628 4.32723 10.986 3.90905 10.3348 3.59996C9.68369 3.29087 8.97671 3.12723 8.23252 3.12723C8.15811 3.12723 8.06508 3.12723 7.99066 3.12723C8.66043 3.12723 9.29299 3.2545 9.86973 3.50905C10.4465 3.7636 10.9488 4.10905 11.3767 4.54541L11.6558 4.87269H11.6744L11.8418 4.99996L20.7721 16.7818C20.9395 17 21.0883 17.2545 21.2 17.5454C21.3116 17.8363 21.3488 18.1454 21.3488 18.4545C21.3488 18.8363 21.2744 19.2 21.1255 19.5454C20.9767 19.8727 20.7721 20.1818 20.5302 20.4363L20.3628 20.6C20.1209 20.8181 19.8418 20.9818 19.5255 21.0909C18.9488 21.309 18.2232 21.3272 17.6279 21.109C17.3488 21 17.0883 20.8545 16.8651 20.6909L5.14415 11.7454L5.01392 11.6363L4.64183 11.2909C4.21392 10.8727 3.87904 10.3636 3.61857 9.78178C3.35811 9.19996 3.22787 8.58178 3.22787 7.92723C3.22787 7.29087 3.35811 6.67269 3.59997 6.09087C3.63718 5.99996 3.67438 5.92723 3.71159 5.83632C3.63718 5.9636 3.58136 6.09087 3.52555 6.21814C3.26508 6.83632 3.13485 7.50905 3.13485 8.21814C3.13485 8.72723 3.20927 9.23632 3.35811 9.70905C3.48834 10.1454 3.69299 10.5636 3.93485 10.9636L4.43718 11.4909V11.5636ZM4.90229 4.70905V4.74541L4.86508 4.78178C4.45578 5.18178 4.1209 5.6545 3.89764 6.19996C3.65578 6.74541 3.54415 7.32723 3.54415 7.92723C3.54415 8.54541 3.67438 9.12723 3.91625 9.67269C4.15811 10.2181 4.47439 10.6909 4.88369 11.0909L5.23718 11.4363L5.3488 11.5272L17.0697 20.4727C17.2744 20.6363 17.4976 20.7636 17.7581 20.8545C18.2976 21.0545 18.9302 21.0363 19.4511 20.8363C19.7302 20.7454 19.9721 20.6 20.1767 20.4L20.3255 20.2545C20.5488 20.0181 20.7348 19.7636 20.8651 19.4545C20.9953 19.1636 21.0511 18.8363 21.0511 18.4909C21.0511 18.2 20.9953 17.9272 20.9023 17.6727C20.8093 17.4181 20.679 17.1818 20.5302 16.9818L11.6186 5.18178L11.5814 5.1636H11.5255L11.1535 4.74541C10.7628 4.34541 10.2976 4.01814 9.7395 3.78178C9.19997 3.54541 8.62322 3.43632 8.00927 3.43632C7.39531 3.43632 6.81857 3.5636 6.27904 3.79996C5.75811 4.01814 5.29299 4.32723 4.90229 4.70905ZM18.7628 20.6363C18.4837 20.6363 18.2232 20.5818 17.9814 20.4909C17.7395 20.4 17.5348 20.2545 17.3488 20.0727C17.1628 19.8909 17.0325 19.6909 16.9209 19.4545C16.8093 19.2181 16.7535 18.9636 16.7535 18.6727C16.7535 18.1272 16.9395 17.6363 17.3302 17.2545C17.7209 16.8727 18.186 16.6727 18.7442 16.6727C19.0232 16.6727 19.2837 16.7272 19.5255 16.8363C19.7674 16.9454 19.9721 17.0909 20.1581 17.2727C20.3442 17.4545 20.4744 17.6727 20.586 17.909C20.679 18.1454 20.7348 18.4 20.7348 18.6545V18.709C20.7348 18.9636 20.679 19.2181 20.586 19.4545C20.493 19.6909 20.3442 19.909 20.1581 20.0909C19.9721 20.2727 19.7674 20.4181 19.5069 20.5091C19.2837 20.5818 19.0232 20.6363 18.7628 20.6363ZM17.5721 19.8727C17.7209 20.0181 17.9069 20.1454 18.1116 20.2363C18.5023 20.4 18.986 20.4 19.4139 20.2363C19.6186 20.1454 19.8046 20.0363 19.9535 19.8727C20.1023 19.7272 20.2325 19.5454 20.3069 19.3454C20.3814 19.1454 20.4372 18.9272 20.4372 18.709V18.6545C20.4372 18.4363 20.4 18.2181 20.3069 18.0181C20.2325 17.8181 20.1023 17.6363 19.9535 17.4909C19.8046 17.3454 19.6186 17.2181 19.4139 17.1272C19.2093 17.0363 18.986 17 18.7628 17C18.279 17 17.8883 17.1636 17.5535 17.4909C17.2186 17.8181 17.0511 18.2181 17.0511 18.709C17.0511 18.9454 17.0883 19.1636 17.1814 19.3636C17.293 19.5272 17.4046 19.7091 17.5721 19.8727ZM16.9395 20.0909L6.65113 12.3272H7.3209C7.41392 12.3454 7.52555 12.3454 7.63718 12.3636C7.84183 12.3818 8.06508 12.3818 8.30694 12.3636C8.41857 12.3636 8.51159 12.3454 8.60462 12.3272H8.64183C9.21857 12.2363 9.77671 12.0363 10.279 11.7272C10.7814 11.4181 11.2093 11.0363 11.5442 10.5818C11.8232 10.2181 12.0465 9.79996 12.1953 9.34541C12.3442 8.89087 12.4186 8.39996 12.4186 7.90905C12.4186 7.79996 12.4186 7.67269 12.4 7.58178C12.4 7.47269 12.3814 7.38178 12.3628 7.27269V7.25451V6.58178L20.2139 16.8363L19.5442 16.5818C19.4139 16.5454 19.2837 16.509 19.1535 16.4909C18.893 16.4545 18.5953 16.4545 18.3162 16.4909C18.2232 16.509 18.1302 16.5272 18.0372 16.5454V16.5636L17.9628 16.6181C17.7023 16.7091 17.4604 16.8727 17.2558 17.0727C17.0511 17.2727 16.8837 17.509 16.7535 17.7636C16.6976 17.8909 16.6604 18.0545 16.6232 18.2181C16.586 18.3818 16.5674 18.5272 16.5674 18.6909C16.5674 18.8363 16.586 18.9636 16.6046 19.109C16.6232 19.2363 16.6604 19.3636 16.6976 19.4727L16.9395 20.0909ZM7.56276 12.6363L16.3255 19.2727C16.3069 19.2181 16.3069 19.1818 16.2883 19.1272C16.2697 18.9818 16.2511 18.8363 16.2511 18.6727C16.2511 18.4909 16.2697 18.309 16.3069 18.1454C16.3442 17.9636 16.4 17.8 16.4558 17.6363C16.6046 17.3454 16.7907 17.0727 17.0325 16.8545C17.2372 16.6545 17.479 16.4909 17.7581 16.3818V16.3636L17.8511 16.3272C17.9814 16.2727 18.1302 16.2363 18.279 16.2181C18.5767 16.1636 18.9116 16.1636 19.2093 16.2181C19.2651 16.2363 19.3209 16.2363 19.3767 16.2545L12.6976 7.49087C12.6976 7.50905 12.6976 7.52723 12.6976 7.54541C12.6976 7.6545 12.7162 7.7636 12.7162 7.89087C12.7162 8.41814 12.6418 8.92723 12.4744 9.41814C12.3069 9.90905 12.0837 10.3454 11.786 10.7272C11.4325 11.2181 10.9674 11.6181 10.4279 11.9454C9.88834 12.2727 9.29299 12.4909 8.67904 12.5818H8.64183C8.5488 12.6 8.43718 12.6 8.32555 12.6181C8.06508 12.6363 7.84183 12.6363 7.61857 12.6181C7.59997 12.6363 7.58136 12.6363 7.56276 12.6363ZM18.7628 19.4727C18.5209 19.4727 18.3162 19.3818 18.1488 19.2181C17.9814 19.0545 17.9069 18.8545 17.9069 18.6181C17.9069 18.5091 17.9255 18.4 17.9814 18.2909C18.0186 18.2 18.0744 18.109 18.1488 18.0181L18.2232 18.0727L18.1488 18.0181C18.2232 17.9454 18.3162 17.8909 18.4279 17.8545C18.6139 17.7818 18.8744 17.7818 19.079 17.8545C19.1721 17.8909 19.2651 17.9454 19.3581 18.0181L19.3767 18.0363C19.4511 18.1272 19.5069 18.2181 19.5442 18.309C19.5814 18.4181 19.6186 18.5272 19.6186 18.6363C19.6186 18.8727 19.5442 19.0727 19.3767 19.2363C19.2093 19.4 19.0046 19.4727 18.7628 19.4727ZM18.3721 18.2181C18.3162 18.2909 18.279 18.3454 18.2418 18.4181C18.2046 18.4909 18.2046 18.5454 18.2046 18.6181C18.2046 18.7818 18.2604 18.909 18.3721 19.0181C18.4837 19.1272 18.6139 19.1818 18.7628 19.1818C18.9116 19.1818 19.0418 19.1272 19.1535 19.0181C19.2651 18.909 19.3209 18.7818 19.3209 18.6181C19.3209 18.5454 19.3023 18.4727 19.2837 18.4181C19.2465 18.3454 19.2093 18.2909 19.1721 18.2181C19.1162 18.1818 19.0418 18.1454 18.986 18.109C18.8372 18.0545 18.6697 18.0727 18.5395 18.109C18.4651 18.1454 18.4093 18.1818 18.3721 18.2181ZM8.00927 12.1272C7.43252 12.1272 6.87438 12.0181 6.37206 11.8C5.86973 11.5818 5.40462 11.2727 5.01392 10.909C4.64183 10.5272 4.32555 10.0545 4.10229 9.54541C3.87904 9.03632 3.76741 8.47269 3.76741 7.89087C3.76741 6.70905 4.17671 5.70905 5.01392 4.87269C5.83252 4.0545 6.85578 3.63632 8.02787 3.63632C9.19997 3.63632 10.2232 4.0545 11.0418 4.87269C11.8604 5.69087 12.2883 6.70905 12.2883 7.89087C12.2883 8.47269 12.1767 9.01814 11.9535 9.54541C11.7302 10.0545 11.4139 10.5272 11.0418 10.909C10.6511 11.2909 10.186 11.5818 9.68369 11.8181C9.14415 12.0181 8.58601 12.1272 8.00927 12.1272ZM5.21857 10.7091C5.59066 11.0545 5.99997 11.3454 6.48369 11.5454C6.9488 11.7454 7.46973 11.8545 8.00927 11.8545C8.5488 11.8545 9.05113 11.7454 9.53485 11.5454C10.0186 11.3454 10.4279 11.0545 10.8 10.7091C11.1535 10.3454 11.4325 9.90905 11.6372 9.43632C11.8418 8.9636 11.9535 8.43632 11.9535 7.89087C11.9535 6.79996 11.5628 5.8545 10.8 5.09087C10.0372 4.32723 9.08834 3.94541 8.00927 3.94541C6.91159 3.94541 5.98136 4.32723 5.21857 5.09087C4.45578 5.8545 4.06508 6.79996 4.06508 7.89087C4.06508 8.43632 4.17671 8.94541 4.38136 9.43632C4.58601 9.90905 4.86508 10.3272 5.21857 10.7091ZM7.99066 11.4909C7.82322 11.4909 7.69299 11.4363 7.58136 11.3272C7.46973 11.2181 7.41392 11.0727 7.41392 10.909V10.8909C7.41392 10.7272 7.46973 10.6 7.58136 10.4727C7.69299 10.3636 7.84183 10.3091 7.99066 10.3091H8.02787C8.19531 10.3091 8.32555 10.3636 8.43718 10.4727C8.5488 10.5818 8.60462 10.7272 8.60462 10.8909C8.60462 11.0545 8.5488 11.2 8.41857 11.3091C8.30694 11.4363 8.15811 11.4909 7.99066 11.4909ZM7.99066 10.6C7.91625 10.6 7.84183 10.6181 7.78601 10.6727C7.7302 10.7272 7.71159 10.8 7.71159 10.8727V10.909C7.71159 11 7.7302 11.0545 7.78601 11.109C7.84183 11.1636 7.89764 11.1818 7.99066 11.1818C8.08369 11.1818 8.15811 11.1454 8.23252 11.0909C8.28834 11.0181 8.32555 10.9636 8.32555 10.8727C8.32555 10.7818 8.30694 10.7272 8.25113 10.6727C8.19531 10.6181 8.1395 10.6 8.04648 10.6H7.99066ZM5.86973 10.6363C5.77671 10.6363 5.70229 10.6181 5.62787 10.5636C5.57206 10.5272 5.51625 10.4727 5.46043 10.4181C5.40462 10.3818 5.36741 10.3091 5.3302 10.2545C5.29299 10.1818 5.29299 10.1091 5.29299 10.0363C5.29299 9.9636 5.31159 9.87269 5.3302 9.81814C5.36741 9.74541 5.40462 9.69087 5.46043 9.6545C5.49764 9.59996 5.57206 9.54541 5.62787 9.52723C5.70229 9.49087 5.77671 9.47269 5.85113 9.47269H5.86973C5.94415 9.47269 6.03718 9.49087 6.09299 9.52723C6.16741 9.5636 6.22322 9.59996 6.26043 9.6545C6.31625 9.69087 6.35345 9.7636 6.39066 9.81814C6.42787 9.89087 6.42787 9.9636 6.42787 10.0363C6.42787 10.1091 6.44648 10.1818 6.42787 10.2545C6.39066 10.3272 6.35345 10.3818 6.29764 10.4181C6.26043 10.4727 6.20462 10.5272 6.1302 10.5636C6.05578 10.6 5.96276 10.6363 5.86973 10.6363ZM5.86973 9.74541C5.81392 9.74541 5.77671 9.74541 5.7395 9.7636C5.7209 9.78178 5.70229 9.78178 5.68369 9.81814V9.83632L5.66508 9.85451C5.64648 9.87269 5.62787 9.89087 5.60927 9.90905C5.59066 9.94541 5.59066 9.98178 5.59066 10.0181C5.59066 10.0545 5.59066 10.0909 5.60927 10.1272C5.62787 10.1636 5.62787 10.1818 5.66508 10.1818L5.68369 10.2L5.70229 10.2181C5.7209 10.2363 5.7395 10.2727 5.77671 10.2909C5.85113 10.3272 5.94415 10.3272 5.99997 10.2909C6.03718 10.2727 6.05578 10.2545 6.07438 10.2181L6.09299 10.2L6.11159 10.1818C6.1302 10.1636 6.1488 10.1454 6.16741 10.1272C6.18601 10.0909 6.18601 10.0545 6.18601 10.0181C6.18601 9.98178 6.18601 9.94541 6.16741 9.90905C6.1488 9.87269 6.1488 9.85451 6.11159 9.85451L6.09299 9.83632L6.05578 9.81814C6.03718 9.79996 6.01857 9.78178 5.99997 9.7636C5.96276 9.74541 5.92555 9.74541 5.86973 9.74541ZM10.1488 10.6H10.1116C9.96276 10.5818 9.83252 10.5272 9.7209 10.4181C9.60927 10.3091 9.55345 10.1818 9.55345 10.0181C9.55345 9.8545 9.60927 9.72723 9.7209 9.59996C9.83252 9.49087 9.98136 9.43632 10.1302 9.43632H10.1488C10.2418 9.43632 10.3162 9.4545 10.3907 9.49087C10.4465 9.52723 10.5023 9.5636 10.5395 9.61814C10.5953 9.65451 10.6325 9.70905 10.6697 9.78178C10.7069 9.8545 10.7255 9.94541 10.7255 10.0181C10.7255 10.109 10.7069 10.1818 10.6697 10.2545C10.6325 10.3091 10.5953 10.3636 10.5395 10.4181C10.5023 10.4727 10.4465 10.5091 10.3907 10.5454C10.3162 10.5818 10.2232 10.6 10.1488 10.6ZM10.1302 10.3091C10.186 10.3091 10.2046 10.309 10.2418 10.2909C10.2604 10.2727 10.279 10.2545 10.2976 10.2363L10.3162 10.2181L10.3348 10.2C10.3535 10.1818 10.3907 10.1636 10.4093 10.1272C10.4279 10.0909 10.4279 10.0545 10.4279 10.0181C10.4279 9.98178 10.4279 9.94541 10.4093 9.92723C10.3907 9.89087 10.3721 9.87269 10.3348 9.85451L10.3162 9.83632L10.2976 9.81814C10.279 9.79996 10.2604 9.78178 10.2418 9.7636C10.2232 9.74541 10.186 9.74541 10.1488 9.74541H10.1302C10.0558 9.74541 9.98136 9.7636 9.92555 9.81814C9.86973 9.87269 9.85113 9.94541 9.85113 10.0181C9.85113 10.0909 9.86973 10.1636 9.92555 10.2C9.98136 10.2727 10.0558 10.3091 10.1302 10.3091ZM7.99066 10.0181C7.43252 9.99996 6.9488 9.79996 6.55811 9.39996C6.16741 9.01814 5.96276 8.52723 5.94415 7.9636V7.94541C5.94415 7.67269 5.99997 7.39996 6.09299 7.1636C6.18601 6.92723 6.33485 6.69087 6.50229 6.50905L6.5395 6.4545H6.59532C6.76276 6.29087 6.96741 6.1636 7.20927 6.07269C7.71159 5.8545 8.30694 5.8545 8.80927 6.07269C9.06973 6.18178 9.27438 6.32723 9.46043 6.50905C9.64648 6.69087 9.81392 6.90905 9.90694 7.1636C10.0186 7.41814 10.0744 7.69087 10.0744 7.9636C10.0744 8.52723 9.86973 9.01814 9.46043 9.43632C9.05113 9.79996 8.5488 10.0181 7.99066 10.0181ZM6.24183 7.94541C6.26043 8.43632 6.42787 8.8545 6.76276 9.19996C7.09764 9.54541 7.50694 9.70905 7.99066 9.72723C8.47438 9.72723 8.88369 9.5636 9.23717 9.19996C9.59066 8.83632 9.75811 8.43632 9.75811 7.92723C9.75811 7.69087 9.7209 7.4545 9.62787 7.23632C9.53485 7.01814 9.40462 6.83632 9.23717 6.69087C9.08834 6.52723 8.90229 6.41814 8.67904 6.32723C8.25113 6.14541 7.7488 6.14541 7.3209 6.32723C7.09764 6.41814 6.91159 6.54541 6.76276 6.69087L6.72555 6.72723H6.68834C6.55811 6.89087 6.44648 7.0545 6.37206 7.25451C6.27904 7.4545 6.24183 7.69087 6.24183 7.92723L6.09299 7.94541H6.24183ZM7.99066 9.43632C7.78601 9.43632 7.58136 9.39996 7.39532 9.30905C7.22787 9.23632 7.09764 9.14541 6.96741 9.01814H6.91159L6.87438 8.9636C6.76276 8.83632 6.66973 8.67269 6.59532 8.47269C6.5209 8.29087 6.48369 8.09087 6.48369 7.89087C6.48369 7.69087 6.5209 7.49087 6.59532 7.30905C6.66973 7.12723 6.76276 6.9636 6.87438 6.81814L6.89299 6.79996C7.04183 6.67269 7.20927 6.5636 7.37671 6.47269C7.7302 6.30905 8.19531 6.29087 8.56741 6.47269C8.75345 6.5636 8.9209 6.6545 9.05113 6.79996C9.19997 6.94541 9.29299 7.09087 9.36741 7.27269C9.44183 7.4545 9.47904 7.6545 9.47904 7.87269V7.89087C9.47904 8.10905 9.44183 8.30905 9.36741 8.49087C9.29299 8.67269 9.18136 8.83632 9.05113 8.9636C8.9209 9.09087 8.75345 9.19996 8.56741 9.29087C8.39997 9.39996 8.19531 9.43632 7.99066 9.43632ZM7.06043 8.74541H7.09764L7.13485 8.78178C7.24648 8.89087 7.37671 8.98178 7.52555 9.0545C7.82322 9.19996 8.19531 9.18178 8.47438 9.0545C8.62322 8.98178 8.75345 8.89087 8.86508 8.78178C8.97671 8.67269 9.05113 8.54541 9.12555 8.39996C9.18136 8.2545 9.21857 8.09087 9.21857 7.90905V7.89087C9.21857 7.70905 9.18136 7.54541 9.12555 7.41814C9.06973 7.27269 8.97671 7.14541 8.86508 7.03632C8.75345 6.92723 8.60462 6.83632 8.45578 6.7636C8.1395 6.61814 7.78601 6.63632 7.50694 6.7636C7.35811 6.83632 7.22787 6.92723 7.09764 7.03632C7.00462 7.14541 6.9302 7.27269 6.87438 7.43632C6.81857 7.59996 6.78136 7.7636 6.78136 7.92723C6.78136 8.09087 6.81857 8.2545 6.87438 8.41814C6.91159 8.52723 6.96741 8.63632 7.06043 8.74541ZM7.99066 8.79996C7.7488 8.79996 7.54415 8.70905 7.37671 8.54541C7.20927 8.38178 7.11625 8.1636 7.11625 7.92723V7.87269C7.11625 7.7636 7.13485 7.6545 7.19066 7.54541C7.22787 7.43632 7.28369 7.34541 7.35811 7.25451L7.37671 7.23632C7.46973 7.1636 7.56276 7.10905 7.65578 7.07269C7.76741 7.01814 7.87904 6.99996 7.99066 6.99996H8.00927C8.1395 6.99996 8.26973 7.01814 8.36276 7.07269C8.45578 7.10905 8.5488 7.1636 8.64183 7.23632C8.73485 7.32723 8.79066 7.39996 8.84648 7.50905C8.90229 7.61814 8.9209 7.74541 8.9209 7.87269C8.9209 8.12723 8.82787 8.34541 8.64183 8.52723C8.45578 8.70905 8.23252 8.79996 7.99066 8.79996ZM7.56276 7.4545C7.50694 7.50905 7.46973 7.58178 7.45113 7.6545C7.41392 7.72723 7.41392 7.79996 7.41392 7.87269V7.92723C7.41392 8.09087 7.46973 8.21814 7.58136 8.34541C7.69299 8.4545 7.82322 8.52723 7.99066 8.52723C8.15811 8.52723 8.30694 8.47269 8.43718 8.34541C8.56741 8.21814 8.62322 8.07269 8.62322 7.89087C8.62322 7.79996 8.60462 7.72723 8.56741 7.6545C8.5302 7.58178 8.49299 7.50905 8.43718 7.47269C8.38136 7.43632 8.30694 7.38178 8.23252 7.3636C8.17671 7.32723 8.10229 7.32723 8.00927 7.32723H7.99066C7.91625 7.32723 7.84183 7.34541 7.76741 7.3636C7.69299 7.38178 7.61857 7.41814 7.56276 7.4545ZM10.986 8.50905C10.8186 8.50905 10.6883 8.4545 10.5767 8.34541C10.4651 8.23632 10.4093 8.09087 10.4093 7.92723V7.87269C10.4093 7.70905 10.4651 7.58178 10.5767 7.4545C10.6883 7.34541 10.8372 7.29087 10.986 7.29087H11.0046C11.1721 7.29087 11.3209 7.34541 11.4325 7.4545C11.5442 7.5636 11.6 7.70905 11.6 7.87269C11.6 8.0545 11.5442 8.19996 11.4139 8.30905C11.3023 8.4545 11.1535 8.50905 10.986 8.50905ZM10.986 7.59996C10.9116 7.59996 10.8372 7.61814 10.7814 7.67269C10.7255 7.72723 10.7069 7.79996 10.7069 7.87269V7.92723C10.7069 8.01814 10.7255 8.07269 10.7814 8.12723C10.893 8.23632 11.0604 8.23632 11.1907 8.10905C11.2465 8.0545 11.2837 7.9636 11.2837 7.87269C11.2837 7.78178 11.2651 7.72723 11.2093 7.67269C11.1535 7.61814 11.0976 7.59996 11.0046 7.59996H10.986ZM4.99532 8.50905C4.82787 8.50905 4.69764 8.4545 4.58601 8.34541C4.47439 8.23632 4.41857 8.09087 4.41857 7.92723V7.87269C4.41857 7.70905 4.47439 7.58178 4.58601 7.4545C4.69764 7.34541 4.84648 7.29087 4.99532 7.29087H5.01392C5.18136 7.29087 5.31159 7.34541 5.42322 7.4545C5.53485 7.5636 5.59066 7.70905 5.59066 7.87269C5.59066 8.0545 5.53485 8.19996 5.40462 8.30905C5.31159 8.4545 5.16276 8.50905 4.99532 8.50905ZM4.99532 7.59996C4.9209 7.59996 4.84648 7.61814 4.79066 7.67269C4.73485 7.72723 4.71625 7.79996 4.71625 7.87269V7.92723C4.71625 8.01814 4.73485 8.07269 4.79066 8.12723C4.90229 8.23632 5.06973 8.23632 5.19997 8.10905C5.25578 8.0545 5.29299 7.9636 5.29299 7.87269C5.29299 7.78178 5.27438 7.72723 5.21857 7.67269C5.16276 7.61814 5.10694 7.59996 5.01392 7.59996H4.99532ZM10.1302 6.3636C10.0558 6.3636 9.96276 6.34541 9.90694 6.30905C9.83252 6.27269 9.77671 6.23632 9.7395 6.18178C9.68369 6.14541 9.64648 6.09087 9.60927 6.03632C9.57206 5.9636 9.55345 5.89087 9.55345 5.81814V5.7636C9.55345 5.59996 9.60927 5.47269 9.7209 5.34541C9.83252 5.23632 9.98136 5.18178 10.1302 5.18178C10.2046 5.18178 10.2976 5.19996 10.3535 5.23632C10.4279 5.27269 10.4837 5.30905 10.5209 5.34541L10.5581 5.38178V5.39996C10.5953 5.43632 10.6325 5.49087 10.6511 5.52723C10.6883 5.59996 10.6883 5.67269 10.6883 5.74541V5.79996C10.6883 5.89087 10.6697 5.9636 10.6325 6.01814C10.5953 6.07269 10.5581 6.12723 10.5023 6.1636C10.4651 6.21814 10.3907 6.27269 10.3348 6.29087C10.279 6.34541 10.2046 6.3636 10.1302 6.3636ZM10.1302 5.47269C10.0558 5.47269 9.98136 5.49087 9.92555 5.54541C9.86973 5.59996 9.85113 5.67269 9.85113 5.74541V5.79996C9.85113 5.83632 9.85113 5.87269 9.86973 5.89087C9.88834 5.90905 9.90694 5.92723 9.92555 5.94541L9.94415 5.9636L9.96276 5.98178C9.98136 5.99996 9.99997 6.01814 10.0186 6.03632C10.093 6.07269 10.1674 6.07269 10.2418 6.03632C10.2604 6.01814 10.279 6.01814 10.2976 5.98178L10.3162 5.9636L10.3348 5.94541C10.3535 5.92723 10.3721 5.90905 10.3907 5.89087C10.4093 5.87269 10.4093 5.83632 10.4093 5.79996V5.74541C10.4093 5.70905 10.4093 5.67269 10.3907 5.63632C10.3721 5.61814 10.3721 5.58178 10.3348 5.58178L10.279 5.54541V5.50905C10.2604 5.50905 10.2604 5.49087 10.2418 5.49087C10.2046 5.47269 10.1674 5.47269 10.1302 5.47269ZM5.88834 6.3636C5.77671 6.3636 5.70229 6.34541 5.62787 6.30905C5.55345 6.27269 5.49764 6.23632 5.46043 6.18178C5.40462 6.14541 5.36741 6.07269 5.3302 6.01814C5.29299 5.94541 5.29299 5.87269 5.29299 5.79996C5.29299 5.72723 5.31159 5.63632 5.3302 5.5636C5.36741 5.49087 5.40462 5.41814 5.46043 5.34541L5.7209 5.09087V5.21814C5.85113 5.18178 5.99997 5.18178 6.1302 5.23632C6.20462 5.27269 6.26043 5.30905 6.29764 5.3636C6.35345 5.39996 6.39066 5.47269 6.42787 5.52723C6.46508 5.59996 6.46508 5.67269 6.46508 5.74541V5.7636C6.46508 5.92723 6.40927 6.0545 6.29764 6.18178C6.18601 6.30905 6.05578 6.3636 5.88834 6.3636ZM5.59066 5.69087C5.59066 5.72723 5.57206 5.74541 5.57206 5.78178C5.57206 5.81814 5.57206 5.8545 5.59066 5.89087C5.60927 5.92723 5.60927 5.94541 5.64648 5.94541L5.66508 5.9636L5.68369 5.98178C5.70229 5.99996 5.7209 6.01814 5.7395 6.03632C5.77671 6.0545 5.81392 6.0545 5.85113 6.0545H5.86973C5.94415 6.0545 6.01857 6.03632 6.07438 5.98178C6.1302 5.92723 6.1488 5.8545 6.1488 5.78178V5.7636C6.1488 5.72723 6.1488 5.69087 6.1302 5.6545C6.11159 5.61814 6.11159 5.59996 6.07438 5.59996L6.05578 5.58178V5.54541C6.03718 5.52723 6.01857 5.50905 5.99997 5.49087C5.92555 5.4545 5.85113 5.4545 5.75811 5.49087C5.7209 5.50905 5.70229 5.50905 5.68369 5.54541L5.59066 5.69087ZM7.99066 5.49087C7.82322 5.49087 7.69299 5.43632 7.58136 5.32723C7.46973 5.21814 7.41392 5.07269 7.41392 4.90905V4.89087C7.41392 4.72723 7.46973 4.59996 7.58136 4.47269C7.69299 4.3636 7.84183 4.30905 7.99066 4.30905H8.02787C8.19531 4.30905 8.32555 4.3636 8.43718 4.47269C8.5488 4.58178 8.60462 4.72723 8.60462 4.89087C8.60462 5.0545 8.5488 5.19996 8.41857 5.30905C8.30694 5.43632 8.15811 5.49087 7.99066 5.49087ZM7.99066 4.59996C7.91625 4.59996 7.84183 4.61814 7.78601 4.67269C7.7302 4.72723 7.71159 4.79996 7.71159 4.87269V4.89087C7.71159 4.98178 7.7302 5.03632 7.78601 5.09087C7.84183 5.14541 7.89764 5.1636 7.99066 5.1636C8.08369 5.1636 8.15811 5.12723 8.23252 5.07269C8.28834 4.99996 8.32555 4.94541 8.32555 4.8545C8.32555 4.7636 8.30694 4.70905 8.25113 4.6545C8.19531 4.59996 8.1395 4.58178 8.04648 4.58178H7.99066V4.59996Z" fill="#2D3E50"/>
</g>
</svg>
