<svg width="24" height="24" viewBox="0 0 24 24" fill="none" xmlns="http://www.w3.org/2000/svg">
<path d="M1.2 11.5626H13.8C14.4638 11.5626 15.0545 11.3783 15.0545 10.6365C15.0545 9.89464 14.4638 9.74674 13.8 9.74674H1.2C0.53625 9.74674 0 9.97609 0 10.6365C0 11.2968 0.53625 11.5626 1.2 11.5626ZM23.2988 7.88023L21.105 5.69767C20.655 5.24997 20.0438 5 19.4062 5H17.4C16.7363 5 16.2 5.53351 16.2 6.19388V12.7602H1.2C0.53625 12.7602 0 13.2937 0 13.9541V14.9913C0 16.5135 1.07625 17.9051 2.59125 18.1065C3.7425 18.2595 4.7775 17.7521 5.4 16.9239C6.09 17.8454 7.29 18.3677 8.59875 18.0319C9.54375 17.7894 10.3275 17.0544 10.6388 16.1366C10.8225 15.5845 10.8413 15.0472 10.7438 14.5548H16.8638C16.7625 15.0472 16.7812 15.5845 16.9688 16.1366C17.2838 17.0731 18.09 17.8118 19.0538 18.0431C21.0338 18.5207 22.8038 17.0395 22.8038 15.148C22.8038 14.9428 22.7813 14.745 22.7438 14.551H23.4C23.73 14.551 24 14.2824 24 13.9541V9.56658C24 8.93233 23.7488 8.32793 23.2988 7.88023ZM3 16.3381C2.34 16.3381 1.8 15.8009 1.8 15.1442C1.8 14.4876 2.34 13.9504 3 13.9504C3.66 13.9504 4.2 14.4876 4.2 15.1442C4.2 15.8009 3.66 16.3381 3 16.3381ZM7.8 16.3381C7.14 16.3381 6.6 15.8009 6.6 15.1442C6.6 14.4876 7.14 13.9504 7.8 13.9504C8.46 13.9504 9 14.4876 9 15.1442C9 15.8009 8.46 16.3381 7.8 16.3381ZM18 6.78708H19.4062C19.5675 6.78708 19.7175 6.85051 19.83 6.96244L21.4538 8.5779H18V6.78708ZM19.8 16.3381C19.14 16.3381 18.6 15.8009 18.6 15.1442C18.6 14.4876 19.14 13.9504 19.8 13.9504C20.46 13.9504 21 14.4876 21 15.1442C21 15.8009 20.46 16.3381 19.8 16.3381ZM22.2 12.7565H21.585C21.0863 12.3871 20.4713 12.1595 19.8 12.1595C19.1288 12.1595 18.5175 12.3871 18.015 12.7565H18V9.77178H22.2V12.7565Z" fill="#2D3E50"/>
</svg>
