<svg width="16" height="16" viewBox="0 0 16 16" fill="none" xmlns="http://www.w3.org/2000/svg">
<path d="M0.8 7.7084H9.2C9.6425 7.7084 10.0364 7.58552 10.0364 7.09097C10.0364 6.59643 9.6425 6.49783 9.2 6.49783H0.8C0.3575 6.49783 0 6.65073 0 7.09097C0 7.53121 0.3575 7.7084 0.8 7.7084ZM15.5325 5.25349L14.07 3.79845C13.77 3.49998 13.3625 3.33334 12.9375 3.33334H11.6C11.1575 3.33334 10.8 3.68901 10.8 4.12925V8.50681H0.8C0.3575 8.50681 0 8.86248 0 9.30272V9.99418C0 11.009 0.7175 11.9367 1.7275 12.071C2.495 12.173 3.185 11.8347 3.6 11.2826C4.06 11.8969 4.86 12.2451 5.7325 12.0213C6.3625 11.8596 6.885 11.3696 7.0925 10.7578C7.215 10.3897 7.2275 10.0315 7.1625 9.70317H11.2425C11.175 10.0315 11.1875 10.3897 11.3125 10.7578C11.5225 11.3821 12.06 11.8745 12.7025 12.0287C14.0225 12.3471 15.2025 11.3597 15.2025 10.0986C15.2025 9.96184 15.1875 9.83002 15.1625 9.70068H15.6C15.82 9.70068 16 9.5216 16 9.30272V6.37772C16 5.95489 15.8325 5.55196 15.5325 5.25349ZM2 10.8921C1.56 10.8921 1.2 10.5339 1.2 10.0962C1.2 9.6584 1.56 9.30024 2 9.30024C2.44 9.30024 2.8 9.6584 2.8 10.0962C2.8 10.5339 2.44 10.8921 2 10.8921ZM5.2 10.8921C4.76 10.8921 4.4 10.5339 4.4 10.0962C4.4 9.6584 4.76 9.30024 5.2 9.30024C5.64 9.30024 6 9.6584 6 10.0962C6 10.5339 5.64 10.8921 5.2 10.8921ZM12 4.52473H12.9375C13.045 4.52473 13.145 4.56701 13.22 4.64163L14.3025 5.7186H12V4.52473ZM13.2 10.8921C12.76 10.8921 12.4 10.5339 12.4 10.0962C12.4 9.6584 12.76 9.30024 13.2 9.30024C13.64 9.30024 14 9.6584 14 10.0962C14 10.5339 13.64 10.8921 13.2 10.8921ZM14.8 8.50432H14.39C14.0575 8.25808 13.6475 8.10636 13.2 8.10636C12.7525 8.10636 12.345 8.25808 12.01 8.50432H12V6.51452H14.8V8.50432Z" fill="#2D3E50"/>
</svg>
