<svg width="12" height="12" viewBox="0 0 12 12" fill="none" xmlns="http://www.w3.org/2000/svg">
<path d="M0.6 5.7813H6.9C7.23188 5.7813 7.52727 5.68914 7.52727 5.31823C7.52727 4.94732 7.23188 4.87337 6.9 4.87337H0.6C0.268125 4.87337 0 4.98805 0 5.31823C0 5.64841 0.268125 5.7813 0.6 5.7813ZM11.6494 3.94011L10.5525 2.84884C10.3275 2.62498 10.0219 2.5 9.70312 2.5H8.7C8.36813 2.5 8.1 2.76676 8.1 3.09694V6.3801H0.6C0.268125 6.3801 0 6.64686 0 6.97704V7.49563C0 8.25673 0.538125 8.95253 1.29563 9.05327C1.87125 9.12975 2.38875 8.87605 2.7 8.46193C3.045 8.92269 3.645 9.18385 4.29938 9.01596C4.77188 8.89471 5.16375 8.52722 5.31938 8.06832C5.41125 7.79224 5.42063 7.52361 5.37188 7.27738H8.43188C8.38125 7.52361 8.39062 7.79224 8.48438 8.06832C8.64188 8.53654 9.045 8.9059 9.52688 9.02156C10.5169 9.26033 11.4019 8.51975 11.4019 7.57398C11.4019 7.47138 11.3906 7.37251 11.3719 7.27551H11.7C11.865 7.27551 12 7.1412 12 6.97704V4.78329C12 4.46617 11.8744 4.16397 11.6494 3.94011ZM1.5 8.16905C1.17 8.16905 0.9 7.90043 0.9 7.57211C0.9 7.2438 1.17 6.97518 1.5 6.97518C1.83 6.97518 2.1 7.2438 2.1 7.57211C2.1 7.90043 1.83 8.16905 1.5 8.16905ZM3.9 8.16905C3.57 8.16905 3.3 7.90043 3.3 7.57211C3.3 7.2438 3.57 6.97518 3.9 6.97518C4.23 6.97518 4.5 7.2438 4.5 7.57211C4.5 7.90043 4.23 8.16905 3.9 8.16905ZM9 3.39354H9.70312C9.78375 3.39354 9.85875 3.42525 9.915 3.48122L10.7269 4.28895H9V3.39354ZM9.9 8.16905C9.57 8.16905 9.3 7.90043 9.3 7.57211C9.3 7.2438 9.57 6.97518 9.9 6.97518C10.23 6.97518 10.5 7.2438 10.5 7.57211C10.5 7.90043 10.23 8.16905 9.9 8.16905ZM11.1 6.37824H10.7925C10.5431 6.19356 10.2356 6.07977 9.9 6.07977C9.56438 6.07977 9.25875 6.19356 9.0075 6.37824H9V4.88589H11.1V6.37824Z" fill="#2D3E50"/>
</svg>
