<svg width="12" height="12" viewBox="0 0 12 12" fill="none" xmlns="http://www.w3.org/2000/svg">
<path d="M3.16927 9.71989H2.91297C2.9046 9.71566 2.89581 9.71236 2.88676 9.71005C2.28259 9.62281 1.87402 9.28213 1.65477 8.69845C1.64021 8.65957 1.62297 8.64865 1.58417 8.64889C1.35117 8.65081 1.11817 8.65477 0.885169 8.64889C0.535668 8.63989 0.273077 8.47237 0.109161 8.15617C0.0563861 8.05441 0.0355326 7.93525 0 7.82401V3.08401C0.00453303 3.07357 0.00823438 3.06278 0.0110675 3.05173C0.0702497 2.72437 0.243136 2.48521 0.537882 2.34697C0.617801 2.30953 0.707157 2.29369 0.792202 2.26801H7.68949C7.69593 2.27207 7.70287 2.27526 7.71011 2.27749C8.05064 2.33617 8.28364 2.53321 8.4147 2.85889C8.4302 2.89717 8.44965 2.90689 8.48751 2.90689C8.82315 2.90545 9.15879 2.91061 9.49431 2.90449C9.75306 2.89993 9.96439 2.99917 10.1478 3.17953C10.3747 3.40261 10.5529 3.66421 10.7031 3.94441C10.8816 4.27765 11.047 4.61881 11.2165 4.95721C11.2325 4.98901 11.2485 5.00329 11.2856 5.00521C11.5518 5.01721 11.7572 5.14297 11.8924 5.37721C11.9427 5.46409 11.9649 5.56813 12 5.66437V7.98037C11.9958 7.98907 11.9925 7.99815 11.99 8.00749C11.9231 8.39149 11.6241 8.65021 11.2478 8.65033C11.0228 8.65033 10.7977 8.65189 10.5728 8.64913C10.5234 8.64913 10.5011 8.66113 10.482 8.71225C10.2933 9.21973 9.94307 9.54433 9.43117 9.68005C9.3643 9.69781 9.29533 9.70717 9.22729 9.72037H8.97099C8.95844 9.716 8.94564 9.71243 8.93266 9.70969C8.33641 9.62005 7.93192 9.28237 7.71349 8.70649C7.69776 8.66485 7.6811 8.64913 7.63613 8.64925C6.59423 8.65069 5.55233 8.65069 4.51043 8.64925C4.46709 8.64925 4.44728 8.66053 4.43144 8.70433C4.261 9.17521 3.94412 9.49321 3.47928 9.64825C3.37898 9.68185 3.27273 9.69649 3.16927 9.71989ZM0.88016 3.17593V5.10001C0.88016 5.95793 0.87981 6.81573 0.879111 7.67341C0.879111 7.72669 0.890761 7.74541 0.946565 7.74541C1.14648 7.74181 1.34651 7.74037 1.54631 7.74541C1.61621 7.74745 1.64405 7.72453 1.66759 7.65685C1.87729 7.05145 2.45746 6.64489 3.07957 6.66157C3.6863 6.67777 4.22407 7.08409 4.42713 7.68349C4.44414 7.73365 4.46732 7.74445 4.51415 7.74445C5.51963 7.74325 6.52518 7.74293 7.53081 7.74349H7.59384V3.17593H0.88016ZM11.1146 7.74349V5.91409H8.48367V6.79909C8.49742 6.79453 8.50697 6.79237 8.51536 6.78853C8.77386 6.66893 9.0615 6.6329 9.3403 6.68521C9.91639 6.78985 10.3166 7.10989 10.4975 7.69489C10.5091 7.73089 10.5222 7.74673 10.5608 7.74493C10.6325 7.74157 10.7044 7.74397 10.7762 7.74397L11.1146 7.74349ZM8.48169 5.00113H10.2548C10.2507 4.98706 10.2456 4.97331 10.2397 4.95997C10.1136 4.72633 9.99503 4.48789 9.85814 4.26121C9.76983 4.11493 9.6566 3.98425 9.54965 3.85057C9.53147 3.82777 9.48907 3.81565 9.45773 3.81541C9.15122 3.81289 8.8447 3.81385 8.53819 3.81385H8.48169V5.00113ZM9.09914 8.81365C9.43338 8.81365 9.69248 8.54209 9.69259 8.19277C9.69259 7.82797 9.44235 7.56961 9.08679 7.56877C8.76211 7.56757 8.50196 7.84933 8.50301 8.20105C8.50253 8.28182 8.51765 8.36188 8.5475 8.43657C8.57735 8.51126 8.62132 8.57908 8.67687 8.63609C8.73242 8.69311 8.79842 8.73817 8.87103 8.76865C8.94365 8.79913 9.02143 8.81443 9.09984 8.81365H9.09914ZM3.63528 8.19589C3.63644 7.84285 3.3763 7.57081 3.03518 7.56829C2.71492 7.56601 2.44697 7.84921 2.44697 8.19013C2.44697 8.53597 2.70875 8.81149 3.04019 8.81413C3.37164 8.81677 3.63528 8.54389 3.63609 8.19589H3.63528Z" fill="#2D3E50"/>
</svg>
