<svg width="24" height="24" viewBox="0 0 24 24" fill="none" xmlns="http://www.w3.org/2000/svg">
<path d="M6.33855 19.4398H5.82595C5.8092 19.4313 5.79163 19.4247 5.77352 19.4201C4.56518 19.2456 3.74805 18.5643 3.30954 17.3969C3.28042 17.3191 3.24593 17.2973 3.16834 17.2978C2.70234 17.3016 2.23634 17.3095 1.77034 17.2978C1.07134 17.2798 0.546153 16.9447 0.218321 16.3123C0.112772 16.1088 0.0710652 15.8705 0 15.648V6.16801C0.00906605 6.14714 0.0164688 6.12555 0.022135 6.10345C0.140499 5.44873 0.486272 4.97041 1.07576 4.69393C1.2356 4.61905 1.41431 4.58737 1.5844 4.53601H15.379C15.3919 4.54414 15.4057 4.55051 15.4202 4.55497C16.1013 4.67233 16.5673 5.06641 16.8294 5.71777C16.8604 5.79433 16.8993 5.81377 16.975 5.81377C17.6463 5.81089 18.3176 5.82121 18.9886 5.80897C19.5061 5.79985 19.9288 5.99833 20.2955 6.35905C20.7494 6.80521 21.1059 7.32841 21.4062 7.88881C21.7632 8.55529 22.0941 9.23761 22.4331 9.91441C22.465 9.97801 22.4969 10.0066 22.5712 10.0104C23.1036 10.0344 23.5144 10.2859 23.7847 10.7544C23.8854 10.9282 23.9299 11.1363 24 11.3287V15.9607C23.9917 15.9781 23.985 15.9963 23.98 16.015C23.8462 16.783 23.2481 17.3004 22.4955 17.3007C22.0456 17.3007 21.5954 17.3038 21.1455 17.2983C21.0467 17.2983 21.0022 17.3223 20.964 17.4245C20.5865 18.4395 19.8861 19.0887 18.8623 19.3601C18.7286 19.3956 18.5907 19.4143 18.4546 19.4407H17.942C17.9169 19.432 17.8913 19.4249 17.8653 19.4194C16.6728 19.2401 15.8638 18.5647 15.427 17.413C15.3955 17.3297 15.3622 17.2983 15.2723 17.2985C13.1885 17.3014 11.1047 17.3014 9.02085 17.2985C8.93418 17.2985 8.89457 17.3211 8.86288 17.4087C8.522 18.3504 7.88824 18.9864 6.95856 19.2965C6.75795 19.3637 6.54545 19.393 6.33855 19.4398ZM1.76032 6.35185V10.2C1.76032 11.9159 1.75962 13.6315 1.75822 15.3468C1.75822 15.4534 1.78152 15.4908 1.89313 15.4908C2.29296 15.4836 2.69302 15.4807 3.09262 15.4908C3.23242 15.4949 3.2881 15.4491 3.33517 15.3137C3.75457 14.1029 4.91492 13.2898 6.15914 13.3231C7.37261 13.3555 8.44814 14.1682 8.85426 15.367C8.88828 15.4673 8.93464 15.4889 9.02831 15.4889C11.0393 15.4865 13.0504 15.4859 15.0616 15.487H15.1877V6.35185H1.76032ZM22.2292 15.487V11.8282H16.9673V13.5982C16.9948 13.5891 17.0139 13.5847 17.0307 13.5771C17.5477 13.3379 18.123 13.2658 18.6806 13.3704C19.8328 13.5797 20.6331 14.2198 20.995 15.3898C21.0183 15.4618 21.0444 15.4935 21.1215 15.4899C21.265 15.4831 21.4088 15.4879 21.5523 15.4879L22.2292 15.487ZM16.9634 10.0023H20.5096C20.5014 9.97413 20.4913 9.94662 20.4794 9.91993C20.2273 9.45265 19.9901 8.97577 19.7163 8.52241C19.5397 8.22985 19.3132 7.96849 19.0993 7.70113C19.0629 7.65553 18.9781 7.63129 18.9155 7.63081C18.3024 7.62577 17.6894 7.62769 17.0764 7.62769H16.9634V10.0023ZM18.1983 17.6273C18.8668 17.6273 19.385 17.0842 19.3852 16.3855C19.3852 15.6559 18.8847 15.1392 18.1736 15.1375C17.5242 15.1351 17.0039 15.6987 17.006 16.4021C17.0051 16.5636 17.0353 16.7238 17.095 16.8731C17.1547 17.0225 17.2426 17.1582 17.3537 17.2722C17.4648 17.3862 17.5968 17.4763 17.7421 17.5373C17.8873 17.5983 18.0429 17.6289 18.1997 17.6273H18.1983ZM7.27055 16.3918C7.27288 15.6857 6.75259 15.1416 6.07037 15.1366C5.42985 15.132 4.89395 15.6984 4.89395 16.3803C4.89395 17.0719 5.4175 17.623 6.08038 17.6283C6.74327 17.6335 7.27055 17.0878 7.27218 16.3918H7.27055Z" fill="#2D3E50"/>
</svg>
