<svg width="16" height="16" viewBox="0 0 16 16" fill="none" xmlns="http://www.w3.org/2000/svg">
<path d="M4.2257 12.9598H3.88397C3.8728 12.9542 3.86108 12.9498 3.84902 12.9467C3.04345 12.8304 2.4987 12.3761 2.20636 11.5979C2.18694 11.5461 2.16395 11.5315 2.11223 11.5318C1.80156 11.5344 1.49089 11.5397 1.18023 11.5318C0.714225 11.5198 0.364102 11.2965 0.145548 10.8749C0.0751815 10.7392 0.0473768 10.5803 0 10.432V4.11199C0.00604404 4.09808 0.0109792 4.08368 0.0147567 4.06895C0.0936662 3.63247 0.324182 3.31359 0.717176 3.12927C0.823735 3.07935 0.942876 3.05823 1.05627 3.02399H10.2526C10.2612 3.02941 10.2705 3.03365 10.2801 3.03663C10.7342 3.11487 11.0449 3.37759 11.2196 3.81183C11.2403 3.86287 11.2662 3.87583 11.3167 3.87583C11.7642 3.87391 12.2117 3.88079 12.6591 3.87263C13.0041 3.86655 13.2859 3.99887 13.5303 4.23935C13.8329 4.53679 14.0706 4.88559 14.2708 5.25919C14.5088 5.70351 14.7294 6.15839 14.9554 6.60959C14.9767 6.65199 14.9979 6.67103 15.0475 6.67359C15.4024 6.68959 15.6763 6.85727 15.8565 7.16959C15.9236 7.28543 15.9532 7.42415 16 7.55247V10.6405C15.9945 10.6521 15.99 10.6642 15.9866 10.6766C15.8975 11.1886 15.4987 11.5336 14.997 11.5337C14.6971 11.5337 14.397 11.5358 14.097 11.5321C14.0311 11.5321 14.0015 11.5481 13.976 11.6163C13.7244 12.2929 13.2574 12.7257 12.5749 12.9067C12.4857 12.9304 12.3938 12.9429 12.3031 12.9605H11.9613C11.9446 12.9546 11.9275 12.9499 11.9102 12.9462C11.1152 12.8267 10.5759 12.3765 10.2846 11.6086C10.2637 11.5531 10.2415 11.5321 10.1815 11.5323C8.79231 11.5342 7.4031 11.5342 6.0139 11.5323C5.95612 11.5323 5.92971 11.5473 5.90859 11.6057C5.68133 12.2336 5.25882 12.6576 4.63904 12.8643C4.5053 12.9091 4.36364 12.9286 4.2257 12.9598ZM1.17355 4.23455V6.79999C1.17355 7.94388 1.17308 9.08761 1.17215 10.2312C1.17215 10.3022 1.18768 10.3272 1.26209 10.3272C1.52864 10.3224 1.79535 10.3205 2.06174 10.3272C2.15495 10.3299 2.19207 10.2993 2.22345 10.2091C2.50305 9.40191 3.27661 8.85983 4.10609 8.88207C4.91507 8.90367 5.63209 9.44543 5.90284 10.2446C5.92552 10.3115 5.95643 10.3259 6.01887 10.3259C7.35951 10.3243 8.70024 10.3239 10.0411 10.3246H10.1251V4.23455H1.17355ZM14.8195 10.3246V7.88543H11.3116V9.06543C11.3299 9.05935 11.3426 9.05647 11.3538 9.05135C11.6985 8.89189 12.082 8.84385 12.4537 8.91359C13.2219 9.05311 13.7554 9.47983 13.9967 10.2598C14.0122 10.3078 14.0296 10.3289 14.081 10.3265C14.1767 10.3221 14.2725 10.3253 14.3682 10.3253L14.8195 10.3246ZM11.3089 6.66815H13.6731C13.6676 6.6494 13.6609 6.63106 13.6529 6.61327C13.4848 6.30175 13.3267 5.98383 13.1442 5.68159C13.0264 5.48655 12.8755 5.31231 12.7329 5.13407C12.7086 5.10367 12.6521 5.08751 12.6103 5.08719C12.2016 5.08383 11.7929 5.08511 11.3843 5.08511H11.3089V6.66815ZM12.1322 11.7515C12.5778 11.7515 12.9233 11.3894 12.9235 10.9237C12.9235 10.4373 12.5898 10.0928 12.1157 10.0917C11.6828 10.0901 11.3359 10.4657 11.3373 10.9347C11.3367 11.0424 11.3569 11.1491 11.3967 11.2487C11.4365 11.3483 11.4951 11.4388 11.5692 11.5148C11.6432 11.5908 11.7312 11.6509 11.828 11.6915C11.9249 11.7322 12.0286 11.7525 12.1331 11.7515H12.1322ZM4.84703 10.9278C4.84859 10.4571 4.50173 10.0944 4.04691 10.091C3.6199 10.088 3.26263 10.4656 3.26263 10.9201C3.26263 11.3813 3.61167 11.7486 4.05359 11.7521C4.49551 11.7557 4.84703 11.3918 4.84812 10.9278H4.84703Z" fill="#2D3E50"/>
</svg>
