<svg width="16" height="16" viewBox="0 0 16 16" fill="none" xmlns="http://www.w3.org/2000/svg">
<path fill-rule="evenodd" clip-rule="evenodd" d="M11.5334 4.26667C11.5334 2.27844 9.92156 0.666667 7.93336 0.666667C5.94512 0.666667 4.33334 2.27844 4.33334 4.26667V4.33333C4.33334 4.66471 4.60197 4.93333 4.93334 4.93333C5.26471 4.93333 5.53334 4.66471 5.53334 4.33333V4.26667C5.53334 2.94119 6.60782 1.86667 7.93336 1.86667C9.25882 1.86667 10.3334 2.94119 10.3334 4.26667V5.93333C10.3334 5.95587 10.3346 5.97811 10.337 6H5.13334H5.10821H5.10818C4.56948 5.99999 4.12893 5.99999 3.77088 6.02924C3.40028 6.05952 3.06556 6.12411 2.75296 6.28339C2.26374 6.53265 1.866 6.9304 1.61672 7.4196C1.45745 7.7322 1.39286 8.06693 1.36258 8.43753C1.33333 8.7956 1.33334 9.23613 1.33334 9.77487V9.8V11.4V11.4251C1.33334 11.9639 1.33333 12.4044 1.36258 12.7625C1.39286 13.1331 1.45745 13.4678 1.61672 13.7804C1.866 14.2696 2.26374 14.6673 2.75296 14.9166C3.06556 15.0759 3.40028 15.1405 3.77088 15.1707C4.12894 15.2 4.5695 15.2 5.1082 15.2H5.13334H10.7334H10.7585C11.2972 15.2 11.7378 15.2 12.0958 15.1707C12.4664 15.1405 12.8012 15.0759 13.1137 14.9166C13.603 14.6673 14.0007 14.2696 14.25 13.7804C14.4092 13.4678 14.4738 13.1331 14.5041 12.7625C14.5334 12.4044 14.5334 11.9639 14.5334 11.4251V11.4V9.8V9.77487C14.5334 9.23613 14.5334 8.7956 14.5041 8.43753C14.4738 8.06693 14.4092 7.7322 14.25 7.4196C14.0007 6.9304 13.603 6.53265 13.1137 6.28339C12.8012 6.12411 12.4664 6.05952 12.0958 6.02924C11.926 6.01537 11.7377 6.00808 11.5292 6.00425C11.532 5.98099 11.5334 5.95733 11.5334 5.93333V4.26667ZM3.8686 7.22527C3.5722 7.24947 3.41298 7.29387 3.29776 7.3526C3.03433 7.4868 2.82016 7.701 2.68593 7.9644C2.62722 8.07967 2.58282 8.23887 2.5586 8.53527C2.53381 8.83867 2.53334 9.23007 2.53334 9.8V11.4C2.53334 11.9699 2.53381 12.3613 2.5586 12.6647C2.58282 12.9611 2.62722 13.1203 2.68593 13.2356C2.82016 13.499 3.03433 13.7132 3.29776 13.8474C3.41298 13.9061 3.5722 13.9505 3.8686 13.9747C4.17201 13.9995 4.56339 14 5.13334 14H10.7334C11.3033 14 11.6947 13.9995 11.9981 13.9747C12.2945 13.9505 12.4537 13.9061 12.569 13.8474C12.8324 13.7132 13.0466 13.499 13.1808 13.2356C13.2395 13.1203 13.2839 12.9611 13.3081 12.6647C13.3329 12.3613 13.3334 11.9699 13.3334 11.4V9.8C13.3334 9.23007 13.3329 8.83867 13.3081 8.53527C13.2839 8.23887 13.2395 8.07967 13.1808 7.9644C13.0466 7.701 12.8324 7.4868 12.569 7.3526C12.4537 7.29387 12.2945 7.24947 11.9981 7.22527C11.6947 7.20047 11.3033 7.2 10.7334 7.2H5.13334C4.56339 7.2 4.17201 7.20047 3.8686 7.22527ZM8.60002 11.0883C8.99856 10.8577 9.26669 10.4269 9.26669 9.93333C9.26669 9.19693 8.66969 8.6 7.93336 8.6C7.19696 8.6 6.6 9.19693 6.6 9.93333C6.6 10.4269 6.86816 10.8577 7.26669 11.0883V12.2667C7.26669 12.6349 7.56516 12.9333 7.93336 12.9333C8.30156 12.9333 8.60002 12.6349 8.60002 12.2667V11.0883Z" fill="#2D3E50"/>
</svg>
