<svg width="24" height="24" viewBox="0 0 24 24" fill="none" xmlns="http://www.w3.org/2000/svg">
<path fill-rule="evenodd" clip-rule="evenodd" d="M17.3 6.4C17.3 3.41766 14.8823 1 11.9 1C8.91766 1 6.5 3.41766 6.5 6.4V6.5C6.5 6.99706 6.90294 7.4 7.39999 7.4C7.89705 7.4 8.29999 6.99706 8.29999 6.5V6.4C8.29999 4.41178 9.91172 2.8 11.9 2.8C13.8882 2.8 15.5 4.41178 15.5 6.4V8.9C15.5 8.9338 15.5018 8.96717 15.5055 9H7.7H7.6623H7.66225C6.85421 8.99999 6.19338 8.99998 5.65631 9.04386C5.1004 9.08928 4.59832 9.18616 4.12943 9.42508C3.3956 9.79898 2.79898 10.3956 2.42507 11.1294C2.18616 11.5983 2.08928 12.1004 2.04386 12.6563C1.99998 13.1934 1.99999 13.8542 2 14.6623V14.7V17.1V17.1377C1.99999 17.9458 1.99998 18.6066 2.04386 19.1437C2.08928 19.6996 2.18616 20.2017 2.42507 20.6706C2.79898 21.4044 3.3956 22.001 4.12943 22.3749C4.59832 22.6138 5.1004 22.7107 5.65631 22.7561C6.19339 22.8 6.85424 22.8 7.66229 22.8H7.7H16.1H16.1377C16.9457 22.8 17.6066 22.8 18.1437 22.7561C18.6996 22.7107 19.2017 22.6138 19.6705 22.3749C20.4044 22.001 21.001 21.4044 21.3749 20.6706C21.6138 20.2017 21.7107 19.6996 21.7561 19.1437C21.8 18.6066 21.8 17.9458 21.8 17.1377V17.1V14.7V14.6623C21.8 13.8542 21.8 13.1934 21.7561 12.6563C21.7107 12.1004 21.6138 11.5983 21.3749 11.1294C21.001 10.3956 20.4044 9.79898 19.6705 9.42508C19.2017 9.18616 18.6996 9.08928 18.1437 9.04386C17.889 9.02306 17.6065 9.01212 17.2938 9.00637C17.2979 8.97148 17.3 8.93599 17.3 8.9V6.4ZM5.80289 10.8379C5.35829 10.8742 5.11946 10.9408 4.94662 11.0289C4.55148 11.2302 4.23022 11.5515 4.02888 11.9466C3.94081 12.1195 3.87421 12.3583 3.83788 12.8029C3.8007 13.258 3.8 13.8451 3.8 14.7V17.1C3.8 17.9549 3.8007 18.542 3.83788 18.9971C3.87421 19.4417 3.94081 19.6805 4.02888 19.8534C4.23022 20.2485 4.55148 20.5698 4.94662 20.7711C5.11946 20.8592 5.35829 20.9258 5.80289 20.9621C6.258 20.9993 6.84507 21 7.7 21H16.1C16.9549 21 17.542 20.9993 17.9971 20.9621C18.4417 20.9258 18.6805 20.8592 18.8534 20.7711C19.2485 20.5698 19.5698 20.2485 19.7711 19.8534C19.8592 19.6805 19.9258 19.4417 19.9621 18.9971C19.9993 18.542 20 17.9549 20 17.1V14.7C20 13.8451 19.9993 13.258 19.9621 12.8029C19.9258 12.3583 19.8592 12.1195 19.7711 11.9466C19.5698 11.5515 19.2485 11.2302 18.8534 11.0289C18.6805 10.9408 18.4417 10.8742 17.9971 10.8379C17.542 10.8007 16.9549 10.8 16.1 10.8H7.7C6.84507 10.8 6.258 10.8007 5.80289 10.8379ZM12.9 16.6324C13.4978 16.2866 13.9 15.6403 13.9 14.9C13.9 13.7954 13.0045 12.9 11.9 12.9C10.7954 12.9 9.89999 13.7954 9.89999 14.9C9.89999 15.6403 10.3022 16.2866 10.9 16.6324V18.4C10.9 18.9523 11.3477 19.4 11.9 19.4C12.4523 19.4 12.9 18.9523 12.9 18.4V16.6324Z" fill="#2D3E50"/>
</svg>
