<svg width="12" height="12" viewBox="0 0 12 12" fill="none" xmlns="http://www.w3.org/2000/svg">
<path fill-rule="evenodd" clip-rule="evenodd" d="M8.65001 3.2C8.65001 1.70883 7.44116 0.5 5.95001 0.5C4.45883 0.5 3.25 1.70883 3.25 3.2V3.25C3.25 3.49853 3.45147 3.7 3.7 3.7C3.94852 3.7 4.15 3.49853 4.15 3.25V3.2C4.15 2.20589 4.95586 1.4 5.95001 1.4C6.94411 1.4 7.75001 2.20589 7.75001 3.2V4.45C7.75001 4.4669 7.75091 4.48358 7.75276 4.5H3.85H3.83115H3.83113C3.4271 4.49999 3.09669 4.49999 2.82816 4.52193C2.5502 4.54464 2.29916 4.59308 2.06472 4.71254C1.6978 4.89949 1.39949 5.1978 1.21254 5.5647C1.09308 5.79915 1.04464 6.0502 1.02193 6.32815C0.99999 6.5967 0.999995 6.9271 1 7.33115V7.35V8.55V8.56885C0.999995 8.9729 0.99999 9.3033 1.02193 9.57185C1.04464 9.8498 1.09308 10.1008 1.21254 10.3353C1.39949 10.7022 1.6978 11.0005 2.06472 11.1874C2.29916 11.3069 2.5502 11.3553 2.82816 11.378C3.09669 11.4 3.42712 11.4 3.83115 11.4H3.85H8.05001H8.06886C8.47286 11.4 8.80331 11.4 9.07186 11.378C9.34981 11.3553 9.60086 11.3069 9.83526 11.1874C10.2022 11.0005 10.5005 10.7022 10.6875 10.3353C10.8069 10.1008 10.8554 9.8498 10.8781 9.57185C10.9 9.3033 10.9 8.9729 10.9 8.56885V8.55V7.35V7.33115C10.9 6.9271 10.9 6.5967 10.8781 6.32815C10.8554 6.0502 10.8069 5.79915 10.6875 5.5647C10.5005 5.1978 10.2022 4.89949 9.83526 4.71254C9.60086 4.59308 9.34981 4.54464 9.07186 4.52193C8.94451 4.51153 8.80326 4.50606 8.64691 4.50318C8.64896 4.48574 8.65001 4.468 8.65001 4.45V3.2ZM2.90145 5.41895C2.67915 5.4371 2.55973 5.4704 2.47331 5.51445C2.27574 5.6151 2.11511 5.77575 2.01444 5.9733C1.97041 6.05975 1.93711 6.17915 1.91894 6.40145C1.90035 6.629 1.9 6.92255 1.9 7.35V8.55C1.9 8.97745 1.90035 9.271 1.91894 9.49855C1.93711 9.72085 1.97041 9.84025 2.01444 9.9267C2.11511 10.1242 2.27574 10.2849 2.47331 10.3855C2.55973 10.4296 2.67915 10.4629 2.90145 10.481C3.129 10.4997 3.42254 10.5 3.85 10.5H8.05001C8.47746 10.5 8.77101 10.4997 8.99856 10.481C9.22086 10.4629 9.34026 10.4296 9.42671 10.3855C9.62426 10.2849 9.78491 10.1242 9.88556 9.9267C9.92961 9.84025 9.96291 9.72085 9.98106 9.49855C9.99966 9.271 10 8.97745 10 8.55V7.35C10 6.92255 9.99966 6.629 9.98106 6.40145C9.96291 6.17915 9.92961 6.05975 9.88556 5.9733C9.78491 5.77575 9.62426 5.6151 9.42671 5.51445C9.34026 5.4704 9.22086 5.4371 8.99856 5.41895C8.77101 5.40035 8.47746 5.4 8.05001 5.4H3.85C3.42254 5.4 3.129 5.40035 2.90145 5.41895ZM6.45001 8.3162C6.74891 8.1433 6.95001 7.82015 6.95001 7.45C6.95001 6.8977 6.50226 6.45 5.95001 6.45C5.39771 6.45 4.95 6.8977 4.95 7.45C4.95 7.82015 5.15111 8.1433 5.45001 8.3162V9.2C5.45001 9.47615 5.67386 9.7 5.95001 9.7C6.22616 9.7 6.45001 9.47615 6.45001 9.2V8.3162Z" fill="#2D3E50"/>
</svg>
