<svg width="12" height="12" viewBox="0 0 12 12" fill="none" xmlns="http://www.w3.org/2000/svg">
<path d="M6.08112 7.8C4.38112 7.8 3.08112 6.3 3.08112 4.4C3.08112 2.5 4.38112 1 6.08112 1C7.78112 1 9.08112 2.5 9.08112 4.4C9.08112 6.3 7.78112 7.8 6.08112 7.8ZM6.08112 2.5C5.28112 2.5 4.58112 3.3 4.58112 4.4C4.58112 5.5 5.28112 6.3 6.08112 6.3C6.88112 6.3 7.58112 5.5 7.58112 4.4C7.58112 3.3 6.88112 2.5 6.08112 2.5Z" fill="#2D3E50"/>
<path d="M9.48114 11.5C9.28114 11.5 8.98114 11.4 8.88114 11.2C8.88114 11.2 7.88114 10 6.08114 10C4.28114 10 3.38114 11.2 3.28114 11.3C2.98114 11.6 2.58114 11.7 2.28114 11.4C1.98114 11.2 1.88114 10.7 2.18114 10.4C2.18114 10.3 3.48114 8.5 6.08114 8.5C8.68114 8.5 9.98114 10.2 10.0811 10.3C10.2811 10.6 10.2811 11.1 9.98114 11.3C9.78114 11.5 9.58114 11.5 9.48114 11.5Z" fill="#2D3E50"/>
</svg>
