<svg width="24" height="24" viewBox="0 0 24 24" fill="none" xmlns="http://www.w3.org/2000/svg">
<path d="M11.9 11.8C9.2 11.8 7 9.4 7 6.4C7 3.4 9.2 1 11.9 1C14.6 1 16.8 3.4 16.8 6.4C16.8 9.4 14.6 11.8 11.9 11.8ZM11.9 2.8C10.2 2.8 8.8 4.4 8.8 6.4C8.8 8.4 10.2 10 11.9 10C13.6 10 15 8.4 15 6.4C15 4.4 13.6 2.8 11.9 2.8Z" fill="#2D3E50"/>
<path d="M16.1 22.4C15.5 22.4 14.8 22.4 14.1 22.3C12.7 22.2 11.1 22.2 9.7 22.3C7.3 22.4 5.2 22.5 3.9 21.3C3.3 20.7 3 19.9 3 18.8C3 16 7.3 13.4 11.9 13.4C16.5 13.4 20.8 16 20.8 18.8C20.8 19.9 20.5 20.7 19.9 21.3C19 22.2 17.7 22.4 16.1 22.4ZM11.9 20.5C12.7 20.5 13.4 20.5 14.2 20.6C16.1 20.7 18 20.8 18.6 20.1C18.7 20 19 19.7 19 18.9C19 17.6 16.1 15.3 11.9 15.3C7.7 15.3 4.8 17.6 4.8 18.9C4.8 19.7 5.1 20 5.2 20.1C5.9 20.8 7.7 20.7 9.6 20.6C10.4 20.5 11.1 20.5 11.9 20.5Z" fill="#2D3E50"/>
</svg>
