<svg width="16" height="16" viewBox="0 0 16 16" fill="none" xmlns="http://www.w3.org/2000/svg">
<path d="M6.00002 8.26667C4.00002 8.26667 2.40002 6.66667 2.40002 4.66667C2.40002 2.66667 4.00002 1.06667 6.00002 1.06667C8.00002 1.06667 9.60002 2.66667 9.60002 4.66667C9.60002 6.66667 8.00002 8.26667 6.00002 8.26667ZM6.00002 2.26667C4.66669 2.26667 3.60002 3.33333 3.60002 4.66667C3.60002 6 4.66669 7.06667 6.00002 7.06667C7.33336 7.06667 8.40002 6 8.40002 4.66667C8.40002 3.33333 7.33336 2.26667 6.00002 2.26667Z" fill="#2D3E50"/>
<path d="M10 8.26667C9.66669 8.26667 9.40002 8 9.40002 7.66667C9.40002 7.33333 9.66669 7.06667 10 7.06667C11.3334 7.06667 12.4 6 12.4 4.66667C12.4 3.33333 11.3334 2.26667 10 2.26667C9.66669 2.26667 9.40002 2 9.40002 1.66667C9.40002 1.33333 9.66669 1.06667 10 1.06667C12 1.06667 13.6 2.66667 13.6 4.66667C13.6 6.66667 12 8.26667 10 8.26667Z" fill="#2D3E50"/>
<path d="M6 15.2667C3.06667 15.2667 0.733337 14.1333 0.733337 12.6667C0.733337 10.6 3 9.06667 6 9.06667C9 9.06667 11.2667 10.6 11.2667 12.6667C11.2667 14.1333 8.93334 15.2667 6 15.2667ZM6 10.2667C3.73334 10.2667 1.93334 11.3333 1.93334 12.6667C1.93334 13.0667 3.33334 14.0667 6 14.0667C8.66667 14.0667 10.0667 13.0667 10.0667 12.6667C10.0667 11.3333 8.26667 10.2667 6 10.2667Z" fill="#2D3E50"/>
<path d="M11.6667 15.0667C11.4 15.0667 11.1333 14.8667 11.0667 14.6C11 14.2667 11.2 13.9333 11.5333 13.8667C13.2667 13.5333 14.0667 12.8667 14.0667 12.6667C14.0667 11.8 13.0667 10.9333 11.5333 10.5333C11.2 10.4667 11 10.1333 11.1333 9.8C11.2 9.46667 11.5333 9.26667 11.8667 9.4C13.9333 9.93334 15.3333 11.2667 15.3333 12.7333C15.3333 14 13.5333 14.8 11.8667 15.1333C11.7333 15.0667 11.7333 15.0667 11.6667 15.0667Z" fill="#2D3E50"/>
</svg>
