<svg width="16" height="16" viewBox="0 0 16 16" fill="none" xmlns="http://www.w3.org/2000/svg">
<path d="M8.18116 9.6C6.08116 9.6 4.38116 7.7 4.38116 5.4C4.38116 3.1 6.08116 1 8.18116 1C10.2812 1 11.9812 2.9 11.9812 5.2C11.9812 7.5 10.2812 9.6 8.18116 9.6ZM8.18116 2.6C6.98116 2.6 5.98116 3.8 5.98116 5.3C5.98116 6.8 6.98116 8.1 8.18116 8.1C9.38116 8.1 10.3812 6.9 10.3812 5.3C10.3812 3.7 9.38116 2.6 8.18116 2.6Z" fill="#2D3E50"/>
<path d="M12.6811 14.6C12.4811 14.6 12.1811 14.5 12.0811 14.3C11.9811 14.2 10.7811 12.6 8.18114 12.6C5.58114 12.6 4.38114 14.2 4.28114 14.3C3.98114 14.6 3.58114 14.7 3.28114 14.4C2.98114 14.2 2.88114 13.7 3.18114 13.4C3.18114 13.3 4.88114 11 8.18114 11C11.4811 11 13.1811 13.2 13.2811 13.3C13.4811 13.6 13.4811 14.1 13.1811 14.3C12.9811 14.5 12.8811 14.6 12.6811 14.6Z" fill="#2D3E50"/>
</svg>
