<svg width="24" height="24" viewBox="0 0 24 24" fill="none" xmlns="http://www.w3.org/2000/svg">
<path d="M8.99998 12.4C5.99998 12.4 3.59998 10 3.59998 7C3.59998 4 5.99998 1.6 8.99998 1.6C12 1.6 14.4 4 14.4 7C14.4 10 12 12.4 8.99998 12.4ZM8.99998 3.4C6.99998 3.4 5.39998 5 5.39998 7C5.39998 9 6.99998 10.6 8.99998 10.6C11 10.6 12.6 9 12.6 7C12.6 5 11 3.4 8.99998 3.4Z" fill="#2D3E50"/>
<path d="M15 12.4C14.5 12.4 14.1 12 14.1 11.5C14.1 11 14.5 10.6 15 10.6C17 10.6 18.6 9 18.6 7C18.6 5 17 3.4 15 3.4C14.5 3.4 14.1 3 14.1 2.5C14.1 2 14.5 1.6 15 1.6C18 1.6 20.4 4 20.4 7C20.4 10 18 12.4 15 12.4Z" fill="#2D3E50"/>
<path d="M8.99998 22.9C4.59998 22.9 1.09998 21.2 1.09998 19C1.09998 15.9 4.49998 13.6 8.99998 13.6C13.5 13.6 16.9 15.9 16.9 19C16.9 21.2 13.4 22.9 8.99998 22.9ZM8.99998 15.4C5.59998 15.4 2.89998 17 2.89998 19C2.89998 19.6 4.99998 21.1 8.99998 21.1C13 21.1 15.1 19.6 15.1 19C15.1 17 12.4 15.4 8.99998 15.4Z" fill="#2D3E50"/>
<path d="M17.5 22.6C17.1 22.6 16.7 22.3 16.6 21.9C16.5 21.4 16.8 20.9 17.3 20.8C19.9 20.3 21.1 19.3 21.1 19C21.1 17.7 19.6 16.4 17.3 15.8C16.8 15.7 16.5 15.2 16.7 14.7C16.8 14.2 17.3 13.9 17.8 14.1C20.9 14.9 23 16.9 23 19.1C23 21 20.3 22.2 17.8 22.7C17.6 22.6 17.6 22.6 17.5 22.6Z" fill="#2D3E50"/>
</svg>
