<svg width="12" height="12" viewBox="0 0 12 12" fill="none" xmlns="http://www.w3.org/2000/svg">
<path d="M4.49999 6.2C2.99999 6.2 1.79999 5 1.79999 3.5C1.79999 2 2.99999 0.800003 4.49999 0.800003C5.99999 0.800003 7.19999 2 7.19999 3.5C7.19999 5 5.99999 6.2 4.49999 6.2ZM4.49999 1.7C3.49999 1.7 2.69999 2.5 2.69999 3.5C2.69999 4.5 3.49999 5.3 4.49999 5.3C5.49999 5.3 6.29999 4.5 6.29999 3.5C6.29999 2.5 5.49999 1.7 4.49999 1.7Z" fill="#2D3E50"/>
<path d="M7.49999 6.2C7.24999 6.2 7.04999 6 7.04999 5.75C7.04999 5.5 7.24999 5.3 7.49999 5.3C8.49999 5.3 9.29999 4.5 9.29999 3.5C9.29999 2.5 8.49999 1.7 7.49999 1.7C7.24999 1.7 7.04999 1.5 7.04999 1.25C7.04999 1 7.24999 0.800003 7.49999 0.800003C8.99999 0.800003 10.2 2 10.2 3.5C10.2 5 8.99999 6.2 7.49999 6.2Z" fill="#2D3E50"/>
<path d="M4.49999 11.45C2.29999 11.45 0.549988 10.6 0.549988 9.5C0.549988 7.95 2.24999 6.8 4.49999 6.8C6.74999 6.8 8.44999 7.95 8.44999 9.5C8.44999 10.6 6.69999 11.45 4.49999 11.45ZM4.49999 7.7C2.79999 7.7 1.44999 8.5 1.44999 9.5C1.44999 9.8 2.49999 10.55 4.49999 10.55C6.49999 10.55 7.54999 9.8 7.54999 9.5C7.54999 8.5 6.19999 7.7 4.49999 7.7Z" fill="#2D3E50"/>
<path d="M8.74999 11.3C8.54999 11.3 8.34999 11.15 8.29999 10.95C8.24999 10.7 8.39998 10.45 8.64998 10.4C9.94998 10.15 10.55 9.65 10.55 9.5C10.55 8.85 9.79998 8.2 8.64998 7.9C8.39998 7.85 8.24999 7.6 8.34999 7.35C8.39999 7.1 8.64998 6.95 8.89998 7.05C10.45 7.45 11.5 8.45 11.5 9.55C11.5 10.5 10.15 11.1 8.89998 11.35C8.79998 11.3 8.79999 11.3 8.74999 11.3Z" fill="#2D3E50"/>
</svg>
