<svg width="12" height="12" viewBox="0 0 12 12" fill="none" xmlns="http://www.w3.org/2000/svg">
<path d="M7.99093 2.75116C7.33638 2.62093 6.70002 2.54651 6.09093 2.54651C5.48184 2.54651 4.92729 2.63023 4.44547 2.78837C3.96365 2.93721 3.55456 3.16976 3.22729 3.46744C2.90002 3.76511 2.64547 4.13721 2.47274 4.58372C2.29093 5.01162 2.20911 5.51395 2.20911 6.06279C2.07274 6.32325 1.87274 6.54651 1.60911 6.71395C1.34547 6.88139 1.05456 6.97441 0.727289 6.97441H0.718198C0.672744 6.97441 0.63638 6.99302 0.600017 7.03023C0.572744 7.05814 0.554562 7.09535 0.545471 7.13255V7.14186V7.15116V9.36511C0.545471 9.41162 0.563653 9.44883 0.600017 9.48604C0.63638 9.52325 0.672744 9.53255 0.718198 9.53255H6.09093C6.67274 9.53255 7.28184 9.46744 7.92729 9.3279C8.57274 9.19767 9.17274 8.98372 9.7182 8.69534C10.2637 8.40697 10.7182 8.04418 11.0818 7.59767C11.4455 7.15116 11.6273 6.63023 11.6273 6.02558C11.6273 5.42093 11.4546 4.9 11.1 4.45349C10.7455 4.01628 10.3 3.65349 9.75456 3.37442C9.22729 3.09535 8.63638 2.89069 7.99093 2.75116ZM4.57274 8.98372C4.12729 8.84418 3.75456 8.63953 3.46365 8.36976C3.17274 8.1 2.94547 7.77441 2.79093 7.39302C2.64547 7.00232 2.57274 6.54651 2.57274 6.03488C2.57274 5.52325 2.66365 5.06744 2.82729 4.67674C3.00002 4.28604 3.23638 3.96046 3.54547 3.7C3.85456 3.43023 4.2182 3.22558 4.65456 3.08604C5.09093 2.93721 5.57274 2.87209 6.09093 2.87209C6.60911 2.87209 7.18184 2.93721 7.78184 3.05814C8.40002 3.18837 8.96365 3.38372 9.48184 3.65349C10 3.91395 10.4273 4.23953 10.7727 4.63953C11.1091 5.03023 11.2727 5.49535 11.2727 6.03488C11.2727 6.56511 11.1091 7.03023 10.7909 7.42093C10.4637 7.82093 10.0455 8.15581 9.53638 8.41627C9.02729 8.67674 8.47274 8.87209 7.85456 8.99302C7.23638 9.12325 6.64547 9.18837 6.07274 9.18837C5.5182 9.18837 5.00911 9.12325 4.57274 8.98372ZM2.24547 6.63023C2.32729 7.22558 2.52729 7.74651 2.84547 8.17441C3.16365 8.61162 3.57274 8.9372 4.09093 9.16976L4.14547 9.19767H0.900017L0.909108 7.3093H0.918199H0.927289C1.19093 7.28139 1.43638 7.20697 1.66365 7.09535C1.89093 6.96511 2.09093 6.81628 2.24547 6.63023ZM3.18184 7.20697C3.34547 7.55116 3.57274 7.83953 3.85456 8.07209C4.14547 8.31395 4.49093 8.49069 4.88184 8.60232C5.29093 8.73255 5.72729 8.78837 6.20911 8.78837C6.70002 8.78837 7.20911 8.73255 7.75456 8.62093C8.30002 8.5093 8.80911 8.34186 9.27275 8.1186C9.73638 7.89534 10.1182 7.60697 10.4273 7.26279C10.7364 6.9093 10.8909 6.5 10.8909 6.01628C10.8909 5.54186 10.7364 5.12325 10.4273 4.76976C10.1182 4.42558 9.73638 4.13721 9.27275 3.91395C8.8182 3.7093 8.30911 3.54186 7.76365 3.43023C7.2182 3.3186 6.70002 3.26279 6.2182 3.26279C5.70911 3.26279 5.24547 3.3279 4.83638 3.44883C4.42729 3.56976 4.09093 3.74651 3.80911 3.98837C3.52729 4.23023 3.3182 4.5186 3.17274 4.85348C3.02729 5.19767 2.95456 5.58837 2.95456 6.02558C2.95456 6.47209 3.02729 6.86279 3.18184 7.20697ZM9.04547 7.85814C8.60911 8.06279 8.13638 8.21162 7.63638 8.31395C7.12729 8.40697 6.65456 8.45348 6.2182 8.45348C5.94547 8.45348 5.63638 8.42558 5.30002 8.37907C4.96365 8.32325 4.64547 8.20232 4.35456 8.03488C4.06365 7.86744 3.80911 7.61627 3.60911 7.3C3.40911 6.98372 3.30002 6.56511 3.30002 6.03488C3.30002 5.50465 3.40002 5.08604 3.60911 4.76976C3.8182 4.45349 4.06365 4.20232 4.35456 4.03488C4.65456 3.85814 4.96365 3.74651 5.30002 3.69069C5.63638 3.64418 5.94547 3.61628 6.2182 3.61628C6.65456 3.61628 7.12729 3.66279 7.63638 3.75581C8.14547 3.85814 8.60911 4.00697 9.04547 4.21162C9.48184 4.41628 9.83638 4.66744 10.1273 4.97442C10.4091 5.28139 10.5546 5.64418 10.5546 6.04418C10.5546 6.44418 10.4091 6.80697 10.1273 7.11395C9.84547 7.40232 9.48184 7.66279 9.04547 7.85814Z" fill="#2D3E50"/>
<path d="M6.09091 9.57907H0.718182C0.663636 9.57907 0.609091 9.56046 0.563636 9.51395C0.518182 9.46744 0.5 9.42093 0.5 9.35581V7.12325C0.509091 7.06744 0.536364 7.03023 0.563636 6.99302C0.6 6.94651 0.654545 6.9186 0.718182 6.9186H0.727273C1.04545 6.9186 1.32727 6.83488 1.59091 6.66744C1.83636 6.5093 2.03636 6.29535 2.17273 6.04419C2.17273 5.48605 2.26364 4.98372 2.44545 4.55581C2.61818 4.1093 2.87273 3.72791 3.20909 3.43023C3.54545 3.12326 3.95455 2.8907 4.44545 2.74186C4.92727 2.58372 5.48182 2.5 6.1 2.5C6.70909 2.5 7.35455 2.56512 8.00909 2.70465C8.65454 2.83488 9.26364 3.04884 9.8 3.33721C10.3455 3.62558 10.8 3.98837 11.1545 4.43488C11.5091 4.88139 11.6909 5.42093 11.6909 6.03488C11.6909 6.64884 11.5 7.18837 11.1273 7.63488C10.7636 8.08139 10.3 8.46279 9.74545 8.75116C9.2 9.03953 8.59091 9.25349 7.94545 9.38372C7.29091 9.51395 6.67273 9.57907 6.09091 9.57907ZM0.718182 7.02093C0.681818 7.02093 0.654545 7.03023 0.636364 7.05814C0.618182 7.08605 0.6 7.11395 0.590909 7.14186V9.35581C0.590909 9.39302 0.6 9.42093 0.627273 9.43953C0.654545 9.46744 0.681818 9.47674 0.718182 9.47674H6.09091C6.66364 9.47674 7.28182 9.41163 7.91818 9.27209C8.55454 9.14186 9.15454 8.92791 9.7 8.64884C10.2364 8.36977 10.6909 7.99767 11.0545 7.56046C11.4091 7.13256 11.5909 6.61163 11.5909 6.01628C11.5909 5.43023 11.4182 4.9093 11.0818 4.47209C10.7364 4.04419 10.2818 3.6814 9.75455 3.40233C9.21818 3.12326 8.62727 2.9186 7.99091 2.77907C7.34545 2.64884 6.70909 2.57442 6.1 2.57442C5.49091 2.57442 4.94545 2.65814 4.47273 2.81628C4 2.96512 3.59091 3.18837 3.27273 3.48605C2.94545 3.78372 2.7 4.14651 2.53636 4.58372C2.36364 5.01163 2.27273 5.50465 2.27273 6.05349V6.06279L2.26364 6.07209C2.11818 6.34186 1.91818 6.56512 1.64545 6.74186C1.37273 6.9186 1.07273 7.00233 0.736364 7.00233H0.718182V7.02093ZM6.09091 9.23488C5.51818 9.23488 5 9.16046 4.56364 9.02093C4.11818 8.88139 3.73636 8.66744 3.43636 8.39767C3.13636 8.12791 2.90909 7.79302 2.74545 7.40232C2.6 7.00232 2.51818 6.53721 2.51818 6.02558C2.51818 5.51395 2.60909 5.04884 2.78182 4.64884C2.95455 4.25814 3.2 3.92326 3.51818 3.65349C3.82727 3.38372 4.20909 3.17907 4.63636 3.03023C5.51818 2.75116 6.58182 2.75116 7.79091 3.00233C8.40909 3.13256 8.98182 3.33721 9.5 3.59767C10.0182 3.85814 10.4636 4.19302 10.8091 4.59302C11.1545 4.99302 11.3273 5.47674 11.3273 6.02558C11.3273 6.56512 11.1636 7.03953 10.8364 7.43953C10.5 7.84884 10.0818 8.18372 9.57273 8.44419C9.06364 8.70465 8.5 8.9 7.88182 9.03023C7.26364 9.16977 6.66364 9.23488 6.09091 9.23488ZM6.09091 2.9186C5.57273 2.9186 5.1 2.99302 4.66364 3.12326C4.24545 3.26279 3.87273 3.46744 3.57273 3.72791C3.27273 3.98837 3.03636 4.31395 2.86364 4.69535C2.69091 5.08605 2.60909 5.53256 2.60909 6.03488C2.60909 6.53721 2.68182 6.99302 2.82727 7.38372C2.98182 7.75581 3.2 8.08139 3.49091 8.34186C3.78182 8.60232 4.14545 8.80698 4.58182 8.94651C5.01818 9.08605 5.51818 9.15116 6.08182 9.15116C6.64545 9.15116 7.24545 9.08605 7.85455 8.95581C8.46364 8.83488 9.02727 8.63953 9.52727 8.37907C10.0273 8.1186 10.4364 7.79302 10.7636 7.39302C11.0727 7.01163 11.2273 6.55581 11.2273 6.03488C11.2273 5.51395 11.0636 5.04884 10.7364 4.66744C10.3909 4.27674 9.96364 3.95116 9.45455 3.6907C8.94545 3.43023 8.37273 3.23488 7.76364 3.10465C7.17273 2.98372 6.60909 2.9186 6.09091 2.9186ZM4.14545 9.23488H0.854545L0.863636 7.25349H0.927273C1.18182 7.22558 1.42727 7.16046 1.64545 7.03953C1.86364 6.92791 2.05455 6.76977 2.20909 6.59302L2.29091 6.5V6.62093C2.37273 7.20698 2.57273 7.7093 2.88182 8.13721C3.19091 8.56511 3.6 8.8907 4.10909 9.11395L4.16364 9.14186L4.14545 9.23488ZM0.945454 9.14186H3.93636C3.48182 8.9186 3.1 8.60232 2.80909 8.20232C2.50909 7.78372 2.30909 7.2907 2.21818 6.73256C2.06364 6.8907 1.89091 7.02093 1.69091 7.13256C1.46364 7.25349 1.21818 7.32791 0.954545 7.35581L0.945454 9.14186ZM6.21818 8.84418C5.73636 8.84418 5.28182 8.77907 4.87273 8.64884C4.47273 8.52791 4.11818 8.34186 3.82727 8.1093C3.53636 7.86744 3.3 7.56977 3.13636 7.22558C2.98182 6.88139 2.9 6.48139 2.9 6.03488C2.9 5.58837 2.97273 5.18837 3.11818 4.84419C3.26364 4.5 3.48182 4.20233 3.77273 3.96046C4.05455 3.7186 4.40909 3.53256 4.81818 3.42093C5.60909 3.16977 6.64545 3.16977 7.76364 3.39302C8.30909 3.50465 8.82727 3.67209 9.29091 3.89535C9.76364 4.1186 10.1545 4.41628 10.4636 4.76046C10.7818 5.12326 10.9364 5.55116 10.9364 6.03488C10.9364 6.52791 10.7727 6.95581 10.4636 7.3093C10.1545 7.66279 9.76364 7.95116 9.29091 8.17442C8.82727 8.39767 8.31818 8.56512 7.76364 8.67674C7.22727 8.78837 6.7 8.84418 6.21818 8.84418ZM6.21818 3.3093C5.70909 3.3093 5.25455 3.37442 4.85455 3.49535C4.45455 3.61628 4.10909 3.79302 3.83636 4.02558C3.56364 4.25814 3.35455 4.54651 3.20909 4.88139C3.06364 5.20698 3 5.59767 3 6.03488C3 6.47209 3.07273 6.85349 3.22727 7.18837C3.38182 7.52326 3.60909 7.80232 3.89091 8.03488C4.17273 8.26744 4.51818 8.44418 4.90909 8.56511C5.71818 8.81628 6.69091 8.80698 7.76364 8.59302C8.3 8.48139 8.80909 8.31395 9.26364 8.1C9.71818 7.87674 10.1 7.59767 10.4 7.25349C10.7 6.9093 10.8545 6.5 10.8545 6.03488C10.8545 5.56977 10.7 5.16046 10.4 4.81628C10.1 4.47209 9.71818 4.19302 9.26364 3.96977C8.80909 3.74651 8.3 3.57907 7.76364 3.47674C7.21818 3.36512 6.7 3.3093 6.21818 3.3093ZM6.21818 8.5C5.94545 8.5 5.63636 8.47209 5.29091 8.42558C4.94545 8.36977 4.62727 8.24884 4.32727 8.07209C4.02727 7.89535 3.77273 7.64419 3.56364 7.3186C3.35455 6.99302 3.25455 6.55581 3.25455 6.02558C3.25455 5.49535 3.36364 5.05814 3.56364 4.73256C3.77273 4.40698 4.02727 4.15581 4.32727 3.97907C4.62727 3.80233 4.95455 3.6907 5.29091 3.62558C5.63636 3.57907 5.94545 3.55116 6.21818 3.55116C6.65455 3.55116 7.13636 3.59767 7.64545 3.6907C8.15454 3.79302 8.62727 3.94186 9.06364 4.14651C9.5 4.35116 9.87273 4.61163 10.1636 4.9186C10.4545 5.23488 10.6 5.60698 10.6 6.02558C10.6 6.44419 10.4545 6.81628 10.1636 7.12325C9.87273 7.43023 9.5 7.6907 9.06364 7.89535C8.62727 8.1 8.14545 8.24884 7.64545 8.35116C7.13636 8.45349 6.65455 8.5 6.21818 8.5ZM6.21818 3.65349C5.94545 3.65349 5.63636 3.6814 5.3 3.72791C4.97273 3.78372 4.65455 3.89535 4.36364 4.07209C4.07273 4.23953 3.82727 4.4814 3.62727 4.79767C3.42727 5.10465 3.32727 5.52326 3.32727 6.03488C3.32727 6.54651 3.42727 6.96512 3.62727 7.27209C3.82727 7.58837 4.07273 7.83023 4.36364 7.99767C4.65455 8.16512 4.96364 8.27674 5.3 8.34186C5.63636 8.38837 5.94545 8.41628 6.20909 8.41628C6.64545 8.41628 7.11818 8.36977 7.61818 8.27674C8.11818 8.17442 8.59091 8.02558 9.01818 7.83023C9.44545 7.63488 9.8 7.37442 10.0909 7.07674C10.3636 6.77907 10.5 6.42558 10.5 6.03488C10.5 5.64419 10.3636 5.2907 10.0909 4.99302C9.80909 4.69535 9.44545 4.44419 9.02727 4.23953C8.6 4.03488 8.12727 3.88605 7.62727 3.79302C7.12727 3.7 6.65455 3.65349 6.21818 3.65349Z" fill="#2D3E50"/>
</svg>
