<svg width="16" height="16" viewBox="0 0 16 16" fill="none" xmlns="http://www.w3.org/2000/svg">
<path d="M10.6546 3.66821C9.78184 3.49456 8.93336 3.39534 8.12123 3.39534C7.30911 3.39534 6.56972 3.50697 5.9273 3.71782C5.28487 3.91627 4.73942 4.22635 4.30305 4.62325C3.86669 5.02015 3.5273 5.51627 3.29699 6.11162C3.05457 6.68216 2.94548 7.35193 2.94548 8.08371C2.76366 8.431 2.49699 8.72867 2.14548 8.95193C1.79396 9.17518 1.40608 9.29921 0.969719 9.29921H0.957598C0.896992 9.29921 0.848507 9.32402 0.800022 9.37363C0.763659 9.41084 0.739416 9.46046 0.727295 9.51007V9.52247V9.53487V12.4868C0.727295 12.5488 0.751537 12.5984 0.800022 12.6481C0.848507 12.6977 0.896992 12.7101 0.957598 12.7101H8.12123C8.89699 12.7101 9.70911 12.6232 10.5697 12.4372C11.4303 12.2636 12.2303 11.9783 12.9576 11.5938C13.6849 11.2093 14.2909 10.7256 14.7758 10.1302C15.2606 9.53487 15.5031 8.8403 15.5031 8.0341C15.5031 7.2279 15.2728 6.53332 14.8 5.93798C14.3273 5.35503 13.7334 4.87131 13.0061 4.49922C12.3031 4.12712 11.5152 3.85425 10.6546 3.66821ZM6.09699 11.9783C5.50305 11.7922 5.00608 11.5194 4.6182 11.1597C4.23033 10.8 3.9273 10.3659 3.72123 9.85735C3.5273 9.33642 3.43033 8.72867 3.43033 8.0465C3.43033 7.36433 3.55154 6.75658 3.76972 6.23565C4.00002 5.71472 4.31517 5.28061 4.7273 4.93332C5.13942 4.57363 5.62427 4.30077 6.20608 4.11472C6.7879 3.91627 7.43033 3.82945 8.12123 3.82945C8.81214 3.82945 9.57578 3.91627 10.3758 4.07751C11.2 4.25115 11.9515 4.51162 12.6424 4.87131C13.3334 5.2186 13.9031 5.6527 14.3637 6.18604C14.8121 6.70697 15.0303 7.32712 15.0303 8.0465C15.0303 8.75348 14.8121 9.37363 14.3879 9.89456C13.9515 10.4279 13.394 10.8744 12.7152 11.2217C12.0364 11.569 11.297 11.8294 10.4728 11.9907C9.64851 12.1643 8.86063 12.2512 8.09699 12.2512C7.3576 12.2512 6.67881 12.1643 6.09699 11.9783ZM2.99396 8.8403C3.10305 9.6341 3.36972 10.3287 3.79396 10.8992C4.2182 11.4822 4.76366 11.9163 5.45457 12.2263L5.5273 12.2636H1.20002L1.21214 9.74573H1.22426H1.23639C1.5879 9.70852 1.91517 9.60929 2.2182 9.46046C2.52123 9.28681 2.7879 9.08836 2.99396 8.8403ZM4.24245 9.60929C4.46063 10.0682 4.76366 10.4527 5.13942 10.7628C5.5273 11.0853 5.9879 11.3209 6.50911 11.4698C7.05457 11.6434 7.63639 11.7178 8.27881 11.7178C8.93336 11.7178 9.61214 11.6434 10.3394 11.4946C11.0667 11.3457 11.7455 11.1225 12.3637 10.8248C12.9818 10.5271 13.4909 10.1426 13.9031 9.68371C14.3152 9.21239 14.5212 8.66666 14.5212 8.0217C14.5212 7.38914 14.3152 6.831 13.9031 6.35968C13.4909 5.90077 12.9818 5.51627 12.3637 5.2186C11.7576 4.94573 11.0788 4.72247 10.3515 4.57363C9.62427 4.4248 8.93336 4.35038 8.29093 4.35038C7.61214 4.35038 6.99396 4.4372 6.44851 4.59844C5.90305 4.75968 5.45457 4.99534 5.07881 5.31782C4.70305 5.6403 4.42427 6.0248 4.23033 6.47131C4.03639 6.93022 3.93942 7.45115 3.93942 8.0341C3.93942 8.62945 4.03639 9.15038 4.24245 9.60929ZM12.0606 10.4775C11.4788 10.7504 10.8485 10.9488 10.1818 11.0853C9.50305 11.2093 8.87275 11.2713 8.29093 11.2713C7.9273 11.2713 7.51517 11.2341 7.06669 11.1721C6.6182 11.0977 6.19396 10.9364 5.80608 10.7132C5.4182 10.4899 5.07881 10.155 4.81214 9.73332C4.54548 9.31162 4.40002 8.75348 4.40002 8.0465C4.40002 7.33953 4.53336 6.78139 4.81214 6.35968C5.09093 5.93798 5.4182 5.60309 5.80608 5.37984C6.20608 5.14418 6.6182 4.99534 7.06669 4.92092C7.51517 4.85891 7.9273 4.8217 8.29093 4.8217C8.87275 4.8217 9.50305 4.88371 10.1818 5.00774C10.8606 5.14418 11.4788 5.34263 12.0606 5.61549C12.6424 5.88836 13.1152 6.22325 13.5031 6.63255C13.8788 7.04185 14.0728 7.52557 14.0728 8.0589C14.0728 8.59224 13.8788 9.07596 13.5031 9.48526C13.1273 9.86976 12.6424 10.217 12.0606 10.4775Z" fill="#2D3E50"/>
<path d="M8.12123 12.7721H0.957596C0.884869 12.7721 0.812142 12.7473 0.751535 12.6853C0.690929 12.6232 0.666687 12.5612 0.666687 12.4744V9.49767C0.678808 9.42325 0.715172 9.37364 0.751535 9.32403C0.80002 9.26201 0.872748 9.2248 0.957596 9.2248H0.969717C1.39396 9.2248 1.76972 9.11317 2.12123 8.88992C2.44851 8.67906 2.71517 8.39379 2.89699 8.05891C2.89699 7.31472 3.0182 6.64496 3.26063 6.07441C3.49093 5.47906 3.83032 4.97054 4.27881 4.57364C4.72729 4.16434 5.27275 3.85426 5.92729 3.65581C6.56972 3.44496 7.30911 3.33333 8.13335 3.33333C8.94547 3.33333 9.80608 3.42015 10.6788 3.6062C11.5394 3.77984 12.3515 4.06511 13.0667 4.44961C13.794 4.8341 14.4 5.31782 14.8727 5.91317C15.3455 6.50852 15.5879 7.2279 15.5879 8.04651C15.5879 8.86511 15.3334 9.58449 14.8364 10.1798C14.3515 10.7752 13.7334 11.2837 12.994 11.6682C12.2667 12.0527 11.4546 12.338 10.594 12.5116C9.72123 12.6853 8.89699 12.7721 8.12123 12.7721ZM0.957596 9.36123C0.909111 9.36123 0.872748 9.37364 0.848505 9.41085C0.824263 9.44806 0.80002 9.48527 0.787899 9.52247V12.4744C0.787899 12.524 0.80002 12.5612 0.836384 12.586C0.872748 12.6232 0.909111 12.6357 0.957596 12.6357H8.12123C8.88487 12.6357 9.70911 12.5488 10.5576 12.3628C11.4061 12.1891 12.2061 11.9039 12.9334 11.5318C13.6485 11.1597 14.2546 10.6636 14.7394 10.0806C15.2121 9.51007 15.4546 8.8155 15.4546 8.0217C15.4546 7.2403 15.2243 6.54573 14.7758 5.96279C14.3152 5.39224 13.7091 4.90852 13.0061 4.53643C12.2909 4.16434 11.5031 3.89147 10.6546 3.70542C9.79396 3.53178 8.94547 3.43255 8.13335 3.43255C7.32123 3.43255 6.59396 3.54418 5.96366 3.75503C5.33335 3.95348 4.7879 4.25116 4.36366 4.64806C3.92729 5.04496 3.60002 5.52868 3.38184 6.11162C3.15154 6.68216 3.03032 7.33953 3.03032 8.07131V8.08372L3.0182 8.09612C2.82426 8.45581 2.5576 8.75348 2.19396 8.98914C1.83032 9.2248 1.43032 9.33643 0.981838 9.33643H0.957596V9.36123ZM8.12123 12.3132C7.3576 12.3132 6.66669 12.2139 6.08487 12.0279C5.49093 11.8419 4.98184 11.5566 4.58184 11.1969C4.18184 10.8372 3.87881 10.3907 3.66063 9.86976C3.46669 9.33643 3.3576 8.71627 3.3576 8.0341C3.3576 7.35193 3.47881 6.73178 3.70911 6.19844C3.93941 5.67751 4.26669 5.231 4.69093 4.87131C5.10305 4.51162 5.61214 4.23875 6.18184 4.0403C7.3576 3.66821 8.77578 3.66821 10.3879 4.0031C11.2121 4.17674 11.9758 4.44961 12.6667 4.79689C13.3576 5.14418 13.9515 5.59069 14.4121 6.12403C14.8727 6.65736 15.1031 7.30232 15.1031 8.0341C15.1031 8.75348 14.8849 9.38604 14.4485 9.91937C14 10.4651 13.4424 10.9116 12.7637 11.2589C12.0849 11.6062 11.3334 11.8667 10.5091 12.0403C9.68487 12.2263 8.88487 12.3132 8.12123 12.3132ZM8.12123 3.89147C7.43032 3.89147 6.80002 3.99069 6.2182 4.16434C5.66063 4.35038 5.16366 4.62325 4.76366 4.97054C4.36366 5.31782 4.04851 5.75193 3.8182 6.26046C3.5879 6.78139 3.47881 7.37674 3.47881 8.04651C3.47881 8.71627 3.57578 9.32402 3.76972 9.84495C3.97578 10.3411 4.26669 10.7752 4.65457 11.1225C5.04244 11.4698 5.52729 11.7426 6.10911 11.9287C6.69093 12.1147 7.3576 12.2015 8.10911 12.2015C8.86063 12.2015 9.66063 12.1147 10.4727 11.9411C11.2849 11.7798 12.0364 11.5194 12.7031 11.1721C13.3697 10.8248 13.9152 10.3907 14.3515 9.85736C14.7637 9.34883 14.9697 8.74108 14.9697 8.04651C14.9697 7.35193 14.7515 6.73178 14.3152 6.22325C13.8546 5.70232 13.2849 5.26821 12.6061 4.92092C11.9273 4.57364 11.1637 4.31317 10.3515 4.13953C9.56366 3.97829 8.81214 3.89147 8.12123 3.89147ZM5.52729 12.3132H1.13941L1.15154 9.67131H1.23638C1.57578 9.6341 1.90305 9.54728 2.19396 9.38604C2.48487 9.2372 2.73941 9.02635 2.94547 8.79069L3.05457 8.66666V8.8279C3.16366 9.6093 3.43032 10.2791 3.84244 10.8496C4.25457 11.4201 4.80002 11.8543 5.47881 12.1519L5.55154 12.1891L5.52729 12.3132ZM1.26063 12.1891H5.24851C4.64244 11.8915 4.13335 11.4698 3.74547 10.9364C3.34547 10.3783 3.07881 9.72092 2.9576 8.97674C2.75154 9.18759 2.52123 9.36123 2.25457 9.51007C1.95154 9.67131 1.62426 9.77054 1.27275 9.80775L1.26063 12.1891ZM8.29093 11.7922C7.64851 11.7922 7.04244 11.7054 6.49699 11.5318C5.96366 11.3705 5.49093 11.1225 5.10305 10.8124C4.71517 10.4899 4.40002 10.093 4.18184 9.6341C3.97578 9.17519 3.86669 8.64185 3.86669 8.04651C3.86669 7.45116 3.96366 6.91782 4.1576 6.45891C4.35154 5.99999 4.64244 5.6031 5.03032 5.28061C5.40608 4.95813 5.87881 4.71007 6.42426 4.56124C7.47881 4.22635 8.86063 4.22635 10.3515 4.52403C11.0788 4.67286 11.7697 4.89612 12.3879 5.19379C13.0182 5.49147 13.5394 5.88837 13.9515 6.34728C14.3758 6.831 14.5818 7.40154 14.5818 8.04651C14.5818 8.70387 14.3637 9.27441 13.9515 9.74573C13.5394 10.217 13.0182 10.6015 12.3879 10.8992C11.7697 11.1969 11.0909 11.4201 10.3515 11.569C9.63638 11.7178 8.93335 11.7922 8.29093 11.7922ZM8.29093 4.4124C7.61214 4.4124 7.00608 4.49922 6.47275 4.66046C5.93941 4.8217 5.47881 5.05736 5.11517 5.36744C4.75154 5.67751 4.47275 6.06201 4.27881 6.50852C4.08487 6.94263 4.00002 7.46356 4.00002 8.04651C4.00002 8.62945 4.09699 9.13798 4.30305 9.58449C4.50911 10.031 4.81214 10.4031 5.1879 10.7132C5.56366 11.0232 6.02426 11.2589 6.54547 11.4201C7.62426 11.755 8.92123 11.7426 10.3515 11.4574C11.0667 11.3085 11.7455 11.0853 12.3515 10.8C12.9576 10.5023 13.4667 10.1302 13.8667 9.67131C14.2667 9.2124 14.4727 8.66666 14.4727 8.04651C14.4727 7.42635 14.2667 6.88061 13.8667 6.4217C13.4667 5.96279 12.9576 5.59069 12.3515 5.29302C11.7455 4.99534 11.0667 4.77209 10.3515 4.63565C9.62426 4.48682 8.93335 4.4124 8.29093 4.4124ZM8.29093 11.3333C7.92729 11.3333 7.51517 11.2961 7.05457 11.2341C6.59396 11.1597 6.16972 10.9984 5.76972 10.7628C5.36972 10.5271 5.03032 10.1922 4.75154 9.75813C4.47275 9.32403 4.33941 8.74108 4.33941 8.0341C4.33941 7.32713 4.48487 6.74418 4.75154 6.31007C5.03032 5.87596 5.36972 5.54108 5.76972 5.30542C6.16972 5.06976 6.60608 4.92092 7.05457 4.8341C7.51517 4.77209 7.92729 4.73488 8.29093 4.73488C8.87275 4.73488 9.51517 4.79689 10.194 4.92092C10.8727 5.05736 11.503 5.25581 12.0849 5.52868C12.6667 5.80154 13.1637 6.14883 13.5515 6.55813C13.9394 6.97984 14.1334 7.47596 14.1334 8.0341C14.1334 8.59224 13.9394 9.08837 13.5515 9.49767C13.1637 9.90697 12.6667 10.2543 12.0849 10.5271C11.503 10.8 10.8606 10.9984 10.194 11.1349C9.51517 11.2713 8.87275 11.3333 8.29093 11.3333ZM8.29093 4.87131C7.92729 4.87131 7.51517 4.90852 7.06669 4.97054C6.63032 5.04496 6.20608 5.19379 5.8182 5.42945C5.43032 5.65271 5.10305 5.97519 4.83638 6.39689C4.56972 6.8062 4.43638 7.36434 4.43638 8.04651C4.43638 8.72868 4.56972 9.28682 4.83638 9.69612C5.10305 10.1178 5.43032 10.4403 5.8182 10.6636C6.20608 10.8868 6.6182 11.0357 7.06669 11.1225C7.51517 11.1845 7.92729 11.2217 8.27881 11.2217C8.86063 11.2217 9.49093 11.1597 10.1576 11.0357C10.8243 10.8992 11.4546 10.7008 12.0243 10.4403C12.594 10.1798 13.0667 9.83255 13.4546 9.43565C13.8182 9.03875 14 8.56744 14 8.04651C14 7.52558 13.8182 7.05426 13.4546 6.65736C13.0788 6.26046 12.594 5.92558 12.0364 5.65271C11.4667 5.37984 10.8364 5.18139 10.1697 5.05736C9.50305 4.93333 8.87275 4.87131 8.29093 4.87131Z" fill="#2D3E50"/>
</svg>
