<svg width="24" height="24" viewBox="0 0 24 24" fill="none" xmlns="http://www.w3.org/2000/svg">
<path d="M15.9818 5.50232C14.6727 5.24185 13.4 5.09302 12.1818 5.09302C10.9636 5.09302 9.85452 5.26046 8.89088 5.57674C7.92725 5.87441 7.10906 6.33953 6.45452 6.93488C5.79997 7.53023 5.29088 8.27441 4.94543 9.16744C4.58179 10.0233 4.41815 11.0279 4.41815 12.1256C4.14543 12.6465 3.74543 13.093 3.21815 13.4279C2.69088 13.7628 2.10906 13.9488 1.45452 13.9488H1.43634C1.34543 13.9488 1.2727 13.986 1.19997 14.0605C1.14543 14.1163 1.10906 14.1907 1.09088 14.2651V14.2837V14.3023V18.7302C1.09088 18.8232 1.12724 18.8977 1.19997 18.9721C1.2727 19.0465 1.34543 19.0651 1.43634 19.0651H12.1818C13.3454 19.0651 14.5636 18.9349 15.8545 18.6558C17.1454 18.3953 18.3454 17.9674 19.4363 17.3907C20.5272 16.8139 21.4363 16.0884 22.1636 15.1953C22.8909 14.3023 23.2545 13.2605 23.2545 12.0512C23.2545 10.8419 22.9091 9.79999 22.2 8.90697C21.4909 8.03255 20.6 7.30697 19.5091 6.74883C18.4545 6.19069 17.2727 5.78139 15.9818 5.50232ZM9.14543 17.9674C8.25452 17.6884 7.50906 17.2791 6.92724 16.7395C6.34543 16.2 5.89088 15.5488 5.58179 14.786C5.29088 14.0046 5.14543 13.093 5.14543 12.0698C5.14543 11.0465 5.32725 10.1349 5.65452 9.35348C5.99997 8.57209 6.4727 7.92092 7.09088 7.39999C7.70906 6.86046 8.43634 6.45116 9.30906 6.17209C10.1818 5.87441 11.1454 5.74418 12.1818 5.74418C13.2182 5.74418 14.3636 5.87441 15.5636 6.11627C16.8 6.37674 17.9272 6.76744 18.9636 7.30697C20 7.8279 20.8545 8.47906 21.5454 9.27906C22.2182 10.0605 22.5454 10.9907 22.5454 12.0698C22.5454 13.1302 22.2182 14.0605 21.5818 14.8419C20.9272 15.6419 20.0909 16.3116 19.0727 16.8326C18.0545 17.3535 16.9454 17.7442 15.7091 17.986C14.4727 18.2465 13.2909 18.3767 12.1454 18.3767C11.0363 18.3767 10.0182 18.2465 9.14543 17.9674ZM4.49088 13.2605C4.65452 14.4512 5.05452 15.493 5.69088 16.3488C6.32725 17.2232 7.14543 17.8744 8.18179 18.3395L8.29088 18.3953H1.79997L1.81815 14.6186H1.83634H1.85452C2.38179 14.5628 2.8727 14.4139 3.32724 14.1907C3.78179 13.9302 4.18179 13.6326 4.49088 13.2605ZM6.36361 14.4139C6.69088 15.1023 7.14543 15.6791 7.70906 16.1442C8.29088 16.6279 8.98179 16.9814 9.76361 17.2046C10.5818 17.4651 11.4545 17.5767 12.4182 17.5767C13.4 17.5767 14.4182 17.4651 15.5091 17.2419C16.6 17.0186 17.6182 16.6837 18.5454 16.2372C19.4727 15.7907 20.2363 15.2139 20.8545 14.5256C21.4727 13.8186 21.7818 13 21.7818 12.0326C21.7818 11.0837 21.4727 10.2465 20.8545 9.53953C20.2363 8.85116 19.4727 8.27441 18.5454 7.8279C17.6363 7.4186 16.6182 7.08372 15.5272 6.86046C14.4363 6.6372 13.4 6.52558 12.4363 6.52558C11.4182 6.52558 10.4909 6.65581 9.6727 6.89767C8.85452 7.13953 8.18179 7.49302 7.61815 7.97674C7.05452 8.46046 6.63634 9.0372 6.34543 9.70697C6.05452 10.3953 5.90906 11.1767 5.90906 12.0512C5.90906 12.9442 6.05452 13.7256 6.36361 14.4139ZM18.0909 15.7163C17.2182 16.1256 16.2727 16.4232 15.2727 16.6279C14.2545 16.8139 13.3091 16.907 12.4363 16.907C11.8909 16.907 11.2727 16.8512 10.6 16.7581C9.92725 16.6465 9.29088 16.4046 8.70906 16.0698C8.12725 15.7349 7.61815 15.2326 7.21815 14.6C6.81815 13.9674 6.59997 13.1302 6.59997 12.0698C6.59997 11.0093 6.79997 10.1721 7.21815 9.53953C7.63634 8.90697 8.12725 8.40465 8.70906 8.06976C9.30906 7.71627 9.92725 7.49302 10.6 7.38139C11.2727 7.28837 11.8909 7.23255 12.4363 7.23255C13.3091 7.23255 14.2545 7.32558 15.2727 7.51162C16.2909 7.71627 17.2182 8.01395 18.0909 8.42325C18.9636 8.83255 19.6727 9.33488 20.2545 9.94883C20.8182 10.5628 21.1091 11.2884 21.1091 12.0884C21.1091 12.8884 20.8182 13.6139 20.2545 14.2279C19.6909 14.8046 18.9636 15.3256 18.0909 15.7163Z" fill="#2D3E50"/>
<path d="M12.1818 19.1581H1.43636C1.32727 19.1581 1.21818 19.1209 1.12727 19.0279C1.03636 18.9349 1 18.8419 1 18.7116V14.2465C1.01818 14.1349 1.07273 14.0605 1.12727 13.986C1.2 13.893 1.30909 13.8372 1.43636 13.8372H1.45455C2.09091 13.8372 2.65455 13.6698 3.18182 13.3349C3.67273 13.0186 4.07273 12.5907 4.34545 12.0884C4.34545 10.9721 4.52727 9.96744 4.89091 9.11163C5.23636 8.2186 5.74545 7.45581 6.41818 6.86046C7.09091 6.24651 7.90909 5.7814 8.89091 5.48372C9.85455 5.16744 10.9636 5 12.2 5C13.4182 5 14.7091 5.13023 16.0182 5.4093C17.3091 5.66977 18.5273 6.09767 19.6 6.67442C20.6909 7.25116 21.6 7.97674 22.3091 8.86977C23.0182 9.76279 23.3818 10.8419 23.3818 12.0698C23.3818 13.2977 23 14.3767 22.2545 15.2698C21.5273 16.1628 20.6 16.9256 19.4909 17.5023C18.4 18.0791 17.1818 18.507 15.8909 18.7674C14.5818 19.0279 13.3455 19.1581 12.1818 19.1581ZM1.43636 14.0419C1.36364 14.0419 1.30909 14.0605 1.27273 14.1163C1.23636 14.1721 1.2 14.2279 1.18182 14.2837V18.7116C1.18182 18.786 1.2 18.8419 1.25455 18.8791C1.30909 18.9349 1.36364 18.9535 1.43636 18.9535H12.1818C13.3273 18.9535 14.5636 18.8233 15.8364 18.5442C17.1091 18.2837 18.3091 17.8558 19.4 17.2977C20.4727 16.7395 21.3818 15.9953 22.1091 15.1209C22.8182 14.2651 23.1818 13.2233 23.1818 12.0326C23.1818 10.8605 22.8364 9.8186 22.1636 8.94419C21.4727 8.08837 20.5636 7.36279 19.5091 6.80465C18.4364 6.24651 17.2545 5.83721 15.9818 5.55814C14.6909 5.29767 13.4182 5.14884 12.2 5.14884C10.9818 5.14884 9.89091 5.31628 8.94545 5.63256C8 5.93023 7.18182 6.37674 6.54545 6.97209C5.89091 7.56744 5.4 8.29302 5.07273 9.16744C4.72727 10.0233 4.54545 11.0093 4.54545 12.107V12.1256L4.52727 12.1442C4.23636 12.6837 3.83636 13.1302 3.29091 13.4837C2.74545 13.8372 2.14545 14.0047 1.47273 14.0047H1.43636V14.0419ZM12.1818 18.4698C11.0364 18.4698 10 18.3209 9.12727 18.0419C8.23636 17.7628 7.47273 17.3349 6.87273 16.7953C6.27273 16.2558 5.81818 15.586 5.49091 14.8046C5.2 14.0047 5.03636 13.0744 5.03636 12.0512C5.03636 11.0279 5.21818 10.0977 5.56364 9.29767C5.90909 8.51628 6.4 7.84651 7.03636 7.30698C7.65455 6.76744 8.41818 6.35814 9.27273 6.06047C11.0364 5.50233 13.1636 5.50233 15.5818 6.00465C16.8182 6.26512 17.9636 6.67442 19 7.19535C20.0364 7.71628 20.9273 8.38605 21.6182 9.18605C22.3091 9.98605 22.6545 10.9535 22.6545 12.0512C22.6545 13.1302 22.3273 14.0791 21.6727 14.8791C21 15.6977 20.1636 16.3674 19.1455 16.8884C18.1273 17.4093 17 17.8 15.7636 18.0605C14.5273 18.3395 13.3273 18.4698 12.1818 18.4698ZM12.1818 5.83721C11.1455 5.83721 10.2 5.98605 9.32727 6.24651C8.49091 6.52558 7.74545 6.93488 7.14545 7.45581C6.54545 7.97674 6.07273 8.62791 5.72727 9.3907C5.38182 10.1721 5.21818 11.0651 5.21818 12.0698C5.21818 13.0744 5.36364 13.986 5.65455 14.7674C5.96364 15.5116 6.4 16.1628 6.98182 16.6837C7.56364 17.2047 8.29091 17.614 9.16364 17.893C10.0364 18.1721 11.0364 18.3023 12.1636 18.3023C13.2909 18.3023 14.4909 18.1721 15.7091 17.9116C16.9273 17.6698 18.0545 17.2791 19.0545 16.7581C20.0545 16.2372 20.8727 15.586 21.5273 14.786C22.1455 14.0233 22.4545 13.1116 22.4545 12.0698C22.4545 11.0279 22.1273 10.0977 21.4727 9.33488C20.7818 8.55349 19.9273 7.90233 18.9091 7.3814C17.8909 6.86046 16.7455 6.46977 15.5273 6.2093C14.3455 5.96744 13.2182 5.83721 12.1818 5.83721ZM8.29091 18.4698H1.70909L1.72727 14.507H1.85455C2.36364 14.4512 2.85455 14.3209 3.29091 14.0791C3.72727 13.8558 4.10909 13.5395 4.41818 13.186L4.58182 13V13.2419C4.74545 14.414 5.14545 15.4186 5.76364 16.2744C6.38182 17.1302 7.2 17.7814 8.21818 18.2279L8.32727 18.2837L8.29091 18.4698ZM1.89091 18.2837H7.87273C6.96364 17.8372 6.2 17.2047 5.61818 16.4047C5.01818 15.5674 4.61818 14.5814 4.43636 13.4651C4.12727 13.7814 3.78182 14.0419 3.38182 14.2651C2.92727 14.507 2.43636 14.6558 1.90909 14.7116L1.89091 18.2837ZM12.4364 17.6884C11.4727 17.6884 10.5636 17.5581 9.74545 17.2977C8.94545 17.0558 8.23636 16.6837 7.65454 16.2186C7.07273 15.7349 6.6 15.1395 6.27273 14.4512C5.96364 13.7628 5.8 12.9628 5.8 12.0698C5.8 11.1767 5.94545 10.3767 6.23636 9.68837C6.52727 9 6.96364 8.40465 7.54545 7.92093C8.10909 7.43721 8.81818 7.06512 9.63636 6.84186C11.2182 6.33953 13.2909 6.33953 15.5273 6.78605C16.6182 7.0093 17.6545 7.34419 18.5818 7.7907C19.5273 8.23721 20.3091 8.83256 20.9273 9.52093C21.5636 10.2465 21.8727 11.1023 21.8727 12.0698C21.8727 13.0558 21.5455 13.9116 20.9273 14.6186C20.3091 15.3256 19.5273 15.9023 18.5818 16.3488C17.6545 16.7953 16.6364 17.1302 15.5273 17.3535C14.4545 17.5767 13.4 17.6884 12.4364 17.6884ZM12.4364 6.6186C11.4182 6.6186 10.5091 6.74884 9.70909 6.9907C8.90909 7.23256 8.21818 7.58605 7.67273 8.05116C7.12727 8.51628 6.70909 9.09302 6.41818 9.76279C6.12727 10.414 6 11.1953 6 12.0698C6 12.9442 6.14545 13.707 6.45455 14.3767C6.76364 15.0465 7.21818 15.6047 7.78182 16.0698C8.34545 16.5349 9.03636 16.8884 9.81818 17.1302C11.4364 17.6326 13.3818 17.614 15.5273 17.186C16.6 16.9628 17.6182 16.6279 18.5273 16.2C19.4364 15.7535 20.2 15.1953 20.8 14.507C21.4 13.8186 21.7091 13 21.7091 12.0698C21.7091 11.1395 21.4 10.3209 20.8 9.63256C20.2 8.94419 19.4364 8.38605 18.5273 7.93953C17.6182 7.49302 16.6 7.15814 15.5273 6.95349C14.4364 6.73023 13.4 6.6186 12.4364 6.6186ZM12.4364 17C11.8909 17 11.2727 16.9442 10.5818 16.8512C9.89091 16.7395 9.25455 16.4977 8.65454 16.1442C8.05454 15.7907 7.54545 15.2884 7.12727 14.6372C6.70909 13.986 6.50909 13.1116 6.50909 12.0512C6.50909 10.9907 6.72727 10.1163 7.12727 9.46512C7.54545 8.81395 8.05454 8.31163 8.65454 7.95814C9.25455 7.60465 9.90909 7.38139 10.5818 7.25116C11.2727 7.15814 11.8909 7.10233 12.4364 7.10233C13.3091 7.10233 14.2727 7.19535 15.2909 7.3814C16.3091 7.58605 17.2545 7.88372 18.1273 8.29302C19 8.70233 19.7455 9.22326 20.3273 9.83721C20.9091 10.4698 21.2 11.214 21.2 12.0512C21.2 12.8884 20.9091 13.6326 20.3273 14.2465C19.7455 14.8605 19 15.3814 18.1273 15.7907C17.2545 16.2 16.2909 16.4977 15.2909 16.7023C14.2727 16.907 13.3091 17 12.4364 17ZM12.4364 7.30698C11.8909 7.30698 11.2727 7.36279 10.6 7.45581C9.94545 7.56744 9.30909 7.7907 8.72727 8.14419C8.14545 8.47907 7.65455 8.96279 7.25455 9.59535C6.85455 10.2093 6.65454 11.0465 6.65454 12.0698C6.65454 13.093 6.85455 13.9302 7.25455 14.5442C7.65455 15.1767 8.14545 15.6605 8.72727 15.9953C9.30909 16.3302 9.92727 16.5535 10.6 16.6837C11.2727 16.7767 11.8909 16.8326 12.4182 16.8326C13.2909 16.8326 14.2364 16.7395 15.2364 16.5535C16.2364 16.3488 17.1818 16.0512 18.0364 15.6605C18.8909 15.2698 19.6 14.7488 20.1818 14.1535C20.7273 13.5581 21 12.8512 21 12.0698C21 11.2884 20.7273 10.5814 20.1818 9.98605C19.6182 9.3907 18.8909 8.88837 18.0545 8.47907C17.2 8.06977 16.2545 7.77209 15.2545 7.58605C14.2545 7.4 13.3091 7.30698 12.4364 7.30698Z" fill="#2D3E50"/>
</svg>
