<svg width="16" height="16" viewBox="0 0 16 16" fill="none" xmlns="http://www.w3.org/2000/svg">
<path d="M6.20631 13.3455C6.00519 13.3157 5.80228 13.2932 5.60264 13.2563C4.37105 13.0324 3.23148 12.4543 2.32344 11.5927C1.61192 10.9257 1.08609 10.137 0.833268 9.18956C0.458052 7.78168 0.72305 6.4769 1.56409 5.30431C2.59289 3.87059 4.01146 3.03875 5.74465 2.73959C6.32931 2.63858 6.91604 2.63056 7.49387 2.79188C8.26124 3.00578 8.8352 3.47695 9.25795 4.14153C9.64416 4.74876 9.86133 5.41898 9.9861 6.12277C10.2077 7.37052 10.2027 8.62094 10.0051 9.86958C9.8842 10.6346 9.6599 11.3672 9.21487 12.0157C8.67686 12.7991 7.9285 13.2251 6.98675 13.3247C6.95359 13.3299 6.92075 13.337 6.88842 13.346L6.20631 13.3455ZM9.3649 8.0449C9.32955 7.58442 9.30875 7.12186 9.25557 6.66346C9.18041 6.01701 9.02444 5.38957 8.71666 4.80877C8.44632 4.29898 8.07526 3.89138 7.53309 3.66144C7.01824 3.44308 6.48141 3.44784 5.94339 3.5233C4.85736 3.66951 3.83957 4.1362 3.0201 4.86373C2.12885 5.64625 1.55488 6.60464 1.48566 7.81555C1.431 8.77988 1.72481 9.64647 2.31749 10.3975C3.38283 11.7486 4.78952 12.4604 6.51023 12.5344C7.11242 12.5606 7.66885 12.4061 8.13676 12.0068C8.57852 11.6301 8.83372 11.1355 9.0084 10.5945C9.27548 9.7662 9.33282 8.90911 9.3649 8.0449Z" fill="#2D3E50"/>
<path d="M10.9573 4.15161C11.6717 4.22707 12.4519 4.30996 13.232 4.39195C13.7784 4.44929 14.3247 4.50722 14.8713 4.56099C15.1446 4.58803 15.2872 4.69201 15.3247 4.90709C15.3686 5.15724 15.1631 5.39431 14.9088 5.37025C14.3241 5.3141 13.7403 5.25141 13.156 5.18903C12.6095 5.13179 12.0633 5.07396 11.5173 5.01553C11.2834 4.99087 11.0496 4.96829 10.8161 4.94334C10.5725 4.9169 10.4062 4.72944 10.4299 4.51049C10.4564 4.27134 10.6376 4.12814 10.9573 4.15161Z" fill="#2D3E50"/>
<path d="M10.9002 10.858C11.9071 10.9646 12.9139 11.0711 13.9207 11.1777C14.2449 11.2117 14.5692 11.2446 14.8936 11.2763C15.1283 11.2986 15.2715 11.3969 15.3175 11.5734C15.3346 11.6349 15.3363 11.6998 15.3225 11.7621C15.3087 11.8245 15.2798 11.8826 15.2383 11.9312C15.1969 11.9798 15.1441 12.0174 15.0847 12.0409C15.0252 12.0643 14.9609 12.0728 14.8975 12.0657C14.4408 12.022 13.9848 11.97 13.5285 11.9219L11.2543 11.6842C11.1147 11.6696 10.9754 11.6524 10.8357 11.6399C10.585 11.6174 10.4151 11.4436 10.432 11.224C10.4495 10.9828 10.6376 10.8366 10.9002 10.858Z" fill="#2D3E50"/>
<path d="M14.8915 10.3874L13.4857 10.2389L11.3927 10.0214C11.2683 10.0083 11.1438 9.99495 11.0199 9.97921C10.9166 9.96589 10.8227 9.91277 10.758 9.83116C10.6934 9.74955 10.6631 9.64592 10.6738 9.54235C10.6844 9.43878 10.7351 9.34347 10.815 9.27673C10.895 9.21 10.9978 9.17712 11.1016 9.18511C11.4828 9.22165 11.8636 9.26472 12.2445 9.30394L14.3258 9.5223C14.5445 9.54517 14.7634 9.56656 14.9818 9.59211C15.0827 9.6042 15.1752 9.65446 15.2403 9.73257C15.3054 9.81067 15.3381 9.91072 15.3318 10.0122C15.3136 10.2383 15.1395 10.3939 14.8915 10.3874Z" fill="#2D3E50"/>
<path d="M14.8707 7.02085L13.2368 6.84973C12.5392 6.77665 11.8419 6.70386 11.1447 6.63138C10.9994 6.61622 10.856 6.60167 10.7585 6.47333C10.6563 6.34053 10.6376 6.19615 10.716 6.0479C10.7989 5.89075 10.938 5.82242 11.1123 5.83995C11.4255 5.86965 11.738 5.9056 12.0511 5.93828C12.82 6.01909 13.5889 6.0995 14.358 6.17951C14.554 6.20001 14.7495 6.22318 14.9456 6.24368C15.1812 6.26804 15.344 6.43976 15.3318 6.65217C15.3187 6.88033 15.1369 7.03244 14.8707 7.02085Z" fill="#2D3E50"/>
<path d="M14.9271 8.70084C14.5347 8.66043 14.1547 8.62181 13.7733 8.582C13.0757 8.50852 12.3782 8.43485 11.6806 8.36097C11.5148 8.34345 11.3485 8.32948 11.1827 8.30898C10.9379 8.27928 10.7861 8.09627 10.809 7.86633C10.8318 7.63639 11.0217 7.49022 11.268 7.51548C12.2715 7.61886 13.2749 7.72373 14.278 7.83009C14.5118 7.85445 14.7459 7.87732 14.9794 7.90436C15.0813 7.91608 15.1748 7.96656 15.2406 8.04533C15.3063 8.1241 15.3392 8.22512 15.3325 8.32749C15.3257 8.42986 15.2799 8.52571 15.2045 8.59522C15.129 8.66472 15.0297 8.70253 14.9271 8.70084Z" fill="#2D3E50"/>
</svg>
