<svg width="24" height="24" viewBox="0 0 24 24" fill="none" xmlns="http://www.w3.org/2000/svg">
<path d="M9.30944 20.0182C9.00775 19.9736 8.70339 19.9398 8.40393 19.8845C6.55655 19.5487 4.84719 18.6814 3.48512 17.389C2.41785 16.3886 1.6291 15.2055 1.24987 13.7844C0.687048 11.6725 1.08454 9.71536 2.34611 7.95648C3.88931 5.80589 6.01716 4.55815 8.61694 4.1094C9.49393 3.95789 10.374 3.94586 11.2408 4.18783C12.3918 4.50868 13.2528 5.21544 13.8869 6.2123C14.4662 7.12316 14.792 8.12849 14.9791 9.18417C15.3116 11.0558 15.304 12.9314 15.0076 14.8044C14.8263 15.9519 14.4898 17.0508 13.8223 18.0236C13.0153 19.1987 11.8927 19.8377 10.4801 19.987C10.4303 19.9948 10.3811 20.0055 10.3326 20.0191L9.30944 20.0182ZM14.0473 12.0674C13.9943 11.3766 13.9631 10.6828 13.8833 9.99521C13.7706 9.02553 13.5366 8.08437 13.075 7.21318C12.6694 6.44848 12.1129 5.83709 11.2996 5.49217C10.5273 5.16464 9.72209 5.17177 8.91506 5.28496C7.28601 5.50428 5.75933 6.20431 4.53011 7.29562C3.19324 8.46939 2.33229 9.90698 2.22846 11.7233C2.14647 13.1698 2.58719 14.4697 3.47621 15.5963C5.07422 17.623 7.18425 18.6907 9.76531 18.8016C10.6686 18.8409 11.5032 18.6091 12.2051 18.0102C12.8678 17.4452 13.2505 16.7032 13.5126 15.8917C13.9132 14.6493 13.9992 13.3637 14.0473 12.0674Z" fill="#2D3E50"/>
<path d="M16.4358 6.22745C17.5076 6.34064 18.6778 6.46497 19.848 6.58796C20.6675 6.67397 21.487 6.76086 22.307 6.84152C22.7169 6.88207 22.9308 7.03804 22.987 7.36067C23.0529 7.73589 22.7446 8.0915 22.3631 8.0554C21.4861 7.97118 20.6105 7.87715 19.7339 7.78357C18.9143 7.69771 18.0949 7.61097 17.2758 7.52333C16.9251 7.48634 16.5744 7.45247 16.2242 7.41504C15.8588 7.37538 15.6092 7.09419 15.6449 6.76576C15.6845 6.40704 15.9564 6.19225 16.4358 6.22745Z" fill="#2D3E50"/>
<path d="M16.3503 16.287C17.8607 16.4469 19.3709 16.6067 20.881 16.7665C21.3673 16.8176 21.8538 16.8669 22.3404 16.9145C22.6925 16.9479 22.9073 17.0954 22.9763 17.3601C23.002 17.4524 23.0045 17.5497 22.9838 17.6432C22.9631 17.7368 22.9197 17.8238 22.8575 17.8967C22.7953 17.9696 22.7162 18.0262 22.627 18.0613C22.5379 18.0965 22.4415 18.1093 22.3462 18.0985C21.6613 18.033 20.9773 17.955 20.2928 17.8828L16.8815 17.5263C16.6721 17.5045 16.4631 17.4786 16.2536 17.4599C15.8775 17.426 15.6226 17.1653 15.648 16.836C15.6743 16.4742 15.9564 16.2549 16.3503 16.287Z" fill="#2D3E50"/>
<path d="M22.3372 15.5811L20.2285 15.3583L17.0891 15.0321C16.9024 15.0125 16.7156 14.9924 16.5298 14.9688C16.3749 14.9489 16.234 14.8692 16.137 14.7468C16.04 14.6243 15.9947 14.4689 16.0107 14.3135C16.0266 14.1582 16.1027 14.0152 16.2225 13.9151C16.3424 13.815 16.4966 13.7657 16.6524 13.7777C17.2241 13.8325 17.7954 13.8971 18.3667 13.9559L21.4887 14.2835C21.8167 14.3178 22.1451 14.3499 22.4727 14.3882C22.6241 14.4063 22.7628 14.4817 22.8604 14.5989C22.958 14.716 23.0071 14.8661 22.9976 15.0183C22.9704 15.3574 22.7093 15.5909 22.3372 15.5811Z" fill="#2D3E50"/>
<path d="M22.3061 10.5313L19.8552 10.2746C18.8088 10.165 17.7628 10.0558 16.7171 9.94707C16.4992 9.92434 16.2839 9.90251 16.1378 9.71C15.9845 9.5108 15.9564 9.29423 16.074 9.07186C16.1984 8.83613 16.4069 8.73363 16.6685 8.75993C17.1382 8.80449 17.607 8.85841 18.0767 8.90743C19.23 9.02864 20.3834 9.14925 21.537 9.26927C21.8311 9.30002 22.1243 9.33478 22.4184 9.36553C22.7718 9.40207 23.016 9.65964 22.9977 9.97826C22.9781 10.3205 22.7054 10.5487 22.3061 10.5313Z" fill="#2D3E50"/>
<path d="M22.3907 13.0513C21.8021 12.9907 21.2321 12.9327 20.6599 12.873C19.6136 12.7628 18.5673 12.6523 17.521 12.5415C17.2723 12.5152 17.0227 12.4942 16.7741 12.4635C16.4069 12.4189 16.1792 12.1444 16.2135 11.7995C16.2478 11.4546 16.5326 11.2353 16.902 11.2732C18.4073 11.4283 19.9123 11.5856 21.417 11.7451C21.7678 11.7817 22.1189 11.816 22.4692 11.8565C22.622 11.8741 22.7623 11.9498 22.8609 12.068C22.9594 12.1862 23.0088 12.3377 22.9987 12.4912C22.9887 12.6448 22.9199 12.7886 22.8067 12.8928C22.6935 12.9971 22.5446 13.0538 22.3907 13.0513Z" fill="#2D3E50"/>
</svg>
