<svg width="12" height="12" viewBox="0 0 12 12" fill="none" xmlns="http://www.w3.org/2000/svg">
<path d="M4.65472 10.0091C4.50388 9.98682 4.35169 9.96988 4.20196 9.94226C3.27828 9.77434 2.42359 9.34072 1.74256 8.69451C1.20893 8.19429 0.814549 7.60273 0.624936 6.89218C0.343524 5.83627 0.542272 4.85768 1.17305 3.97824C1.94465 2.90295 3.00858 2.27907 4.30847 2.0547C4.74696 1.97894 5.18702 1.97293 5.62039 2.09392C6.19591 2.25434 6.62639 2.60772 6.94345 3.10615C7.2331 3.56158 7.39598 4.06424 7.48956 4.59209C7.65578 5.5279 7.65199 6.46572 7.50382 7.4022C7.41314 7.97594 7.24491 8.52539 6.91114 9.01179C6.50763 9.59935 5.94636 9.91886 5.24005 9.9935C5.21517 9.99742 5.19055 10.0028 5.1663 10.0095L4.65472 10.0091ZM7.02366 6.03368C6.99715 5.68832 6.98155 5.3414 6.94167 4.99761C6.88529 4.51277 6.76832 4.04219 6.53748 3.60659C6.33472 3.22424 6.05643 2.91854 5.6498 2.74609C5.26367 2.58232 4.86104 2.58589 4.45753 2.64248C3.643 2.75214 2.87967 3.10216 2.26506 3.64781C1.59662 4.2347 1.16615 4.95349 1.11423 5.86167C1.07323 6.58492 1.2936 7.23486 1.73811 7.79813C2.53711 8.81148 3.59213 9.34534 4.88266 9.40082C5.3343 9.42043 5.75162 9.30457 6.10255 9.00511C6.43388 8.72258 6.62527 8.3516 6.75629 7.94586C6.95659 7.32466 6.9996 6.68184 7.02366 6.03368Z" fill="#2D3E50"/>
<path d="M8.21792 3.11372C8.75379 3.17032 9.33889 3.23248 9.924 3.29398C10.3337 3.33698 10.7435 3.38043 11.1535 3.42076C11.3585 3.44104 11.4654 3.51902 11.4935 3.68034C11.5265 3.86794 11.3723 4.04575 11.1815 4.0277C10.7431 3.98559 10.3052 3.93858 9.86696 3.89178C9.45713 3.84886 9.04745 3.80548 8.63792 3.76166C8.46257 3.74317 8.28722 3.72624 8.11209 3.70752C7.92938 3.68769 7.80461 3.54709 7.82243 3.38288C7.84226 3.20352 7.97818 3.09612 8.21792 3.11372Z" fill="#2D3E50"/>
<path d="M8.17514 8.14352C8.93033 8.22343 9.68544 8.30335 10.4405 8.38326C10.6836 8.40881 10.9269 8.43347 11.1702 8.45724C11.3462 8.47395 11.4536 8.5477 11.4881 8.68005C11.501 8.72622 11.5022 8.77483 11.4919 8.82162C11.4815 8.8684 11.4598 8.91193 11.4287 8.94838C11.3976 8.98483 11.3581 9.01309 11.3135 9.03068C11.2689 9.04826 11.2207 9.05464 11.1731 9.04925C10.8306 9.0165 10.4886 8.9775 10.1464 8.94141L8.44074 8.76316C8.33601 8.75224 8.23151 8.73932 8.12679 8.72996C7.93874 8.71303 7.81129 8.58268 7.82399 8.41802C7.83714 8.2371 7.97818 8.12748 8.17514 8.14352Z" fill="#2D3E50"/>
<path d="M11.1686 7.79056L10.1143 7.67915L8.54457 7.51605C8.45121 7.50625 8.35785 7.49622 8.26494 7.48441C8.18749 7.47443 8.11701 7.43458 8.06852 7.37338C8.02003 7.31217 7.99737 7.23444 8.00536 7.15677C8.01335 7.07909 8.05137 7.00761 8.1113 6.95756C8.17124 6.90751 8.24836 6.88285 8.32621 6.88884C8.61208 6.91624 8.89773 6.94855 9.18337 6.97796L10.7444 7.14173C10.9084 7.15889 11.0726 7.17493 11.2364 7.19409C11.3121 7.20316 11.3814 7.24085 11.4302 7.29943C11.479 7.35801 11.5036 7.43305 11.4988 7.50915C11.4852 7.67871 11.3547 7.79546 11.1686 7.79056Z" fill="#2D3E50"/>
<path d="M11.153 5.26565L9.92756 5.13731C9.40439 5.0825 8.88138 5.02791 8.35851 4.97354C8.24956 4.96218 8.14194 4.95126 8.06886 4.85501C7.99221 4.75541 7.97817 4.64712 8.03699 4.53594C8.09916 4.41807 8.20343 4.36682 8.33423 4.37997C8.56907 4.40225 8.80347 4.42921 9.03831 4.45372C9.61495 4.51433 10.1917 4.57463 10.7684 4.63465C10.9155 4.65002 11.0621 4.6674 11.2092 4.68277C11.3859 4.70104 11.508 4.82983 11.4988 4.98914C11.489 5.16026 11.3527 5.27434 11.153 5.26565Z" fill="#2D3E50"/>
<path d="M11.1954 6.52563C10.901 6.49533 10.6161 6.46636 10.33 6.43651C9.8068 6.3814 9.28364 6.32614 8.76048 6.27073C8.63615 6.25759 8.51137 6.24712 8.38704 6.23174C8.20345 6.20946 8.08959 6.07221 8.10674 5.89975C8.1239 5.72729 8.26628 5.61767 8.45099 5.63661C9.20365 5.71415 9.95616 5.7928 10.7085 5.87257C10.8839 5.89084 11.0595 5.908 11.2346 5.92827C11.311 5.93707 11.3811 5.97492 11.4304 6.034C11.4797 6.09308 11.5044 6.16885 11.4994 6.24562C11.4943 6.3224 11.46 6.39429 11.4034 6.44642C11.3468 6.49854 11.2723 6.5269 11.1954 6.52563Z" fill="#2D3E50"/>
</svg>
