<svg width="16" height="16" viewBox="0 0 16 16" fill="none" xmlns="http://www.w3.org/2000/svg">
<path d="M8 0.589478C3.91579 0.589478 0.589478 3.91579 0.589478 8C0.589478 12.0842 3.91579 15.4105 8 15.4105C12.0842 15.4105 15.4105 12.0842 15.4105 8C15.4105 3.91579 12.0842 0.589478 8 0.589478ZM8 14.9754C4.15439 14.9754 1.02457 11.8456 1.02457 8C1.02457 4.15439 4.15439 1.02457 8 1.02457C11.8456 1.02457 14.9754 4.15439 14.9754 8C14.9754 11.8456 11.8456 14.9754 8 14.9754Z" fill="#2D3E50"/>
<path d="M7.99999 15.4667C3.87368 15.4667 0.533325 12.1263 0.533325 8.00001C0.533325 3.87369 3.87368 0.53334 7.99999 0.53334C12.1263 0.53334 15.4667 3.88773 15.4667 8.00001C15.4667 12.1123 12.1263 15.4667 7.99999 15.4667ZM7.99999 0.673691C3.95789 0.673691 0.673676 3.9579 0.673676 8.00001C0.673676 12.0421 3.95789 15.3263 7.99999 15.3263C12.0421 15.3263 15.3263 12.0421 15.3263 8.00001C15.3263 3.9579 12.0421 0.673691 7.99999 0.673691ZM7.99999 15.0456C4.11227 15.0456 0.954378 11.8877 0.954378 8.00001C0.954378 4.11229 4.11227 0.954393 7.99999 0.954393C11.8877 0.954393 15.0456 4.11229 15.0456 8.00001C15.0456 11.8877 11.8877 15.0456 7.99999 15.0456ZM7.99999 1.09474C4.18245 1.09474 1.09473 4.18246 1.09473 8.00001C1.09473 11.8175 4.19648 14.9053 7.99999 14.9053C11.8035 14.9053 14.9053 11.8035 14.9053 8.00001C14.9053 4.1965 11.8175 1.09474 7.99999 1.09474Z" fill="#2D3E50"/>
<path d="M8.42105 6.37194V6.41405L8.46315 6.42808L8.5614 6.45615C8.74386 6.52633 8.91228 6.62457 9.05263 6.75089L9.1228 6.80703L9.16491 6.8351L9.20701 6.80703L11.3965 5.69826L11.4667 5.65615L11.4105 5.58598L11.3123 5.44563C10.6246 4.56142 9.6421 3.98598 8.54736 3.84563H8.35087H8.26666L8.2807 3.92984L8.3228 4.09826L8.42105 6.37194ZM8.82807 6.11931L8.72982 4.32282C9.54386 4.49124 10.2596 4.89826 10.807 5.5158L9.20701 6.32984C9.09473 6.24563 8.96842 6.17545 8.82807 6.11931Z" fill="#2D3E50"/>
<path d="M9.15085 6.91931L9.0105 6.793C8.87015 6.66668 8.70173 6.58247 8.53331 6.5123L8.35085 6.45615L8.22453 4.09826L8.15436 3.77545L8.54734 3.78949C9.67015 3.92984 10.6666 4.50528 11.3544 5.41756L11.5649 5.68422L9.15085 6.91931ZM8.4912 6.35791L8.57541 6.38598C8.75787 6.45615 8.94032 6.5544 9.09471 6.68072L9.16488 6.73686L11.3544 5.62808L11.2561 5.48773C10.5824 4.63159 9.61401 4.07019 8.53331 3.92984H8.33681L8.37892 4.09826L8.4912 6.35791ZM9.20699 6.41405L9.17892 6.38598C9.06664 6.30177 8.94032 6.23159 8.81401 6.17545L8.7719 6.16142L8.67366 4.23861L8.75787 4.25264C9.58594 4.42107 10.3017 4.84212 10.8631 5.4737L10.9193 5.54387L9.20699 6.41405ZM8.89822 6.07721C9.0105 6.13335 9.12278 6.18949 9.22102 6.25966L10.6947 5.50177C10.1894 4.9544 9.54383 4.57545 8.81401 4.40703L8.89822 6.07721Z" fill="#2D3E50"/>
<path d="M6.93338 6.75089C7.08777 6.61054 7.27022 6.51229 7.45268 6.44212L7.53689 6.41404L7.579 6.40001V6.3579L7.71935 4.11229L7.74742 3.9158L7.76145 3.83159L7.67724 3.84562L7.49478 3.87369C6.38601 4.01405 5.34742 4.60352 4.67373 5.50176L4.56145 5.64212L4.50531 5.71229L4.58952 5.7544L6.79303 6.8351L6.83514 6.84913L6.87724 6.82106L6.93338 6.75089ZM5.16496 5.54387C5.71233 4.91229 6.47022 4.4772 7.28426 4.30878L7.17198 6.10527C7.03163 6.17545 6.89128 6.24562 6.75092 6.34387L5.16496 5.54387Z" fill="#2D3E50"/>
<path d="M6.83511 6.93334L4.39301 5.72632L4.61757 5.44562C5.30529 4.53334 6.35792 3.92983 7.48072 3.78948L7.84564 3.74738L7.7895 4.12632L7.64914 6.45615L7.48072 6.51229C7.29827 6.58246 7.12985 6.68071 6.97546 6.80702L6.83511 6.93334ZM4.61757 5.68422L6.82107 6.76492L6.89125 6.70878C7.05967 6.56843 7.24213 6.47018 7.43862 6.40001L7.52283 6.37194L7.66318 4.12632L7.69125 3.92983H7.49476C6.40002 4.05615 5.3895 4.64562 4.71581 5.52983L4.61757 5.68422ZM6.77897 6.42808L5.05265 5.57194L5.10879 5.50176C5.6702 4.85615 6.44213 4.40702 7.2702 4.25264L7.35441 4.2386L7.24213 6.16141L7.21406 6.17545C7.07371 6.23159 6.93336 6.3158 6.82107 6.40001L6.77897 6.42808ZM5.27722 5.52983L6.76493 6.27369C6.87722 6.18948 6.9895 6.11931 7.11581 6.06316L7.21406 4.40702C6.4702 4.57545 5.79651 4.96843 5.27722 5.52983Z" fill="#2D3E50"/>
<path d="M7.99999 2.793C5.12279 2.793 2.79297 5.13686 2.79297 8.00002C2.79297 10.8772 5.13683 13.2211 7.99999 13.2211C10.8631 13.2211 13.207 10.8772 13.207 8.00002C13.207 5.12282 10.8772 2.793 7.99999 2.793ZM7.99999 12.8C5.36139 12.8 3.21402 10.6526 3.21402 8.00002C3.21402 5.36142 5.36139 3.21405 7.99999 3.21405C10.6386 3.21405 12.786 5.36142 12.786 8.00002C12.786 10.6386 10.6386 12.8 7.99999 12.8Z" fill="#2D3E50"/>
<path d="M7.99997 13.2912C5.08067 13.2912 2.72278 10.9193 2.72278 8C2.72278 5.0807 5.09471 2.72281 7.99997 2.72281C10.9052 2.72281 13.2772 5.0807 13.2772 8C13.2772 10.9193 10.9193 13.2912 7.99997 13.2912ZM7.99997 2.86316C5.16488 2.86316 2.86313 5.16491 2.86313 8C2.86313 10.8351 5.16488 13.1509 7.99997 13.1509C10.8351 13.1509 13.1368 10.8491 13.1368 8C13.1368 5.16491 10.8351 2.86316 7.99997 2.86316ZM7.99997 12.8702C5.31927 12.8702 3.14383 10.6947 3.14383 8C3.14383 5.3193 5.31927 3.14386 7.99997 3.14386C10.6807 3.14386 12.8561 5.3193 12.8561 8C12.8561 10.6807 10.6807 12.8702 7.99997 12.8702ZM7.99997 3.28421C5.38944 3.28421 3.28418 5.40351 3.28418 8C3.28418 10.6105 5.40348 12.7298 7.99997 12.7298C10.5965 12.7298 12.7158 10.6105 12.7158 8C12.7158 5.38948 10.6105 3.28421 7.99997 3.28421Z" fill="#2D3E50"/>
<path d="M9.09475 8.00001C9.09475 7.3965 8.60352 6.90527 8.00001 6.90527C7.3965 6.90527 6.90527 7.3965 6.90527 8.00001C6.90527 8.60352 7.3965 9.09474 8.00001 9.09474C8.60352 9.09474 9.09475 8.60352 9.09475 8.00001ZM8.00001 8.67369C7.6351 8.67369 7.32633 8.37896 7.32633 8.00001C7.32633 7.6351 7.62106 7.32633 8.00001 7.32633C8.36492 7.32633 8.67369 7.62106 8.67369 8.00001C8.67369 8.36492 8.36492 8.67369 8.00001 8.67369Z" fill="#2D3E50"/>
<path d="M8 9.16492C7.35438 9.16492 6.83508 8.64562 6.83508 8.00001C6.83508 7.3544 7.35438 6.8351 8 6.8351C8.64561 6.8351 9.16491 7.3544 9.16491 8.00001C9.16491 8.64562 8.64561 9.16492 8 9.16492ZM8 6.97545C7.43859 6.97545 6.97543 7.43861 6.97543 8.00001C6.97543 8.56141 7.43859 9.02457 8 9.02457C8.5614 9.02457 9.02456 8.56141 9.02456 8.00001C9.02456 7.43861 8.5614 6.97545 8 6.97545ZM8 8.74387C7.59298 8.74387 7.25614 8.40703 7.25614 8.00001C7.25614 7.59299 7.59298 7.25615 8 7.25615C8.40701 7.25615 8.74386 7.59299 8.74386 8.00001C8.74386 8.40703 8.40701 8.74387 8 8.74387ZM8 7.3965C7.66315 7.3965 7.39649 7.66317 7.39649 8.00001C7.39649 8.33685 7.66315 8.60352 8 8.60352C8.33684 8.60352 8.60351 8.33685 8.60351 8.00001C8.60351 7.66317 8.33684 7.3965 8 7.3965Z" fill="#2D3E50"/>
<path d="M11.8456 6.37193L11.7614 6.21754L11.7193 6.14737L11.6492 6.18947L9.61407 7.53684L9.57196 7.56491L9.586 7.60702L9.60003 7.70527C9.6281 7.81755 9.6281 7.91579 9.6281 8.01404C9.6281 8.11228 9.61407 8.21053 9.60003 8.32281L9.586 8.40702L9.57196 8.44913L9.61407 8.4772L11.4807 9.71228L11.6492 9.8386L11.7193 9.89474L11.7474 9.81053L11.8176 9.65614C12.0421 9.13685 12.1544 8.58948 12.1544 8.01404C12.1684 7.4386 12.0562 6.89123 11.8456 6.37193ZM11.7474 8C11.7474 8.42106 11.6772 8.82807 11.5369 9.23509L10.0351 8.25263C10.0492 8.16842 10.0492 8.08421 10.0492 8.01404C10.0492 7.92983 10.0492 7.85965 10.0351 7.77544L11.5369 6.79298C11.6772 7.17193 11.7474 7.57895 11.7474 8Z" fill="#2D3E50"/>
<path d="M11.7614 9.97895L11.4526 9.75439L9.51581 8.4772L9.54388 8.29474C9.55791 8.18246 9.57195 8.09825 9.57195 8.00001C9.57195 7.90176 9.55791 7.81755 9.54388 7.70527L9.51581 7.52281L11.7614 6.0351L11.9158 6.3158L11.8597 6.3579L11.9298 6.32983C12.1544 6.86317 12.2667 7.41053 12.2667 7.98597C12.2667 8.56141 12.1544 9.12281 11.9298 9.64211L11.7614 9.97895ZM9.67019 8.40702L11.5369 9.64211L11.7053 9.76843L11.7755 9.61404C12 9.10878 12.0983 8.56141 12.0983 8.00001C12.0983 7.4386 11.986 6.90527 11.7755 6.40001L11.7053 6.25966L9.67019 7.60702L9.68423 7.70527C9.7123 7.81755 9.7123 7.92983 9.7123 8.02808C9.7123 8.12632 9.69826 8.22457 9.68423 8.35088L9.67019 8.40702ZM11.579 9.33334L9.97897 8.28071V8.2386C9.993 8.15439 9.993 8.08422 9.993 8.00001C9.993 7.92983 9.993 7.84562 9.97897 7.76141V7.71931L11.593 6.65264L11.6211 6.73685C11.7614 7.14387 11.8316 7.56492 11.8316 7.98597C11.8316 8.42106 11.7614 8.84211 11.6211 9.2351L11.579 9.33334ZM10.1193 8.21053L11.5088 9.12281C11.6211 8.7579 11.6772 8.37895 11.6772 8.00001C11.6772 7.62106 11.6211 7.24211 11.5088 6.8772L10.1193 7.78948C10.1334 7.85966 10.1334 7.92983 10.1334 8.00001C10.1334 8.07018 10.1334 8.14036 10.1193 8.21053Z" fill="#2D3E50"/>
<path d="M6.38599 7.70527L6.40003 7.60702L6.41406 7.56492L6.37196 7.53685L4.49125 6.32983L4.3088 6.21755L4.23862 6.17545L4.21055 6.24562L4.15441 6.40001C3.94388 6.90527 3.8316 7.45264 3.8316 8.00001C3.8316 8.54738 3.94388 9.09474 4.15441 9.60001L4.22459 9.74036L4.26669 9.81053L4.33687 9.76843L6.38599 8.44913L6.4281 8.42106L6.41406 8.37895L6.40003 8.29474C6.38599 8.21053 6.37196 8.11229 6.37196 8.00001C6.35792 7.90176 6.37196 7.78948 6.38599 7.70527ZM5.93687 8.00001C5.93687 8.08422 5.93687 8.15439 5.9509 8.22457L4.44915 9.19299C4.32283 8.80001 4.25266 8.40702 4.25266 8.00001C4.25266 7.59299 4.32283 7.18597 4.44915 6.80702L5.9509 7.77545C5.93687 7.84562 5.93687 7.9158 5.93687 8.00001Z" fill="#2D3E50"/>
<path d="M4.22457 9.90878L4.08422 9.62808C3.85966 9.09475 3.76141 8.54738 3.76141 7.98598C3.76141 7.42457 3.87369 6.8772 4.08422 6.35791L4.21054 6.04913L4.53334 6.25966L6.49826 7.52282L6.45615 7.71931C6.44212 7.78948 6.42808 7.90176 6.42808 8.00001C6.42808 8.09826 6.44212 8.18247 6.45615 8.26668V8.28071L6.48422 8.44913L4.22457 9.90878ZM4.26668 6.27369L4.21054 6.42808C4.00001 6.93334 3.90176 7.45264 3.90176 8.00001C3.90176 8.54738 4.01405 9.06668 4.21054 9.57194L4.28071 9.71229L6.32983 8.39299L6.3158 8.30878C6.30176 8.22457 6.28773 8.11229 6.28773 8.00001C6.28773 7.88773 6.30176 7.77545 6.3158 7.70527L6.32983 7.60703L4.26668 6.27369ZM4.40703 9.30527L4.37896 9.22106C4.25264 8.82808 4.18247 8.42106 4.18247 8.00001C4.18247 7.57896 4.25264 7.17194 4.37896 6.77896L4.40703 6.69475L6.02106 7.74738V7.78948C6.00703 7.87369 6.00703 7.94387 6.00703 8.00001C6.00703 8.07019 6.00703 8.14036 6.02106 8.21054V8.25264L4.40703 9.30527ZM4.4772 6.91931C4.36492 7.27019 4.30878 7.6351 4.30878 8.00001C4.30878 8.36492 4.36492 8.72984 4.4772 9.09475L5.86668 8.1965C5.86668 8.12633 5.85264 8.07019 5.85264 8.01405C5.85264 7.9579 5.85264 7.88773 5.86668 7.83159L4.4772 6.91931Z" fill="#2D3E50"/>
<path d="M7.45262 9.54386C7.25613 9.47369 7.08771 9.37544 6.93332 9.23509L6.86314 9.17895L6.82104 9.15088L6.77893 9.16491L4.75788 10.1754L4.58946 10.2456L4.50525 10.2737L4.56139 10.3439L4.67367 10.4842C5.36139 11.3825 6.38595 11.986 7.49472 12.1123L7.67718 12.1263L7.76139 12.1404V12.0561L7.607 9.61404V9.57193L7.5649 9.5579L7.45262 9.54386ZM6.7649 9.65614C6.89121 9.75439 7.03156 9.8386 7.18595 9.89474L7.29823 11.6912C6.4842 11.5368 5.7263 11.1018 5.17893 10.4561L6.7649 9.65614Z" fill="#2D3E50"/>
<path d="M7.8316 12.2526L7.48072 12.2105C6.34388 12.0702 5.30528 11.4667 4.60353 10.5544L4.37897 10.2596L4.71581 10.1193L6.82107 9.06667L6.96142 9.19298C7.11581 9.3193 7.28423 9.41754 7.46669 9.48772L7.63511 9.54386L7.8316 12.2526ZM4.61756 10.3158L4.72984 10.4561C5.40353 11.3403 6.41405 11.9298 7.50879 12.0561L7.69125 12.0702L7.53686 9.62807L7.43862 9.61403C7.24212 9.54386 7.05967 9.43158 6.89125 9.30526L6.82107 9.24912L4.78598 10.2456L4.61756 10.3158ZM7.36844 11.7754L7.28423 11.7614C6.45616 11.593 5.68423 11.1579 5.12283 10.5123L5.05265 10.4281L6.77897 9.57193L6.80704 9.6C6.93335 9.69824 7.05967 9.76842 7.20002 9.82456L7.24212 9.8386L7.36844 11.7754ZM5.27721 10.4702C5.79651 11.0316 6.4702 11.4246 7.21405 11.593L7.11581 9.93684C6.98949 9.8807 6.87721 9.81053 6.76493 9.72632L5.27721 10.4702Z" fill="#2D3E50"/>
<path d="M8.54736 12.1404C9.64209 12 10.6245 11.4246 11.3123 10.5404L11.4105 10.4L11.4667 10.3298L11.3965 10.2877L9.20701 9.17895L9.1649 9.15088L9.1228 9.19298L9.05262 9.24913C8.89823 9.37544 8.72981 9.47369 8.56139 9.54386L8.47718 9.57193L8.42104 9.58597V9.62807L8.30876 11.8737L8.26666 12.0702L8.23859 12.1684L8.33683 12.1544L8.54736 12.1404ZM9.20701 9.65614L10.807 10.4842C10.2596 11.1018 9.54385 11.5228 8.74385 11.6772L8.84209 9.8807C8.96841 9.82456 9.09473 9.75439 9.20701 9.65614Z" fill="#2D3E50"/>
<path d="M8.15436 12.2526L8.23857 11.8737L8.36488 9.54386L8.53331 9.48772C8.70173 9.43158 8.87015 9.33334 9.0105 9.20702L9.15085 9.0807L11.5649 10.3158L11.3684 10.5825C10.6666 11.4807 9.68418 12.0561 8.56138 12.1965H8.54734L8.15436 12.2526ZM8.4912 9.64211L8.37892 11.8877L8.33681 12.0842L8.53331 12.0561C9.61401 11.9158 10.5824 11.3544 11.2561 10.4842L11.3544 10.3439L9.16488 9.23509L9.09471 9.29123C8.94032 9.41755 8.7719 9.52983 8.57541 9.58597L8.4912 9.64211ZM8.65962 11.7614L8.75787 9.8386L8.79997 9.82456C8.92629 9.76842 9.0526 9.69825 9.16488 9.61404L9.19295 9.58597L10.9052 10.4561L10.8631 10.5263C10.3017 11.1579 9.5719 11.5789 8.75787 11.7474L8.65962 11.7614ZM8.89822 9.93684L8.81401 11.593C9.54383 11.4246 10.1894 11.0597 10.6947 10.4982L9.22102 9.74035C9.12278 9.81053 9.0105 9.8807 8.89822 9.93684Z" fill="#2D3E50"/>
</svg>
