<svg width="24" height="24" viewBox="0 0 24 24" fill="none" xmlns="http://www.w3.org/2000/svg">
<path d="M12 0.884216C5.87369 0.884216 0.884216 5.87369 0.884216 12C0.884216 18.1263 5.87369 23.1158 12 23.1158C18.1263 23.1158 23.1158 18.1263 23.1158 12C23.1158 5.87369 18.1263 0.884216 12 0.884216ZM12 22.4632C6.23158 22.4632 1.53685 17.7684 1.53685 12C1.53685 6.23158 6.23158 1.53685 12 1.53685C17.7684 1.53685 22.4632 6.23158 22.4632 12C22.4632 17.7684 17.7684 22.4632 12 22.4632Z" fill="#2D3E50"/>
<path d="M12 23.2C5.81051 23.2 0.799988 18.1895 0.799988 12C0.799988 5.81053 5.81051 0.800003 12 0.800003C18.1895 0.800003 23.2 5.83158 23.2 12C23.2 18.1684 18.1895 23.2 12 23.2ZM12 1.01053C5.93683 1.01053 1.01051 5.93685 1.01051 12C1.01051 18.0632 5.93683 22.9895 12 22.9895C18.0631 22.9895 22.9895 18.0632 22.9895 12C22.9895 5.93685 18.0631 1.01053 12 1.01053ZM12 22.5684C6.16841 22.5684 1.43157 17.8316 1.43157 12C1.43157 6.16842 6.16841 1.43158 12 1.43158C17.8316 1.43158 22.5684 6.16842 22.5684 12C22.5684 17.8316 17.8316 22.5684 12 22.5684ZM12 1.64211C6.27367 1.64211 1.64209 6.27369 1.64209 12C1.64209 17.7263 6.29472 22.3579 12 22.3579C17.7053 22.3579 22.3579 17.7053 22.3579 12C22.3579 6.29474 17.7263 1.64211 12 1.64211Z" fill="#2D3E50"/>
<path d="M12.6316 9.55791V9.62107L12.6948 9.64212L12.8421 9.68422C13.1158 9.78949 13.3684 9.93685 13.579 10.1263L13.6842 10.2105L13.7474 10.2526L13.8106 10.2105L17.0948 8.54738L17.2 8.48422L17.1158 8.37896L16.9684 8.16843C15.9369 6.84212 14.4632 5.97896 12.8211 5.76843H12.5263H12.4L12.4211 5.89475L12.4842 6.14738L12.6316 9.55791ZM13.2421 9.17896L13.0948 6.48422C14.3158 6.73685 15.3895 7.34738 16.2106 8.2737L13.8106 9.49475C13.6421 9.36843 13.4527 9.26317 13.2421 9.17896Z" fill="#2D3E50"/>
<path d="M13.7263 10.379L13.5158 10.1895C13.3053 10 13.0526 9.87369 12.8 9.76843L12.5263 9.68422L12.3368 6.14737L12.2316 5.66316L12.821 5.68421C14.5053 5.89474 16 6.7579 17.0316 8.12632L17.3474 8.52632L13.7263 10.379ZM12.7368 9.53685L12.8631 9.57895C13.1368 9.68422 13.4105 9.83158 13.6421 10.0211L13.7474 10.1053L17.0316 8.44211L16.8842 8.23158C15.8737 6.94737 14.421 6.10527 12.8 5.89474H12.5053L12.5684 6.14737L12.7368 9.53685ZM13.8105 9.62106L13.7684 9.57895C13.6 9.45264 13.4105 9.34737 13.221 9.26316L13.1579 9.24211L13.0105 6.3579L13.1368 6.37895C14.3789 6.63158 15.4526 7.26316 16.2947 8.21053L16.3789 8.3158L13.8105 9.62106ZM13.3474 9.1158C13.5158 9.20001 13.6842 9.28422 13.8316 9.38948L16.0421 8.25264C15.2842 7.43158 14.3158 6.86316 13.221 6.61053L13.3474 9.1158Z" fill="#2D3E50"/>
<path d="M10.4 10.1263C10.6316 9.9158 10.9053 9.76843 11.179 9.66317L11.3053 9.62106L11.3685 9.60001V9.53685L11.579 6.16843L11.6211 5.87369L11.6421 5.74738L11.5158 5.76843L11.2421 5.81053C9.57899 6.02106 8.02109 6.90527 7.01057 8.25264L6.84215 8.46317L6.75793 8.56843L6.88425 8.63159L10.1895 10.2526L10.2527 10.2737L10.3158 10.2316L10.4 10.1263ZM7.74741 8.3158C8.56846 7.36843 9.7053 6.7158 10.9264 6.46317L10.7579 9.1579C10.5474 9.26317 10.3369 9.36843 10.1264 9.5158L7.74741 8.3158Z" fill="#2D3E50"/>
<path d="M10.2526 10.4L6.58948 8.58948L6.92632 8.16843C7.9579 6.80001 9.53685 5.89475 11.2211 5.68422L11.7684 5.62106L11.6842 6.18948L11.4737 9.68422L11.2211 9.76843C10.9474 9.87369 10.6947 10.0211 10.4632 10.2105L10.2526 10.4ZM6.92632 8.52633L10.2316 10.1474L10.3368 10.0632C10.5895 9.85264 10.8632 9.70527 11.1579 9.60001L11.2842 9.55791L11.4947 6.18948L11.5368 5.89475H11.2421C9.6 6.08422 8.08421 6.96843 7.07369 8.29475L6.92632 8.52633ZM10.1684 9.64212L7.57895 8.35791L7.66316 8.25264C8.50527 7.28422 9.66316 6.61054 10.9053 6.37896L11.0316 6.35791L10.8632 9.24212L10.8211 9.26317C10.6105 9.34738 10.4 9.47369 10.2316 9.60001L10.1684 9.64212ZM7.91579 8.29475L10.1474 9.41054C10.3158 9.28422 10.4842 9.17896 10.6737 9.09475L10.8211 6.61054C9.70527 6.86317 8.69474 7.45264 7.91579 8.29475Z" fill="#2D3E50"/>
<path d="M12 4.18948C7.68419 4.18948 4.18945 7.70527 4.18945 12C4.18945 16.3158 7.70524 19.8316 12 19.8316C16.2947 19.8316 19.8105 16.3158 19.8105 12C19.8105 7.68422 16.3158 4.18948 12 4.18948ZM12 19.2C8.04208 19.2 4.82103 15.979 4.82103 12C4.82103 8.04212 8.04208 4.82106 12 4.82106C15.9579 4.82106 19.1789 8.04212 19.1789 12C19.1789 15.9579 15.9579 19.2 12 19.2Z" fill="#2D3E50"/>
<path d="M12 19.9368C7.62101 19.9368 4.08417 16.379 4.08417 12C4.08417 7.62106 7.64206 4.08421 12 4.08421C16.3579 4.08421 19.9157 7.62106 19.9157 12C19.9157 16.379 16.3789 19.9368 12 19.9368ZM12 4.29474C7.74733 4.29474 4.29469 7.74737 4.29469 12C4.29469 16.2526 7.74733 19.7263 12 19.7263C16.2526 19.7263 19.7052 16.2737 19.7052 12C19.7052 7.74737 16.2526 4.29474 12 4.29474ZM12 19.3053C7.9789 19.3053 4.71575 16.0421 4.71575 12C4.71575 7.97895 7.9789 4.71579 12 4.71579C16.021 4.71579 19.2842 7.97895 19.2842 12C19.2842 16.0211 16.021 19.3053 12 19.3053ZM12 4.92632C8.08417 4.92632 4.92627 8.10527 4.92627 12C4.92627 15.9158 8.10522 19.0947 12 19.0947C15.8947 19.0947 19.0736 15.9158 19.0736 12C19.0736 8.08421 15.9157 4.92632 12 4.92632Z" fill="#2D3E50"/>
<path d="M13.6421 12C13.6421 11.0947 12.9053 10.3579 12 10.3579C11.0948 10.3579 10.3579 11.0947 10.3579 12C10.3579 12.9053 11.0948 13.6421 12 13.6421C12.9053 13.6421 13.6421 12.9053 13.6421 12ZM12 13.0105C11.4526 13.0105 10.9895 12.5684 10.9895 12C10.9895 11.4526 11.4316 10.9895 12 10.9895C12.5474 10.9895 13.0105 11.4316 13.0105 12C13.0105 12.5474 12.5474 13.0105 12 13.0105Z" fill="#2D3E50"/>
<path d="M12 13.7474C11.0316 13.7474 10.2526 12.9684 10.2526 12C10.2526 11.0316 11.0316 10.2526 12 10.2526C12.9684 10.2526 13.7474 11.0316 13.7474 12C13.7474 12.9684 12.9684 13.7474 12 13.7474ZM12 10.4632C11.1579 10.4632 10.4632 11.1579 10.4632 12C10.4632 12.8421 11.1579 13.5368 12 13.5368C12.8421 13.5368 13.5368 12.8421 13.5368 12C13.5368 11.1579 12.8421 10.4632 12 10.4632ZM12 13.1158C11.3895 13.1158 10.8842 12.6105 10.8842 12C10.8842 11.3895 11.3895 10.8842 12 10.8842C12.6105 10.8842 13.1158 11.3895 13.1158 12C13.1158 12.6105 12.6105 13.1158 12 13.1158ZM12 11.0947C11.4947 11.0947 11.0947 11.4947 11.0947 12C11.0947 12.5053 11.4947 12.9053 12 12.9053C12.5053 12.9053 12.9053 12.5053 12.9053 12C12.9053 11.4947 12.5053 11.0947 12 11.0947Z" fill="#2D3E50"/>
<path d="M17.7684 9.5579L17.6421 9.32632L17.579 9.22105L17.4737 9.28421L14.4211 11.3053L14.3579 11.3474L14.379 11.4105L14.4 11.5579C14.4421 11.7263 14.4421 11.8737 14.4421 12.0211C14.4421 12.1684 14.4211 12.3158 14.4 12.4842L14.379 12.6105L14.3579 12.6737L14.4211 12.7158L17.2211 14.5684L17.4737 14.7579L17.579 14.8421L17.6211 14.7158L17.7263 14.4842C18.0632 13.7053 18.2316 12.8842 18.2316 12.0211C18.2526 11.1579 18.0842 10.3368 17.7684 9.5579ZM17.6211 12C17.6211 12.6316 17.5158 13.2421 17.3053 13.8526L15.0526 12.379C15.0737 12.2526 15.0737 12.1263 15.0737 12.0211C15.0737 11.8947 15.0737 11.7895 15.0526 11.6632L17.3053 10.1895C17.5158 10.7579 17.6211 11.3684 17.6211 12Z" fill="#2D3E50"/>
<path d="M17.6421 14.9684L17.1789 14.6316L14.2737 12.7158L14.3158 12.4421C14.3368 12.2737 14.3579 12.1474 14.3579 12C14.3579 11.8526 14.3368 11.7263 14.3158 11.5579L14.2737 11.2842L17.6421 9.05263L17.8737 9.47368L17.7895 9.53684L17.8947 9.49473C18.2316 10.2947 18.4 11.1158 18.4 11.9789C18.4 12.8421 18.2316 13.6842 17.8947 14.4632L17.6421 14.9684ZM14.5053 12.6105L17.3053 14.4632L17.5579 14.6526L17.6632 14.421C18 13.6632 18.1474 12.8421 18.1474 12C18.1474 11.1579 17.9789 10.3579 17.6632 9.6L17.5579 9.38947L14.5053 11.4105L14.5263 11.5579C14.5684 11.7263 14.5684 11.8947 14.5684 12.0421C14.5684 12.1895 14.5474 12.3368 14.5263 12.5263L14.5053 12.6105ZM17.3684 14L14.9684 12.421V12.3579C14.9895 12.2316 14.9895 12.1263 14.9895 12C14.9895 11.8947 14.9895 11.7684 14.9684 11.6421V11.5789L17.3895 9.97894L17.4316 10.1053C17.6421 10.7158 17.7474 11.3474 17.7474 11.9789C17.7474 12.6316 17.6421 13.2632 17.4316 13.8526L17.3684 14ZM15.1789 12.3158L17.2632 13.6842C17.4316 13.1368 17.5158 12.5684 17.5158 12C17.5158 11.4316 17.4316 10.8632 17.2632 10.3158L15.1789 11.6842C15.2 11.7895 15.2 11.8947 15.2 12C15.2 12.1053 15.2 12.2105 15.1789 12.3158Z" fill="#2D3E50"/>
<path d="M9.57895 11.5579L9.60001 11.4105L9.62106 11.3474L9.5579 11.3053L6.73685 9.49473L6.46317 9.32631L6.3579 9.26315L6.3158 9.36842L6.23159 9.59999C5.9158 10.3579 5.74738 11.1789 5.74738 12C5.74738 12.821 5.9158 13.6421 6.23159 14.4L6.33685 14.6105L6.40001 14.7158L6.50527 14.6526L9.57895 12.6737L9.64211 12.6316L9.62106 12.5684L9.60001 12.4421C9.57895 12.3158 9.5579 12.1684 9.5579 12C9.53685 11.8526 9.5579 11.6842 9.57895 11.5579ZM8.90527 12C8.90527 12.1263 8.90527 12.2316 8.92632 12.3368L6.67369 13.7895C6.48422 13.2 6.37895 12.6105 6.37895 12C6.37895 11.3895 6.48422 10.7789 6.67369 10.2105L8.92632 11.6632C8.90527 11.7684 8.90527 11.8737 8.90527 12Z" fill="#2D3E50"/>
<path d="M6.33683 14.8632L6.1263 14.4421C5.78946 13.6421 5.64209 12.8211 5.64209 11.9789C5.64209 11.1368 5.81051 10.3158 6.1263 9.53684L6.31577 9.07368L6.79998 9.38947L9.74735 11.2842L9.6842 11.5789C9.66314 11.6842 9.64209 11.8526 9.64209 12C9.64209 12.1474 9.66314 12.2737 9.6842 12.4V12.4211L9.7263 12.6737L6.33683 14.8632ZM6.39998 9.41053L6.31577 9.64211C5.99998 10.4 5.85262 11.1789 5.85262 12C5.85262 12.8211 6.02104 13.6 6.31577 14.3579L6.42104 14.5684L9.49472 12.5895L9.47367 12.4632C9.45262 12.3368 9.43156 12.1684 9.43156 12C9.43156 11.8316 9.45262 11.6632 9.47367 11.5579L9.49472 11.4105L6.39998 9.41053ZM6.61051 13.9579L6.56841 13.8316C6.37893 13.2421 6.27367 12.6316 6.27367 12C6.27367 11.3684 6.37893 10.7579 6.56841 10.1684L6.61051 10.0421L9.03156 11.6211V11.6842C9.01051 11.8105 9.01051 11.9158 9.01051 12C9.01051 12.1053 9.01051 12.2105 9.03156 12.3158V12.3789L6.61051 13.9579ZM6.71577 10.3789C6.54735 10.9053 6.46314 11.4526 6.46314 12C6.46314 12.5474 6.54735 13.0947 6.71577 13.6421L8.79998 12.2947C8.79998 12.1895 8.77893 12.1053 8.77893 12.0211C8.77893 11.9368 8.77893 11.8316 8.79998 11.7474L6.71577 10.3789Z" fill="#2D3E50"/>
<path d="M11.1789 14.3158C10.8842 14.2105 10.6316 14.0631 10.4 13.8526L10.2947 13.7684L10.2316 13.7263L10.1684 13.7474L7.13682 15.2631L6.88419 15.3684L6.75787 15.4105L6.84208 15.5158L7.01051 15.7263C8.04208 17.0737 9.57893 17.9789 11.2421 18.1684L11.5158 18.1895L11.6421 18.2105V18.0842L11.4105 14.421V14.3579L11.3473 14.3368L11.1789 14.3158ZM10.1473 14.4842C10.3368 14.6316 10.5473 14.7579 10.7789 14.8421L10.9473 17.5368C9.72629 17.3053 8.58945 16.6526 7.7684 15.6842L10.1473 14.4842Z" fill="#2D3E50"/>
<path d="M11.7474 18.3789L11.2211 18.3158C9.51579 18.1053 7.95789 17.2 6.90526 15.8316L6.56842 15.3895L7.07368 15.1789L10.2316 13.6L10.4421 13.7895C10.6737 13.9789 10.9263 14.1263 11.2 14.2316L11.4526 14.3158L11.7474 18.3789ZM6.92632 15.4737L7.09474 15.6842C8.10526 17.0105 9.62105 17.8947 11.2632 18.0842L11.5368 18.1053L11.3053 14.4421L11.1579 14.421C10.8632 14.3158 10.5895 14.1474 10.3368 13.9579L10.2316 13.8737L7.17895 15.3684L6.92632 15.4737ZM11.0526 17.6631L10.9263 17.6421C9.68421 17.3895 8.52631 16.7368 7.68421 15.7684L7.57895 15.6421L10.1684 14.3579L10.2105 14.4C10.4 14.5474 10.5895 14.6526 10.8 14.7368L10.8632 14.7579L11.0526 17.6631ZM7.91579 15.7053C8.69474 16.5474 9.70526 17.1368 10.8211 17.3895L10.6737 14.9053C10.4842 14.821 10.3158 14.7158 10.1474 14.5895L7.91579 15.7053Z" fill="#2D3E50"/>
<path d="M12.8211 18.2105C14.4632 18 15.9369 17.1368 16.9684 15.8105L17.1158 15.6L17.2 15.4947L17.0947 15.4316L13.8105 13.7684L13.7474 13.7263L13.6842 13.7895L13.579 13.8737C13.3474 14.0632 13.0948 14.2105 12.8421 14.3158L12.7158 14.3579L12.6316 14.379V14.4421L12.4632 17.8105L12.4 18.1053L12.3579 18.2526L12.5053 18.2316L12.8211 18.2105ZM13.8105 14.4842L16.2105 15.7263C15.3895 16.6526 14.3158 17.2842 13.1158 17.5158L13.2632 14.8211C13.4526 14.7368 13.6421 14.6316 13.8105 14.4842Z" fill="#2D3E50"/>
<path d="M12.2316 18.3789L12.3579 17.8105L12.5474 14.3158L12.8 14.2316C13.0526 14.1474 13.3053 14 13.5158 13.8105L13.7263 13.621L17.3474 15.4737L17.0526 15.8737C16 17.221 14.5263 18.0842 12.8421 18.2947H12.821L12.2316 18.3789ZM12.7368 14.4632L12.5684 17.8316L12.5053 18.1263L12.8 18.0842C14.421 17.8737 15.8737 17.0316 16.8842 15.7263L17.0316 15.5158L13.7474 13.8526L13.6421 13.9368C13.4105 14.1263 13.1579 14.2947 12.8631 14.3789L12.7368 14.4632ZM12.9895 17.6421L13.1368 14.7579L13.2 14.7368C13.3895 14.6526 13.5789 14.5474 13.7474 14.421L13.7895 14.3789L16.3579 15.6842L16.2947 15.7895C15.4526 16.7368 14.3579 17.3684 13.1368 17.621L12.9895 17.6421ZM13.3474 14.9053L13.221 17.3895C14.3158 17.1368 15.2842 16.5895 16.0421 15.7474L13.8316 14.6105C13.6842 14.7158 13.5158 14.821 13.3474 14.9053Z" fill="#2D3E50"/>
</svg>
