<svg width="24" height="24" viewBox="0 0 24 24" fill="none" xmlns="http://www.w3.org/2000/svg">
<path d="M12.2918 1C12.5628 1.02699 12.8339 1.05437 13.1053 1.08057C14.9851 1.26284 16.7057 1.89138 18.2471 2.97638C20.739 4.7306 22.3114 7.11023 22.8233 10.1153C23.4147 13.5963 22.5187 16.7027 20.1738 19.3534C18.5127 21.2308 16.4229 22.4093 13.9549 22.8344C10.5599 23.416 7.51101 22.5947 4.8744 20.3785C2.92306 18.7358 1.67926 16.6393 1.21304 14.1326C0.56024 10.621 1.4086 7.47594 3.7456 4.76893C5.37974 2.87703 7.45703 1.70951 9.90824 1.22216C10.3776 1.12868 10.8622 1.10209 11.3398 1.0442C11.4489 1.0309 11.5572 1.01486 11.666 1H12.2918ZM11.9887 22.0905C17.5247 22.0807 22.0239 17.6406 22.0649 12.1296C22.1091 6.49224 17.59 1.93715 12.018 1.94301C6.4268 1.9481 1.95853 6.44531 1.92919 11.934C1.90025 17.5546 6.41584 22.0897 11.9887 22.0905Z" fill="#2D3E50"/>
<path d="M11.9934 19.8048C7.70663 19.8048 4.20993 16.3116 4.20563 12.0264C4.2025 7.71571 7.70742 4.22136 12.0317 4.22331C16.2908 4.22331 19.7929 7.74348 19.7914 12.0158C19.7894 16.3139 16.2951 19.8044 11.9934 19.8048ZM11.9817 18.8832C15.7756 18.8832 18.8609 15.809 18.8691 12.0185C18.8769 8.26368 15.7792 5.15225 12.0243 5.14794C8.22449 5.14325 5.12244 8.23787 5.12713 12.0248C5.13417 15.789 8.2241 18.8821 11.9817 18.8832Z" fill="#2D3E50"/>
<path d="M11.8083 5.75262C11.7802 6.10738 11.7489 6.44883 11.727 6.79107C11.675 7.59015 11.6136 8.38923 11.5846 9.18909C11.5705 9.57279 11.5408 9.87552 11.0742 9.98817C10.8395 10.0453 10.6439 10.2698 10.4237 10.4055C10.3588 10.4446 10.2481 10.4786 10.1891 10.4501C9.02427 9.8853 7.86379 9.31073 6.70292 8.73733C6.69252 8.73034 6.68328 8.72176 6.67554 8.71191C7.39443 7.19472 10.0232 5.67205 11.8083 5.75262ZM8.10473 8.37319C8.18725 8.41856 8.24749 8.45337 8.30968 8.48466C8.80511 8.73238 9.30054 8.98009 9.79597 9.22781C10.2059 9.43237 10.207 9.43433 10.5731 9.17931C10.6177 9.14607 10.6474 9.0966 10.6557 9.04163C10.7007 8.3462 10.7398 7.65038 10.7785 6.95417C10.7759 6.91193 10.7693 6.87003 10.7589 6.82901C9.72087 7.08364 8.85296 7.59836 8.10668 8.37397L8.10473 8.37319Z" fill="#2D3E50"/>
<path d="M11.8006 18.2672C10.0698 18.3939 7.41638 16.8525 6.67676 15.3286C7.85171 14.7427 9.02719 14.1581 10.2032 13.5748C10.2333 13.5641 10.2655 13.5606 10.2973 13.5646C10.329 13.5686 10.3593 13.58 10.3858 13.5979C10.6837 13.8722 11.0384 14.0773 11.4247 14.1987C11.4537 14.2125 11.479 14.233 11.4986 14.2585C11.5181 14.284 11.5314 14.3138 11.5373 14.3453C11.5948 15.0912 11.6445 15.8375 11.6938 16.5842C11.7313 17.1407 11.7646 17.6981 11.8006 18.2672ZM10.7934 17.2151C10.7457 16.4328 10.7019 15.6928 10.6518 14.9543C10.6491 14.9152 10.5967 14.8722 10.5575 14.8452C10.4883 14.7971 10.4054 14.767 10.3393 14.7169C10.2278 14.6301 10.1297 14.6309 10.0021 14.697C9.43109 14.9938 8.85418 15.279 8.28117 15.5692C8.2315 15.5946 8.18535 15.6263 8.11572 15.6678C8.8577 16.443 9.72679 16.9503 10.7934 17.2151Z" fill="#2D3E50"/>
<path d="M17.5267 9.0811C18.5373 11.052 18.4861 13.0073 17.538 14.9872C17.2662 14.8002 17.008 14.6172 16.744 14.4427C15.9357 13.9076 15.1247 13.3753 14.3112 12.8457C14.1938 12.7702 14.1473 12.6893 14.1821 12.5598C14.2746 12.1986 14.2746 11.82 14.1821 11.4588C14.159 11.3626 14.1606 11.2839 14.2697 11.2128C15.3164 10.5291 16.3572 9.83676 17.3988 9.14759C17.432 9.12765 17.4672 9.11239 17.5267 9.0811ZM17.1027 10.4579C16.4601 10.8834 15.8511 11.2843 15.2483 11.6903C15.2073 11.7274 15.1822 11.779 15.1783 11.8343C15.1674 11.9371 15.1842 12.0431 15.1732 12.1472C15.1599 12.2692 15.2147 12.3357 15.3117 12.3987C15.8464 12.7456 16.3775 13.0984 16.9102 13.4488C16.967 13.486 17.0276 13.5189 17.1058 13.5662C17.4156 12.5215 17.4187 11.5096 17.1027 10.4579Z" fill="#2D3E50"/>
<path d="M17.294 15.3799C16.0549 17.1861 14.3605 18.1522 12.1831 18.293C12.1786 18.2587 12.1786 18.224 12.1831 18.1897C12.3673 17.5225 12.3227 16.8333 12.3732 16.1559C12.4166 15.5649 12.4268 14.9719 12.4651 14.3805C12.4731 14.3401 12.4903 14.302 12.5155 14.2694C12.5407 14.2367 12.5731 14.2104 12.6102 14.1924C12.961 14.0686 13.2851 13.8795 13.5654 13.635C13.6119 13.5959 13.7167 13.5642 13.7648 13.5885C14.9398 14.1771 16.1093 14.7752 17.294 15.3799ZM13.2501 17.2006C14.2854 16.9459 15.1275 16.4469 15.8543 15.701C15.7968 15.6642 15.7663 15.6411 15.733 15.6227C15.1312 15.3164 14.5291 15.0097 13.9268 14.7028C13.7375 14.607 13.3757 14.8061 13.3585 15.0204C13.3366 15.286 13.3268 15.5527 13.3139 15.8191C13.2924 16.2662 13.2724 16.7136 13.2501 17.2006Z" fill="#2D3E50"/>
<path d="M17.2983 8.65052C16.8966 8.85587 16.516 9.05143 16.1331 9.24621C15.3618 9.63734 14.5897 10.0285 13.8204 10.4274C13.7128 10.483 13.6428 10.4857 13.5489 10.3973C13.2895 10.1476 12.9743 9.96352 12.6294 9.86029C12.5062 9.8243 12.4608 9.75664 12.4549 9.62287C12.408 8.54909 12.3547 7.4757 12.295 6.4027C12.2836 6.2044 12.2234 6.00883 12.1776 5.77415C14.3879 5.85434 16.0385 6.86853 17.2983 8.65052ZM13.2493 6.83216C13.2732 7.33202 13.2939 7.78573 13.3166 8.24023C13.3299 8.5062 13.3385 8.77295 13.3635 9.03813C13.3827 9.23956 13.7507 9.42222 13.9307 9.3307L15.6485 8.45378C15.7107 8.42171 15.7701 8.38416 15.8542 8.33645C15.1263 7.58469 14.2827 7.08718 13.2493 6.83216Z" fill="#2D3E50"/>
<path d="M6.4397 14.8863C5.47048 12.9662 5.52524 11.0599 6.42484 9.11594C6.75104 9.32597 7.06121 9.52506 7.37059 9.72492C8.14698 10.2264 8.92103 10.7305 9.70094 11.2265C9.80811 11.2949 9.84019 11.3653 9.81085 11.4811C9.7209 11.8294 9.7209 12.1948 9.81085 12.543C9.83667 12.6443 9.82689 12.7261 9.72285 12.7929C8.65976 13.474 7.59823 14.1573 6.53827 14.8429C6.50626 14.8592 6.47336 14.8737 6.4397 14.8863ZM6.87972 10.5087C6.58395 11.4883 6.58218 12.5332 6.87464 13.5138C6.94582 13.4747 6.99628 13.4493 7.04322 13.4191C7.56264 13.0847 8.07854 12.7448 8.60226 12.4179C8.76106 12.3185 8.83146 12.2121 8.82872 12.0138C8.82599 11.8276 8.77709 11.7142 8.61438 11.6262C8.44346 11.5339 8.28584 11.4166 8.12195 11.311L6.87972 10.5087Z" fill="#2D3E50"/>
<path d="M13.7479 12.0435C13.7264 13.0135 12.9234 13.8071 11.9745 13.7754C10.9525 13.7406 10.2309 12.9506 10.2418 12.0005C10.2536 10.9929 11.0569 10.2431 12.0469 10.2686C12.5077 10.2786 12.9458 10.4712 13.2647 10.804C13.5837 11.1368 13.7575 11.5827 13.7479 12.0435ZM11.9976 11.1928C11.8884 11.1924 11.7802 11.2135 11.6792 11.2549C11.5782 11.2963 11.4863 11.3572 11.4088 11.4342C11.3314 11.5111 11.2698 11.6025 11.2277 11.7033C11.1855 11.804 11.1637 11.912 11.1633 12.0212C11.1633 12.4671 11.5615 12.859 12.0043 12.8508C12.2214 12.8464 12.4283 12.7577 12.581 12.6033C12.7338 12.4489 12.8204 12.2411 12.8225 12.024C12.8242 11.9149 12.804 11.8066 12.7632 11.7054C12.7225 11.6042 12.6619 11.5122 12.585 11.4348C12.5082 11.3573 12.4166 11.296 12.3157 11.2545C12.2149 11.2129 12.1067 11.192 11.9976 11.1928Z" fill="#2D3E50"/>
</svg>
