<svg width="12" height="12" viewBox="0 0 12 12" fill="none" xmlns="http://www.w3.org/2000/svg">
<path d="M6.14589 0.5C6.28142 0.513494 6.41695 0.527183 6.55267 0.540286C7.49255 0.63142 8.35284 0.945692 9.12357 1.48819C10.3695 2.3653 11.1557 3.55511 11.4117 5.05764C11.7074 6.79817 11.2593 8.35134 10.0869 9.67669C9.25635 10.6154 8.21145 11.2046 6.97744 11.4172C5.27993 11.708 3.7555 11.2973 2.4372 10.1893C1.46153 9.36789 0.839631 8.31966 0.606518 7.06629C0.28012 5.31051 0.7043 3.73797 1.8728 2.38446C2.68987 1.43852 3.72852 0.854755 4.95412 0.611081C5.1888 0.564341 5.4311 0.551043 5.66989 0.522099C5.72445 0.51545 5.77862 0.507431 5.83299 0.5H6.14589ZM5.99433 11.0452C8.76236 11.0404 11.0119 8.82031 11.0325 6.0648C11.0546 3.24612 8.79502 0.968574 6.009 0.971507C3.2134 0.974049 0.979265 3.22265 0.964597 5.96702C0.950125 8.77728 3.20792 11.0449 5.99433 11.0452Z" fill="#2D3E50"/>
<path d="M5.99668 9.90237C3.85329 9.90237 2.10494 8.15578 2.10278 6.01317C2.10122 3.85785 3.85368 2.11067 6.01584 2.11165C8.14535 2.11165 9.89644 3.87173 9.89565 6.00789C9.89468 8.15695 8.1475 9.90217 5.99668 9.90237ZM5.99081 9.44162C7.88779 9.44162 9.43041 7.90448 9.43451 6.00926C9.43842 4.13183 7.88955 2.57612 6.01213 2.57396C4.11221 2.57162 2.56119 4.11893 2.56354 6.01239C2.56706 7.8945 4.11202 9.44103 5.99081 9.44162Z" fill="#2D3E50"/>
<path d="M5.90417 2.87632C5.89009 3.0537 5.87444 3.22442 5.86349 3.39554C5.83748 3.79508 5.80678 4.19462 5.7923 4.59455C5.78526 4.7864 5.7704 4.93777 5.53709 4.99409C5.41975 5.02264 5.32197 5.1349 5.21187 5.20276C5.1794 5.22231 5.12406 5.23933 5.09453 5.22505C4.51214 4.94266 3.93189 4.65537 3.35146 4.36867C3.34626 4.36518 3.34164 4.36089 3.33777 4.35596C3.69722 3.59737 5.01161 2.83603 5.90417 2.87632ZM4.05236 4.1866C4.09363 4.20929 4.12374 4.22669 4.15484 4.24234C4.40255 4.3662 4.65027 4.49005 4.89799 4.61391C5.10294 4.71619 5.10352 4.71717 5.28657 4.58966C5.30885 4.57304 5.32368 4.54831 5.32784 4.52082C5.35033 4.17311 5.36988 3.8252 5.38924 3.47709C5.38794 3.45597 5.38466 3.43502 5.37947 3.41451C4.86044 3.54183 4.42648 3.79919 4.05334 4.18699L4.05236 4.1866Z" fill="#2D3E50"/>
<path d="M5.90028 9.1336C5.0349 9.19696 3.70819 8.42624 3.33838 7.66432C3.92586 7.37137 4.51359 7.07906 5.10159 6.78741C5.11666 6.78205 5.13277 6.7803 5.14863 6.7823C5.16449 6.7843 5.17966 6.79001 5.19292 6.79895C5.34184 6.93608 5.5192 7.03865 5.71234 7.09933C5.72684 7.10626 5.7395 7.11652 5.74928 7.12926C5.75907 7.142 5.76571 7.15688 5.76866 7.17267C5.79741 7.54561 5.82225 7.91875 5.84689 8.29209C5.86566 8.57037 5.88229 8.84905 5.90028 9.1336ZM5.3967 8.60753C5.37284 8.2164 5.35094 7.84639 5.3259 7.47717C5.32454 7.45761 5.29833 7.4361 5.27877 7.4226C5.24416 7.39855 5.2027 7.38349 5.16965 7.35846C5.11391 7.31504 5.06483 7.31543 5.00107 7.34848C4.71555 7.49692 4.42709 7.63949 4.14059 7.78459C4.11575 7.79731 4.09267 7.81315 4.05786 7.83388C4.42885 8.22149 4.86339 8.47513 5.3967 8.60753Z" fill="#2D3E50"/>
<path d="M8.76336 4.54056C9.2687 5.52601 9.24308 6.50364 8.76904 7.49359C8.63312 7.40011 8.50404 7.30858 8.37204 7.22136C7.96787 6.95383 7.5624 6.68766 7.15562 6.42287C7.09695 6.38513 7.07368 6.34464 7.09109 6.27991C7.13734 6.09932 7.13734 5.90999 7.09109 5.7294C7.07955 5.68129 7.08033 5.64198 7.13489 5.60639C7.65823 5.26454 8.17862 4.91839 8.69941 4.5738C8.71604 4.56383 8.73364 4.5562 8.76336 4.54056ZM8.55137 5.22895C8.23006 5.44172 7.92556 5.64217 7.6242 5.84517C7.60366 5.86373 7.59111 5.88952 7.58919 5.91714C7.58372 5.96857 7.59213 6.02157 7.58665 6.07359C7.58 6.13461 7.60738 6.16785 7.65588 6.19934C7.92322 6.37281 8.18879 6.5492 8.45515 6.72443C8.48351 6.74301 8.51382 6.75944 8.55294 6.7831C8.70782 6.26075 8.70939 5.75482 8.55137 5.22895Z" fill="#2D3E50"/>
<path d="M8.64698 7.68993C8.02743 8.59305 7.18024 9.07609 6.09153 9.1465C6.08928 9.12936 6.08928 9.112 6.09153 9.09487C6.18364 8.76123 6.16134 8.41665 6.18657 8.07793C6.20828 7.78243 6.21336 7.48595 6.23253 7.19026C6.2365 7.17003 6.24513 7.151 6.25772 7.13468C6.27031 7.11835 6.28653 7.10518 6.30509 7.09619C6.48045 7.03431 6.6425 6.93974 6.78265 6.81751C6.80593 6.79796 6.85834 6.78212 6.88239 6.79424C7.46987 7.08857 8.05461 7.38759 8.64698 7.68993ZM6.62503 8.60028C7.14269 8.47297 7.56374 8.22343 7.9271 7.85049C7.89835 7.8321 7.8831 7.82057 7.86648 7.81137C7.56557 7.65818 7.26453 7.50486 6.96336 7.35141C6.8687 7.30349 6.68781 7.40304 6.6792 7.5102C6.66825 7.64299 6.66336 7.77637 6.65691 7.90955C6.64615 8.13308 6.63618 8.35681 6.62503 8.60028Z" fill="#2D3E50"/>
<path d="M8.64914 4.32527C8.4483 4.42794 8.25801 4.52572 8.06655 4.62311C7.6809 4.81868 7.29485 5.01424 6.91018 5.21372C6.8564 5.24149 6.82139 5.24286 6.77446 5.19866C6.64477 5.07383 6.48714 4.98177 6.31468 4.93015C6.25308 4.91216 6.2304 4.87833 6.22746 4.81144C6.20399 4.27455 6.17733 3.73786 6.14748 3.20136C6.1418 3.10221 6.11169 3.00442 6.08881 2.88708C7.19394 2.92718 8.01923 3.43428 8.64914 4.32527ZM6.62465 3.41609C6.63658 3.66602 6.64695 3.89287 6.65829 4.12012C6.66494 4.25311 6.66924 4.38648 6.68176 4.51907C6.69134 4.61979 6.87537 4.71112 6.96533 4.66536L7.82425 4.2269C7.85534 4.21086 7.88507 4.19209 7.92712 4.16823C7.56317 3.79235 7.14134 3.5436 6.62465 3.41609Z" fill="#2D3E50"/>
<path d="M3.21988 7.44314C2.73527 6.48311 2.76265 5.52993 3.21245 4.55797C3.37555 4.66299 3.53063 4.76253 3.68533 4.86246C4.07352 5.11318 4.46055 5.36526 4.8505 5.61324C4.90409 5.64746 4.92012 5.68266 4.90546 5.74055C4.86048 5.91468 4.86048 6.09738 4.90546 6.27151C4.91836 6.32216 4.91347 6.36303 4.86145 6.39647C4.32991 6.73702 3.79914 7.07867 3.26916 7.42143C3.25316 7.4296 3.23671 7.43684 3.21988 7.44314ZM3.43989 5.25437C3.292 5.74417 3.29112 6.2666 3.43735 6.7569C3.47294 6.73734 3.49817 6.72463 3.52164 6.70957C3.78135 6.54237 4.0393 6.37242 4.30116 6.20893C4.38056 6.15925 4.41576 6.10606 4.41439 6.00691C4.41302 5.91382 4.38858 5.85711 4.30722 5.8131C4.22176 5.76695 4.14295 5.70828 4.06101 5.65548L3.43989 5.25437Z" fill="#2D3E50"/>
<path d="M6.87396 6.02176C6.8632 6.50676 6.4617 6.90356 5.98726 6.88772C5.47625 6.87032 5.11544 6.47527 5.12091 6.00025C5.12678 5.49647 5.52847 5.12157 6.02344 5.13429C6.25387 5.13932 6.47288 5.23561 6.63235 5.40202C6.79183 5.56842 6.87873 5.79133 6.87396 6.02176ZM5.9988 5.59641C5.94421 5.5962 5.89012 5.60675 5.8396 5.62746C5.78909 5.64817 5.74316 5.67862 5.70442 5.71709C5.66568 5.75555 5.6349 5.80127 5.61384 5.85164C5.59277 5.902 5.58184 5.95602 5.58166 6.01061C5.58166 6.23356 5.78075 6.42951 6.00213 6.42541C6.11069 6.42322 6.21414 6.37883 6.29052 6.30165C6.3669 6.22447 6.4102 6.12056 6.41125 6.01198C6.41208 5.95744 6.40201 5.90328 6.38162 5.85269C6.36123 5.8021 6.33093 5.75609 6.2925 5.71738C6.25408 5.67866 6.2083 5.64801 6.15786 5.62724C6.10743 5.60647 6.05335 5.59598 5.9988 5.59641Z" fill="#2D3E50"/>
</svg>
