<svg width="16" height="16" viewBox="0 0 16 16" fill="none" xmlns="http://www.w3.org/2000/svg">
<path d="M8.19455 0.666656C8.37525 0.684648 8.55595 0.702901 8.73691 0.720372C9.99009 0.841883 11.1371 1.26091 12.1648 1.98424C13.826 3.15372 14.8743 4.74014 15.2156 6.74351C15.6098 9.06421 15.0125 11.1351 13.4492 12.9022C12.3418 14.1539 10.9486 14.9395 9.30327 15.2229C7.03993 15.6107 5.00736 15.0631 3.24962 13.5857C1.94872 12.4905 1.11953 11.0929 0.808711 9.42171C0.373514 7.08066 0.939087 4.98395 2.49709 3.17927C3.58651 1.91801 4.97137 1.13966 6.60552 0.814765C6.91842 0.752445 7.24149 0.734713 7.55987 0.696122C7.63262 0.687256 7.70485 0.676565 7.77734 0.666656H8.19455ZM7.99246 14.727C11.6832 14.7205 14.6826 11.7604 14.71 8.08639C14.7395 4.32815 11.7267 1.29142 8.01202 1.29533C4.28455 1.29872 1.30571 4.29686 1.28615 7.95601C1.26685 11.703 4.27725 14.7265 7.99246 14.727Z" fill="#2D3E50"/>
<path d="M7.99563 13.2031C5.13778 13.2031 2.80664 10.8744 2.80377 8.01755C2.80169 5.14379 5.1383 2.81422 8.02118 2.81552C10.8605 2.81552 13.1953 5.1623 13.1943 8.01051C13.193 10.8759 10.8634 13.2029 7.99563 13.2031ZM7.98781 12.5888C10.5171 12.5888 12.5739 10.5393 12.5794 8.01233C12.5846 5.5091 10.5195 3.43481 8.01623 3.43194C5.48301 3.42881 3.41498 5.49189 3.41811 8.0165C3.4228 10.526 5.48275 12.588 7.98781 12.5888Z" fill="#2D3E50"/>
<path d="M7.87224 3.83507C7.85347 4.07157 7.83261 4.29921 7.81801 4.52737C7.78333 5.06008 7.74239 5.5928 7.72309 6.12604C7.71371 6.38184 7.69389 6.58366 7.38281 6.65876C7.22636 6.69683 7.09598 6.8465 6.94918 6.93699C6.90589 6.96306 6.8321 6.98575 6.79272 6.96671C6.0162 6.59018 5.24255 6.20714 4.46863 5.82487C4.4617 5.82021 4.45554 5.81449 4.45038 5.80792C4.92964 4.79646 6.68217 3.78135 7.87224 3.83507ZM5.40317 5.58211C5.45819 5.61236 5.49835 5.63557 5.53981 5.65643C5.87009 5.82157 6.20038 5.98671 6.53067 6.15186C6.80394 6.28823 6.80472 6.28954 7.04878 6.11952C7.07849 6.09736 7.09826 6.06438 7.1038 6.02774C7.13379 5.56412 7.15987 5.10024 7.18568 4.6361C7.18394 4.60794 7.17957 4.58001 7.17264 4.55266C6.4806 4.72241 5.90199 5.06556 5.40447 5.58263L5.40317 5.58211Z" fill="#2D3E50"/>
<path d="M7.86704 12.1781C6.71321 12.2626 4.94426 11.235 4.45117 10.2191C5.23447 9.82847 6.01812 9.43873 6.80212 9.04986C6.82221 9.04271 6.84369 9.04038 6.86484 9.04305C6.88599 9.04572 6.90622 9.05333 6.92389 9.06525C7.12246 9.2481 7.35894 9.38485 7.61645 9.46576C7.63578 9.475 7.65266 9.48867 7.66571 9.50567C7.67876 9.52266 7.68761 9.54249 7.69155 9.56355C7.72988 10.0608 7.763 10.5583 7.79585 11.0561C7.82089 11.4272 7.84305 11.7987 7.86704 12.1781ZM7.1956 11.4767C7.16379 10.9552 7.13458 10.4618 7.10121 9.96954C7.09938 9.94346 7.06444 9.91478 7.03837 9.89679C6.99221 9.86472 6.93693 9.84464 6.89286 9.81126C6.81855 9.75338 6.7531 9.7539 6.6681 9.79796C6.2874 9.99588 5.90279 10.186 5.52078 10.3794C5.48767 10.3964 5.4569 10.4175 5.41048 10.4452C5.90513 10.962 6.48453 11.3002 7.1956 11.4767Z" fill="#2D3E50"/>
<path d="M11.6845 6.05406C12.3583 7.368 12.3241 8.6715 11.692 9.99143C11.5108 9.86679 11.3387 9.74476 11.1627 9.62847C10.6238 9.27176 10.0832 8.91687 9.54081 8.56381C9.46259 8.51349 9.43156 8.45951 9.45476 8.3732C9.51643 8.13241 9.51643 7.87997 9.45476 7.63918C9.43938 7.57504 9.44042 7.52262 9.51317 7.47517C10.2109 7.01937 10.9048 6.55784 11.5992 6.09839C11.6214 6.08509 11.6448 6.07492 11.6845 6.05406ZM11.4018 6.97191C10.9734 7.25561 10.5674 7.52288 10.1656 7.79355C10.1382 7.81829 10.1215 7.85268 10.1189 7.8895C10.1116 7.95808 10.1228 8.02875 10.1155 8.09811C10.1066 8.17946 10.1432 8.22379 10.2078 8.26577C10.5643 8.49706 10.9184 8.73226 11.2735 8.96589C11.3113 8.99066 11.3517 9.01257 11.4039 9.04412C11.6104 8.34765 11.6125 7.67308 11.4018 6.97191Z" fill="#2D3E50"/>
<path d="M11.5293 10.2532C10.7033 11.4574 9.57367 12.1015 8.12206 12.1953C8.11906 12.1725 8.11906 12.1493 8.12206 12.1265C8.24487 11.6816 8.21515 11.2222 8.24878 10.7706C8.27773 10.3766 8.28451 9.98127 8.31006 9.58701C8.31536 9.56004 8.32686 9.53467 8.34365 9.5129C8.36044 9.49113 8.38206 9.47357 8.4068 9.46159C8.64062 9.37907 8.85669 9.25299 9.04356 9.09002C9.07459 9.06394 9.14447 9.04282 9.17654 9.05899C9.95985 9.45142 10.7395 9.85011 11.5293 10.2532ZM8.83339 11.467C9.52361 11.2973 10.085 10.9646 10.5695 10.4673C10.5312 10.4428 10.5108 10.4274 10.4887 10.4152C10.0874 10.2109 9.68606 10.0065 9.2845 9.80188C9.15829 9.73799 8.91709 9.87071 8.90562 10.0136C8.89102 10.1907 8.8845 10.3685 8.8759 10.5461C8.86155 10.8441 8.84826 11.1424 8.83339 11.467Z" fill="#2D3E50"/>
<path d="M11.5322 5.767C11.2644 5.9039 11.0107 6.03428 10.7554 6.16413C10.2412 6.42489 9.72647 6.68564 9.21357 6.95161C9.14186 6.98863 9.09519 6.99046 9.03261 6.93153C8.85969 6.76508 8.64951 6.64234 8.41958 6.57351C8.33744 6.54953 8.30719 6.50441 8.30328 6.41524C8.27199 5.69938 8.23644 4.98379 8.19663 4.26846C8.18907 4.13625 8.14892 4.00588 8.11841 3.84943C9.59192 3.90288 10.6923 4.57901 11.5322 5.767ZM8.83287 4.55476C8.84878 4.88801 8.8626 5.19048 8.87772 5.49347C8.88659 5.67079 8.89232 5.84862 8.90901 6.02541C8.92179 6.1597 9.16716 6.28147 9.2871 6.22045L10.4323 5.63585C10.4738 5.61446 10.5134 5.58943 10.5695 5.55762C10.0842 5.05645 9.52178 4.72477 8.83287 4.55476Z" fill="#2D3E50"/>
<path d="M4.29313 9.92418C3.64699 8.64414 3.68349 7.37323 4.28323 6.07729C4.50069 6.21731 4.70747 6.35003 4.91373 6.48328C5.43132 6.81756 5.94735 7.15367 6.46729 7.48431C6.53874 7.52994 6.56012 7.57688 6.54057 7.65406C6.4806 7.88623 6.4806 8.12983 6.54057 8.36201C6.55778 8.42954 6.55126 8.48404 6.4819 8.52863C5.77317 8.98268 5.06549 9.43822 4.35884 9.89523C4.33751 9.90612 4.31557 9.91579 4.29313 9.92418ZM4.58648 7.00583C4.3893 7.65889 4.38812 8.35547 4.58309 9.00919C4.63055 8.98312 4.66419 8.96617 4.69548 8.94609C5.04176 8.72315 5.38569 8.49655 5.73484 8.27856C5.84071 8.21233 5.88764 8.14141 5.88582 8.00921C5.88399 7.88509 5.8514 7.80947 5.74292 7.7508C5.62897 7.68926 5.52389 7.61104 5.41463 7.54063L4.58648 7.00583Z" fill="#2D3E50"/>
<path d="M9.16529 8.02901C9.15095 8.67567 8.61563 9.20474 7.98304 9.18362C7.30169 9.16041 6.8206 8.63369 6.8279 8.00032C6.83572 7.32862 7.37131 6.82876 8.03128 6.84571C8.33852 6.85242 8.63053 6.98081 8.84316 7.20268C9.05579 7.42456 9.17166 7.72176 9.16529 8.02901ZM7.99842 7.46187C7.92564 7.46159 7.85351 7.47566 7.78616 7.50327C7.71881 7.53088 7.65756 7.57149 7.60591 7.62278C7.55426 7.67406 7.51322 7.73503 7.48514 7.80218C7.45705 7.86933 7.44248 7.94136 7.44224 8.01414C7.44224 8.3114 7.70768 8.57268 8.00286 8.5672C8.14761 8.56429 8.28554 8.5051 8.38738 8.40219C8.48922 8.29928 8.54696 8.16075 8.54835 8.01597C8.54947 7.94325 8.53603 7.87104 8.50884 7.80358C8.48165 7.73613 8.44126 7.67478 8.39002 7.62316C8.33879 7.57154 8.27776 7.53068 8.21051 7.50298C8.14326 7.47528 8.07115 7.4613 7.99842 7.46187Z" fill="#2D3E50"/>
</svg>
