<svg width="12" height="12" viewBox="0 0 12 12" fill="none" xmlns="http://www.w3.org/2000/svg">
<path d="M6.00003 0.442108C2.93688 0.442108 0.442139 2.93684 0.442139 6C0.442139 9.06316 2.93688 11.5579 6.00003 11.5579C9.06319 11.5579 11.5579 9.06316 11.5579 6C11.5579 2.93684 9.06319 0.442108 6.00003 0.442108ZM6.00003 11.2316C3.11582 11.2316 0.768454 8.88421 0.768454 6C0.768454 3.11579 3.11582 0.768424 6.00003 0.768424C8.88424 0.768424 11.2316 3.11579 11.2316 6C11.2316 8.88421 8.88424 11.2316 6.00003 11.2316Z" fill="#2D3E50"/>
<path d="M6.00002 11.6C2.90529 11.6 0.400024 9.09473 0.400024 5.99999C0.400024 2.90526 2.90529 0.399994 6.00002 0.399994C9.09476 0.399994 11.6 2.91578 11.6 5.99999C11.6 9.0842 9.09476 11.6 6.00002 11.6ZM6.00002 0.505257C2.96845 0.505257 0.505288 2.96842 0.505288 5.99999C0.505288 9.03157 2.96845 11.4947 6.00002 11.4947C9.0316 11.4947 11.4948 9.03157 11.4948 5.99999C11.4948 2.96842 9.0316 0.505257 6.00002 0.505257ZM6.00002 11.2842C3.08423 11.2842 0.715814 8.91578 0.715814 5.99999C0.715814 3.0842 3.08423 0.715783 6.00002 0.715783C8.91581 0.715783 11.2842 3.0842 11.2842 5.99999C11.2842 8.91578 8.91581 11.2842 6.00002 11.2842ZM6.00002 0.821047C3.13687 0.821047 0.821077 3.13684 0.821077 5.99999C0.821077 8.86315 3.14739 11.1789 6.00002 11.1789C8.85266 11.1789 11.179 8.85262 11.179 5.99999C11.179 3.14736 8.86318 0.821047 6.00002 0.821047Z" fill="#2D3E50"/>
<path d="M6.31586 4.77895V4.81053L6.34744 4.82106L6.42113 4.84211C6.55797 4.89474 6.68428 4.96843 6.78955 5.06316L6.84218 5.10527L6.87376 5.12632L6.90534 5.10527L8.54744 4.27369L8.60007 4.24211L8.55797 4.18948L8.48428 4.08422C7.96849 3.42106 7.23165 2.98948 6.4106 2.88422H6.26323H6.20007L6.2106 2.94737L6.24218 3.07369L6.31586 4.77895ZM6.62113 4.58948L6.54744 3.24211C7.15797 3.36843 7.69481 3.67369 8.10534 4.13685L6.90534 4.74737C6.82113 4.68422 6.72639 4.63158 6.62113 4.58948Z" fill="#2D3E50"/>
<path d="M6.86321 5.18947L6.75795 5.09473C6.65269 5 6.52637 4.93684 6.40006 4.88421L6.26321 4.8421L6.16848 3.07368L6.11584 2.83157L6.41058 2.8421C7.25269 2.94736 8.00005 3.37894 8.51584 4.06315L8.67374 4.26315L6.86321 5.18947ZM6.36848 4.76842L6.43163 4.78947C6.56848 4.8421 6.70532 4.91579 6.82111 5.01052L6.87374 5.05263L8.51584 4.22105L8.44216 4.11578C7.9369 3.47368 7.21058 3.05263 6.40006 2.94736H6.25269L6.28427 3.07368L6.36848 4.76842ZM6.90532 4.81052L6.88427 4.78947C6.80006 4.72631 6.70532 4.67368 6.61058 4.63157L6.579 4.62105L6.50532 3.17894L6.56848 3.18947C7.18953 3.31578 7.72637 3.63157 8.14742 4.10526L8.18953 4.15789L6.90532 4.81052ZM6.67374 4.55789C6.75795 4.6 6.84216 4.6421 6.91584 4.69473L8.02111 4.12631C7.64216 3.71578 7.15795 3.43157 6.61058 3.30526L6.67374 4.55789Z" fill="#2D3E50"/>
<path d="M5.20002 5.06316C5.31581 4.9579 5.45265 4.88421 5.58949 4.83158L5.65265 4.81053L5.68423 4.8V4.76842L5.78949 3.08421L5.81055 2.93685L5.82107 2.87369L5.75792 2.88421L5.62107 2.90527C4.78949 3.01053 4.01055 3.45264 3.50528 4.12632L3.42107 4.23158L3.37897 4.28421L3.44213 4.31579L5.09476 5.12632L5.12634 5.13685L5.15792 5.11579L5.20002 5.06316ZM3.8737 4.1579C4.28423 3.68421 4.85265 3.3579 5.46318 3.23158L5.37897 4.57895C5.2737 4.63158 5.16844 4.68421 5.06318 4.7579L3.8737 4.1579Z" fill="#2D3E50"/>
<path d="M5.12632 5.20001L3.29474 4.29474L3.46316 4.08422C3.97895 3.40001 4.76842 2.94737 5.61053 2.84211L5.88421 2.81053L5.84211 3.09474L5.73684 4.84211L5.61053 4.88422C5.47369 4.93685 5.34737 5.01053 5.23158 5.10527L5.12632 5.20001ZM3.46316 4.26316L5.11579 5.07369L5.16842 5.03158C5.29474 4.92632 5.43158 4.85264 5.57895 4.8L5.64211 4.77895L5.74737 3.09474L5.76842 2.94737H5.62105C4.8 3.04211 4.04211 3.48422 3.53684 4.14737L3.46316 4.26316ZM5.08421 4.82106L3.78948 4.17895L3.83158 4.12632C4.25263 3.64211 4.83158 3.30527 5.45263 3.18948L5.51579 3.17895L5.43158 4.62106L5.41053 4.63158C5.30526 4.67369 5.2 4.73685 5.11579 4.8L5.08421 4.82106ZM3.9579 4.14737L5.07369 4.70527C5.1579 4.64211 5.24211 4.58948 5.33684 4.54737L5.41053 3.30527C4.85263 3.43158 4.34737 3.72632 3.9579 4.14737Z" fill="#2D3E50"/>
<path d="M5.99999 2.09473C3.8421 2.09473 2.09473 3.85262 2.09473 5.99999C2.09473 8.15788 3.85262 9.91578 5.99999 9.91578C8.14736 9.91578 9.90525 8.15788 9.90525 5.99999C9.90525 3.8421 8.15788 2.09473 5.99999 2.09473ZM5.99999 9.59999C4.02104 9.59999 2.41052 7.98946 2.41052 5.99999C2.41052 4.02104 4.02104 2.41052 5.99999 2.41052C7.97894 2.41052 9.58946 4.02104 9.58946 5.99999C9.58946 7.97894 7.97894 9.59999 5.99999 9.59999Z" fill="#2D3E50"/>
<path d="M6.00001 9.96841C3.81054 9.96841 2.04211 8.18947 2.04211 5.99999C2.04211 3.81052 3.82106 2.0421 6.00001 2.0421C8.17896 2.0421 9.9579 3.81052 9.9579 5.99999C9.9579 8.18947 8.18948 9.96841 6.00001 9.96841ZM6.00001 2.14736C3.87369 2.14736 2.14738 3.87368 2.14738 5.99999C2.14738 8.12631 3.87369 9.86315 6.00001 9.86315C8.12633 9.86315 9.85264 8.13684 9.85264 5.99999C9.85264 3.87368 8.12633 2.14736 6.00001 2.14736ZM6.00001 9.65263C3.98948 9.65263 2.3579 8.02105 2.3579 5.99999C2.3579 3.98947 3.98948 2.35789 6.00001 2.35789C8.01054 2.35789 9.64211 3.98947 9.64211 5.99999C9.64211 8.01052 8.01054 9.65263 6.00001 9.65263ZM6.00001 2.46315C4.04211 2.46315 2.46317 4.05263 2.46317 5.99999C2.46317 7.95789 4.05264 9.54736 6.00001 9.54736C7.94738 9.54736 9.53685 7.95789 9.53685 5.99999C9.53685 4.0421 7.9579 2.46315 6.00001 2.46315Z" fill="#2D3E50"/>
<path d="M6.82106 5.99999C6.82106 5.54736 6.45264 5.17894 6.00001 5.17894C5.54738 5.17894 5.17896 5.54736 5.17896 5.99999C5.17896 6.45262 5.54738 6.82104 6.00001 6.82104C6.45264 6.82104 6.82106 6.45262 6.82106 5.99999ZM6.00001 6.50525C5.72632 6.50525 5.49474 6.2842 5.49474 5.99999C5.49474 5.72631 5.7158 5.49473 6.00001 5.49473C6.27369 5.49473 6.50527 5.71578 6.50527 5.99999C6.50527 6.27368 6.27369 6.50525 6.00001 6.50525Z" fill="#2D3E50"/>
<path d="M6.00003 6.87368C5.51582 6.87368 5.12634 6.48421 5.12634 6C5.12634 5.51579 5.51582 5.12631 6.00003 5.12631C6.48424 5.12631 6.87371 5.51579 6.87371 6C6.87371 6.48421 6.48424 6.87368 6.00003 6.87368ZM6.00003 5.23158C5.57897 5.23158 5.23161 5.57894 5.23161 6C5.23161 6.42105 5.57897 6.76842 6.00003 6.76842C6.42108 6.76842 6.76845 6.42105 6.76845 6C6.76845 5.57894 6.42108 5.23158 6.00003 5.23158ZM6.00003 6.55789C5.69476 6.55789 5.44213 6.30526 5.44213 6C5.44213 5.69473 5.69476 5.4421 6.00003 5.4421C6.30529 5.4421 6.55792 5.69473 6.55792 6C6.55792 6.30526 6.30529 6.55789 6.00003 6.55789ZM6.00003 5.54736C5.7474 5.54736 5.5474 5.74736 5.5474 6C5.5474 6.25263 5.7474 6.45263 6.00003 6.45263C6.25266 6.45263 6.45266 6.25263 6.45266 6C6.45266 5.74736 6.25266 5.54736 6.00003 5.54736Z" fill="#2D3E50"/>
<path d="M8.88422 4.77894L8.82106 4.66315L8.78948 4.61052L8.73685 4.6421L7.21053 5.65263L7.17896 5.67368L7.18948 5.70526L7.20001 5.77894C7.22106 5.86315 7.22106 5.93684 7.22106 6.01052C7.22106 6.0842 7.21053 6.15789 7.20001 6.2421L7.18948 6.30526L7.17896 6.33684L7.21053 6.35789L8.61053 7.28421L8.73685 7.37894L8.78948 7.42105L8.81053 7.35789L8.86316 7.2421C9.03158 6.85263 9.1158 6.4421 9.1158 6.01052C9.12632 5.57894 9.04211 5.16841 8.88422 4.77894ZM8.81053 5.99999C8.81053 6.31578 8.7579 6.62105 8.65264 6.92631L7.52632 6.18947C7.53685 6.12631 7.53685 6.06315 7.53685 6.01052C7.53685 5.94736 7.53685 5.89473 7.52632 5.83157L8.65264 5.09473C8.7579 5.37894 8.81053 5.6842 8.81053 5.99999Z" fill="#2D3E50"/>
<path d="M8.82105 7.4842L8.58947 7.31578L7.13684 6.35788L7.15789 6.22104C7.16842 6.13683 7.17895 6.07367 7.17895 5.99999C7.17895 5.92631 7.16842 5.86315 7.15789 5.77894L7.13684 5.6421L8.82105 4.52631L8.93684 4.73683L8.89474 4.76841L8.94737 4.74736C9.11579 5.14736 9.2 5.55788 9.2 5.98946C9.2 6.42104 9.11579 6.84209 8.94737 7.23157L8.82105 7.4842ZM7.25263 6.30525L8.65263 7.23157L8.77895 7.32631L8.83158 7.21052C9 6.83157 9.07368 6.42104 9.07368 5.99999C9.07368 5.57894 8.98947 5.17894 8.83158 4.79999L8.77895 4.69473L7.25263 5.70525L7.26316 5.77894C7.28421 5.86315 7.28421 5.94736 7.28421 6.02104C7.28421 6.09473 7.27368 6.16841 7.26316 6.26315L7.25263 6.30525ZM8.68421 6.99999L7.48421 6.21052V6.17894C7.49474 6.11578 7.49473 6.06315 7.49473 5.99999C7.49473 5.94736 7.49474 5.8842 7.48421 5.82104V5.78946L8.69474 4.98946L8.71579 5.05262C8.82105 5.35788 8.87368 5.67367 8.87368 5.98946C8.87368 6.31578 8.82105 6.63157 8.71579 6.92631L8.68421 6.99999ZM7.58947 6.15788L8.63158 6.84209C8.71579 6.56841 8.75789 6.2842 8.75789 5.99999C8.75789 5.71578 8.71579 5.43157 8.63158 5.15788L7.58947 5.8421C7.6 5.89473 7.6 5.94736 7.6 5.99999C7.6 6.05262 7.6 6.10525 7.58947 6.15788Z" fill="#2D3E50"/>
<path d="M4.78951 5.77893L4.80003 5.70525L4.81056 5.67367L4.77898 5.65261L3.36846 4.74735L3.23161 4.66314L3.17898 4.63156L3.15793 4.68419L3.11582 4.79998C2.95793 5.17893 2.87372 5.58946 2.87372 5.99998C2.87372 6.41051 2.95793 6.82104 3.11582 7.19998L3.16846 7.30525L3.20003 7.35788L3.25267 7.3263L4.78951 6.33682L4.82109 6.31577L4.81056 6.28419L4.80003 6.22104C4.78951 6.15788 4.77898 6.08419 4.77898 5.99998C4.76846 5.9263 4.77898 5.84209 4.78951 5.77893ZM4.45267 5.99998C4.45267 6.06314 4.45267 6.11577 4.46319 6.1684L3.33688 6.89472C3.24214 6.59998 3.18951 6.30525 3.18951 5.99998C3.18951 5.69472 3.24214 5.38946 3.33688 5.10525L4.46319 5.83156C4.45267 5.88419 4.45267 5.93682 4.45267 5.99998Z" fill="#2D3E50"/>
<path d="M3.16841 7.43157L3.06315 7.22104C2.89473 6.82104 2.82104 6.41052 2.82104 5.98947C2.82104 5.56841 2.90526 5.15789 3.06315 4.76841L3.15789 4.53683L3.39999 4.69473L4.87368 5.6421L4.8421 5.78947C4.83157 5.8421 4.82104 5.92631 4.82104 5.99999C4.82104 6.07368 4.83157 6.13683 4.8421 6.19999V6.21052L4.86315 6.33683L3.16841 7.43157ZM3.19999 4.70526L3.15789 4.82105C2.99999 5.19999 2.92631 5.58947 2.92631 5.99999C2.92631 6.41052 3.01052 6.79999 3.15789 7.17894L3.21052 7.2842L4.74736 6.29473L4.73683 6.23157C4.72631 6.16841 4.71578 6.0842 4.71578 5.99999C4.71578 5.91578 4.72631 5.83157 4.73683 5.77894L4.74736 5.70526L3.19999 4.70526ZM3.30526 6.97894L3.2842 6.91578C3.18947 6.62104 3.13683 6.31578 3.13683 5.99999C3.13683 5.6842 3.18947 5.37894 3.2842 5.0842L3.30526 5.02105L4.51578 5.81052V5.8421C4.50526 5.90526 4.50526 5.95789 4.50526 5.99999C4.50526 6.05262 4.50526 6.10526 4.51578 6.15789V6.18947L3.30526 6.97894ZM3.35789 5.18947C3.27368 5.45262 3.23157 5.72631 3.23157 5.99999C3.23157 6.27368 3.27368 6.54736 3.35789 6.82105L4.39999 6.14736C4.39999 6.09473 4.38947 6.05262 4.38947 6.01052C4.38947 5.96841 4.38947 5.91578 4.39999 5.87368L3.35789 5.18947Z" fill="#2D3E50"/>
<path d="M5.58949 7.15788C5.44213 7.10525 5.31581 7.03157 5.20002 6.9263L5.14739 6.8842L5.11581 6.86314L5.08423 6.87367L3.56844 7.63157L3.44213 7.6842L3.37897 7.70525L3.42107 7.75788L3.50528 7.86314C4.02107 8.53683 4.78949 8.98946 5.62107 9.0842L5.75792 9.09472L5.82107 9.10525V9.04209L5.70528 7.21051V7.17893L5.6737 7.16841L5.58949 7.15788ZM5.0737 7.24209C5.16844 7.31578 5.2737 7.37893 5.38949 7.42104L5.4737 8.76841C4.86318 8.65262 4.29476 8.3263 3.88423 7.84209L5.0737 7.24209Z" fill="#2D3E50"/>
<path d="M5.87371 9.18946L5.61056 9.15788C4.75792 9.05262 3.97898 8.59999 3.45266 7.91578L3.28424 7.69472L3.53687 7.58946L5.11582 6.79999L5.22108 6.89472C5.33687 6.98946 5.46319 7.06315 5.60003 7.11578L5.72635 7.15788L5.87371 9.18946ZM3.46319 7.73683L3.5474 7.84209C4.05266 8.50525 4.81056 8.94736 5.63161 9.04209L5.76845 9.05262L5.65266 7.22104L5.57898 7.21051C5.43161 7.15788 5.29477 7.07367 5.16845 6.97894L5.11582 6.93683L3.5895 7.6842L3.46319 7.73683ZM5.52635 8.83157L5.46319 8.82104C4.84214 8.69472 4.26319 8.36841 3.84214 7.8842L3.7895 7.82104L5.08424 7.17893L5.10529 7.19999C5.20003 7.27367 5.29477 7.3263 5.40003 7.36841L5.43161 7.37893L5.52635 8.83157ZM3.95792 7.85262C4.3474 8.27367 4.85266 8.56841 5.41056 8.69472L5.33687 7.45262C5.24214 7.41051 5.15792 7.35788 5.07371 7.29472L3.95792 7.85262Z" fill="#2D3E50"/>
<path d="M6.41059 9.10527C7.23165 9 7.96849 8.56842 8.48428 7.90526L8.55796 7.8L8.60007 7.74737L8.54743 7.71579L6.90533 6.88421L6.87375 6.86316L6.84217 6.89474L6.78954 6.93684C6.67375 7.03158 6.54744 7.10526 6.42112 7.1579L6.35796 7.17895L6.31586 7.18948V7.22105L6.23165 8.90527L6.20007 9.05263L6.17902 9.12632L6.2527 9.11579L6.41059 9.10527ZM6.90533 7.24211L8.10533 7.86316C7.6948 8.32632 7.15796 8.64211 6.55796 8.7579L6.63165 7.41053C6.72638 7.36842 6.82112 7.31579 6.90533 7.24211Z" fill="#2D3E50"/>
<path d="M6.11584 9.18947L6.179 8.90525L6.27374 7.15789L6.40006 7.11578C6.52637 7.07367 6.65269 6.99999 6.75795 6.90525L6.86321 6.81052L8.67374 7.73683L8.52637 7.93683C8.00005 8.61052 7.26321 9.0421 6.42111 9.14736H6.41058L6.11584 9.18947ZM6.36848 7.23157L6.28427 8.91578L6.25269 9.06315L6.40006 9.0421C7.21058 8.93683 7.9369 8.51578 8.44216 7.86315L8.51584 7.75789L6.87374 6.92631L6.82111 6.96841C6.70532 7.06315 6.579 7.14736 6.43163 7.18946L6.36848 7.23157ZM6.49479 8.82104L6.56848 7.37894L6.60006 7.36841C6.69479 7.32631 6.78953 7.27367 6.87374 7.21052L6.89479 7.18946L8.179 7.8421L8.14742 7.89473C7.72637 8.36841 7.179 8.6842 6.56848 8.81052L6.49479 8.82104ZM6.67374 7.45262L6.61058 8.69473C7.15795 8.56841 7.64216 8.29473 8.02111 7.87368L6.91584 7.30525C6.84216 7.35789 6.75795 7.41052 6.67374 7.45262Z" fill="#2D3E50"/>
</svg>
